<svg width="973" height="180" viewBox="0 0 973 180" fill="none" xmlns="http://www.w3.org/2000/svg">
<rect x="972.108" width="180" height="972.108" rx="8.3027" transform="rotate(90 972.108 0)" fill="url(#paint0_linear_69_3)"/>
<path d="M396.461 64.7938H391.135C391.064 64.2469 390.918 63.7533 390.698 63.313C390.478 62.8726 390.186 62.4962 389.824 62.1837C389.462 61.8712 389.032 61.6333 388.535 61.4699C388.045 61.2995 387.502 61.2143 386.905 61.2143C385.847 61.2143 384.934 61.4735 384.167 61.992C383.407 62.5104 382.821 63.2597 382.409 64.2398C382.005 65.2199 381.802 66.406 381.802 67.7981C381.802 69.2469 382.008 70.4614 382.42 71.4415C382.839 72.4145 383.425 73.1496 384.178 73.6468C384.938 74.1368 385.836 74.3819 386.873 74.3819C387.456 74.3819 387.985 74.3073 388.461 74.1581C388.944 74.009 389.366 73.7924 389.728 73.5083C390.098 73.2171 390.399 72.8655 390.634 72.4536C390.875 72.0346 391.042 71.5623 391.135 71.0367L396.461 71.0687C396.369 72.0346 396.088 72.9863 395.62 73.9238C395.158 74.8613 394.522 75.7171 393.713 76.4912C392.903 77.2583 391.916 77.8691 390.751 78.3236C389.593 78.7782 388.265 79.0054 386.767 79.0054C384.792 79.0054 383.024 78.5722 381.461 77.7057C379.906 76.8322 378.677 75.5608 377.775 73.8918C376.873 72.2228 376.422 70.1915 376.422 67.7981C376.422 65.3975 376.88 63.3627 377.797 61.6937C378.713 60.0246 379.952 58.7569 381.515 57.8904C383.077 57.0239 384.828 56.5907 386.767 56.5907C388.088 56.5907 389.309 56.7753 390.431 57.1447C391.554 57.5069 392.541 58.0395 393.393 58.7427C394.245 59.4387 394.938 60.2945 395.471 61.3101C396.003 62.3258 396.333 63.487 396.461 64.7938ZM420.072 67.7981C420.072 70.1986 419.61 72.2334 418.687 73.9025C417.764 75.5715 416.514 76.8393 414.937 77.7057C413.367 78.5722 411.606 79.0054 409.653 79.0054C407.693 79.0054 405.928 78.5687 404.358 77.6951C402.789 76.8215 401.542 75.5537 400.619 73.8918C399.703 72.2228 399.244 70.1915 399.244 67.7981C399.244 65.3975 399.703 63.3627 400.619 61.6937C401.542 60.0246 402.789 58.7569 404.358 57.8904C405.928 57.0239 407.693 56.5907 409.653 56.5907C411.606 56.5907 413.367 57.0239 414.937 57.8904C416.514 58.7569 417.764 60.0246 418.687 61.6937C419.61 63.3627 420.072 65.3975 420.072 67.7981ZM414.681 67.7981C414.681 66.3776 414.479 65.1773 414.074 64.1972C413.676 63.2171 413.101 62.4749 412.348 61.9706C411.602 61.4664 410.704 61.2143 409.653 61.2143C408.609 61.2143 407.71 61.4664 406.958 61.9706C406.205 62.4749 405.626 63.2171 405.221 64.1972C404.823 65.1773 404.624 66.3776 404.624 67.7981C404.624 69.2185 404.823 70.4188 405.221 71.3989C405.626 72.379 406.205 73.1212 406.958 73.6255C407.71 74.1297 408.609 74.3819 409.653 74.3819C410.704 74.3819 411.602 74.1297 412.348 73.6255C413.101 73.1212 413.676 72.379 414.074 71.3989C414.479 70.4188 414.681 69.2185 414.681 67.7981ZM443.744 67.7981C443.744 70.1986 443.282 72.2334 442.359 73.9025C441.436 75.5715 440.186 76.8393 438.609 77.7057C437.039 78.5722 435.278 79.0054 433.325 79.0054C431.365 79.0054 429.6 78.5687 428.03 77.6951C426.46 76.8215 425.214 75.5537 424.291 73.8918C423.374 72.2228 422.916 70.1915 422.916 67.7981C422.916 65.3975 423.374 63.3627 424.291 61.6937C425.214 60.0246 426.46 58.7569 428.03 57.8904C429.6 57.0239 431.365 56.5907 433.325 56.5907C435.278 56.5907 437.039 57.0239 438.609 57.8904C440.186 58.7569 441.436 60.0246 442.359 61.6937C443.282 63.3627 443.744 65.3975 443.744 67.7981ZM438.353 67.7981C438.353 66.3776 438.151 65.1773 437.746 64.1972C437.348 63.2171 436.773 62.4749 436.02 61.9706C435.274 61.4664 434.376 61.2143 433.325 61.2143C432.281 61.2143 431.382 61.4664 430.629 61.9706C429.877 62.4749 429.298 63.2171 428.893 64.1972C428.495 65.1773 428.296 66.3776 428.296 67.7981C428.296 69.2185 428.495 70.4188 428.893 71.3989C429.298 72.379 429.877 73.1212 430.629 73.6255C431.382 74.1297 432.281 74.3819 433.325 74.3819C434.376 74.3819 435.274 74.1297 436.02 73.6255C436.773 73.1212 437.348 72.379 437.746 71.3989C438.151 70.4188 438.353 69.2185 438.353 67.7981ZM452.032 56.889V78.7072H446.823V56.889H452.032ZM460.558 56.889V78.7072H455.348V56.889H460.558ZM468.486 78.9841C467.442 78.9841 466.515 78.8101 465.706 78.4621C464.903 78.107 464.268 77.5743 463.799 76.8641C463.337 76.1468 463.106 75.2483 463.106 74.1688C463.106 73.2597 463.266 72.4927 463.586 71.8677C463.905 71.2427 464.346 70.7349 464.907 70.3442C465.468 69.9536 466.114 69.6589 466.846 69.46C467.577 69.254 468.358 69.1155 469.189 69.0445C470.12 68.9593 470.869 68.8705 471.437 68.7782C472.005 68.6787 472.417 68.5402 472.673 68.3627C472.936 68.178 473.067 67.9188 473.067 67.585V67.5317C473.067 66.9849 472.879 66.5623 472.503 66.264C472.126 65.9657 471.618 65.8165 470.979 65.8165C470.29 65.8165 469.736 65.9657 469.317 66.264C468.898 66.5623 468.632 66.9742 468.518 67.4998L463.714 67.3293C463.856 66.335 464.221 65.4472 464.811 64.666C465.407 63.8776 466.224 63.2597 467.261 62.8123C468.305 62.3577 469.559 62.1304 471.022 62.1304C472.066 62.1304 473.028 62.2547 473.909 62.5033C474.79 62.7448 475.557 63.0999 476.21 63.5687C476.863 64.0303 477.368 64.5985 477.723 65.2732C478.085 65.9479 478.266 66.7185 478.266 67.585V78.7072H473.366V76.4273H473.238C472.947 76.9813 472.574 77.4501 472.119 77.8336C471.672 78.2171 471.143 78.5047 470.532 78.6965C469.928 78.8883 469.246 78.9841 468.486 78.9841ZM470.095 75.5751C470.656 75.5751 471.16 75.4614 471.608 75.2341C472.062 75.0069 472.425 74.6944 472.694 74.2966C472.964 73.8918 473.099 73.4231 473.099 72.8904V71.335C472.95 71.4131 472.769 71.4841 472.556 71.5481C472.35 71.612 472.123 71.6724 471.874 71.7292C471.626 71.786 471.37 71.8357 471.107 71.8783C470.844 71.9209 470.592 71.96 470.351 71.9955C469.861 72.0736 469.442 72.1944 469.094 72.3577C468.753 72.5211 468.49 72.7341 468.305 72.9969C468.128 73.2526 468.039 73.558 468.039 73.9131C468.039 74.4529 468.231 74.8648 468.614 75.1489C469.005 75.433 469.498 75.5751 470.095 75.5751ZM481.452 78.7072V56.889H486.661V65.1454H486.768C486.981 64.6482 487.282 64.1688 487.673 63.7072C488.071 63.2455 488.575 62.8691 489.186 62.5779C489.804 62.2796 490.542 62.1304 491.402 62.1304C492.538 62.1304 493.6 62.4287 494.587 63.0253C495.581 63.6219 496.384 64.5417 496.995 65.7846C497.606 67.0275 497.911 68.6113 497.911 70.536C497.911 72.3897 497.616 73.9415 497.027 75.1915C496.444 76.4415 495.656 77.379 494.662 78.004C493.675 78.629 492.577 78.9415 491.37 78.9415C490.546 78.9415 489.832 78.8066 489.228 78.5367C488.625 78.2668 488.117 77.9117 487.705 77.4714C487.3 77.031 486.988 76.5587 486.768 76.0545H486.608V78.7072H481.452ZM486.554 70.5253C486.554 71.406 486.672 72.1731 486.906 72.8265C487.148 73.4799 487.492 73.9877 487.939 74.3499C488.394 74.705 488.937 74.8826 489.569 74.8826C490.209 74.8826 490.752 74.705 491.199 74.3499C491.647 73.9877 491.984 73.4799 492.211 72.8265C492.446 72.1731 492.563 71.406 492.563 70.5253C492.563 69.6447 492.446 68.8812 492.211 68.2349C491.984 67.5885 491.647 67.0878 491.199 66.7327C490.759 66.3776 490.216 66.2001 489.569 66.2001C488.93 66.2001 488.387 66.3741 487.939 66.7221C487.492 67.0701 487.148 67.5672 486.906 68.2135C486.672 68.8599 486.554 69.6304 486.554 70.5253ZM508.279 79.0161C506.561 79.0161 505.083 78.6645 503.848 77.9614C502.619 77.2512 501.671 76.264 501.003 74.9998C500.343 73.7285 500.012 72.2547 500.012 70.5786C500.012 68.8954 500.343 67.4216 501.003 66.1574C501.671 64.8861 502.619 63.8989 503.848 63.1958C505.083 62.4856 506.561 62.1304 508.279 62.1304C509.998 62.1304 511.472 62.4856 512.701 63.1958C513.936 63.8989 514.885 64.8861 515.545 66.1574C516.213 67.4216 516.547 68.8954 516.547 70.5786C516.547 72.2547 516.213 73.7285 515.545 74.9998C514.885 76.264 513.936 77.2512 512.701 77.9614C511.472 78.6645 509.998 79.0161 508.279 79.0161ZM508.311 75.085C508.936 75.085 509.466 74.8932 509.899 74.5097C510.332 74.1262 510.662 73.5935 510.89 72.9117C511.124 72.2299 511.241 71.4415 511.241 70.5466C511.241 69.6376 511.124 68.8421 510.89 68.1603C510.662 67.4785 510.332 66.9458 509.899 66.5623C509.466 66.1787 508.936 65.987 508.311 65.987C507.665 65.987 507.118 66.1787 506.671 66.5623C506.23 66.9458 505.893 67.4785 505.659 68.1603C505.431 68.8421 505.318 69.6376 505.318 70.5466C505.318 71.4415 505.431 72.2299 505.659 72.9117C505.893 73.5935 506.23 74.1262 506.671 74.5097C507.118 74.8932 507.665 75.085 508.311 75.085ZM519.215 78.7072V62.3435H524.276V65.3265H524.446C524.744 64.2469 525.231 63.4444 525.906 62.9188C526.58 62.3861 527.365 62.1198 528.26 62.1198C528.501 62.1198 528.75 62.1376 529.006 62.1731C529.261 62.2015 529.499 62.2476 529.719 62.3116V66.8393C529.471 66.754 529.144 66.6866 528.739 66.6368C528.342 66.5871 527.986 66.5623 527.674 66.5623C527.056 66.5623 526.499 66.7008 526.001 66.9777C525.511 67.2476 525.124 67.6276 524.84 68.1177C524.563 68.6006 524.425 69.1688 524.425 69.8222V78.7072H519.215ZM535.84 78.9841C534.796 78.9841 533.869 78.8101 533.059 78.4621C532.257 78.107 531.621 77.5743 531.152 76.8641C530.691 76.1468 530.46 75.2483 530.46 74.1688C530.46 73.2597 530.62 72.4927 530.939 71.8677C531.259 71.2427 531.699 70.7349 532.26 70.3442C532.821 69.9536 533.468 69.6589 534.199 69.46C534.931 69.254 535.712 69.1155 536.543 69.0445C537.473 68.9593 538.223 68.8705 538.791 68.7782C539.359 68.6787 539.771 68.5402 540.027 68.3627C540.289 68.178 540.421 67.9188 540.421 67.585V67.5317C540.421 66.9849 540.233 66.5623 539.856 66.264C539.48 65.9657 538.972 65.8165 538.333 65.8165C537.644 65.8165 537.09 65.9657 536.671 66.264C536.252 66.5623 535.985 66.9742 535.872 67.4998L531.067 67.3293C531.209 66.335 531.575 65.4472 532.164 64.666C532.761 63.8776 533.578 63.2597 534.615 62.8123C535.659 62.3577 536.912 62.1304 538.375 62.1304C539.419 62.1304 540.382 62.2547 541.262 62.5033C542.143 62.7448 542.91 63.0999 543.564 63.5687C544.217 64.0303 544.721 64.5985 545.076 65.2732C545.439 65.9479 545.62 66.7185 545.62 67.585V78.7072H540.719V76.4273H540.591C540.3 76.9813 539.927 77.4501 539.473 77.8336C539.025 78.2171 538.496 78.5047 537.885 78.6965C537.282 78.8883 536.6 78.9841 535.84 78.9841ZM537.448 75.5751C538.01 75.5751 538.514 75.4614 538.961 75.2341C539.416 75.0069 539.778 74.6944 540.048 74.2966C540.318 73.8918 540.453 73.4231 540.453 72.8904V71.335C540.304 71.4131 540.122 71.4841 539.909 71.5481C539.703 71.612 539.476 71.6724 539.228 71.7292C538.979 71.786 538.723 71.8357 538.461 71.8783C538.198 71.9209 537.946 71.96 537.704 71.9955C537.214 72.0736 536.795 72.1944 536.447 72.3577C536.106 72.5211 535.843 72.7341 535.659 72.9969C535.481 73.2526 535.392 73.558 535.392 73.9131C535.392 74.4529 535.584 74.8648 535.968 75.1489C536.358 75.433 536.852 75.5751 537.448 75.5751ZM558.042 62.3435V66.1787H547.718V62.3435H558.042ZM549.881 58.4231H555.091V73.5616C555.091 73.8812 555.14 74.1404 555.24 74.3393C555.346 74.531 555.499 74.6695 555.698 74.7547C555.897 74.8329 556.135 74.8719 556.412 74.8719C556.61 74.8719 556.82 74.8542 557.04 74.8187C557.267 74.776 557.438 74.7405 557.551 74.7121L558.34 78.4728C558.091 78.5438 557.74 78.6326 557.285 78.7391C556.838 78.8456 556.301 78.9131 555.676 78.9415C554.455 78.9983 553.407 78.8563 552.534 78.5154C551.667 78.1674 551.003 77.6276 550.542 76.8961C550.087 76.1645 549.867 75.2448 549.881 74.1368V58.4231ZM568.173 79.0161C566.461 79.0161 564.984 78.6787 563.741 78.004C562.505 77.3222 561.554 76.3527 560.886 75.0956C560.225 73.8314 559.895 72.3293 559.895 70.5893C559.895 68.8989 560.229 67.4216 560.897 66.1574C561.564 64.8861 562.505 63.8989 563.72 63.1958C564.934 62.4856 566.365 62.1304 568.013 62.1304C569.178 62.1304 570.243 62.3116 571.209 62.6738C572.175 63.036 573.01 63.5722 573.713 64.2824C574.416 64.9927 574.963 65.8698 575.353 66.9138C575.744 67.9508 575.939 69.1404 575.939 70.4827V71.7824H561.717V68.7569H571.092C571.085 68.2029 570.953 67.7093 570.698 67.276C570.442 66.8428 570.091 66.5054 569.643 66.264C569.203 66.0154 568.695 65.8911 568.12 65.8911C567.537 65.8911 567.015 66.0225 566.554 66.2853C566.092 66.541 565.726 66.8925 565.456 67.34C565.186 67.7803 565.044 68.281 565.03 68.8421V71.9209C565.03 72.5885 565.162 73.1745 565.424 73.6787C565.687 74.1759 566.06 74.563 566.543 74.84C567.026 75.117 567.601 75.2554 568.269 75.2554C568.73 75.2554 569.149 75.1915 569.526 75.0637C569.902 74.9358 570.225 74.7476 570.495 74.4991C570.765 74.2505 570.968 73.9451 571.103 73.5829L575.886 73.7214C575.687 74.7938 575.25 75.7277 574.576 76.5232C573.908 77.3116 573.031 77.9259 571.944 78.3662C570.858 78.7995 569.6 79.0161 568.173 79.0161ZM588.103 78.7072L583.841 62.3435H589.072L591.278 72.8265H591.416L593.781 62.3435H598.884L601.313 72.7519H601.452L603.593 62.3435H608.824L604.552 78.7072H598.98L596.423 69.1724H596.242L593.685 78.7072H588.103ZM610.914 78.7072V62.3435H616.124V78.7072H610.914ZM613.524 60.4366C612.793 60.4366 612.164 60.1951 611.639 59.7121C611.113 59.2221 610.85 58.6326 610.85 57.9437C610.85 57.2618 611.113 56.6795 611.639 56.1965C612.164 55.7064 612.793 55.4614 613.524 55.4614C614.263 55.4614 614.892 55.7064 615.41 56.1965C615.936 56.6795 616.198 57.2618 616.198 57.9437C616.198 58.6326 615.936 59.2221 615.41 59.7121C614.892 60.1951 614.263 60.4366 613.524 60.4366ZM628.676 62.3435V66.1787H618.353V62.3435H628.676ZM620.516 58.4231H625.725V73.5616C625.725 73.8812 625.775 74.1404 625.874 74.3393C625.981 74.531 626.134 74.6695 626.333 74.7547C626.531 74.8329 626.769 74.8719 627.046 74.8719C627.245 74.8719 627.455 74.8542 627.675 74.8187C627.902 74.776 628.073 74.7405 628.186 74.7121L628.975 78.4728C628.726 78.5438 628.374 78.6326 627.92 78.7391C627.472 78.8456 626.936 78.9131 626.311 78.9415C625.09 78.9983 624.042 78.8563 623.168 78.5154C622.302 78.1674 621.638 77.6276 621.176 76.8961C620.722 76.1645 620.502 75.2448 620.516 74.1368V58.4231ZM636.895 69.3748V78.7072H631.686V56.889H636.725V65.3478H636.906C637.275 64.3393 637.879 63.5509 638.717 62.9827C639.562 62.4145 640.596 62.1304 641.817 62.1304C642.968 62.1304 643.969 62.3861 644.822 62.8975C645.674 63.4018 646.334 64.1155 646.803 65.0388C647.279 65.9621 647.513 67.0417 647.506 68.2775V78.7072H642.297V69.3002C642.304 68.3911 642.077 67.6809 641.615 67.1695C641.153 66.6581 640.503 66.4025 639.665 66.4025C639.118 66.4025 638.635 66.5232 638.216 66.7647C637.804 66.9991 637.481 67.3364 637.247 67.7768C637.02 68.2171 636.903 68.7498 636.895 69.3748ZM657.203 78.7072V56.889H666.216C667.85 56.889 669.26 57.2086 670.446 57.8478C671.639 58.4799 672.559 59.3641 673.205 60.5005C673.851 61.6297 674.174 62.9437 674.174 64.4422C674.174 65.9479 673.844 67.2654 673.184 68.3947C672.53 69.5168 671.596 70.3868 670.382 71.0047C669.167 71.6226 667.725 71.9316 666.056 71.9316H660.495V67.7768H665.076C665.872 67.7768 666.536 67.6383 667.069 67.3613C667.608 67.0843 668.017 66.6972 668.294 66.2001C668.571 65.6958 668.709 65.1099 668.709 64.4422C668.709 63.7675 668.571 63.1851 668.294 62.6951C668.017 62.1979 667.608 61.8144 667.069 61.5445C666.529 61.2746 665.865 61.1397 665.076 61.1397H662.477V78.7072H657.203ZM680.801 78.9841C679.757 78.9841 678.83 78.8101 678.02 78.4621C677.218 78.107 676.582 77.5743 676.113 76.8641C675.652 76.1468 675.421 75.2483 675.421 74.1688C675.421 73.2597 675.581 72.4927 675.9 71.8677C676.22 71.2427 676.66 70.7349 677.221 70.3442C677.782 69.9536 678.429 69.6589 679.16 69.46C679.892 69.254 680.673 69.1155 681.504 69.0445C682.434 68.9593 683.184 68.8705 683.752 68.7782C684.32 68.6787 684.732 68.5402 684.988 68.3627C685.25 68.178 685.382 67.9188 685.382 67.585V67.5317C685.382 66.9849 685.194 66.5623 684.817 66.264C684.441 65.9657 683.933 65.8165 683.294 65.8165C682.605 65.8165 682.051 65.9657 681.632 66.264C681.213 66.5623 680.946 66.9742 680.833 67.4998L676.028 67.3293C676.17 66.335 676.536 65.4472 677.125 64.666C677.722 63.8776 678.539 63.2597 679.576 62.8123C680.62 62.3577 681.873 62.1304 683.336 62.1304C684.38 62.1304 685.343 62.2547 686.223 62.5033C687.104 62.7448 687.871 63.0999 688.524 63.5687C689.178 64.0303 689.682 64.5985 690.037 65.2732C690.399 65.9479 690.581 66.7185 690.581 67.585V78.7072H685.68V76.4273H685.552C685.261 76.9813 684.888 77.4501 684.434 77.8336C683.986 78.2171 683.457 78.5047 682.846 78.6965C682.243 78.8883 681.561 78.9841 680.801 78.9841ZM682.409 75.5751C682.971 75.5751 683.475 75.4614 683.922 75.2341C684.377 75.0069 684.739 74.6944 685.009 74.2966C685.279 73.8918 685.414 73.4231 685.414 72.8904V71.335C685.265 71.4131 685.083 71.4841 684.87 71.5481C684.664 71.612 684.437 71.6724 684.189 71.7292C683.94 71.786 683.684 71.8357 683.422 71.8783C683.159 71.9209 682.907 71.96 682.665 71.9955C682.175 72.0736 681.756 72.1944 681.408 72.3577C681.067 72.5211 680.804 72.7341 680.62 72.9969C680.442 73.2526 680.353 73.558 680.353 73.9131C680.353 74.4529 680.545 74.8648 680.929 75.1489C681.319 75.433 681.813 75.5751 682.409 75.5751ZM698.975 56.889V78.7072H693.766V56.889H698.975ZM709.93 79.0161C708.211 79.0161 706.734 78.6645 705.498 77.9614C704.269 77.2512 703.321 76.264 702.654 74.9998C701.993 73.7285 701.663 72.2547 701.663 70.5786C701.663 68.8954 701.993 67.4216 702.654 66.1574C703.321 64.8861 704.269 63.8989 705.498 63.1958C706.734 62.4856 708.211 62.1304 709.93 62.1304C711.649 62.1304 713.122 62.4856 714.351 63.1958C715.587 63.8989 716.535 64.8861 717.195 66.1574C717.863 67.4216 718.197 68.8954 718.197 70.5786C718.197 72.2547 717.863 73.7285 717.195 74.9998C716.535 76.264 715.587 77.2512 714.351 77.9614C713.122 78.6645 711.649 79.0161 709.93 79.0161ZM709.962 75.085C710.587 75.085 711.116 74.8932 711.549 74.5097C711.982 74.1262 712.313 73.5935 712.54 72.9117C712.774 72.2299 712.891 71.4415 712.891 70.5466C712.891 69.6376 712.774 68.8421 712.54 68.1603C712.313 67.4785 711.982 66.9458 711.549 66.5623C711.116 66.1787 710.587 65.987 709.962 65.987C709.316 65.987 708.769 66.1787 708.321 66.5623C707.881 66.9458 707.543 67.4785 707.309 68.1603C707.082 68.8421 706.968 69.6376 706.968 70.5466C706.968 71.4415 707.082 72.2299 707.309 72.9117C707.543 73.5935 707.881 74.1262 708.321 74.5097C708.769 74.8932 709.316 75.085 709.962 75.085ZM720.866 78.7072V62.3435H725.819V65.3478H726.001C726.341 64.3535 726.917 63.5687 727.726 62.9934C728.536 62.4181 729.502 62.1304 730.624 62.1304C731.76 62.1304 732.733 62.4216 733.543 63.004C734.353 63.5864 734.868 64.3677 735.088 65.3478H735.258C735.564 64.3748 736.16 63.5971 737.048 63.0147C737.936 62.4252 738.983 62.1304 740.191 62.1304C741.739 62.1304 742.996 62.6276 743.962 63.6219C744.928 64.6091 745.411 65.9657 745.411 67.6915V78.7072H740.202V68.8847C740.202 68.0679 739.992 67.4465 739.573 67.0204C739.154 66.5871 738.611 66.3705 737.943 66.3705C737.226 66.3705 736.661 66.6049 736.249 67.0736C735.844 67.5353 735.642 68.1567 735.642 68.938V78.7072H730.635V68.8314C730.635 68.0715 730.429 67.4714 730.017 67.031C729.605 66.5907 729.062 66.3705 728.387 66.3705C727.932 66.3705 727.531 66.4806 727.183 66.7008C726.835 66.9138 726.562 67.2192 726.363 67.617C726.171 68.0147 726.075 68.4834 726.075 69.0232V78.7072H720.866ZM753.252 78.9841C752.208 78.9841 751.281 78.8101 750.471 78.4621C749.669 78.107 749.033 77.5743 748.564 76.8641C748.103 76.1468 747.872 75.2483 747.872 74.1688C747.872 73.2597 748.032 72.4927 748.351 71.8677C748.671 71.2427 749.111 70.7349 749.672 70.3442C750.233 69.9536 750.88 69.6589 751.611 69.46C752.343 69.254 753.124 69.1155 753.955 69.0445C754.885 68.9593 755.635 68.8705 756.203 68.7782C756.771 68.6787 757.183 68.5402 757.439 68.3627C757.702 68.178 757.833 67.9188 757.833 67.585V67.5317C757.833 66.9849 757.645 66.5623 757.268 66.264C756.892 65.9657 756.384 65.8165 755.745 65.8165C755.056 65.8165 754.502 65.9657 754.083 66.264C753.664 66.5623 753.398 66.9742 753.284 67.4998L748.479 67.3293C748.621 66.335 748.987 65.4472 749.577 64.666C750.173 63.8776 750.99 63.2597 752.027 62.8123C753.071 62.3577 754.324 62.1304 755.787 62.1304C756.831 62.1304 757.794 62.2547 758.675 62.5033C759.555 62.7448 760.322 63.0999 760.976 63.5687C761.629 64.0303 762.133 64.5985 762.488 65.2732C762.851 65.9479 763.032 66.7185 763.032 67.585V78.7072H758.131V76.4273H758.003C757.712 76.9813 757.339 77.4501 756.885 77.8336C756.437 78.2171 755.908 78.5047 755.297 78.6965C754.694 78.8883 754.012 78.9841 753.252 78.9841ZM754.861 75.5751C755.422 75.5751 755.926 75.4614 756.373 75.2341C756.828 75.0069 757.19 74.6944 757.46 74.2966C757.73 73.8918 757.865 73.4231 757.865 72.8904V71.335C757.716 71.4131 757.535 71.4841 757.322 71.5481C757.116 71.612 756.888 71.6724 756.64 71.7292C756.391 71.786 756.135 71.8357 755.873 71.8783C755.61 71.9209 755.358 71.96 755.116 71.9955C754.626 72.0736 754.207 72.1944 753.859 72.3577C753.518 72.5211 753.255 72.7341 753.071 72.9969C752.893 73.2526 752.804 73.558 752.804 73.9131C752.804 74.4529 752.996 74.8648 753.38 75.1489C753.77 75.433 754.264 75.5751 754.861 75.5751Z" fill="#2C2C2C"/>
<path d="M376.124 111.908V101.726H377.66V110.585H382.274V111.908H376.124ZM387.198 112.062C386.446 112.062 385.798 111.901 385.254 111.58C384.714 111.255 384.296 110.799 384.001 110.213C383.71 109.623 383.564 108.932 383.564 108.139C383.564 107.357 383.71 106.668 384.001 106.071C384.296 105.475 384.707 105.009 385.234 104.674C385.765 104.339 386.384 104.172 387.094 104.172C387.525 104.172 387.942 104.243 388.347 104.386C388.751 104.528 389.114 104.752 389.435 105.057C389.757 105.362 390.01 105.758 390.196 106.245C390.382 106.729 390.474 107.317 390.474 108.01V108.537H384.404V107.423H389.018C389.018 107.032 388.938 106.686 388.779 106.384C388.62 106.079 388.396 105.839 388.108 105.664C387.823 105.488 387.488 105.4 387.104 105.4C386.686 105.4 386.321 105.503 386.01 105.708C385.702 105.91 385.463 106.176 385.294 106.504C385.128 106.829 385.045 107.182 385.045 107.563V108.433C385.045 108.943 385.135 109.377 385.314 109.735C385.496 110.093 385.75 110.367 386.075 110.556C386.399 110.741 386.779 110.834 387.213 110.834C387.495 110.834 387.752 110.794 387.984 110.715C388.216 110.632 388.416 110.509 388.585 110.347C388.754 110.184 388.884 109.984 388.973 109.745L390.38 109.999C390.267 110.413 390.065 110.776 389.773 111.088C389.485 111.396 389.122 111.636 388.685 111.808C388.25 111.977 387.755 112.062 387.198 112.062ZM395.688 104.271V105.465H391.517V104.271H395.688ZM392.636 102.442H394.122V109.666C394.122 109.954 394.165 110.171 394.252 110.317C394.338 110.459 394.449 110.557 394.585 110.61C394.724 110.66 394.875 110.685 395.037 110.685C395.156 110.685 395.261 110.677 395.35 110.66C395.44 110.643 395.509 110.63 395.559 110.62L395.828 111.848C395.741 111.881 395.619 111.914 395.46 111.948C395.301 111.984 395.102 112.004 394.863 112.007C394.472 112.014 394.107 111.944 393.769 111.798C393.431 111.653 393.158 111.427 392.949 111.122C392.74 110.817 392.636 110.435 392.636 109.974V102.442ZM405.875 108.741V104.271H407.367V111.908H405.905V110.585H405.825C405.65 110.993 405.368 111.333 404.98 111.605C404.596 111.873 404.117 112.007 403.543 112.007C403.053 112.007 402.619 111.9 402.241 111.684C401.866 111.465 401.571 111.142 401.356 110.715C401.144 110.287 401.038 109.758 401.038 109.129V104.271H402.524V108.95C402.524 109.47 402.668 109.884 402.957 110.193C403.245 110.501 403.62 110.655 404.08 110.655C404.359 110.655 404.636 110.585 404.911 110.446C405.189 110.307 405.419 110.097 405.602 109.815C405.787 109.533 405.878 109.175 405.875 108.741ZM415.086 106.136L413.739 106.374C413.683 106.202 413.593 106.038 413.471 105.882C413.351 105.726 413.189 105.599 412.983 105.499C412.778 105.4 412.521 105.35 412.213 105.35C411.792 105.35 411.44 105.445 411.159 105.634C410.877 105.819 410.736 106.06 410.736 106.355C410.736 106.61 410.831 106.815 411.02 106.971C411.208 107.127 411.513 107.254 411.934 107.354L413.147 107.632C413.85 107.795 414.374 108.045 414.718 108.383C415.063 108.721 415.235 109.16 415.235 109.7C415.235 110.158 415.103 110.566 414.838 110.923C414.576 111.278 414.21 111.557 413.739 111.759C413.272 111.961 412.73 112.062 412.113 112.062C411.258 112.062 410.56 111.88 410.02 111.515C409.48 111.147 409.149 110.625 409.026 109.949L410.463 109.73C410.552 110.105 410.736 110.388 411.015 110.58C411.293 110.769 411.656 110.864 412.103 110.864C412.591 110.864 412.98 110.763 413.272 110.561C413.563 110.355 413.709 110.105 413.709 109.81C413.709 109.571 413.62 109.371 413.441 109.208C413.265 109.046 412.995 108.923 412.63 108.84L411.338 108.557C410.625 108.395 410.098 108.136 409.757 107.781C409.419 107.427 409.25 106.978 409.25 106.434C409.25 105.983 409.376 105.589 409.627 105.251C409.879 104.913 410.227 104.649 410.672 104.46C411.116 104.268 411.624 104.172 412.198 104.172C413.023 104.172 413.673 104.351 414.147 104.709C414.621 105.064 414.934 105.539 415.086 106.136ZM421.942 109.318L421.932 107.503H422.191L425.233 104.271H427.013L423.543 107.95H423.309L421.942 109.318ZM420.575 111.908V101.726H422.061V111.908H420.575ZM425.397 111.908L422.663 108.279L423.687 107.24L427.222 111.908H425.397ZM429.854 107.374V111.908H428.368V104.271H429.795V105.514H429.889C430.065 105.11 430.34 104.785 430.714 104.54C431.092 104.295 431.568 104.172 432.141 104.172C432.662 104.172 433.117 104.281 433.509 104.5C433.9 104.716 434.203 105.037 434.418 105.465C434.634 105.892 434.741 106.421 434.741 107.051V111.908H433.255V107.23C433.255 106.676 433.111 106.244 432.822 105.932C432.534 105.617 432.138 105.46 431.634 105.46C431.29 105.46 430.983 105.534 430.714 105.683C430.449 105.833 430.239 106.051 430.083 106.34C429.931 106.625 429.854 106.969 429.854 107.374ZM439.952 112.062C439.236 112.062 438.611 111.898 438.077 111.57C437.544 111.242 437.129 110.783 436.835 110.193C436.54 109.603 436.392 108.913 436.392 108.124C436.392 107.332 436.54 106.64 436.835 106.046C437.129 105.453 437.544 104.992 438.077 104.664C438.611 104.336 439.236 104.172 439.952 104.172C440.668 104.172 441.292 104.336 441.826 104.664C442.36 104.992 442.774 105.453 443.069 106.046C443.364 106.64 443.511 107.332 443.511 108.124C443.511 108.913 443.364 109.603 443.069 110.193C442.774 110.783 442.36 111.242 441.826 111.57C441.292 111.898 440.668 112.062 439.952 112.062ZM439.957 110.814C440.421 110.814 440.805 110.691 441.11 110.446C441.415 110.201 441.64 109.874 441.786 109.467C441.935 109.059 442.01 108.61 442.01 108.119C442.01 107.632 441.935 107.185 441.786 106.777C441.64 106.366 441.415 106.036 441.11 105.788C440.805 105.539 440.421 105.415 439.957 105.415C439.489 105.415 439.102 105.539 438.793 105.788C438.488 106.036 438.261 106.366 438.112 106.777C437.966 107.185 437.893 107.632 437.893 108.119C437.893 108.61 437.966 109.059 438.112 109.467C438.261 109.874 438.488 110.201 438.793 110.446C439.102 110.691 439.489 110.814 439.957 110.814ZM446.594 111.908L444.347 104.271H445.883L447.379 109.879H447.454L448.955 104.271H450.491L451.983 109.855H452.058L453.544 104.271H455.08L452.838 111.908H451.322L449.771 106.394H449.656L448.105 111.908H446.594ZM461.852 111.908L459.604 104.271H461.141L462.637 109.879H462.712L464.213 104.271H465.749L467.241 109.855H467.315L468.802 104.271H470.338L468.096 111.908H466.58L465.028 106.394H464.914L463.363 111.908H461.852ZM473.235 107.374V111.908H471.749V101.726H473.215V105.514H473.31C473.489 105.103 473.762 104.777 474.13 104.535C474.498 104.293 474.979 104.172 475.572 104.172C476.096 104.172 476.553 104.28 476.944 104.495C477.338 104.711 477.643 105.032 477.859 105.46C478.078 105.884 478.187 106.414 478.187 107.051V111.908H476.7V107.23C476.7 106.669 476.556 106.235 476.268 105.927C475.98 105.615 475.579 105.46 475.065 105.46C474.713 105.46 474.399 105.534 474.12 105.683C473.845 105.833 473.628 106.051 473.469 106.34C473.313 106.625 473.235 106.969 473.235 107.374ZM482.393 112.077C481.909 112.077 481.472 111.987 481.08 111.808C480.689 111.626 480.379 111.363 480.151 111.018C479.925 110.673 479.813 110.251 479.813 109.75C479.813 109.319 479.896 108.965 480.061 108.686C480.227 108.408 480.451 108.187 480.732 108.025C481.014 107.863 481.329 107.74 481.677 107.657C482.025 107.574 482.38 107.511 482.741 107.468C483.198 107.415 483.57 107.372 483.855 107.339C484.14 107.302 484.347 107.244 484.476 107.165C484.605 107.085 484.67 106.956 484.67 106.777V106.742C484.67 106.308 484.547 105.972 484.302 105.733C484.06 105.494 483.699 105.375 483.218 105.375C482.718 105.375 482.323 105.486 482.035 105.708C481.75 105.927 481.553 106.171 481.443 106.439L480.046 106.121C480.212 105.657 480.454 105.282 480.772 104.997C481.094 104.709 481.463 104.5 481.881 104.371C482.298 104.238 482.738 104.172 483.198 104.172C483.503 104.172 483.826 104.208 484.168 104.281C484.512 104.351 484.834 104.48 485.132 104.669C485.434 104.858 485.681 105.128 485.873 105.48C486.065 105.828 486.161 106.28 486.161 106.837V111.908H484.71V110.864H484.65C484.554 111.056 484.41 111.245 484.217 111.431C484.025 111.616 483.778 111.77 483.477 111.893C483.175 112.016 482.814 112.077 482.393 112.077ZM482.716 110.884C483.127 110.884 483.478 110.802 483.77 110.64C484.065 110.478 484.289 110.266 484.441 110.004C484.597 109.739 484.675 109.455 484.675 109.154V108.169C484.622 108.222 484.519 108.272 484.367 108.318C484.217 108.361 484.047 108.4 483.855 108.433C483.662 108.463 483.475 108.491 483.293 108.517C483.11 108.54 482.958 108.56 482.835 108.577C482.547 108.613 482.284 108.675 482.045 108.761C481.81 108.847 481.621 108.971 481.478 109.134C481.339 109.293 481.269 109.505 481.269 109.77C481.269 110.138 481.405 110.416 481.677 110.605C481.949 110.791 482.295 110.884 482.716 110.884ZM491.706 104.271V105.465H487.535V104.271H491.706ZM488.653 102.442H490.14V109.666C490.14 109.954 490.183 110.171 490.269 110.317C490.355 110.459 490.466 110.557 490.602 110.61C490.741 110.66 490.892 110.685 491.055 110.685C491.174 110.685 491.278 110.677 491.368 110.66C491.457 110.643 491.527 110.63 491.577 110.62L491.845 111.848C491.759 111.881 491.636 111.914 491.477 111.948C491.318 111.984 491.119 112.004 490.881 112.007C490.49 112.014 490.125 111.944 489.787 111.798C489.449 111.653 489.175 111.427 488.967 111.122C488.758 110.817 488.653 110.435 488.653 109.974V102.442ZM497.995 114.771C497.773 114.771 497.571 114.753 497.388 114.717C497.206 114.684 497.07 114.647 496.981 114.607L497.339 113.389C497.611 113.462 497.852 113.494 498.065 113.484C498.277 113.474 498.464 113.394 498.626 113.245C498.792 113.096 498.938 112.852 499.064 112.514L499.248 112.007L496.454 104.271H498.045L499.979 110.198H500.058L501.992 104.271H503.588L500.441 112.927C500.295 113.325 500.11 113.661 499.884 113.936C499.659 114.215 499.39 114.423 499.079 114.563C498.767 114.702 498.406 114.771 497.995 114.771ZM507.942 112.062C507.226 112.062 506.601 111.898 506.068 111.57C505.534 111.242 505.12 110.783 504.825 110.193C504.53 109.603 504.382 108.913 504.382 108.124C504.382 107.332 504.53 106.64 504.825 106.046C505.12 105.453 505.534 104.992 506.068 104.664C506.601 104.336 507.226 104.172 507.942 104.172C508.658 104.172 509.283 104.336 509.816 104.664C510.35 104.992 510.764 105.453 511.059 106.046C511.354 106.64 511.502 107.332 511.502 108.124C511.502 108.913 511.354 109.603 511.059 110.193C510.764 110.783 510.35 111.242 509.816 111.57C509.283 111.898 508.658 112.062 507.942 112.062ZM507.947 110.814C508.411 110.814 508.795 110.691 509.1 110.446C509.405 110.201 509.631 109.874 509.776 109.467C509.926 109.059 510 108.61 510 108.119C510 107.632 509.926 107.185 509.776 106.777C509.631 106.366 509.405 106.036 509.1 105.788C508.795 105.539 508.411 105.415 507.947 105.415C507.48 105.415 507.092 105.539 506.784 105.788C506.479 106.036 506.252 106.366 506.102 106.777C505.957 107.185 505.884 107.632 505.884 108.119C505.884 108.61 505.957 109.059 506.102 109.467C506.252 109.874 506.479 110.201 506.784 110.446C507.092 110.691 507.48 110.814 507.947 110.814ZM517.998 108.741V104.271H519.49V111.908H518.028V110.585H517.948C517.773 110.993 517.491 111.333 517.103 111.605C516.719 111.873 516.24 112.007 515.667 112.007C515.176 112.007 514.742 111.9 514.364 111.684C513.989 111.465 513.694 111.142 513.479 110.715C513.267 110.287 513.161 109.758 513.161 109.129V104.271H514.647V108.95C514.647 109.47 514.792 109.884 515.08 110.193C515.368 110.501 515.743 110.655 516.203 110.655C516.482 110.655 516.759 110.585 517.034 110.446C517.312 110.307 517.542 110.097 517.725 109.815C517.91 109.533 518.002 109.175 517.998 108.741ZM522.97 101.726V102.681C522.97 102.962 522.917 103.259 522.811 103.57C522.708 103.879 522.562 104.175 522.373 104.46C522.184 104.745 521.962 104.991 521.707 105.196L520.971 104.669C521.167 104.384 521.336 104.081 521.478 103.759C521.624 103.438 521.697 103.083 521.697 102.695V101.726H522.97ZM524.18 111.908V104.271H525.617V105.485H525.697C525.836 105.074 526.081 104.75 526.433 104.515C526.787 104.276 527.188 104.157 527.636 104.157C527.728 104.157 527.838 104.16 527.964 104.167C528.093 104.174 528.194 104.182 528.267 104.192V105.614C528.207 105.597 528.101 105.579 527.949 105.559C527.796 105.536 527.644 105.524 527.491 105.524C527.14 105.524 526.827 105.599 526.552 105.748C526.28 105.894 526.065 106.098 525.906 106.36C525.746 106.618 525.667 106.913 525.667 107.244V111.908H524.18ZM532.571 112.062C531.819 112.062 531.171 111.901 530.627 111.58C530.087 111.255 529.669 110.799 529.374 110.213C529.083 109.623 528.937 108.932 528.937 108.139C528.937 107.357 529.083 106.668 529.374 106.071C529.669 105.475 530.08 105.009 530.607 104.674C531.138 104.339 531.758 104.172 532.467 104.172C532.898 104.172 533.315 104.243 533.72 104.386C534.124 104.528 534.487 104.752 534.808 105.057C535.13 105.362 535.383 105.758 535.569 106.245C535.755 106.729 535.847 107.317 535.847 108.01V108.537H529.777V107.423H534.391C534.391 107.032 534.311 106.686 534.152 106.384C533.993 106.079 533.769 105.839 533.481 105.664C533.196 105.488 532.861 105.4 532.477 105.4C532.059 105.4 531.695 105.503 531.383 105.708C531.075 105.91 530.836 106.176 530.667 106.504C530.501 106.829 530.418 107.182 530.418 107.563V108.433C530.418 108.943 530.508 109.377 530.687 109.735C530.869 110.093 531.123 110.367 531.448 110.556C531.772 110.741 532.152 110.834 532.586 110.834C532.868 110.834 533.125 110.794 533.357 110.715C533.589 110.632 533.789 110.509 533.958 110.347C534.127 110.184 534.257 109.984 534.346 109.745L535.753 109.999C535.64 110.413 535.438 110.776 535.146 111.088C534.858 111.396 534.495 111.636 534.058 111.808C533.624 111.977 533.128 112.062 532.571 112.062ZM541.202 111.908V104.271H542.688V111.908H541.202ZM541.953 103.093C541.694 103.093 541.472 103.007 541.286 102.835C541.104 102.659 541.013 102.45 541.013 102.208C541.013 101.963 541.104 101.754 541.286 101.582C541.472 101.406 541.694 101.318 541.953 101.318C542.211 101.318 542.432 101.406 542.614 101.582C542.799 101.754 542.892 101.963 542.892 102.208C542.892 102.45 542.799 102.659 542.614 102.835C542.432 103.007 542.211 103.093 541.953 103.093ZM546.175 107.374V111.908H544.688V104.271H546.115V105.514H546.21C546.385 105.11 546.66 104.785 547.035 104.54C547.413 104.295 547.888 104.172 548.462 104.172C548.982 104.172 549.438 104.281 549.829 104.5C550.22 104.716 550.523 105.037 550.739 105.465C550.954 105.892 551.062 106.421 551.062 107.051V111.908H549.575V107.23C549.575 106.676 549.431 106.244 549.143 105.932C548.854 105.617 548.458 105.46 547.955 105.46C547.61 105.46 547.303 105.534 547.035 105.683C546.77 105.833 546.559 106.051 546.403 106.34C546.251 106.625 546.175 106.969 546.175 107.374ZM556.62 104.271V105.465H552.449V104.271H556.62ZM553.567 102.442H555.054V109.666C555.054 109.954 555.097 110.171 555.183 110.317C555.269 110.459 555.38 110.557 555.516 110.61C555.656 110.66 555.806 110.685 555.969 110.685C556.088 110.685 556.192 110.677 556.282 110.66C556.371 110.643 556.441 110.63 556.491 110.62L556.759 111.848C556.673 111.881 556.55 111.914 556.391 111.948C556.232 111.984 556.033 112.004 555.795 112.007C555.404 112.014 555.039 111.944 554.701 111.798C554.363 111.653 554.089 111.427 553.881 111.122C553.672 110.817 553.567 110.435 553.567 109.974V102.442ZM561.474 112.062C560.721 112.062 560.073 111.901 559.53 111.58C558.989 111.255 558.572 110.799 558.277 110.213C557.985 109.623 557.839 108.932 557.839 108.139C557.839 107.357 557.985 106.668 558.277 106.071C558.572 105.475 558.983 105.009 559.51 104.674C560.04 104.339 560.66 104.172 561.369 104.172C561.8 104.172 562.218 104.243 562.622 104.386C563.026 104.528 563.389 104.752 563.711 105.057C564.032 105.362 564.286 105.758 564.471 106.245C564.657 106.729 564.75 107.317 564.75 108.01V108.537H558.679V107.423H563.293C563.293 107.032 563.214 106.686 563.054 106.384C562.895 106.079 562.672 105.839 562.383 105.664C562.098 105.488 561.764 105.4 561.379 105.4C560.961 105.4 560.597 105.503 560.285 105.708C559.977 105.91 559.738 106.176 559.569 106.504C559.404 106.829 559.321 107.182 559.321 107.563V108.433C559.321 108.943 559.41 109.377 559.589 109.735C559.772 110.093 560.025 110.367 560.35 110.556C560.675 110.741 561.054 110.834 561.488 110.834C561.77 110.834 562.027 110.794 562.259 110.715C562.491 110.632 562.692 110.509 562.861 110.347C563.03 110.184 563.159 109.984 563.248 109.745L564.655 109.999C564.543 110.413 564.34 110.776 564.049 111.088C563.76 111.396 563.398 111.636 562.96 111.808C562.526 111.977 562.03 112.062 561.474 112.062ZM566.399 111.908V104.271H567.836V105.485H567.915C568.055 105.074 568.3 104.75 568.651 104.515C569.006 104.276 569.407 104.157 569.854 104.157C569.947 104.157 570.057 104.16 570.183 104.167C570.312 104.174 570.413 104.182 570.486 104.192V105.614C570.426 105.597 570.32 105.579 570.168 105.559C570.015 105.536 569.863 105.524 569.71 105.524C569.359 105.524 569.046 105.599 568.771 105.748C568.499 105.894 568.283 106.098 568.124 106.36C567.965 106.618 567.886 106.913 567.886 107.244V111.908H566.399ZM574.79 112.062C574.038 112.062 573.39 111.901 572.846 111.58C572.306 111.255 571.888 110.799 571.593 110.213C571.302 109.623 571.156 108.932 571.156 108.139C571.156 107.357 571.302 106.668 571.593 106.071C571.888 105.475 572.299 105.009 572.826 104.674C573.356 104.339 573.976 104.172 574.686 104.172C575.116 104.172 575.534 104.243 575.938 104.386C576.343 104.528 576.706 104.752 577.027 105.057C577.349 105.362 577.602 105.758 577.788 106.245C577.973 106.729 578.066 107.317 578.066 108.01V108.537H571.996V107.423H576.61C576.61 107.032 576.53 106.686 576.371 106.384C576.212 106.079 575.988 105.839 575.7 105.664C575.415 105.488 575.08 105.4 574.695 105.4C574.278 105.4 573.913 105.503 573.602 105.708C573.293 105.91 573.055 106.176 572.886 106.504C572.72 106.829 572.637 107.182 572.637 107.563V108.433C572.637 108.943 572.727 109.377 572.906 109.735C573.088 110.093 573.342 110.367 573.666 110.556C573.991 110.741 574.371 110.834 574.805 110.834C575.087 110.834 575.343 110.794 575.575 110.715C575.807 110.632 576.008 110.509 576.177 110.347C576.346 110.184 576.475 109.984 576.565 109.745L577.972 109.999C577.859 110.413 577.657 110.776 577.365 111.088C577.077 111.396 576.714 111.636 576.276 111.808C575.842 111.977 575.347 112.062 574.79 112.062ZM585.438 106.136L584.091 106.374C584.034 106.202 583.945 106.038 583.822 105.882C583.703 105.726 583.54 105.599 583.335 105.499C583.129 105.4 582.872 105.35 582.564 105.35C582.143 105.35 581.792 105.445 581.51 105.634C581.229 105.819 581.088 106.06 581.088 106.355C581.088 106.61 581.182 106.815 581.371 106.971C581.56 107.127 581.865 107.254 582.286 107.354L583.499 107.632C584.202 107.795 584.725 108.045 585.07 108.383C585.415 108.721 585.587 109.16 585.587 109.7C585.587 110.158 585.454 110.566 585.189 110.923C584.927 111.278 584.561 111.557 584.091 111.759C583.623 111.961 583.081 112.062 582.465 112.062C581.61 112.062 580.912 111.88 580.372 111.515C579.832 111.147 579.5 110.625 579.377 109.949L580.814 109.73C580.904 110.105 581.088 110.388 581.366 110.58C581.645 110.769 582.007 110.864 582.455 110.864C582.942 110.864 583.332 110.763 583.623 110.561C583.915 110.355 584.061 110.105 584.061 109.81C584.061 109.571 583.971 109.371 583.792 109.208C583.617 109.046 583.346 108.923 582.982 108.84L581.689 108.557C580.977 108.395 580.45 108.136 580.108 107.781C579.77 107.427 579.601 106.978 579.601 106.434C579.601 105.983 579.727 105.589 579.979 105.251C580.231 104.913 580.579 104.649 581.023 104.46C581.467 104.268 581.976 104.172 582.549 104.172C583.375 104.172 584.024 104.351 584.498 104.709C584.972 105.064 585.285 105.539 585.438 106.136ZM590.786 104.271V105.465H586.615V104.271H590.786ZM587.733 102.442H589.22V109.666C589.22 109.954 589.263 110.171 589.349 110.317C589.435 110.459 589.546 110.557 589.682 110.61C589.822 110.66 589.972 110.685 590.135 110.685C590.254 110.685 590.358 110.677 590.448 110.66C590.537 110.643 590.607 110.63 590.657 110.62L590.925 111.848C590.839 111.881 590.716 111.914 590.557 111.948C590.398 111.984 590.199 112.004 589.961 112.007C589.57 112.014 589.205 111.944 588.867 111.798C588.529 111.653 588.255 111.427 588.047 111.122C587.838 110.817 587.733 110.435 587.733 109.974V102.442ZM595.64 112.062C594.887 112.062 594.239 111.901 593.696 111.58C593.155 111.255 592.738 110.799 592.443 110.213C592.151 109.623 592.005 108.932 592.005 108.139C592.005 107.357 592.151 106.668 592.443 106.071C592.738 105.475 593.149 105.009 593.676 104.674C594.206 104.339 594.826 104.172 595.535 104.172C595.966 104.172 596.384 104.243 596.788 104.386C597.192 104.528 597.555 104.752 597.877 105.057C598.198 105.362 598.452 105.758 598.637 106.245C598.823 106.729 598.916 107.317 598.916 108.01V108.537H592.846V107.423H597.459C597.459 107.032 597.38 106.686 597.221 106.384C597.061 106.079 596.838 105.839 596.549 105.664C596.264 105.488 595.93 105.4 595.545 105.4C595.127 105.4 594.763 105.503 594.451 105.708C594.143 105.91 593.904 106.176 593.735 106.504C593.57 106.829 593.487 107.182 593.487 107.563V108.433C593.487 108.943 593.576 109.377 593.755 109.735C593.938 110.093 594.191 110.367 594.516 110.556C594.841 110.741 595.22 110.834 595.654 110.834C595.936 110.834 596.193 110.794 596.425 110.715C596.657 110.632 596.858 110.509 597.027 110.347C597.196 110.184 597.325 109.984 597.414 109.745L598.821 109.999C598.709 110.413 598.506 110.776 598.215 111.088C597.926 111.396 597.564 111.636 597.126 111.808C596.692 111.977 596.196 112.062 595.64 112.062ZM603.424 112.057C602.807 112.057 602.257 111.9 601.773 111.585C601.293 111.267 600.915 110.814 600.64 110.227C600.368 109.637 600.232 108.93 600.232 108.105C600.232 107.279 600.37 106.573 600.645 105.987C600.923 105.4 601.304 104.951 601.788 104.639C602.272 104.328 602.821 104.172 603.434 104.172C603.908 104.172 604.289 104.252 604.577 104.411C604.869 104.566 605.094 104.749 605.253 104.958C605.416 105.166 605.542 105.35 605.631 105.509H605.721V101.726H607.207V111.908H605.755V110.72H605.631C605.542 110.882 605.412 111.068 605.243 111.276C605.078 111.485 604.849 111.668 604.557 111.823C604.266 111.979 603.888 112.057 603.424 112.057ZM603.752 110.789C604.179 110.789 604.541 110.677 604.836 110.451C605.134 110.222 605.359 109.906 605.512 109.502C605.668 109.097 605.746 108.627 605.746 108.09C605.746 107.559 605.669 107.095 605.517 106.698C605.364 106.3 605.141 105.99 604.846 105.768C604.551 105.546 604.186 105.435 603.752 105.435C603.304 105.435 602.932 105.551 602.633 105.783C602.335 106.015 602.11 106.331 601.957 106.732C601.808 107.133 601.733 107.586 601.733 108.09C601.733 108.6 601.81 109.059 601.962 109.467C602.115 109.874 602.34 110.198 602.638 110.436C602.94 110.672 603.311 110.789 603.752 110.789ZM613.034 111.908V104.271H614.52V111.908H613.034ZM613.785 103.093C613.526 103.093 613.304 103.007 613.118 102.835C612.936 102.659 612.845 102.45 612.845 102.208C612.845 101.963 612.936 101.754 613.118 101.582C613.304 101.406 613.526 101.318 613.785 101.318C614.043 101.318 614.264 101.406 614.446 101.582C614.631 101.754 614.724 101.963 614.724 102.208C614.724 102.45 614.631 102.659 614.446 102.835C614.264 103.007 614.043 103.093 613.785 103.093ZM618.007 107.374V111.908H616.52V104.271H617.947V105.514H618.042C618.217 105.11 618.492 104.785 618.867 104.54C619.245 104.295 619.72 104.172 620.294 104.172C620.814 104.172 621.27 104.281 621.661 104.5C622.052 104.716 622.355 105.037 622.571 105.465C622.786 105.892 622.894 106.421 622.894 107.051V111.908H621.407V107.23C621.407 106.676 621.263 106.244 620.975 105.932C620.686 105.617 620.29 105.46 619.787 105.46C619.442 105.46 619.135 105.534 618.867 105.683C618.602 105.833 618.391 106.051 618.235 106.34C618.083 106.625 618.007 106.969 618.007 107.374ZM630.815 112.077C630.331 112.077 629.893 111.987 629.502 111.808C629.111 111.626 628.801 111.363 628.573 111.018C628.347 110.673 628.235 110.251 628.235 109.75C628.235 109.319 628.317 108.965 628.483 108.686C628.649 108.408 628.873 108.187 629.154 108.025C629.436 107.863 629.751 107.74 630.099 107.657C630.447 107.574 630.802 107.511 631.163 107.468C631.62 107.415 631.991 107.372 632.276 107.339C632.561 107.302 632.769 107.244 632.898 107.165C633.027 107.085 633.092 106.956 633.092 106.777V106.742C633.092 106.308 632.969 105.972 632.724 105.733C632.482 105.494 632.121 105.375 631.64 105.375C631.14 105.375 630.745 105.486 630.457 105.708C630.172 105.927 629.975 106.171 629.865 106.439L628.468 106.121C628.634 105.657 628.876 105.282 629.194 104.997C629.516 104.709 629.885 104.5 630.303 104.371C630.72 104.238 631.159 104.172 631.62 104.172C631.925 104.172 632.248 104.208 632.59 104.281C632.934 104.351 633.256 104.48 633.554 104.669C633.856 104.858 634.103 105.128 634.295 105.48C634.487 105.828 634.583 106.28 634.583 106.837V111.908H633.132V110.864H633.072C632.976 111.056 632.832 111.245 632.639 111.431C632.447 111.616 632.2 111.77 631.899 111.893C631.597 112.016 631.236 112.077 630.815 112.077ZM631.138 110.884C631.549 110.884 631.9 110.802 632.192 110.64C632.487 110.478 632.711 110.266 632.863 110.004C633.019 109.739 633.097 109.455 633.097 109.154V108.169C633.044 108.222 632.941 108.272 632.789 108.318C632.639 108.361 632.469 108.4 632.276 108.433C632.084 108.463 631.897 108.491 631.715 108.517C631.532 108.54 631.38 108.56 631.257 108.577C630.969 108.613 630.705 108.675 630.467 108.761C630.231 108.847 630.043 108.971 629.9 109.134C629.761 109.293 629.691 109.505 629.691 109.77C629.691 110.138 629.827 110.416 630.099 110.605C630.371 110.791 630.717 110.884 631.138 110.884ZM638.05 107.374V111.908H636.563V104.271H637.99V105.514H638.085C638.26 105.11 638.535 104.785 638.91 104.54C639.288 104.295 639.763 104.172 640.337 104.172C640.857 104.172 641.313 104.281 641.704 104.5C642.095 104.716 642.398 105.037 642.614 105.465C642.829 105.892 642.937 106.421 642.937 107.051V111.908H641.45V107.23C641.45 106.676 641.306 106.244 641.018 105.932C640.729 105.617 640.333 105.46 639.83 105.46C639.485 105.46 639.178 105.534 638.91 105.683C638.645 105.833 638.434 106.051 638.278 106.34C638.126 106.625 638.05 106.969 638.05 107.374ZM647.789 112.057C647.173 112.057 646.622 111.9 646.138 111.585C645.658 111.267 645.28 110.814 645.005 110.227C644.733 109.637 644.597 108.93 644.597 108.105C644.597 107.279 644.735 106.573 645.01 105.987C645.288 105.4 645.669 104.951 646.153 104.639C646.637 104.328 647.186 104.172 647.799 104.172C648.273 104.172 648.654 104.252 648.942 104.411C649.234 104.566 649.46 104.749 649.619 104.958C649.781 105.166 649.907 105.35 649.996 105.509H650.086V101.726H651.572V111.908H650.121V110.72H649.996C649.907 110.882 649.778 111.068 649.609 111.276C649.443 111.485 649.214 111.668 648.923 111.823C648.631 111.979 648.253 112.057 647.789 112.057ZM648.117 110.789C648.545 110.789 648.906 110.677 649.201 110.451C649.499 110.222 649.725 109.906 649.877 109.502C650.033 109.097 650.111 108.627 650.111 108.09C650.111 107.559 650.035 107.095 649.882 106.698C649.73 106.3 649.506 105.99 649.211 105.768C648.916 105.546 648.551 105.435 648.117 105.435C647.67 105.435 647.297 105.551 646.999 105.783C646.7 106.015 646.475 106.331 646.322 106.732C646.173 107.133 646.099 107.586 646.099 108.09C646.099 108.6 646.175 109.059 646.327 109.467C646.48 109.874 646.705 110.198 647.004 110.436C647.305 110.672 647.676 110.789 648.117 110.789ZM658.886 101.726V111.908H657.399V101.726H658.886ZM664.177 112.062C663.424 112.062 662.776 111.901 662.233 111.58C661.693 111.255 661.275 110.799 660.98 110.213C660.688 109.623 660.542 108.932 660.542 108.139C660.542 107.357 660.688 106.668 660.98 106.071C661.275 105.475 661.686 105.009 662.213 104.674C662.743 104.339 663.363 104.172 664.072 104.172C664.503 104.172 664.921 104.243 665.325 104.386C665.729 104.528 666.092 104.752 666.414 105.057C666.735 105.362 666.989 105.758 667.175 106.245C667.36 106.729 667.453 107.317 667.453 108.01V108.537H661.383V107.423H665.996C665.996 107.032 665.917 106.686 665.758 106.384C665.599 106.079 665.375 105.839 665.086 105.664C664.801 105.488 664.467 105.4 664.082 105.4C663.665 105.4 663.3 105.503 662.988 105.708C662.68 105.91 662.442 106.176 662.273 106.504C662.107 106.829 662.024 107.182 662.024 107.563V108.433C662.024 108.943 662.113 109.377 662.292 109.735C662.475 110.093 662.728 110.367 663.053 110.556C663.378 110.741 663.757 110.834 664.192 110.834C664.473 110.834 664.73 110.794 664.962 110.715C665.194 110.632 665.395 110.509 665.564 110.347C665.733 110.184 665.862 109.984 665.952 109.745L667.358 109.999C667.246 110.413 667.044 110.776 666.752 111.088C666.464 111.396 666.101 111.636 665.663 111.808C665.229 111.977 664.733 112.062 664.177 112.062ZM672.667 104.271V105.465H668.496V104.271H672.667ZM669.614 102.442H671.101V109.666C671.101 109.954 671.144 110.171 671.23 110.317C671.316 110.459 671.427 110.557 671.563 110.61C671.702 110.66 671.853 110.685 672.016 110.685C672.135 110.685 672.239 110.677 672.329 110.66C672.418 110.643 672.488 110.63 672.538 110.62L672.806 111.848C672.72 111.881 672.597 111.914 672.438 111.948C672.279 111.984 672.08 112.004 671.842 112.007C671.451 112.014 671.086 111.944 670.748 111.798C670.41 111.653 670.136 111.427 669.928 111.122C669.719 110.817 669.614 110.435 669.614 109.974V102.442ZM675.972 101.726V102.681C675.972 102.962 675.919 103.259 675.813 103.57C675.71 103.879 675.564 104.175 675.375 104.46C675.186 104.745 674.964 104.991 674.709 105.196L673.973 104.669C674.169 104.384 674.338 104.081 674.48 103.759C674.626 103.438 674.699 103.083 674.699 102.695V101.726H675.972ZM682.166 106.136L680.819 106.374C680.763 106.202 680.673 106.038 680.551 105.882C680.431 105.726 680.269 105.599 680.063 105.499C679.858 105.4 679.601 105.35 679.293 105.35C678.872 105.35 678.521 105.445 678.239 105.634C677.957 105.819 677.816 106.06 677.816 106.355C677.816 106.61 677.911 106.815 678.1 106.971C678.289 107.127 678.593 107.254 679.014 107.354L680.227 107.632C680.93 107.795 681.454 108.045 681.798 108.383C682.143 108.721 682.316 109.16 682.316 109.7C682.316 110.158 682.183 110.566 681.918 110.923C681.656 111.278 681.29 111.557 680.819 111.759C680.352 111.961 679.81 112.062 679.193 112.062C678.338 112.062 677.641 111.88 677.1 111.515C676.56 111.147 676.229 110.625 676.106 109.949L677.543 109.73C677.632 110.105 677.816 110.388 678.095 110.58C678.373 110.769 678.736 110.864 679.183 110.864C679.671 110.864 680.06 110.763 680.352 110.561C680.643 110.355 680.789 110.105 680.789 109.81C680.789 109.571 680.7 109.371 680.521 109.208C680.345 109.046 680.075 108.923 679.71 108.84L678.418 108.557C677.705 108.395 677.178 108.136 676.837 107.781C676.499 107.427 676.33 106.978 676.33 106.434C676.33 105.983 676.456 105.589 676.708 105.251C676.959 104.913 677.307 104.649 677.752 104.46C678.196 104.268 678.704 104.172 679.278 104.172C680.103 104.172 680.753 104.351 681.227 104.709C681.701 105.064 682.014 105.539 682.166 106.136ZM687.774 111.908V101.726H689.261V105.509H689.35C689.436 105.35 689.561 105.166 689.723 104.958C689.886 104.749 690.111 104.566 690.399 104.411C690.688 104.252 691.069 104.172 691.543 104.172C692.159 104.172 692.709 104.328 693.193 104.639C693.677 104.951 694.057 105.4 694.332 105.987C694.61 106.573 694.749 107.279 694.749 108.105C694.749 108.93 694.612 109.637 694.337 110.227C694.062 110.814 693.684 111.267 693.203 111.585C692.723 111.9 692.174 112.057 691.558 112.057C691.094 112.057 690.714 111.979 690.419 111.823C690.128 111.668 689.899 111.485 689.733 111.276C689.567 111.068 689.44 110.882 689.35 110.72H689.226V111.908H687.774ZM689.231 108.09C689.231 108.627 689.309 109.097 689.465 109.502C689.62 109.906 689.846 110.222 690.141 110.451C690.436 110.677 690.797 110.789 691.225 110.789C691.669 110.789 692.04 110.672 692.338 110.436C692.637 110.198 692.862 109.874 693.014 109.467C693.17 109.059 693.248 108.6 693.248 108.09C693.248 107.586 693.172 107.133 693.019 106.732C692.87 106.331 692.645 106.015 692.343 105.783C692.045 105.551 691.672 105.435 691.225 105.435C690.794 105.435 690.429 105.546 690.131 105.768C689.836 105.99 689.612 106.3 689.46 106.698C689.307 107.095 689.231 107.559 689.231 108.09ZM701.256 108.741V104.271H702.747V111.908H701.286V110.585H701.206C701.031 110.993 700.749 111.333 700.361 111.605C699.977 111.873 699.498 112.007 698.924 112.007C698.434 112.007 698 111.9 697.622 111.684C697.247 111.465 696.952 111.142 696.737 110.715C696.525 110.287 696.419 109.758 696.419 109.129V104.271H697.905V108.95C697.905 109.47 698.049 109.884 698.338 110.193C698.626 110.501 699.001 110.655 699.461 110.655C699.74 110.655 700.016 110.585 700.292 110.446C700.57 110.307 700.8 110.097 700.983 109.815C701.168 109.533 701.259 109.175 701.256 108.741ZM704.745 111.908V104.271H706.231V111.908H704.745ZM705.496 103.093C705.237 103.093 705.015 103.007 704.829 102.835C704.647 102.659 704.556 102.45 704.556 102.208C704.556 101.963 704.647 101.754 704.829 101.582C705.015 101.406 705.237 101.318 705.496 101.318C705.754 101.318 705.974 101.406 706.157 101.582C706.342 101.754 706.435 101.963 706.435 102.208C706.435 102.45 706.342 102.659 706.157 102.835C705.974 103.007 705.754 103.093 705.496 103.093ZM709.718 101.726V111.908H708.231V101.726H709.718ZM714.576 112.057C713.96 112.057 713.409 111.9 712.926 111.585C712.445 111.267 712.067 110.814 711.792 110.227C711.52 109.637 711.384 108.93 711.384 108.105C711.384 107.279 711.522 106.573 711.797 105.987C712.075 105.4 712.457 104.951 712.941 104.639C713.424 104.328 713.973 104.172 714.586 104.172C715.06 104.172 715.441 104.252 715.73 104.411C716.021 104.566 716.247 104.749 716.406 104.958C716.568 105.166 716.694 105.35 716.784 105.509H716.873V101.726H718.36V111.908H716.908V110.72H716.784C716.694 110.882 716.565 111.068 716.396 111.276C716.23 111.485 716.001 111.668 715.71 111.823C715.418 111.979 715.04 112.057 714.576 112.057ZM714.904 110.789C715.332 110.789 715.693 110.677 715.988 110.451C716.286 110.222 716.512 109.906 716.664 109.502C716.82 109.097 716.898 108.627 716.898 108.09C716.898 107.559 716.822 107.095 716.669 106.698C716.517 106.3 716.293 105.99 715.998 105.768C715.703 105.546 715.338 105.435 714.904 105.435C714.457 105.435 714.084 105.551 713.786 105.783C713.487 106.015 713.262 106.331 713.11 106.732C712.96 107.133 712.886 107.586 712.886 108.09C712.886 108.6 712.962 109.059 713.115 109.467C713.267 109.874 713.492 110.198 713.791 110.436C714.092 110.672 714.463 110.789 714.904 110.789ZM727.751 104.271V105.465H723.58V104.271H727.751ZM724.698 102.442H726.185V109.666C726.185 109.954 726.228 110.171 726.314 110.317C726.4 110.459 726.511 110.557 726.647 110.61C726.786 110.66 726.937 110.685 727.1 110.685C727.219 110.685 727.323 110.677 727.413 110.66C727.502 110.643 727.572 110.63 727.622 110.62L727.89 111.848C727.804 111.881 727.681 111.914 727.522 111.948C727.363 111.984 727.164 112.004 726.926 112.007C726.534 112.014 726.17 111.944 725.832 111.798C725.494 111.653 725.22 111.427 725.012 111.122C724.803 110.817 724.698 110.435 724.698 109.974V102.442ZM732.53 112.062C731.814 112.062 731.189 111.898 730.656 111.57C730.122 111.242 729.708 110.783 729.413 110.193C729.118 109.603 728.97 108.913 728.97 108.124C728.97 107.332 729.118 106.64 729.413 106.046C729.708 105.453 730.122 104.992 730.656 104.664C731.189 104.336 731.814 104.172 732.53 104.172C733.246 104.172 733.87 104.336 734.404 104.664C734.938 104.992 735.352 105.453 735.647 106.046C735.942 106.64 736.089 107.332 736.089 108.124C736.089 108.913 735.942 109.603 735.647 110.193C735.352 110.783 734.938 111.242 734.404 111.57C733.87 111.898 733.246 112.062 732.53 112.062ZM732.535 110.814C732.999 110.814 733.383 110.691 733.688 110.446C733.993 110.201 734.218 109.874 734.364 109.467C734.513 109.059 734.588 108.61 734.588 108.119C734.588 107.632 734.513 107.185 734.364 106.777C734.218 106.366 733.993 106.036 733.688 105.788C733.383 105.539 732.999 105.415 732.535 105.415C732.067 105.415 731.68 105.539 731.371 105.788C731.067 106.036 730.839 106.366 730.69 106.777C730.544 107.185 730.472 107.632 730.472 108.119C730.472 108.61 730.544 109.059 730.69 109.467C730.839 109.874 731.067 110.201 731.371 110.446C731.68 110.691 732.067 110.814 732.535 110.814ZM740.95 114.931C740.344 114.931 739.822 114.851 739.384 114.692C738.95 114.533 738.596 114.322 738.32 114.061C738.045 113.799 737.84 113.512 737.704 113.2L738.982 112.673C739.071 112.819 739.191 112.973 739.34 113.136C739.492 113.302 739.698 113.442 739.956 113.558C740.218 113.674 740.554 113.732 740.965 113.732C741.529 113.732 741.994 113.595 742.362 113.32C742.73 113.048 742.914 112.614 742.914 112.017V110.516H742.82C742.73 110.678 742.601 110.859 742.432 111.058C742.266 111.257 742.038 111.429 741.746 111.575C741.454 111.721 741.075 111.793 740.607 111.793C740.004 111.793 739.461 111.653 738.977 111.371C738.496 111.086 738.115 110.667 737.833 110.113C737.555 109.556 737.416 108.872 737.416 108.06C737.416 107.248 737.553 106.552 737.828 105.972C738.107 105.392 738.488 104.948 738.972 104.639C739.456 104.328 740.004 104.172 740.617 104.172C741.091 104.172 741.474 104.252 741.766 104.411C742.057 104.566 742.284 104.749 742.447 104.958C742.613 105.166 742.74 105.35 742.83 105.509H742.939V104.271H744.396V112.077C744.396 112.733 744.243 113.272 743.938 113.693C743.633 114.114 743.221 114.425 742.7 114.627C742.183 114.829 741.6 114.931 740.95 114.931ZM740.936 110.561C741.363 110.561 741.724 110.461 742.019 110.262C742.318 110.06 742.543 109.772 742.695 109.397C742.851 109.019 742.929 108.567 742.929 108.04C742.929 107.526 742.853 107.074 742.7 106.683C742.548 106.292 742.324 105.987 742.029 105.768C741.734 105.546 741.37 105.435 740.936 105.435C740.488 105.435 740.115 105.551 739.817 105.783C739.519 106.012 739.293 106.323 739.141 106.717C738.992 107.112 738.917 107.553 738.917 108.04C738.917 108.54 738.993 108.98 739.146 109.357C739.298 109.735 739.524 110.03 739.822 110.242C740.124 110.454 740.495 110.561 740.936 110.561ZM749.681 112.062C748.928 112.062 748.28 111.901 747.737 111.58C747.196 111.255 746.779 110.799 746.484 110.213C746.192 109.623 746.046 108.932 746.046 108.139C746.046 107.357 746.192 106.668 746.484 106.071C746.779 105.475 747.19 105.009 747.717 104.674C748.247 104.339 748.867 104.172 749.576 104.172C750.007 104.172 750.425 104.243 750.829 104.386C751.233 104.528 751.596 104.752 751.918 105.057C752.239 105.362 752.493 105.758 752.678 106.245C752.864 106.729 752.957 107.317 752.957 108.01V108.537H746.887V107.423H751.5C751.5 107.032 751.421 106.686 751.262 106.384C751.102 106.079 750.879 105.839 750.59 105.664C750.305 105.488 749.971 105.4 749.586 105.4C749.168 105.4 748.804 105.503 748.492 105.708C748.184 105.91 747.945 106.176 747.776 106.504C747.611 106.829 747.528 107.182 747.528 107.563V108.433C747.528 108.943 747.617 109.377 747.796 109.735C747.979 110.093 748.232 110.367 748.557 110.556C748.882 110.741 749.261 110.834 749.695 110.834C749.977 110.834 750.234 110.794 750.466 110.715C750.698 110.632 750.899 110.509 751.068 110.347C751.237 110.184 751.366 109.984 751.455 109.745L752.862 109.999C752.75 110.413 752.548 110.776 752.256 111.088C751.967 111.396 751.605 111.636 751.167 111.808C750.733 111.977 750.237 112.062 749.681 112.062ZM758.171 104.271V105.465H754V104.271H758.171ZM755.118 102.442H756.605V109.666C756.605 109.954 756.648 110.171 756.734 110.317C756.82 110.459 756.931 110.557 757.067 110.61C757.206 110.66 757.357 110.685 757.52 110.685C757.639 110.685 757.743 110.677 757.833 110.66C757.922 110.643 757.992 110.63 758.042 110.62L758.31 111.848C758.224 111.881 758.101 111.914 757.942 111.948C757.783 111.984 757.584 112.004 757.346 112.007C756.954 112.014 756.59 111.944 756.252 111.798C755.914 111.653 755.64 111.427 755.431 111.122C755.223 110.817 755.118 110.435 755.118 109.974V102.442ZM761.466 107.374V111.908H759.979V101.726H761.446V105.514H761.54C761.719 105.103 761.993 104.777 762.361 104.535C762.728 104.293 763.209 104.172 763.802 104.172C764.326 104.172 764.783 104.28 765.175 104.495C765.569 104.711 765.874 105.032 766.089 105.46C766.308 105.884 766.417 106.414 766.417 107.051V111.908H764.931V107.23C764.931 106.669 764.787 106.235 764.498 105.927C764.21 105.615 763.809 105.46 763.295 105.46C762.944 105.46 762.629 105.534 762.351 105.683C762.076 105.833 761.858 106.051 761.699 106.34C761.544 106.625 761.466 106.969 761.466 107.374ZM771.692 112.062C770.94 112.062 770.292 111.901 769.748 111.58C769.208 111.255 768.791 110.799 768.496 110.213C768.204 109.623 768.058 108.932 768.058 108.139C768.058 107.357 768.204 106.668 768.496 106.071C768.791 105.475 769.202 105.009 769.728 104.674C770.259 104.339 770.879 104.172 771.588 104.172C772.019 104.172 772.436 104.243 772.841 104.386C773.245 104.528 773.608 104.752 773.929 105.057C774.251 105.362 774.505 105.758 774.69 106.245C774.876 106.729 774.969 107.317 774.969 108.01V108.537H768.898V107.423H773.512C773.512 107.032 773.432 106.686 773.273 106.384C773.114 106.079 772.89 105.839 772.602 105.664C772.317 105.488 771.982 105.4 771.598 105.4C771.18 105.4 770.816 105.503 770.504 105.708C770.196 105.91 769.957 106.176 769.788 106.504C769.622 106.829 769.54 107.182 769.54 107.563V108.433C769.54 108.943 769.629 109.377 769.808 109.735C769.99 110.093 770.244 110.367 770.569 110.556C770.894 110.741 771.273 110.834 771.707 110.834C771.989 110.834 772.246 110.794 772.478 110.715C772.71 110.632 772.91 110.509 773.079 110.347C773.248 110.184 773.378 109.984 773.467 109.745L774.874 109.999C774.761 110.413 774.559 110.776 774.268 111.088C773.979 111.396 773.616 111.636 773.179 111.808C772.745 111.977 772.249 112.062 771.692 112.062ZM776.618 111.908V104.271H778.055V105.485H778.134C778.273 105.074 778.519 104.75 778.87 104.515C779.225 104.276 779.626 104.157 780.073 104.157C780.166 104.157 780.275 104.16 780.401 104.167C780.531 104.174 780.632 104.182 780.705 104.192V105.614C780.645 105.597 780.539 105.579 780.386 105.559C780.234 105.536 780.081 105.524 779.929 105.524C779.578 105.524 779.264 105.599 778.989 105.748C778.718 105.894 778.502 106.098 778.343 106.36C778.184 106.618 778.104 106.913 778.104 107.244V111.908H776.618ZM782.095 112.002C781.824 112.002 781.59 111.906 781.394 111.714C781.199 111.518 781.101 111.283 781.101 111.008C781.101 110.736 781.199 110.504 781.394 110.312C781.59 110.116 781.824 110.019 782.095 110.019C782.367 110.019 782.601 110.116 782.796 110.312C782.992 110.504 783.09 110.736 783.09 111.008C783.09 111.19 783.043 111.358 782.95 111.51C782.861 111.659 782.742 111.779 782.592 111.868C782.443 111.958 782.278 112.002 782.095 112.002Z" fill="#2C2C2C"/>
<g clip-path="url(#clip0_69_3)">
<path d="M306 115.095C306 115.865 305.874 116.181 305.042 116.288C291.096 117.983 277.149 119.703 263.203 121.449C251.166 122.941 259.34 121.98 247.297 123.472C234.029 125.115 220.762 126.748 207.494 128.37C201.392 129.128 195.289 129.928 189.18 130.668C188.408 130.763 188.258 131.073 188.264 131.795C188.318 138.454 188.342 145.106 188.372 151.765V153.006C187.845 152.928 187.677 152.6 187.45 152.368C181.197 146.031 174.949 139.699 168.704 133.37C168.508 133.18 168.354 132.951 168.251 132.699C168.148 132.446 168.098 132.175 168.105 131.903C167.656 114.254 165.86 73.0552 165.374 55.4064C165.374 54.5413 165.59 54.2788 166.399 54.2131C174.885 53.1869 183.371 52.1189 191.845 51.0688C203.344 49.6368 214.845 48.2069 226.348 46.7789C233.678 45.866 241.008 44.9889 248.339 44.0761C257.969 42.8828 267.601 41.6895 277.235 40.4962C290.028 38.9091 282.625 39.8041 295.388 38.223C297.627 37.9425 299.873 37.6919 302.101 37.3698C302.922 37.2504 303.233 37.3698 303.251 38.3363C303.616 53.169 305.892 112.231 306 115.095Z" fill="#2C2C2C"/>
<path d="M297.37 105.71C297.37 106.479 297.232 106.796 296.334 106.903C281.206 108.606 266.082 110.33 250.962 112.076C237.906 113.58 246.77 112.613 233.714 114.111C219.34 115.757 204.953 117.394 190.552 119.021C183.934 119.785 177.316 120.59 170.693 121.33C169.854 121.42 169.692 121.736 169.698 122.458C169.758 129.116 169.776 135.769 169.806 142.427V143.686C169.402 143.612 169.043 143.383 168.806 143.048C162.019 136.716 155.247 130.385 148.492 124.057C148.28 123.876 148.11 123.65 147.995 123.397C147.88 123.143 147.823 122.867 147.827 122.589C147.348 104.94 145.431 63.7476 144.898 46.0928C144.868 45.2276 145.132 44.9651 146.006 44.8697C155.211 43.8434 164.41 42.7695 173.603 41.7134C186.072 40.2814 198.543 38.8475 211.016 37.4116C218.963 36.4987 226.91 35.6216 234.858 34.7028L266.198 31.0931C280.068 29.5 272.013 30.401 285.883 28.8139C288.309 28.5334 290.746 28.2829 293.166 27.9547C294.052 27.8354 294.364 27.9845 294.411 28.9213C294.813 43.7837 297.256 102.846 297.37 105.71Z" fill="#F1D1E5"/>
<path d="M297.37 105.71C297.37 106.479 297.232 106.796 296.334 106.903C281.206 108.606 266.082 110.33 250.962 112.076C237.906 113.58 246.77 112.613 233.714 114.111C219.34 115.757 204.953 117.394 190.552 119.021C183.934 119.785 177.316 120.59 170.693 121.33C169.854 121.42 169.692 121.736 169.698 122.458C169.758 129.116 169.776 135.769 169.806 142.427V143.686C169.402 143.612 169.043 143.383 168.806 143.048C162.019 136.716 155.247 130.385 148.492 124.057C148.28 123.876 148.11 123.65 147.995 123.397C147.88 123.143 147.823 122.867 147.827 122.589C147.348 104.94 145.431 63.7476 144.898 46.0928C144.868 45.2276 145.132 44.9651 146.006 44.8697C155.211 43.8434 164.41 42.7695 173.603 41.7134C186.072 40.2814 198.543 38.8475 211.016 37.4116C218.963 36.4987 226.91 35.6216 234.858 34.7028L266.198 31.0931C280.068 29.5 272.013 30.401 285.883 28.8139C288.309 28.5334 290.746 28.2829 293.166 27.9547C294.052 27.8354 294.364 27.9845 294.411 28.9213C294.813 43.7837 297.256 102.846 297.37 105.71Z" stroke="#2C2C2C" stroke-width="3" stroke-miterlimit="10"/>
<path d="M194.516 70.2092L189.534 74.0098C187.825 71.7068 185.088 70.7521 181.323 71.1459C178.616 71.4244 176.518 72.3193 175.029 73.8308C173.539 75.3424 172.922 77.3212 173.178 79.7675C173.433 82.2018 174.448 84.0017 176.22 85.1671C177.993 86.3326 180.231 86.7741 182.934 86.4917C186.747 86.0939 189.26 84.5665 190.474 81.9094L196.104 84.5705C195.007 86.6383 193.346 88.3551 191.312 89.5227C188.924 90.8773 186.266 91.6921 183.527 91.9093C178.859 92.3985 175.023 91.6308 172.016 89.6062C169.01 87.5816 167.283 84.5267 166.836 80.4417C166.397 76.3089 167.441 72.9398 169.968 70.3345C172.495 67.7291 176.089 66.1858 180.748 65.7045C183.456 65.368 186.206 65.6162 188.809 66.4324C191.034 67.1238 193.014 68.4342 194.516 70.2092Z" fill="#2C2C2C"/>
<path d="M197.529 77.2317C197.09 73.091 198.134 69.7219 200.661 67.1245C203.188 64.5271 206.782 62.9838 211.441 62.4945C216.104 62.0053 219.939 62.7729 222.946 64.7976C225.952 66.8222 227.675 69.9029 228.114 74.0396C228.545 78.1565 227.499 81.5136 224.976 84.111C222.453 86.7084 218.859 88.2518 214.196 88.741C209.529 89.2223 205.692 88.4546 202.685 86.438C199.679 84.4213 197.96 81.3525 197.529 77.2317ZM218.748 69.2664C216.963 68.105 214.719 67.6635 212.016 67.9419C209.313 68.2203 207.215 69.1153 205.722 70.6268C204.232 72.1304 203.616 74.1192 203.871 76.5933C204.127 79.0674 205.141 80.8573 206.913 81.9631C208.682 83.1286 210.92 83.5701 213.627 83.2877C216.334 83.0052 218.438 82.1103 219.939 80.6027C221.443 79.0932 222.065 77.1303 221.808 74.6959C221.55 72.2616 220.532 70.4299 218.748 69.2664Z" fill="#2C2C2C"/>
<path d="M230.725 73.7652C230.286 69.6245 231.33 66.2554 233.858 63.658C236.385 61.0606 239.978 59.5173 244.638 59.028C249.297 58.5428 253.132 59.3105 256.142 61.3311C259.153 63.3518 260.874 66.4324 261.305 70.5732C261.744 74.69 260.7 78.0492 258.173 80.6506C255.645 83.2519 252.052 84.7933 247.393 85.2746C242.733 85.7638 238.898 84.9961 235.888 82.9715C232.877 80.9469 231.157 77.8781 230.725 73.7652ZM251.944 65.806C250.159 64.6405 247.914 64.199 245.207 64.4814C242.5 64.7638 240.402 65.6588 238.912 67.1663C237.423 68.6699 236.808 70.6488 237.068 73.103C237.327 75.5572 238.339 77.3471 240.104 78.4728C241.901 79.6661 244.111 80.0837 246.824 79.8033C249.537 79.5229 251.615 78.61 253.136 77.1184C254.657 75.6268 255.256 73.6399 255.004 71.2116C254.753 68.7832 253.723 66.9694 251.944 65.806Z" fill="#2C2C2C"/>
<path d="M267.006 74.2485L264.287 57.4528L271.426 56.707L272.258 73.7055L267.006 74.2485ZM267.126 82.7089L266.527 77.0408L273.306 76.3308L273.905 81.9989L267.126 82.7089Z" fill="#2C2C2C"/>
</g>
<defs>
<linearGradient id="paint0_linear_69_3" x1="1062.11" y1="0" x2="1062.11" y2="972.108" gradientUnits="userSpaceOnUse">
<stop stop-color="#F1D1E5"/>
<stop offset="1" stop-color="white"/>
</linearGradient>
<clipPath id="clip0_69_3">
<rect width="162" height="126" fill="white" transform="translate(144 27)"/>
</clipPath>
</defs>
</svg>
