<svg width="974" height="166" viewBox="0 0 974 166" fill="none" xmlns="http://www.w3.org/2000/svg">
<rect x="972.4" y="1.25415" width="163.978" height="970.724" rx="7.61081" transform="rotate(90 972.4 1.25415)" fill="#FFFFFF" stroke="#F1D1E5" stroke-width="1.38378"/>
<path d="M388.493 64.0265H392.332C392.255 65.2846 391.908 66.4015 391.292 67.3772C390.684 68.3528 389.833 69.1146 388.737 69.6623C387.65 70.2101 386.341 70.4839 384.809 70.4839C383.611 70.4839 382.536 70.2785 381.586 69.8677C380.636 69.4483 379.823 68.8492 379.147 68.0704C378.48 67.2916 377.971 66.3501 377.62 65.2461C377.269 64.142 377.093 62.9053 377.093 61.536V60.2393C377.093 58.87 377.273 57.6333 377.632 56.5292C378 55.4166 378.523 54.4709 379.199 53.692C379.883 52.9132 380.701 52.3141 381.651 51.8947C382.601 51.4754 383.662 51.2657 384.834 51.2657C386.392 51.2657 387.706 51.5481 388.776 52.113C389.854 52.6778 390.689 53.4567 391.279 54.4495C391.878 55.4423 392.238 56.572 392.357 57.8387H388.506C388.463 57.0855 388.314 56.4479 388.057 55.9258C387.8 55.3952 387.411 54.9972 386.889 54.7319C386.375 54.458 385.69 54.3211 384.834 54.3211C384.193 54.3211 383.632 54.4409 383.153 54.6806C382.673 54.9202 382.271 55.2839 381.946 55.7718C381.621 56.2596 381.377 56.8758 381.214 57.6204C381.06 58.3565 380.983 59.2209 380.983 60.2137V61.536C380.983 62.5031 381.056 63.3547 381.201 64.0907C381.347 64.8182 381.569 65.4344 381.869 65.9393C382.177 66.4357 382.571 66.8123 383.05 67.0691C383.538 67.3173 384.124 67.4414 384.809 67.4414C385.613 67.4414 386.277 67.313 386.799 67.0562C387.321 66.7995 387.719 66.4186 387.993 65.9137C388.275 65.4087 388.442 64.7797 388.493 64.0265ZM394.039 63.4231V63.1535C394.039 62.1351 394.185 61.1979 394.476 60.342C394.767 59.4776 395.19 58.7287 395.747 58.0954C396.303 57.4621 396.988 56.97 397.801 56.6191C398.614 56.2596 399.547 56.0799 400.599 56.0799C401.652 56.0799 402.589 56.2596 403.411 56.6191C404.232 56.97 404.921 57.4621 405.478 58.0954C406.043 58.7287 406.471 59.4776 406.761 60.342C407.052 61.1979 407.198 62.1351 407.198 63.1535V63.4231C407.198 64.433 407.052 65.3702 406.761 66.2346C406.471 67.0905 406.043 67.8393 405.478 68.4812C404.921 69.1146 404.237 69.6067 403.424 69.9576C402.611 70.3085 401.678 70.4839 400.625 70.4839C399.572 70.4839 398.635 70.3085 397.814 69.9576C397 69.6067 396.311 69.1146 395.747 68.4812C395.19 67.8393 394.767 67.0905 394.476 66.2346C394.185 65.3702 394.039 64.433 394.039 63.4231ZM397.736 63.1535V63.4231C397.736 64.0051 397.788 64.5486 397.891 65.0535C397.993 65.5585 398.156 66.0035 398.378 66.3887C398.609 66.7652 398.909 67.0605 399.277 67.2745C399.645 67.4884 400.094 67.5954 400.625 67.5954C401.139 67.5954 401.579 67.4884 401.947 67.2745C402.315 67.0605 402.611 66.7652 402.833 66.3887C403.056 66.0035 403.218 65.5585 403.321 65.0535C403.432 64.5486 403.488 64.0051 403.488 63.4231V63.1535C403.488 62.5887 403.432 62.058 403.321 61.5616C403.218 61.0567 403.051 60.6116 402.82 60.2265C402.598 59.8328 402.302 59.5247 401.934 59.3022C401.566 59.0796 401.121 58.9684 400.599 58.9684C400.077 58.9684 399.632 59.0796 399.264 59.3022C398.905 59.5247 398.609 59.8328 398.378 60.2265C398.156 60.6116 397.993 61.0567 397.891 61.5616C397.788 62.058 397.736 62.5887 397.736 63.1535ZM413.373 50.5083V70.2272H409.663V50.5083H413.373ZM420.331 50.5083V70.2272H416.621V50.5083H420.331ZM430.884 67.0947V60.9069C430.884 60.4619 430.811 60.081 430.666 59.7643C430.52 59.4391 430.293 59.1866 429.985 59.0069C429.686 58.8272 429.296 58.7373 428.817 58.7373C428.406 58.7373 428.051 58.8101 427.751 58.9556C427.452 59.0925 427.221 59.2936 427.058 59.5589C426.896 59.8157 426.814 60.1195 426.814 60.4704H423.117C423.117 59.8799 423.254 59.3193 423.528 58.7887C423.802 58.258 424.2 57.7916 424.722 57.3893C425.244 56.9785 425.864 56.6576 426.583 56.4265C427.311 56.1954 428.124 56.0799 429.022 56.0799C430.101 56.0799 431.059 56.2596 431.898 56.6191C432.737 56.9785 433.396 57.5177 433.875 58.2366C434.363 58.9556 434.607 59.8542 434.607 60.9326V66.8765C434.607 67.6382 434.654 68.263 434.748 68.7508C434.842 69.2301 434.979 69.6495 435.159 70.0089V70.2272H431.423C431.243 69.8506 431.106 69.3799 431.012 68.815C430.927 68.2416 430.884 67.6682 430.884 67.0947ZM431.372 61.767L431.397 63.8596H429.33C428.843 63.8596 428.419 63.9152 428.059 64.0265C427.7 64.1378 427.405 64.2961 427.174 64.5015C426.943 64.6983 426.771 64.9294 426.66 65.1947C426.557 65.4601 426.506 65.751 426.506 66.0677C426.506 66.3844 426.579 66.6711 426.724 66.9278C426.87 67.176 427.08 67.3729 427.353 67.5184C427.627 67.6553 427.948 67.7238 428.316 67.7238C428.873 67.7238 429.356 67.6125 429.767 67.39C430.178 67.1675 430.494 66.8936 430.717 66.5684C430.948 66.2432 431.068 65.9351 431.076 65.6441L432.052 67.2103C431.915 67.5612 431.727 67.9249 431.487 68.3015C431.256 68.6781 430.961 69.0333 430.601 69.367C430.242 69.6923 429.81 69.9619 429.305 70.1758C428.8 70.3812 428.201 70.4839 427.507 70.4839C426.626 70.4839 425.826 70.3085 425.107 69.9576C424.396 69.5981 423.832 69.106 423.412 68.4812C423.001 67.8479 422.796 67.129 422.796 66.3245C422.796 65.597 422.933 64.9508 423.207 64.386C423.481 63.8211 423.883 63.3461 424.414 62.961C424.953 62.5673 425.625 62.272 426.429 62.0751C427.234 61.8697 428.166 61.767 429.228 61.767H431.372ZM437.457 50.5083H441.154V67.0434L440.782 70.2272H437.457V50.5083ZM449.948 63.1407V63.4103C449.948 64.4459 449.837 65.3959 449.614 66.2603C449.4 67.1247 449.066 67.8736 448.613 68.5069C448.159 69.1317 447.594 69.6195 446.918 69.9704C446.251 70.3128 445.463 70.4839 444.556 70.4839C443.709 70.4839 442.973 70.3128 442.348 69.9704C441.732 69.6281 441.214 69.1445 440.795 68.5197C440.375 67.895 440.037 67.1632 439.78 66.3245C439.524 65.4857 439.331 64.57 439.203 63.5772V62.9866C439.331 61.9938 439.524 61.0781 439.78 60.2393C440.037 59.4006 440.375 58.6688 440.795 58.0441C441.214 57.4193 441.732 56.9357 442.348 56.5934C442.964 56.251 443.692 56.0799 444.53 56.0799C445.446 56.0799 446.242 56.2553 446.918 56.6062C447.603 56.9486 448.168 57.4364 448.613 58.0697C449.066 58.6945 449.4 59.4391 449.614 60.3035C449.837 61.1594 449.948 62.1051 449.948 63.1407ZM446.251 63.4103V63.1407C446.251 62.5758 446.208 62.0452 446.122 61.5488C446.045 61.0438 445.908 60.6031 445.711 60.2265C445.515 59.8414 445.245 59.5375 444.903 59.315C444.569 59.0925 444.137 58.9812 443.606 58.9812C443.101 58.9812 442.673 59.0668 442.322 59.238C441.971 59.4092 441.68 59.6488 441.449 59.9569C441.227 60.265 441.06 60.633 440.949 61.061C440.837 61.4803 440.769 61.9425 440.743 62.4474V64.1292C440.769 64.8053 440.88 65.4044 441.077 65.9265C441.282 66.44 441.591 66.8465 442.001 67.1461C442.421 67.4371 442.964 67.5826 443.632 67.5826C444.154 67.5826 444.586 67.4799 444.928 67.2745C445.271 67.0691 445.536 66.7781 445.724 66.4015C445.921 66.0249 446.058 65.5842 446.135 65.0792C446.212 64.5657 446.251 64.0094 446.251 63.4103ZM451.655 63.4231V63.1535C451.655 62.1351 451.801 61.1979 452.092 60.342C452.383 59.4776 452.807 58.7287 453.363 58.0954C453.919 57.4621 454.604 56.97 455.417 56.6191C456.23 56.2596 457.163 56.0799 458.216 56.0799C459.268 56.0799 460.205 56.2596 461.027 56.6191C461.849 56.97 462.538 57.4621 463.094 58.0954C463.659 58.7287 464.087 59.4776 464.378 60.342C464.669 61.1979 464.814 62.1351 464.814 63.1535V63.4231C464.814 64.433 464.669 65.3702 464.378 66.2346C464.087 67.0905 463.659 67.8393 463.094 68.4812C462.538 69.1146 461.853 69.6067 461.04 69.9576C460.227 70.3085 459.294 70.4839 458.241 70.4839C457.189 70.4839 456.251 70.3085 455.43 69.9576C454.617 69.6067 453.928 69.1146 453.363 68.4812C452.807 67.8393 452.383 67.0905 452.092 66.2346C451.801 65.3702 451.655 64.433 451.655 63.4231ZM455.353 63.1535V63.4231C455.353 64.0051 455.404 64.5486 455.507 65.0535C455.609 65.5585 455.772 66.0035 455.995 66.3887C456.226 66.7652 456.525 67.0605 456.893 67.2745C457.261 67.4884 457.711 67.5954 458.241 67.5954C458.755 67.5954 459.196 67.4884 459.564 67.2745C459.932 67.0605 460.227 66.7652 460.449 66.3887C460.672 66.0035 460.834 65.5585 460.937 65.0535C461.048 64.5486 461.104 64.0051 461.104 63.4231V63.1535C461.104 62.5887 461.048 62.058 460.937 61.5616C460.834 61.0567 460.668 60.6116 460.436 60.2265C460.214 59.8328 459.919 59.5247 459.551 59.3022C459.183 59.0796 458.738 58.9684 458.216 58.9684C457.693 58.9684 457.248 59.0796 456.88 59.3022C456.521 59.5247 456.226 59.8328 455.995 60.2265C455.772 60.6116 455.609 61.0567 455.507 61.5616C455.404 62.058 455.353 62.5887 455.353 63.1535ZM470.784 59.3664V70.2272H467.086V56.3366H470.566L470.784 59.3664ZM474.969 56.2468L474.905 59.6745C474.725 59.6488 474.507 59.6274 474.25 59.6103C474.002 59.5846 473.775 59.5718 473.57 59.5718C473.048 59.5718 472.594 59.6402 472.209 59.7772C471.832 59.9056 471.516 60.0981 471.259 60.3549C471.011 60.6116 470.822 60.924 470.694 61.292C470.574 61.6601 470.506 62.0794 470.489 62.5501L469.744 62.3191C469.744 61.4204 469.834 60.5945 470.014 59.8414C470.193 59.0796 470.454 58.4164 470.797 57.8515C471.148 57.2866 471.575 56.8501 472.08 56.542C472.585 56.2339 473.163 56.0799 473.814 56.0799C474.019 56.0799 474.229 56.097 474.443 56.1312C474.657 56.1569 474.832 56.1954 474.969 56.2468ZM483.776 67.0947V60.9069C483.776 60.4619 483.703 60.081 483.557 59.7643C483.412 59.4391 483.185 59.1866 482.877 59.0069C482.577 58.8272 482.188 58.7373 481.709 58.7373C481.298 58.7373 480.943 58.8101 480.643 58.9556C480.344 59.0925 480.113 59.2936 479.95 59.5589C479.787 59.8157 479.706 60.1195 479.706 60.4704H476.009C476.009 59.8799 476.146 59.3193 476.42 58.7887C476.693 58.258 477.091 57.7916 477.614 57.3893C478.136 56.9785 478.756 56.6576 479.475 56.4265C480.202 56.1954 481.016 56.0799 481.914 56.0799C482.993 56.0799 483.951 56.2596 484.79 56.6191C485.629 56.9785 486.288 57.5177 486.767 58.2366C487.255 58.9556 487.499 59.8542 487.499 60.9326V66.8765C487.499 67.6382 487.546 68.263 487.64 68.7508C487.734 69.2301 487.871 69.6495 488.051 70.0089V70.2272H484.315C484.135 69.8506 483.998 69.3799 483.904 68.815C483.818 68.2416 483.776 67.6682 483.776 67.0947ZM484.264 61.767L484.289 63.8596H482.222C481.734 63.8596 481.311 63.9152 480.951 64.0265C480.592 64.1378 480.297 64.2961 480.066 64.5015C479.834 64.6983 479.663 64.9294 479.552 65.1947C479.449 65.4601 479.398 65.751 479.398 66.0677C479.398 66.3844 479.471 66.6711 479.616 66.9278C479.762 67.176 479.971 67.3729 480.245 67.5184C480.519 67.6553 480.84 67.7238 481.208 67.7238C481.764 67.7238 482.248 67.6125 482.659 67.39C483.07 67.1675 483.386 66.8936 483.609 66.5684C483.84 66.2432 483.96 65.9351 483.968 65.6441L484.944 67.2103C484.807 67.5612 484.619 67.9249 484.379 68.3015C484.148 68.6781 483.853 69.0333 483.493 69.367C483.134 69.6923 482.702 69.9619 482.197 70.1758C481.692 70.3812 481.093 70.4839 480.399 70.4839C479.518 70.4839 478.718 70.3085 477.999 69.9576C477.288 69.5981 476.723 69.106 476.304 68.4812C475.893 67.8479 475.688 67.129 475.688 66.3245C475.688 65.597 475.825 64.9508 476.099 64.386C476.373 63.8211 476.775 63.3461 477.305 62.961C477.845 62.5673 478.516 62.272 479.321 62.0751C480.125 61.8697 481.058 61.767 482.12 61.767H484.264ZM497.153 56.3366V58.9556H489.065V56.3366H497.153ZM491.068 52.9089H494.765V66.042C494.765 66.4443 494.816 66.7524 494.919 66.9664C495.03 67.1803 495.193 67.3301 495.407 67.4157C495.621 67.4927 495.89 67.5312 496.216 67.5312C496.447 67.5312 496.652 67.5227 496.832 67.5056C497.02 67.4799 497.178 67.4542 497.307 67.4285L497.32 70.1501C497.003 70.2528 496.661 70.3342 496.293 70.3941C495.925 70.454 495.518 70.4839 495.073 70.4839C494.26 70.4839 493.55 70.3513 492.942 70.086C492.343 69.8121 491.881 69.3756 491.555 68.7765C491.23 68.1774 491.068 67.39 491.068 66.4143V52.9089ZM505.651 70.4839C504.573 70.4839 503.606 70.3128 502.75 69.9704C501.894 69.6195 501.167 69.136 500.568 68.5197C499.977 67.9035 499.523 67.1889 499.207 66.3758C498.89 65.5542 498.732 64.6812 498.732 63.7569V63.2434C498.732 62.1907 498.882 61.2278 499.181 60.3549C499.481 59.4819 499.909 58.7245 500.465 58.0826C501.03 57.4407 501.714 56.9486 502.519 56.6062C503.323 56.2553 504.231 56.0799 505.241 56.0799C506.225 56.0799 507.098 56.2425 507.859 56.5677C508.621 56.8929 509.259 57.3551 509.772 57.9542C510.294 58.5533 510.688 59.2722 510.953 60.111C511.219 60.9411 511.351 61.8655 511.351 62.8839V64.4245H500.311V61.9596H507.718V61.6772C507.718 61.1637 507.624 60.7058 507.436 60.3035C507.256 59.8927 506.982 59.5675 506.614 59.3278C506.246 59.0882 505.775 58.9684 505.202 58.9684C504.714 58.9684 504.295 59.0754 503.944 59.2893C503.593 59.5033 503.306 59.8028 503.084 60.188C502.87 60.5731 502.707 61.0267 502.596 61.5488C502.493 62.0623 502.442 62.6272 502.442 63.2434V63.7569C502.442 64.3132 502.519 64.8267 502.673 65.2974C502.836 65.7682 503.062 66.1747 503.353 66.517C503.653 66.8594 504.012 67.1247 504.432 67.313C504.86 67.5013 505.343 67.5954 505.882 67.5954C506.55 67.5954 507.171 67.467 507.744 67.2103C508.326 66.945 508.827 66.547 509.246 66.0164L511.043 67.9677C510.752 68.3871 510.354 68.7893 509.849 69.1745C509.353 69.5596 508.754 69.8763 508.052 70.1245C507.35 70.3641 506.55 70.4839 505.651 70.4839ZM523.971 66.6326L526.859 56.3366H529.209L528.451 60.3806L525.563 70.2272H523.599L523.971 66.6326ZM522.507 56.3366L524.574 66.6197L524.767 70.2272H522.456L518.939 56.3366H522.507ZM531.853 66.4528L533.869 56.3366H537.451L533.933 70.2272H531.635L531.853 66.4528ZM529.53 56.3366L532.405 66.5556L532.803 70.2272H530.826L527.938 60.3934L527.206 56.3366H529.53ZM543.215 56.3366V70.2272H539.505V56.3366H543.215ZM539.274 52.7164C539.274 52.1772 539.462 51.7321 539.839 51.3812C540.215 51.0303 540.72 50.8549 541.353 50.8549C541.978 50.8549 542.479 51.0303 542.855 51.3812C543.241 51.7321 543.433 52.1772 543.433 52.7164C543.433 53.2556 543.241 53.7006 542.855 54.0515C542.479 54.4024 541.978 54.5778 541.353 54.5778C540.72 54.5778 540.215 54.4024 539.839 54.0515C539.462 53.7006 539.274 53.2556 539.274 52.7164ZM553.074 56.3366V58.9556H544.986V56.3366H553.074ZM546.989 52.9089H550.686V66.042C550.686 66.4443 550.738 66.7524 550.841 66.9664C550.952 67.1803 551.114 67.3301 551.328 67.4157C551.542 67.4927 551.812 67.5312 552.137 67.5312C552.368 67.5312 552.574 67.5227 552.753 67.5056C552.942 67.4799 553.1 67.4542 553.228 67.4285L553.241 70.1501C552.925 70.2528 552.582 70.3342 552.214 70.3941C551.846 70.454 551.44 70.4839 550.995 70.4839C550.182 70.4839 549.471 70.3513 548.864 70.086C548.264 69.8121 547.802 69.3756 547.477 68.7765C547.152 68.1774 546.989 67.39 546.989 66.4143V52.9089ZM558.787 50.5083V70.2272H555.09V50.5083H558.787ZM558.261 62.7941H557.247C557.255 61.8269 557.384 60.9369 557.632 60.1238C557.88 59.3022 558.235 58.5918 558.697 57.9927C559.159 57.3851 559.712 56.9143 560.353 56.5806C561.004 56.2468 561.723 56.0799 562.51 56.0799C563.195 56.0799 563.815 56.1783 564.372 56.3751C564.937 56.5634 565.42 56.8715 565.822 57.2995C566.233 57.7188 566.55 58.2709 566.772 58.9556C566.995 59.6402 567.106 60.4704 567.106 61.4461V70.2272H563.383V61.4204C563.383 60.8042 563.293 60.3206 563.114 59.9697C562.942 59.6103 562.69 59.3578 562.356 59.2123C562.031 59.0583 561.629 58.9812 561.149 58.9812C560.619 58.9812 560.165 59.0796 559.789 59.2765C559.421 59.4733 559.125 59.7472 558.903 60.0981C558.68 60.4405 558.518 60.8427 558.415 61.3049C558.312 61.767 558.261 62.2634 558.261 62.7941ZM583.975 63.5643H579.212V60.5603H583.975C584.711 60.5603 585.31 60.4405 585.772 60.2008C586.234 59.9526 586.573 59.6103 586.786 59.1738C587 58.7373 587.107 58.2452 587.107 57.6974C587.107 57.1411 587 56.6233 586.786 56.1441C586.573 55.6648 586.234 55.2796 585.772 54.9887C585.31 54.6977 584.711 54.5522 583.975 54.5522H580.547V70.2272H576.696V51.5353H583.975C585.439 51.5353 586.692 51.8006 587.736 52.3312C588.789 52.8533 589.594 53.5765 590.15 54.5008C590.706 55.4251 590.984 56.4821 590.984 57.6718C590.984 58.8785 590.706 59.9227 590.15 60.8042C589.594 61.6857 588.789 62.3661 587.736 62.8454C586.692 63.3247 585.439 63.5643 583.975 63.5643ZM600.754 67.0947V60.9069C600.754 60.4619 600.681 60.081 600.536 59.7643C600.39 59.4391 600.164 59.1866 599.855 59.0069C599.556 58.8272 599.166 58.7373 598.687 58.7373C598.276 58.7373 597.921 58.8101 597.622 58.9556C597.322 59.0925 597.091 59.2936 596.928 59.5589C596.766 59.8157 596.684 60.1195 596.684 60.4704H592.987C592.987 59.8799 593.124 59.3193 593.398 58.7887C593.672 58.258 594.07 57.7916 594.592 57.3893C595.114 56.9785 595.734 56.6576 596.453 56.4265C597.181 56.1954 597.994 56.0799 598.893 56.0799C599.971 56.0799 600.93 56.2596 601.768 56.6191C602.607 56.9785 603.266 57.5177 603.745 58.2366C604.233 58.9556 604.477 59.8542 604.477 60.9326V66.8765C604.477 67.6382 604.524 68.263 604.618 68.7508C604.712 69.2301 604.849 69.6495 605.029 70.0089V70.2272H601.293C601.114 69.8506 600.977 69.3799 600.882 68.815C600.797 68.2416 600.754 67.6682 600.754 67.0947ZM601.242 61.767L601.268 63.8596H599.201C598.713 63.8596 598.289 63.9152 597.93 64.0265C597.57 64.1378 597.275 64.2961 597.044 64.5015C596.813 64.6983 596.642 64.9294 596.53 65.1947C596.428 65.4601 596.376 65.751 596.376 66.0677C596.376 66.3844 596.449 66.6711 596.595 66.9278C596.74 67.176 596.95 67.3729 597.224 67.5184C597.498 67.6553 597.818 67.7238 598.187 67.7238C598.743 67.7238 599.226 67.6125 599.637 67.39C600.048 67.1675 600.365 66.8936 600.587 66.5684C600.818 66.2432 600.938 65.9351 600.947 65.6441L601.922 67.2103C601.785 67.5612 601.597 67.9249 601.357 68.3015C601.126 68.6781 600.831 69.0333 600.472 69.367C600.112 69.6923 599.68 69.9619 599.175 70.1758C598.67 70.3812 598.071 70.4839 597.378 70.4839C596.496 70.4839 595.696 70.3085 594.977 69.9576C594.267 69.5981 593.702 69.106 593.282 68.4812C592.872 67.8479 592.666 67.129 592.666 66.3245C592.666 65.597 592.803 64.9508 593.077 64.386C593.351 63.8211 593.753 63.3461 594.284 62.961C594.823 62.5673 595.495 62.272 596.299 62.0751C597.104 61.8697 598.037 61.767 599.098 61.767H601.242ZM611.23 50.5083V70.2272H607.52V50.5083H611.23ZM613.695 63.4231V63.1535C613.695 62.1351 613.84 61.1979 614.131 60.342C614.422 59.4776 614.846 58.7287 615.402 58.0954C615.958 57.4621 616.643 56.97 617.456 56.6191C618.269 56.2596 619.202 56.0799 620.255 56.0799C621.307 56.0799 622.245 56.2596 623.066 56.6191C623.888 56.97 624.577 57.4621 625.133 58.0954C625.698 58.7287 626.126 59.4776 626.417 60.342C626.708 61.1979 626.853 62.1351 626.853 63.1535V63.4231C626.853 64.433 626.708 65.3702 626.417 66.2346C626.126 67.0905 625.698 67.8393 625.133 68.4812C624.577 69.1146 623.892 69.6067 623.079 69.9576C622.266 70.3085 621.333 70.4839 620.28 70.4839C619.228 70.4839 618.291 70.3085 617.469 69.9576C616.656 69.6067 615.967 69.1146 615.402 68.4812C614.846 67.8393 614.422 67.0905 614.131 66.2346C613.84 65.3702 613.695 64.433 613.695 63.4231ZM617.392 63.1535V63.4231C617.392 64.0051 617.443 64.5486 617.546 65.0535C617.649 65.5585 617.811 66.0035 618.034 66.3887C618.265 66.7652 618.564 67.0605 618.932 67.2745C619.3 67.4884 619.75 67.5954 620.28 67.5954C620.794 67.5954 621.235 67.4884 621.603 67.2745C621.971 67.0605 622.266 66.7652 622.489 66.3887C622.711 66.0035 622.874 65.5585 622.976 65.0535C623.088 64.5486 623.143 64.0051 623.143 63.4231V63.1535C623.143 62.5887 623.088 62.058 622.976 61.5616C622.874 61.0567 622.707 60.6116 622.476 60.2265C622.253 59.8328 621.958 59.5247 621.59 59.3022C621.222 59.0796 620.777 58.9684 620.255 58.9684C619.733 58.9684 619.288 59.0796 618.92 59.3022C618.56 59.5247 618.265 59.8328 618.034 60.2265C617.811 60.6116 617.649 61.0567 617.546 61.5616C617.443 62.058 617.392 62.5887 617.392 63.1535ZM632.823 59.2123V70.2272H629.113V56.3366H632.592L632.823 59.2123ZM632.309 62.7941H631.282C631.282 61.8269 631.398 60.9369 631.629 60.1238C631.869 59.3022 632.215 58.5918 632.669 57.9927C633.131 57.3851 633.7 56.9143 634.376 56.5806C635.052 56.2468 635.836 56.0799 636.726 56.0799C637.342 56.0799 637.907 56.174 638.42 56.3623C638.934 56.542 639.375 56.8287 639.743 57.2224C640.119 57.6076 640.41 58.1125 640.616 58.7373C640.821 59.3535 640.924 60.0938 640.924 60.9583V70.2272H637.226V61.3691C637.226 60.7357 637.141 60.2479 636.97 59.9056C636.798 59.5632 636.555 59.3236 636.238 59.1866C635.93 59.0497 635.557 58.9812 635.121 58.9812C634.642 58.9812 634.222 59.0796 633.863 59.2765C633.512 59.4733 633.221 59.7472 632.99 60.0981C632.759 60.4405 632.588 60.8427 632.476 61.3049C632.365 61.767 632.309 62.2634 632.309 62.7941ZM640.577 62.3704L639.255 62.5373C639.255 61.6301 639.366 60.7871 639.589 60.0083C639.82 59.2294 640.158 58.5447 640.603 57.9542C641.056 57.3637 641.617 56.9058 642.284 56.5806C642.952 56.2468 643.722 56.0799 644.595 56.0799C645.263 56.0799 645.871 56.1783 646.418 56.3751C646.966 56.5634 647.432 56.8673 647.818 57.2866C648.211 57.6974 648.511 58.2366 648.716 58.9042C648.93 59.5718 649.037 60.3891 649.037 61.3562V70.2272H645.327V61.3562C645.327 60.7143 645.241 60.2265 645.07 59.8927C644.908 59.5504 644.668 59.315 644.351 59.1866C644.043 59.0497 643.675 58.9812 643.247 58.9812C642.802 58.9812 642.413 59.0711 642.079 59.2508C641.745 59.422 641.467 59.6616 641.245 59.9697C641.022 60.2778 640.855 60.6373 640.744 61.0481C640.633 61.4504 640.577 61.8911 640.577 62.3704ZM659.397 67.0947V60.9069C659.397 60.4619 659.325 60.081 659.179 59.7643C659.034 59.4391 658.807 59.1866 658.499 59.0069C658.199 58.8272 657.81 58.7373 657.33 58.7373C656.92 58.7373 656.564 58.8101 656.265 58.9556C655.965 59.0925 655.734 59.2936 655.572 59.5589C655.409 59.8157 655.328 60.1195 655.328 60.4704H651.63C651.63 59.8799 651.767 59.3193 652.041 58.7887C652.315 58.258 652.713 57.7916 653.235 57.3893C653.757 56.9785 654.378 56.6576 655.097 56.4265C655.824 56.1954 656.637 56.0799 657.536 56.0799C658.614 56.0799 659.573 56.2596 660.412 56.6191C661.25 56.9785 661.909 57.5177 662.389 58.2366C662.876 58.9556 663.12 59.8542 663.12 60.9326V66.8765C663.12 67.6382 663.167 68.263 663.262 68.7508C663.356 69.2301 663.493 69.6495 663.672 70.0089V70.2272H659.937C659.757 69.8506 659.62 69.3799 659.526 68.815C659.44 68.2416 659.397 67.6682 659.397 67.0947ZM659.885 61.767L659.911 63.8596H657.844C657.356 63.8596 656.932 63.9152 656.573 64.0265C656.214 64.1378 655.918 64.2961 655.687 64.5015C655.456 64.6983 655.285 64.9294 655.174 65.1947C655.071 65.4601 655.02 65.751 655.02 66.0677C655.02 66.3844 655.092 66.6711 655.238 66.9278C655.383 67.176 655.593 67.3729 655.867 67.5184C656.141 67.6553 656.462 67.7238 656.83 67.7238C657.386 67.7238 657.87 67.6125 658.28 67.39C658.691 67.1675 659.008 66.8936 659.23 66.5684C659.462 66.2432 659.581 65.9351 659.59 65.6441L660.566 67.2103C660.429 67.5612 660.24 67.9249 660.001 68.3015C659.77 68.6781 659.474 69.0333 659.115 69.367C658.755 69.6923 658.323 69.9619 657.818 70.1758C657.313 70.3812 656.714 70.4839 656.021 70.4839C655.139 70.4839 654.339 70.3085 653.62 69.9576C652.91 69.5981 652.345 69.106 651.926 68.4812C651.515 67.8479 651.309 67.129 651.309 66.3245C651.309 65.597 651.446 64.9508 651.72 64.386C651.994 63.8211 652.396 63.3461 652.927 62.961C653.466 62.5673 654.138 62.272 654.943 62.0751C655.747 61.8697 656.68 61.767 657.741 61.767H659.885Z" fill="black"/>
<path d="M383.097 102.447V103.508H378.178V102.447H383.097ZM378.435 93.6703V103.508H377.131V93.6703H378.435ZM387.435 103.643C386.926 103.643 386.464 103.558 386.05 103.387C385.64 103.211 385.286 102.965 384.989 102.65C384.696 102.335 384.471 101.961 384.314 101.528C384.156 101.096 384.077 100.623 384.077 100.11V99.8257C384.077 99.2312 384.165 98.7019 384.341 98.2379C384.516 97.7694 384.755 97.373 385.057 97.0487C385.359 96.7244 385.701 96.4789 386.084 96.3122C386.467 96.1456 386.863 96.0622 387.273 96.0622C387.796 96.0622 388.246 96.1523 388.624 96.3325C389.007 96.5127 389.32 96.7649 389.564 97.0893C389.807 97.4091 389.987 97.7875 390.104 98.2244C390.221 98.6568 390.28 99.1298 390.28 99.6433V100.204H384.82V99.1839H389.03V99.0893C389.012 98.7649 388.944 98.4496 388.827 98.1433C388.714 97.837 388.534 97.5848 388.286 97.3866C388.039 97.1884 387.701 97.0893 387.273 97.0893C386.989 97.0893 386.728 97.1501 386.489 97.2717C386.25 97.3888 386.046 97.5645 385.874 97.7987C385.703 98.033 385.57 98.319 385.476 98.6568C385.381 98.9947 385.334 99.3843 385.334 99.8257V100.11C385.334 100.456 385.381 100.783 385.476 101.089C385.575 101.391 385.717 101.657 385.901 101.887C386.091 102.116 386.318 102.296 386.584 102.427C386.854 102.558 387.16 102.623 387.503 102.623C387.944 102.623 388.318 102.533 388.624 102.353C388.931 102.173 389.199 101.932 389.428 101.63L390.185 102.231C390.027 102.47 389.827 102.697 389.584 102.914C389.341 103.13 389.041 103.305 388.685 103.441C388.334 103.576 387.917 103.643 387.435 103.643ZM394.8 96.1974V97.1568H390.847V96.1974H394.8ZM392.185 94.4203H393.435V101.697C393.435 101.945 393.473 102.132 393.55 102.258C393.627 102.384 393.726 102.468 393.847 102.508C393.969 102.549 394.1 102.569 394.239 102.569C394.343 102.569 394.451 102.56 394.564 102.542C394.681 102.519 394.768 102.501 394.827 102.488L394.834 103.508C394.735 103.54 394.604 103.569 394.442 103.596C394.284 103.628 394.093 103.643 393.868 103.643C393.561 103.643 393.28 103.583 393.023 103.461C392.766 103.339 392.561 103.137 392.408 102.853C392.259 102.564 392.185 102.177 392.185 101.691V94.4203ZM404.172 101.819V96.1974H405.428V103.508H404.232L404.172 101.819ZM404.408 100.278L404.928 100.265C404.928 100.751 404.877 101.202 404.773 101.616C404.674 102.026 404.512 102.382 404.286 102.684C404.061 102.986 403.766 103.222 403.401 103.393C403.036 103.56 402.593 103.643 402.07 103.643C401.714 103.643 401.388 103.592 401.091 103.488C400.798 103.384 400.546 103.224 400.334 103.008C400.122 102.792 399.958 102.51 399.841 102.164C399.728 101.817 399.672 101.4 399.672 100.914V96.1974H400.922V100.927C400.922 101.256 400.958 101.528 401.03 101.745C401.106 101.956 401.208 102.125 401.334 102.251C401.464 102.373 401.609 102.459 401.766 102.508C401.928 102.558 402.095 102.583 402.266 102.583C402.798 102.583 403.219 102.481 403.53 102.278C403.841 102.071 404.064 101.794 404.199 101.447C404.338 101.096 404.408 100.706 404.408 100.278ZM411.591 101.569C411.591 101.389 411.55 101.222 411.469 101.069C411.392 100.911 411.232 100.769 410.989 100.643C410.75 100.513 410.39 100.4 409.908 100.305C409.503 100.22 409.136 100.119 408.807 100.001C408.482 99.8843 408.205 99.7424 407.976 99.5757C407.75 99.4091 407.577 99.2131 407.455 98.9879C407.334 98.7627 407.273 98.4992 407.273 98.1974C407.273 97.9091 407.336 97.6366 407.462 97.3798C407.593 97.123 407.775 96.8956 408.009 96.6974C408.248 96.4992 408.534 96.3438 408.868 96.2312C409.201 96.1185 409.573 96.0622 409.982 96.0622C410.568 96.0622 411.068 96.1658 411.482 96.373C411.897 96.5803 412.214 96.8573 412.435 97.2041C412.656 97.5465 412.766 97.9271 412.766 98.346H411.516C411.516 98.1433 411.455 97.9474 411.334 97.7582C411.217 97.5645 411.043 97.4046 410.814 97.2784C410.588 97.1523 410.311 97.0893 409.982 97.0893C409.636 97.0893 409.354 97.1433 409.138 97.2514C408.926 97.355 408.771 97.4879 408.672 97.6501C408.577 97.8122 408.53 97.9834 408.53 98.1636C408.53 98.2987 408.552 98.4203 408.597 98.5284C408.647 98.6321 408.732 98.7289 408.854 98.819C408.976 98.9046 409.147 98.9857 409.368 99.0622C409.588 99.1388 409.87 99.2154 410.212 99.292C410.811 99.4271 411.305 99.5893 411.692 99.7784C412.079 99.9676 412.368 100.2 412.557 100.474C412.746 100.749 412.841 101.083 412.841 101.474C412.841 101.794 412.773 102.087 412.638 102.353C412.507 102.619 412.316 102.848 412.064 103.042C411.816 103.231 411.518 103.38 411.172 103.488C410.829 103.592 410.444 103.643 410.016 103.643C409.372 103.643 408.827 103.528 408.381 103.299C407.935 103.069 407.597 102.772 407.368 102.407C407.138 102.042 407.023 101.657 407.023 101.251H408.28C408.298 101.594 408.397 101.866 408.577 102.069C408.757 102.267 408.978 102.409 409.239 102.495C409.5 102.576 409.759 102.616 410.016 102.616C410.359 102.616 410.645 102.571 410.874 102.481C411.109 102.391 411.286 102.267 411.408 102.11C411.53 101.952 411.591 101.772 411.591 101.569ZM419.172 93.1298V103.508H417.915V93.1298H419.172ZM423.638 96.1974L420.449 99.6095L418.665 101.461L418.564 100.13L419.841 98.6028L422.111 96.1974H423.638ZM422.496 103.508L419.888 100.022L420.536 98.9068L423.969 103.508H422.496ZM426.178 97.7582V103.508H424.928V96.1974H426.111L426.178 97.7582ZM425.881 99.5757L425.361 99.5555C425.365 99.0555 425.44 98.5938 425.584 98.1703C425.728 97.7424 425.931 97.3708 426.192 97.0555C426.453 96.7402 426.764 96.4969 427.124 96.3257C427.489 96.1501 427.892 96.0622 428.334 96.0622C428.694 96.0622 429.018 96.1118 429.307 96.2109C429.595 96.3055 429.841 96.4586 430.043 96.6703C430.25 96.8821 430.408 97.1568 430.516 97.4947C430.624 97.828 430.678 98.2357 430.678 98.7176V103.508H429.422V98.7041C429.422 98.3212 429.365 98.0149 429.253 97.7852C429.14 97.551 428.976 97.3821 428.759 97.2784C428.543 97.1703 428.277 97.1163 427.962 97.1163C427.651 97.1163 427.368 97.1816 427.111 97.3122C426.859 97.4429 426.64 97.623 426.455 97.8528C426.275 98.0825 426.133 98.346 426.03 98.6433C425.931 98.9361 425.881 99.2469 425.881 99.5757ZM432.246 99.9339V99.7784C432.246 99.2514 432.323 98.7627 432.476 98.3122C432.629 97.8573 432.85 97.4631 433.138 97.1298C433.426 96.792 433.775 96.5307 434.185 96.346C434.595 96.1568 435.055 96.0622 435.564 96.0622C436.077 96.0622 436.539 96.1568 436.949 96.346C437.363 96.5307 437.714 96.792 438.003 97.1298C438.296 97.4631 438.518 97.8573 438.672 98.3122C438.825 98.7627 438.901 99.2514 438.901 99.7784V99.9339C438.901 100.461 438.825 100.95 438.672 101.4C438.518 101.851 438.296 102.245 438.003 102.583C437.714 102.916 437.365 103.177 436.955 103.366C436.55 103.551 436.091 103.643 435.577 103.643C435.064 103.643 434.602 103.551 434.192 103.366C433.782 103.177 433.431 102.916 433.138 102.583C432.85 102.245 432.629 101.851 432.476 101.4C432.323 100.95 432.246 100.461 432.246 99.9339ZM433.496 99.7784V99.9339C433.496 100.299 433.539 100.643 433.624 100.968C433.71 101.287 433.838 101.571 434.009 101.819C434.185 102.067 434.404 102.263 434.665 102.407C434.926 102.546 435.23 102.616 435.577 102.616C435.919 102.616 436.219 102.546 436.476 102.407C436.737 102.263 436.953 102.067 437.124 101.819C437.296 101.571 437.424 101.287 437.509 100.968C437.6 100.643 437.645 100.299 437.645 99.9339V99.7784C437.645 99.4181 437.6 99.078 437.509 98.7582C437.424 98.4339 437.293 98.1478 437.118 97.9001C436.946 97.6478 436.73 97.4496 436.469 97.3055C436.212 97.1613 435.91 97.0893 435.564 97.0893C435.221 97.0893 434.919 97.1613 434.658 97.3055C434.401 97.4496 434.185 97.6478 434.009 97.9001C433.838 98.1478 433.71 98.4339 433.624 98.7582C433.539 99.078 433.496 99.4181 433.496 99.7784ZM442.32 102.211L444.199 96.1974H445.023L444.861 97.3933L442.949 103.508H442.145L442.32 102.211ZM441.057 96.1974L442.658 102.278L442.773 103.508H441.928L439.807 96.1974H441.057ZM446.82 102.231L448.347 96.1974H449.591L447.469 103.508H446.631L446.82 102.231ZM445.205 96.1974L447.043 102.11L447.253 103.508H446.455L444.489 97.3798L444.327 96.1974H445.205ZM456.158 102.211L458.036 96.1974H458.861L458.699 97.3933L456.786 103.508H455.982L456.158 102.211ZM454.895 96.1974L456.496 102.278L456.611 103.508H455.766L453.645 96.1974H454.895ZM460.658 102.231L462.185 96.1974H463.428L461.307 103.508H460.469L460.658 102.231ZM459.043 96.1974L460.881 102.11L461.091 103.508H460.293L458.327 97.3798L458.165 96.1974H459.043ZM465.962 93.1298V103.508H464.712V93.1298H465.962ZM465.665 99.5757L465.145 99.5555C465.149 99.0555 465.223 98.5938 465.368 98.1703C465.512 97.7424 465.714 97.3708 465.976 97.0555C466.237 96.7402 466.548 96.4969 466.908 96.3257C467.273 96.1501 467.676 96.0622 468.118 96.0622C468.478 96.0622 468.802 96.1118 469.091 96.2109C469.379 96.3055 469.624 96.4586 469.827 96.6703C470.034 96.8821 470.192 97.1568 470.3 97.4947C470.408 97.828 470.462 98.2357 470.462 98.7176V103.508H469.205V98.7041C469.205 98.3212 469.149 98.0149 469.036 97.7852C468.924 97.551 468.759 97.3821 468.543 97.2784C468.327 97.1703 468.061 97.1163 467.746 97.1163C467.435 97.1163 467.151 97.1816 466.895 97.3122C466.642 97.4429 466.424 97.623 466.239 97.8528C466.059 98.0825 465.917 98.346 465.814 98.6433C465.714 98.9361 465.665 99.2469 465.665 99.5757ZM476.645 102.258V98.4947C476.645 98.2064 476.586 97.9564 476.469 97.7447C476.356 97.5284 476.185 97.3618 475.955 97.2447C475.726 97.1275 475.442 97.069 475.104 97.069C474.789 97.069 474.512 97.123 474.273 97.2312C474.039 97.3393 473.854 97.4812 473.719 97.6568C473.588 97.8325 473.523 98.0217 473.523 98.2244H472.273C472.273 97.9631 472.341 97.7041 472.476 97.4474C472.611 97.1906 472.805 96.9586 473.057 96.7514C473.314 96.5397 473.62 96.373 473.976 96.2514C474.336 96.1253 474.737 96.0622 475.178 96.0622C475.71 96.0622 476.178 96.1523 476.584 96.3325C476.994 96.5127 477.314 96.7852 477.543 97.1501C477.777 97.5104 477.895 97.9631 477.895 98.5082V101.914C477.895 102.157 477.915 102.416 477.955 102.691C478 102.965 478.066 103.202 478.151 103.4V103.508H476.847C476.784 103.364 476.735 103.173 476.699 102.934C476.663 102.691 476.645 102.465 476.645 102.258ZM476.861 99.0757L476.874 99.9541H475.611C475.255 99.9541 474.937 99.9834 474.658 100.042C474.379 100.096 474.145 100.179 473.955 100.292C473.766 100.405 473.622 100.546 473.523 100.718C473.424 100.884 473.374 101.08 473.374 101.305C473.374 101.535 473.426 101.745 473.53 101.934C473.633 102.123 473.789 102.274 473.996 102.387C474.208 102.495 474.467 102.549 474.773 102.549C475.156 102.549 475.494 102.468 475.786 102.305C476.079 102.143 476.311 101.945 476.482 101.711C476.658 101.477 476.753 101.249 476.766 101.028L477.3 101.63C477.268 101.819 477.183 102.028 477.043 102.258C476.904 102.488 476.717 102.709 476.482 102.92C476.253 103.128 475.978 103.301 475.658 103.441C475.343 103.576 474.987 103.643 474.591 103.643C474.095 103.643 473.66 103.546 473.286 103.353C472.917 103.159 472.629 102.9 472.422 102.576C472.219 102.247 472.118 101.88 472.118 101.474C472.118 101.083 472.194 100.738 472.347 100.441C472.5 100.139 472.721 99.8888 473.009 99.6906C473.298 99.4879 473.645 99.3348 474.05 99.2312C474.455 99.1275 474.908 99.0757 475.408 99.0757H476.861ZM482.922 96.1974V97.1568H478.969V96.1974H482.922ZM480.307 94.4203H481.557V101.697C481.557 101.945 481.595 102.132 481.672 102.258C481.748 102.384 481.847 102.468 481.969 102.508C482.091 102.549 482.221 102.569 482.361 102.569C482.464 102.569 482.573 102.56 482.685 102.542C482.802 102.519 482.89 102.501 482.949 102.488L482.955 103.508C482.856 103.54 482.726 103.569 482.564 103.596C482.406 103.628 482.214 103.643 481.989 103.643C481.683 103.643 481.401 103.583 481.145 103.461C480.888 103.339 480.683 103.137 480.53 102.853C480.381 102.564 480.307 102.177 480.307 101.691V94.4203ZM489.874 102.751L491.908 96.1974H493.246L490.314 104.637C490.246 104.817 490.156 105.01 490.043 105.218C489.935 105.429 489.796 105.63 489.624 105.819C489.453 106.008 489.246 106.161 489.003 106.278C488.764 106.4 488.478 106.461 488.145 106.461C488.046 106.461 487.919 106.447 487.766 106.42C487.613 106.393 487.505 106.371 487.442 106.353L487.435 105.339C487.471 105.344 487.527 105.348 487.604 105.353C487.685 105.362 487.741 105.366 487.773 105.366C488.057 105.366 488.298 105.328 488.496 105.251C488.694 105.179 488.861 105.055 488.996 104.88C489.136 104.709 489.255 104.472 489.354 104.17L489.874 102.751ZM488.381 96.1974L490.28 101.873L490.604 103.191L489.705 103.65L487.016 96.1974H488.381ZM493.935 99.9339V99.7784C493.935 99.2514 494.012 98.7627 494.165 98.3122C494.318 97.8573 494.539 97.4631 494.827 97.1298C495.115 96.792 495.464 96.5307 495.874 96.346C496.284 96.1568 496.744 96.0622 497.253 96.0622C497.766 96.0622 498.228 96.1568 498.638 96.346C499.052 96.5307 499.404 96.792 499.692 97.1298C499.985 97.4631 500.208 97.8573 500.361 98.3122C500.514 98.7627 500.591 99.2514 500.591 99.7784V99.9339C500.591 100.461 500.514 100.95 500.361 101.4C500.208 101.851 499.985 102.245 499.692 102.583C499.404 102.916 499.055 103.177 498.645 103.366C498.239 103.551 497.78 103.643 497.266 103.643C496.753 103.643 496.291 103.551 495.881 103.366C495.471 103.177 495.12 102.916 494.827 102.583C494.539 102.245 494.318 101.851 494.165 101.4C494.012 100.95 493.935 100.461 493.935 99.9339ZM495.185 99.7784V99.9339C495.185 100.299 495.228 100.643 495.314 100.968C495.399 101.287 495.527 101.571 495.699 101.819C495.874 102.067 496.093 102.263 496.354 102.407C496.615 102.546 496.919 102.616 497.266 102.616C497.609 102.616 497.908 102.546 498.165 102.407C498.426 102.263 498.642 102.067 498.814 101.819C498.985 101.571 499.113 101.287 499.199 100.968C499.289 100.643 499.334 100.299 499.334 99.9339V99.7784C499.334 99.4181 499.289 99.078 499.199 98.7582C499.113 98.4339 498.982 98.1478 498.807 97.9001C498.636 97.6478 498.419 97.4496 498.158 97.3055C497.901 97.1613 497.6 97.0893 497.253 97.0893C496.91 97.0893 496.609 97.1613 496.347 97.3055C496.091 97.4496 495.874 97.6478 495.699 97.9001C495.527 98.1478 495.399 98.4339 495.314 98.7582C495.228 99.078 495.185 99.4181 495.185 99.7784ZM506.631 101.819V96.1974H507.888V103.508H506.692L506.631 101.819ZM506.868 100.278L507.388 100.265C507.388 100.751 507.336 101.202 507.232 101.616C507.133 102.026 506.971 102.382 506.746 102.684C506.521 102.986 506.226 103.222 505.861 103.393C505.496 103.56 505.052 103.643 504.53 103.643C504.174 103.643 503.847 103.592 503.55 103.488C503.257 103.384 503.005 103.224 502.793 103.008C502.582 102.792 502.417 102.51 502.3 102.164C502.187 101.817 502.131 101.4 502.131 100.914V96.1974H503.381V100.927C503.381 101.256 503.417 101.528 503.489 101.745C503.566 101.956 503.667 102.125 503.793 102.251C503.924 102.373 504.068 102.459 504.226 102.508C504.388 102.558 504.555 102.583 504.726 102.583C505.257 102.583 505.678 102.481 505.989 102.278C506.3 102.071 506.523 101.794 506.658 101.447C506.798 101.096 506.868 100.706 506.868 100.278ZM511.057 93.1298V93.9947C511.057 94.2649 511.009 94.551 510.915 94.8528C510.825 95.1501 510.692 95.4384 510.516 95.7176C510.341 95.9924 510.129 96.2334 509.881 96.4406L509.165 95.9474C509.377 95.6501 509.536 95.346 509.645 95.0352C509.757 94.7199 509.814 94.3798 509.814 94.0149V93.1298H511.057ZM513.814 97.346V103.508H512.564V96.1974H513.78L513.814 97.346ZM516.097 96.1568L516.091 97.319C515.987 97.2965 515.888 97.283 515.793 97.2784C515.703 97.2694 515.6 97.2649 515.482 97.2649C515.194 97.2649 514.94 97.31 514.719 97.4001C514.498 97.4902 514.311 97.6163 514.158 97.7784C514.005 97.9406 513.883 98.1343 513.793 98.3595C513.708 98.5803 513.651 98.8235 513.624 99.0893L513.273 99.292C513.273 98.8505 513.316 98.4361 513.401 98.0487C513.491 97.6613 513.629 97.319 513.814 97.0217C513.998 96.7199 514.232 96.4857 514.516 96.319C514.805 96.1478 515.147 96.0622 515.543 96.0622C515.633 96.0622 515.737 96.0735 515.854 96.096C515.971 96.114 516.052 96.1343 516.097 96.1568ZM520.151 103.643C519.642 103.643 519.181 103.558 518.766 103.387C518.356 103.211 518.003 102.965 517.705 102.65C517.413 102.335 517.187 101.961 517.03 101.528C516.872 101.096 516.793 100.623 516.793 100.11V99.8257C516.793 99.2312 516.881 98.7019 517.057 98.2379C517.232 97.7694 517.471 97.373 517.773 97.0487C518.075 96.7244 518.417 96.4789 518.8 96.3122C519.183 96.1456 519.579 96.0622 519.989 96.0622C520.512 96.0622 520.962 96.1523 521.341 96.3325C521.723 96.5127 522.036 96.7649 522.28 97.0893C522.523 97.4091 522.703 97.7875 522.82 98.2244C522.937 98.6568 522.996 99.1298 522.996 99.6433V100.204H517.536V99.1839H521.746V99.0893C521.728 98.7649 521.66 98.4496 521.543 98.1433C521.431 97.837 521.25 97.5848 521.003 97.3866C520.755 97.1884 520.417 97.0893 519.989 97.0893C519.705 97.0893 519.444 97.1501 519.205 97.2717C518.967 97.3888 518.762 97.5645 518.591 97.7987C518.419 98.033 518.286 98.319 518.192 98.6568C518.097 98.9947 518.05 99.3843 518.05 99.8257V100.11C518.05 100.456 518.097 100.783 518.192 101.089C518.291 101.391 518.433 101.657 518.618 101.887C518.807 102.116 519.034 102.296 519.3 102.427C519.57 102.558 519.877 102.623 520.219 102.623C520.66 102.623 521.034 102.533 521.341 102.353C521.647 102.173 521.915 101.932 522.145 101.63L522.901 102.231C522.744 102.47 522.543 102.697 522.3 102.914C522.057 103.13 521.757 103.305 521.401 103.441C521.05 103.576 520.633 103.643 520.151 103.643ZM529.246 96.1974V103.508H527.989V96.1974H529.246ZM527.895 94.2582C527.895 94.0555 527.955 93.8843 528.077 93.7447C528.203 93.605 528.388 93.5352 528.631 93.5352C528.87 93.5352 529.052 93.605 529.178 93.7447C529.309 93.8843 529.374 94.0555 529.374 94.2582C529.374 94.4519 529.309 94.6185 529.178 94.7582C529.052 94.8933 528.87 94.9609 528.631 94.9609C528.388 94.9609 528.203 94.8933 528.077 94.7582C527.955 94.6185 527.895 94.4519 527.895 94.2582ZM532.503 97.7582V103.508H531.253V96.1974H532.435L532.503 97.7582ZM532.205 99.5757L531.685 99.5555C531.69 99.0555 531.764 98.5938 531.908 98.1703C532.052 97.7424 532.255 97.3708 532.516 97.0555C532.777 96.7402 533.088 96.4969 533.449 96.3257C533.814 96.1501 534.217 96.0622 534.658 96.0622C535.018 96.0622 535.343 96.1118 535.631 96.2109C535.919 96.3055 536.165 96.4586 536.368 96.6703C536.575 96.8821 536.732 97.1568 536.841 97.4947C536.949 97.828 537.003 98.2357 537.003 98.7176V103.508H535.746V98.7041C535.746 98.3212 535.69 98.0149 535.577 97.7852C535.464 97.551 535.3 97.3821 535.084 97.2784C534.868 97.1703 534.602 97.1163 534.287 97.1163C533.976 97.1163 533.692 97.1816 533.435 97.3122C533.183 97.4429 532.964 97.623 532.78 97.8528C532.6 98.0825 532.458 98.346 532.354 98.6433C532.255 98.9361 532.205 99.2469 532.205 99.5757ZM541.962 96.1974V97.1568H538.009V96.1974H541.962ZM539.347 94.4203H540.597V101.697C540.597 101.945 540.636 102.132 540.712 102.258C540.789 102.384 540.888 102.468 541.009 102.508C541.131 102.549 541.262 102.569 541.401 102.569C541.505 102.569 541.613 102.56 541.726 102.542C541.843 102.519 541.931 102.501 541.989 102.488L541.996 103.508C541.897 103.54 541.766 103.569 541.604 103.596C541.446 103.628 541.255 103.643 541.03 103.643C540.723 103.643 540.442 103.583 540.185 103.461C539.928 103.339 539.723 103.137 539.57 102.853C539.422 102.564 539.347 102.177 539.347 101.691V94.4203ZM546.462 103.643C545.953 103.643 545.491 103.558 545.077 103.387C544.667 103.211 544.314 102.965 544.016 102.65C543.723 102.335 543.498 101.961 543.341 101.528C543.183 101.096 543.104 100.623 543.104 100.11V99.8257C543.104 99.2312 543.192 98.7019 543.368 98.2379C543.543 97.7694 543.782 97.373 544.084 97.0487C544.386 96.7244 544.728 96.4789 545.111 96.3122C545.494 96.1456 545.89 96.0622 546.3 96.0622C546.823 96.0622 547.273 96.1523 547.651 96.3325C548.034 96.5127 548.347 96.7649 548.591 97.0893C548.834 97.4091 549.014 97.7875 549.131 98.2244C549.248 98.6568 549.307 99.1298 549.307 99.6433V100.204H543.847V99.1839H548.057V99.0893C548.039 98.7649 547.971 98.4496 547.854 98.1433C547.741 97.837 547.561 97.5848 547.314 97.3866C547.066 97.1884 546.728 97.0893 546.3 97.0893C546.016 97.0893 545.755 97.1501 545.516 97.2717C545.277 97.3888 545.073 97.5645 544.901 97.7987C544.73 98.033 544.597 98.319 544.503 98.6568C544.408 98.9947 544.361 99.3843 544.361 99.8257V100.11C544.361 100.456 544.408 100.783 544.503 101.089C544.602 101.391 544.744 101.657 544.928 101.887C545.118 102.116 545.345 102.296 545.611 102.427C545.881 102.558 546.187 102.623 546.53 102.623C546.971 102.623 547.345 102.533 547.651 102.353C547.958 102.173 548.226 101.932 548.455 101.63L549.212 102.231C549.055 102.47 548.854 102.697 548.611 102.914C548.368 103.13 548.068 103.305 547.712 103.441C547.361 103.576 546.944 103.643 546.462 103.643ZM552.016 97.346V103.508H550.766V96.1974H551.982L552.016 97.346ZM554.3 96.1568L554.293 97.319C554.19 97.2965 554.091 97.283 553.996 97.2784C553.906 97.2694 553.802 97.2649 553.685 97.2649C553.397 97.2649 553.142 97.31 552.922 97.4001C552.701 97.4902 552.514 97.6163 552.361 97.7784C552.208 97.9406 552.086 98.1343 551.996 98.3595C551.91 98.5803 551.854 98.8235 551.827 99.0893L551.476 99.292C551.476 98.8505 551.518 98.4361 551.604 98.0487C551.694 97.6613 551.832 97.319 552.016 97.0217C552.201 96.7199 552.435 96.4857 552.719 96.319C553.007 96.1478 553.35 96.0622 553.746 96.0622C553.836 96.0622 553.94 96.0735 554.057 96.096C554.174 96.114 554.255 96.1343 554.3 96.1568ZM558.354 103.643C557.845 103.643 557.383 103.558 556.969 103.387C556.559 103.211 556.205 102.965 555.908 102.65C555.615 102.335 555.39 101.961 555.232 101.528C555.075 101.096 554.996 100.623 554.996 100.11V99.8257C554.996 99.2312 555.084 98.7019 555.259 98.2379C555.435 97.7694 555.674 97.373 555.976 97.0487C556.277 96.7244 556.62 96.4789 557.003 96.3122C557.386 96.1456 557.782 96.0622 558.192 96.0622C558.714 96.0622 559.165 96.1523 559.543 96.3325C559.926 96.5127 560.239 96.7649 560.482 97.0893C560.726 97.4091 560.906 97.7875 561.023 98.2244C561.14 98.6568 561.199 99.1298 561.199 99.6433V100.204H555.739V99.1839H559.949V99.0893C559.931 98.7649 559.863 98.4496 559.746 98.1433C559.633 97.837 559.453 97.5848 559.205 97.3866C558.958 97.1884 558.62 97.0893 558.192 97.0893C557.908 97.0893 557.647 97.1501 557.408 97.2717C557.169 97.3888 556.964 97.5645 556.793 97.7987C556.622 98.033 556.489 98.319 556.395 98.6568C556.3 98.9947 556.253 99.3843 556.253 99.8257V100.11C556.253 100.456 556.3 100.783 556.395 101.089C556.494 101.391 556.636 101.657 556.82 101.887C557.009 102.116 557.237 102.296 557.503 102.427C557.773 102.558 558.079 102.623 558.422 102.623C558.863 102.623 559.237 102.533 559.543 102.353C559.85 102.173 560.118 101.932 560.347 101.63L561.104 102.231C560.946 102.47 560.746 102.697 560.503 102.914C560.259 103.13 559.96 103.305 559.604 103.441C559.253 103.576 558.836 103.643 558.354 103.643ZM566.915 101.569C566.915 101.389 566.874 101.222 566.793 101.069C566.717 100.911 566.557 100.769 566.314 100.643C566.075 100.513 565.714 100.4 565.232 100.305C564.827 100.22 564.46 100.119 564.131 100.001C563.807 99.8843 563.53 99.7424 563.3 99.5757C563.075 99.4091 562.901 99.2131 562.78 98.9879C562.658 98.7627 562.597 98.4992 562.597 98.1974C562.597 97.9091 562.66 97.6366 562.786 97.3798C562.917 97.123 563.1 96.8956 563.334 96.6974C563.573 96.4992 563.859 96.3438 564.192 96.2312C564.525 96.1185 564.897 96.0622 565.307 96.0622C565.892 96.0622 566.392 96.1658 566.807 96.373C567.221 96.5803 567.539 96.8573 567.759 97.2041C567.98 97.5465 568.091 97.9271 568.091 98.346H566.841C566.841 98.1433 566.78 97.9474 566.658 97.7582C566.541 97.5645 566.368 97.4046 566.138 97.2784C565.913 97.1523 565.636 97.0893 565.307 97.0893C564.96 97.0893 564.678 97.1433 564.462 97.2514C564.25 97.355 564.095 97.4879 563.996 97.6501C563.901 97.8122 563.854 97.9834 563.854 98.1636C563.854 98.2987 563.877 98.4203 563.922 98.5284C563.971 98.6321 564.057 98.7289 564.178 98.819C564.3 98.9046 564.471 98.9857 564.692 99.0622C564.913 99.1388 565.194 99.2154 565.536 99.292C566.136 99.4271 566.629 99.5893 567.016 99.7784C567.404 99.9676 567.692 100.2 567.881 100.474C568.07 100.749 568.165 101.083 568.165 101.474C568.165 101.794 568.097 102.087 567.962 102.353C567.832 102.619 567.64 102.848 567.388 103.042C567.14 103.231 566.843 103.38 566.496 103.488C566.154 103.592 565.768 103.643 565.341 103.643C564.696 103.643 564.151 103.528 563.705 103.299C563.259 103.069 562.922 102.772 562.692 102.407C562.462 102.042 562.347 101.657 562.347 101.251H563.604C563.622 101.594 563.721 101.866 563.901 102.069C564.082 102.267 564.302 102.409 564.564 102.495C564.825 102.576 565.084 102.616 565.341 102.616C565.683 102.616 565.969 102.571 566.199 102.481C566.433 102.391 566.611 102.267 566.732 102.11C566.854 101.952 566.915 101.772 566.915 101.569ZM572.868 96.1974V97.1568H568.915V96.1974H572.868ZM570.253 94.4203H571.503V101.697C571.503 101.945 571.541 102.132 571.618 102.258C571.694 102.384 571.793 102.468 571.915 102.508C572.036 102.549 572.167 102.569 572.307 102.569C572.41 102.569 572.518 102.56 572.631 102.542C572.748 102.519 572.836 102.501 572.895 102.488L572.901 103.508C572.802 103.54 572.672 103.569 572.509 103.596C572.352 103.628 572.16 103.643 571.935 103.643C571.629 103.643 571.347 103.583 571.091 103.461C570.834 103.339 570.629 103.137 570.476 102.853C570.327 102.564 570.253 102.177 570.253 101.691V94.4203ZM577.368 103.643C576.859 103.643 576.397 103.558 575.982 103.387C575.573 103.211 575.219 102.965 574.922 102.65C574.629 102.335 574.404 101.961 574.246 101.528C574.088 101.096 574.009 100.623 574.009 100.11V99.8257C574.009 99.2312 574.097 98.7019 574.273 98.2379C574.449 97.7694 574.687 97.373 574.989 97.0487C575.291 96.7244 575.633 96.4789 576.016 96.3122C576.399 96.1456 576.796 96.0622 577.205 96.0622C577.728 96.0622 578.178 96.1523 578.557 96.3325C578.94 96.5127 579.253 96.7649 579.496 97.0893C579.739 97.4091 579.919 97.7875 580.036 98.2244C580.154 98.6568 580.212 99.1298 580.212 99.6433V100.204H574.753V99.1839H578.962V99.0893C578.944 98.7649 578.877 98.4496 578.759 98.1433C578.647 97.837 578.467 97.5848 578.219 97.3866C577.971 97.1884 577.633 97.0893 577.205 97.0893C576.922 97.0893 576.66 97.1501 576.422 97.2717C576.183 97.3888 575.978 97.5645 575.807 97.7987C575.636 98.033 575.503 98.319 575.408 98.6568C575.314 98.9947 575.266 99.3843 575.266 99.8257V100.11C575.266 100.456 575.314 100.783 575.408 101.089C575.507 101.391 575.649 101.657 575.834 101.887C576.023 102.116 576.25 102.296 576.516 102.427C576.786 102.558 577.093 102.623 577.435 102.623C577.877 102.623 578.25 102.533 578.557 102.353C578.863 102.173 579.131 101.932 579.361 101.63L580.118 102.231C579.96 102.47 579.759 102.697 579.516 102.914C579.273 103.13 578.973 103.305 578.618 103.441C578.266 103.576 577.85 103.643 577.368 103.643ZM586.28 102.089V93.1298H587.537V103.508H586.388L586.28 102.089ZM581.361 99.9339V99.792C581.361 99.2334 581.428 98.7266 581.564 98.2717C581.703 97.8122 581.899 97.4181 582.151 97.0893C582.408 96.7604 582.712 96.5082 583.064 96.3325C583.419 96.1523 583.816 96.0622 584.253 96.0622C584.712 96.0622 585.113 96.1433 585.455 96.3055C585.802 96.4631 586.095 96.6951 586.334 97.0014C586.577 97.3032 586.768 97.6681 586.908 98.096C587.048 98.5239 587.145 99.0082 587.199 99.5487V100.17C587.149 100.706 587.052 101.188 586.908 101.616C586.768 102.044 586.577 102.409 586.334 102.711C586.095 103.013 585.802 103.245 585.455 103.407C585.109 103.564 584.703 103.643 584.239 103.643C583.811 103.643 583.419 103.551 583.064 103.366C582.712 103.182 582.408 102.923 582.151 102.589C581.899 102.256 581.703 101.864 581.564 101.414C581.428 100.959 581.361 100.465 581.361 99.9339ZM582.618 99.792V99.9339C582.618 100.299 582.654 100.641 582.726 100.961C582.802 101.281 582.919 101.562 583.077 101.805C583.235 102.049 583.435 102.24 583.678 102.38C583.922 102.515 584.212 102.583 584.55 102.583C584.964 102.583 585.305 102.495 585.57 102.319C585.841 102.143 586.057 101.911 586.219 101.623C586.381 101.335 586.507 101.022 586.597 100.684V99.0555C586.543 98.8077 586.464 98.569 586.361 98.3393C586.262 98.105 586.131 97.8978 585.969 97.7176C585.811 97.533 585.615 97.3866 585.381 97.2784C585.151 97.1703 584.879 97.1163 584.564 97.1163C584.221 97.1163 583.926 97.1884 583.678 97.3325C583.435 97.4721 583.235 97.6658 583.077 97.9136C582.919 98.1568 582.802 98.4406 582.726 98.7649C582.654 99.0848 582.618 99.4271 582.618 99.792ZM594.273 96.1974V103.508H593.016V96.1974H594.273ZM592.922 94.2582C592.922 94.0555 592.982 93.8843 593.104 93.7447C593.23 93.605 593.415 93.5352 593.658 93.5352C593.897 93.5352 594.079 93.605 594.205 93.7447C594.336 93.8843 594.401 94.0555 594.401 94.2582C594.401 94.4519 594.336 94.6185 594.205 94.7582C594.079 94.8933 593.897 94.9609 593.658 94.9609C593.415 94.9609 593.23 94.8933 593.104 94.7582C592.982 94.6185 592.922 94.4519 592.922 94.2582ZM597.53 97.7582V103.508H596.28V96.1974H597.462L597.53 97.7582ZM597.232 99.5757L596.712 99.5555C596.717 99.0555 596.791 98.5938 596.935 98.1703C597.079 97.7424 597.282 97.3708 597.543 97.0555C597.805 96.7402 598.115 96.4969 598.476 96.3257C598.841 96.1501 599.244 96.0622 599.685 96.0622C600.046 96.0622 600.37 96.1118 600.658 96.2109C600.946 96.3055 601.192 96.4586 601.395 96.6703C601.602 96.8821 601.759 97.1568 601.868 97.4947C601.976 97.828 602.03 98.2357 602.03 98.7176V103.508H600.773V98.7041C600.773 98.3212 600.717 98.0149 600.604 97.7852C600.491 97.551 600.327 97.3821 600.111 97.2784C599.895 97.1703 599.629 97.1163 599.314 97.1163C599.003 97.1163 598.719 97.1816 598.462 97.3122C598.21 97.4429 597.991 97.623 597.807 97.8528C597.627 98.0825 597.485 98.346 597.381 98.6433C597.282 98.9361 597.232 99.2469 597.232 99.5757ZM611.672 102.258V98.4947C611.672 98.2064 611.613 97.9564 611.496 97.7447C611.383 97.5284 611.212 97.3618 610.982 97.2447C610.753 97.1275 610.469 97.069 610.131 97.069C609.816 97.069 609.539 97.123 609.3 97.2312C609.066 97.3393 608.881 97.4812 608.746 97.6568C608.615 97.8325 608.55 98.0217 608.55 98.2244H607.3C607.3 97.9631 607.368 97.7041 607.503 97.4474C607.638 97.1906 607.832 96.9586 608.084 96.7514C608.341 96.5397 608.647 96.373 609.003 96.2514C609.363 96.1253 609.764 96.0622 610.205 96.0622C610.737 96.0622 611.205 96.1523 611.611 96.3325C612.021 96.5127 612.341 96.7852 612.57 97.1501C612.805 97.5104 612.922 97.9631 612.922 98.5082V101.914C612.922 102.157 612.942 102.416 612.982 102.691C613.027 102.965 613.093 103.202 613.178 103.4V103.508H611.874C611.811 103.364 611.762 103.173 611.726 102.934C611.69 102.691 611.672 102.465 611.672 102.258ZM611.888 99.0757L611.901 99.9541H610.638C610.282 99.9541 609.964 99.9834 609.685 100.042C609.406 100.096 609.172 100.179 608.982 100.292C608.793 100.405 608.649 100.546 608.55 100.718C608.451 100.884 608.401 101.08 608.401 101.305C608.401 101.535 608.453 101.745 608.557 101.934C608.66 102.123 608.816 102.274 609.023 102.387C609.235 102.495 609.494 102.549 609.8 102.549C610.183 102.549 610.521 102.468 610.814 102.305C611.106 102.143 611.338 101.945 611.509 101.711C611.685 101.477 611.78 101.249 611.793 101.028L612.327 101.63C612.296 101.819 612.21 102.028 612.07 102.258C611.931 102.488 611.744 102.709 611.509 102.92C611.28 103.128 611.005 103.301 610.685 103.441C610.37 103.576 610.014 103.643 609.618 103.643C609.122 103.643 608.687 103.546 608.314 103.353C607.944 103.159 607.656 102.9 607.449 102.576C607.246 102.247 607.145 101.88 607.145 101.474C607.145 101.083 607.221 100.738 607.374 100.441C607.527 100.139 607.748 99.8888 608.037 99.6906C608.325 99.4879 608.672 99.3348 609.077 99.2312C609.482 99.1275 609.935 99.0757 610.435 99.0757H611.888ZM616.138 97.7582V103.508H614.888V96.1974H616.07L616.138 97.7582ZM615.841 99.5757L615.32 99.5555C615.325 99.0555 615.399 98.5938 615.543 98.1703C615.687 97.7424 615.89 97.3708 616.151 97.0555C616.413 96.7402 616.723 96.4969 617.084 96.3257C617.449 96.1501 617.852 96.0622 618.293 96.0622C618.654 96.0622 618.978 96.1118 619.266 96.2109C619.555 96.3055 619.8 96.4586 620.003 96.6703C620.21 96.8821 620.368 97.1568 620.476 97.4947C620.584 97.828 620.638 98.2357 620.638 98.7176V103.508H619.381V98.7041C619.381 98.3212 619.325 98.0149 619.212 97.7852C619.1 97.551 618.935 97.3821 618.719 97.2784C618.503 97.1703 618.237 97.1163 617.922 97.1163C617.611 97.1163 617.327 97.1816 617.07 97.3122C616.818 97.4429 616.6 97.623 616.415 97.8528C616.235 98.0825 616.093 98.346 615.989 98.6433C615.89 98.9361 615.841 99.2469 615.841 99.5757ZM627.145 102.089V93.1298H628.401V103.508H627.253L627.145 102.089ZM622.226 99.9339V99.792C622.226 99.2334 622.293 98.7266 622.428 98.2717C622.568 97.8122 622.764 97.4181 623.016 97.0893C623.273 96.7604 623.577 96.5082 623.928 96.3325C624.284 96.1523 624.681 96.0622 625.118 96.0622C625.577 96.0622 625.978 96.1433 626.32 96.3055C626.667 96.4631 626.96 96.6951 627.199 97.0014C627.442 97.3032 627.633 97.6681 627.773 98.096C627.913 98.5239 628.009 99.0082 628.064 99.5487V100.17C628.014 100.706 627.917 101.188 627.773 101.616C627.633 102.044 627.442 102.409 627.199 102.711C626.96 103.013 626.667 103.245 626.32 103.407C625.973 103.564 625.568 103.643 625.104 103.643C624.676 103.643 624.284 103.551 623.928 103.366C623.577 103.182 623.273 102.923 623.016 102.589C622.764 102.256 622.568 101.864 622.428 101.414C622.293 100.959 622.226 100.465 622.226 99.9339ZM623.482 99.792V99.9339C623.482 100.299 623.518 100.641 623.591 100.961C623.667 101.281 623.784 101.562 623.942 101.805C624.1 102.049 624.3 102.24 624.543 102.38C624.787 102.515 625.077 102.583 625.415 102.583C625.829 102.583 626.169 102.495 626.435 102.319C626.705 102.143 626.922 101.911 627.084 101.623C627.246 101.335 627.372 101.022 627.462 100.684V99.0555C627.408 98.8077 627.329 98.569 627.226 98.3393C627.127 98.105 626.996 97.8978 626.834 97.7176C626.676 97.533 626.48 97.3866 626.246 97.2784C626.016 97.1703 625.744 97.1163 625.428 97.1163C625.086 97.1163 624.791 97.1884 624.543 97.3325C624.3 97.4721 624.1 97.6658 623.942 97.9136C623.784 98.1568 623.667 98.4406 623.591 98.7649C623.518 99.0848 623.482 99.4271 623.482 99.792ZM635.138 93.1298V103.508H633.881V93.1298H635.138ZM640.178 103.643C639.669 103.643 639.208 103.558 638.793 103.387C638.383 103.211 638.03 102.965 637.732 102.65C637.44 102.335 637.214 101.961 637.057 101.528C636.899 101.096 636.82 100.623 636.82 100.11V99.8257C636.82 99.2312 636.908 98.7019 637.084 98.2379C637.259 97.7694 637.498 97.373 637.8 97.0487C638.102 96.7244 638.444 96.4789 638.827 96.3122C639.21 96.1456 639.606 96.0622 640.016 96.0622C640.539 96.0622 640.989 96.1523 641.368 96.3325C641.75 96.5127 642.064 96.7649 642.307 97.0893C642.55 97.4091 642.73 97.7875 642.847 98.2244C642.964 98.6568 643.023 99.1298 643.023 99.6433V100.204H637.564V99.1839H641.773V99.0893C641.755 98.7649 641.687 98.4496 641.57 98.1433C641.458 97.837 641.277 97.5848 641.03 97.3866C640.782 97.1884 640.444 97.0893 640.016 97.0893C639.732 97.0893 639.471 97.1501 639.232 97.2717C638.994 97.3888 638.789 97.5645 638.618 97.7987C638.446 98.033 638.314 98.319 638.219 98.6568C638.124 98.9947 638.077 99.3843 638.077 99.8257V100.11C638.077 100.456 638.124 100.783 638.219 101.089C638.318 101.391 638.46 101.657 638.645 101.887C638.834 102.116 639.061 102.296 639.327 102.427C639.597 102.558 639.904 102.623 640.246 102.623C640.687 102.623 641.061 102.533 641.368 102.353C641.674 102.173 641.942 101.932 642.172 101.63L642.928 102.231C642.771 102.47 642.57 102.697 642.327 102.914C642.084 103.13 641.784 103.305 641.428 103.441C641.077 103.576 640.66 103.643 640.178 103.643ZM647.543 96.1974V97.1568H643.591V96.1974H647.543ZM644.928 94.4203H646.178V101.697C646.178 101.945 646.217 102.132 646.293 102.258C646.37 102.384 646.469 102.468 646.591 102.508C646.712 102.549 646.843 102.569 646.982 102.569C647.086 102.569 647.194 102.56 647.307 102.542C647.424 102.519 647.512 102.501 647.57 102.488L647.577 103.508C647.478 103.54 647.347 103.569 647.185 103.596C647.028 103.628 646.836 103.643 646.611 103.643C646.305 103.643 646.023 103.583 645.766 103.461C645.509 103.339 645.305 103.137 645.151 102.853C645.003 102.564 644.928 102.177 644.928 101.691V94.4203ZM650.273 93.1298V93.9947C650.273 94.2649 650.226 94.551 650.131 94.8528C650.041 95.1501 649.908 95.4384 649.732 95.7176C649.557 95.9924 649.345 96.2334 649.097 96.4406L648.381 95.9474C648.593 95.6501 648.753 95.346 648.861 95.0352C648.973 94.7199 649.03 94.3798 649.03 94.0149V93.1298H650.273ZM655.28 101.569C655.28 101.389 655.239 101.222 655.158 101.069C655.082 100.911 654.922 100.769 654.678 100.643C654.44 100.513 654.079 100.4 653.597 100.305C653.192 100.22 652.825 100.119 652.496 100.001C652.172 99.8843 651.895 99.7424 651.665 99.5757C651.44 99.4091 651.266 99.2131 651.145 98.9879C651.023 98.7627 650.962 98.4992 650.962 98.1974C650.962 97.9091 651.025 97.6366 651.151 97.3798C651.282 97.123 651.464 96.8956 651.699 96.6974C651.937 96.4992 652.223 96.3438 652.557 96.2312C652.89 96.1185 653.262 96.0622 653.672 96.0622C654.257 96.0622 654.757 96.1658 655.172 96.373C655.586 96.5803 655.904 96.8573 656.124 97.2041C656.345 97.5465 656.455 97.9271 656.455 98.346H655.205C655.205 98.1433 655.145 97.9474 655.023 97.7582C654.906 97.5645 654.732 97.4046 654.503 97.2784C654.277 97.1523 654 97.0893 653.672 97.0893C653.325 97.0893 653.043 97.1433 652.827 97.2514C652.615 97.355 652.46 97.4879 652.361 97.6501C652.266 97.8122 652.219 97.9834 652.219 98.1636C652.219 98.2987 652.241 98.4203 652.286 98.5284C652.336 98.6321 652.422 98.7289 652.543 98.819C652.665 98.9046 652.836 98.9857 653.057 99.0622C653.277 99.1388 653.559 99.2154 653.901 99.292C654.5 99.4271 654.994 99.5893 655.381 99.7784C655.768 99.9676 656.057 100.2 656.246 100.474C656.435 100.749 656.53 101.083 656.53 101.474C656.53 101.794 656.462 102.087 656.327 102.353C656.196 102.619 656.005 102.848 655.753 103.042C655.505 103.231 655.208 103.38 654.861 103.488C654.518 103.592 654.133 103.643 653.705 103.643C653.061 103.643 652.516 103.528 652.07 103.299C651.624 103.069 651.286 102.772 651.057 102.407C650.827 102.042 650.712 101.657 650.712 101.251H651.969C651.987 101.594 652.086 101.866 652.266 102.069C652.446 102.267 652.667 102.409 652.928 102.495C653.19 102.576 653.449 102.616 653.705 102.616C654.048 102.616 654.334 102.571 654.564 102.481C654.798 102.391 654.976 102.267 655.097 102.11C655.219 101.952 655.28 101.772 655.28 101.569ZM661.597 93.1298H662.854V102.089L662.746 103.508H661.597V93.1298ZM667.793 99.792V99.9339C667.793 100.465 667.73 100.959 667.604 101.414C667.478 101.864 667.293 102.256 667.05 102.589C666.807 102.923 666.509 103.182 666.158 103.366C665.807 103.551 665.404 103.643 664.949 103.643C664.485 103.643 664.077 103.564 663.726 103.407C663.379 103.245 663.086 103.013 662.847 102.711C662.609 102.409 662.417 102.044 662.273 101.616C662.133 101.188 662.037 100.706 661.982 100.17V99.5487C662.037 99.0082 662.133 98.5239 662.273 98.096C662.417 97.6681 662.609 97.3032 662.847 97.0014C663.086 96.6951 663.379 96.4631 663.726 96.3055C664.073 96.1433 664.476 96.0622 664.935 96.0622C665.395 96.0622 665.802 96.1523 666.158 96.3325C666.514 96.5082 666.811 96.7604 667.05 97.0893C667.293 97.4181 667.478 97.8122 667.604 98.2717C667.73 98.7266 667.793 99.2334 667.793 99.792ZM666.537 99.9339V99.792C666.537 99.4271 666.503 99.0848 666.435 98.7649C666.368 98.4406 666.259 98.1568 666.111 97.9136C665.962 97.6658 665.766 97.4721 665.523 97.3325C665.28 97.1884 664.98 97.1163 664.624 97.1163C664.309 97.1163 664.034 97.1703 663.8 97.2784C663.57 97.3866 663.374 97.533 663.212 97.7176C663.05 97.8978 662.917 98.105 662.814 98.3393C662.714 98.569 662.64 98.8077 662.591 99.0555V100.684C662.663 100.999 662.78 101.303 662.942 101.596C663.109 101.884 663.329 102.121 663.604 102.305C663.883 102.49 664.228 102.583 664.638 102.583C664.976 102.583 665.264 102.515 665.503 102.38C665.746 102.24 665.942 102.049 666.091 101.805C666.244 101.562 666.356 101.281 666.428 100.961C666.5 100.641 666.537 100.299 666.537 99.9339ZM673.847 101.819V96.1974H675.104V103.508H673.908L673.847 101.819ZM674.084 100.278L674.604 100.265C674.604 100.751 674.552 101.202 674.449 101.616C674.35 102.026 674.187 102.382 673.962 102.684C673.737 102.986 673.442 103.222 673.077 103.393C672.712 103.56 672.268 103.643 671.746 103.643C671.39 103.643 671.064 103.592 670.766 103.488C670.473 103.384 670.221 103.224 670.009 103.008C669.798 102.792 669.633 102.51 669.516 102.164C669.404 101.817 669.347 101.4 669.347 100.914V96.1974H670.597V100.927C670.597 101.256 670.633 101.528 670.705 101.745C670.782 101.956 670.883 102.125 671.009 102.251C671.14 102.373 671.284 102.459 671.442 102.508C671.604 102.558 671.771 102.583 671.942 102.583C672.473 102.583 672.895 102.481 673.205 102.278C673.516 102.071 673.739 101.794 673.874 101.447C674.014 101.096 674.084 100.706 674.084 100.278ZM678.368 96.1974V103.508H677.111V96.1974H678.368ZM677.016 94.2582C677.016 94.0555 677.077 93.8843 677.199 93.7447C677.325 93.605 677.509 93.5352 677.753 93.5352C677.991 93.5352 678.174 93.605 678.3 93.7447C678.431 93.8843 678.496 94.0555 678.496 94.2582C678.496 94.4519 678.431 94.6185 678.3 94.7582C678.174 94.8933 677.991 94.9609 677.753 94.9609C677.509 94.9609 677.325 94.8933 677.199 94.7582C677.077 94.6185 677.016 94.4519 677.016 94.2582ZM681.732 93.1298V103.508H680.476V93.1298H681.732ZM688.347 102.089V93.1298H689.604V103.508H688.455L688.347 102.089ZM683.428 99.9339V99.792C683.428 99.2334 683.496 98.7266 683.631 98.2717C683.771 97.8122 683.967 97.4181 684.219 97.0893C684.476 96.7604 684.78 96.5082 685.131 96.3325C685.487 96.1523 685.883 96.0622 686.32 96.0622C686.78 96.0622 687.181 96.1433 687.523 96.3055C687.87 96.4631 688.163 96.6951 688.401 97.0014C688.645 97.3032 688.836 97.6681 688.976 98.096C689.115 98.5239 689.212 99.0082 689.266 99.5487V100.17C689.217 100.706 689.12 101.188 688.976 101.616C688.836 102.044 688.645 102.409 688.401 102.711C688.163 103.013 687.87 103.245 687.523 103.407C687.176 103.564 686.771 103.643 686.307 103.643C685.879 103.643 685.487 103.551 685.131 103.366C684.78 103.182 684.476 102.923 684.219 102.589C683.967 102.256 683.771 101.864 683.631 101.414C683.496 100.959 683.428 100.465 683.428 99.9339ZM684.685 99.792V99.9339C684.685 100.299 684.721 100.641 684.793 100.961C684.87 101.281 684.987 101.562 685.145 101.805C685.302 102.049 685.503 102.24 685.746 102.38C685.989 102.515 686.28 102.583 686.618 102.583C687.032 102.583 687.372 102.495 687.638 102.319C687.908 102.143 688.124 101.911 688.286 101.623C688.449 101.335 688.575 101.022 688.665 100.684V99.0555C688.611 98.8077 688.532 98.569 688.428 98.3393C688.329 98.105 688.199 97.8978 688.036 97.7176C687.879 97.533 687.683 97.3866 687.449 97.2784C687.219 97.1703 686.946 97.1163 686.631 97.1163C686.289 97.1163 685.994 97.1884 685.746 97.3325C685.503 97.4721 685.302 97.6658 685.145 97.9136C684.987 98.1568 684.87 98.4406 684.793 98.7649C684.721 99.0848 684.685 99.4271 684.685 99.792ZM698.043 96.1974V97.1568H694.091V96.1974H698.043ZM695.428 94.4203H696.678V101.697C696.678 101.945 696.717 102.132 696.793 102.258C696.87 102.384 696.969 102.468 697.091 102.508C697.212 102.549 697.343 102.569 697.482 102.569C697.586 102.569 697.694 102.56 697.807 102.542C697.924 102.519 698.012 102.501 698.07 102.488L698.077 103.508C697.978 103.54 697.847 103.569 697.685 103.596C697.528 103.628 697.336 103.643 697.111 103.643C696.805 103.643 696.523 103.583 696.266 103.461C696.009 103.339 695.805 103.137 695.651 102.853C695.503 102.564 695.428 102.177 695.428 101.691V94.4203ZM699.043 99.9339V99.7784C699.043 99.2514 699.12 98.7627 699.273 98.3122C699.426 97.8573 699.647 97.4631 699.935 97.1298C700.223 96.792 700.573 96.5307 700.982 96.346C701.392 96.1568 701.852 96.0622 702.361 96.0622C702.874 96.0622 703.336 96.1568 703.746 96.346C704.16 96.5307 704.512 96.792 704.8 97.1298C705.093 97.4631 705.316 97.8573 705.469 98.3122C705.622 98.7627 705.699 99.2514 705.699 99.7784V99.9339C705.699 100.461 705.622 100.95 705.469 101.4C705.316 101.851 705.093 102.245 704.8 102.583C704.512 102.916 704.163 103.177 703.753 103.366C703.347 103.551 702.888 103.643 702.374 103.643C701.861 103.643 701.399 103.551 700.989 103.366C700.579 103.177 700.228 102.916 699.935 102.583C699.647 102.245 699.426 101.851 699.273 101.4C699.12 100.95 699.043 100.461 699.043 99.9339ZM700.293 99.7784V99.9339C700.293 100.299 700.336 100.643 700.422 100.968C700.507 101.287 700.636 101.571 700.807 101.819C700.982 102.067 701.201 102.263 701.462 102.407C701.723 102.546 702.027 102.616 702.374 102.616C702.717 102.616 703.016 102.546 703.273 102.407C703.534 102.263 703.75 102.067 703.922 101.819C704.093 101.571 704.221 101.287 704.307 100.968C704.397 100.643 704.442 100.299 704.442 99.9339V99.7784C704.442 99.4181 704.397 99.078 704.307 98.7582C704.221 98.4339 704.091 98.1478 703.915 97.9001C703.744 97.6478 703.527 97.4496 703.266 97.3055C703.009 97.1613 702.708 97.0893 702.361 97.0893C702.018 97.0893 701.717 97.1613 701.455 97.3055C701.199 97.4496 700.982 97.6478 700.807 97.9001C700.636 98.1478 700.507 98.4339 700.422 98.7582C700.336 99.078 700.293 99.4181 700.293 99.7784ZM712.003 96.1974H713.138V103.353C713.138 103.997 713.007 104.546 712.746 105.001C712.485 105.456 712.12 105.801 711.651 106.035C711.187 106.274 710.651 106.393 710.043 106.393C709.791 106.393 709.494 106.353 709.151 106.272C708.814 106.195 708.48 106.062 708.151 105.873C707.827 105.688 707.555 105.438 707.334 105.123L707.989 104.38C708.296 104.749 708.615 105.006 708.949 105.15C709.287 105.294 709.62 105.366 709.949 105.366C710.345 105.366 710.687 105.292 710.976 105.143C711.264 104.995 711.487 104.774 711.645 104.481C711.807 104.193 711.888 103.837 711.888 103.414V97.8055L712.003 96.1974ZM706.969 99.9339V99.792C706.969 99.2334 707.034 98.7266 707.165 98.2717C707.3 97.8122 707.491 97.4181 707.739 97.0893C707.991 96.7604 708.296 96.5082 708.651 96.3325C709.007 96.1523 709.408 96.0622 709.854 96.0622C710.314 96.0622 710.714 96.1433 711.057 96.3055C711.404 96.4631 711.696 96.6951 711.935 97.0014C712.178 97.3032 712.37 97.6681 712.509 98.096C712.649 98.5239 712.746 99.0082 712.8 99.5487V100.17C712.75 100.706 712.654 101.188 712.509 101.616C712.37 102.044 712.178 102.409 711.935 102.711C711.696 103.013 711.404 103.245 711.057 103.407C710.71 103.564 710.305 103.643 709.841 103.643C709.404 103.643 709.007 103.551 708.651 103.366C708.3 103.182 707.998 102.923 707.746 102.589C707.494 102.256 707.3 101.864 707.165 101.414C707.034 100.959 706.969 100.465 706.969 99.9339ZM708.219 99.792V99.9339C708.219 100.299 708.255 100.641 708.327 100.961C708.404 101.281 708.518 101.562 708.672 101.805C708.829 102.049 709.03 102.24 709.273 102.38C709.516 102.515 709.807 102.583 710.145 102.583C710.559 102.583 710.901 102.495 711.172 102.319C711.442 102.143 711.656 101.911 711.814 101.623C711.976 101.335 712.102 101.022 712.192 100.684V99.0555C712.142 98.8077 712.066 98.569 711.962 98.3393C711.863 98.105 711.732 97.8978 711.57 97.7176C711.413 97.533 711.217 97.3866 710.982 97.2784C710.748 97.1703 710.473 97.1163 710.158 97.1163C709.816 97.1163 709.521 97.1884 709.273 97.3325C709.03 97.4721 708.829 97.6658 708.672 97.9136C708.518 98.1568 708.404 98.4406 708.327 98.7649C708.255 99.0848 708.219 99.4271 708.219 99.792ZM718.07 103.643C717.561 103.643 717.1 103.558 716.685 103.387C716.275 103.211 715.922 102.965 715.624 102.65C715.332 102.335 715.106 101.961 714.949 101.528C714.791 101.096 714.712 100.623 714.712 100.11V99.8257C714.712 99.2312 714.8 98.7019 714.976 98.2379C715.151 97.7694 715.39 97.373 715.692 97.0487C715.994 96.7244 716.336 96.4789 716.719 96.3122C717.102 96.1456 717.498 96.0622 717.908 96.0622C718.431 96.0622 718.881 96.1523 719.259 96.3325C719.642 96.5127 719.955 96.7649 720.199 97.0893C720.442 97.4091 720.622 97.7875 720.739 98.2244C720.856 98.6568 720.915 99.1298 720.915 99.6433V100.204H715.455V99.1839H719.665V99.0893C719.647 98.7649 719.579 98.4496 719.462 98.1433C719.35 97.837 719.169 97.5848 718.922 97.3866C718.674 97.1884 718.336 97.0893 717.908 97.0893C717.624 97.0893 717.363 97.1501 717.124 97.2717C716.886 97.3888 716.681 97.5645 716.509 97.7987C716.338 98.033 716.205 98.319 716.111 98.6568C716.016 98.9947 715.969 99.3843 715.969 99.8257V100.11C715.969 100.456 716.016 100.783 716.111 101.089C716.21 101.391 716.352 101.657 716.537 101.887C716.726 102.116 716.953 102.296 717.219 102.427C717.489 102.558 717.796 102.623 718.138 102.623C718.579 102.623 718.953 102.533 719.259 102.353C719.566 102.173 719.834 101.932 720.064 101.63L720.82 102.231C720.663 102.47 720.462 102.697 720.219 102.914C719.976 103.13 719.676 103.305 719.32 103.441C718.969 103.576 718.552 103.643 718.07 103.643ZM725.435 96.1974V97.1568H721.482V96.1974H725.435ZM722.82 94.4203H724.07V101.697C724.07 101.945 724.109 102.132 724.185 102.258C724.262 102.384 724.361 102.468 724.482 102.508C724.604 102.549 724.735 102.569 724.874 102.569C724.978 102.569 725.086 102.56 725.199 102.542C725.316 102.519 725.404 102.501 725.462 102.488L725.469 103.508C725.37 103.54 725.239 103.569 725.077 103.596C724.919 103.628 724.728 103.643 724.503 103.643C724.196 103.643 723.915 103.583 723.658 103.461C723.401 103.339 723.196 103.137 723.043 102.853C722.895 102.564 722.82 102.177 722.82 101.691V94.4203ZM728.151 93.1298V103.508H726.901V93.1298H728.151ZM727.854 99.5757L727.334 99.5555C727.338 99.0555 727.413 98.5938 727.557 98.1703C727.701 97.7424 727.904 97.3708 728.165 97.0555C728.426 96.7402 728.737 96.4969 729.097 96.3257C729.462 96.1501 729.865 96.0622 730.307 96.0622C730.667 96.0622 730.991 96.1118 731.28 96.2109C731.568 96.3055 731.814 96.4586 732.016 96.6703C732.223 96.8821 732.381 97.1568 732.489 97.4947C732.597 97.828 732.651 98.2357 732.651 98.7176V103.508H731.395V98.7041C731.395 98.3212 731.338 98.0149 731.226 97.7852C731.113 97.551 730.949 97.3821 730.732 97.2784C730.516 97.1703 730.25 97.1163 729.935 97.1163C729.624 97.1163 729.341 97.1816 729.084 97.3122C728.832 97.4429 728.613 97.623 728.428 97.8528C728.248 98.0825 728.106 98.346 728.003 98.6433C727.904 98.9361 727.854 99.2469 727.854 99.5757ZM737.557 103.643C737.048 103.643 736.586 103.558 736.172 103.387C735.762 103.211 735.408 102.965 735.111 102.65C734.818 102.335 734.593 101.961 734.435 101.528C734.277 101.096 734.199 100.623 734.199 100.11V99.8257C734.199 99.2312 734.286 98.7019 734.462 98.2379C734.638 97.7694 734.877 97.373 735.178 97.0487C735.48 96.7244 735.823 96.4789 736.205 96.3122C736.588 96.1456 736.985 96.0622 737.395 96.0622C737.917 96.0622 738.368 96.1523 738.746 96.3325C739.129 96.5127 739.442 96.7649 739.685 97.0893C739.928 97.4091 740.109 97.7875 740.226 98.2244C740.343 98.6568 740.401 99.1298 740.401 99.6433V100.204H734.942V99.1839H739.151V99.0893C739.133 98.7649 739.066 98.4496 738.949 98.1433C738.836 97.837 738.656 97.5848 738.408 97.3866C738.16 97.1884 737.823 97.0893 737.395 97.0893C737.111 97.0893 736.85 97.1501 736.611 97.2717C736.372 97.3888 736.167 97.5645 735.996 97.7987C735.825 98.033 735.692 98.319 735.597 98.6568C735.503 98.9947 735.455 99.3843 735.455 99.8257V100.11C735.455 100.456 735.503 100.783 735.597 101.089C735.696 101.391 735.838 101.657 736.023 101.887C736.212 102.116 736.44 102.296 736.705 102.427C736.976 102.558 737.282 102.623 737.624 102.623C738.066 102.623 738.44 102.533 738.746 102.353C739.052 102.173 739.32 101.932 739.55 101.63L740.307 102.231C740.149 102.47 739.949 102.697 739.705 102.914C739.462 103.13 739.163 103.305 738.807 103.441C738.455 103.576 738.039 103.643 737.557 103.643ZM743.111 97.346V103.508H741.861V96.1974H743.077L743.111 97.346ZM745.395 96.1568L745.388 97.319C745.284 97.2965 745.185 97.283 745.091 97.2784C745 97.2694 744.897 97.2649 744.78 97.2649C744.491 97.2649 744.237 97.31 744.016 97.4001C743.795 97.4902 743.609 97.6163 743.455 97.7784C743.302 97.9406 743.181 98.1343 743.091 98.3595C743.005 98.5803 742.949 98.8235 742.922 99.0893L742.57 99.292C742.57 98.8505 742.613 98.4361 742.699 98.0487C742.789 97.6613 742.926 97.319 743.111 97.0217C743.295 96.7199 743.53 96.4857 743.814 96.319C744.102 96.1478 744.444 96.0622 744.841 96.0622C744.931 96.0622 745.034 96.0735 745.151 96.096C745.268 96.114 745.35 96.1343 745.395 96.1568ZM745.732 102.846C745.732 102.634 745.798 102.456 745.928 102.312C746.064 102.164 746.257 102.089 746.509 102.089C746.762 102.089 746.953 102.164 747.084 102.312C747.219 102.456 747.286 102.634 747.286 102.846C747.286 103.053 747.219 103.229 747.084 103.373C746.953 103.517 746.762 103.589 746.509 103.589C746.257 103.589 746.064 103.517 745.928 103.373C745.798 103.229 745.732 103.053 745.732 102.846Z" fill="black"/>
</svg>
