<svg width="441" height="167" viewBox="0 0 441 167" fill="none" xmlns="http://www.w3.org/2000/svg">
<rect x="439.4" y="11.3242" width="154.292" height="416.519" rx="7.61081" transform="rotate(90 439.4 11.3242)" fill="#FFFFFF" stroke="#F1D1E5" stroke-width="1.38378"/>
<rect x="427.638" y="1.63794" width="154.292" height="426.205" rx="7.61081" transform="rotate(90 427.638 1.63794)" fill="#FFFFFF" stroke="#F1D1E5" stroke-width="1.38378"/>
<path d="M178.746 93.1448V94.2056H173.827V93.1448H178.746ZM174.084 84.3677V94.2056H172.78V84.3677H174.084ZM183.084 94.3407C182.575 94.3407 182.113 94.2551 181.699 94.0839C181.289 93.9083 180.935 93.6628 180.638 93.3475C180.345 93.0321 180.12 92.6583 179.962 92.2258C179.804 91.7934 179.726 91.3204 179.726 90.8069V90.5231C179.726 89.9285 179.813 89.3993 179.989 88.9353C180.165 88.4668 180.404 88.0704 180.705 87.7461C181.007 87.4218 181.35 87.1763 181.732 87.0096C182.115 86.843 182.512 86.7596 182.922 86.7596C183.444 86.7596 183.895 86.8497 184.273 87.0299C184.656 87.2101 184.969 87.4623 185.212 87.7866C185.455 88.1065 185.636 88.4848 185.753 88.9218C185.87 89.3542 185.928 89.8272 185.928 90.3407V90.9015H180.469V89.8812H184.678V89.7866C184.66 89.4623 184.593 89.147 184.476 88.8407C184.363 88.5344 184.183 88.2821 183.935 88.0839C183.687 87.8857 183.35 87.7866 182.922 87.7866C182.638 87.7866 182.377 87.8475 182.138 87.9691C181.899 88.0862 181.694 88.2619 181.523 88.4961C181.352 88.7303 181.219 89.0164 181.124 89.3542C181.03 89.6921 180.982 90.0817 180.982 90.5231V90.8069C180.982 91.1538 181.03 91.4803 181.124 91.7866C181.223 92.0884 181.365 92.3542 181.55 92.5839C181.739 92.8137 181.967 92.9939 182.232 93.1245C182.503 93.2551 182.809 93.3204 183.151 93.3204C183.593 93.3204 183.967 93.2303 184.273 93.0502C184.579 92.87 184.847 92.629 185.077 92.3272L185.834 92.9285C185.676 93.1673 185.476 93.3948 185.232 93.611C184.989 93.8272 184.69 94.0029 184.334 94.138C183.982 94.2731 183.566 94.3407 183.084 94.3407ZM191.699 92.9556V89.1921C191.699 88.9038 191.64 88.6538 191.523 88.4421C191.41 88.2258 191.239 88.0592 191.009 87.9421C190.78 87.8249 190.496 87.7664 190.158 87.7664C189.843 87.7664 189.566 87.8204 189.327 87.9285C189.093 88.0366 188.908 88.1785 188.773 88.3542C188.642 88.5299 188.577 88.7191 188.577 88.9218H187.327C187.327 88.6605 187.395 88.4015 187.53 88.1448C187.665 87.888 187.859 87.656 188.111 87.4488C188.368 87.2371 188.674 87.0704 189.03 86.9488C189.39 86.8227 189.791 86.7596 190.232 86.7596C190.764 86.7596 191.232 86.8497 191.638 87.0299C192.048 87.2101 192.368 87.4826 192.597 87.8475C192.832 88.2078 192.949 88.6605 192.949 89.2056V92.611C192.949 92.8542 192.969 93.1132 193.009 93.388C193.054 93.6628 193.12 93.8993 193.205 94.0975V94.2056H191.901C191.838 94.0614 191.789 93.87 191.753 93.6312C191.717 93.388 191.699 93.1628 191.699 92.9556ZM191.915 89.7731L191.928 90.6515H190.665C190.309 90.6515 189.991 90.6808 189.712 90.7394C189.433 90.7934 189.199 90.8767 189.009 90.9894C188.82 91.102 188.676 91.2439 188.577 91.415C188.478 91.5817 188.428 91.7776 188.428 92.0029C188.428 92.2326 188.48 92.4421 188.584 92.6312C188.687 92.8204 188.843 92.9713 189.05 93.0839C189.262 93.1921 189.521 93.2461 189.827 93.2461C190.21 93.2461 190.548 93.165 190.841 93.0029C191.133 92.8407 191.365 92.6425 191.536 92.4083C191.712 92.174 191.807 91.9466 191.82 91.7258L192.354 92.3272C192.323 92.5164 192.237 92.7258 192.097 92.9556C191.958 93.1853 191.771 93.406 191.536 93.6177C191.307 93.8249 191.032 93.9984 190.712 94.138C190.397 94.2731 190.041 94.3407 189.645 94.3407C189.149 94.3407 188.714 94.2439 188.341 94.0502C187.971 93.8565 187.683 93.5975 187.476 93.2731C187.273 92.9443 187.172 92.5772 187.172 92.1718C187.172 91.7799 187.248 91.4353 187.401 91.138C187.554 90.8362 187.775 90.5862 188.063 90.388C188.352 90.1853 188.699 90.0321 189.104 89.9285C189.509 89.8249 189.962 89.7731 190.462 89.7731H191.915ZM196.165 88.0434V94.2056H194.915V86.8948H196.131L196.165 88.0434ZM198.449 86.8542L198.442 88.0164C198.338 87.9939 198.239 87.9803 198.145 87.9758C198.054 87.9668 197.951 87.9623 197.834 87.9623C197.545 87.9623 197.291 88.0074 197.07 88.0975C196.85 88.1875 196.663 88.3137 196.509 88.4758C196.356 88.638 196.235 88.8317 196.145 89.0569C196.059 89.2776 196.003 89.5209 195.976 89.7866L195.624 89.9894C195.624 89.5479 195.667 89.1335 195.753 88.7461C195.843 88.3587 195.98 88.0164 196.165 87.7191C196.35 87.4173 196.584 87.183 196.868 87.0164C197.156 86.8452 197.498 86.7596 197.895 86.7596C197.985 86.7596 198.088 86.7709 198.205 86.7934C198.323 86.8114 198.404 86.8317 198.449 86.8542ZM200.854 88.4556V94.2056H199.604V86.8948H200.786L200.854 88.4556ZM200.557 90.2731L200.036 90.2529C200.041 89.7529 200.115 89.2912 200.259 88.8677C200.404 88.4398 200.606 88.0682 200.868 87.7529C201.129 87.4375 201.44 87.1943 201.8 87.0231C202.165 86.8475 202.568 86.7596 203.009 86.7596C203.37 86.7596 203.694 86.8092 203.982 86.9083C204.271 87.0029 204.516 87.156 204.719 87.3677C204.926 87.5794 205.084 87.8542 205.192 88.1921C205.3 88.5254 205.354 88.933 205.354 89.415V94.2056H204.097V89.4015C204.097 89.0186 204.041 88.7123 203.928 88.4826C203.816 88.2484 203.651 88.0794 203.435 87.9758C203.219 87.8677 202.953 87.8137 202.638 87.8137C202.327 87.8137 202.043 87.879 201.786 88.0096C201.534 88.1403 201.316 88.3204 201.131 88.5502C200.951 88.7799 200.809 89.0434 200.705 89.3407C200.606 89.6335 200.557 89.9443 200.557 90.2731ZM214.996 92.9556V89.1921C214.996 88.9038 214.937 88.6538 214.82 88.4421C214.708 88.2258 214.536 88.0592 214.307 87.9421C214.077 87.8249 213.793 87.7664 213.455 87.7664C213.14 87.7664 212.863 87.8204 212.624 87.9285C212.39 88.0366 212.205 88.1785 212.07 88.3542C211.94 88.5299 211.874 88.7191 211.874 88.9218H210.624C210.624 88.6605 210.692 88.4015 210.827 88.1448C210.962 87.888 211.156 87.656 211.408 87.4488C211.665 87.2371 211.971 87.0704 212.327 86.9488C212.687 86.8227 213.088 86.7596 213.53 86.7596C214.061 86.7596 214.53 86.8497 214.935 87.0299C215.345 87.2101 215.665 87.4826 215.895 87.8475C216.129 88.2078 216.246 88.6605 216.246 89.2056V92.611C216.246 92.8542 216.266 93.1132 216.307 93.388C216.352 93.6628 216.417 93.8993 216.503 94.0975V94.2056H215.199C215.136 94.0614 215.086 93.87 215.05 93.6312C215.014 93.388 214.996 93.1628 214.996 92.9556ZM215.212 89.7731L215.226 90.6515H213.962C213.606 90.6515 213.289 90.6808 213.009 90.7394C212.73 90.7934 212.496 90.8767 212.307 90.9894C212.118 91.102 211.973 91.2439 211.874 91.415C211.775 91.5817 211.726 91.7776 211.726 92.0029C211.726 92.2326 211.777 92.4421 211.881 92.6312C211.985 92.8204 212.14 92.9713 212.347 93.0839C212.559 93.1921 212.818 93.2461 213.124 93.2461C213.507 93.2461 213.845 93.165 214.138 93.0029C214.431 92.8407 214.663 92.6425 214.834 92.4083C215.009 92.174 215.104 91.9466 215.118 91.7258L215.651 92.3272C215.62 92.5164 215.534 92.7258 215.395 92.9556C215.255 93.1853 215.068 93.406 214.834 93.6177C214.604 93.8249 214.329 93.9984 214.009 94.138C213.694 94.2731 213.338 94.3407 212.942 94.3407C212.446 94.3407 212.012 94.2439 211.638 94.0502C211.268 93.8565 210.98 93.5975 210.773 93.2731C210.57 92.9443 210.469 92.5772 210.469 92.1718C210.469 91.7799 210.545 91.4353 210.699 91.138C210.852 90.8362 211.073 90.5862 211.361 90.388C211.649 90.1853 211.996 90.0321 212.401 89.9285C212.807 89.8249 213.259 89.7731 213.759 89.7731H215.212ZM218.205 83.8272H219.462V92.7866L219.354 94.2056H218.205V83.8272ZM224.401 90.4894V90.6312C224.401 91.1628 224.338 91.656 224.212 92.111C224.086 92.5614 223.901 92.9533 223.658 93.2866C223.415 93.62 223.118 93.879 222.766 94.0637C222.415 94.2484 222.012 94.3407 221.557 94.3407C221.093 94.3407 220.685 94.2619 220.334 94.1042C219.987 93.9421 219.694 93.7101 219.455 93.4083C219.217 93.1065 219.025 92.7416 218.881 92.3137C218.741 91.8857 218.645 91.4038 218.591 90.8677V90.2461C218.645 89.7056 218.741 89.2213 218.881 88.7934C219.025 88.3655 219.217 88.0006 219.455 87.6988C219.694 87.3925 219.987 87.1605 220.334 87.0029C220.681 86.8407 221.084 86.7596 221.543 86.7596C222.003 86.7596 222.41 86.8497 222.766 87.0299C223.122 87.2056 223.419 87.4578 223.658 87.7866C223.901 88.1155 224.086 88.5096 224.212 88.9691C224.338 89.424 224.401 89.9308 224.401 90.4894ZM223.145 90.6312V90.4894C223.145 90.1245 223.111 89.7821 223.043 89.4623C222.976 89.138 222.868 88.8542 222.719 88.611C222.57 88.3632 222.374 88.1695 222.131 88.0299C221.888 87.8857 221.588 87.8137 221.232 87.8137C220.917 87.8137 220.642 87.8677 220.408 87.9758C220.178 88.0839 219.982 88.2303 219.82 88.415C219.658 88.5952 219.525 88.8024 219.422 89.0366C219.323 89.2664 219.248 89.5051 219.199 89.7529V91.3812C219.271 91.6966 219.388 92.0006 219.55 92.2934C219.717 92.5817 219.937 92.8182 220.212 93.0029C220.491 93.1875 220.836 93.2799 221.246 93.2799C221.584 93.2799 221.872 93.2123 222.111 93.0772C222.354 92.9375 222.55 92.7461 222.699 92.5029C222.852 92.2596 222.964 91.9781 223.036 91.6583C223.109 91.3384 223.145 90.9961 223.145 90.6312ZM225.651 90.6312V90.4758C225.651 89.9488 225.728 89.4601 225.881 89.0096C226.034 88.5547 226.255 88.1605 226.543 87.8272C226.832 87.4894 227.181 87.2281 227.591 87.0434C228 86.8542 228.46 86.7596 228.969 86.7596C229.482 86.7596 229.944 86.8542 230.354 87.0434C230.768 87.2281 231.12 87.4894 231.408 87.8272C231.701 88.1605 231.924 88.5547 232.077 89.0096C232.23 89.4601 232.307 89.9488 232.307 90.4758V90.6312C232.307 91.1583 232.23 91.647 232.077 92.0975C231.924 92.5479 231.701 92.9421 231.408 93.2799C231.12 93.6132 230.771 93.8745 230.361 94.0637C229.955 94.2484 229.496 94.3407 228.982 94.3407C228.469 94.3407 228.007 94.2484 227.597 94.0637C227.187 93.8745 226.836 93.6132 226.543 93.2799C226.255 92.9421 226.034 92.5479 225.881 92.0975C225.728 91.647 225.651 91.1583 225.651 90.6312ZM226.901 90.4758V90.6312C226.901 90.9961 226.944 91.3407 227.03 91.665C227.115 91.9848 227.244 92.2686 227.415 92.5164C227.591 92.7641 227.809 92.9601 228.07 93.1042C228.332 93.2439 228.636 93.3137 228.982 93.3137C229.325 93.3137 229.624 93.2439 229.881 93.1042C230.142 92.9601 230.359 92.7641 230.53 92.5164C230.701 92.2686 230.829 91.9848 230.915 91.665C231.005 91.3407 231.05 90.9961 231.05 90.6312V90.4758C231.05 90.1155 231.005 89.7754 230.915 89.4556C230.829 89.1312 230.699 88.8452 230.523 88.5975C230.352 88.3452 230.136 88.147 229.874 88.0029C229.618 87.8587 229.316 87.7866 228.969 87.7866C228.627 87.7866 228.325 87.8587 228.063 88.0029C227.807 88.147 227.591 88.3452 227.415 88.5975C227.244 88.8452 227.115 89.1312 227.03 89.4556C226.944 89.7754 226.901 90.1155 226.901 90.4758ZM238.347 92.5164V86.8948H239.604V94.2056H238.408L238.347 92.5164ZM238.584 90.9758L239.104 90.9623C239.104 91.4488 239.052 91.8993 238.949 92.3137C238.85 92.7236 238.687 93.0794 238.462 93.3812C238.237 93.683 237.942 93.9195 237.577 94.0907C237.212 94.2574 236.768 94.3407 236.246 94.3407C235.89 94.3407 235.563 94.2889 235.266 94.1853C234.973 94.0817 234.721 93.9218 234.509 93.7056C234.298 93.4894 234.133 93.2078 234.016 92.861C233.904 92.5141 233.847 92.0975 233.847 91.611V86.8948H235.097V91.6245C235.097 91.9533 235.133 92.2258 235.205 92.4421C235.282 92.6538 235.383 92.8227 235.509 92.9488C235.64 93.0704 235.784 93.156 235.942 93.2056C236.104 93.2551 236.271 93.2799 236.442 93.2799C236.973 93.2799 237.395 93.1785 237.705 92.9758C238.016 92.7686 238.239 92.4916 238.374 92.1448C238.514 91.7934 238.584 91.4038 238.584 90.9758ZM244.57 86.8948V87.8542H240.618V86.8948H244.57ZM241.955 85.1177H243.205V92.3948C243.205 92.6425 243.244 92.8294 243.32 92.9556C243.397 93.0817 243.496 93.165 243.618 93.2056C243.739 93.2461 243.87 93.2664 244.009 93.2664C244.113 93.2664 244.221 93.2574 244.334 93.2394C244.451 93.2168 244.539 93.1988 244.597 93.1853L244.604 94.2056C244.505 94.2371 244.374 94.2664 244.212 94.2934C244.054 94.3249 243.863 94.3407 243.638 94.3407C243.332 94.3407 243.05 94.2799 242.793 94.1583C242.536 94.0366 242.332 93.8339 242.178 93.5502C242.03 93.2619 241.955 92.8745 241.955 92.388V85.1177ZM252.53 86.8948V87.8542H248.577V86.8948H252.53ZM249.915 85.1177H251.165V92.3948C251.165 92.6425 251.203 92.8294 251.28 92.9556C251.356 93.0817 251.455 93.165 251.577 93.2056C251.699 93.2461 251.829 93.2664 251.969 93.2664C252.073 93.2664 252.181 93.2574 252.293 93.2394C252.41 93.2168 252.498 93.1988 252.557 93.1853L252.563 94.2056C252.464 94.2371 252.334 94.2664 252.172 94.2934C252.014 94.3249 251.823 94.3407 251.597 94.3407C251.291 94.3407 251.009 94.2799 250.753 94.1583C250.496 94.0366 250.291 93.8339 250.138 93.5502C249.989 93.2619 249.915 92.8745 249.915 92.388V85.1177ZM255.246 83.8272V94.2056H253.996V83.8272H255.246ZM254.949 90.2731L254.428 90.2529C254.433 89.7529 254.507 89.2912 254.651 88.8677C254.795 88.4398 254.998 88.0682 255.259 87.7529C255.521 87.4375 255.832 87.1943 256.192 87.0231C256.557 86.8475 256.96 86.7596 257.401 86.7596C257.762 86.7596 258.086 86.8092 258.374 86.9083C258.663 87.0029 258.908 87.156 259.111 87.3677C259.318 87.5794 259.476 87.8542 259.584 88.1921C259.692 88.5254 259.746 88.933 259.746 89.415V94.2056H258.489V89.4015C258.489 89.0186 258.433 88.7123 258.32 88.4826C258.208 88.2484 258.043 88.0794 257.827 87.9758C257.611 87.8677 257.345 87.8137 257.03 87.8137C256.719 87.8137 256.435 87.879 256.178 88.0096C255.926 88.1403 255.708 88.3204 255.523 88.5502C255.343 88.7799 255.201 89.0434 255.097 89.3407C254.998 89.6335 254.949 89.9443 254.949 90.2731ZM264.651 94.3407C264.142 94.3407 263.681 94.2551 263.266 94.0839C262.856 93.9083 262.503 93.6628 262.205 93.3475C261.913 93.0321 261.687 92.6583 261.53 92.2258C261.372 91.7934 261.293 91.3204 261.293 90.8069V90.5231C261.293 89.9285 261.381 89.3993 261.557 88.9353C261.732 88.4668 261.971 88.0704 262.273 87.7461C262.575 87.4218 262.917 87.1763 263.3 87.0096C263.683 86.843 264.079 86.7596 264.489 86.7596C265.012 86.7596 265.462 86.8497 265.841 87.0299C266.223 87.2101 266.536 87.4623 266.78 87.7866C267.023 88.1065 267.203 88.4848 267.32 88.9218C267.437 89.3542 267.496 89.8272 267.496 90.3407V90.9015H262.036V89.8812H266.246V89.7866C266.228 89.4623 266.16 89.147 266.043 88.8407C265.931 88.5344 265.75 88.2821 265.503 88.0839C265.255 87.8857 264.917 87.7866 264.489 87.7866C264.205 87.7866 263.944 87.8475 263.705 87.9691C263.467 88.0862 263.262 88.2619 263.091 88.4961C262.919 88.7303 262.786 89.0164 262.692 89.3542C262.597 89.6921 262.55 90.0817 262.55 90.5231V90.8069C262.55 91.1538 262.597 91.4803 262.692 91.7866C262.791 92.0884 262.933 92.3542 263.118 92.5839C263.307 92.8137 263.534 92.9939 263.8 93.1245C264.07 93.2551 264.377 93.3204 264.719 93.3204C265.16 93.3204 265.534 93.2303 265.841 93.0502C266.147 92.87 266.415 92.629 266.645 92.3272L267.401 92.9285C267.244 93.1673 267.043 93.3948 266.8 93.611C266.557 93.8272 266.257 94.0029 265.901 94.138C265.55 94.2731 265.133 94.3407 264.651 94.3407ZM276.205 90.3475H273.577V89.2866H276.205C276.714 89.2866 277.127 89.2056 277.442 89.0434C277.757 88.8812 277.987 88.656 278.131 88.3677C278.28 88.0794 278.354 87.7506 278.354 87.3812C278.354 87.0434 278.28 86.7258 278.131 86.4285C277.987 86.1312 277.757 85.8925 277.442 85.7123C277.127 85.5276 276.714 85.4353 276.205 85.4353H273.881V94.2056H272.577V84.3677H276.205C276.949 84.3677 277.577 84.4961 278.091 84.7529C278.604 85.0096 278.994 85.3655 279.259 85.8204C279.525 86.2709 279.658 86.7866 279.658 87.3677C279.658 87.9984 279.525 88.5366 279.259 88.9826C278.994 89.4285 278.604 89.7686 278.091 90.0029C277.577 90.2326 276.949 90.3475 276.205 90.3475ZM285.347 92.9556V89.1921C285.347 88.9038 285.289 88.6538 285.172 88.4421C285.059 88.2258 284.888 88.0592 284.658 87.9421C284.428 87.8249 284.145 87.7664 283.807 87.7664C283.491 87.7664 283.214 87.8204 282.976 87.9285C282.741 88.0366 282.557 88.1785 282.422 88.3542C282.291 88.5299 282.226 88.7191 282.226 88.9218H280.976C280.976 88.6605 281.043 88.4015 281.178 88.1448C281.313 87.888 281.507 87.656 281.759 87.4488C282.016 87.2371 282.323 87.0704 282.678 86.9488C283.039 86.8227 283.44 86.7596 283.881 86.7596C284.413 86.7596 284.881 86.8497 285.286 87.0299C285.696 87.2101 286.016 87.4826 286.246 87.8475C286.48 88.2078 286.597 88.6605 286.597 89.2056V92.611C286.597 92.8542 286.618 93.1132 286.658 93.388C286.703 93.6628 286.768 93.8993 286.854 94.0975V94.2056H285.55C285.487 94.0614 285.437 93.87 285.401 93.6312C285.365 93.388 285.347 93.1628 285.347 92.9556ZM285.563 89.7731L285.577 90.6515H284.313C283.958 90.6515 283.64 90.6808 283.361 90.7394C283.082 90.7934 282.847 90.8767 282.658 90.9894C282.469 91.102 282.325 91.2439 282.226 91.415C282.127 91.5817 282.077 91.7776 282.077 92.0029C282.077 92.2326 282.129 92.4421 282.232 92.6312C282.336 92.8204 282.491 92.9713 282.699 93.0839C282.91 93.1921 283.169 93.2461 283.476 93.2461C283.859 93.2461 284.196 93.165 284.489 93.0029C284.782 92.8407 285.014 92.6425 285.185 92.4083C285.361 92.174 285.455 91.9466 285.469 91.7258L286.003 92.3272C285.971 92.5164 285.886 92.7258 285.746 92.9556C285.606 93.1853 285.419 93.406 285.185 93.6177C284.955 93.8249 284.681 93.9984 284.361 94.138C284.045 94.2731 283.69 94.3407 283.293 94.3407C282.798 94.3407 282.363 94.2439 281.989 94.0502C281.62 93.8565 281.332 93.5975 281.124 93.2731C280.922 92.9443 280.82 92.5772 280.82 92.1718C280.82 91.7799 280.897 91.4353 281.05 91.138C281.203 90.8362 281.424 90.5862 281.712 90.388C282 90.1853 282.347 90.0321 282.753 89.9285C283.158 89.8249 283.611 89.7731 284.111 89.7731H285.563ZM289.922 83.8272V94.2056H288.665V83.8272H289.922ZM291.597 90.6312V90.4758C291.597 89.9488 291.674 89.4601 291.827 89.0096C291.98 88.5547 292.201 88.1605 292.489 87.8272C292.777 87.4894 293.127 87.2281 293.536 87.0434C293.946 86.8542 294.406 86.7596 294.915 86.7596C295.428 86.7596 295.89 86.8542 296.3 87.0434C296.714 87.2281 297.066 87.4894 297.354 87.8272C297.647 88.1605 297.87 88.5547 298.023 89.0096C298.176 89.4601 298.253 89.9488 298.253 90.4758V90.6312C298.253 91.1583 298.176 91.647 298.023 92.0975C297.87 92.5479 297.647 92.9421 297.354 93.2799C297.066 93.6132 296.717 93.8745 296.307 94.0637C295.901 94.2484 295.442 94.3407 294.928 94.3407C294.415 94.3407 293.953 94.2484 293.543 94.0637C293.133 93.8745 292.782 93.6132 292.489 93.2799C292.201 92.9421 291.98 92.5479 291.827 92.0975C291.674 91.647 291.597 91.1583 291.597 90.6312ZM292.847 90.4758V90.6312C292.847 90.9961 292.89 91.3407 292.976 91.665C293.061 91.9848 293.19 92.2686 293.361 92.5164C293.536 92.7641 293.755 92.9601 294.016 93.1042C294.277 93.2439 294.582 93.3137 294.928 93.3137C295.271 93.3137 295.57 93.2439 295.827 93.1042C296.088 92.9601 296.304 92.7641 296.476 92.5164C296.647 92.2686 296.775 91.9848 296.861 91.665C296.951 91.3407 296.996 90.9961 296.996 90.6312V90.4758C296.996 90.1155 296.951 89.7754 296.861 89.4556C296.775 89.1312 296.645 88.8452 296.469 88.5975C296.298 88.3452 296.082 88.147 295.82 88.0029C295.563 87.8587 295.262 87.7866 294.915 87.7866C294.573 87.7866 294.271 87.8587 294.009 88.0029C293.753 88.147 293.536 88.3452 293.361 88.5975C293.19 88.8452 293.061 89.1312 292.976 89.4556C292.89 89.7754 292.847 90.1155 292.847 90.4758ZM301.063 88.3475V94.2056H299.807V86.8948H300.996L301.063 88.3475ZM300.807 90.2731L300.226 90.2529C300.23 89.7529 300.295 89.2912 300.422 88.8677C300.548 88.4398 300.735 88.0682 300.982 87.7529C301.23 87.4375 301.539 87.1943 301.908 87.0231C302.277 86.8475 302.705 86.7596 303.192 86.7596C303.534 86.7596 303.85 86.8092 304.138 86.9083C304.426 87.0029 304.676 87.1538 304.888 87.361C305.1 87.5682 305.264 87.8339 305.381 88.1583C305.498 88.4826 305.557 88.8745 305.557 89.3339V94.2056H304.307V89.3948C304.307 89.0119 304.241 88.7056 304.111 88.4758C303.985 88.2461 303.804 88.0794 303.57 87.9758C303.336 87.8677 303.061 87.8137 302.746 87.8137C302.377 87.8137 302.068 87.879 301.82 88.0096C301.573 88.1403 301.374 88.3204 301.226 88.5502C301.077 88.7799 300.969 89.0434 300.901 89.3407C300.838 89.6335 300.807 89.9443 300.807 90.2731ZM305.543 89.5839L304.705 89.8407C304.71 89.4398 304.775 89.0547 304.901 88.6853C305.032 88.3159 305.219 87.9871 305.462 87.6988C305.71 87.4105 306.014 87.183 306.374 87.0164C306.735 86.8452 307.147 86.7596 307.611 86.7596C308.003 86.7596 308.35 86.8114 308.651 86.915C308.958 87.0186 309.214 87.1785 309.422 87.3948C309.633 87.6065 309.793 87.879 309.901 88.2123C310.009 88.5457 310.063 88.9421 310.063 89.4015V94.2056H308.807V89.388C308.807 88.9781 308.741 88.6605 308.611 88.4353C308.485 88.2056 308.304 88.0457 308.07 87.9556C307.841 87.861 307.566 87.8137 307.246 87.8137C306.971 87.8137 306.728 87.861 306.516 87.9556C306.304 88.0502 306.127 88.1808 305.982 88.3475C305.838 88.5096 305.728 88.6966 305.651 88.9083C305.579 89.12 305.543 89.3452 305.543 89.5839ZM316.266 92.9556V89.1921C316.266 88.9038 316.208 88.6538 316.091 88.4421C315.978 88.2258 315.807 88.0592 315.577 87.9421C315.347 87.8249 315.063 87.7664 314.726 87.7664C314.41 87.7664 314.133 87.8204 313.895 87.9285C313.66 88.0366 313.476 88.1785 313.341 88.3542C313.21 88.5299 313.145 88.7191 313.145 88.9218H311.895C311.895 88.6605 311.962 88.4015 312.097 88.1448C312.232 87.888 312.426 87.656 312.678 87.4488C312.935 87.2371 313.241 87.0704 313.597 86.9488C313.958 86.8227 314.359 86.7596 314.8 86.7596C315.332 86.7596 315.8 86.8497 316.205 87.0299C316.615 87.2101 316.935 87.4826 317.165 87.8475C317.399 88.2078 317.516 88.6605 317.516 89.2056V92.611C317.516 92.8542 317.536 93.1132 317.577 93.388C317.622 93.6628 317.687 93.8993 317.773 94.0975V94.2056H316.469C316.406 94.0614 316.356 93.87 316.32 93.6312C316.284 93.388 316.266 93.1628 316.266 92.9556ZM316.482 89.7731L316.496 90.6515H315.232C314.877 90.6515 314.559 90.6808 314.28 90.7394C314 90.7934 313.766 90.8767 313.577 90.9894C313.388 91.102 313.244 91.2439 313.145 91.415C313.045 91.5817 312.996 91.7776 312.996 92.0029C312.996 92.2326 313.048 92.4421 313.151 92.6312C313.255 92.8204 313.41 92.9713 313.618 93.0839C313.829 93.1921 314.088 93.2461 314.395 93.2461C314.777 93.2461 315.115 93.165 315.408 93.0029C315.701 92.8407 315.933 92.6425 316.104 92.4083C316.28 92.174 316.374 91.9466 316.388 91.7258L316.922 92.3272C316.89 92.5164 316.804 92.7258 316.665 92.9556C316.525 93.1853 316.338 93.406 316.104 93.6177C315.874 93.8249 315.6 93.9984 315.28 94.138C314.964 94.2731 314.609 94.3407 314.212 94.3407C313.717 94.3407 313.282 94.2439 312.908 94.0502C312.539 93.8565 312.25 93.5975 312.043 93.2731C311.841 92.9443 311.739 92.5772 311.739 92.1718C311.739 91.7799 311.816 91.4353 311.969 91.138C312.122 90.8362 312.343 90.5862 312.631 90.388C312.919 90.1853 313.266 90.0321 313.672 89.9285C314.077 89.8249 314.53 89.7731 315.03 89.7731H316.482ZM325.766 94.2056H323.712L323.726 93.1448H325.766C326.469 93.1448 327.054 92.9984 327.523 92.7056C327.991 92.4083 328.343 91.9939 328.577 91.4623C328.816 90.9263 328.935 90.3002 328.935 89.5839V88.9826C328.935 88.4195 328.868 87.9195 328.732 87.4826C328.597 87.0412 328.399 86.6695 328.138 86.3677C327.877 86.0614 327.557 85.8294 327.178 85.6718C326.804 85.5141 326.374 85.4353 325.888 85.4353H323.672V84.3677H325.888C326.532 84.3677 327.12 84.4758 327.651 84.6921C328.183 84.9038 328.64 85.2123 329.023 85.6177C329.41 86.0186 329.708 86.5051 329.915 87.0772C330.122 87.6448 330.226 88.2844 330.226 88.9961V89.5839C330.226 90.2957 330.122 90.9375 329.915 91.5096C329.708 92.0772 329.408 92.5614 329.016 92.9623C328.629 93.3632 328.16 93.6718 327.611 93.888C327.066 94.0997 326.451 94.2056 325.766 94.2056ZM324.408 84.3677V94.2056H323.104V84.3677H324.408ZM336.307 92.9556V89.1921C336.307 88.9038 336.248 88.6538 336.131 88.4421C336.018 88.2258 335.847 88.0592 335.618 87.9421C335.388 87.8249 335.104 87.7664 334.766 87.7664C334.451 87.7664 334.174 87.8204 333.935 87.9285C333.701 88.0366 333.516 88.1785 333.381 88.3542C333.25 88.5299 333.185 88.7191 333.185 88.9218H331.935C331.935 88.6605 332.003 88.4015 332.138 88.1448C332.273 87.888 332.467 87.656 332.719 87.4488C332.976 87.2371 333.282 87.0704 333.638 86.9488C333.998 86.8227 334.399 86.7596 334.841 86.7596C335.372 86.7596 335.841 86.8497 336.246 87.0299C336.656 87.2101 336.976 87.4826 337.205 87.8475C337.44 88.2078 337.557 88.6605 337.557 89.2056V92.611C337.557 92.8542 337.577 93.1132 337.618 93.388C337.663 93.6628 337.728 93.8993 337.813 94.0975V94.2056H336.509C336.446 94.0614 336.397 93.87 336.361 93.6312C336.325 93.388 336.307 93.1628 336.307 92.9556ZM336.523 89.7731L336.536 90.6515H335.273C334.917 90.6515 334.6 90.6808 334.32 90.7394C334.041 90.7934 333.807 90.8767 333.618 90.9894C333.428 91.102 333.284 91.2439 333.185 91.415C333.086 91.5817 333.036 91.7776 333.036 92.0029C333.036 92.2326 333.088 92.4421 333.192 92.6312C333.295 92.8204 333.451 92.9713 333.658 93.0839C333.87 93.1921 334.129 93.2461 334.435 93.2461C334.818 93.2461 335.156 93.165 335.449 93.0029C335.741 92.8407 335.973 92.6425 336.145 92.4083C336.32 92.174 336.415 91.9466 336.428 91.7258L336.962 92.3272C336.931 92.5164 336.845 92.7258 336.705 92.9556C336.566 93.1853 336.379 93.406 336.145 93.6177C335.915 93.8249 335.64 93.9984 335.32 94.138C335.005 94.2731 334.649 94.3407 334.253 94.3407C333.757 94.3407 333.323 94.2439 332.949 94.0502C332.579 93.8565 332.291 93.5975 332.084 93.2731C331.881 92.9443 331.78 92.5772 331.78 92.1718C331.78 91.7799 331.856 91.4353 332.009 91.138C332.163 90.8362 332.383 90.5862 332.672 90.388C332.96 90.1853 333.307 90.0321 333.712 89.9285C334.118 89.8249 334.57 89.7731 335.07 89.7731H336.523ZM342.557 94.3407C342.048 94.3407 341.586 94.2551 341.172 94.0839C340.762 93.9083 340.408 93.6628 340.111 93.3475C339.818 93.0321 339.593 92.6583 339.435 92.2258C339.277 91.7934 339.199 91.3204 339.199 90.8069V90.5231C339.199 89.9285 339.286 89.3993 339.462 88.9353C339.638 88.4668 339.877 88.0704 340.178 87.7461C340.48 87.4218 340.823 87.1763 341.205 87.0096C341.588 86.843 341.985 86.7596 342.395 86.7596C342.917 86.7596 343.368 86.8497 343.746 87.0299C344.129 87.2101 344.442 87.4623 344.685 87.7866C344.928 88.1065 345.109 88.4848 345.226 88.9218C345.343 89.3542 345.401 89.8272 345.401 90.3407V90.9015H339.942V89.8812H344.151V89.7866C344.133 89.4623 344.066 89.147 343.949 88.8407C343.836 88.5344 343.656 88.2821 343.408 88.0839C343.16 87.8857 342.823 87.7866 342.395 87.7866C342.111 87.7866 341.85 87.8475 341.611 87.9691C341.372 88.0862 341.167 88.2619 340.996 88.4961C340.825 88.7303 340.692 89.0164 340.597 89.3542C340.503 89.6921 340.455 90.0817 340.455 90.5231V90.8069C340.455 91.1538 340.503 91.4803 340.597 91.7866C340.696 92.0884 340.838 92.3542 341.023 92.5839C341.212 92.8137 341.44 92.9939 341.705 93.1245C341.976 93.2551 342.282 93.3204 342.624 93.3204C343.066 93.3204 343.44 93.2303 343.746 93.0502C344.052 92.87 344.32 92.629 344.55 92.3272L345.307 92.9285C345.149 93.1673 344.949 93.3948 344.705 93.611C344.462 93.8272 344.163 94.0029 343.807 94.138C343.455 94.2731 343.039 94.3407 342.557 94.3407ZM348.104 88.3475V94.2056H346.847V86.8948H348.036L348.104 88.3475ZM347.847 90.2731L347.266 90.2529C347.271 89.7529 347.336 89.2912 347.462 88.8677C347.588 88.4398 347.775 88.0682 348.023 87.7529C348.271 87.4375 348.579 87.1943 348.949 87.0231C349.318 86.8475 349.746 86.7596 350.232 86.7596C350.575 86.7596 350.89 86.8092 351.178 86.9083C351.467 87.0029 351.717 87.1538 351.928 87.361C352.14 87.5682 352.304 87.8339 352.422 88.1583C352.539 88.4826 352.597 88.8745 352.597 89.3339V94.2056H351.347V89.3948C351.347 89.0119 351.282 88.7056 351.151 88.4758C351.025 88.2461 350.845 88.0794 350.611 87.9758C350.377 87.8677 350.102 87.8137 349.786 87.8137C349.417 87.8137 349.109 87.879 348.861 88.0096C348.613 88.1403 348.415 88.3204 348.266 88.5502C348.118 88.7799 348.009 89.0434 347.942 89.3407C347.879 89.6335 347.847 89.9443 347.847 90.2731ZM352.584 89.5839L351.746 89.8407C351.75 89.4398 351.816 89.0547 351.942 88.6853C352.073 88.3159 352.259 87.9871 352.503 87.6988C352.75 87.4105 353.054 87.183 353.415 87.0164C353.775 86.8452 354.187 86.7596 354.651 86.7596C355.043 86.7596 355.39 86.8114 355.692 86.915C355.998 87.0186 356.255 87.1785 356.462 87.3948C356.674 87.6065 356.834 87.879 356.942 88.2123C357.05 88.5457 357.104 88.9421 357.104 89.4015V94.2056H355.847V89.388C355.847 88.9781 355.782 88.6605 355.651 88.4353C355.525 88.2056 355.345 88.0457 355.111 87.9556C354.881 87.861 354.606 87.8137 354.286 87.8137C354.012 87.8137 353.768 87.861 353.557 87.9556C353.345 88.0502 353.167 88.1808 353.023 88.3475C352.879 88.5096 352.768 88.6966 352.692 88.9083C352.62 89.12 352.584 89.3452 352.584 89.5839ZM358.665 90.6312V90.4758C358.665 89.9488 358.741 89.4601 358.895 89.0096C359.048 88.5547 359.268 88.1605 359.557 87.8272C359.845 87.4894 360.194 87.2281 360.604 87.0434C361.014 86.8542 361.473 86.7596 361.982 86.7596C362.496 86.7596 362.958 86.8542 363.368 87.0434C363.782 87.2281 364.133 87.4894 364.422 87.8272C364.714 88.1605 364.937 88.5547 365.091 89.0096C365.244 89.4601 365.32 89.9488 365.32 90.4758V90.6312C365.32 91.1583 365.244 91.647 365.091 92.0975C364.937 92.5479 364.714 92.9421 364.422 93.2799C364.133 93.6132 363.784 93.8745 363.374 94.0637C362.969 94.2484 362.509 94.3407 361.996 94.3407C361.482 94.3407 361.021 94.2484 360.611 94.0637C360.201 93.8745 359.85 93.6132 359.557 93.2799C359.268 92.9421 359.048 92.5479 358.895 92.0975C358.741 91.647 358.665 91.1583 358.665 90.6312ZM359.915 90.4758V90.6312C359.915 90.9961 359.958 91.3407 360.043 91.665C360.129 91.9848 360.257 92.2686 360.428 92.5164C360.604 92.7641 360.823 92.9601 361.084 93.1042C361.345 93.2439 361.649 93.3137 361.996 93.3137C362.338 93.3137 362.638 93.2439 362.895 93.1042C363.156 92.9601 363.372 92.7641 363.543 92.5164C363.714 92.2686 363.843 91.9848 363.928 91.665C364.018 91.3407 364.063 90.9961 364.063 90.6312V90.4758C364.063 90.1155 364.018 89.7754 363.928 89.4556C363.843 89.1312 363.712 88.8452 363.536 88.5975C363.365 88.3452 363.149 88.147 362.888 88.0029C362.631 87.8587 362.329 87.7866 361.982 87.7866C361.64 87.7866 361.338 87.8587 361.077 88.0029C360.82 88.147 360.604 88.3452 360.428 88.5975C360.257 88.8452 360.129 89.1312 360.043 89.4556C359.958 89.7754 359.915 90.1155 359.915 90.4758ZM368.138 88.4556V94.2056H366.888V86.8948H368.07L368.138 88.4556ZM367.841 90.2731L367.32 90.2529C367.325 89.7529 367.399 89.2912 367.543 88.8677C367.687 88.4398 367.89 88.0682 368.151 87.7529C368.413 87.4375 368.723 87.1943 369.084 87.0231C369.449 86.8475 369.852 86.7596 370.293 86.7596C370.654 86.7596 370.978 86.8092 371.266 86.9083C371.554 87.0029 371.8 87.156 372.003 87.3677C372.21 87.5794 372.368 87.8542 372.476 88.1921C372.584 88.5254 372.638 88.933 372.638 89.415V94.2056H371.381V89.4015C371.381 89.0186 371.325 88.7123 371.212 88.4826C371.1 88.2484 370.935 88.0794 370.719 87.9758C370.503 87.8677 370.237 87.8137 369.922 87.8137C369.611 87.8137 369.327 87.879 369.07 88.0096C368.818 88.1403 368.6 88.3204 368.415 88.5502C368.235 88.7799 368.093 89.0434 367.989 89.3407C367.89 89.6335 367.841 89.9443 367.841 90.2731ZM375.672 92.7191V93.7258C375.672 94.1357 375.568 94.5682 375.361 95.0231C375.154 95.4826 374.863 95.8655 374.489 96.1718L373.78 95.6785C373.924 95.4803 374.045 95.2776 374.145 95.0704C374.244 94.8677 374.318 94.656 374.368 94.4353C374.422 94.2191 374.449 93.9894 374.449 93.7461V92.7191H375.672ZM178.719 107.077H180.016C179.949 107.699 179.771 108.255 179.482 108.746C179.194 109.237 178.786 109.627 178.259 109.915C177.732 110.199 177.075 110.341 176.286 110.341C175.71 110.341 175.185 110.233 174.712 110.016C174.244 109.8 173.841 109.494 173.503 109.097C173.165 108.697 172.904 108.217 172.719 107.658C172.539 107.095 172.449 106.469 172.449 105.78V104.8C172.449 104.111 172.539 103.487 172.719 102.929C172.904 102.365 173.167 101.883 173.509 101.483C173.856 101.082 174.273 100.773 174.759 100.557C175.246 100.341 175.793 100.233 176.401 100.233C177.145 100.233 177.773 100.372 178.286 100.652C178.8 100.931 179.199 101.318 179.482 101.814C179.771 102.305 179.949 102.874 180.016 103.523H178.719C178.656 103.064 178.539 102.67 178.368 102.341C178.196 102.007 177.953 101.751 177.638 101.57C177.323 101.39 176.91 101.3 176.401 101.3C175.964 101.3 175.579 101.383 175.246 101.55C174.917 101.717 174.64 101.953 174.415 102.26C174.194 102.566 174.027 102.933 173.915 103.361C173.802 103.789 173.746 104.264 173.746 104.787V105.78C173.746 106.262 173.795 106.715 173.895 107.138C173.998 107.561 174.154 107.933 174.361 108.253C174.568 108.573 174.832 108.825 175.151 109.01C175.471 109.19 175.85 109.28 176.286 109.28C176.841 109.28 177.282 109.192 177.611 109.016C177.94 108.841 178.187 108.588 178.354 108.26C178.525 107.931 178.647 107.537 178.719 107.077ZM187.759 109.145V110.206H182.841V109.145H187.759ZM183.097 100.368V110.206H181.793V100.368H183.097ZM190.651 100.368V110.206H189.347V100.368H190.651ZM193.969 108.719V109.726C193.969 110.136 193.865 110.568 193.658 111.023C193.451 111.483 193.16 111.865 192.786 112.172L192.077 111.679C192.221 111.48 192.343 111.278 192.442 111.07C192.541 110.868 192.615 110.656 192.665 110.435C192.719 110.219 192.746 109.989 192.746 109.746V108.719H193.969ZM204.428 107.719C204.428 107.489 204.392 107.287 204.32 107.111C204.253 106.931 204.131 106.769 203.955 106.624C203.784 106.48 203.545 106.343 203.239 106.212C202.937 106.082 202.554 105.949 202.091 105.814C201.604 105.67 201.165 105.51 200.773 105.334C200.381 105.154 200.045 104.949 199.766 104.719C199.487 104.489 199.273 104.226 199.124 103.929C198.976 103.631 198.901 103.291 198.901 102.908C198.901 102.525 198.98 102.172 199.138 101.847C199.295 101.523 199.521 101.242 199.813 101.003C200.111 100.76 200.464 100.57 200.874 100.435C201.284 100.3 201.741 100.233 202.246 100.233C202.985 100.233 203.611 100.374 204.124 100.658C204.642 100.938 205.036 101.305 205.307 101.76C205.577 102.21 205.712 102.692 205.712 103.206H204.415C204.415 102.836 204.336 102.51 204.178 102.226C204.021 101.938 203.782 101.712 203.462 101.55C203.142 101.383 202.737 101.3 202.246 101.3C201.782 101.3 201.399 101.37 201.097 101.51C200.795 101.649 200.57 101.838 200.422 102.077C200.277 102.316 200.205 102.588 200.205 102.895C200.205 103.102 200.248 103.291 200.334 103.462C200.424 103.629 200.561 103.784 200.746 103.929C200.935 104.073 201.174 104.206 201.462 104.327C201.755 104.449 202.104 104.566 202.509 104.679C203.068 104.836 203.55 105.012 203.955 105.206C204.361 105.399 204.694 105.618 204.955 105.861C205.221 106.1 205.417 106.372 205.543 106.679C205.674 106.98 205.739 107.323 205.739 107.706C205.739 108.106 205.658 108.469 205.496 108.793C205.334 109.118 205.102 109.395 204.8 109.624C204.498 109.854 204.136 110.032 203.712 110.158C203.293 110.28 202.825 110.341 202.307 110.341C201.852 110.341 201.404 110.278 200.962 110.152C200.525 110.025 200.127 109.836 199.766 109.584C199.41 109.332 199.124 109.021 198.908 108.652C198.696 108.278 198.591 107.845 198.591 107.354H199.888C199.888 107.692 199.953 107.983 200.084 108.226C200.214 108.465 200.392 108.663 200.618 108.82C200.847 108.978 201.106 109.095 201.395 109.172C201.687 109.244 201.991 109.28 202.307 109.28C202.762 109.28 203.147 109.217 203.462 109.091C203.777 108.965 204.016 108.784 204.178 108.55C204.345 108.316 204.428 108.039 204.428 107.719ZM210.063 110.206H208.009L208.023 109.145H210.063C210.766 109.145 211.352 108.998 211.82 108.706C212.289 108.408 212.64 107.994 212.874 107.462C213.113 106.926 213.232 106.3 213.232 105.584V104.983C213.232 104.42 213.165 103.92 213.03 103.483C212.895 103.041 212.696 102.67 212.435 102.368C212.174 102.061 211.854 101.829 211.476 101.672C211.102 101.514 210.672 101.435 210.185 101.435H207.969V100.368H210.185C210.829 100.368 211.417 100.476 211.949 100.692C212.48 100.904 212.937 101.212 213.32 101.618C213.708 102.019 214.005 102.505 214.212 103.077C214.419 103.645 214.523 104.284 214.523 104.996V105.584C214.523 106.296 214.419 106.938 214.212 107.51C214.005 108.077 213.705 108.561 213.313 108.962C212.926 109.363 212.458 109.672 211.908 109.888C211.363 110.1 210.748 110.206 210.063 110.206ZM208.705 100.368V110.206H207.401V100.368H208.705ZM217.786 100.368V110.206H216.482V100.368H217.786ZM223.726 100.368L219.638 104.956L217.341 107.341L217.124 105.949L218.854 104.043L222.158 100.368H223.726ZM222.469 110.206L218.827 105.408L219.604 104.374L224.023 110.206H222.469ZM229.239 108.266C229.239 108.086 229.199 107.92 229.118 107.766C229.041 107.609 228.881 107.467 228.638 107.341C228.399 107.21 228.039 107.097 227.557 107.003C227.151 106.917 226.784 106.816 226.455 106.699C226.131 106.582 225.854 106.44 225.624 106.273C225.399 106.106 225.226 105.911 225.104 105.685C224.982 105.46 224.922 105.197 224.922 104.895C224.922 104.606 224.985 104.334 225.111 104.077C225.241 103.82 225.424 103.593 225.658 103.395C225.897 103.197 226.183 103.041 226.516 102.929C226.85 102.816 227.221 102.76 227.631 102.76C228.217 102.76 228.717 102.863 229.131 103.07C229.545 103.278 229.863 103.555 230.084 103.902C230.304 104.244 230.415 104.624 230.415 105.043H229.165C229.165 104.841 229.104 104.645 228.982 104.456C228.865 104.262 228.692 104.102 228.462 103.976C228.237 103.85 227.96 103.787 227.631 103.787C227.284 103.787 227.003 103.841 226.786 103.949C226.575 104.052 226.419 104.185 226.32 104.347C226.226 104.51 226.178 104.681 226.178 104.861C226.178 104.996 226.201 105.118 226.246 105.226C226.295 105.329 226.381 105.426 226.503 105.516C226.624 105.602 226.795 105.683 227.016 105.76C227.237 105.836 227.518 105.913 227.861 105.989C228.46 106.124 228.953 106.287 229.341 106.476C229.728 106.665 230.016 106.897 230.205 107.172C230.395 107.447 230.489 107.78 230.489 108.172C230.489 108.492 230.422 108.784 230.286 109.05C230.156 109.316 229.964 109.546 229.712 109.739C229.464 109.929 229.167 110.077 228.82 110.185C228.478 110.289 228.093 110.341 227.665 110.341C227.021 110.341 226.476 110.226 226.03 109.996C225.584 109.766 225.246 109.469 225.016 109.104C224.786 108.739 224.672 108.354 224.672 107.949H225.928C225.946 108.291 226.045 108.564 226.226 108.766C226.406 108.965 226.627 109.106 226.888 109.192C227.149 109.273 227.408 109.314 227.665 109.314C228.007 109.314 228.293 109.269 228.523 109.179C228.757 109.088 228.935 108.965 229.057 108.807C229.178 108.649 229.239 108.469 229.239 108.266ZM233.266 108.719V109.726C233.266 110.136 233.163 110.568 232.955 111.023C232.748 111.483 232.458 111.865 232.084 112.172L231.374 111.679C231.518 111.48 231.64 111.278 231.739 111.07C231.838 110.868 231.913 110.656 231.962 110.435C232.016 110.219 232.043 109.989 232.043 109.746V108.719H233.266ZM242.604 108.956V105.192C242.604 104.904 242.545 104.654 242.428 104.442C242.316 104.226 242.145 104.059 241.915 103.942C241.685 103.825 241.401 103.766 241.063 103.766C240.748 103.766 240.471 103.82 240.232 103.929C239.998 104.037 239.813 104.179 239.678 104.354C239.548 104.53 239.482 104.719 239.482 104.922H238.232C238.232 104.661 238.3 104.402 238.435 104.145C238.57 103.888 238.764 103.656 239.016 103.449C239.273 103.237 239.579 103.07 239.935 102.949C240.295 102.823 240.696 102.76 241.138 102.76C241.669 102.76 242.138 102.85 242.543 103.03C242.953 103.21 243.273 103.483 243.503 103.847C243.737 104.208 243.854 104.661 243.854 105.206V108.611C243.854 108.854 243.874 109.113 243.915 109.388C243.96 109.663 244.025 109.899 244.111 110.097V110.206H242.807C242.744 110.061 242.694 109.87 242.658 109.631C242.622 109.388 242.604 109.163 242.604 108.956ZM242.82 105.773L242.834 106.652H241.57C241.214 106.652 240.897 106.681 240.618 106.739C240.338 106.793 240.104 106.877 239.915 106.989C239.726 107.102 239.582 107.244 239.482 107.415C239.383 107.582 239.334 107.778 239.334 108.003C239.334 108.233 239.386 108.442 239.489 108.631C239.593 108.82 239.748 108.971 239.955 109.084C240.167 109.192 240.426 109.246 240.732 109.246C241.115 109.246 241.453 109.165 241.746 109.003C242.039 108.841 242.271 108.643 242.442 108.408C242.618 108.174 242.712 107.947 242.726 107.726L243.259 108.327C243.228 108.516 243.142 108.726 243.003 108.956C242.863 109.185 242.676 109.406 242.442 109.618C242.212 109.825 241.937 109.998 241.618 110.138C241.302 110.273 240.946 110.341 240.55 110.341C240.054 110.341 239.62 110.244 239.246 110.05C238.877 109.856 238.588 109.597 238.381 109.273C238.178 108.944 238.077 108.577 238.077 108.172C238.077 107.78 238.154 107.435 238.307 107.138C238.46 106.836 238.681 106.586 238.969 106.388C239.257 106.185 239.604 106.032 240.009 105.929C240.415 105.825 240.868 105.773 241.368 105.773H242.82ZM247.07 104.456V110.206H245.82V102.895H247.003L247.07 104.456ZM246.773 106.273L246.253 106.253C246.257 105.753 246.332 105.291 246.476 104.868C246.62 104.44 246.823 104.068 247.084 103.753C247.345 103.438 247.656 103.194 248.016 103.023C248.381 102.847 248.784 102.76 249.226 102.76C249.586 102.76 249.91 102.809 250.199 102.908C250.487 103.003 250.732 103.156 250.935 103.368C251.142 103.579 251.3 103.854 251.408 104.192C251.516 104.525 251.57 104.933 251.57 105.415V110.206H250.313V105.402C250.313 105.019 250.257 104.712 250.145 104.483C250.032 104.248 249.868 104.079 249.651 103.976C249.435 103.868 249.169 103.814 248.854 103.814C248.543 103.814 248.259 103.879 248.003 104.01C247.75 104.14 247.532 104.32 247.347 104.55C247.167 104.78 247.025 105.043 246.922 105.341C246.823 105.633 246.773 105.944 246.773 106.273ZM258.077 108.787V99.8272H259.334V110.206H258.185L258.077 108.787ZM253.158 106.631V106.489C253.158 105.931 253.226 105.424 253.361 104.969C253.5 104.51 253.696 104.115 253.949 103.787C254.205 103.458 254.509 103.206 254.861 103.03C255.217 102.85 255.613 102.76 256.05 102.76C256.509 102.76 256.91 102.841 257.253 103.003C257.6 103.161 257.892 103.393 258.131 103.699C258.374 104.001 258.566 104.365 258.705 104.793C258.845 105.221 258.942 105.706 258.996 106.246V106.868C258.946 107.404 258.85 107.886 258.705 108.314C258.566 108.742 258.374 109.106 258.131 109.408C257.892 109.71 257.6 109.942 257.253 110.104C256.906 110.262 256.5 110.341 256.036 110.341C255.609 110.341 255.217 110.248 254.861 110.064C254.509 109.879 254.205 109.62 253.949 109.287C253.696 108.953 253.5 108.561 253.361 108.111C253.226 107.656 253.158 107.163 253.158 106.631ZM254.415 106.489V106.631C254.415 106.996 254.451 107.338 254.523 107.658C254.6 107.978 254.717 108.26 254.874 108.503C255.032 108.746 255.232 108.938 255.476 109.077C255.719 109.212 256.009 109.28 256.347 109.28C256.762 109.28 257.102 109.192 257.368 109.016C257.638 108.841 257.854 108.609 258.016 108.32C258.178 108.032 258.304 107.719 258.395 107.381V105.753C258.341 105.505 258.262 105.266 258.158 105.037C258.059 104.802 257.928 104.595 257.766 104.415C257.609 104.23 257.413 104.084 257.178 103.976C256.949 103.868 256.676 103.814 256.361 103.814C256.018 103.814 255.723 103.886 255.476 104.03C255.232 104.17 255.032 104.363 254.874 104.611C254.717 104.854 254.6 105.138 254.523 105.462C254.451 105.782 254.415 106.124 254.415 106.489ZM265.955 104.347V110.206H264.699V102.895H265.888L265.955 104.347ZM265.699 106.273L265.118 106.253C265.122 105.753 265.187 105.291 265.313 104.868C265.44 104.44 265.627 104.068 265.874 103.753C266.122 103.438 266.431 103.194 266.8 103.023C267.169 102.847 267.597 102.76 268.084 102.76C268.426 102.76 268.741 102.809 269.03 102.908C269.318 103.003 269.568 103.154 269.78 103.361C269.991 103.568 270.156 103.834 270.273 104.158C270.39 104.483 270.449 104.874 270.449 105.334V110.206H269.199V105.395C269.199 105.012 269.133 104.706 269.003 104.476C268.877 104.246 268.696 104.079 268.462 103.976C268.228 103.868 267.953 103.814 267.638 103.814C267.268 103.814 266.96 103.879 266.712 104.01C266.464 104.14 266.266 104.32 266.118 104.55C265.969 104.78 265.861 105.043 265.793 105.341C265.73 105.633 265.699 105.944 265.699 106.273ZM270.435 105.584L269.597 105.841C269.602 105.44 269.667 105.055 269.793 104.685C269.924 104.316 270.111 103.987 270.354 103.699C270.602 103.411 270.906 103.183 271.266 103.016C271.627 102.845 272.039 102.76 272.503 102.76C272.895 102.76 273.241 102.811 273.543 102.915C273.85 103.019 274.106 103.179 274.313 103.395C274.525 103.606 274.685 103.879 274.793 104.212C274.901 104.546 274.955 104.942 274.955 105.402V110.206H273.699V105.388C273.699 104.978 273.633 104.661 273.503 104.435C273.377 104.206 273.196 104.046 272.962 103.956C272.732 103.861 272.458 103.814 272.138 103.814C271.863 103.814 271.62 103.861 271.408 103.956C271.196 104.05 271.018 104.181 270.874 104.347C270.73 104.51 270.62 104.697 270.543 104.908C270.471 105.12 270.435 105.345 270.435 105.584ZM276.516 106.631V106.476C276.516 105.949 276.593 105.46 276.746 105.01C276.899 104.555 277.12 104.161 277.408 103.827C277.696 103.489 278.045 103.228 278.455 103.043C278.865 102.854 279.325 102.76 279.834 102.76C280.347 102.76 280.809 102.854 281.219 103.043C281.633 103.228 281.985 103.489 282.273 103.827C282.566 104.161 282.789 104.555 282.942 105.01C283.095 105.46 283.172 105.949 283.172 106.476V106.631C283.172 107.158 283.095 107.647 282.942 108.097C282.789 108.548 282.566 108.942 282.273 109.28C281.985 109.613 281.636 109.874 281.226 110.064C280.82 110.248 280.361 110.341 279.847 110.341C279.334 110.341 278.872 110.248 278.462 110.064C278.052 109.874 277.701 109.613 277.408 109.28C277.12 108.942 276.899 108.548 276.746 108.097C276.593 107.647 276.516 107.158 276.516 106.631ZM277.766 106.476V106.631C277.766 106.996 277.809 107.341 277.895 107.665C277.98 107.985 278.109 108.269 278.28 108.516C278.455 108.764 278.674 108.96 278.935 109.104C279.196 109.244 279.5 109.314 279.847 109.314C280.19 109.314 280.489 109.244 280.746 109.104C281.007 108.96 281.223 108.764 281.395 108.516C281.566 108.269 281.694 107.985 281.78 107.665C281.87 107.341 281.915 106.996 281.915 106.631V106.476C281.915 106.115 281.87 105.775 281.78 105.456C281.694 105.131 281.563 104.845 281.388 104.597C281.217 104.345 281 104.147 280.739 104.003C280.482 103.859 280.181 103.787 279.834 103.787C279.491 103.787 279.19 103.859 278.928 104.003C278.672 104.147 278.455 104.345 278.28 104.597C278.109 104.845 277.98 105.131 277.895 105.456C277.809 105.775 277.766 106.115 277.766 106.476ZM289.347 108.787V99.8272H290.604V110.206H289.455L289.347 108.787ZM284.428 106.631V106.489C284.428 105.931 284.496 105.424 284.631 104.969C284.771 104.51 284.967 104.115 285.219 103.787C285.476 103.458 285.78 103.206 286.131 103.03C286.487 102.85 286.883 102.76 287.32 102.76C287.78 102.76 288.181 102.841 288.523 103.003C288.87 103.161 289.163 103.393 289.401 103.699C289.645 104.001 289.836 104.365 289.976 104.793C290.115 105.221 290.212 105.706 290.266 106.246V106.868C290.217 107.404 290.12 107.886 289.976 108.314C289.836 108.742 289.645 109.106 289.401 109.408C289.163 109.71 288.87 109.942 288.523 110.104C288.176 110.262 287.771 110.341 287.307 110.341C286.879 110.341 286.487 110.248 286.131 110.064C285.78 109.879 285.476 109.62 285.219 109.287C284.967 108.953 284.771 108.561 284.631 108.111C284.496 107.656 284.428 107.163 284.428 106.631ZM285.685 106.489V106.631C285.685 106.996 285.721 107.338 285.793 107.658C285.87 107.978 285.987 108.26 286.145 108.503C286.302 108.746 286.503 108.938 286.746 109.077C286.989 109.212 287.28 109.28 287.618 109.28C288.032 109.28 288.372 109.192 288.638 109.016C288.908 108.841 289.124 108.609 289.286 108.32C289.449 108.032 289.575 107.719 289.665 107.381V105.753C289.611 105.505 289.532 105.266 289.428 105.037C289.329 104.802 289.199 104.595 289.036 104.415C288.879 104.23 288.683 104.084 288.449 103.976C288.219 103.868 287.946 103.814 287.631 103.814C287.289 103.814 286.994 103.886 286.746 104.03C286.503 104.17 286.302 104.363 286.145 104.611C285.987 104.854 285.87 105.138 285.793 105.462C285.721 105.782 285.685 106.124 285.685 106.489ZM297.023 108.516V102.895H298.28V110.206H297.084L297.023 108.516ZM297.259 106.976L297.78 106.962C297.78 107.449 297.728 107.899 297.624 108.314C297.525 108.724 297.363 109.079 297.138 109.381C296.913 109.683 296.618 109.92 296.253 110.091C295.888 110.257 295.444 110.341 294.922 110.341C294.566 110.341 294.239 110.289 293.942 110.185C293.649 110.082 293.397 109.922 293.185 109.706C292.973 109.489 292.809 109.208 292.692 108.861C292.579 108.514 292.523 108.097 292.523 107.611V102.895H293.773V107.624C293.773 107.953 293.809 108.226 293.881 108.442C293.958 108.654 294.059 108.823 294.185 108.949C294.316 109.07 294.46 109.156 294.618 109.206C294.78 109.255 294.946 109.28 295.118 109.28C295.649 109.28 296.07 109.179 296.381 108.976C296.692 108.769 296.915 108.492 297.05 108.145C297.19 107.793 297.259 107.404 297.259 106.976ZM301.543 99.8272V110.206H300.286V99.8272H301.543ZM306.584 110.341C306.075 110.341 305.613 110.255 305.199 110.084C304.789 109.908 304.435 109.663 304.138 109.347C303.845 109.032 303.62 108.658 303.462 108.226C303.304 107.793 303.226 107.32 303.226 106.807V106.523C303.226 105.929 303.313 105.399 303.489 104.935C303.665 104.467 303.904 104.07 304.205 103.746C304.507 103.422 304.85 103.176 305.232 103.01C305.615 102.843 306.012 102.76 306.422 102.76C306.944 102.76 307.395 102.85 307.773 103.03C308.156 103.21 308.469 103.462 308.712 103.787C308.955 104.106 309.136 104.485 309.253 104.922C309.37 105.354 309.428 105.827 309.428 106.341V106.902H303.969V105.881H308.178V105.787C308.16 105.462 308.093 105.147 307.976 104.841C307.863 104.534 307.683 104.282 307.435 104.084C307.187 103.886 306.85 103.787 306.422 103.787C306.138 103.787 305.877 103.847 305.638 103.969C305.399 104.086 305.194 104.262 305.023 104.496C304.852 104.73 304.719 105.016 304.624 105.354C304.53 105.692 304.482 106.082 304.482 106.523V106.807C304.482 107.154 304.53 107.48 304.624 107.787C304.723 108.088 304.865 108.354 305.05 108.584C305.239 108.814 305.467 108.994 305.732 109.124C306.003 109.255 306.309 109.32 306.651 109.32C307.093 109.32 307.467 109.23 307.773 109.05C308.079 108.87 308.347 108.629 308.577 108.327L309.334 108.929C309.176 109.167 308.976 109.395 308.732 109.611C308.489 109.827 308.19 110.003 307.834 110.138C307.482 110.273 307.066 110.341 306.584 110.341ZM315.145 108.266C315.145 108.086 315.104 107.92 315.023 107.766C314.946 107.609 314.786 107.467 314.543 107.341C314.304 107.21 313.944 107.097 313.462 107.003C313.057 106.917 312.69 106.816 312.361 106.699C312.036 106.582 311.759 106.44 311.53 106.273C311.304 106.106 311.131 105.911 311.009 105.685C310.888 105.46 310.827 105.197 310.827 104.895C310.827 104.606 310.89 104.334 311.016 104.077C311.147 103.82 311.329 103.593 311.563 103.395C311.802 103.197 312.088 103.041 312.422 102.929C312.755 102.816 313.127 102.76 313.536 102.76C314.122 102.76 314.622 102.863 315.036 103.07C315.451 103.278 315.768 103.555 315.989 103.902C316.21 104.244 316.32 104.624 316.32 105.043H315.07C315.07 104.841 315.009 104.645 314.888 104.456C314.771 104.262 314.597 104.102 314.368 103.976C314.142 103.85 313.865 103.787 313.536 103.787C313.19 103.787 312.908 103.841 312.692 103.949C312.48 104.052 312.325 104.185 312.226 104.347C312.131 104.51 312.084 104.681 312.084 104.861C312.084 104.996 312.106 105.118 312.151 105.226C312.201 105.329 312.286 105.426 312.408 105.516C312.53 105.602 312.701 105.683 312.922 105.76C313.142 105.836 313.424 105.913 313.766 105.989C314.365 106.124 314.859 106.287 315.246 106.476C315.633 106.665 315.922 106.897 316.111 107.172C316.3 107.447 316.395 107.78 316.395 108.172C316.395 108.492 316.327 108.784 316.192 109.05C316.061 109.316 315.87 109.546 315.618 109.739C315.37 109.929 315.073 110.077 314.726 110.185C314.383 110.289 313.998 110.341 313.57 110.341C312.926 110.341 312.381 110.226 311.935 109.996C311.489 109.766 311.151 109.469 310.922 109.104C310.692 108.739 310.577 108.354 310.577 107.949H311.834C311.852 108.291 311.951 108.564 312.131 108.766C312.311 108.965 312.532 109.106 312.793 109.192C313.054 109.273 313.313 109.314 313.57 109.314C313.913 109.314 314.199 109.269 314.428 109.179C314.663 109.088 314.841 108.965 314.962 108.807C315.084 108.649 315.145 108.469 315.145 108.266ZM318.057 109.543C318.057 109.332 318.122 109.154 318.253 109.01C318.388 108.861 318.582 108.787 318.834 108.787C319.086 108.787 319.277 108.861 319.408 109.01C319.543 109.154 319.611 109.332 319.611 109.543C319.611 109.751 319.543 109.926 319.408 110.07C319.277 110.215 319.086 110.287 318.834 110.287C318.582 110.287 318.388 110.215 318.253 110.07C318.122 109.926 318.057 109.751 318.057 109.543Z" fill="#2C2C2C"/>
<path d="M178.916 69.9189H174.917L174.943 66.9674H178.916C179.908 66.9674 180.745 66.7446 181.426 66.2989C182.107 65.8448 182.62 65.1847 182.965 64.3186C183.318 63.4525 183.494 62.4056 183.494 61.1779V60.2823C183.494 59.3405 183.393 58.5123 183.192 57.7975C182.998 57.0828 182.708 56.4815 182.321 55.9938C181.935 55.5061 181.459 55.1403 180.896 54.8964C180.333 54.6442 179.685 54.518 178.954 54.518H174.842V51.5539H178.954C180.181 51.5539 181.304 51.7641 182.321 52.1846C183.347 52.5966 184.234 53.1894 184.983 53.9631C185.731 54.7367 186.307 55.6617 186.711 56.738C187.123 57.8059 187.329 58.9958 187.329 60.3076V61.1779C187.329 62.4813 187.123 63.6711 186.711 64.7475C186.307 65.8238 185.731 66.7488 184.983 67.5224C184.243 68.2876 183.356 68.8804 182.321 69.3009C181.295 69.7129 180.16 69.9189 178.916 69.9189ZM177.062 51.5539V69.9189H173.278V51.5539H177.062ZM196.133 70.1712C195.073 70.1712 194.123 70.003 193.282 69.6667C192.441 69.3219 191.727 68.8468 191.138 68.2414C190.558 67.6359 190.112 66.9338 189.801 66.1349C189.49 65.3277 189.334 64.47 189.334 63.5618V63.0573C189.334 62.023 189.482 61.077 189.776 60.2193C190.07 59.3616 190.491 58.6174 191.037 57.9867C191.592 57.356 192.265 56.8725 193.055 56.5362C193.846 56.1914 194.737 56.019 195.729 56.019C196.696 56.019 197.554 56.1788 198.302 56.4983C199.051 56.8179 199.677 57.272 200.182 57.8606C200.695 58.4492 201.082 59.1556 201.342 59.9796C201.603 60.7953 201.733 61.7034 201.733 62.7041V64.2177H190.886V61.7959H198.164V61.5185C198.164 61.0139 198.071 60.564 197.886 60.1688C197.71 59.7652 197.441 59.4457 197.079 59.2102C196.717 58.9748 196.255 58.857 195.691 58.857C195.212 58.857 194.8 58.9621 194.455 59.1724C194.111 59.3826 193.829 59.6769 193.61 60.0553C193.4 60.4337 193.24 60.8794 193.131 61.3923C193.03 61.8969 192.98 62.4518 192.98 63.0573V63.5618C192.98 64.1084 193.055 64.6129 193.207 65.0754C193.366 65.5379 193.589 65.9373 193.875 66.2737C194.169 66.61 194.523 66.8707 194.935 67.0557C195.355 67.2407 195.83 67.3332 196.36 67.3332C197.016 67.3332 197.626 67.2071 198.189 66.9548C198.761 66.6941 199.253 66.3031 199.665 65.7818L201.431 67.699C201.145 68.111 200.754 68.5062 200.258 68.8847C199.77 69.2631 199.181 69.5742 198.492 69.818C197.802 70.0535 197.016 70.1712 196.133 70.1712ZM208.267 67.2701L211.294 56.2713H215.091L210.487 69.9189H208.191L208.267 67.2701ZM206.186 56.2713L209.226 67.2828L209.289 69.9189H206.98L202.377 56.2713H206.186ZM222.823 70.1712C221.763 70.1712 220.813 70.003 219.972 69.6667C219.131 69.3219 218.417 68.8468 217.828 68.2414C217.248 67.6359 216.802 66.9338 216.491 66.1349C216.18 65.3277 216.024 64.47 216.024 63.5618V63.0573C216.024 62.023 216.171 61.077 216.466 60.2193C216.76 59.3616 217.18 58.6174 217.727 57.9867C218.282 57.356 218.955 56.8725 219.745 56.5362C220.536 56.1914 221.427 56.019 222.419 56.019C223.386 56.019 224.244 56.1788 224.992 56.4983C225.741 56.8179 226.367 57.272 226.872 57.8606C227.385 58.4492 227.771 59.1556 228.032 59.9796C228.293 60.7953 228.423 61.7034 228.423 62.7041V64.2177H217.576V61.7959H224.854V61.5185C224.854 61.0139 224.761 60.564 224.576 60.1688C224.399 59.7652 224.13 59.4457 223.769 59.2102C223.407 58.9748 222.945 58.857 222.381 58.857C221.902 58.857 221.49 58.9621 221.145 59.1724C220.8 59.3826 220.519 59.6769 220.3 60.0553C220.09 60.4337 219.93 60.8794 219.821 61.3923C219.72 61.8969 219.669 62.4518 219.669 63.0573V63.5618C219.669 64.1084 219.745 64.6129 219.897 65.0754C220.056 65.5379 220.279 65.9373 220.565 66.2737C220.859 66.61 221.213 66.8707 221.625 67.0557C222.045 67.2407 222.52 67.3332 223.05 67.3332C223.706 67.3332 224.315 67.2071 224.879 66.9548C225.451 66.6941 225.943 66.3031 226.355 65.7818L228.12 67.699C227.835 68.111 227.443 68.5062 226.947 68.8847C226.46 69.2631 225.871 69.5742 225.182 69.818C224.492 70.0535 223.706 70.1712 222.823 70.1712ZM234.326 50.5448V69.9189H230.681V50.5448H234.326ZM236.748 63.2339V62.969C236.748 61.9683 236.891 61.0476 237.177 60.2067C237.463 59.3574 237.879 58.6216 238.426 57.9993C238.972 57.3771 239.645 56.8936 240.444 56.5488C241.243 56.1956 242.159 56.019 243.193 56.019C244.228 56.019 245.148 56.1956 245.956 56.5488C246.763 56.8936 247.44 57.3771 247.986 57.9993C248.541 58.6216 248.962 59.3574 249.248 60.2067C249.534 61.0476 249.677 61.9683 249.677 62.969V63.2339C249.677 64.2261 249.534 65.1469 249.248 65.9962C248.962 66.8371 248.541 67.5729 247.986 68.2035C247.44 68.8258 246.767 69.3093 245.968 69.6541C245.169 69.9988 244.253 70.1712 243.219 70.1712C242.184 70.1712 241.264 69.9988 240.456 69.6541C239.657 69.3093 238.981 68.8258 238.426 68.2035C237.879 67.5729 237.463 66.8371 237.177 65.9962C236.891 65.1469 236.748 64.2261 236.748 63.2339ZM240.381 62.969V63.2339C240.381 63.8057 240.431 64.3396 240.532 64.8358C240.633 65.3319 240.793 65.7692 241.011 66.1476C241.238 66.5175 241.533 66.8077 241.894 67.0179C242.256 67.2281 242.697 67.3332 243.219 67.3332C243.723 67.3332 244.156 67.2281 244.518 67.0179C244.879 66.8077 245.169 66.5175 245.388 66.1476C245.607 65.7692 245.766 65.3319 245.867 64.8358C245.977 64.3396 246.031 63.8057 246.031 63.2339V62.969C246.031 62.414 245.977 61.8926 245.867 61.4049C245.766 60.9088 245.603 60.4715 245.375 60.0931C245.157 59.7063 244.867 59.4036 244.505 59.185C244.144 58.9664 243.706 58.857 243.193 58.857C242.68 58.857 242.243 58.9664 241.882 59.185C241.528 59.4036 241.238 59.7063 241.011 60.0931C240.793 60.4715 240.633 60.9088 240.532 61.4049C240.431 61.8926 240.381 62.414 240.381 62.969ZM255.542 58.8949V75.1661H251.909V56.2713H255.277L255.542 58.8949ZM264.182 62.9438V63.2086C264.182 64.2009 264.064 65.1217 263.829 65.971C263.602 66.8203 263.265 67.5602 262.82 68.1909C262.374 68.8132 261.819 69.3009 261.155 69.6541C260.499 69.9988 259.742 70.1712 258.884 70.1712C258.052 70.1712 257.329 70.003 256.715 69.6667C256.101 69.3303 255.584 68.8594 255.163 68.254C254.751 67.6401 254.419 66.9296 254.167 66.1223C253.915 65.3151 253.721 64.449 253.587 63.524V62.8302C253.721 61.838 253.915 60.9298 254.167 60.1058C254.419 59.2733 254.751 58.5543 255.163 57.9489C255.584 57.335 256.097 56.8599 256.702 56.5236C257.316 56.1872 258.035 56.019 258.859 56.019C259.725 56.019 260.486 56.183 261.142 56.511C261.806 56.8389 262.361 57.3098 262.807 57.9236C263.261 58.5375 263.602 59.2691 263.829 60.1184C264.064 60.9677 264.182 61.9095 264.182 62.9438ZM260.537 63.2086V62.9438C260.537 62.3635 260.486 61.8296 260.385 61.3419C260.293 60.8457 260.142 60.4127 259.931 60.0427C259.729 59.6727 259.46 59.3868 259.124 59.185C258.796 58.9748 258.397 58.8696 257.926 58.8696C257.43 58.8696 257.005 58.9495 256.652 59.1093C256.307 59.2691 256.025 59.5003 255.807 59.803C255.588 60.1058 255.424 60.4673 255.315 60.8878C255.205 61.3082 255.138 61.7833 255.113 62.3131V64.0663C255.155 64.6886 255.273 65.2478 255.466 65.7439C255.66 66.2316 255.958 66.6185 256.362 66.9044C256.765 67.1903 257.295 67.3332 257.951 67.3332C258.43 67.3332 258.834 67.2281 259.162 67.0179C259.49 66.7992 259.755 66.5007 259.957 66.1223C260.167 65.7439 260.314 65.3067 260.398 64.8105C260.49 64.3144 260.537 63.7804 260.537 63.2086Z" fill="#2C2C2C"/>
<path d="M104.102 51.1359L101.191 48.3598C100.674 47.831 99.8325 47.8969 99.3155 48.4258L86.183 62.6368C85.7299 63.1657 85.7299 63.9587 86.183 64.4876L99.3155 78.6986C99.8331 79.2275 100.674 79.2934 101.191 78.7646L104.102 75.9884C104.62 75.4596 104.684 74.6002 104.167 74.0718L94.4635 63.5624L104.167 53.0529C104.62 52.5241 104.62 51.6646 104.103 51.1358L104.102 51.1359Z" fill="#FF62C4"/>
<path d="M147.712 62.637L134.128 48.4258C133.593 47.8969 132.723 47.831 132.188 48.3598L129.177 51.136C128.642 51.6648 128.575 52.5243 129.11 53.0526L139.147 63.5622L129.11 74.0718C128.575 74.6006 128.642 75.4601 129.177 75.9884L132.188 78.7646C132.723 79.2934 133.593 79.2275 134.128 78.6986L147.712 64.4874C148.247 63.9585 148.247 63.1655 147.712 62.6366V62.637Z" fill="#FF62C4"/>
<path d="M122.904 46.9456L119.031 45.9645C118.321 45.7683 117.611 46.226 117.417 46.9456L109.412 78.5433C109.219 79.2629 109.67 79.9825 110.381 80.1787L114.254 81.1599C114.964 81.3561 115.674 80.8984 115.868 80.1787L123.873 48.5811C124.002 47.862 123.614 47.1424 122.904 46.9461L122.904 46.9456Z" fill="#FF62C4"/>
<path d="M408.301 39.6001L405.458 39.8115L407.426 24.0057L394.746 36.0201L392.984 34.1785L405.663 22.1641L389.699 23.3497L390.051 20.5358L408.658 19.151L408.385 21.3412L410.597 21.1767L408.301 39.6001Z" fill="#FF62C4"/>
</svg>
