<svg width="441" height="167" viewBox="0 0 441 167" fill="none" xmlns="http://www.w3.org/2000/svg">
<rect x="439.416" y="11.1404" width="154.292" height="416.519" rx="7.61081" transform="rotate(90 439.416 11.1404)" fill="#F1D1E5" stroke="#F1D1E5" stroke-width="1.38378"/>
<rect x="427.654" y="1.4541" width="154.292" height="426.205" rx="7.61081" transform="rotate(90 427.654 1.4541)" fill="#FFFFFF" stroke="#F1D1E5" stroke-width="1.38378"/>
<path d="M172.76 95.0217V84.9578H174.278V93.7146H178.838V95.0217H172.76ZM183.706 95.1741C182.962 95.1741 182.322 95.0152 181.784 94.6974C181.25 94.3764 180.838 93.9259 180.546 93.3461C180.258 92.7629 180.114 92.0799 180.114 91.2969C180.114 90.5238 180.258 89.8424 180.546 89.2527C180.838 88.663 181.244 88.2027 181.765 87.8719C182.289 87.541 182.901 87.3755 183.602 87.3755C184.028 87.3755 184.441 87.446 184.841 87.5868C185.24 87.7277 185.599 87.9488 185.917 88.2502C186.235 88.5516 186.485 88.9431 186.669 89.4247C186.852 89.903 186.944 90.4845 186.944 91.1691V91.69H180.944V90.5893H185.504C185.504 90.2027 185.426 89.8604 185.268 89.5623C185.111 89.2609 184.89 89.0234 184.605 88.8497C184.323 88.6761 183.992 88.5893 183.612 88.5893C183.2 88.5893 182.839 88.6909 182.531 88.894C182.227 89.0938 181.991 89.3559 181.824 89.6802C181.66 90.0013 181.578 90.3501 181.578 90.7269V91.5868C181.578 92.0913 181.666 92.5205 181.843 92.8743C182.023 93.2281 182.274 93.4984 182.595 93.6851C182.916 93.8686 183.291 93.9603 183.72 93.9603C183.999 93.9603 184.253 93.921 184.482 93.8424C184.711 93.7605 184.91 93.6393 185.077 93.4787C185.244 93.3182 185.371 93.12 185.46 92.8841L186.851 93.1348C186.739 93.5443 186.539 93.903 186.251 94.2109C185.966 94.5156 185.607 94.7531 185.175 94.9234C184.746 95.0905 184.256 95.1741 183.706 95.1741ZM190.771 95.1888C190.292 95.1888 189.86 95.1004 189.473 94.9234C189.087 94.7433 188.781 94.4828 188.555 94.1421C188.332 93.8014 188.22 93.3837 188.22 92.8891C188.22 92.4632 188.302 92.1126 188.466 91.8375C188.63 91.5623 188.851 91.3444 189.129 91.1839C189.408 91.0234 189.719 90.9022 190.063 90.8203C190.407 90.7384 190.758 90.6761 191.115 90.6335C191.567 90.5811 191.934 90.5385 192.215 90.5058C192.497 90.4697 192.702 90.4124 192.83 90.3338C192.957 90.2551 193.021 90.1274 193.021 89.9505V89.9161C193.021 89.4869 192.9 89.1544 192.658 88.9185C192.419 88.6827 192.062 88.5647 191.586 88.5647C191.092 88.5647 190.702 88.6745 190.417 88.894C190.135 89.1102 189.94 89.351 189.832 89.6163L188.451 89.3018C188.615 88.8432 188.854 88.473 189.169 88.1913C189.487 87.9062 189.852 87.6999 190.265 87.5721C190.677 87.4411 191.111 87.3755 191.567 87.3755C191.868 87.3755 192.188 87.4116 192.525 87.4836C192.866 87.5524 193.184 87.6802 193.478 87.8669C193.776 88.0537 194.021 88.3207 194.211 88.6679C194.401 89.0119 194.496 89.4591 194.496 90.0094V95.0217H193.061V93.9898H193.002C192.907 94.1798 192.764 94.3665 192.574 94.55C192.384 94.7334 192.14 94.8858 191.842 95.007C191.544 95.1282 191.187 95.1888 190.771 95.1888ZM191.09 94.0094C191.496 94.0094 191.844 93.9292 192.132 93.7687C192.424 93.6081 192.645 93.3985 192.795 93.1397C192.949 92.8776 193.026 92.5975 193.026 92.2994V91.3264C192.974 91.3788 192.872 91.428 192.722 91.4738C192.574 91.5164 192.405 91.5541 192.215 91.5868C192.025 91.6163 191.84 91.6442 191.66 91.6704C191.48 91.6933 191.329 91.713 191.208 91.7293C190.923 91.7654 190.663 91.826 190.427 91.9112C190.194 91.9963 190.007 92.1192 189.867 92.2797C189.729 92.437 189.66 92.6466 189.66 92.9087C189.66 93.2723 189.795 93.5475 190.063 93.7343C190.332 93.9177 190.674 94.0094 191.09 94.0094ZM196.453 95.0217V87.4738H197.873V88.6728H197.951C198.089 88.2666 198.331 87.9472 198.679 87.7146C199.029 87.4787 199.426 87.3608 199.868 87.3608C199.96 87.3608 200.068 87.3641 200.192 87.3706C200.32 87.3772 200.42 87.3854 200.492 87.3952V88.8006C200.433 88.7842 200.328 88.7662 200.177 88.7465C200.027 88.7236 199.876 88.7121 199.725 88.7121C199.378 88.7121 199.068 88.7859 198.797 88.9333C198.528 89.0774 198.315 89.2789 198.158 89.5377C198 89.7932 197.922 90.0848 197.922 90.4124V95.0217H196.453ZM203.233 90.5402V95.0217H201.763V87.4738H203.174V88.7023H203.267C203.441 88.3026 203.713 87.9816 204.083 87.7392C204.456 87.4967 204.926 87.3755 205.493 87.3755C206.007 87.3755 206.458 87.4836 206.844 87.6999C207.231 87.9128 207.531 88.2306 207.744 88.6532C207.957 89.0758 208.063 89.5983 208.063 90.2207V95.0217H206.594V90.3976C206.594 89.8506 206.451 89.423 206.166 89.1151C205.881 88.8039 205.49 88.6483 204.992 88.6483C204.651 88.6483 204.348 88.722 204.083 88.8694C203.821 89.0168 203.613 89.233 203.459 89.518C203.308 89.7998 203.233 90.1405 203.233 90.5402ZM215.892 95.1888C215.414 95.1888 214.982 95.1004 214.595 94.9234C214.209 94.7433 213.902 94.4828 213.676 94.1421C213.453 93.8014 213.342 93.3837 213.342 92.8891C213.342 92.4632 213.424 92.1126 213.588 91.8375C213.752 91.5623 213.973 91.3444 214.251 91.1839C214.53 91.0234 214.841 90.9022 215.185 90.8203C215.529 90.7384 215.879 90.6761 216.236 90.6335C216.688 90.5811 217.055 90.5385 217.337 90.5058C217.619 90.4697 217.824 90.4124 217.951 90.3338C218.079 90.2551 218.143 90.1274 218.143 89.9505V89.9161C218.143 89.4869 218.022 89.1544 217.779 88.9185C217.54 88.6827 217.183 88.5647 216.708 88.5647C216.213 88.5647 215.824 88.6745 215.539 88.894C215.257 89.1102 215.062 89.351 214.954 89.6163L213.573 89.3018C213.737 88.8432 213.976 88.473 214.29 88.1913C214.608 87.9062 214.973 87.6999 215.386 87.5721C215.799 87.4411 216.233 87.3755 216.688 87.3755C216.99 87.3755 217.309 87.4116 217.647 87.4836C217.987 87.5524 218.305 87.6802 218.6 87.8669C218.898 88.0537 219.142 88.3207 219.332 88.6679C219.522 89.0119 219.617 89.4591 219.617 90.0094V95.0217H218.182V93.9898H218.123C218.028 94.1798 217.886 94.3665 217.696 94.55C217.506 94.7334 217.262 94.8858 216.964 95.007C216.666 95.1282 216.308 95.1888 215.892 95.1888ZM216.212 94.0094C216.618 94.0094 216.965 93.9292 217.254 93.7687C217.545 93.6081 217.766 93.3985 217.917 93.1397C218.071 92.8776 218.148 92.5975 218.148 92.2994V91.3264C218.095 91.3788 217.994 91.428 217.843 91.4738C217.696 91.5164 217.527 91.5541 217.337 91.5868C217.147 91.6163 216.962 91.6442 216.782 91.6704C216.602 91.6933 216.451 91.713 216.33 91.7293C216.045 91.7654 215.784 91.826 215.548 91.9112C215.316 91.9963 215.129 92.1192 214.988 92.2797C214.851 92.437 214.782 92.6466 214.782 92.9087C214.782 93.2723 214.916 93.5475 215.185 93.7343C215.453 93.9177 215.796 94.0094 216.212 94.0094ZM221.692 95.0217V84.9578H223.161V88.6974H223.25C223.335 88.5402 223.458 88.3583 223.618 88.1519C223.779 87.9456 224.002 87.7654 224.287 87.6114C224.572 87.4542 224.948 87.3755 225.417 87.3755C226.026 87.3755 226.57 87.5295 227.048 87.8375C227.527 88.1454 227.902 88.5893 228.174 89.1691C228.449 89.749 228.586 90.4468 228.586 91.2625C228.586 92.0782 228.451 92.7777 228.179 93.3608C227.907 93.9406 227.533 94.3878 227.058 94.7023C226.583 95.0135 226.041 95.1691 225.432 95.1691C224.973 95.1691 224.598 95.0922 224.306 94.9382C224.018 94.7842 223.792 94.604 223.628 94.3976C223.464 94.1913 223.338 94.0078 223.25 93.8473H223.127V95.0217H221.692ZM223.132 91.2478C223.132 91.7785 223.209 92.2437 223.363 92.6434C223.517 93.043 223.74 93.3559 224.031 93.5819C224.323 93.8047 224.68 93.9161 225.102 93.9161C225.541 93.9161 225.908 93.7998 226.203 93.5672C226.498 93.3313 226.721 93.0119 226.871 92.609C227.025 92.206 227.102 91.7523 227.102 91.2478C227.102 90.7498 227.027 90.3026 226.876 89.9062C226.729 89.5099 226.506 89.197 226.208 88.9677C225.913 88.7384 225.545 88.6237 225.102 88.6237C224.677 88.6237 224.316 88.7334 224.021 88.9529C223.73 89.1724 223.509 89.4787 223.358 89.8719C223.207 90.265 223.132 90.7236 223.132 91.2478ZM233.416 95.1741C232.708 95.1741 232.091 95.0119 231.563 94.6876C231.036 94.3633 230.626 93.9095 230.335 93.3264C230.043 92.7433 229.897 92.0619 229.897 91.2822C229.897 90.4992 230.043 89.8145 230.335 89.2281C230.626 88.6417 231.036 88.1863 231.563 87.862C232.091 87.5377 232.708 87.3755 233.416 87.3755C234.123 87.3755 234.741 87.5377 235.268 87.862C235.796 88.1863 236.205 88.6417 236.497 89.2281C236.788 89.8145 236.934 90.4992 236.934 91.2822C236.934 92.0619 236.788 92.7433 236.497 93.3264C236.205 93.9095 235.796 94.3633 235.268 94.6876C234.741 95.0119 234.123 95.1741 233.416 95.1741ZM233.421 93.9406C233.879 93.9406 234.259 93.8194 234.561 93.577C234.862 93.3346 235.085 93.0119 235.229 92.609C235.376 92.206 235.45 91.7621 235.45 91.2773C235.45 90.7957 235.376 90.3534 235.229 89.9505C235.085 89.5443 234.862 89.2183 234.561 88.9726C234.259 88.7269 233.879 88.604 233.421 88.604C232.959 88.604 232.575 88.7269 232.271 88.9726C231.969 89.2183 231.745 89.5443 231.598 89.9505C231.453 90.3534 231.381 90.7957 231.381 91.2773C231.381 91.7621 231.453 92.206 231.598 92.609C231.745 93.0119 231.969 93.3346 232.271 93.577C232.575 93.8194 232.959 93.9406 233.421 93.9406ZM243.356 91.8915V87.4738H244.83V95.0217H243.385V93.7146H243.306C243.133 94.1176 242.854 94.4533 242.471 94.722C242.091 94.9873 241.618 95.12 241.051 95.12C240.566 95.12 240.137 95.0135 239.763 94.8006C239.393 94.5844 239.102 94.265 238.889 93.8424C238.679 93.4198 238.574 92.8972 238.574 92.2748V87.4738H240.043V92.0979C240.043 92.6122 240.186 93.0217 240.471 93.3264C240.756 93.6311 241.126 93.7834 241.582 93.7834C241.857 93.7834 242.13 93.7146 242.402 93.577C242.677 93.4394 242.905 93.2314 243.085 92.9529C243.269 92.6745 243.359 92.3207 243.356 91.8915ZM250.327 87.4738V88.6532H246.204V87.4738H250.327ZM247.31 85.6655H248.779V92.8055C248.779 93.0905 248.822 93.3051 248.907 93.4492C248.992 93.5901 249.102 93.6868 249.236 93.7392C249.374 93.7883 249.523 93.8129 249.684 93.8129C249.801 93.8129 249.905 93.8047 249.993 93.7883C250.082 93.7719 250.15 93.7588 250.2 93.749L250.465 94.9628C250.38 94.9955 250.258 95.0283 250.101 95.061C249.944 95.0971 249.747 95.1167 249.512 95.12C249.125 95.1266 248.765 95.0578 248.43 94.9136C248.096 94.7695 247.826 94.5467 247.62 94.2453C247.413 93.9439 247.31 93.5655 247.31 93.1102V85.6655ZM259.138 87.4738V88.6532H255.015V87.4738H259.138ZM256.121 85.6655H257.59V92.8055C257.59 93.0905 257.633 93.3051 257.718 93.4492C257.803 93.5901 257.913 93.6868 258.047 93.7392C258.185 93.7883 258.334 93.8129 258.494 93.8129C258.612 93.8129 258.715 93.8047 258.804 93.7883C258.892 93.7719 258.961 93.7588 259.01 93.749L259.276 94.9628C259.191 94.9955 259.069 95.0283 258.912 95.061C258.755 95.0971 258.558 95.1167 258.322 95.12C257.936 95.1266 257.575 95.0578 257.241 94.9136C256.907 94.7695 256.637 94.5467 256.43 94.2453C256.224 93.9439 256.121 93.5655 256.121 93.1102V85.6655ZM262.395 90.5402V95.0217H260.926V84.9578H262.375V88.7023H262.469C262.645 88.2961 262.916 87.9734 263.279 87.7343C263.643 87.4951 264.118 87.3755 264.704 87.3755C265.222 87.3755 265.674 87.482 266.061 87.6949C266.451 87.9079 266.752 88.2257 266.965 88.6483C267.181 89.0676 267.289 89.5918 267.289 90.2207V95.0217H265.82V90.3976C265.82 89.844 265.677 89.4148 265.392 89.1102C265.107 88.8022 264.711 88.6483 264.203 88.6483C263.856 88.6483 263.545 88.722 263.27 88.8694C262.998 89.0168 262.783 89.233 262.626 89.518C262.472 89.7998 262.395 90.1405 262.395 90.5402ZM272.503 95.1741C271.759 95.1741 271.119 95.0152 270.582 94.6974C270.048 94.3764 269.635 93.9259 269.343 93.3461C269.055 92.7629 268.911 92.0799 268.911 91.2969C268.911 90.5238 269.055 89.8424 269.343 89.2527C269.635 88.663 270.041 88.2027 270.562 87.8719C271.086 87.541 271.699 87.3755 272.4 87.3755C272.826 87.3755 273.238 87.446 273.638 87.5868C274.038 87.7277 274.396 87.9488 274.714 88.2502C275.032 88.5516 275.283 88.9431 275.466 89.4247C275.65 89.903 275.741 90.4845 275.741 91.1691V91.69H269.741V90.5893H274.301C274.301 90.2027 274.223 89.8604 274.066 89.5623C273.908 89.2609 273.687 89.0234 273.402 88.8497C273.12 88.6761 272.79 88.5893 272.41 88.5893C271.997 88.5893 271.636 88.6909 271.329 88.894C271.024 89.0938 270.788 89.3559 270.621 89.6802C270.457 90.0013 270.375 90.3501 270.375 90.7269V91.5868C270.375 92.0913 270.464 92.5205 270.641 92.8743C270.821 93.2281 271.071 93.4984 271.392 93.6851C271.713 93.8686 272.089 93.9603 272.518 93.9603C272.796 93.9603 273.05 93.921 273.279 93.8424C273.509 93.7605 273.707 93.6393 273.874 93.4787C274.041 93.3182 274.169 93.12 274.257 92.8841L275.648 93.1348C275.537 93.5443 275.337 93.903 275.048 94.2109C274.763 94.5156 274.405 94.7531 273.972 94.9234C273.543 95.0905 273.053 95.1741 272.503 95.1741ZM281.152 95.0217V84.9578H284.739C285.522 84.9578 286.17 85.1004 286.685 85.3854C287.199 85.6704 287.584 86.0602 287.84 86.5549C288.095 87.0463 288.223 87.5999 288.223 88.2158C288.223 88.835 288.093 89.3919 287.835 89.8866C287.579 90.378 287.193 90.7678 286.675 91.0561C286.161 91.3411 285.514 91.4836 284.734 91.4836H282.267V90.1962H284.596C285.091 90.1962 285.492 90.111 285.8 89.9406C286.108 89.767 286.334 89.5311 286.478 89.233C286.623 88.9349 286.695 88.5958 286.695 88.2158C286.695 87.8358 286.623 87.4984 286.478 87.2035C286.334 86.9087 286.107 86.6777 285.795 86.5107C285.487 86.3436 285.081 86.2601 284.577 86.2601H282.67V95.0217H281.152ZM292.014 95.1888C291.536 95.1888 291.103 95.1004 290.717 94.9234C290.33 94.7433 290.024 94.4828 289.798 94.1421C289.575 93.8014 289.464 93.3837 289.464 92.8891C289.464 92.4632 289.546 92.1126 289.709 91.8375C289.873 91.5623 290.094 91.3444 290.373 91.1839C290.651 91.0234 290.962 90.9022 291.306 90.8203C291.65 90.7384 292.001 90.6761 292.358 90.6335C292.81 90.5811 293.177 90.5385 293.459 90.5058C293.74 90.4697 293.945 90.4124 294.073 90.3338C294.201 90.2551 294.265 90.1274 294.265 89.9505V89.9161C294.265 89.4869 294.143 89.1544 293.901 88.9185C293.662 88.6827 293.305 88.5647 292.83 88.5647C292.335 88.5647 291.945 88.6745 291.66 88.894C291.378 89.1102 291.184 89.351 291.075 89.6163L289.695 89.3018C289.858 88.8432 290.098 88.473 290.412 88.1913C290.73 87.9062 291.095 87.6999 291.508 87.5721C291.921 87.4411 292.355 87.3755 292.81 87.3755C293.111 87.3755 293.431 87.4116 293.768 87.4836C294.109 87.5524 294.427 87.6802 294.722 87.8669C295.02 88.0537 295.264 88.3207 295.454 88.6679C295.644 89.0119 295.739 89.4591 295.739 90.0094V95.0217H294.304V93.9898H294.245C294.15 94.1798 294.007 94.3665 293.817 94.55C293.627 94.7334 293.383 94.8858 293.085 95.007C292.787 95.1282 292.43 95.1888 292.014 95.1888ZM292.333 94.0094C292.74 94.0094 293.087 93.9292 293.375 93.7687C293.667 93.6081 293.888 93.3985 294.039 93.1397C294.193 92.8776 294.27 92.5975 294.27 92.2994V91.3264C294.217 91.3788 294.116 91.428 293.965 91.4738C293.817 91.5164 293.649 91.5541 293.459 91.5868C293.269 91.6163 293.084 91.6442 292.903 91.6704C292.723 91.6933 292.573 91.713 292.451 91.7293C292.166 91.7654 291.906 91.826 291.67 91.9112C291.437 91.9963 291.251 92.1192 291.11 92.2797C290.972 92.437 290.903 92.6466 290.903 92.9087C290.903 93.2723 291.038 93.5475 291.306 93.7343C291.575 93.9177 291.917 94.0094 292.333 94.0094ZM299.165 84.9578V95.0217H297.696V84.9578H299.165ZM304.321 95.1741C303.614 95.1741 302.996 95.0119 302.469 94.6876C301.941 94.3633 301.532 93.9095 301.24 93.3264C300.948 92.7433 300.803 92.0619 300.803 91.2822C300.803 90.4992 300.948 89.8145 301.24 89.2281C301.532 88.6417 301.941 88.1863 302.469 87.862C302.996 87.5377 303.614 87.3755 304.321 87.3755C305.029 87.3755 305.646 87.5377 306.174 87.862C306.701 88.1863 307.111 88.6417 307.402 89.2281C307.694 89.8145 307.84 90.4992 307.84 91.2822C307.84 92.0619 307.694 92.7433 307.402 93.3264C307.111 93.9095 306.701 94.3633 306.174 94.6876C305.646 95.0119 305.029 95.1741 304.321 95.1741ZM304.326 93.9406C304.785 93.9406 305.165 93.8194 305.466 93.577C305.767 93.3346 305.99 93.0119 306.134 92.609C306.282 92.206 306.356 91.7621 306.356 91.2773C306.356 90.7957 306.282 90.3534 306.134 89.9505C305.99 89.5443 305.767 89.2183 305.466 88.9726C305.165 88.7269 304.785 88.604 304.326 88.604C303.864 88.604 303.481 88.7269 303.176 88.9726C302.875 89.2183 302.65 89.5443 302.503 89.9505C302.359 90.3534 302.287 90.7957 302.287 91.2773C302.287 91.7621 302.359 92.206 302.503 92.609C302.65 93.0119 302.875 93.3346 303.176 93.577C303.481 93.8194 303.864 93.9406 304.326 93.9406ZM309.48 95.0217V87.4738H310.89V88.7023H310.983C311.141 88.2863 311.398 87.9619 311.755 87.7293C312.112 87.4935 312.539 87.3755 313.037 87.3755C313.542 87.3755 313.964 87.4935 314.305 87.7293C314.649 87.9652 314.903 88.2895 315.067 88.7023H315.145C315.326 88.2994 315.612 87.9783 316.005 87.7392C316.399 87.4967 316.867 87.3755 317.411 87.3755C318.096 87.3755 318.654 87.5901 319.086 88.0193C319.522 88.4484 319.74 89.0954 319.74 89.9603V95.0217H318.271V90.0979C318.271 89.5868 318.132 89.2167 317.853 88.9873C317.575 88.758 317.242 88.6433 316.856 88.6433C316.377 88.6433 316.005 88.7908 315.74 89.0856C315.475 89.3772 315.342 89.7523 315.342 90.2109V95.0217H313.878V90.0045C313.878 89.595 313.75 89.2658 313.494 89.0168C313.239 88.7678 312.906 88.6433 312.497 88.6433C312.218 88.6433 311.961 88.7171 311.725 88.8645C311.493 89.0086 311.304 89.2101 311.16 89.4689C311.019 89.7277 310.949 90.0275 310.949 90.3682V95.0217H309.48ZM323.906 95.1888C323.428 95.1888 322.995 95.1004 322.609 94.9234C322.222 94.7433 321.916 94.4828 321.69 94.1421C321.467 93.8014 321.356 93.3837 321.356 92.8891C321.356 92.4632 321.437 92.1126 321.601 91.8375C321.765 91.5623 321.986 91.3444 322.265 91.1839C322.543 91.0234 322.854 90.9022 323.198 90.8203C323.542 90.7384 323.893 90.6761 324.25 90.6335C324.702 90.5811 325.069 90.5385 325.351 90.5058C325.632 90.4697 325.837 90.4124 325.965 90.3338C326.093 90.2551 326.157 90.1274 326.157 89.9505V89.9161C326.157 89.4869 326.035 89.1544 325.793 88.9185C325.554 88.6827 325.197 88.5647 324.722 88.5647C324.227 88.5647 323.837 88.6745 323.552 88.894C323.27 89.1102 323.075 89.351 322.967 89.6163L321.586 89.3018C321.75 88.8432 321.989 88.473 322.304 88.1913C322.622 87.9062 322.987 87.6999 323.4 87.5721C323.813 87.4411 324.247 87.3755 324.702 87.3755C325.003 87.3755 325.323 87.4116 325.66 87.4836C326.001 87.5524 326.319 87.6802 326.614 87.8669C326.912 88.0537 327.156 88.3207 327.346 88.6679C327.536 89.0119 327.631 89.4591 327.631 90.0094V95.0217H326.196V93.9898H326.137C326.042 94.1798 325.899 94.3665 325.709 94.55C325.519 94.7334 325.275 94.8858 324.977 95.007C324.679 95.1282 324.322 95.1888 323.906 95.1888ZM324.225 94.0094C324.632 94.0094 324.979 93.9292 325.267 93.7687C325.559 93.6081 325.78 93.3985 325.93 93.1397C326.084 92.8776 326.161 92.5975 326.161 92.2994V91.3264C326.109 91.3788 326.007 91.428 325.857 91.4738C325.709 91.5164 325.541 91.5541 325.351 91.5868C325.161 91.6163 324.976 91.6442 324.795 91.6704C324.615 91.6933 324.464 91.713 324.343 91.7293C324.058 91.7654 323.798 91.826 323.562 91.9112C323.329 91.9963 323.143 92.1192 323.002 92.2797C322.864 92.437 322.795 92.6466 322.795 92.9087C322.795 93.2723 322.93 93.5475 323.198 93.7343C323.467 93.9177 323.809 94.0094 324.225 94.0094ZM176.018 112.022H172.76V101.958H176.121C177.107 101.958 177.954 102.159 178.661 102.562C179.369 102.962 179.911 103.537 180.288 104.287C180.668 105.034 180.858 105.93 180.858 106.975C180.858 108.023 180.666 108.924 180.283 109.678C179.903 110.431 179.353 111.011 178.632 111.417C177.911 111.82 177.04 112.022 176.018 112.022ZM174.278 110.695H175.934C176.701 110.695 177.338 110.551 177.846 110.263C178.353 109.971 178.733 109.55 178.986 109C179.238 108.446 179.364 107.771 179.364 106.975C179.364 106.186 179.238 105.516 178.986 104.965C178.737 104.415 178.365 103.997 177.87 103.712C177.376 103.427 176.761 103.285 176.028 103.285H174.278V110.695ZM184.825 112.189C184.347 112.189 183.914 112.1 183.528 111.923C183.141 111.743 182.835 111.483 182.609 111.142C182.386 110.801 182.274 110.384 182.274 109.889C182.274 109.463 182.356 109.113 182.52 108.837C182.684 108.562 182.905 108.344 183.184 108.184C183.462 108.023 183.773 107.902 184.117 107.82C184.461 107.738 184.812 107.676 185.169 107.634C185.621 107.581 185.988 107.539 186.27 107.506C186.551 107.47 186.756 107.412 186.884 107.334C187.012 107.255 187.075 107.127 187.075 106.95V106.916C187.075 106.487 186.954 106.154 186.712 105.919C186.473 105.683 186.116 105.565 185.641 105.565C185.146 105.565 184.756 105.674 184.471 105.894C184.189 106.11 183.994 106.351 183.886 106.616L182.505 106.302C182.669 105.843 182.908 105.473 183.223 105.191C183.541 104.906 183.906 104.7 184.319 104.572C184.731 104.441 185.166 104.376 185.621 104.376C185.922 104.376 186.242 104.412 186.579 104.484C186.92 104.552 187.238 104.68 187.532 104.867C187.831 105.054 188.075 105.321 188.265 105.668C188.455 106.012 188.55 106.459 188.55 107.009V112.022H187.115V110.99H187.056C186.961 111.18 186.818 111.367 186.628 111.55C186.438 111.733 186.194 111.886 185.896 112.007C185.598 112.128 185.241 112.189 184.825 112.189ZM185.144 111.009C185.55 111.009 185.898 110.929 186.186 110.769C186.478 110.608 186.699 110.398 186.849 110.14C187.003 109.878 187.08 109.597 187.08 109.299V108.326C187.028 108.379 186.926 108.428 186.776 108.474C186.628 108.516 186.46 108.554 186.27 108.587C186.08 108.616 185.894 108.644 185.714 108.67C185.534 108.693 185.383 108.713 185.262 108.729C184.977 108.765 184.717 108.826 184.481 108.911C184.248 108.996 184.062 109.119 183.921 109.28C183.783 109.437 183.714 109.647 183.714 109.909C183.714 110.272 183.849 110.548 184.117 110.734C184.386 110.918 184.728 111.009 185.144 111.009ZM193.76 112.174C193.016 112.174 192.376 112.015 191.838 111.697C191.304 111.376 190.892 110.926 190.6 110.346C190.312 109.763 190.168 109.08 190.168 108.297C190.168 107.524 190.312 106.842 190.6 106.253C190.892 105.663 191.298 105.203 191.819 104.872C192.343 104.541 192.955 104.376 193.657 104.376C194.082 104.376 194.495 104.446 194.895 104.587C195.295 104.728 195.653 104.949 195.971 105.25C196.289 105.552 196.539 105.943 196.723 106.425C196.906 106.903 196.998 107.484 196.998 108.169V108.69H190.998V107.589H195.558C195.558 107.203 195.48 106.86 195.322 106.562C195.165 106.261 194.944 106.023 194.659 105.85C194.377 105.676 194.046 105.589 193.666 105.589C193.254 105.589 192.893 105.691 192.585 105.894C192.281 106.094 192.045 106.356 191.878 106.68C191.714 107.001 191.632 107.35 191.632 107.727V108.587C191.632 109.091 191.72 109.52 191.897 109.874C192.077 110.228 192.328 110.498 192.649 110.685C192.97 110.869 193.345 110.96 193.774 110.96C194.053 110.96 194.307 110.921 194.536 110.842C194.765 110.76 194.964 110.639 195.131 110.479C195.298 110.318 195.426 110.12 195.514 109.884L196.905 110.135C196.793 110.544 196.593 110.903 196.305 111.211C196.02 111.516 195.661 111.753 195.229 111.923C194.8 112.091 194.31 112.174 193.76 112.174ZM198.628 112.022V104.474H200.039V105.702H200.132C200.289 105.286 200.546 104.962 200.903 104.729C201.261 104.493 201.688 104.376 202.186 104.376C202.69 104.376 203.113 104.493 203.454 104.729C203.798 104.965 204.052 105.29 204.215 105.702H204.294C204.474 105.299 204.761 104.978 205.154 104.739C205.547 104.497 206.016 104.376 206.559 104.376C207.244 104.376 207.803 104.59 208.235 105.019C208.671 105.448 208.889 106.095 208.889 106.96V112.022H207.419V107.098C207.419 106.587 207.28 106.217 207.002 105.987C206.723 105.758 206.391 105.643 206.004 105.643C205.526 105.643 205.154 105.791 204.889 106.086C204.623 106.377 204.491 106.752 204.491 107.211V112.022H203.026V107.005C203.026 106.595 202.899 106.266 202.643 106.017C202.387 105.768 202.055 105.643 201.645 105.643C201.367 105.643 201.11 105.717 200.874 105.864C200.641 106.009 200.453 106.21 200.309 106.469C200.168 106.728 200.098 107.027 200.098 107.368V112.022H198.628ZM214.037 112.174C213.33 112.174 212.712 112.012 212.185 111.688C211.657 111.363 211.248 110.91 210.956 110.326C210.665 109.743 210.519 109.062 210.519 108.282C210.519 107.499 210.665 106.815 210.956 106.228C211.248 105.642 211.657 105.186 212.185 104.862C212.712 104.538 213.33 104.376 214.037 104.376C214.745 104.376 215.362 104.538 215.89 104.862C216.417 105.186 216.827 105.642 217.118 106.228C217.41 106.815 217.556 107.499 217.556 108.282C217.556 109.062 217.41 109.743 217.118 110.326C216.827 110.91 216.417 111.363 215.89 111.688C215.362 112.012 214.745 112.174 214.037 112.174ZM214.042 110.941C214.501 110.941 214.881 110.819 215.182 110.577C215.484 110.335 215.706 110.012 215.851 109.609C215.998 109.206 216.072 108.762 216.072 108.277C216.072 107.796 215.998 107.353 215.851 106.95C215.706 106.544 215.484 106.218 215.182 105.973C214.881 105.727 214.501 105.604 214.042 105.604C213.58 105.604 213.197 105.727 212.892 105.973C212.591 106.218 212.367 106.544 212.219 106.95C212.075 107.353 212.003 107.796 212.003 108.277C212.003 108.762 212.075 109.206 212.219 109.609C212.367 110.012 212.591 110.335 212.892 110.577C213.197 110.819 213.58 110.941 214.042 110.941ZM220.665 107.54V112.022H219.196V104.474H220.606V105.702H220.7C220.873 105.303 221.145 104.982 221.515 104.739C221.889 104.497 222.359 104.376 222.926 104.376C223.44 104.376 223.89 104.484 224.277 104.7C224.663 104.913 224.963 105.231 225.176 105.653C225.389 106.076 225.496 106.598 225.496 107.221V112.022H224.026V107.398C224.026 106.851 223.884 106.423 223.599 106.115C223.314 105.804 222.922 105.648 222.424 105.648C222.084 105.648 221.781 105.722 221.515 105.869C221.253 106.017 221.045 106.233 220.891 106.518C220.74 106.8 220.665 107.14 220.665 107.54ZM229.378 110.646L229.304 111.181C229.255 111.575 229.171 111.984 229.053 112.41C228.939 112.839 228.819 113.237 228.695 113.604C228.573 113.971 228.473 114.263 228.395 114.479H227.353C227.396 114.276 227.455 114 227.53 113.653C227.605 113.309 227.679 112.924 227.751 112.498C227.823 112.073 227.877 111.638 227.913 111.196L227.962 110.646H229.378ZM243.429 105.231H241.896C241.837 104.903 241.727 104.615 241.567 104.366C241.406 104.117 241.21 103.905 240.977 103.732C240.745 103.558 240.484 103.427 240.196 103.339C239.911 103.25 239.608 103.206 239.287 103.206C238.707 103.206 238.188 103.352 237.729 103.643C237.274 103.935 236.913 104.362 236.648 104.926C236.386 105.489 236.255 106.177 236.255 106.99C236.255 107.809 236.386 108.5 236.648 109.063C236.913 109.627 237.275 110.053 237.734 110.341C238.193 110.629 238.709 110.774 239.282 110.774C239.6 110.774 239.901 110.731 240.186 110.646C240.474 110.557 240.735 110.428 240.967 110.258C241.2 110.087 241.396 109.879 241.557 109.634C241.721 109.385 241.834 109.1 241.896 108.778L243.429 108.783C243.347 109.278 243.188 109.733 242.953 110.149C242.72 110.562 242.42 110.919 242.053 111.221C241.69 111.519 241.274 111.75 240.805 111.914C240.337 112.077 239.826 112.159 239.272 112.159C238.401 112.159 237.624 111.953 236.943 111.54C236.261 111.124 235.724 110.53 235.331 109.756C234.941 108.983 234.746 108.061 234.746 106.99C234.746 105.915 234.943 104.993 235.336 104.223C235.729 103.45 236.266 102.857 236.948 102.444C237.629 102.028 238.404 101.82 239.272 101.82C239.806 101.82 240.304 101.897 240.766 102.051C241.231 102.202 241.649 102.425 242.019 102.72C242.389 103.011 242.695 103.368 242.938 103.791C243.18 104.21 243.344 104.69 243.429 105.231ZM245.246 112.022V101.958H246.765V110.715H251.325V112.022H245.246ZM254.575 101.958V112.022H253.057V101.958H254.575ZM258.58 110.646L258.507 111.181C258.457 111.575 258.374 111.984 258.256 112.41C258.141 112.839 258.022 113.237 257.897 113.604C257.776 113.971 257.676 114.263 257.598 114.479H256.556C256.598 114.276 256.657 114 256.733 113.653C256.808 113.309 256.882 112.924 256.954 112.498C257.026 112.073 257.08 111.638 257.116 111.196L257.165 110.646H258.58ZM269.762 104.602C269.71 104.136 269.494 103.776 269.114 103.52C268.734 103.262 268.255 103.132 267.679 103.132C267.266 103.132 266.909 103.198 266.607 103.329C266.306 103.457 266.072 103.634 265.905 103.86C265.741 104.082 265.659 104.336 265.659 104.621C265.659 104.86 265.715 105.067 265.826 105.24C265.941 105.414 266.09 105.56 266.273 105.678C266.46 105.792 266.66 105.889 266.873 105.968C267.086 106.043 267.29 106.105 267.487 106.154L268.47 106.41C268.791 106.489 269.12 106.595 269.457 106.729C269.795 106.864 270.108 107.041 270.396 107.26C270.684 107.48 270.917 107.751 271.094 108.076C271.274 108.4 271.364 108.788 271.364 109.24C271.364 109.81 271.217 110.317 270.922 110.759C270.63 111.201 270.206 111.55 269.649 111.806C269.096 112.061 268.426 112.189 267.639 112.189C266.886 112.189 266.234 112.069 265.684 111.83C265.133 111.591 264.702 111.252 264.391 110.813C264.08 110.371 263.908 109.846 263.875 109.24H265.399C265.428 109.604 265.546 109.907 265.752 110.149C265.962 110.389 266.229 110.567 266.553 110.685C266.881 110.8 267.24 110.857 267.629 110.857C268.059 110.857 268.44 110.79 268.774 110.656C269.112 110.518 269.377 110.328 269.571 110.086C269.764 109.84 269.86 109.553 269.86 109.226C269.86 108.928 269.775 108.683 269.605 108.493C269.438 108.303 269.21 108.146 268.922 108.022C268.637 107.897 268.314 107.787 267.954 107.692L266.765 107.368C265.959 107.149 265.32 106.826 264.848 106.4C264.38 105.974 264.145 105.411 264.145 104.71C264.145 104.13 264.303 103.624 264.617 103.191C264.932 102.759 265.358 102.423 265.895 102.184C266.432 101.941 267.038 101.82 267.713 101.82C268.394 101.82 268.996 101.94 269.516 102.179C270.041 102.418 270.453 102.747 270.755 103.167C271.056 103.583 271.213 104.061 271.227 104.602H269.762ZM276.437 112.022H273.179V101.958H276.54C277.526 101.958 278.373 102.159 279.08 102.562C279.788 102.962 280.33 103.537 280.707 104.287C281.087 105.034 281.277 105.93 281.277 106.975C281.277 108.023 281.085 108.924 280.702 109.678C280.322 110.431 279.772 111.011 279.051 111.417C278.33 111.82 277.459 112.022 276.437 112.022ZM274.697 110.695H276.353C277.12 110.695 277.757 110.551 278.265 110.263C278.772 109.971 279.152 109.55 279.405 109C279.657 108.446 279.783 107.771 279.783 106.975C279.783 106.186 279.657 105.516 279.405 104.965C279.156 104.415 278.784 103.997 278.289 103.712C277.795 103.427 277.18 103.285 276.446 103.285H274.697V110.695ZM283.165 112.022V101.958H284.684V106.764H284.806L289.028 101.958H290.939L286.88 106.489L290.954 112.022H289.126L285.873 107.525L284.684 108.892V112.022H283.165ZM297.892 106.317L296.561 106.552C296.505 106.382 296.417 106.22 296.295 106.066C296.177 105.912 296.017 105.786 295.814 105.688C295.611 105.589 295.357 105.54 295.052 105.54C294.636 105.54 294.289 105.634 294.01 105.82C293.732 106.004 293.593 106.241 293.593 106.533C293.593 106.785 293.686 106.988 293.873 107.142C294.059 107.296 294.361 107.422 294.777 107.52L295.976 107.796C296.67 107.956 297.188 108.204 297.529 108.538C297.869 108.872 298.04 109.306 298.04 109.84C298.04 110.292 297.909 110.695 297.647 111.049C297.388 111.399 297.026 111.674 296.561 111.874C296.099 112.074 295.563 112.174 294.954 112.174C294.109 112.174 293.419 111.994 292.885 111.634C292.351 111.27 292.023 110.754 291.902 110.086L293.322 109.869C293.411 110.24 293.593 110.52 293.868 110.71C294.143 110.896 294.502 110.99 294.944 110.99C295.426 110.99 295.81 110.89 296.099 110.69C296.387 110.487 296.531 110.24 296.531 109.948C296.531 109.712 296.443 109.514 296.266 109.353C296.092 109.193 295.825 109.072 295.465 108.99L294.187 108.71C293.483 108.549 292.962 108.294 292.625 107.943C292.29 107.593 292.123 107.149 292.123 106.611C292.123 106.166 292.248 105.776 292.497 105.442C292.746 105.108 293.09 104.847 293.529 104.661C293.968 104.471 294.471 104.376 295.037 104.376C295.853 104.376 296.495 104.552 296.964 104.906C297.432 105.257 297.742 105.727 297.892 106.317ZM301.567 110.646L301.493 111.181C301.444 111.575 301.36 111.984 301.243 112.41C301.128 112.839 301.008 113.237 300.884 113.604C300.763 113.971 300.663 114.263 300.584 114.479H299.542C299.585 114.276 299.644 114 299.719 113.653C299.795 113.309 299.868 112.924 299.94 112.498C300.012 112.073 300.066 111.638 300.102 111.196L300.152 110.646H301.567ZM309.338 112.189C308.86 112.189 308.428 112.1 308.041 111.923C307.654 111.743 307.348 111.483 307.122 111.142C306.899 110.801 306.788 110.384 306.788 109.889C306.788 109.463 306.87 109.113 307.034 108.837C307.197 108.562 307.419 108.344 307.697 108.184C307.976 108.023 308.287 107.902 308.631 107.82C308.975 107.738 309.325 107.676 309.682 107.634C310.134 107.581 310.501 107.539 310.783 107.506C311.065 107.47 311.27 107.412 311.397 107.334C311.525 107.255 311.589 107.127 311.589 106.95V106.916C311.589 106.487 311.468 106.154 311.225 105.919C310.986 105.683 310.629 105.565 310.154 105.565C309.659 105.565 309.27 105.674 308.985 105.894C308.703 106.11 308.508 106.351 308.4 106.616L307.019 106.302C307.183 105.843 307.422 105.473 307.736 105.191C308.054 104.906 308.419 104.7 308.832 104.572C309.245 104.441 309.679 104.376 310.134 104.376C310.436 104.376 310.755 104.412 311.093 104.484C311.433 104.552 311.751 104.68 312.046 104.867C312.344 105.054 312.588 105.321 312.778 105.668C312.968 106.012 313.063 106.459 313.063 107.009V112.022H311.628V110.99H311.569C311.474 111.18 311.332 111.367 311.142 111.55C310.952 111.733 310.708 111.886 310.41 112.007C310.111 112.128 309.754 112.189 309.338 112.189ZM309.658 111.009C310.064 111.009 310.411 110.929 310.7 110.769C310.991 110.608 311.212 110.398 311.363 110.14C311.517 109.878 311.594 109.597 311.594 109.299V108.326C311.541 108.379 311.44 108.428 311.289 108.474C311.142 108.516 310.973 108.554 310.783 108.587C310.593 108.616 310.408 108.644 310.228 108.67C310.048 108.693 309.897 108.713 309.776 108.729C309.491 108.765 309.23 108.826 308.994 108.911C308.762 108.996 308.575 109.119 308.434 109.28C308.297 109.437 308.228 109.647 308.228 109.909C308.228 110.272 308.362 110.548 308.631 110.734C308.899 110.918 309.242 111.009 309.658 111.009ZM316.489 107.54V112.022H315.02V104.474H316.43V105.702H316.524C316.697 105.303 316.969 104.982 317.34 104.739C317.713 104.497 318.183 104.376 318.75 104.376C319.264 104.376 319.715 104.484 320.101 104.7C320.488 104.913 320.788 105.231 321 105.653C321.213 106.076 321.32 106.598 321.32 107.221V112.022H319.851V107.398C319.851 106.851 319.708 106.423 319.423 106.115C319.138 105.804 318.747 105.648 318.249 105.648C317.908 105.648 317.605 105.722 317.34 105.869C317.077 106.017 316.869 106.233 316.715 106.518C316.565 106.8 316.489 107.14 316.489 107.54ZM326.116 112.169C325.507 112.169 324.963 112.014 324.485 111.702C324.01 111.388 323.636 110.941 323.364 110.361C323.095 109.778 322.961 109.078 322.961 108.263C322.961 107.447 323.097 106.749 323.369 106.169C323.644 105.589 324.021 105.145 324.499 104.837C324.978 104.53 325.52 104.376 326.126 104.376C326.594 104.376 326.971 104.454 327.256 104.611C327.544 104.765 327.767 104.946 327.924 105.152C328.085 105.358 328.209 105.54 328.298 105.697H328.386V101.958H329.856V112.022H328.421V110.847H328.298C328.209 111.008 328.082 111.191 327.914 111.398C327.751 111.604 327.525 111.784 327.236 111.938C326.948 112.092 326.575 112.169 326.116 112.169ZM326.44 110.916C326.863 110.916 327.22 110.805 327.512 110.582C327.806 110.356 328.029 110.043 328.18 109.643C328.334 109.244 328.411 108.778 328.411 108.248C328.411 107.724 328.335 107.265 328.185 106.872C328.034 106.479 327.813 106.172 327.521 105.953C327.23 105.733 326.869 105.624 326.44 105.624C325.998 105.624 325.629 105.738 325.335 105.968C325.04 106.197 324.817 106.51 324.666 106.906C324.519 107.303 324.445 107.75 324.445 108.248C324.445 108.752 324.521 109.206 324.671 109.609C324.822 110.012 325.045 110.331 325.34 110.567C325.638 110.8 326.005 110.916 326.44 110.916ZM172.642 129.022V121.474H174.052V122.702H174.145C174.303 122.286 174.56 121.962 174.917 121.729C175.274 121.493 175.702 121.376 176.2 121.376C176.704 121.376 177.127 121.493 177.467 121.729C177.811 121.965 178.065 122.29 178.229 122.702H178.308C178.488 122.299 178.774 121.978 179.168 121.739C179.561 121.497 180.029 121.376 180.573 121.376C181.258 121.376 181.816 121.59 182.249 122.019C182.684 122.448 182.902 123.095 182.902 123.96V129.022H181.433V124.098C181.433 123.587 181.294 123.217 181.015 122.987C180.737 122.758 180.404 122.643 180.018 122.643C179.539 122.643 179.168 122.791 178.902 123.086C178.637 123.377 178.504 123.752 178.504 124.211V129.022H177.04V124.005C177.04 123.595 176.912 123.266 176.657 123.017C176.401 122.768 176.068 122.643 175.659 122.643C175.381 122.643 175.123 122.717 174.887 122.864C174.655 123.009 174.467 123.21 174.322 123.469C174.181 123.728 174.111 124.027 174.111 124.368V129.022H172.642ZM188.051 129.174C187.343 129.174 186.726 129.012 186.198 128.688C185.671 128.363 185.261 127.91 184.97 127.326C184.678 126.743 184.532 126.062 184.532 125.282C184.532 124.499 184.678 123.815 184.97 123.228C185.261 122.642 185.671 122.186 186.198 121.862C186.726 121.538 187.343 121.376 188.051 121.376C188.758 121.376 189.376 121.538 189.903 121.862C190.431 122.186 190.84 122.642 191.132 123.228C191.424 123.815 191.569 124.499 191.569 125.282C191.569 126.062 191.424 126.743 191.132 127.326C190.84 127.91 190.431 128.363 189.903 128.688C189.376 129.012 188.758 129.174 188.051 129.174ZM188.056 127.941C188.514 127.941 188.894 127.819 189.196 127.577C189.497 127.335 189.72 127.012 189.864 126.609C190.012 126.206 190.085 125.762 190.085 125.277C190.085 124.796 190.012 124.353 189.864 123.95C189.72 123.544 189.497 123.218 189.196 122.973C188.894 122.727 188.514 122.604 188.056 122.604C187.594 122.604 187.211 122.727 186.906 122.973C186.605 123.218 186.38 123.544 186.233 123.95C186.089 124.353 186.016 124.796 186.016 125.277C186.016 125.762 186.089 126.206 186.233 126.609C186.38 127.012 186.605 127.335 186.906 127.577C187.211 127.819 187.594 127.941 188.056 127.941ZM196.035 129.169C195.426 129.169 194.882 129.014 194.403 128.702C193.928 128.388 193.555 127.941 193.283 127.361C193.014 126.778 192.88 126.078 192.88 125.263C192.88 124.447 193.016 123.749 193.288 123.169C193.563 122.589 193.94 122.145 194.418 121.837C194.896 121.53 195.439 121.376 196.045 121.376C196.513 121.376 196.89 121.454 197.175 121.611C197.463 121.765 197.686 121.946 197.843 122.152C198.004 122.358 198.128 122.54 198.217 122.697H198.305V118.958H199.774V129.022H198.34V127.847H198.217C198.128 128.008 198 128.191 197.833 128.398C197.67 128.604 197.444 128.784 197.155 128.938C196.867 129.092 196.494 129.169 196.035 129.169ZM196.359 127.916C196.782 127.916 197.139 127.805 197.43 127.582C197.725 127.356 197.948 127.043 198.099 126.643C198.253 126.244 198.33 125.778 198.33 125.248C198.33 124.724 198.254 124.265 198.104 123.872C197.953 123.479 197.732 123.172 197.44 122.953C197.149 122.733 196.788 122.624 196.359 122.624C195.917 122.624 195.548 122.738 195.254 122.968C194.959 123.197 194.736 123.51 194.585 123.906C194.438 124.303 194.364 124.75 194.364 125.248C194.364 125.752 194.439 126.206 194.59 126.609C194.741 127.012 194.964 127.331 195.258 127.567C195.557 127.8 195.924 127.916 196.359 127.916ZM206.653 125.892V121.474H208.127V129.022H206.682V127.715H206.604C206.43 128.118 206.152 128.453 205.768 128.722C205.388 128.987 204.915 129.12 204.348 129.12C203.863 129.12 203.434 129.014 203.061 128.801C202.69 128.584 202.399 128.265 202.186 127.842C201.976 127.42 201.871 126.897 201.871 126.275V121.474H203.341V126.098C203.341 126.612 203.483 127.022 203.768 127.326C204.053 127.631 204.424 127.783 204.879 127.783C205.154 127.783 205.428 127.715 205.7 127.577C205.975 127.439 206.202 127.231 206.383 126.953C206.566 126.674 206.656 126.321 206.653 125.892ZM211.571 118.958V129.022H210.101V118.958H211.571ZM216.8 129.174C216.057 129.174 215.416 129.015 214.879 128.697C214.345 128.376 213.932 127.926 213.641 127.346C213.352 126.763 213.208 126.08 213.208 125.297C213.208 124.524 213.352 123.842 213.641 123.253C213.932 122.663 214.338 122.203 214.859 121.872C215.383 121.541 215.996 121.376 216.697 121.376C217.123 121.376 217.536 121.446 217.935 121.587C218.335 121.728 218.694 121.949 219.012 122.25C219.329 122.552 219.58 122.943 219.763 123.425C219.947 123.903 220.039 124.484 220.039 125.169V125.69H214.039V124.589H218.599C218.599 124.203 218.52 123.86 218.363 123.562C218.206 123.261 217.985 123.023 217.7 122.85C217.418 122.676 217.087 122.589 216.707 122.589C216.294 122.589 215.934 122.691 215.626 122.894C215.321 123.094 215.085 123.356 214.918 123.68C214.754 124.001 214.672 124.35 214.672 124.727V125.587C214.672 126.091 214.761 126.52 214.938 126.874C215.118 127.228 215.369 127.498 215.69 127.685C216.011 127.869 216.386 127.96 216.815 127.96C217.093 127.96 217.347 127.921 217.577 127.842C217.806 127.76 218.004 127.639 218.171 127.479C218.338 127.318 218.466 127.12 218.555 126.884L219.945 127.135C219.834 127.544 219.634 127.903 219.346 128.211C219.061 128.516 218.702 128.753 218.27 128.923C217.84 129.091 217.351 129.174 216.8 129.174ZM227.325 123.317L225.993 123.552C225.937 123.382 225.849 123.22 225.728 123.066C225.61 122.912 225.449 122.786 225.246 122.688C225.043 122.589 224.789 122.54 224.485 122.54C224.068 122.54 223.721 122.634 223.443 122.82C223.164 123.004 223.025 123.241 223.025 123.533C223.025 123.785 223.118 123.988 223.305 124.142C223.492 124.296 223.793 124.422 224.209 124.52L225.408 124.796C226.103 124.956 226.62 125.204 226.961 125.538C227.302 125.872 227.472 126.306 227.472 126.84C227.472 127.292 227.341 127.695 227.079 128.049C226.82 128.399 226.458 128.674 225.993 128.874C225.531 129.074 224.996 129.174 224.386 129.174C223.541 129.174 222.851 128.994 222.317 128.634C221.783 128.27 221.456 127.754 221.335 127.086L222.755 126.869C222.843 127.24 223.025 127.52 223.3 127.71C223.575 127.896 223.934 127.99 224.376 127.99C224.858 127.99 225.243 127.89 225.531 127.69C225.819 127.487 225.964 127.24 225.964 126.948C225.964 126.712 225.875 126.514 225.698 126.353C225.525 126.193 225.258 126.072 224.897 125.99L223.62 125.71C222.915 125.549 222.394 125.294 222.057 124.943C221.723 124.593 221.556 124.149 221.556 123.611C221.556 123.166 221.68 122.776 221.929 122.442C222.178 122.108 222.522 121.847 222.961 121.661C223.4 121.471 223.903 121.376 224.47 121.376C225.286 121.376 225.928 121.552 226.396 121.906C226.865 122.257 227.174 122.727 227.325 123.317ZM230.056 129.115C229.787 129.115 229.556 129.02 229.363 128.83C229.17 128.637 229.073 128.404 229.073 128.132C229.073 127.864 229.17 127.634 229.363 127.444C229.556 127.251 229.787 127.154 230.056 127.154C230.324 127.154 230.555 127.251 230.749 127.444C230.942 127.634 231.039 127.864 231.039 128.132C231.039 128.312 230.993 128.478 230.901 128.629C230.813 128.776 230.695 128.894 230.547 128.982C230.4 129.071 230.236 129.115 230.056 129.115Z" fill="#2C2C2C"/>
<path d="M179.947 70.7351H173.287V51.9481H180.002C181.892 51.9481 183.518 52.3242 184.882 53.0764C186.246 53.8225 187.295 54.8958 188.028 56.2963C188.768 57.6967 189.138 59.3724 189.138 61.3233C189.138 63.2802 188.768 64.962 188.028 66.3686C187.295 67.7752 186.24 68.8546 184.864 69.6068C183.494 70.359 181.855 70.7351 179.947 70.7351ZM177.259 67.3318H179.782C180.956 67.3318 181.943 67.1239 182.745 66.708C183.552 66.286 184.157 65.6347 184.561 64.7541C184.971 63.8673 185.176 62.7237 185.176 61.3233C185.176 59.935 184.971 58.8006 184.561 57.9199C184.157 57.0393 183.555 56.391 182.754 55.9752C181.953 55.5593 180.965 55.3514 179.791 55.3514H177.259V67.3318ZM198.429 71.0103C196.979 71.0103 195.732 70.7168 194.686 70.1297C193.646 69.5365 192.845 68.6986 192.283 67.6162C191.72 66.5276 191.439 65.2403 191.439 63.7542C191.439 62.3048 191.72 61.0328 192.283 59.9381C192.845 58.8434 193.637 57.9903 194.659 57.3787C195.686 56.7672 196.891 56.4614 198.273 56.4614C199.202 56.4614 200.068 56.6112 200.869 56.9109C201.676 57.2044 202.379 57.6478 202.979 58.241C203.584 58.8342 204.055 59.5803 204.391 60.4793C204.728 61.3722 204.896 62.4179 204.896 63.6166V64.6899H192.998V62.2681H201.217C201.217 61.7055 201.095 61.2071 200.851 60.7729C200.606 60.3386 200.266 59.9992 199.832 59.7546C199.404 59.5039 198.906 59.3785 198.337 59.3785C197.744 59.3785 197.218 59.5161 196.759 59.7913C196.307 60.0604 195.952 60.4243 195.695 60.8829C195.438 61.3355 195.307 61.84 195.301 62.3965V64.699C195.301 65.3962 195.429 65.9986 195.686 66.5062C195.949 67.0138 196.319 67.4052 196.796 67.6804C197.273 67.9556 197.839 68.0932 198.493 68.0932C198.927 68.0932 199.325 68.032 199.686 67.9097C200.046 67.7874 200.355 67.6039 200.612 67.3593C200.869 67.1147 201.065 66.815 201.199 66.4603L204.813 66.6988C204.63 67.5672 204.254 68.3256 203.685 68.9738C203.122 69.616 202.395 70.1174 201.502 70.4783C200.615 70.833 199.591 71.0103 198.429 71.0103ZM220.204 56.6448L215.278 70.7351H210.875L205.949 56.6448H210.077L213.003 66.7264H213.15L216.067 56.6448H220.204ZM228.171 71.0103C226.722 71.0103 225.474 70.7168 224.428 70.1297C223.389 69.5365 222.588 68.6986 222.025 67.6162C221.462 66.5276 221.181 65.2403 221.181 63.7542C221.181 62.3048 221.462 61.0328 222.025 59.9381C222.588 58.8434 223.38 57.9903 224.401 57.3787C225.428 56.7672 226.633 56.4614 228.015 56.4614C228.945 56.4614 229.81 56.6112 230.611 56.9109C231.418 57.2044 232.122 57.6478 232.721 58.241C233.326 58.8342 233.797 59.5803 234.134 60.4793C234.47 61.3722 234.638 62.4179 234.638 63.6166V64.6899H222.74V62.2681H230.96C230.96 61.7055 230.837 61.2071 230.593 60.7729C230.348 60.3386 230.009 59.9992 229.575 59.7546C229.146 59.5039 228.648 59.3785 228.079 59.3785C227.486 59.3785 226.96 59.5161 226.501 59.7913C226.049 60.0604 225.694 60.4243 225.437 60.8829C225.181 61.3355 225.049 61.84 225.043 62.3965V64.699C225.043 65.3962 225.171 65.9986 225.428 66.5062C225.691 67.0138 226.061 67.4052 226.538 67.6804C227.015 67.9556 227.581 68.0932 228.235 68.0932C228.669 68.0932 229.067 68.032 229.428 67.9097C229.789 67.7874 230.097 67.6039 230.354 67.3593C230.611 67.1147 230.807 66.815 230.941 66.4603L234.556 66.6988C234.372 67.5672 233.996 68.3256 233.427 68.9738C232.865 69.616 232.137 70.1174 231.244 70.4783C230.357 70.833 229.333 71.0103 228.171 71.0103ZM241.096 51.9481V70.7351H237.188V51.9481H241.096ZM250.593 71.0103C249.168 71.0103 247.936 70.7076 246.896 70.1021C245.863 69.4906 245.065 68.6405 244.502 67.552C243.939 66.4573 243.658 65.1883 243.658 63.745C243.658 62.2895 243.939 61.0175 244.502 59.9289C245.065 58.8342 245.863 57.9842 246.896 57.3787C247.936 56.7672 249.168 56.4614 250.593 56.4614C252.018 56.4614 253.247 56.7672 254.281 57.3787C255.32 57.9842 256.121 58.8342 256.684 59.9289C257.247 61.0175 257.528 62.2895 257.528 63.745C257.528 65.1883 257.247 66.4573 256.684 67.552C256.121 68.6405 255.32 69.4906 254.281 70.1021C253.247 70.7076 252.018 71.0103 250.593 71.0103ZM250.611 67.9831C251.26 67.9831 251.801 67.7996 252.235 67.4327C252.669 67.0597 252.996 66.5521 253.217 65.9099C253.443 65.2678 253.556 64.537 253.556 63.7175C253.556 62.898 253.443 62.1672 253.217 61.5251C252.996 60.8829 252.669 60.3753 252.235 60.0023C251.801 59.6292 251.26 59.4427 250.611 59.4427C249.957 59.4427 249.407 59.6292 248.96 60.0023C248.52 60.3753 248.187 60.8829 247.96 61.5251C247.74 62.1672 247.63 62.898 247.63 63.7175C247.63 64.537 247.74 65.2678 247.96 65.9099C248.187 66.5521 248.52 67.0597 248.96 67.4327C249.407 67.7996 249.957 67.9831 250.611 67.9831ZM260.069 76.019V56.6448H263.922V59.0116H264.096C264.267 58.6324 264.515 58.2471 264.839 57.8557C265.169 57.4582 265.598 57.128 266.123 56.865C266.656 56.5959 267.316 56.4614 268.105 56.4614C269.132 56.4614 270.08 56.7305 270.949 57.2686C271.817 57.8007 272.511 58.6049 273.031 59.6812C273.551 60.7514 273.811 62.0938 273.811 63.7083C273.811 65.28 273.557 66.6071 273.049 67.6896C272.548 68.7659 271.863 69.5823 270.995 70.1388C270.132 70.6892 269.166 70.9644 268.096 70.9644C267.337 70.9644 266.692 70.8391 266.16 70.5883C265.634 70.3376 265.203 70.0226 264.867 69.6435C264.53 69.2582 264.274 68.8699 264.096 68.4785H263.977V76.019H260.069ZM263.894 63.69C263.894 64.5278 264.011 65.2586 264.243 65.8824C264.475 66.5062 264.812 66.9924 265.252 67.341C265.692 67.6834 266.227 67.8547 266.857 67.8547C267.493 67.8547 268.032 67.6804 268.472 67.3318C268.912 66.9771 269.245 66.4878 269.472 65.8641C269.704 65.2342 269.82 64.5095 269.82 63.69C269.82 62.8766 269.707 62.1611 269.481 61.5434C269.255 60.9257 268.921 60.4426 268.481 60.094C268.041 59.7454 267.499 59.5711 266.857 59.5711C266.221 59.5711 265.683 59.7393 265.243 60.0757C264.809 60.412 264.475 60.889 264.243 61.5067C264.011 62.1244 263.894 62.8521 263.894 63.69Z" fill="#2C2C2C"/>
<path d="M104.119 50.9521L101.208 48.176C100.69 47.6472 99.8488 47.7131 99.3317 48.2419L86.1992 62.453C85.7462 62.9818 85.7462 63.7748 86.1992 64.3037L99.3317 78.5148C99.8493 79.0436 100.69 79.1096 101.208 78.5807L104.119 75.8046C104.636 75.2758 104.701 74.4163 104.183 73.888L94.4798 63.3785L104.184 52.8691C104.637 52.3402 104.637 51.4808 104.119 50.952L104.119 50.9521Z" fill="#FF62C4"/>
<path d="M147.728 62.4532L134.144 48.2419C133.609 47.7131 132.739 47.6471 132.204 48.176L129.193 50.9521C128.658 51.481 128.591 52.3405 129.126 52.8688L139.164 63.3784L129.126 73.8879C128.591 74.4168 128.658 75.2763 129.193 75.8046L132.204 78.5807C132.74 79.1096 133.61 79.0436 134.144 78.5148L147.728 64.3036C148.264 63.7747 148.264 62.9817 147.728 62.4528V62.4532Z" fill="#FF62C4"/>
<path d="M122.92 46.7618L119.047 45.7807C118.337 45.5845 117.627 46.0422 117.433 46.7618L109.429 78.3594C109.235 79.0791 109.687 79.7986 110.397 79.9949L114.27 80.976C114.98 81.1722 115.69 80.7145 115.884 79.9949L123.889 48.3973C124.018 47.6781 123.63 46.9585 122.92 46.7623L122.92 46.7618Z" fill="#FF62C4"/>
<path d="M408.317 39.4162L405.474 39.6277L407.442 23.8219L394.763 35.8363L393 33.9947L405.679 21.9803L389.715 23.1659L390.067 20.352L408.674 18.9671L408.401 21.1574L410.613 20.9929L408.317 39.4162Z" fill="#FF62C4"/>
</svg>
