<svg width="440" height="166" viewBox="0 0 440 166" fill="none" xmlns="http://www.w3.org/2000/svg">
<rect x="438.66" y="10.3782" width="154.292" height="416.519" rx="7.61081" transform="rotate(90 438.66 10.3782)" fill="white" stroke="#F1D1E5" stroke-width="1.38378"/>
<rect x="426.897" y="0.691907" width="154.292" height="426.205" rx="7.61081" transform="rotate(90 426.897 0.691907)" fill="white" stroke="#F1D1E5" stroke-width="1.38378"/>
<path d="M128.106 94.2865V84.2226H129.624V92.9794H134.184V94.2865H128.106ZM139.052 94.4388C138.308 94.4388 137.667 94.28 137.13 93.9622C136.596 93.6411 136.183 93.1907 135.892 92.6108C135.604 92.0277 135.459 91.3447 135.459 90.5617C135.459 89.7886 135.604 89.1071 135.892 88.5175C136.183 87.9278 136.59 87.4675 137.111 87.1366C137.635 86.8057 138.247 86.6403 138.948 86.6403C139.374 86.6403 139.787 86.7107 140.187 86.8516C140.586 86.9925 140.945 87.2136 141.263 87.515C141.581 87.8164 141.831 88.2079 142.015 88.6895C142.198 89.1677 142.29 89.7492 142.29 90.4339V90.9548H136.29V89.8541H140.85C140.85 89.4675 140.771 89.1252 140.614 88.827C140.457 88.5257 140.236 88.2881 139.951 88.1145C139.669 87.9409 139.338 87.8541 138.958 87.8541C138.545 87.8541 138.185 87.9556 137.877 88.1587C137.572 88.3586 137.337 88.6207 137.17 88.945C137.006 89.266 136.924 89.6149 136.924 89.9917V90.8516C136.924 91.3561 137.012 91.7853 137.189 92.1391C137.369 92.4929 137.62 92.7632 137.941 92.9499C138.262 93.1333 138.637 93.2251 139.066 93.2251C139.345 93.2251 139.599 93.1858 139.828 93.1071C140.057 93.0252 140.256 92.904 140.423 92.7435C140.59 92.583 140.717 92.3848 140.806 92.1489L142.197 92.3995C142.085 92.809 141.885 93.1677 141.597 93.4757C141.312 93.7804 140.953 94.0179 140.521 94.1882C140.092 94.3553 139.602 94.4388 139.052 94.4388ZM146.117 94.4536C145.638 94.4536 145.206 94.3651 144.819 94.1882C144.433 94.008 144.127 93.7476 143.9 93.4069C143.678 93.0662 143.566 92.6485 143.566 92.1538C143.566 91.7279 143.648 91.3774 143.812 91.1022C143.976 90.827 144.197 90.6092 144.475 90.4487C144.754 90.2881 145.065 90.1669 145.409 90.085C145.753 90.0031 146.104 89.9409 146.461 89.8983C146.913 89.8459 147.28 89.8033 147.561 89.7705C147.843 89.7345 148.048 89.6772 148.176 89.5985C148.303 89.5199 148.367 89.3922 148.367 89.2152V89.1809C148.367 88.7517 148.246 88.4192 148.004 88.1833C147.765 87.9474 147.407 87.8295 146.932 87.8295C146.438 87.8295 146.048 87.9392 145.763 88.1587C145.481 88.375 145.286 88.6157 145.178 88.8811L143.797 88.5666C143.961 88.108 144.2 87.7378 144.515 87.456C144.833 87.171 145.198 86.9646 145.611 86.8369C146.023 86.7058 146.457 86.6403 146.913 86.6403C147.214 86.6403 147.534 86.6763 147.871 86.7484C148.212 86.8172 148.529 86.945 148.824 87.1317C149.122 87.3184 149.367 87.5854 149.557 87.9327C149.747 88.2767 149.842 88.7238 149.842 89.2742V94.2865H148.407V93.2546H148.348C148.253 93.4446 148.11 93.6313 147.92 93.8148C147.73 93.9982 147.486 94.1505 147.188 94.2718C146.89 94.393 146.533 94.4536 146.117 94.4536ZM146.436 93.2742C146.842 93.2742 147.19 93.194 147.478 93.0334C147.769 92.8729 147.991 92.6632 148.141 92.4044C148.295 92.1424 148.372 91.8623 148.372 91.5641V90.5912C148.32 90.6436 148.218 90.6927 148.068 90.7386C147.92 90.7812 147.751 90.8189 147.561 90.8516C147.371 90.8811 147.186 90.9089 147.006 90.9352C146.826 90.9581 146.675 90.9777 146.554 90.9941C146.269 91.0302 146.009 91.0908 145.773 91.1759C145.54 91.2611 145.353 91.384 145.213 91.5445C145.075 91.7017 145.006 91.9114 145.006 92.1735C145.006 92.5371 145.14 92.8123 145.409 92.999C145.678 93.1825 146.02 93.2742 146.436 93.2742ZM151.799 94.2865V86.7386H153.219V87.9376H153.297C153.435 87.5314 153.677 87.212 154.025 86.9794C154.375 86.7435 154.772 86.6256 155.214 86.6256C155.305 86.6256 155.414 86.6288 155.538 86.6354C155.666 86.6419 155.766 86.6501 155.838 86.66V88.0654C155.779 88.049 155.674 88.031 155.523 88.0113C155.373 87.9884 155.222 87.9769 155.071 87.9769C154.724 87.9769 154.414 88.0506 154.143 88.1981C153.874 88.3422 153.661 88.5437 153.504 88.8025C153.346 89.058 153.268 89.3496 153.268 89.6772V94.2865H151.799ZM158.579 89.8049V94.2865H157.109V86.7386H158.52V87.9671H158.613C158.787 87.5674 159.059 87.2464 159.429 87.0039C159.802 86.7615 160.272 86.6403 160.839 86.6403C161.353 86.6403 161.804 86.7484 162.19 86.9646C162.577 87.1776 162.877 87.4953 163.09 87.918C163.303 88.3406 163.409 88.8631 163.409 89.4855V94.2865H161.94V89.6624C161.94 89.1153 161.797 88.6878 161.512 88.3799C161.227 88.0686 160.836 87.913 160.338 87.913C159.997 87.913 159.694 87.9867 159.429 88.1342C159.167 88.2816 158.959 88.4978 158.805 88.7828C158.654 89.0646 158.579 89.4053 158.579 89.8049ZM171.238 94.4536C170.76 94.4536 170.328 94.3651 169.941 94.1882C169.554 94.008 169.248 93.7476 169.022 93.4069C168.799 93.0662 168.688 92.6485 168.688 92.1538C168.688 91.7279 168.77 91.3774 168.934 91.1022C169.097 90.827 169.319 90.6092 169.597 90.4487C169.876 90.2881 170.187 90.1669 170.531 90.085C170.875 90.0031 171.225 89.9409 171.582 89.8983C172.034 89.8459 172.401 89.8033 172.683 89.7705C172.965 89.7345 173.17 89.6772 173.297 89.5985C173.425 89.5199 173.489 89.3922 173.489 89.2152V89.1809C173.489 88.7517 173.368 88.4192 173.125 88.1833C172.886 87.9474 172.529 87.8295 172.054 87.8295C171.559 87.8295 171.17 87.9392 170.885 88.1587C170.603 88.375 170.408 88.6157 170.3 88.8811L168.919 88.5666C169.083 88.108 169.322 87.7378 169.636 87.456C169.954 87.171 170.319 86.9646 170.732 86.8369C171.145 86.7058 171.579 86.6403 172.034 86.6403C172.336 86.6403 172.655 86.6763 172.993 86.7484C173.333 86.8172 173.651 86.945 173.946 87.1317C174.244 87.3184 174.488 87.5854 174.678 87.9327C174.868 88.2767 174.963 88.7238 174.963 89.2742V94.2865H173.528V93.2546H173.469C173.374 93.4446 173.232 93.6313 173.042 93.8148C172.852 93.9982 172.608 94.1505 172.31 94.2718C172.011 94.393 171.654 94.4536 171.238 94.4536ZM171.558 93.2742C171.964 93.2742 172.311 93.194 172.6 93.0334C172.891 92.8729 173.112 92.6632 173.263 92.4044C173.417 92.1424 173.494 91.8623 173.494 91.5641V90.5912C173.441 90.6436 173.34 90.6927 173.189 90.7386C173.042 90.7812 172.873 90.8189 172.683 90.8516C172.493 90.8811 172.308 90.9089 172.128 90.9352C171.948 90.9581 171.797 90.9777 171.676 90.9941C171.391 91.0302 171.13 91.0908 170.894 91.1759C170.662 91.2611 170.475 91.384 170.334 91.5445C170.197 91.7017 170.128 91.9114 170.128 92.1735C170.128 92.5371 170.262 92.8123 170.531 92.999C170.799 93.1825 171.142 93.2742 171.558 93.2742ZM177.038 94.2865V84.2226H178.507V87.9622H178.596C178.681 87.8049 178.804 87.6231 178.964 87.4167C179.125 87.2103 179.348 87.0302 179.633 86.8762C179.918 86.7189 180.294 86.6403 180.763 86.6403C181.372 86.6403 181.916 86.7943 182.394 87.1022C182.873 87.4102 183.248 87.8541 183.52 88.4339C183.795 89.0138 183.932 89.7116 183.932 90.5273C183.932 91.343 183.796 92.0424 183.525 92.6256C183.253 93.2054 182.879 93.6526 182.404 93.9671C181.929 94.2783 181.387 94.4339 180.778 94.4339C180.319 94.4339 179.944 94.3569 179.652 94.203C179.364 94.049 179.138 93.8688 178.974 93.6624C178.81 93.456 178.684 93.2726 178.596 93.1121H178.473V94.2865H177.038ZM178.478 90.5125C178.478 91.0433 178.555 91.5085 178.709 91.9081C178.863 92.3078 179.086 92.6207 179.377 92.8467C179.669 93.0695 180.026 93.1809 180.448 93.1809C180.887 93.1809 181.254 93.0646 181.549 92.832C181.844 92.5961 182.067 92.2767 182.217 91.8737C182.371 91.4708 182.448 91.0171 182.448 90.5125C182.448 90.0146 182.373 89.5674 182.222 89.171C182.075 88.7746 181.852 88.4618 181.554 88.2324C181.259 88.0031 180.891 87.8885 180.448 87.8885C180.023 87.8885 179.662 87.9982 179.367 88.2177C179.076 88.4372 178.855 88.7435 178.704 89.1366C178.553 89.5297 178.478 89.9884 178.478 90.5125ZM188.762 94.4388C188.054 94.4388 187.437 94.2767 186.909 93.9524C186.382 93.628 185.972 93.1743 185.681 92.5912C185.389 92.008 185.243 91.3266 185.243 90.5469C185.243 89.764 185.389 89.0793 185.681 88.4929C185.972 87.9065 186.382 87.4511 186.909 87.1268C187.437 86.8025 188.054 86.6403 188.762 86.6403C189.469 86.6403 190.087 86.8025 190.614 87.1268C191.142 87.4511 191.551 87.9065 191.843 88.4929C192.134 89.0793 192.28 89.764 192.28 90.5469C192.28 91.3266 192.134 92.008 191.843 92.5912C191.551 93.1743 191.142 93.628 190.614 93.9524C190.087 94.2767 189.469 94.4388 188.762 94.4388ZM188.767 93.2054C189.225 93.2054 189.605 93.0842 189.907 92.8418C190.208 92.5994 190.431 92.2767 190.575 91.8737C190.722 91.4708 190.796 91.0269 190.796 90.542C190.796 90.0605 190.722 89.6182 190.575 89.2152C190.431 88.809 190.208 88.4831 189.907 88.2374C189.605 87.9917 189.225 87.8688 188.767 87.8688C188.305 87.8688 187.921 87.9917 187.617 88.2374C187.315 88.4831 187.091 88.809 186.943 89.2152C186.799 89.6182 186.727 90.0605 186.727 90.542C186.727 91.0269 186.799 91.4708 186.943 91.8737C187.091 92.2767 187.315 92.5994 187.617 92.8418C187.921 93.0842 188.305 93.2054 188.767 93.2054ZM198.701 91.1563V86.7386H200.176V94.2865H198.731V92.9794H198.652C198.479 93.3823 198.2 93.7181 197.817 93.9867C197.437 94.2521 196.964 94.3848 196.397 94.3848C195.912 94.3848 195.483 94.2783 195.109 94.0654C194.739 93.8492 194.448 93.5297 194.235 93.1071C194.025 92.6845 193.92 92.162 193.92 91.5396V86.7386H195.389V91.3627C195.389 91.877 195.532 92.2865 195.817 92.5912C196.102 92.8958 196.472 93.0482 196.928 93.0482C197.203 93.0482 197.476 92.9794 197.748 92.8418C198.023 92.7042 198.251 92.4962 198.431 92.2177C198.615 91.9392 198.705 91.5854 198.701 91.1563ZM205.673 86.7386V87.918H201.55V86.7386H205.673ZM202.656 84.9302H204.125V92.0703C204.125 92.3553 204.168 92.5699 204.253 92.714C204.338 92.8549 204.448 92.9515 204.582 93.0039C204.72 93.0531 204.869 93.0777 205.029 93.0777C205.147 93.0777 205.251 93.0695 205.339 93.0531C205.428 93.0367 205.496 93.0236 205.545 93.0138L205.811 94.2275C205.726 94.2603 205.604 94.2931 205.447 94.3258C205.29 94.3619 205.093 94.3815 204.857 94.3848C204.471 94.3913 204.111 94.3225 203.776 94.1784C203.442 94.0343 203.172 93.8115 202.966 93.5101C202.759 93.2087 202.656 92.8303 202.656 92.375V84.9302ZM214.484 86.7386V87.918H210.361V86.7386H214.484ZM211.467 84.9302H212.936V92.0703C212.936 92.3553 212.979 92.5699 213.064 92.714C213.149 92.8549 213.259 92.9515 213.393 93.0039C213.531 93.0531 213.68 93.0777 213.84 93.0777C213.958 93.0777 214.061 93.0695 214.15 93.0531C214.238 93.0367 214.307 93.0236 214.356 93.0138L214.622 94.2275C214.536 94.2603 214.415 94.2931 214.258 94.3258C214.101 94.3619 213.904 94.3815 213.668 94.3848C213.282 94.3913 212.921 94.3225 212.587 94.1784C212.253 94.0343 211.983 93.8115 211.776 93.5101C211.57 93.2087 211.467 92.8303 211.467 92.375V84.9302ZM217.741 89.8049V94.2865H216.271V84.2226H217.721V87.9671H217.814C217.991 87.5609 218.262 87.2382 218.625 86.999C218.989 86.7599 219.464 86.6403 220.05 86.6403C220.568 86.6403 221.02 86.7468 221.407 86.9597C221.796 87.1727 222.098 87.4904 222.311 87.913C222.527 88.3324 222.635 88.8565 222.635 89.4855V94.2865H221.166V89.6624C221.166 89.1088 221.023 88.6796 220.738 88.375C220.453 88.067 220.057 87.913 219.549 87.913C219.202 87.913 218.891 87.9867 218.615 88.1342C218.344 88.2816 218.129 88.4978 217.972 88.7828C217.818 89.0646 217.741 89.4053 217.741 89.8049ZM227.849 94.4388C227.105 94.4388 226.465 94.28 225.928 93.9622C225.394 93.6411 224.981 93.1907 224.689 92.6108C224.401 92.0277 224.257 91.3447 224.257 90.5617C224.257 89.7886 224.401 89.1071 224.689 88.5175C224.981 87.9278 225.387 87.4675 225.908 87.1366C226.432 86.8057 227.045 86.6403 227.746 86.6403C228.172 86.6403 228.584 86.7107 228.984 86.8516C229.384 86.9925 229.742 87.2136 230.06 87.515C230.378 87.8164 230.629 88.2079 230.812 88.6895C230.995 89.1677 231.087 89.7492 231.087 90.4339V90.9548H225.087V89.8541H229.647C229.647 89.4675 229.569 89.1252 229.412 88.827C229.254 88.5257 229.033 88.2881 228.748 88.1145C228.466 87.9409 228.136 87.8541 227.756 87.8541C227.343 87.8541 226.982 87.9556 226.674 88.1587C226.37 88.3586 226.134 88.6207 225.967 88.945C225.803 89.266 225.721 89.6149 225.721 89.9917V90.8516C225.721 91.3561 225.81 91.7853 225.986 92.1391C226.167 92.4929 226.417 92.7632 226.738 92.9499C227.059 93.1333 227.434 93.2251 227.864 93.2251C228.142 93.2251 228.396 93.1858 228.625 93.1071C228.855 93.0252 229.053 92.904 229.22 92.7435C229.387 92.583 229.515 92.3848 229.603 92.1489L230.994 92.3995C230.882 92.809 230.683 93.1677 230.394 93.4757C230.109 93.7804 229.751 94.0179 229.318 94.1882C228.889 94.3553 228.399 94.4388 227.849 94.4388ZM236.498 94.2865V84.2226H240.085C240.868 84.2226 241.516 84.3651 242.031 84.6501C242.545 84.9352 242.93 85.325 243.186 85.8197C243.441 86.3111 243.569 86.8647 243.569 87.4806C243.569 88.0998 243.439 88.6567 243.181 89.1514C242.925 89.6428 242.538 90.0326 242.021 90.3209C241.507 90.6059 240.86 90.7484 240.08 90.7484H237.613V89.4609H239.942C240.437 89.4609 240.838 89.3758 241.146 89.2054C241.454 89.0318 241.68 88.7959 241.824 88.4978C241.968 88.1997 242.041 87.8606 242.041 87.4806C242.041 87.1006 241.968 86.7632 241.824 86.4683C241.68 86.1735 241.452 85.9425 241.141 85.7754C240.833 85.6084 240.427 85.5248 239.923 85.5248H238.016V94.2865H236.498ZM247.36 94.4536C246.882 94.4536 246.449 94.3651 246.063 94.1882C245.676 94.008 245.37 93.7476 245.144 93.4069C244.921 93.0662 244.81 92.6485 244.81 92.1538C244.81 91.7279 244.891 91.3774 245.055 91.1022C245.219 90.827 245.44 90.6092 245.719 90.4487C245.997 90.2881 246.308 90.1669 246.652 90.085C246.996 90.0031 247.347 89.9409 247.704 89.8983C248.156 89.8459 248.523 89.8033 248.805 89.7705C249.086 89.7345 249.291 89.6772 249.419 89.5985C249.547 89.5199 249.611 89.3922 249.611 89.2152V89.1809C249.611 88.7517 249.489 88.4192 249.247 88.1833C249.008 87.9474 248.651 87.8295 248.176 87.8295C247.681 87.8295 247.291 87.9392 247.006 88.1587C246.724 88.375 246.529 88.6157 246.421 88.8811L245.041 88.5666C245.204 88.108 245.443 87.7378 245.758 87.456C246.076 87.171 246.441 86.9646 246.854 86.8369C247.267 86.7058 247.701 86.6403 248.156 86.6403C248.457 86.6403 248.777 86.6763 249.114 86.7484C249.455 86.8172 249.773 86.945 250.068 87.1317C250.366 87.3184 250.61 87.5854 250.8 87.9327C250.99 88.2767 251.085 88.7238 251.085 89.2742V94.2865H249.65V93.2546H249.591C249.496 93.4446 249.353 93.6313 249.163 93.8148C248.973 93.9982 248.729 94.1505 248.431 94.2718C248.133 94.393 247.776 94.4536 247.36 94.4536ZM247.679 93.2742C248.086 93.2742 248.433 93.194 248.721 93.0334C249.013 92.8729 249.234 92.6632 249.385 92.4044C249.538 92.1424 249.615 91.8623 249.615 91.5641V90.5912C249.563 90.6436 249.462 90.6927 249.311 90.7386C249.163 90.7812 248.995 90.8189 248.805 90.8516C248.615 90.8811 248.43 90.9089 248.249 90.9352C248.069 90.9581 247.919 90.9777 247.797 90.9941C247.512 91.0302 247.252 91.0908 247.016 91.1759C246.783 91.2611 246.597 91.384 246.456 91.5445C246.318 91.7017 246.249 91.9114 246.249 92.1735C246.249 92.5371 246.384 92.8123 246.652 92.999C246.921 93.1825 247.263 93.2742 247.679 93.2742ZM254.511 84.2226V94.2865H253.042V84.2226H254.511ZM259.667 94.4388C258.959 94.4388 258.342 94.2767 257.814 93.9524C257.287 93.628 256.878 93.1743 256.586 92.5912C256.294 92.008 256.149 91.3266 256.149 90.5469C256.149 89.764 256.294 89.0793 256.586 88.4929C256.878 87.9065 257.287 87.4511 257.814 87.1268C258.342 86.8025 258.959 86.6403 259.667 86.6403C260.375 86.6403 260.992 86.8025 261.52 87.1268C262.047 87.4511 262.457 87.9065 262.748 88.4929C263.04 89.0793 263.186 89.764 263.186 90.5469C263.186 91.3266 263.04 92.008 262.748 92.5912C262.457 93.1743 262.047 93.628 261.52 93.9524C260.992 94.2767 260.375 94.4388 259.667 94.4388ZM259.672 93.2054C260.131 93.2054 260.511 93.0842 260.812 92.8418C261.113 92.5994 261.336 92.2767 261.48 91.8737C261.628 91.4708 261.701 91.0269 261.701 90.542C261.701 90.0605 261.628 89.6182 261.48 89.2152C261.336 88.809 261.113 88.4831 260.812 88.2374C260.511 87.9917 260.131 87.8688 259.672 87.8688C259.21 87.8688 258.827 87.9917 258.522 88.2374C258.221 88.4831 257.996 88.809 257.849 89.2152C257.705 89.6182 257.633 90.0605 257.633 90.542C257.633 91.0269 257.705 91.4708 257.849 91.8737C257.996 92.2767 258.221 92.5994 258.522 92.8418C258.827 93.0842 259.21 93.2054 259.672 93.2054ZM264.826 94.2865V86.7386H266.236V87.9671H266.329C266.486 87.551 266.744 87.2267 267.101 86.9941C267.458 86.7582 267.885 86.6403 268.383 86.6403C268.888 86.6403 269.31 86.7582 269.651 86.9941C269.995 87.23 270.249 87.5543 270.413 87.9671H270.491C270.672 87.5641 270.958 87.2431 271.351 87.0039C271.744 86.7615 272.213 86.6403 272.757 86.6403C273.441 86.6403 274 86.8549 274.432 87.284C274.868 87.7132 275.086 88.3602 275.086 89.2251V94.2865H273.617V89.3627C273.617 88.8516 273.477 88.4814 273.199 88.2521C272.921 88.0228 272.588 87.9081 272.201 87.9081C271.723 87.9081 271.351 88.0555 271.086 88.3504C270.821 88.6419 270.688 89.0171 270.688 89.4757V94.2865H269.224V89.2693C269.224 88.8598 269.096 88.5306 268.84 88.2816C268.585 88.0326 268.252 87.9081 267.843 87.9081C267.564 87.9081 267.307 87.9818 267.071 88.1293C266.839 88.2734 266.65 88.4749 266.506 88.7337C266.365 88.9925 266.295 89.2922 266.295 89.6329V94.2865H264.826ZM279.252 94.4536C278.774 94.4536 278.341 94.3651 277.955 94.1882C277.568 94.008 277.262 93.7476 277.036 93.4069C276.813 93.0662 276.701 92.6485 276.701 92.1538C276.701 91.7279 276.783 91.3774 276.947 91.1022C277.111 90.827 277.332 90.6092 277.611 90.4487C277.889 90.2881 278.2 90.1669 278.544 90.085C278.888 90.0031 279.239 89.9409 279.596 89.8983C280.048 89.8459 280.415 89.8033 280.697 89.7705C280.978 89.7345 281.183 89.6772 281.311 89.5985C281.439 89.5199 281.502 89.3922 281.502 89.2152V89.1809C281.502 88.7517 281.381 88.4192 281.139 88.1833C280.9 87.9474 280.543 87.8295 280.068 87.8295C279.573 87.8295 279.183 87.9392 278.898 88.1587C278.616 88.375 278.421 88.6157 278.313 88.8811L276.932 88.5666C277.096 88.108 277.335 87.7378 277.65 87.456C277.968 87.171 278.333 86.9646 278.746 86.8369C279.158 86.7058 279.593 86.6403 280.048 86.6403C280.349 86.6403 280.669 86.6763 281.006 86.7484C281.347 86.8172 281.665 86.945 281.959 87.1317C282.258 87.3184 282.502 87.5854 282.692 87.9327C282.882 88.2767 282.977 88.7238 282.977 89.2742V94.2865H281.542V93.2546H281.483C281.388 93.4446 281.245 93.6313 281.055 93.8148C280.865 93.9982 280.621 94.1505 280.323 94.2718C280.025 94.393 279.668 94.4536 279.252 94.4536ZM279.571 93.2742C279.977 93.2742 280.325 93.194 280.613 93.0334C280.905 92.8729 281.126 92.6632 281.276 92.4044C281.43 92.1424 281.507 91.8623 281.507 91.5641V90.5912C281.455 90.6436 281.353 90.6927 281.203 90.7386C281.055 90.7812 280.887 90.8189 280.697 90.8516C280.507 90.8811 280.321 90.9089 280.141 90.9352C279.961 90.9581 279.81 90.9777 279.689 90.9941C279.404 91.0302 279.144 91.0908 278.908 91.1759C278.675 91.2611 278.489 91.384 278.348 91.5445C278.21 91.7017 278.141 91.9114 278.141 92.1735C278.141 92.5371 278.276 92.8123 278.544 92.999C278.813 93.1825 279.155 93.2742 279.571 93.2742ZM131.364 111.287H128.106V101.223H131.467C132.453 101.223 133.3 101.424 134.007 101.827C134.715 102.227 135.257 102.802 135.634 103.552C136.014 104.299 136.204 105.195 136.204 106.24C136.204 107.288 136.012 108.189 135.629 108.943C135.249 109.696 134.699 110.276 133.978 110.682C133.257 111.085 132.386 111.287 131.364 111.287ZM129.624 109.96H131.28C132.047 109.96 132.684 109.816 133.192 109.527C133.699 109.236 134.079 108.815 134.332 108.264C134.584 107.711 134.71 107.036 134.71 106.24C134.71 105.45 134.584 104.78 134.332 104.23C134.083 103.68 133.711 103.262 133.216 102.977C132.722 102.692 132.107 102.549 131.373 102.549H129.624V109.96ZM140.171 111.454C139.692 111.454 139.26 111.365 138.873 111.188C138.487 111.008 138.181 110.748 137.955 110.407C137.732 110.066 137.62 109.649 137.62 109.154C137.62 108.728 137.702 108.377 137.866 108.102C138.03 107.827 138.251 107.609 138.529 107.449C138.808 107.288 139.119 107.167 139.463 107.085C139.807 107.003 140.158 106.941 140.515 106.898C140.967 106.846 141.334 106.803 141.615 106.771C141.897 106.734 142.102 106.677 142.23 106.599C142.357 106.52 142.421 106.392 142.421 106.215V106.181C142.421 105.752 142.3 105.419 142.058 105.183C141.819 104.947 141.462 104.829 140.986 104.829C140.492 104.829 140.102 104.939 139.817 105.159C139.535 105.375 139.34 105.616 139.232 105.881L137.851 105.567C138.015 105.108 138.254 104.738 138.569 104.456C138.887 104.171 139.252 103.965 139.665 103.837C140.077 103.706 140.511 103.64 140.967 103.64C141.268 103.64 141.588 103.676 141.925 103.748C142.266 103.817 142.584 103.945 142.878 104.132C143.176 104.318 143.421 104.585 143.611 104.933C143.801 105.277 143.896 105.724 143.896 106.274V111.287H142.461V110.255H142.402C142.307 110.445 142.164 110.631 141.974 110.815C141.784 110.998 141.54 111.151 141.242 111.272C140.944 111.393 140.587 111.454 140.171 111.454ZM140.49 110.274C140.896 110.274 141.244 110.194 141.532 110.033C141.824 109.873 142.045 109.663 142.195 109.404C142.349 109.142 142.426 108.862 142.426 108.564V107.591C142.374 107.644 142.272 107.693 142.122 107.739C141.974 107.781 141.805 107.819 141.615 107.852C141.425 107.881 141.24 107.909 141.06 107.935C140.88 107.958 140.729 107.978 140.608 107.994C140.323 108.03 140.063 108.091 139.827 108.176C139.594 108.261 139.407 108.384 139.267 108.544C139.129 108.702 139.06 108.911 139.06 109.173C139.06 109.537 139.195 109.812 139.463 109.999C139.732 110.182 140.074 110.274 140.49 110.274ZM149.106 111.439C148.362 111.439 147.722 111.28 147.184 110.962C146.65 110.641 146.238 110.191 145.946 109.611C145.658 109.028 145.514 108.345 145.514 107.562C145.514 106.789 145.658 106.107 145.946 105.517C146.238 104.928 146.644 104.468 147.165 104.137C147.689 103.806 148.301 103.64 149.002 103.64C149.428 103.64 149.841 103.711 150.241 103.852C150.64 103.992 150.999 104.214 151.317 104.515C151.635 104.816 151.885 105.208 152.069 105.689C152.252 106.168 152.344 106.749 152.344 107.434V107.955H146.344V106.854H150.904C150.904 106.468 150.826 106.125 150.668 105.827C150.511 105.526 150.29 105.288 150.005 105.115C149.723 104.941 149.392 104.854 149.012 104.854C148.6 104.854 148.239 104.956 147.931 105.159C147.627 105.359 147.391 105.621 147.224 105.945C147.06 106.266 146.978 106.615 146.978 106.992V107.852C146.978 108.356 147.066 108.785 147.243 109.139C147.423 109.493 147.674 109.763 147.995 109.95C148.316 110.133 148.691 110.225 149.12 110.225C149.399 110.225 149.653 110.186 149.882 110.107C150.111 110.025 150.31 109.904 150.477 109.744C150.644 109.583 150.771 109.385 150.86 109.149L152.251 109.4C152.139 109.809 151.939 110.168 151.651 110.476C151.366 110.78 151.007 111.018 150.575 111.188C150.146 111.355 149.656 111.439 149.106 111.439ZM153.974 111.287V103.739H155.385V104.967H155.478C155.635 104.551 155.892 104.227 156.249 103.994C156.606 103.758 157.034 103.64 157.532 103.64C158.036 103.64 158.459 103.758 158.8 103.994C159.144 104.23 159.398 104.554 159.561 104.967H159.64C159.82 104.564 160.107 104.243 160.5 104.004C160.893 103.762 161.362 103.64 161.905 103.64C162.59 103.64 163.149 103.855 163.581 104.284C164.017 104.713 164.235 105.36 164.235 106.225V111.287H162.765V106.363C162.765 105.852 162.626 105.481 162.348 105.252C162.069 105.023 161.737 104.908 161.35 104.908C160.872 104.908 160.5 105.056 160.235 105.35C159.969 105.642 159.837 106.017 159.837 106.476V111.287H158.372V106.269C158.372 105.86 158.244 105.531 157.989 105.282C157.733 105.033 157.401 104.908 156.991 104.908C156.713 104.908 156.456 104.982 156.22 105.129C155.987 105.273 155.799 105.475 155.655 105.734C155.514 105.992 155.443 106.292 155.443 106.633V111.287H153.974ZM169.383 111.439C168.676 111.439 168.058 111.277 167.531 110.952C167.003 110.628 166.594 110.174 166.302 109.591C166.011 109.008 165.865 108.327 165.865 107.547C165.865 106.764 166.011 106.079 166.302 105.493C166.594 104.906 167.003 104.451 167.531 104.127C168.058 103.802 168.676 103.64 169.383 103.64C170.091 103.64 170.708 103.802 171.236 104.127C171.763 104.451 172.173 104.906 172.464 105.493C172.756 106.079 172.902 106.764 172.902 107.547C172.902 108.327 172.756 109.008 172.464 109.591C172.173 110.174 171.763 110.628 171.236 110.952C170.708 111.277 170.091 111.439 169.383 111.439ZM169.388 110.205C169.847 110.205 170.227 110.084 170.528 109.842C170.83 109.599 171.052 109.277 171.197 108.874C171.344 108.471 171.418 108.027 171.418 107.542C171.418 107.06 171.344 106.618 171.197 106.215C171.052 105.809 170.83 105.483 170.528 105.237C170.227 104.992 169.847 104.869 169.388 104.869C168.926 104.869 168.543 104.992 168.238 105.237C167.937 105.483 167.713 105.809 167.565 106.215C167.421 106.618 167.349 107.06 167.349 107.542C167.349 108.027 167.421 108.471 167.565 108.874C167.713 109.277 167.937 109.599 168.238 109.842C168.543 110.084 168.926 110.205 169.388 110.205ZM176.011 106.805V111.287H174.542V103.739H175.952V104.967H176.045C176.219 104.567 176.491 104.246 176.861 104.004C177.235 103.762 177.705 103.64 178.271 103.64C178.786 103.64 179.236 103.748 179.623 103.965C180.009 104.178 180.309 104.495 180.522 104.918C180.735 105.341 180.842 105.863 180.842 106.486V111.287H179.372V106.662C179.372 106.115 179.23 105.688 178.945 105.38C178.66 105.069 178.268 104.913 177.77 104.913C177.43 104.913 177.127 104.987 176.861 105.134C176.599 105.282 176.391 105.498 176.237 105.783C176.086 106.065 176.011 106.405 176.011 106.805ZM184.724 109.911L184.65 110.446C184.601 110.839 184.517 111.249 184.399 111.675C184.285 112.104 184.165 112.502 184.041 112.869C183.919 113.236 183.819 113.527 183.741 113.744H182.699C182.742 113.54 182.801 113.265 182.876 112.918C182.951 112.574 183.025 112.189 183.097 111.763C183.169 111.337 183.223 110.903 183.259 110.461L183.308 109.911H184.724ZM198.775 104.495H197.242C197.183 104.168 197.073 103.879 196.913 103.63C196.752 103.382 196.556 103.17 196.323 102.997C196.09 102.823 195.83 102.692 195.542 102.603C195.257 102.515 194.954 102.471 194.633 102.471C194.053 102.471 193.534 102.617 193.075 102.908C192.62 103.2 192.259 103.627 191.994 104.191C191.732 104.754 191.601 105.442 191.601 106.255C191.601 107.074 191.732 107.765 191.994 108.328C192.259 108.892 192.621 109.318 193.08 109.606C193.538 109.894 194.054 110.038 194.628 110.038C194.946 110.038 195.247 109.996 195.532 109.911C195.82 109.822 196.081 109.693 196.313 109.522C196.546 109.352 196.742 109.144 196.903 108.898C197.067 108.649 197.18 108.364 197.242 108.043L198.775 108.048C198.693 108.543 198.534 108.998 198.299 109.414C198.066 109.827 197.766 110.184 197.399 110.486C197.036 110.784 196.62 111.015 196.151 111.178C195.683 111.342 195.172 111.424 194.618 111.424C193.747 111.424 192.97 111.218 192.289 110.805C191.607 110.389 191.07 109.794 190.677 109.021C190.287 108.248 190.092 107.326 190.092 106.255C190.092 105.18 190.289 104.258 190.682 103.488C191.075 102.715 191.612 102.122 192.294 101.709C192.975 101.293 193.75 101.085 194.618 101.085C195.152 101.085 195.65 101.162 196.112 101.316C196.577 101.467 196.995 101.689 197.365 101.984C197.735 102.276 198.041 102.633 198.284 103.056C198.526 103.475 198.69 103.955 198.775 104.495ZM200.592 111.287V101.223H202.111V109.979H206.671V111.287H200.592ZM209.921 101.223V111.287H208.403V101.223H209.921ZM213.926 109.911L213.853 110.446C213.803 110.839 213.72 111.249 213.602 111.675C213.487 112.104 213.368 112.502 213.243 112.869C213.122 113.236 213.022 113.527 212.943 113.744H211.902C211.944 113.54 212.003 113.265 212.079 112.918C212.154 112.574 212.228 112.189 212.3 111.763C212.372 111.337 212.426 110.903 212.462 110.461L212.511 109.911H213.926ZM225.108 103.866C225.056 103.401 224.839 103.041 224.459 102.785C224.079 102.526 223.601 102.397 223.025 102.397C222.612 102.397 222.255 102.463 221.953 102.594C221.652 102.721 221.418 102.898 221.251 103.124C221.087 103.347 221.005 103.601 221.005 103.886C221.005 104.125 221.061 104.332 221.172 104.505C221.287 104.679 221.436 104.825 221.619 104.943C221.806 105.057 222.006 105.154 222.219 105.232C222.432 105.308 222.636 105.37 222.833 105.419L223.816 105.675C224.137 105.753 224.466 105.86 224.803 105.994C225.141 106.128 225.454 106.305 225.742 106.525C226.03 106.744 226.263 107.016 226.44 107.341C226.62 107.665 226.71 108.053 226.71 108.505C226.71 109.075 226.563 109.581 226.268 110.024C225.976 110.466 225.552 110.815 224.995 111.07C224.441 111.326 223.772 111.454 222.985 111.454C222.232 111.454 221.58 111.334 221.029 111.095C220.479 110.856 220.048 110.517 219.737 110.078C219.426 109.635 219.254 109.111 219.221 108.505H220.744C220.774 108.869 220.892 109.172 221.098 109.414C221.308 109.653 221.575 109.832 221.899 109.95C222.227 110.065 222.586 110.122 222.975 110.122C223.405 110.122 223.786 110.055 224.12 109.92C224.458 109.783 224.723 109.593 224.916 109.35C225.11 109.105 225.206 108.818 225.206 108.49C225.206 108.192 225.121 107.948 224.951 107.758C224.784 107.568 224.556 107.411 224.268 107.287C223.983 107.162 223.66 107.052 223.3 106.957L222.111 106.633C221.305 106.413 220.666 106.091 220.194 105.665C219.726 105.239 219.491 104.676 219.491 103.974C219.491 103.395 219.649 102.888 219.963 102.456C220.278 102.024 220.704 101.688 221.241 101.449C221.778 101.206 222.384 101.085 223.059 101.085C223.74 101.085 224.342 101.205 224.862 101.444C225.387 101.683 225.799 102.012 226.101 102.431C226.402 102.848 226.559 103.326 226.572 103.866H225.108ZM231.783 111.287H228.525V101.223H231.886C232.872 101.223 233.719 101.424 234.426 101.827C235.134 102.227 235.676 102.802 236.053 103.552C236.433 104.299 236.623 105.195 236.623 106.24C236.623 107.288 236.431 108.189 236.048 108.943C235.668 109.696 235.118 110.276 234.397 110.682C233.676 111.085 232.805 111.287 231.783 111.287ZM230.043 109.96H231.699C232.466 109.96 233.103 109.816 233.611 109.527C234.118 109.236 234.498 108.815 234.751 108.264C235.003 107.711 235.129 107.036 235.129 106.24C235.129 105.45 235.003 104.78 234.751 104.23C234.502 103.68 234.13 103.262 233.635 102.977C233.14 102.692 232.526 102.549 231.792 102.549H230.043V109.96ZM238.511 111.287V101.223H240.029V106.029H240.152L244.373 101.223H246.285L242.226 105.753L246.3 111.287H244.472L241.219 106.79L240.029 108.156V111.287H238.511ZM253.238 105.581L251.907 105.817C251.851 105.647 251.762 105.485 251.641 105.331C251.523 105.177 251.363 105.051 251.16 104.952C250.957 104.854 250.703 104.805 250.398 104.805C249.982 104.805 249.635 104.898 249.356 105.085C249.078 105.268 248.939 105.506 248.939 105.798C248.939 106.05 249.032 106.253 249.219 106.407C249.405 106.561 249.707 106.687 250.123 106.785L251.322 107.06C252.016 107.221 252.534 107.468 252.875 107.802C253.215 108.137 253.386 108.571 253.386 109.105C253.386 109.557 253.255 109.96 252.993 110.314C252.734 110.664 252.372 110.939 251.907 111.139C251.445 111.339 250.909 111.439 250.3 111.439C249.455 111.439 248.765 111.259 248.231 110.898C247.697 110.535 247.369 110.019 247.248 109.35L248.668 109.134C248.757 109.504 248.939 109.784 249.214 109.974C249.489 110.161 249.848 110.255 250.29 110.255C250.772 110.255 251.156 110.155 251.445 109.955C251.733 109.752 251.877 109.504 251.877 109.213C251.877 108.977 251.789 108.779 251.612 108.618C251.438 108.458 251.171 108.336 250.811 108.255L249.533 107.974C248.829 107.814 248.308 107.558 247.971 107.208C247.636 106.857 247.469 106.413 247.469 105.876C247.469 105.431 247.594 105.041 247.843 104.707C248.092 104.372 248.436 104.112 248.875 103.925C249.314 103.735 249.817 103.64 250.383 103.64C251.199 103.64 251.841 103.817 252.31 104.171C252.778 104.522 253.088 104.992 253.238 105.581ZM256.913 109.911L256.839 110.446C256.79 110.839 256.706 111.249 256.588 111.675C256.474 112.104 256.354 112.502 256.23 112.869C256.109 113.236 256.009 113.527 255.93 113.744H254.888C254.931 113.54 254.99 113.265 255.065 112.918C255.14 112.574 255.214 112.189 255.286 111.763C255.358 111.337 255.412 110.903 255.448 110.461L255.498 109.911H256.913ZM264.684 111.454C264.206 111.454 263.774 111.365 263.387 111.188C263 111.008 262.694 110.748 262.468 110.407C262.245 110.066 262.134 109.649 262.134 109.154C262.134 108.728 262.216 108.377 262.38 108.102C262.543 107.827 262.765 107.609 263.043 107.449C263.321 107.288 263.633 107.167 263.977 107.085C264.321 107.003 264.671 106.941 265.028 106.898C265.48 106.846 265.847 106.803 266.129 106.771C266.411 106.734 266.615 106.677 266.743 106.599C266.871 106.52 266.935 106.392 266.935 106.215V106.181C266.935 105.752 266.814 105.419 266.571 105.183C266.332 104.947 265.975 104.829 265.5 104.829C265.005 104.829 264.615 104.939 264.33 105.159C264.049 105.375 263.854 105.616 263.746 105.881L262.365 105.567C262.529 105.108 262.768 104.738 263.082 104.456C263.4 104.171 263.765 103.965 264.178 103.837C264.591 103.706 265.025 103.64 265.48 103.64C265.782 103.64 266.101 103.676 266.439 103.748C266.779 103.817 267.097 103.945 267.392 104.132C267.69 104.318 267.934 104.585 268.124 104.933C268.314 105.277 268.409 105.724 268.409 106.274V111.287H266.974V110.255H266.915C266.82 110.445 266.678 110.631 266.488 110.815C266.298 110.998 266.054 111.151 265.756 111.272C265.457 111.393 265.1 111.454 264.684 111.454ZM265.004 110.274C265.41 110.274 265.757 110.194 266.045 110.033C266.337 109.873 266.558 109.663 266.709 109.404C266.863 109.142 266.94 108.862 266.94 108.564V107.591C266.887 107.644 266.786 107.693 266.635 107.739C266.488 107.781 266.319 107.819 266.129 107.852C265.939 107.881 265.754 107.909 265.574 107.935C265.394 107.958 265.243 107.978 265.122 107.994C264.837 108.03 264.576 108.091 264.34 108.176C264.108 108.261 263.921 108.384 263.78 108.544C263.643 108.702 263.574 108.911 263.574 109.173C263.574 109.537 263.708 109.812 263.977 109.999C264.245 110.182 264.588 110.274 265.004 110.274ZM271.835 106.805V111.287H270.366V103.739H271.776V104.967H271.87C272.043 104.567 272.315 104.246 272.686 104.004C273.059 103.762 273.529 103.64 274.096 103.64C274.61 103.64 275.061 103.748 275.447 103.965C275.834 104.178 276.134 104.495 276.346 104.918C276.559 105.341 276.666 105.863 276.666 106.486V111.287H275.197V106.662C275.197 106.115 275.054 105.688 274.769 105.38C274.484 105.069 274.093 104.913 273.595 104.913C273.254 104.913 272.951 104.987 272.686 105.134C272.423 105.282 272.215 105.498 272.061 105.783C271.911 106.065 271.835 106.405 271.835 106.805ZM281.462 111.434C280.853 111.434 280.309 111.278 279.83 110.967C279.355 110.653 278.982 110.205 278.71 109.626C278.441 109.042 278.307 108.343 278.307 107.527C278.307 106.712 278.443 106.014 278.715 105.434C278.99 104.854 279.367 104.41 279.845 104.102C280.324 103.794 280.866 103.64 281.472 103.64C281.94 103.64 282.317 103.719 282.602 103.876C282.89 104.03 283.113 104.21 283.27 104.417C283.431 104.623 283.555 104.805 283.644 104.962H283.732V101.223H285.201V111.287H283.767V110.112H283.644C283.555 110.273 283.428 110.456 283.26 110.662C283.097 110.869 282.871 111.049 282.582 111.203C282.294 111.357 281.921 111.434 281.462 111.434ZM281.786 110.181C282.209 110.181 282.566 110.069 282.857 109.847C283.152 109.621 283.375 109.308 283.526 108.908C283.68 108.508 283.757 108.043 283.757 107.513C283.757 106.988 283.681 106.53 283.531 106.137C283.38 105.744 283.159 105.437 282.867 105.218C282.576 104.998 282.215 104.888 281.786 104.888C281.344 104.888 280.975 105.003 280.681 105.232C280.386 105.462 280.163 105.775 280.012 106.171C279.865 106.567 279.791 107.015 279.791 107.513C279.791 108.017 279.867 108.471 280.017 108.874C280.168 109.277 280.391 109.596 280.686 109.832C280.984 110.065 281.351 110.181 281.786 110.181ZM127.988 128.287V120.739H129.398V121.967H129.491C129.649 121.551 129.906 121.227 130.263 120.994C130.62 120.758 131.048 120.64 131.545 120.64C132.05 120.64 132.473 120.758 132.813 120.994C133.157 121.23 133.411 121.554 133.575 121.967H133.654C133.834 121.564 134.12 121.243 134.514 121.004C134.907 120.762 135.375 120.64 135.919 120.64C136.604 120.64 137.162 120.855 137.595 121.284C138.03 121.713 138.248 122.36 138.248 123.225V128.287H136.779V123.363C136.779 122.852 136.64 122.481 136.361 122.252C136.083 122.023 135.75 121.908 135.364 121.908C134.885 121.908 134.514 122.056 134.248 122.35C133.983 122.642 133.85 123.017 133.85 123.476V128.287H132.386V123.269C132.386 122.86 132.258 122.531 132.002 122.282C131.747 122.033 131.414 121.908 131.005 121.908C130.726 121.908 130.469 121.982 130.233 122.129C130.001 122.273 129.812 122.475 129.668 122.734C129.527 122.992 129.457 123.292 129.457 123.633V128.287H127.988ZM143.397 128.439C142.689 128.439 142.072 128.277 141.544 127.952C141.017 127.628 140.607 127.174 140.316 126.591C140.024 126.008 139.878 125.327 139.878 124.547C139.878 123.764 140.024 123.079 140.316 122.493C140.607 121.906 141.017 121.451 141.544 121.127C142.072 120.802 142.689 120.64 143.397 120.64C144.104 120.64 144.722 120.802 145.249 121.127C145.777 121.451 146.186 121.906 146.478 122.493C146.769 123.079 146.915 123.764 146.915 124.547C146.915 125.327 146.769 126.008 146.478 126.591C146.186 127.174 145.777 127.628 145.249 127.952C144.722 128.277 144.104 128.439 143.397 128.439ZM143.402 127.205C143.86 127.205 144.24 127.084 144.542 126.842C144.843 126.599 145.066 126.277 145.21 125.874C145.357 125.471 145.431 125.027 145.431 124.542C145.431 124.06 145.357 123.618 145.21 123.215C145.066 122.809 144.843 122.483 144.542 122.237C144.24 121.992 143.86 121.869 143.402 121.869C142.94 121.869 142.557 121.992 142.252 122.237C141.95 122.483 141.726 122.809 141.579 123.215C141.434 123.618 141.362 124.06 141.362 124.542C141.362 125.027 141.434 125.471 141.579 125.874C141.726 126.277 141.95 126.599 142.252 126.842C142.557 127.084 142.94 127.205 143.402 127.205ZM151.381 128.434C150.771 128.434 150.228 128.278 149.749 127.967C149.274 127.653 148.901 127.205 148.629 126.626C148.36 126.042 148.226 125.343 148.226 124.527C148.226 123.712 148.362 123.014 148.634 122.434C148.909 121.854 149.286 121.41 149.764 121.102C150.242 120.794 150.785 120.64 151.391 120.64C151.859 120.64 152.236 120.719 152.521 120.876C152.809 121.03 153.032 121.21 153.189 121.417C153.35 121.623 153.474 121.805 153.563 121.962H153.651V118.223H155.12V128.287H153.686V127.112H153.563C153.474 127.273 153.346 127.456 153.179 127.662C153.016 127.869 152.79 128.049 152.501 128.203C152.213 128.357 151.839 128.434 151.381 128.434ZM151.705 127.181C152.128 127.181 152.485 127.069 152.776 126.847C153.071 126.621 153.294 126.308 153.445 125.908C153.599 125.508 153.676 125.043 153.676 124.513C153.676 123.988 153.6 123.53 153.45 123.137C153.299 122.744 153.078 122.437 152.786 122.218C152.495 121.998 152.134 121.888 151.705 121.888C151.263 121.888 150.894 122.003 150.6 122.232C150.305 122.462 150.082 122.775 149.931 123.171C149.784 123.567 149.71 124.015 149.71 124.513C149.71 125.017 149.785 125.471 149.936 125.874C150.087 126.277 150.31 126.596 150.604 126.832C150.903 127.065 151.269 127.181 151.705 127.181ZM161.999 125.156V120.739H163.473V128.287H162.028V126.979H161.95C161.776 127.382 161.498 127.718 161.114 127.987C160.734 128.252 160.261 128.385 159.694 128.385C159.209 128.385 158.78 128.278 158.407 128.065C158.036 127.849 157.745 127.53 157.532 127.107C157.322 126.685 157.217 126.162 157.217 125.54V120.739H158.687V125.363C158.687 125.877 158.829 126.287 159.114 126.591C159.399 126.896 159.769 127.048 160.225 127.048C160.5 127.048 160.774 126.979 161.045 126.842C161.321 126.704 161.548 126.496 161.729 126.218C161.912 125.939 162.002 125.585 161.999 125.156ZM166.916 118.223V128.287H165.447V118.223H166.916ZM172.146 128.439C171.403 128.439 170.762 128.28 170.225 127.962C169.691 127.641 169.278 127.191 168.986 126.611C168.698 126.028 168.554 125.345 168.554 124.562C168.554 123.789 168.698 123.107 168.986 122.517C169.278 121.928 169.684 121.468 170.205 121.137C170.729 120.806 171.342 120.64 172.043 120.64C172.469 120.64 172.882 120.711 173.281 120.852C173.681 120.992 174.04 121.214 174.357 121.515C174.675 121.816 174.926 122.208 175.109 122.689C175.293 123.168 175.385 123.749 175.385 124.434V124.955H169.385V123.854H173.945C173.945 123.468 173.866 123.125 173.709 122.827C173.552 122.526 173.33 122.288 173.045 122.115C172.764 121.941 172.433 121.854 172.053 121.854C171.64 121.854 171.28 121.956 170.972 122.159C170.667 122.359 170.431 122.621 170.264 122.945C170.1 123.266 170.018 123.615 170.018 123.992V124.852C170.018 125.356 170.107 125.785 170.284 126.139C170.464 126.493 170.715 126.763 171.036 126.95C171.357 127.133 171.732 127.225 172.161 127.225C172.439 127.225 172.693 127.186 172.923 127.107C173.152 127.025 173.35 126.904 173.517 126.744C173.684 126.583 173.812 126.385 173.9 126.149L175.291 126.4C175.18 126.809 174.98 127.168 174.692 127.476C174.407 127.78 174.048 128.018 173.615 128.188C173.186 128.355 172.697 128.439 172.146 128.439ZM182.671 122.581L181.339 122.817C181.283 122.647 181.195 122.485 181.074 122.331C180.956 122.177 180.795 122.051 180.592 121.952C180.389 121.854 180.135 121.805 179.83 121.805C179.414 121.805 179.067 121.898 178.789 122.085C178.51 122.268 178.371 122.506 178.371 122.798C178.371 123.05 178.464 123.253 178.651 123.407C178.838 123.561 179.139 123.687 179.555 123.785L180.754 124.06C181.449 124.221 181.966 124.468 182.307 124.802C182.648 125.137 182.818 125.571 182.818 126.105C182.818 126.557 182.687 126.96 182.425 127.314C182.166 127.664 181.804 127.939 181.339 128.139C180.877 128.339 180.342 128.439 179.732 128.439C178.887 128.439 178.197 128.259 177.663 127.898C177.129 127.535 176.802 127.019 176.681 126.35L178.101 126.134C178.189 126.504 178.371 126.784 178.646 126.974C178.921 127.161 179.28 127.255 179.722 127.255C180.204 127.255 180.589 127.155 180.877 126.955C181.165 126.752 181.31 126.504 181.31 126.213C181.31 125.977 181.221 125.779 181.044 125.618C180.871 125.458 180.604 125.336 180.243 125.255L178.966 124.974C178.261 124.814 177.74 124.558 177.403 124.208C177.069 123.857 176.902 123.413 176.902 122.876C176.902 122.431 177.026 122.041 177.275 121.707C177.524 121.372 177.868 121.112 178.307 120.925C178.746 120.735 179.249 120.64 179.816 120.64C180.631 120.64 181.274 120.817 181.742 121.171C182.21 121.522 182.52 121.992 182.671 122.581ZM185.402 128.38C185.133 128.38 184.902 128.285 184.709 128.095C184.516 127.902 184.419 127.669 184.419 127.397C184.419 127.128 184.516 126.899 184.709 126.709C184.902 126.516 185.133 126.419 185.402 126.419C185.67 126.419 185.901 126.516 186.095 126.709C186.288 126.899 186.385 127.128 186.385 127.397C186.385 127.577 186.339 127.743 186.247 127.893C186.158 128.041 186.041 128.159 185.893 128.247C185.746 128.336 185.582 128.38 185.402 128.38Z" fill="#2C2C2C"/>
<path d="M135.293 70H128.633V51.213H135.348C137.237 51.213 138.864 51.5891 140.228 52.3413C141.592 53.0874 142.641 54.1607 143.374 55.5612C144.114 56.9616 144.484 58.6373 144.484 60.5881C144.484 62.5451 144.114 64.2269 143.374 65.6335C142.641 67.0401 141.586 68.1195 140.21 68.8717C138.84 69.6239 137.201 70 135.293 70ZM132.605 66.5967H135.128C136.302 66.5967 137.289 66.3888 138.091 65.9729C138.898 65.5509 139.503 64.8996 139.907 64.019C140.317 63.1322 140.522 61.9886 140.522 60.5881C140.522 59.1999 140.317 58.0655 139.907 57.1848C139.503 56.3042 138.901 55.6559 138.1 55.2401C137.299 54.8242 136.311 54.6163 135.137 54.6163H132.605V66.5967ZM153.775 70.2752C152.325 70.2752 151.078 69.9817 150.032 69.3946C148.992 68.8013 148.191 67.9635 147.629 66.8811C147.066 65.7925 146.785 64.5052 146.785 63.0191C146.785 61.5697 147.066 60.2977 147.629 59.203C148.191 58.1083 148.983 57.2552 150.004 56.6436C151.032 56.032 152.237 55.7263 153.619 55.7263C154.548 55.7263 155.414 55.8761 156.215 56.1758C157.022 56.4693 157.725 56.9127 158.325 57.5059C158.93 58.0991 159.401 58.8452 159.737 59.7442C160.074 60.6371 160.242 61.6828 160.242 62.8815V63.9548H148.344V61.533H156.563C156.563 60.9704 156.441 60.4719 156.196 60.0377C155.952 59.6035 155.612 59.2641 155.178 59.0195C154.75 58.7688 154.252 58.6434 153.683 58.6434C153.09 58.6434 152.564 58.781 152.105 59.0562C151.653 59.3253 151.298 59.6892 151.041 60.1478C150.784 60.6004 150.653 61.1049 150.647 61.6614V63.9639C150.647 64.6611 150.775 65.2635 151.032 65.7711C151.295 66.2787 151.665 66.6701 152.142 66.9453C152.619 67.2205 153.185 67.3581 153.839 67.3581C154.273 67.3581 154.671 67.2969 155.031 67.1746C155.392 67.0523 155.701 66.8688 155.958 66.6242C156.215 66.3796 156.411 66.0799 156.545 65.7252L160.159 65.9637C159.976 66.8321 159.6 67.5905 159.031 68.2387C158.468 68.8809 157.741 69.3823 156.848 69.7431C155.961 70.0978 154.937 70.2752 153.775 70.2752ZM175.55 55.9097L170.624 70H166.221L161.295 55.9097H165.423L168.349 65.9912H168.496L171.413 55.9097H175.55ZM183.517 70.2752C182.068 70.2752 180.82 69.9817 179.774 69.3946C178.735 68.8013 177.933 67.9635 177.371 66.8811C176.808 65.7925 176.527 64.5052 176.527 63.0191C176.527 61.5697 176.808 60.2977 177.371 59.203C177.933 58.1083 178.725 57.2552 179.747 56.6436C180.774 56.032 181.979 55.7263 183.361 55.7263C184.291 55.7263 185.156 55.8761 185.957 56.1758C186.764 56.4693 187.468 56.9127 188.067 57.5059C188.672 58.0991 189.143 58.8452 189.48 59.7442C189.816 60.6371 189.984 61.6828 189.984 62.8815V63.9548H178.086V61.533H186.306C186.306 60.9704 186.183 60.4719 185.939 60.0377C185.694 59.6035 185.355 59.2641 184.921 59.0195C184.492 58.7688 183.994 58.6434 183.425 58.6434C182.832 58.6434 182.306 58.781 181.847 59.0562C181.395 59.3253 181.04 59.6892 180.783 60.1478C180.526 60.6004 180.395 61.1049 180.389 61.6614V63.9639C180.389 64.6611 180.517 65.2635 180.774 65.7711C181.037 66.2787 181.407 66.6701 181.884 66.9453C182.361 67.2205 182.927 67.3581 183.581 67.3581C184.015 67.3581 184.413 67.2969 184.774 67.1746C185.135 67.0523 185.443 66.8688 185.7 66.6242C185.957 66.3796 186.153 66.0799 186.287 65.7252L189.902 65.9637C189.718 66.8321 189.342 67.5905 188.773 68.2387C188.211 68.8809 187.483 69.3823 186.59 69.7431C185.703 70.0978 184.679 70.2752 183.517 70.2752ZM196.442 51.213V70H192.534V51.213H196.442ZM205.939 70.2752C204.514 70.2752 203.282 69.9725 202.242 69.367C201.209 68.7555 200.41 67.9054 199.848 66.8168C199.285 65.7222 199.004 64.4532 199.004 63.0099C199.004 61.5544 199.285 60.2824 199.848 59.1938C200.41 58.0991 201.209 57.249 202.242 56.6436C203.282 56.032 204.514 55.7263 205.939 55.7263C207.364 55.7263 208.593 56.032 209.627 56.6436C210.666 57.249 211.467 58.0991 212.03 59.1938C212.593 60.2824 212.874 61.5544 212.874 63.0099C212.874 64.4532 212.593 65.7222 212.03 66.8168C211.467 67.9054 210.666 68.7555 209.627 69.367C208.593 69.9725 207.364 70.2752 205.939 70.2752ZM205.957 67.248C206.606 67.248 207.147 67.0645 207.581 66.6976C208.015 66.3245 208.342 65.817 208.563 65.1748C208.789 64.5327 208.902 63.8019 208.902 62.9824C208.902 62.1629 208.789 61.4321 208.563 60.79C208.342 60.1478 208.015 59.6402 207.581 59.2672C207.147 58.8941 206.606 58.7076 205.957 58.7076C205.303 58.7076 204.753 58.8941 204.306 59.2672C203.866 59.6402 203.532 60.1478 203.306 60.79C203.086 61.4321 202.976 62.1629 202.976 62.9824C202.976 63.8019 203.086 64.5327 203.306 65.1748C203.532 65.817 203.866 66.3245 204.306 66.6976C204.753 67.0645 205.303 67.248 205.957 67.248ZM215.415 75.2838V55.9097H219.268V58.2765H219.442C219.613 57.8973 219.861 57.512 220.185 57.1206C220.515 56.7231 220.943 56.3929 221.469 56.1299C222.001 55.8608 222.662 55.7263 223.451 55.7263C224.478 55.7263 225.426 55.9954 226.295 56.5335C227.163 57.0656 227.857 57.8698 228.377 58.9461C228.897 60.0163 229.157 61.3587 229.157 62.9732C229.157 64.5449 228.903 65.872 228.395 66.9544C227.894 68.0308 227.209 68.8472 226.34 69.4037C225.478 69.9541 224.512 70.2293 223.442 70.2293C222.683 70.2293 222.038 70.104 221.506 69.8532C220.98 69.6025 220.549 69.2875 220.213 68.9084C219.876 68.5231 219.619 68.1348 219.442 67.7434H219.323V75.2838H215.415ZM219.24 62.9549C219.24 63.7927 219.357 64.5235 219.589 65.1473C219.821 65.7711 220.158 66.2573 220.598 66.6059C221.038 66.9483 221.573 67.1196 222.203 67.1196C222.839 67.1196 223.377 66.9453 223.818 66.5967C224.258 66.242 224.591 65.7527 224.818 65.129C225.05 64.499 225.166 63.7744 225.166 62.9549C225.166 62.1415 225.053 61.426 224.827 60.8083C224.601 60.1906 224.267 59.7075 223.827 59.3589C223.387 59.0103 222.845 58.836 222.203 58.836C221.567 58.836 221.029 59.0042 220.589 59.3406C220.155 59.6769 219.821 60.1539 219.589 60.7716C219.357 61.3893 219.24 62.117 219.24 62.9549Z" fill="#2C2C2C"/>
<path d="M62.2591 50.217L59.3481 47.4409C58.8305 46.9121 57.9893 46.978 57.4723 47.5068L44.3398 61.7179C43.8867 62.2467 43.8867 63.0397 44.3398 63.5686L57.4723 77.7797C57.9899 78.3085 58.831 78.3745 59.3481 77.8456L62.2591 75.0695C62.7767 74.5407 62.8412 73.6812 62.3236 73.1529L52.6203 62.6434L62.3241 52.134C62.7772 51.6051 62.7772 50.7457 62.2596 50.2169L62.2591 50.217Z" fill="#FF62C4"/>
<path d="M105.869 61.7181L92.2851 47.5068C91.7497 46.978 90.8796 46.912 90.3448 47.4409L87.3337 50.217C86.7984 50.7459 86.7316 51.6054 87.267 52.1337L97.3042 62.6433L87.267 73.1528C86.7316 73.6817 86.7984 74.5412 87.3337 75.0695L90.3448 77.8456C90.8802 78.3745 91.7502 78.3085 92.2851 77.7797L105.869 63.5685C106.404 63.0396 106.404 62.2466 105.869 61.7177V61.7181Z" fill="#FF62C4"/>
<path d="M81.0611 46.0267L77.1876 45.0456C76.4775 44.8494 75.7674 45.3071 75.5737 46.0267L67.5693 77.6243C67.3756 78.3439 67.8273 79.0635 68.5374 79.2598L72.4109 80.2409C73.121 80.4371 73.8311 79.9794 74.0247 79.2598L82.0295 47.6622C82.1583 46.943 81.7711 46.2234 81.061 46.0272L81.0611 46.0267Z" fill="#FF62C4"/>
<path d="M407.561 38.654L404.717 38.8655L406.685 23.0597L394.006 35.0741L392.243 33.2325L404.923 21.2181L388.959 22.4037L389.311 19.5898L407.917 18.2049L407.644 20.3952L409.856 20.2307L407.561 38.654Z" fill="#FF62C4"/>
</svg>
