<svg width="309" height="166" viewBox="0 0 309 166" fill="none" xmlns="http://www.w3.org/2000/svg">
<rect x="308.308" y="10.3783" width="154.292" height="291.978" rx="7.61081" transform="rotate(90 308.308 10.3783)" fill="#F1D1E5" stroke="#F1D1E5" stroke-width="1.38378"/>
<rect x="293.087" y="0.691892" width="154.292" height="291.978" rx="7.61081" transform="rotate(90 293.087 0.691892)" fill="white" stroke="#F1D1E5" stroke-width="1.38378"/>
<path d="M132.076 86.1046H133.607V93.3233C133.607 93.9762 133.478 94.5347 133.219 94.9987C132.964 95.4628 132.605 95.8174 132.141 96.0627C131.677 96.3046 131.133 96.4256 130.51 96.4256C129.937 96.4256 129.421 96.3212 128.964 96.1124C128.51 95.9036 128.15 95.6003 127.885 95.2026C127.623 94.8015 127.492 94.3143 127.492 93.7409H129.018C129.018 94.0226 129.083 94.2663 129.212 94.4717C129.345 94.6772 129.526 94.838 129.754 94.954C129.986 95.0667 130.251 95.123 130.55 95.123C130.875 95.123 131.15 95.0551 131.375 94.9192C131.604 94.78 131.778 94.5761 131.897 94.3077C132.016 94.0392 132.076 93.7111 132.076 93.3233V86.1046ZM138.941 96.4405C138.225 96.4405 137.6 96.2764 137.066 95.9483C136.533 95.6202 136.118 95.1611 135.823 94.5712C135.528 93.9812 135.381 93.2918 135.381 92.503C135.381 91.7109 135.528 91.0181 135.823 90.4249C136.118 89.8316 136.533 89.3709 137.066 89.0428C137.6 88.7146 138.225 88.5506 138.941 88.5506C139.656 88.5506 140.281 88.7146 140.815 89.0428C141.348 89.3709 141.763 89.8316 142.058 90.4249C142.353 91.0181 142.5 91.7109 142.5 92.503C142.5 93.2918 142.353 93.9812 142.058 94.5712C141.763 95.1611 141.348 95.6202 140.815 95.9483C140.281 96.2764 139.656 96.4405 138.941 96.4405ZM138.945 95.1926C139.41 95.1926 139.794 95.07 140.099 94.8247C140.404 94.5795 140.629 94.253 140.775 93.8453C140.924 93.4377 140.999 92.9886 140.999 92.498C140.999 92.0108 140.924 91.5634 140.775 91.1557C140.629 90.7447 140.404 90.4149 140.099 90.1663C139.794 89.9178 139.41 89.7935 138.945 89.7935C138.478 89.7935 138.09 89.9178 137.782 90.1663C137.477 90.4149 137.25 90.7447 137.101 91.1557C136.955 91.5634 136.882 92.0108 136.882 92.498C136.882 92.9886 136.955 93.4377 137.101 93.8453C137.25 94.253 137.477 94.5795 137.782 94.8247C138.09 95.07 138.478 95.1926 138.945 95.1926ZM144.159 96.2864V88.65H145.646V96.2864H144.159ZM144.91 87.4717C144.652 87.4717 144.43 87.3856 144.244 87.2132C144.062 87.0376 143.971 86.8288 143.971 86.5868C143.971 86.3415 144.062 86.1327 144.244 85.9604C144.43 85.7847 144.652 85.6969 144.91 85.6969C145.169 85.6969 145.389 85.7847 145.571 85.9604C145.757 86.1327 145.85 86.3415 145.85 86.5868C145.85 86.8288 145.757 87.0376 145.571 87.2132C145.389 87.3856 145.169 87.4717 144.91 87.4717ZM149.132 91.7523V96.2864H147.646V88.65H149.073V89.8929H149.167C149.343 89.4886 149.618 89.1637 149.992 88.9185C150.37 88.6732 150.846 88.5506 151.419 88.5506C151.94 88.5506 152.395 88.66 152.786 88.8787C153.177 89.0941 153.481 89.4156 153.696 89.8432C153.912 90.2708 154.019 90.7994 154.019 91.4291V96.2864H152.533V91.6081C152.533 91.0546 152.389 90.6221 152.1 90.3105C151.812 89.9957 151.416 89.8382 150.912 89.8382C150.567 89.8382 150.261 89.9128 149.992 90.0619C149.727 90.2111 149.517 90.4298 149.361 90.7182C149.209 91.0032 149.132 91.3479 149.132 91.7523ZM163.283 88.65V89.8432H159.112V88.65H163.283ZM160.23 86.8205H161.717V94.0442C161.717 94.3325 161.76 94.5496 161.846 94.6955C161.932 94.838 162.043 94.9358 162.179 94.9888C162.318 95.0385 162.469 95.0634 162.631 95.0634C162.751 95.0634 162.855 95.0551 162.945 95.0385C163.034 95.0219 163.104 95.0087 163.153 94.9987L163.422 96.2267C163.336 96.2599 163.213 96.293 163.054 96.3261C162.895 96.3626 162.696 96.3825 162.457 96.3858C162.066 96.3924 161.702 96.3228 161.364 96.177C161.026 96.0312 160.752 95.8058 160.543 95.5009C160.335 95.1959 160.23 94.8131 160.23 94.3524V86.8205ZM166.578 91.7523V96.2864H165.091V86.1046H166.558V89.8929H166.652C166.831 89.4819 167.105 89.1555 167.472 88.9135C167.84 88.6716 168.321 88.5506 168.914 88.5506C169.438 88.5506 169.895 88.6583 170.286 88.8737C170.681 89.0892 170.986 89.4107 171.201 89.8382C171.42 90.2625 171.529 90.7928 171.529 91.4291V96.2864H170.043V91.6081C170.043 91.048 169.899 90.6138 169.61 90.3056C169.322 89.994 168.921 89.8382 168.407 89.8382C168.056 89.8382 167.741 89.9128 167.463 90.0619C167.187 90.2111 166.97 90.4298 166.811 90.7182C166.655 91.0032 166.578 91.3479 166.578 91.7523ZM176.804 96.4405C176.052 96.4405 175.404 96.2797 174.86 95.9583C174.32 95.6334 173.902 95.1777 173.607 94.5911C173.316 94.0011 173.17 93.3101 173.17 92.5179C173.17 91.7357 173.316 91.0463 173.607 90.4497C173.902 89.8531 174.313 89.3875 174.84 89.0527C175.371 88.718 175.99 88.5506 176.7 88.5506C177.131 88.5506 177.548 88.6218 177.953 88.7644C178.357 88.9069 178.72 89.1306 179.041 89.4355C179.363 89.7404 179.616 90.1365 179.802 90.6237C179.988 91.1076 180.08 91.6959 180.08 92.3886V92.9156H174.01V91.802H178.624C178.624 91.4109 178.544 91.0645 178.385 90.7629C178.226 90.458 178.002 90.2177 177.714 90.0421C177.429 89.8664 177.094 89.7786 176.71 89.7786C176.292 89.7786 175.927 89.8813 175.616 90.0868C175.308 90.289 175.069 90.5541 174.9 90.8823C174.734 91.2071 174.651 91.5601 174.651 91.9412V92.8112C174.651 93.3217 174.741 93.7558 174.92 94.1138C175.102 94.4717 175.356 94.7452 175.681 94.9341C176.005 95.1197 176.385 95.2125 176.819 95.2125C177.101 95.2125 177.358 95.1727 177.59 95.0932C177.822 95.0103 178.022 94.8877 178.191 94.7253C178.36 94.5629 178.49 94.3624 178.579 94.1237L179.986 94.3773C179.873 94.7916 179.671 95.1545 179.379 95.4661C179.091 95.7743 178.728 96.0146 178.291 96.1869C177.856 96.356 177.361 96.4405 176.804 96.4405ZM185.554 96.2864V86.1046H191.868V87.427H187.09V90.5293H191.416V91.8467H187.09V96.2864H185.554ZM195.124 86.1046V96.2864H193.638V86.1046H195.124ZM200.341 96.4405C199.625 96.4405 199 96.2764 198.467 95.9483C197.933 95.6202 197.519 95.1611 197.224 94.5712C196.929 93.9812 196.781 93.2918 196.781 92.503C196.781 91.7109 196.929 91.0181 197.224 90.4249C197.519 89.8316 197.933 89.3709 198.467 89.0428C199 88.7146 199.625 88.5506 200.341 88.5506C201.057 88.5506 201.682 88.7146 202.215 89.0428C202.749 89.3709 203.163 89.8316 203.458 90.4249C203.753 91.0181 203.901 91.7109 203.901 92.503C203.901 93.2918 203.753 93.9812 203.458 94.5712C203.163 95.1611 202.749 95.6202 202.215 95.9483C201.682 96.2764 201.057 96.4405 200.341 96.4405ZM200.346 95.1926C200.81 95.1926 201.194 95.07 201.499 94.8247C201.804 94.5795 202.03 94.253 202.175 93.8453C202.325 93.4377 202.399 92.9886 202.399 92.498C202.399 92.0108 202.325 91.5634 202.175 91.1557C202.03 90.7447 201.804 90.4149 201.499 90.1663C201.194 89.9178 200.81 89.7935 200.346 89.7935C199.879 89.7935 199.491 89.9178 199.183 90.1663C198.878 90.4149 198.651 90.7447 198.501 91.1557C198.356 91.5634 198.283 92.0108 198.283 92.498C198.283 92.9886 198.356 93.4377 198.501 93.8453C198.651 94.253 198.878 94.5795 199.183 94.8247C199.491 95.07 199.879 95.1926 200.346 95.1926ZM208.776 96.4405C208.037 96.4405 207.401 96.2731 206.867 95.9384C206.337 95.6003 205.929 95.1346 205.644 94.5413C205.359 93.9481 205.217 93.2686 205.217 92.503C205.217 91.7274 205.363 91.043 205.654 90.4497C205.946 89.8531 206.357 89.3875 206.887 89.0527C207.418 88.718 208.042 88.5506 208.762 88.5506C209.342 88.5506 209.859 88.6583 210.313 88.8737C210.767 89.0859 211.133 89.3842 211.411 89.7686C211.693 90.1531 211.86 90.6022 211.914 91.1159H210.467C210.387 90.758 210.205 90.4497 209.92 90.1912C209.638 89.9327 209.26 89.8034 208.786 89.8034C208.372 89.8034 208.009 89.9128 207.698 90.1315C207.389 90.347 207.149 90.6552 206.977 91.0563C206.804 91.454 206.718 91.9246 206.718 92.4682C206.718 93.025 206.803 93.5056 206.972 93.91C207.141 94.3143 207.379 94.6275 207.688 94.8496C207.999 95.0717 208.365 95.1827 208.786 95.1827C209.068 95.1827 209.323 95.1313 209.552 95.0286C209.784 94.9225 209.978 94.7717 210.134 94.5761C210.293 94.3806 210.404 94.1453 210.467 93.8702H211.914C211.86 94.364 211.7 94.8048 211.431 95.1926C211.163 95.5804 210.803 95.8853 210.352 96.1074C209.905 96.3295 209.38 96.4405 208.776 96.4405ZM214.87 93.6962L214.86 91.8815H215.119L218.162 88.65H219.941L216.471 92.329H216.238L214.87 93.6962ZM213.503 96.2864V86.1046H214.99V96.2864H213.503ZM218.326 96.2864L215.591 92.6571L216.615 91.6181L220.15 96.2864H218.326ZM223.17 86.1046L223.041 93.3581H221.664L221.535 86.1046H223.17ZM222.355 96.3808C222.08 96.3808 221.845 96.2847 221.649 96.0925C221.454 95.8969 221.357 95.6616 221.361 95.3865C221.357 95.1147 221.454 94.8827 221.649 94.6905C221.845 94.4949 222.08 94.3972 222.355 94.3972C222.624 94.3972 222.856 94.4949 223.051 94.6905C223.247 94.8827 223.346 95.1147 223.349 95.3865C223.346 95.5688 223.298 95.7362 223.205 95.8886C223.116 96.0378 222.996 96.1571 222.847 96.2466C222.698 96.3361 222.534 96.3808 222.355 96.3808Z" fill="#2C2C2C"/>
<path d="M135.347 72H128.643V53.0909H135.402C137.304 53.0909 138.941 53.4695 140.314 54.2266C141.687 54.9775 142.742 56.0578 143.481 57.4673C144.226 58.8769 144.598 60.5634 144.598 62.527C144.598 64.4967 144.226 66.1894 143.481 67.6051C142.742 69.0208 141.68 70.1072 140.295 70.8643C138.917 71.6214 137.267 72 135.347 72ZM132.641 68.5746H135.18C136.362 68.5746 137.356 68.3653 138.163 67.9467C138.975 67.522 139.585 66.8665 139.991 65.9801C140.403 65.0876 140.609 63.9366 140.609 62.527C140.609 61.1297 140.403 59.9879 139.991 59.1016C139.585 58.2152 138.978 57.5627 138.172 57.1442C137.366 56.7256 136.371 56.5163 135.19 56.5163H132.641V68.5746ZM147.486 72V57.8182H151.419V72H147.486ZM149.461 55.9901C148.877 55.9901 148.375 55.7962 147.956 55.4084C147.544 55.0144 147.338 54.5436 147.338 53.9957C147.338 53.4541 147.544 52.9893 147.956 52.6016C148.375 52.2076 148.877 52.0107 149.461 52.0107C150.046 52.0107 150.545 52.2076 150.957 52.6016C151.376 52.9893 151.585 53.4541 151.585 53.9957C151.585 54.5436 151.376 55.0144 150.957 55.4084C150.545 55.7962 150.046 55.9901 149.461 55.9901ZM166.369 61.8622L162.768 62.0838C162.707 61.776 162.575 61.4991 162.371 61.2528C162.168 61.0005 161.901 60.8004 161.568 60.6527C161.242 60.4988 160.851 60.4219 160.396 60.4219C159.786 60.4219 159.272 60.5511 158.854 60.8097C158.435 61.062 158.226 61.4006 158.226 61.8253C158.226 62.1638 158.361 62.45 158.632 62.6839C158.903 62.9179 159.368 63.1056 160.026 63.2472L162.593 63.7642C163.972 64.0473 165 64.5028 165.677 65.1307C166.354 65.7585 166.692 66.5833 166.692 67.6051C166.692 68.5346 166.419 69.3501 165.871 70.0518C165.329 70.7536 164.584 71.3014 163.636 71.6953C162.695 72.0831 161.608 72.277 160.377 72.277C158.5 72.277 157.004 71.8861 155.89 71.1044C154.782 70.3165 154.133 69.2455 153.942 67.8913L157.81 67.6882C157.927 68.2607 158.21 68.6977 158.66 68.9993C159.109 69.2947 159.685 69.4425 160.386 69.4425C161.076 69.4425 161.63 69.3101 162.048 69.0455C162.473 68.7746 162.688 68.4268 162.695 68.0021C162.688 67.6451 162.538 67.3527 162.242 67.125C161.947 66.8911 161.491 66.7126 160.876 66.5895L158.42 66.1001C157.035 65.8232 156.004 65.343 155.327 64.6598C154.656 63.9766 154.32 63.1056 154.32 62.0469C154.32 61.1359 154.567 60.3511 155.059 59.6925C155.558 59.0339 156.256 58.526 157.155 58.169C158.06 57.812 159.118 57.6335 160.331 57.6335C162.122 57.6335 163.532 58.0121 164.56 58.7692C165.594 59.5263 166.197 60.5573 166.369 61.8622ZM175.577 72.277C174.124 72.277 172.875 71.9692 171.828 71.3537C170.788 70.732 169.988 69.8703 169.428 68.7685C168.874 67.6667 168.597 66.3987 168.597 64.9645C168.597 63.5118 168.877 62.2377 169.437 61.142C170.003 60.0402 170.807 59.1816 171.847 58.5661C172.887 57.9444 174.124 57.6335 175.558 57.6335C176.796 57.6335 177.879 57.8582 178.808 58.3075C179.738 58.7569 180.473 59.3878 181.015 60.2003C181.557 61.0128 181.855 61.9669 181.911 63.0625H178.199C178.094 62.3546 177.817 61.7853 177.368 61.3544C176.925 60.9174 176.343 60.6989 175.623 60.6989C175.014 60.6989 174.481 60.8651 174.026 61.1974C173.576 61.5237 173.226 62.0007 172.973 62.6286C172.721 63.2564 172.595 64.0166 172.595 64.9091C172.595 65.8139 172.718 66.5833 172.964 67.2173C173.216 67.8513 173.57 68.3345 174.026 68.6669C174.481 68.9993 175.014 69.1655 175.623 69.1655C176.072 69.1655 176.476 69.0732 176.833 68.8885C177.196 68.7038 177.494 68.4361 177.728 68.0852C177.968 67.7282 178.125 67.3004 178.199 66.8018H181.911C181.849 67.8852 181.554 68.8393 181.024 69.6641C180.501 70.4827 179.778 71.1229 178.855 71.5845C177.931 72.0462 176.839 72.277 175.577 72.277ZM190.837 72.277C189.402 72.277 188.162 71.9723 187.116 71.3629C186.076 70.7474 185.272 69.8918 184.706 68.7962C184.14 67.6944 183.857 66.4171 183.857 64.9645C183.857 63.4995 184.14 62.2192 184.706 61.1236C185.272 60.0218 186.076 59.1662 187.116 58.5568C188.162 57.9413 189.402 57.6335 190.837 57.6335C192.271 57.6335 193.508 57.9413 194.548 58.5568C195.595 59.1662 196.401 60.0218 196.967 61.1236C197.534 62.2192 197.817 63.4995 197.817 64.9645C197.817 66.4171 197.534 67.6944 196.967 68.7962C196.401 69.8918 195.595 70.7474 194.548 71.3629C193.508 71.9723 192.271 72.277 190.837 72.277ZM190.855 69.2301C191.508 69.2301 192.052 69.0455 192.489 68.6761C192.926 68.3007 193.256 67.7898 193.477 67.1435C193.705 66.4972 193.819 65.7616 193.819 64.9368C193.819 64.112 193.705 63.3764 193.477 62.7301C193.256 62.0838 192.926 61.5729 192.489 61.1974C192.052 60.822 191.508 60.6342 190.855 60.6342C190.196 60.6342 189.643 60.822 189.193 61.1974C188.75 61.5729 188.415 62.0838 188.187 62.7301C187.965 63.3764 187.854 64.112 187.854 64.9368C187.854 65.7616 187.965 66.4972 188.187 67.1435C188.415 67.7898 188.75 68.3007 189.193 68.6761C189.643 69.0455 190.196 69.2301 190.855 69.2301ZM200.374 72V57.8182H204.188V60.2926H204.335C204.594 59.4124 205.028 58.7476 205.637 58.2983C206.246 57.8428 206.948 57.6151 207.742 57.6151C207.939 57.6151 208.152 57.6274 208.379 57.652C208.607 57.6766 208.807 57.7105 208.979 57.7536V61.2436C208.795 61.1882 208.539 61.139 208.213 61.0959C207.887 61.0528 207.588 61.0312 207.317 61.0312C206.739 61.0312 206.222 61.1574 205.766 61.4098C205.317 61.656 204.96 62.0007 204.695 62.4439C204.437 62.8871 204.308 63.398 204.308 63.9766V72H200.374ZM215.579 72.2308C214.501 72.2308 213.526 71.9538 212.652 71.3999C211.784 70.8397 211.095 70.018 210.584 68.9347C210.079 67.8452 209.827 66.5095 209.827 64.9276C209.827 63.3026 210.088 61.9515 210.611 60.8743C211.135 59.791 211.83 58.9815 212.698 58.446C213.572 57.9044 214.529 57.6335 215.569 57.6335C216.363 57.6335 217.025 57.7689 217.555 58.0398C218.09 58.3045 218.521 58.6368 218.847 59.0369C219.18 59.4309 219.432 59.8187 219.604 60.2003H219.724V53.0909H223.648V72H219.77V69.7287H219.604C219.42 70.1226 219.158 70.5135 218.819 70.9013C218.487 71.2829 218.053 71.5999 217.518 71.8523C216.988 72.1046 216.342 72.2308 215.579 72.2308ZM216.825 69.1009C217.459 69.1009 217.995 68.9285 218.432 68.5838C218.875 68.233 219.213 67.7436 219.447 67.1158C219.687 66.4879 219.807 65.7524 219.807 64.9091C219.807 64.0658 219.69 63.3333 219.456 62.7116C219.223 62.09 218.884 61.6098 218.441 61.2713C217.998 60.9328 217.459 60.7635 216.825 60.7635C216.179 60.7635 215.634 60.9389 215.191 61.2898C214.748 61.6406 214.412 62.1269 214.184 62.7486C213.957 63.3703 213.843 64.0904 213.843 64.9091C213.843 65.7339 213.957 66.4633 214.184 67.0973C214.418 67.7251 214.754 68.2176 215.191 68.5746C215.634 68.9254 216.179 69.1009 216.825 69.1009Z" fill="#2C2C2C"/>
<path d="M112.137 79.7346C110.574 69.8437 107.025 60.3705 101.704 51.8842C101.463 51.5063 101.127 51.1986 100.729 50.9919C96.1109 48.7444 91.2217 47.1009 86.1827 46.102C86.1015 46.0714 86.0146 46.0586 85.9281 46.0644C85.8415 46.0701 85.7572 46.0943 85.6807 46.1354C85.6043 46.1765 85.5376 46.2334 85.4851 46.3024C85.4325 46.3714 85.3954 46.4509 85.3762 46.5354C84.8913 47.6521 84.3554 48.7534 83.9062 49.8803C83.7072 50.3902 83.4775 50.4718 82.9466 50.3902C78.87 49.7525 74.7311 49.6104 70.6202 49.967C69.1553 50.0893 67.6955 50.2729 66.2511 50.4259C65.5773 48.9523 64.9138 47.4991 64.2094 46C58.8419 46.9926 53.6408 48.7348 48.7593 51.1754C48.5187 51.3105 48.3207 51.5101 48.1876 51.7516C46.6564 54.5407 45.0588 57.284 43.7011 60.1445C39.9493 67.9467 37.7199 76.3915 37.1321 85.0273C36.8616 89.2034 37.0912 93.4049 37.0861 97.6013C37.0768 97.9018 37.1474 98.1995 37.2909 98.4637C37.4344 98.728 37.6456 98.9495 37.9028 99.1055C39.9444 100.472 41.8738 101.941 43.9308 103.246C47.6634 105.571 51.6545 107.453 55.8234 108.855C56.1143 108.952 56.4154 109.181 56.6757 108.732C57.9926 106.458 59.335 104.189 60.6416 101.961L54.0624 98.5242C55.5018 97.0302 55.5018 97.0302 57.1249 97.7696L57.6762 98.0194C65.0229 101.349 73.1775 102.482 81.1551 101.283C85.4585 100.616 89.6343 99.2956 93.5377 97.3668C93.7674 97.2597 94.14 97.1016 94.288 97.1985C94.8229 97.6042 95.3341 98.04 95.8192 98.5038L89.1839 101.961C90.4395 104.123 91.7359 106.3 92.9813 108.503C93.2672 109.013 93.5734 109.013 94.0838 108.85C100.606 106.586 106.699 103.24 112.106 98.9526C112.442 98.6685 112.66 98.2708 112.719 97.8359C113.235 91.8002 113.04 85.7248 112.137 79.7346ZM67.0575 86.6692C64.6484 89.5807 60.7948 89.8204 58.0488 87.2403C54.5371 83.9413 54.5831 77.2718 58.1406 74.034C60.8662 71.5457 64.6433 71.8466 67.1086 74.7428C68.4731 76.4161 69.1969 78.5201 69.1502 80.6779C69.1821 82.8591 68.4408 84.9813 67.0575 86.6692ZM92.0677 86.9598C89.4442 89.7234 85.7641 89.7286 83.1151 87.0006C79.8587 83.6506 79.9352 77.4299 83.2733 74.1819C86.249 71.2857 90.6743 71.9128 92.9711 75.5535C93.9229 77.0987 94.4233 78.8789 94.4156 80.6932C94.3748 82.9878 93.7674 85.1905 92.083 86.9598H92.0677Z" fill="#2C2C2C"/>
</svg>
