<svg width="320" height="166" viewBox="0 0 320 166" fill="none" xmlns="http://www.w3.org/2000/svg">
<rect x="308.292" y="10.5514" width="154.292" height="291.978" rx="7.61081" transform="rotate(90 308.292 10.5514)" fill="#FFFFFF" stroke="#F1D1E5" stroke-width="1.38378"/>
<rect x="293.07" y="0.864988" width="154.292" height="291.978" rx="7.61081" transform="rotate(90 293.07 0.864988)" fill="#FFFFFF" stroke="#F1D1E5" stroke-width="1.38378"/>
<path d="M162.73 93.3283V86.3621H164.027V93.3283C164.027 93.977 163.894 94.5243 163.628 94.9702C163.363 95.4162 162.996 95.7563 162.527 95.9905C162.063 96.2202 161.529 96.3351 160.926 96.3351C160.322 96.3351 159.786 96.2315 159.318 96.0243C158.849 95.8171 158.482 95.5018 158.216 95.0783C157.951 94.6549 157.818 94.1211 157.818 93.477H159.122C159.122 93.8914 159.198 94.2315 159.351 94.4972C159.505 94.763 159.716 94.959 159.987 95.0851C160.261 95.2112 160.574 95.2743 160.926 95.2743C161.268 95.2743 161.574 95.2022 161.845 95.0581C162.119 94.9094 162.336 94.6909 162.493 94.4027C162.651 94.1099 162.73 93.7518 162.73 93.3283ZM165.716 92.6256V92.4702C165.716 91.9432 165.793 91.4545 165.946 91.004C166.099 90.5491 166.32 90.1549 166.608 89.8216C166.896 89.4837 167.246 89.2225 167.655 89.0378C168.065 88.8486 168.525 88.754 169.034 88.754C169.547 88.754 170.009 88.8486 170.419 89.0378C170.833 89.2225 171.185 89.4837 171.473 89.8216C171.766 90.1549 171.989 90.5491 172.142 91.004C172.295 91.4545 172.372 91.9432 172.372 92.4702V92.6256C172.372 93.1527 172.295 93.6414 172.142 94.0918C171.989 94.5423 171.766 94.9364 171.473 95.2743C171.185 95.6076 170.836 95.8689 170.426 96.0581C170.02 96.2427 169.561 96.3351 169.047 96.3351C168.534 96.3351 168.072 96.2427 167.662 96.0581C167.252 95.8689 166.901 95.6076 166.608 95.2743C166.32 94.9364 166.099 94.5423 165.946 94.0918C165.793 93.6414 165.716 93.1527 165.716 92.6256ZM166.966 92.4702V92.6256C166.966 92.9905 167.009 93.3351 167.095 93.6594C167.18 93.9792 167.309 94.263 167.48 94.5108C167.655 94.7585 167.874 94.9545 168.135 95.0986C168.396 95.2382 168.701 95.3081 169.047 95.3081C169.39 95.3081 169.689 95.2382 169.946 95.0986C170.207 94.9545 170.423 94.7585 170.595 94.5108C170.766 94.263 170.894 93.9792 170.98 93.6594C171.07 93.3351 171.115 92.9905 171.115 92.6256V92.4702C171.115 92.1099 171.07 91.7698 170.98 91.45C170.894 91.1256 170.764 90.8396 170.588 90.5918C170.417 90.3396 170.201 90.1414 169.939 89.9972C169.683 89.8531 169.381 89.781 169.034 89.781C168.692 89.781 168.39 89.8531 168.128 89.9972C167.872 90.1414 167.655 90.3396 167.48 90.5918C167.309 90.8396 167.18 91.1256 167.095 91.45C167.009 91.7698 166.966 92.1099 166.966 92.4702ZM175.297 88.8891V96.2H174.041V88.8891H175.297ZM173.946 86.95C173.946 86.7472 174.007 86.5761 174.128 86.4364C174.255 86.2968 174.439 86.227 174.683 86.227C174.921 86.227 175.104 86.2968 175.23 86.4364C175.36 86.5761 175.426 86.7472 175.426 86.95C175.426 87.1436 175.36 87.3103 175.23 87.45C175.104 87.5851 174.921 87.6527 174.683 87.6527C174.439 87.6527 174.255 87.5851 174.128 87.45C174.007 87.3103 173.946 87.1436 173.946 86.95ZM178.554 90.45V96.2H177.304V88.8891H178.487L178.554 90.45ZM178.257 92.2675L177.737 92.2472C177.741 91.7472 177.815 91.2855 177.96 90.8621C178.104 90.4342 178.306 90.0626 178.568 89.7472C178.829 89.4319 179.14 89.1887 179.5 89.0175C179.865 88.8418 180.268 88.754 180.71 88.754C181.07 88.754 181.394 88.8036 181.683 88.9027C181.971 88.9972 182.216 89.1504 182.419 89.3621C182.626 89.5738 182.784 89.8486 182.892 90.1864C183 90.5198 183.054 90.9274 183.054 91.4094V96.2H181.797V91.3959C181.797 91.013 181.741 90.7067 181.628 90.477C181.516 90.2427 181.351 90.0738 181.135 89.9702C180.919 89.8621 180.653 89.8081 180.338 89.8081C180.027 89.8081 179.743 89.8734 179.487 90.004C179.234 90.1346 179.016 90.3148 178.831 90.5445C178.651 90.7743 178.509 91.0378 178.405 91.3351C178.306 91.6279 178.257 91.9387 178.257 92.2675ZM191.446 88.8891V89.8486H187.493V88.8891H191.446ZM188.831 87.1121H190.081V94.3891C190.081 94.6369 190.119 94.8238 190.196 94.95C190.273 95.0761 190.372 95.1594 190.493 95.2C190.615 95.2405 190.746 95.2608 190.885 95.2608C190.989 95.2608 191.097 95.2518 191.21 95.2337C191.327 95.2112 191.414 95.1932 191.473 95.1797L191.48 96.2C191.381 96.2315 191.25 96.2608 191.088 96.2878C190.93 96.3193 190.739 96.3351 190.514 96.3351C190.207 96.3351 189.926 96.2743 189.669 96.1527C189.412 96.031 189.207 95.8283 189.054 95.5445C188.905 95.2563 188.831 94.8689 188.831 94.3824V87.1121ZM194.162 85.8216V96.2H192.912V85.8216H194.162ZM193.865 92.2675L193.345 92.2472C193.349 91.7472 193.423 91.2855 193.568 90.8621C193.712 90.4342 193.914 90.0626 194.176 89.7472C194.437 89.4319 194.748 89.1887 195.108 89.0175C195.473 88.8418 195.876 88.754 196.318 88.754C196.678 88.754 197.002 88.8036 197.291 88.9027C197.579 88.9972 197.824 89.1504 198.027 89.3621C198.234 89.5738 198.392 89.8486 198.5 90.1864C198.608 90.5198 198.662 90.9274 198.662 91.4094V96.2H197.405V91.3959C197.405 91.013 197.349 90.7067 197.237 90.477C197.124 90.2427 196.96 90.0738 196.743 89.9702C196.527 89.8621 196.261 89.8081 195.946 89.8081C195.635 89.8081 195.351 89.8734 195.095 90.004C194.842 90.1346 194.624 90.3148 194.439 90.5445C194.259 90.7743 194.117 91.0378 194.014 91.3351C193.914 91.6279 193.865 91.9387 193.865 92.2675ZM203.568 96.3351C203.059 96.3351 202.597 96.2495 202.183 96.0783C201.773 95.9027 201.419 95.6572 201.122 95.3418C200.829 95.0265 200.604 94.6527 200.446 94.2202C200.288 93.7878 200.21 93.3148 200.21 92.8013V92.5175C200.21 91.9229 200.297 91.3936 200.473 90.9297C200.649 90.4612 200.887 90.0648 201.189 89.7405C201.491 89.4162 201.833 89.1707 202.216 89.004C202.599 88.8373 202.996 88.754 203.405 88.754C203.928 88.754 204.378 88.8441 204.757 89.0243C205.14 89.2045 205.453 89.4567 205.696 89.781C205.939 90.1009 206.119 90.4792 206.237 90.9162C206.354 91.3486 206.412 91.8216 206.412 92.3351V92.8959H200.953V91.8756H205.162V91.781C205.144 91.4567 205.077 91.1414 204.96 90.8351C204.847 90.5288 204.667 90.2765 204.419 90.0783C204.171 89.8801 203.833 89.781 203.405 89.781C203.122 89.781 202.86 89.8418 202.622 89.9635C202.383 90.0806 202.178 90.2563 202.007 90.4905C201.836 90.7247 201.703 91.0108 201.608 91.3486C201.514 91.6864 201.466 92.0761 201.466 92.5175V92.8013C201.466 93.1481 201.514 93.4747 201.608 93.781C201.707 94.0828 201.849 94.3486 202.034 94.5783C202.223 94.8081 202.451 94.9882 202.716 95.1189C202.987 95.2495 203.293 95.3148 203.635 95.3148C204.077 95.3148 204.451 95.2247 204.757 95.0445C205.063 94.8644 205.331 94.6234 205.561 94.3216L206.318 94.9229C206.16 95.1617 205.96 95.3891 205.716 95.6054C205.473 95.8216 205.173 95.9972 204.818 96.1324C204.466 96.2675 204.05 96.3351 203.568 96.3351ZM212.797 86.3621V96.2H211.493V86.3621H212.797ZM216.919 90.7878V91.8554H212.514V90.7878H216.919ZM217.588 86.3621V87.4297H212.514V86.3621H217.588ZM220.311 85.8216V96.2H219.054V85.8216H220.311ZM221.987 92.6256V92.4702C221.987 91.9432 222.063 91.4545 222.216 91.004C222.369 90.5491 222.59 90.1549 222.878 89.8216C223.167 89.4837 223.516 89.2225 223.926 89.0378C224.336 88.8486 224.795 88.754 225.304 88.754C225.818 88.754 226.279 88.8486 226.689 89.0378C227.104 89.2225 227.455 89.4837 227.743 89.8216C228.036 90.1549 228.259 90.5491 228.412 91.004C228.565 91.4545 228.642 91.9432 228.642 92.4702V92.6256C228.642 93.1527 228.565 93.6414 228.412 94.0918C228.259 94.5423 228.036 94.9364 227.743 95.2743C227.455 95.6076 227.106 95.8689 226.696 96.0581C226.291 96.2427 225.831 96.3351 225.318 96.3351C224.804 96.3351 224.342 96.2427 223.933 96.0581C223.523 95.8689 223.171 95.6076 222.878 95.2743C222.59 94.9364 222.369 94.5423 222.216 94.0918C222.063 93.6414 221.987 93.1527 221.987 92.6256ZM223.237 92.4702V92.6256C223.237 92.9905 223.279 93.3351 223.365 93.6594C223.451 93.9792 223.579 94.263 223.75 94.5108C223.926 94.7585 224.144 94.9545 224.405 95.0986C224.667 95.2382 224.971 95.3081 225.318 95.3081C225.66 95.3081 225.96 95.2382 226.216 95.0986C226.478 94.9545 226.694 94.7585 226.865 94.5108C227.036 94.263 227.164 93.9792 227.25 93.6594C227.34 93.3351 227.385 92.9905 227.385 92.6256V92.4702C227.385 92.1099 227.34 91.7698 227.25 91.45C227.164 91.1256 227.034 90.8396 226.858 90.5918C226.687 90.3396 226.471 90.1414 226.21 89.9972C225.953 89.8531 225.651 89.781 225.304 89.781C224.962 89.781 224.66 89.8531 224.399 89.9972C224.142 90.1414 223.926 90.3396 223.75 90.5918C223.579 90.8396 223.451 91.1256 223.365 91.45C223.279 91.7698 223.237 92.1099 223.237 92.4702ZM233.135 95.3081C233.433 95.3081 233.707 95.2472 233.96 95.1256C234.212 95.004 234.419 94.8373 234.581 94.6256C234.743 94.4094 234.836 94.1639 234.858 93.8891H236.047C236.025 94.3216 235.878 94.7247 235.608 95.0986C235.342 95.468 234.993 95.7675 234.561 95.9972C234.128 96.2225 233.653 96.3351 233.135 96.3351C232.586 96.3351 232.106 96.2382 231.696 96.0445C231.291 95.8509 230.953 95.5851 230.683 95.2472C230.417 94.9094 230.216 94.522 230.081 94.0851C229.951 93.6436 229.885 93.1774 229.885 92.6864V92.4027C229.885 91.9117 229.951 91.4477 230.081 91.0108C230.216 90.5693 230.417 90.1797 230.683 89.8418C230.953 89.504 231.291 89.2382 231.696 89.0445C232.106 88.8509 232.586 88.754 233.135 88.754C233.707 88.754 234.207 88.8711 234.635 89.1054C235.063 89.3351 235.399 89.6504 235.642 90.0513C235.89 90.4477 236.025 90.8981 236.047 91.4027H234.858C234.836 91.1009 234.75 90.8283 234.601 90.5851C234.457 90.3418 234.259 90.1481 234.007 90.004C233.759 89.8554 233.469 89.781 233.135 89.781C232.752 89.781 232.43 89.8576 232.169 90.0108C231.912 90.1594 231.707 90.3621 231.554 90.6189C231.405 90.8711 231.297 91.1527 231.23 91.4635C231.167 91.7698 231.135 92.0828 231.135 92.4027V92.6864C231.135 93.0063 231.167 93.3216 231.23 93.6324C231.293 93.9432 231.399 94.2247 231.547 94.477C231.701 94.7292 231.905 94.9319 232.162 95.0851C232.424 95.2337 232.748 95.3081 233.135 95.3081ZM238.71 85.8216V96.2H237.453V85.8216H238.71ZM243.176 88.8891L239.987 92.3013L238.203 94.1527L238.101 92.8216L239.378 91.2945L241.649 88.8891H243.176ZM242.034 96.2L239.426 92.7135L240.074 91.5986L243.507 96.2H242.034ZM245.953 86.3621L245.865 93.4229H244.737L244.642 86.3621H245.953ZM244.601 95.5716C244.601 95.3689 244.662 95.1977 244.784 95.0581C244.91 94.9184 245.095 94.8486 245.338 94.8486C245.577 94.8486 245.759 94.9184 245.885 95.0581C246.016 95.1977 246.081 95.3689 246.081 95.5716C246.081 95.7653 246.016 95.9319 245.885 96.0716C245.759 96.2112 245.577 96.281 245.338 96.281C245.095 96.281 244.91 96.2112 244.784 96.0716C244.662 95.9319 244.601 95.7653 244.601 95.5716Z" fill="#2C2C2C"/>
<path d="M164.737 71.9136H160.739L160.764 68.962H164.737C165.73 68.962 166.566 68.7392 167.247 68.2935C167.929 67.8395 168.442 67.1794 168.786 66.3132C169.139 65.4471 169.316 64.4002 169.316 63.1725V62.277C169.316 61.3352 169.215 60.5069 169.013 59.7921C168.82 59.0774 168.53 58.4761 168.143 57.9884C167.756 57.5007 167.281 57.1349 166.718 56.8911C166.154 56.6388 165.507 56.5127 164.775 56.5127H160.663V53.5485H164.775C166.003 53.5485 167.126 53.7588 168.143 54.1792C169.169 54.5912 170.056 55.1841 170.804 55.9577C171.553 56.7313 172.129 57.6563 172.532 58.7326C172.945 59.8006 173.151 60.9904 173.151 62.3022V63.1725C173.151 64.4759 172.945 65.6658 172.532 66.7421C172.129 67.8184 171.553 68.7434 170.804 69.517C170.064 70.2822 169.177 70.8751 168.143 71.2955C167.117 71.7076 165.982 71.9136 164.737 71.9136ZM162.883 53.5485V71.9136H159.099V53.5485H162.883ZM179.508 58.2659V71.9136H175.862V58.2659H179.508ZM175.635 54.709C175.635 54.1792 175.82 53.7419 176.19 53.3972C176.56 53.0524 177.056 52.88 177.679 52.88C178.293 52.88 178.785 53.0524 179.155 53.3972C179.533 53.7419 179.722 54.1792 179.722 54.709C179.722 55.2387 179.533 55.676 179.155 56.0207C178.785 56.3655 178.293 56.5379 177.679 56.5379C177.056 56.5379 176.56 56.3655 176.19 56.0207C175.82 55.676 175.635 55.2387 175.635 54.709ZM189.888 68.1422C189.888 67.8815 189.813 67.6461 189.661 67.4358C189.51 67.2256 189.228 67.0322 188.816 66.8556C188.413 66.6706 187.828 66.5024 187.063 66.3511C186.374 66.1997 185.73 66.0105 185.133 65.7835C184.545 65.548 184.032 65.2663 183.594 64.9384C183.166 64.6104 182.829 64.2236 182.585 63.778C182.341 63.3239 182.22 62.8067 182.22 62.2265C182.22 61.6547 182.341 61.1165 182.585 60.612C182.838 60.1075 183.195 59.6618 183.657 59.275C184.128 58.8798 184.7 58.5729 185.373 58.3542C186.054 58.1272 186.819 58.0137 187.669 58.0137C188.854 58.0137 189.872 58.2029 190.721 58.5813C191.579 58.9597 192.235 59.481 192.689 60.1453C193.151 60.8012 193.382 61.5496 193.382 62.3905H189.75C189.75 62.0373 189.674 61.722 189.523 61.4445C189.38 61.1586 189.153 60.9358 188.842 60.776C188.539 60.6078 188.144 60.5237 187.656 60.5237C187.252 60.5237 186.903 60.5952 186.609 60.7381C186.315 60.8727 186.088 61.0577 185.928 61.2931C185.777 61.5202 185.701 61.7724 185.701 62.0499C185.701 62.2602 185.743 62.4494 185.827 62.6175C185.919 62.7773 186.067 62.9245 186.268 63.059C186.47 63.1935 186.731 63.3197 187.05 63.4374C187.378 63.5467 187.782 63.6476 188.261 63.7401C189.245 63.9419 190.124 64.2068 190.898 64.5348C191.671 64.8543 192.285 65.2916 192.739 65.8466C193.193 66.3931 193.42 67.1121 193.42 68.0034C193.42 68.6089 193.286 69.1639 193.017 69.6684C192.747 70.1729 192.361 70.6144 191.856 70.9928C191.352 71.3628 190.746 71.6529 190.04 71.8631C189.342 72.0649 188.556 72.1658 187.681 72.1658C186.411 72.1658 185.335 71.9388 184.452 71.4847C183.578 71.0306 182.913 70.4546 182.459 69.7567C182.014 69.0503 181.791 68.3272 181.791 67.5872H185.234C185.251 68.0833 185.377 68.4827 185.613 68.7855C185.856 69.0882 186.163 69.3068 186.533 69.4414C186.912 69.5759 187.32 69.6432 187.757 69.6432C188.228 69.6432 188.619 69.5801 188.93 69.454C189.241 69.3194 189.476 69.1428 189.636 68.9242C189.804 68.6972 189.888 68.4365 189.888 68.1422ZM201.417 69.3278C201.863 69.3278 202.258 69.2437 202.603 69.0756C202.947 68.899 203.217 68.6551 203.41 68.344C203.612 68.0245 203.717 67.6503 203.725 67.2214H207.144C207.135 68.18 206.879 69.0335 206.374 69.7819C205.87 70.5219 205.193 71.1063 204.343 71.5352C203.494 71.9556 202.544 72.1658 201.493 72.1658C200.433 72.1658 199.508 71.9893 198.718 71.6361C197.936 71.2829 197.284 70.7952 196.763 70.1729C196.241 69.5423 195.85 68.8107 195.59 67.9782C195.329 67.1373 195.199 66.2376 195.199 65.279V64.9132C195.199 63.9461 195.329 63.0464 195.59 62.2139C195.85 61.373 196.241 60.6414 196.763 60.0192C197.284 59.3885 197.936 58.8966 198.718 58.5434C199.5 58.1902 200.416 58.0137 201.468 58.0137C202.586 58.0137 203.566 58.2281 204.406 58.6569C205.256 59.0858 205.92 59.6996 206.399 60.4985C206.887 61.2889 207.135 62.2265 207.144 63.3113H203.725C203.717 62.8572 203.62 62.4452 203.435 62.0752C203.259 61.7052 202.998 61.4109 202.653 61.1922C202.317 60.9652 201.901 60.8517 201.404 60.8517C200.875 60.8517 200.442 60.9652 200.105 61.1922C199.769 61.4109 199.508 61.7136 199.323 62.1004C199.138 62.4788 199.008 62.9118 198.932 63.3996C198.865 63.8789 198.831 64.3834 198.831 64.9132V65.279C198.831 65.8087 198.865 66.3174 198.932 66.8052C199 67.2929 199.126 67.7259 199.311 68.1043C199.504 68.4827 199.769 68.7813 200.105 68.9999C200.442 69.2185 200.879 69.3278 201.417 69.3278ZM208.67 65.2285V64.9636C208.67 63.963 208.813 63.0422 209.099 62.2013C209.385 61.352 209.801 60.6162 210.347 59.994C210.894 59.3717 211.567 58.8882 212.365 58.5434C213.164 58.1902 214.081 58.0137 215.115 58.0137C216.149 58.0137 217.07 58.1902 217.877 58.5434C218.685 58.8882 219.362 59.3717 219.908 59.994C220.463 60.6162 220.884 61.352 221.17 62.2013C221.455 63.0422 221.598 63.963 221.598 64.9636V65.2285C221.598 66.2207 221.455 67.1415 221.17 67.9908C220.884 68.8317 220.463 69.5675 219.908 70.1982C219.362 70.8204 218.689 71.3039 217.89 71.6487C217.091 71.9935 216.175 72.1658 215.14 72.1658C214.106 72.1658 213.185 71.9935 212.378 71.6487C211.579 71.3039 210.902 70.8204 210.347 70.1982C209.801 69.5675 209.385 68.8317 209.099 67.9908C208.813 67.1415 208.67 66.2207 208.67 65.2285ZM212.302 64.9636V65.2285C212.302 65.8003 212.353 66.3343 212.454 66.8304C212.555 67.3265 212.714 67.7638 212.933 68.1422C213.16 68.5122 213.454 68.8023 213.816 69.0125C214.178 69.2227 214.619 69.3278 215.14 69.3278C215.645 69.3278 216.078 69.2227 216.44 69.0125C216.801 68.8023 217.091 68.5122 217.31 68.1422C217.529 67.7638 217.688 67.3265 217.789 66.8304C217.899 66.3343 217.953 65.8003 217.953 65.2285V64.9636C217.953 64.4086 217.899 63.8873 217.789 63.3996C217.688 62.9034 217.524 62.4662 217.297 62.0878C217.079 61.701 216.789 61.3982 216.427 61.1796C216.065 60.961 215.628 60.8517 215.115 60.8517C214.602 60.8517 214.165 60.961 213.803 61.1796C213.45 61.3982 213.16 61.701 212.933 62.0878C212.714 62.4662 212.555 62.9034 212.454 63.3996C212.353 63.8873 212.302 64.4086 212.302 64.9636ZM227.464 61.2427V71.9136H223.831V58.2659H227.249L227.464 61.2427ZM231.576 58.1776L231.513 61.5454C231.336 61.5202 231.122 61.4991 230.869 61.4823C230.625 61.4571 230.403 61.4445 230.201 61.4445C229.688 61.4445 229.242 61.5118 228.864 61.6463C228.494 61.7724 228.183 61.9616 227.93 62.2139C227.686 62.4662 227.501 62.7731 227.375 63.1347C227.258 63.4963 227.19 63.9083 227.174 64.3708L226.442 64.1437C226.442 63.2608 226.53 62.4494 226.707 61.7094C226.883 60.961 227.14 60.3093 227.476 59.7543C227.821 59.1993 228.241 58.7705 228.738 58.4677C229.234 58.165 229.801 58.0137 230.44 58.0137C230.642 58.0137 230.848 58.0305 231.058 58.0641C231.269 58.0893 231.441 58.1272 231.576 58.1776ZM241.099 68.9368V52.5395H244.757V71.9136H241.464L241.099 68.9368ZM232.471 65.2537V64.9888C232.471 63.9461 232.589 63.0001 232.824 62.1508C233.06 61.2931 233.405 60.5574 233.859 59.9435C234.313 59.3297 234.872 58.8545 235.536 58.5182C236.2 58.1818 236.957 58.0137 237.807 58.0137C238.605 58.0137 239.303 58.1818 239.9 58.5182C240.506 58.8545 241.019 59.3339 241.439 59.9561C241.868 60.57 242.213 61.2973 242.474 62.1382C242.734 62.9707 242.923 63.8831 243.041 64.8753V65.4555C242.923 66.4057 242.734 67.2887 242.474 68.1043C242.213 68.92 241.868 69.6348 241.439 70.2486C241.019 70.8541 240.506 71.325 239.9 71.6613C239.295 71.9977 238.589 72.1658 237.781 72.1658C236.932 72.1658 236.175 71.9935 235.511 71.6487C234.855 71.3039 234.3 70.8204 233.846 70.1982C233.4 69.5759 233.06 68.8443 232.824 68.0034C232.589 67.1625 232.471 66.246 232.471 65.2537ZM236.104 64.9888V65.2537C236.104 65.8171 236.146 66.3427 236.23 66.8304C236.322 67.3181 236.47 67.7512 236.671 68.1296C236.882 68.4996 237.151 68.7897 237.479 68.9999C237.815 69.2017 238.223 69.3026 238.702 69.3026C239.324 69.3026 239.837 69.1639 240.241 68.8864C240.645 68.6005 240.952 68.2095 241.162 67.7133C241.38 67.2172 241.507 66.6454 241.54 65.9979V64.3456C241.515 63.8158 241.439 63.3407 241.313 62.9203C241.195 62.4914 241.019 62.1256 240.783 61.8229C240.556 61.5202 240.27 61.2847 239.926 61.1165C239.589 60.9484 239.19 60.8643 238.727 60.8643C238.256 60.8643 237.853 60.9736 237.516 61.1922C237.18 61.4024 236.907 61.6926 236.697 62.0625C236.495 62.4325 236.343 62.8698 236.243 63.3743C236.15 63.8705 236.104 64.4086 236.104 64.9888Z" fill="#2C2C2C"/>
<path d="M123.137 80.7346C121.574 70.8437 118.025 61.3705 112.704 52.8842C112.463 52.5063 112.127 52.1986 111.729 51.9919C107.111 49.7444 102.222 48.1009 97.1827 47.102C97.1015 47.0714 97.0146 47.0586 96.9281 47.0644C96.8415 47.0701 96.7572 47.0943 96.6807 47.1354C96.6043 47.1765 96.5376 47.2334 96.4851 47.3024C96.4325 47.3714 96.3954 47.4509 96.3762 47.5354C95.8913 48.6521 95.3554 49.7534 94.9062 50.8803C94.7072 51.3902 94.4775 51.4718 93.9466 51.3902C89.87 50.7525 85.7311 50.6104 81.6202 50.967C80.1553 51.0893 78.6955 51.2729 77.2511 51.4259C76.5773 49.9523 75.9138 48.4991 75.2094 47C69.8419 47.9926 64.6408 49.7348 59.7593 52.1754C59.5187 52.3105 59.3207 52.5101 59.1876 52.7516C57.6564 55.5407 56.0588 58.284 54.7011 61.1445C50.9493 68.9467 48.7199 77.3915 48.1321 86.0273C47.8616 90.2034 48.0912 94.4049 48.0861 98.6013C48.0768 98.9018 48.1474 99.1995 48.2909 99.4637C48.4344 99.728 48.6456 99.9495 48.9028 100.106C50.9444 101.472 52.8738 102.941 54.9308 104.246C58.6634 106.571 62.6545 108.453 66.8234 109.855C67.1143 109.952 67.4154 110.181 67.6757 109.732C68.9926 107.458 70.335 105.189 71.6416 102.961L65.0624 99.5242C66.5018 98.0302 66.5018 98.0302 68.1249 98.7696L68.6762 99.0194C76.0229 102.349 84.1775 103.482 92.1551 102.283C96.4585 101.616 100.634 100.296 104.538 98.3668C104.767 98.2597 105.14 98.1016 105.288 98.1985C105.823 98.6042 106.334 99.04 106.819 99.5038L100.184 102.961C101.439 105.123 102.736 107.3 103.981 109.503C104.267 110.013 104.573 110.013 105.084 109.85C111.606 107.586 117.699 104.24 123.106 99.9526C123.442 99.6685 123.66 99.2708 123.719 98.8359C124.235 92.8002 124.04 86.7248 123.137 80.7346ZM78.0575 87.6692C75.6484 90.5807 71.7948 90.8204 69.0488 88.2403C65.5371 84.9413 65.5831 78.2718 69.1406 75.034C71.8662 72.5457 75.6433 72.8466 78.1086 75.7428C79.4731 77.4161 80.1969 79.5201 80.1502 81.6779C80.1821 83.8591 79.4408 85.9813 78.0575 87.6692ZM103.068 87.9598C100.444 90.7234 96.7641 90.7286 94.1151 88.0006C90.8587 84.6506 90.9352 78.4299 94.2733 75.1819C97.249 72.2857 101.674 72.9128 103.971 76.5535C104.923 78.0987 105.423 79.8789 105.416 81.6932C105.375 83.9878 104.767 86.1905 103.083 87.9598H103.068Z" fill="#2C2C2C"/>
</svg>
