<svg width="309" height="166" viewBox="0 0 309 166" fill="none" xmlns="http://www.w3.org/2000/svg">
<rect x="307.892" y="10.7622" width="154.292" height="291.978" rx="7.61081" transform="rotate(90 307.892 10.7622)" fill="white" stroke="#F1D1E5" stroke-width="1.38378"/>
<rect x="292.67" y="1.07568" width="154.292" height="291.978" rx="7.61081" transform="rotate(90 292.67 1.07568)" fill="white" stroke="#F1D1E5" stroke-width="1.38378"/>
<path d="M131.415 95H128.119V84.8182H131.519C132.517 84.8182 133.374 85.022 134.089 85.4297C134.805 85.834 135.354 86.4157 135.735 87.1747C136.12 87.9304 136.312 88.8369 136.312 89.8942C136.312 90.9548 136.118 91.8662 135.73 92.6286C135.346 93.3909 134.789 93.9775 134.06 94.3885C133.33 94.7962 132.449 95 131.415 95ZM129.655 93.6577H131.33C132.106 93.6577 132.75 93.5118 133.264 93.2202C133.778 92.9252 134.162 92.4993 134.418 91.9425C134.673 91.3823 134.8 90.6996 134.8 89.8942C134.8 89.0954 134.673 88.4176 134.418 87.8608C134.166 87.304 133.79 86.8814 133.289 86.593C132.789 86.3047 132.167 86.1605 131.425 86.1605H129.655V93.6577ZM140.325 95.169C139.841 95.169 139.404 95.0795 139.013 94.9006C138.622 94.7183 138.312 94.4548 138.083 94.1101C137.858 93.7654 137.745 93.3428 137.745 92.8423C137.745 92.4115 137.828 92.0568 137.993 91.7784C138.159 91.5 138.383 91.2796 138.665 91.1172C138.946 90.9548 139.261 90.8321 139.609 90.7493C139.957 90.6664 140.312 90.6035 140.673 90.5604C141.131 90.5073 141.502 90.4643 141.787 90.4311C142.072 90.3946 142.279 90.3366 142.408 90.2571C142.537 90.1776 142.602 90.0483 142.602 89.8693V89.8345C142.602 89.4003 142.479 89.0639 142.234 88.8253C141.992 88.5866 141.631 88.4673 141.15 88.4673C140.65 88.4673 140.256 88.5784 139.967 88.8004C139.682 89.0192 139.485 89.2628 139.376 89.5312L137.979 89.2131C138.144 88.7491 138.386 88.3745 138.704 88.0895C139.026 87.8011 139.395 87.5923 139.813 87.4631C140.231 87.3305 140.67 87.2642 141.131 87.2642C141.435 87.2642 141.759 87.3007 142.1 87.3736C142.445 87.4432 142.766 87.5724 143.064 87.7614C143.366 87.9503 143.613 88.2204 143.805 88.5717C143.997 88.9197 144.094 89.3722 144.094 89.929V95H142.642V93.956H142.582C142.486 94.1482 142.342 94.3371 142.15 94.5227C141.957 94.7083 141.711 94.8625 141.409 94.9851C141.107 95.1077 140.746 95.169 140.325 95.169ZM140.648 93.9759C141.059 93.9759 141.411 93.8946 141.702 93.7322C141.997 93.5698 142.221 93.3577 142.373 93.0959C142.529 92.8307 142.607 92.5473 142.607 92.2457V91.2614C142.554 91.3144 142.451 91.3641 142.299 91.4105C142.15 91.4536 141.979 91.4917 141.787 91.5249C141.595 91.5547 141.407 91.5829 141.225 91.6094C141.043 91.6326 140.89 91.6525 140.768 91.669C140.479 91.7055 140.216 91.7668 139.977 91.853C139.742 91.9392 139.553 92.0634 139.41 92.2259C139.271 92.3849 139.202 92.5971 139.202 92.8622C139.202 93.2301 139.337 93.5085 139.609 93.6974C139.881 93.883 140.227 93.9759 140.648 93.9759ZM146.074 95V87.3636H147.56V95H146.074ZM146.824 86.1854C146.566 86.1854 146.344 86.0992 146.158 85.9268C145.976 85.7512 145.885 85.5424 145.885 85.3004C145.885 85.0552 145.976 84.8464 146.158 84.674C146.344 84.4983 146.566 84.4105 146.824 84.4105C147.083 84.4105 147.303 84.4983 147.485 84.674C147.671 84.8464 147.764 85.0552 147.764 85.3004C147.764 85.5424 147.671 85.7512 147.485 85.9268C147.303 86.0992 147.083 86.1854 146.824 86.1854ZM151.046 84.8182V95H149.56V84.8182H151.046ZM153.986 97.8636C153.764 97.8636 153.562 97.8454 153.379 97.8089C153.197 97.7758 153.061 97.7393 152.972 97.6996L153.33 96.4815C153.601 96.5545 153.843 96.5859 154.055 96.576C154.268 96.5661 154.455 96.4865 154.617 96.3374C154.783 96.1882 154.929 95.9446 155.055 95.6065L155.239 95.0994L152.445 87.3636H154.036L155.969 93.2898H156.049L157.983 87.3636H159.579L156.432 96.0192C156.286 96.4169 156.1 96.7533 155.875 97.0284C155.65 97.3068 155.381 97.5156 155.07 97.6548C154.758 97.794 154.397 97.8636 153.986 97.8636ZM165.66 95H164.03L167.694 84.8182H169.469L173.133 95H171.502L168.623 86.6676H168.544L165.66 95ZM165.934 91.0128H171.224V92.3054H165.934V91.0128ZM175.97 90.4659V95H174.484V87.3636H175.911V88.6065H176.005C176.181 88.2022 176.456 87.8774 176.83 87.6321C177.208 87.3868 177.684 87.2642 178.257 87.2642C178.777 87.2642 179.233 87.3736 179.624 87.5923C180.015 87.8078 180.319 88.1293 180.534 88.5568C180.75 88.9844 180.857 89.513 180.857 90.1428V95H179.371V90.3217C179.371 89.7682 179.227 89.3357 178.938 89.0241C178.65 88.7093 178.254 88.5518 177.75 88.5518C177.405 88.5518 177.099 88.6264 176.83 88.7756C176.565 88.9247 176.355 89.1435 176.199 89.4318C176.046 89.7169 175.97 90.0616 175.97 90.4659ZM184.337 90.4659V95H182.851V87.3636H184.278V88.6065H184.372C184.548 88.2022 184.823 87.8774 185.197 87.6321C185.575 87.3868 186.051 87.2642 186.624 87.2642C187.145 87.2642 187.6 87.3736 187.991 87.5923C188.383 87.8078 188.686 88.1293 188.901 88.5568C189.117 88.9844 189.224 89.513 189.224 90.1428V95H187.738V90.3217C187.738 89.7682 187.594 89.3357 187.305 89.0241C187.017 88.7093 186.621 88.5518 186.117 88.5518C185.772 88.5518 185.466 88.6264 185.197 88.7756C184.932 88.9247 184.722 89.1435 184.566 89.4318C184.414 89.7169 184.337 90.0616 184.337 90.4659ZM194.435 95.1541C193.719 95.1541 193.094 94.9901 192.56 94.6619C192.027 94.3338 191.612 93.8748 191.317 93.2848C191.022 92.6948 190.875 92.0054 190.875 91.2166C190.875 90.4245 191.022 89.7318 191.317 89.1385C191.612 88.5452 192.027 88.0845 192.56 87.7564C193.094 87.4283 193.719 87.2642 194.435 87.2642C195.151 87.2642 195.775 87.4283 196.309 87.7564C196.843 88.0845 197.257 88.5452 197.552 89.1385C197.847 89.7318 197.994 90.4245 197.994 91.2166C197.994 92.0054 197.847 92.6948 197.552 93.2848C197.257 93.8748 196.843 94.3338 196.309 94.6619C195.775 94.9901 195.151 95.1541 194.435 95.1541ZM194.44 93.9062C194.904 93.9062 195.288 93.7836 195.593 93.5384C195.898 93.2931 196.123 92.9666 196.269 92.5589C196.418 92.1513 196.493 91.7022 196.493 91.2116C196.493 90.7244 196.418 90.277 196.269 89.8693C196.123 89.4583 195.898 89.1286 195.593 88.88C195.288 88.6314 194.904 88.5071 194.44 88.5071C193.972 88.5071 193.585 88.6314 193.276 88.88C192.971 89.1286 192.744 89.4583 192.595 89.8693C192.449 90.277 192.376 90.7244 192.376 91.2116C192.376 91.7022 192.449 92.1513 192.595 92.5589C192.744 92.9666 192.971 93.2931 193.276 93.5384C193.585 93.7836 193.972 93.9062 194.44 93.9062ZM204.491 91.8331V87.3636H205.982V95H204.521V93.6776H204.441C204.266 94.0852 203.984 94.425 203.596 94.6967C203.212 94.9652 202.733 95.0994 202.159 95.0994C201.669 95.0994 201.235 94.9917 200.857 94.7763C200.482 94.5575 200.187 94.2344 199.972 93.8068C199.76 93.3793 199.654 92.8506 199.654 92.2209V87.3636H201.14V92.0419C201.14 92.5623 201.284 92.9766 201.573 93.2848C201.861 93.593 202.235 93.7472 202.696 93.7472C202.975 93.7472 203.251 93.6776 203.526 93.5384C203.805 93.3991 204.035 93.1887 204.218 92.907C204.403 92.6252 204.494 92.2673 204.491 91.8331ZM209.466 90.4659V95H207.98V87.3636H209.407V88.6065H209.501C209.677 88.2022 209.952 87.8774 210.326 87.6321C210.704 87.3868 211.18 87.2642 211.753 87.2642C212.274 87.2642 212.729 87.3736 213.12 87.5923C213.511 87.8078 213.815 88.1293 214.03 88.5568C214.246 88.9844 214.353 89.513 214.353 90.1428V95H212.867V90.3217C212.867 89.7682 212.723 89.3357 212.434 89.0241C212.146 88.7093 211.75 88.5518 211.246 88.5518C210.901 88.5518 210.595 88.6264 210.326 88.7756C210.061 88.9247 209.851 89.1435 209.695 89.4318C209.542 89.7169 209.466 90.0616 209.466 90.4659ZM219.564 95.1541C218.824 95.1541 218.188 94.9867 217.654 94.652C217.124 94.3139 216.717 93.8482 216.431 93.255C216.146 92.6617 216.004 91.9822 216.004 91.2166C216.004 90.4411 216.15 89.7566 216.441 89.1634C216.733 88.5668 217.144 88.1011 217.674 87.7663C218.205 87.4316 218.829 87.2642 219.549 87.2642C220.129 87.2642 220.646 87.3719 221.1 87.5874C221.554 87.7995 221.92 88.0978 222.199 88.4822C222.48 88.8667 222.648 89.3158 222.701 89.8295H221.254C221.174 89.4716 220.992 89.1634 220.707 88.9048C220.425 88.6463 220.047 88.517 219.574 88.517C219.159 88.517 218.796 88.6264 218.485 88.8452C218.176 89.0606 217.936 89.3688 217.764 89.7699C217.592 90.1676 217.505 90.6383 217.505 91.1818C217.505 91.7386 217.59 92.2192 217.759 92.6236C217.928 93.0279 218.167 93.3411 218.475 93.5632C218.786 93.7853 219.153 93.8963 219.574 93.8963C219.855 93.8963 220.11 93.8449 220.339 93.7422C220.571 93.6361 220.765 93.4853 220.921 93.2898C221.08 93.0942 221.191 92.8589 221.254 92.5838H222.701C222.648 93.0777 222.487 93.5185 222.218 93.9062C221.95 94.294 221.59 94.599 221.14 94.821C220.692 95.0431 220.167 95.1541 219.564 95.1541ZM227.581 95.1541C226.829 95.1541 226.181 94.9934 225.638 94.6719C225.097 94.3471 224.68 93.8913 224.385 93.3047C224.093 92.7147 223.947 92.0237 223.947 91.2315C223.947 90.4493 224.093 89.7599 224.385 89.1634C224.68 88.5668 225.091 88.1011 225.618 87.7663C226.148 87.4316 226.768 87.2642 227.477 87.2642C227.908 87.2642 228.326 87.3355 228.73 87.478C229.134 87.6205 229.497 87.8442 229.819 88.1491C230.14 88.4541 230.394 88.8501 230.579 89.3374C230.765 89.8213 230.858 90.4096 230.858 91.1023V91.6293H224.787V90.5156H229.401C229.401 90.1245 229.322 89.7782 229.162 89.4766C229.003 89.1716 228.78 88.9313 228.491 88.7557C228.206 88.58 227.872 88.4922 227.487 88.4922C227.069 88.4922 226.705 88.5949 226.393 88.8004C226.085 89.0026 225.846 89.2678 225.677 89.5959C225.512 89.9207 225.429 90.2737 225.429 90.6548V91.5249C225.429 92.0353 225.518 92.4695 225.697 92.8274C225.88 93.1854 226.133 93.4588 226.458 93.6477C226.783 93.8333 227.162 93.9261 227.596 93.9261C227.878 93.9261 228.135 93.8864 228.367 93.8068C228.599 93.724 228.8 93.6013 228.969 93.4389C229.138 93.2765 229.267 93.076 229.356 92.8374L230.763 93.0909C230.651 93.5052 230.448 93.8681 230.157 94.1797C229.868 94.4879 229.506 94.7282 229.068 94.9006C228.634 95.0696 228.138 95.1541 227.581 95.1541ZM232.507 95V87.3636H233.934V88.6065H234.028C234.188 88.1856 234.448 87.8575 234.809 87.6222C235.17 87.3835 235.603 87.2642 236.107 87.2642C236.617 87.2642 237.045 87.3835 237.389 87.6222C237.737 87.8608 237.994 88.1889 238.16 88.6065H238.239C238.422 88.1989 238.712 87.8741 239.109 87.6321C239.507 87.3868 239.981 87.2642 240.531 87.2642C241.224 87.2642 241.789 87.4813 242.227 87.9155C242.667 88.3497 242.888 89.0043 242.888 89.8793V95H241.401V90.0185C241.401 89.5014 241.26 89.1269 240.979 88.8949C240.697 88.6629 240.361 88.5469 239.969 88.5469C239.486 88.5469 239.109 88.696 238.841 88.9943C238.572 89.2893 238.438 89.6688 238.438 90.1328V95H236.957V89.924C236.957 89.5097 236.827 89.1766 236.569 88.9247C236.31 88.6728 235.974 88.5469 235.56 88.5469C235.278 88.5469 235.018 88.6214 234.779 88.7706C234.544 88.9164 234.353 89.1203 234.207 89.3821C234.065 89.6439 233.994 89.9472 233.994 90.2919V95H232.507ZM248.171 95.1541C247.419 95.1541 246.771 94.9934 246.227 94.6719C245.687 94.3471 245.27 93.8913 244.975 93.3047C244.683 92.7147 244.537 92.0237 244.537 91.2315C244.537 90.4493 244.683 89.7599 244.975 89.1634C245.27 88.5668 245.681 88.1011 246.208 87.7663C246.738 87.4316 247.358 87.2642 248.067 87.2642C248.498 87.2642 248.915 87.3355 249.32 87.478C249.724 87.6205 250.087 87.8442 250.409 88.1491C250.73 88.4541 250.984 88.8501 251.169 89.3374C251.355 89.8213 251.448 90.4096 251.448 91.1023V91.6293H245.377V90.5156H249.991C249.991 90.1245 249.911 89.7782 249.752 89.4766C249.593 89.1716 249.369 88.9313 249.081 88.7557C248.796 88.58 248.461 88.4922 248.077 88.4922C247.659 88.4922 247.295 88.5949 246.983 88.8004C246.675 89.0026 246.436 89.2678 246.267 89.5959C246.102 89.9207 246.019 90.2737 246.019 90.6548V91.5249C246.019 92.0353 246.108 92.4695 246.287 92.8274C246.469 93.1854 246.723 93.4588 247.048 93.6477C247.373 93.8333 247.752 93.9261 248.186 93.9261C248.468 93.9261 248.725 93.8864 248.957 93.8068C249.189 93.724 249.389 93.6013 249.558 93.4389C249.727 93.2765 249.857 93.076 249.946 92.8374L251.353 93.0909C251.24 93.5052 251.038 93.8681 250.747 94.1797C250.458 94.4879 250.095 94.7282 249.658 94.9006C249.224 95.0696 248.728 95.1541 248.171 95.1541ZM254.583 90.4659V95H253.097V87.3636H254.524V88.6065H254.618C254.794 88.2022 255.069 87.8774 255.444 87.6321C255.821 87.3868 256.297 87.2642 256.87 87.2642C257.391 87.2642 257.846 87.3736 258.238 87.5923C258.629 87.8078 258.932 88.1293 259.147 88.5568C259.363 88.9844 259.471 89.513 259.471 90.1428V95H257.984V90.3217C257.984 89.7682 257.84 89.3357 257.551 89.0241C257.263 88.7093 256.867 88.5518 256.363 88.5518C256.019 88.5518 255.712 88.6264 255.444 88.7756C255.178 88.9247 254.968 89.1435 254.812 89.4318C254.66 89.7169 254.583 90.0616 254.583 90.4659ZM265.029 87.3636V88.5568H260.858V87.3636H265.029ZM261.976 85.5341H263.463V92.7578C263.463 93.0462 263.506 93.2633 263.592 93.4091C263.678 93.5516 263.789 93.6494 263.925 93.7024C264.064 93.7521 264.215 93.777 264.377 93.777C264.497 93.777 264.601 93.7687 264.691 93.7521C264.78 93.7356 264.85 93.7223 264.9 93.7124L265.168 94.9403C265.082 94.9735 264.959 95.0066 264.8 95.0398C264.641 95.0762 264.442 95.0961 264.203 95.0994C263.812 95.1061 263.448 95.0365 263.11 94.8906C262.772 94.7448 262.498 94.5194 262.289 94.2145C262.081 93.9096 261.976 93.5268 261.976 93.0661V85.5341ZM272.272 89.228L270.925 89.4666C270.869 89.2943 270.779 89.1302 270.657 88.9744C270.537 88.8187 270.375 88.6911 270.169 88.5916C269.964 88.4922 269.707 88.4425 269.399 88.4425C268.978 88.4425 268.627 88.5369 268.345 88.7259C268.063 88.9115 267.922 89.1518 267.922 89.4467C267.922 89.7019 268.017 89.9074 268.206 90.0632C268.395 90.219 268.699 90.3466 269.12 90.446L270.333 90.7244C271.036 90.8868 271.56 91.1371 271.904 91.4751C272.249 91.8132 272.422 92.2524 272.422 92.7926C272.422 93.25 272.289 93.6577 272.024 94.0156C271.762 94.3703 271.396 94.6487 270.925 94.8509C270.458 95.053 269.916 95.1541 269.299 95.1541C268.444 95.1541 267.747 94.9718 267.206 94.6072C266.666 94.2393 266.335 93.7173 266.212 93.0412L267.649 92.8224C267.738 93.197 267.922 93.4804 268.201 93.6726C268.479 93.8615 268.842 93.956 269.289 93.956C269.777 93.956 270.166 93.8549 270.458 93.6527C270.749 93.4472 270.895 93.197 270.895 92.902C270.895 92.6634 270.806 92.4628 270.627 92.3004C270.451 92.138 270.181 92.0154 269.816 91.9325L268.524 91.6491C267.811 91.4867 267.284 91.2282 266.943 90.8736C266.605 90.5189 266.436 90.0698 266.436 89.5263C266.436 89.0755 266.562 88.6811 266.814 88.343C267.065 88.005 267.413 87.7415 267.858 87.5526C268.302 87.3603 268.81 87.2642 269.384 87.2642C270.209 87.2642 270.859 87.4432 271.333 87.8011C271.807 88.1558 272.12 88.6314 272.272 89.228ZM275.99 93.608L275.915 94.1499C275.866 94.5476 275.781 94.9619 275.662 95.3928C275.546 95.8269 275.425 96.2296 275.299 96.6009C275.176 96.9721 275.075 97.267 274.996 97.4858H273.942C273.985 97.2803 274.044 97.0019 274.121 96.6506C274.197 96.3026 274.271 95.9131 274.344 95.4822C274.417 95.0514 274.472 94.6122 274.508 94.1648L274.558 93.608H275.99ZM128.119 112V101.818H131.748C132.537 101.818 133.191 101.954 133.712 102.226C134.235 102.498 134.626 102.874 134.885 103.354C135.143 103.832 135.273 104.384 135.273 105.01C135.273 105.633 135.142 106.182 134.88 106.656C134.621 107.126 134.23 107.492 133.707 107.754C133.186 108.016 132.532 108.147 131.743 108.147H128.994V106.825H131.604C132.101 106.825 132.505 106.753 132.817 106.611C133.132 106.468 133.362 106.261 133.508 105.989C133.654 105.718 133.727 105.391 133.727 105.01C133.727 104.625 133.652 104.292 133.503 104.011C133.357 103.729 133.127 103.513 132.812 103.364C132.5 103.212 132.091 103.136 131.584 103.136H129.655V112H128.119ZM133.145 107.406L135.661 112H133.911L131.445 107.406H133.145ZM140.218 112.154C139.466 112.154 138.818 111.993 138.274 111.672C137.734 111.347 137.316 110.891 137.021 110.305C136.73 109.715 136.584 109.024 136.584 108.232C136.584 107.449 136.73 106.76 137.021 106.163C137.316 105.567 137.727 105.101 138.254 104.766C138.785 104.432 139.405 104.264 140.114 104.264C140.545 104.264 140.962 104.335 141.367 104.478C141.771 104.621 142.134 104.844 142.455 105.149C142.777 105.454 143.03 105.85 143.216 106.337C143.402 106.821 143.494 107.41 143.494 108.102V108.629H137.424V107.516H142.038C142.038 107.125 141.958 106.778 141.799 106.477C141.64 106.172 141.416 105.931 141.128 105.756C140.843 105.58 140.508 105.492 140.124 105.492C139.706 105.492 139.342 105.595 139.03 105.8C138.722 106.003 138.483 106.268 138.314 106.596C138.148 106.921 138.066 107.274 138.066 107.655V108.525C138.066 109.035 138.155 109.469 138.334 109.827C138.516 110.185 138.77 110.459 139.095 110.648C139.419 110.833 139.799 110.926 140.233 110.926C140.515 110.926 140.772 110.886 141.004 110.807C141.236 110.724 141.436 110.601 141.605 110.439C141.774 110.277 141.904 110.076 141.993 109.837L143.4 110.091C143.287 110.505 143.085 110.868 142.794 111.18C142.505 111.488 142.142 111.728 141.705 111.901C141.271 112.07 140.775 112.154 140.218 112.154ZM150.866 106.228L149.519 106.467C149.462 106.294 149.373 106.13 149.25 105.974C149.131 105.819 148.969 105.691 148.763 105.592C148.558 105.492 148.301 105.442 147.993 105.442C147.572 105.442 147.22 105.537 146.939 105.726C146.657 105.911 146.516 106.152 146.516 106.447C146.516 106.702 146.61 106.907 146.799 107.063C146.988 107.219 147.293 107.347 147.714 107.446L148.927 107.724C149.63 107.887 150.154 108.137 150.498 108.475C150.843 108.813 151.015 109.252 151.015 109.793C151.015 110.25 150.883 110.658 150.618 111.016C150.356 111.37 149.989 111.649 149.519 111.851C149.051 112.053 148.51 112.154 147.893 112.154C147.038 112.154 146.34 111.972 145.8 111.607C145.26 111.239 144.928 110.717 144.806 110.041L146.243 109.822C146.332 110.197 146.516 110.48 146.794 110.673C147.073 110.862 147.436 110.956 147.883 110.956C148.37 110.956 148.76 110.855 149.051 110.653C149.343 110.447 149.489 110.197 149.489 109.902C149.489 109.663 149.4 109.463 149.221 109.3C149.045 109.138 148.775 109.015 148.41 108.933L147.118 108.649C146.405 108.487 145.878 108.228 145.537 107.874C145.199 107.519 145.029 107.07 145.029 106.526C145.029 106.076 145.155 105.681 145.407 105.343C145.659 105.005 146.007 104.741 146.451 104.553C146.895 104.36 147.404 104.264 147.978 104.264C148.803 104.264 149.453 104.443 149.926 104.801C150.4 105.156 150.714 105.631 150.866 106.228ZM155.866 112.154C155.15 112.154 154.526 111.99 153.992 111.662C153.458 111.334 153.044 110.875 152.749 110.285C152.454 109.695 152.307 109.005 152.307 108.217C152.307 107.424 152.454 106.732 152.749 106.138C153.044 105.545 153.458 105.085 153.992 104.756C154.526 104.428 155.15 104.264 155.866 104.264C156.582 104.264 157.207 104.428 157.741 104.756C158.274 105.085 158.689 105.545 158.983 106.138C159.278 106.732 159.426 107.424 159.426 108.217C159.426 109.005 159.278 109.695 158.983 110.285C158.689 110.875 158.274 111.334 157.741 111.662C157.207 111.99 156.582 112.154 155.866 112.154ZM155.871 110.906C156.335 110.906 156.72 110.784 157.025 110.538C157.33 110.293 157.555 109.967 157.701 109.559C157.85 109.151 157.925 108.702 157.925 108.212C157.925 107.724 157.85 107.277 157.701 106.869C157.555 106.458 157.33 106.129 157.025 105.88C156.72 105.631 156.335 105.507 155.871 105.507C155.404 105.507 155.016 105.631 154.708 105.88C154.403 106.129 154.176 106.458 154.027 106.869C153.881 107.277 153.808 107.724 153.808 108.212C153.808 108.702 153.881 109.151 154.027 109.559C154.176 109.967 154.403 110.293 154.708 110.538C155.016 110.784 155.404 110.906 155.871 110.906ZM165.923 108.833V104.364H167.414V112H165.952V110.678H165.873C165.697 111.085 165.415 111.425 165.028 111.697C164.643 111.965 164.164 112.099 163.591 112.099C163.1 112.099 162.666 111.992 162.288 111.776C161.914 111.558 161.619 111.234 161.403 110.807C161.191 110.379 161.085 109.851 161.085 109.221V104.364H162.572V109.042C162.572 109.562 162.716 109.977 163.004 110.285C163.293 110.593 163.667 110.747 164.128 110.747C164.406 110.747 164.683 110.678 164.958 110.538C165.237 110.399 165.467 110.189 165.649 109.907C165.835 109.625 165.926 109.267 165.923 108.833ZM169.411 112V104.364H170.848V105.577H170.928C171.067 105.166 171.312 104.843 171.664 104.607C172.018 104.369 172.419 104.249 172.867 104.249C172.959 104.249 173.069 104.253 173.195 104.259C173.324 104.266 173.425 104.274 173.498 104.284V105.706C173.438 105.689 173.332 105.671 173.18 105.651C173.027 105.628 172.875 105.616 172.722 105.616C172.371 105.616 172.058 105.691 171.783 105.84C171.511 105.986 171.296 106.19 171.137 106.452C170.977 106.71 170.898 107.005 170.898 107.337V112H169.411ZM177.728 112.154C176.989 112.154 176.352 111.987 175.819 111.652C175.288 111.314 174.881 110.848 174.596 110.255C174.31 109.662 174.168 108.982 174.168 108.217C174.168 107.441 174.314 106.757 174.605 106.163C174.897 105.567 175.308 105.101 175.838 104.766C176.369 104.432 176.993 104.264 177.713 104.264C178.293 104.264 178.81 104.372 179.264 104.587C179.718 104.799 180.084 105.098 180.363 105.482C180.644 105.867 180.812 106.316 180.865 106.83H179.418C179.338 106.472 179.156 106.163 178.871 105.905C178.589 105.646 178.212 105.517 177.738 105.517C177.323 105.517 176.96 105.626 176.649 105.845C176.341 106.061 176.1 106.369 175.928 106.77C175.756 107.168 175.669 107.638 175.669 108.182C175.669 108.739 175.754 109.219 175.923 109.624C176.092 110.028 176.331 110.341 176.639 110.563C176.95 110.785 177.317 110.896 177.738 110.896C178.019 110.896 178.275 110.845 178.503 110.742C178.735 110.636 178.929 110.485 179.085 110.29C179.244 110.094 179.355 109.859 179.418 109.584H180.865C180.812 110.078 180.651 110.518 180.382 110.906C180.114 111.294 179.754 111.599 179.304 111.821C178.856 112.043 178.331 112.154 177.728 112.154ZM185.746 112.154C184.993 112.154 184.345 111.993 183.802 111.672C183.261 111.347 182.844 110.891 182.549 110.305C182.257 109.715 182.111 109.024 182.111 108.232C182.111 107.449 182.257 106.76 182.549 106.163C182.844 105.567 183.255 105.101 183.782 104.766C184.312 104.432 184.932 104.264 185.641 104.264C186.072 104.264 186.49 104.335 186.894 104.478C187.298 104.621 187.661 104.844 187.983 105.149C188.304 105.454 188.558 105.85 188.743 106.337C188.929 106.821 189.022 107.41 189.022 108.102V108.629H182.952V107.516H187.565C187.565 107.125 187.486 106.778 187.327 106.477C187.167 106.172 186.944 105.931 186.655 105.756C186.37 105.58 186.036 105.492 185.651 105.492C185.233 105.492 184.869 105.595 184.557 105.8C184.249 106.003 184.01 106.268 183.841 106.596C183.676 106.921 183.593 107.274 183.593 107.655V108.525C183.593 109.035 183.682 109.469 183.861 109.827C184.044 110.185 184.297 110.459 184.622 110.648C184.947 110.833 185.326 110.926 185.76 110.926C186.042 110.926 186.299 110.886 186.531 110.807C186.763 110.724 186.964 110.601 187.133 110.439C187.302 110.277 187.431 110.076 187.52 109.837L188.927 110.091C188.815 110.505 188.613 110.868 188.321 111.18C188.032 111.488 187.67 111.728 187.232 111.901C186.798 112.07 186.302 112.154 185.746 112.154ZM196.393 106.228L195.046 106.467C194.99 106.294 194.9 106.13 194.778 105.974C194.658 105.819 194.496 105.691 194.29 105.592C194.085 105.492 193.828 105.442 193.52 105.442C193.099 105.442 192.748 105.537 192.466 105.726C192.184 105.911 192.043 106.152 192.043 106.447C192.043 106.702 192.138 106.907 192.327 107.063C192.516 107.219 192.821 107.347 193.241 107.446L194.455 107.724C195.157 107.887 195.681 108.137 196.026 108.475C196.37 108.813 196.543 109.252 196.543 109.793C196.543 110.25 196.41 110.658 196.145 111.016C195.883 111.37 195.517 111.649 195.046 111.851C194.579 112.053 194.037 112.154 193.42 112.154C192.565 112.154 191.868 111.972 191.327 111.607C190.787 111.239 190.456 110.717 190.333 110.041L191.77 109.822C191.859 110.197 192.043 110.48 192.322 110.673C192.6 110.862 192.963 110.956 193.411 110.956C193.898 110.956 194.287 110.855 194.579 110.653C194.871 110.447 195.016 110.197 195.016 109.902C195.016 109.663 194.927 109.463 194.748 109.3C194.572 109.138 194.302 109.015 193.938 108.933L192.645 108.649C191.932 108.487 191.405 108.228 191.064 107.874C190.726 107.519 190.557 107.07 190.557 106.526C190.557 106.076 190.683 105.681 190.935 105.343C191.187 105.005 191.535 104.741 191.979 104.553C192.423 104.36 192.932 104.264 193.505 104.264C194.33 104.264 194.98 104.443 195.454 104.801C195.928 105.156 196.241 105.631 196.393 106.228ZM204.104 112.169C203.621 112.169 203.183 112.08 202.792 111.901C202.401 111.718 202.091 111.455 201.862 111.11C201.637 110.765 201.524 110.343 201.524 109.842C201.524 109.411 201.607 109.057 201.773 108.778C201.938 108.5 202.162 108.28 202.444 108.117C202.726 107.955 203.04 107.832 203.388 107.749C203.737 107.666 204.091 107.603 204.452 107.56C204.91 107.507 205.281 107.464 205.566 107.431C205.851 107.395 206.058 107.337 206.188 107.257C206.317 107.178 206.381 107.048 206.381 106.869V106.835C206.381 106.4 206.259 106.064 206.013 105.825C205.772 105.587 205.41 105.467 204.93 105.467C204.429 105.467 204.035 105.578 203.746 105.8C203.461 106.019 203.264 106.263 203.155 106.531L201.758 106.213C201.924 105.749 202.165 105.375 202.484 105.089C202.805 104.801 203.175 104.592 203.592 104.463C204.01 104.33 204.449 104.264 204.91 104.264C205.215 104.264 205.538 104.301 205.879 104.374C206.224 104.443 206.545 104.572 206.844 104.761C207.145 104.95 207.392 105.22 207.585 105.572C207.777 105.92 207.873 106.372 207.873 106.929V112H206.421V110.956H206.362C206.265 111.148 206.121 111.337 205.929 111.523C205.737 111.708 205.49 111.862 205.188 111.985C204.887 112.108 204.525 112.169 204.104 112.169ZM204.428 110.976C204.839 110.976 205.19 110.895 205.482 110.732C205.777 110.57 206 110.358 206.153 110.096C206.308 109.831 206.386 109.547 206.386 109.246V108.261C206.333 108.314 206.231 108.364 206.078 108.411C205.929 108.454 205.758 108.492 205.566 108.525C205.374 108.555 205.187 108.583 205.004 108.609C204.822 108.633 204.67 108.652 204.547 108.669C204.259 108.705 203.995 108.767 203.756 108.853C203.521 108.939 203.332 109.063 203.19 109.226C203.05 109.385 202.981 109.597 202.981 109.862C202.981 110.23 203.117 110.509 203.388 110.697C203.66 110.883 204.007 110.976 204.428 110.976ZM211.339 107.466V112H209.853V104.364H211.28V105.607H211.374C211.55 105.202 211.825 104.877 212.199 104.632C212.577 104.387 213.053 104.264 213.626 104.264C214.147 104.264 214.602 104.374 214.993 104.592C215.385 104.808 215.688 105.129 215.903 105.557C216.119 105.984 216.226 106.513 216.226 107.143V112H214.74V107.322C214.74 106.768 214.596 106.336 214.307 106.024C214.019 105.709 213.623 105.552 213.119 105.552C212.774 105.552 212.468 105.626 212.199 105.776C211.934 105.925 211.724 106.143 211.568 106.432C211.416 106.717 211.339 107.062 211.339 107.466ZM221.079 112.149C220.462 112.149 219.912 111.992 219.428 111.677C218.948 111.359 218.57 110.906 218.295 110.32C218.023 109.73 217.887 109.022 217.887 108.197C217.887 107.371 218.024 106.665 218.3 106.079C218.578 105.492 218.959 105.043 219.443 104.732C219.927 104.42 220.475 104.264 221.089 104.264C221.563 104.264 221.944 104.344 222.232 104.503C222.524 104.659 222.749 104.841 222.908 105.05C223.071 105.259 223.197 105.442 223.286 105.602H223.376V101.818H224.862V112H223.41V110.812H223.286C223.197 110.974 223.067 111.16 222.898 111.369C222.733 111.577 222.504 111.76 222.212 111.915C221.921 112.071 221.543 112.149 221.079 112.149ZM221.407 110.881C221.834 110.881 222.196 110.769 222.491 110.543C222.789 110.315 223.014 109.998 223.167 109.594C223.323 109.189 223.4 108.719 223.4 108.182C223.4 107.652 223.324 107.187 223.172 106.79C223.019 106.392 222.796 106.082 222.501 105.86C222.206 105.638 221.841 105.527 221.407 105.527C220.959 105.527 220.586 105.643 220.288 105.875C219.99 106.107 219.765 106.424 219.612 106.825C219.463 107.226 219.388 107.678 219.388 108.182C219.388 108.692 219.465 109.151 219.617 109.559C219.769 109.967 219.995 110.29 220.293 110.528C220.595 110.764 220.966 110.881 221.407 110.881ZM230.689 112V104.364H232.116V105.607H232.21C232.369 105.186 232.629 104.857 232.991 104.622C233.352 104.384 233.784 104.264 234.288 104.264C234.799 104.264 235.226 104.384 235.571 104.622C235.919 104.861 236.176 105.189 236.341 105.607H236.421C236.603 105.199 236.893 104.874 237.291 104.632C237.689 104.387 238.163 104.264 238.713 104.264C239.406 104.264 239.971 104.481 240.408 104.915C240.849 105.35 241.069 106.004 241.069 106.879V112H239.583V107.018C239.583 106.501 239.442 106.127 239.16 105.895C238.879 105.663 238.542 105.547 238.151 105.547C237.667 105.547 237.291 105.696 237.023 105.994C236.754 106.289 236.62 106.669 236.62 107.133V112H235.138V106.924C235.138 106.51 235.009 106.177 234.751 105.925C234.492 105.673 234.156 105.547 233.741 105.547C233.46 105.547 233.199 105.621 232.961 105.771C232.725 105.916 232.535 106.12 232.389 106.382C232.247 106.644 232.175 106.947 232.175 107.292V112H230.689ZM246.278 112.154C245.563 112.154 244.938 111.99 244.404 111.662C243.871 111.334 243.456 110.875 243.161 110.285C242.866 109.695 242.719 109.005 242.719 108.217C242.719 107.424 242.866 106.732 243.161 106.138C243.456 105.545 243.871 105.085 244.404 104.756C244.938 104.428 245.563 104.264 246.278 104.264C246.994 104.264 247.619 104.428 248.153 104.756C248.686 105.085 249.101 105.545 249.396 106.138C249.691 106.732 249.838 107.424 249.838 108.217C249.838 109.005 249.691 109.695 249.396 110.285C249.101 110.875 248.686 111.334 248.153 111.662C247.619 111.99 246.994 112.154 246.278 112.154ZM246.283 110.906C246.747 110.906 247.132 110.784 247.437 110.538C247.742 110.293 247.967 109.967 248.113 109.559C248.262 109.151 248.337 108.702 248.337 108.212C248.337 107.724 248.262 107.277 248.113 106.869C247.967 106.458 247.742 106.129 247.437 105.88C247.132 105.631 246.747 105.507 246.283 105.507C245.816 105.507 245.428 105.631 245.12 105.88C244.815 106.129 244.588 106.458 244.439 106.869C244.293 107.277 244.22 107.724 244.22 108.212C244.22 108.702 244.293 109.151 244.439 109.559C244.588 109.967 244.815 110.293 245.12 110.538C245.428 110.784 245.816 110.906 246.283 110.906ZM251.497 112V104.364H252.934V105.577H253.014C253.153 105.166 253.398 104.843 253.749 104.607C254.104 104.369 254.505 104.249 254.953 104.249C255.045 104.249 255.155 104.253 255.281 104.259C255.41 104.266 255.511 104.274 255.584 104.284V105.706C255.524 105.689 255.418 105.671 255.266 105.651C255.113 105.628 254.961 105.616 254.808 105.616C254.457 105.616 254.144 105.691 253.869 105.84C253.597 105.986 253.382 106.19 253.222 106.452C253.063 106.71 252.984 107.005 252.984 107.337V112H251.497ZM259.888 112.154C259.136 112.154 258.488 111.993 257.944 111.672C257.404 111.347 256.986 110.891 256.691 110.305C256.4 109.715 256.254 109.024 256.254 108.232C256.254 107.449 256.4 106.76 256.691 106.163C256.986 105.567 257.397 105.101 257.924 104.766C258.455 104.432 259.074 104.264 259.784 104.264C260.215 104.264 260.632 104.335 261.037 104.478C261.441 104.621 261.804 104.844 262.125 105.149C262.447 105.454 262.7 105.85 262.886 106.337C263.072 106.821 263.164 107.41 263.164 108.102V108.629H257.094V107.516H261.708C261.708 107.125 261.628 106.778 261.469 106.477C261.31 106.172 261.086 105.931 260.798 105.756C260.513 105.58 260.178 105.492 259.794 105.492C259.376 105.492 259.011 105.595 258.7 105.8C258.392 106.003 258.153 106.268 257.984 106.596C257.818 106.921 257.735 107.274 257.735 107.655V108.525C257.735 109.035 257.825 109.469 258.004 109.827C258.186 110.185 258.44 110.459 258.765 110.648C259.089 110.833 259.469 110.926 259.903 110.926C260.185 110.926 260.442 110.886 260.674 110.807C260.906 110.724 261.106 110.601 261.275 110.439C261.444 110.277 261.574 110.076 261.663 109.837L263.07 110.091C262.957 110.505 262.755 110.868 262.463 111.18C262.175 111.488 261.812 111.728 261.375 111.901C260.94 112.07 260.445 112.154 259.888 112.154ZM265.793 112.094C265.521 112.094 265.288 111.998 265.092 111.806C264.897 111.611 264.799 111.375 264.799 111.1C264.799 110.828 264.897 110.596 265.092 110.404C265.288 110.209 265.521 110.111 265.793 110.111C266.065 110.111 266.299 110.209 266.494 110.404C266.69 110.596 266.787 110.828 266.787 111.1C266.787 111.282 266.741 111.45 266.648 111.602C266.559 111.751 266.439 111.871 266.29 111.96C266.141 112.05 265.975 112.094 265.793 112.094Z" fill="#2C2C2C"/>
<path d="M128.26 71.0485V52.1394H140.78V55.4355H132.258V59.9412H139.949V63.2374H132.258V71.0485H128.26ZM148.761 71.3255C147.327 71.3255 146.087 71.0208 145.041 70.4114C144 69.7959 143.197 68.9403 142.631 67.8446C142.064 66.7428 141.781 65.4656 141.781 64.013C141.781 62.548 142.064 61.2677 142.631 60.172C143.197 59.0702 144 58.2147 145.041 57.6053C146.087 56.9897 147.327 56.682 148.761 56.682C150.196 56.682 151.433 56.9897 152.473 57.6053C153.519 58.2147 154.326 59.0702 154.892 60.172C155.458 61.2677 155.742 62.548 155.742 64.013C155.742 65.4656 155.458 66.7428 154.892 67.8446C154.326 68.9403 153.519 69.7959 152.473 70.4114C151.433 71.0208 150.196 71.3255 148.761 71.3255ZM148.78 68.2786C149.432 68.2786 149.977 68.0939 150.414 67.7246C150.851 67.3491 151.18 66.8382 151.402 66.1919C151.63 65.5456 151.744 64.8101 151.744 63.9853C151.744 63.1604 151.63 62.4249 151.402 61.7786C151.18 61.1323 150.851 60.6214 150.414 60.2459C149.977 59.8704 149.432 59.6827 148.78 59.6827C148.121 59.6827 147.567 59.8704 147.118 60.2459C146.675 60.6214 146.339 61.1323 146.112 61.7786C145.89 62.4249 145.779 63.1604 145.779 63.9853C145.779 64.8101 145.89 65.5456 146.112 66.1919C146.339 66.8382 146.675 67.3491 147.118 67.7246C147.567 68.0939 148.121 68.2786 148.78 68.2786ZM158.299 71.0485V56.8666H162.112V59.3411H162.26C162.519 58.4609 162.952 57.7961 163.562 57.3468C164.171 56.8913 164.873 56.6635 165.667 56.6635C165.864 56.6635 166.076 56.6758 166.304 56.7004C166.532 56.7251 166.732 56.7589 166.904 56.802V60.2921C166.72 60.2367 166.464 60.1874 166.138 60.1443C165.812 60.1013 165.513 60.0797 165.242 60.0797C164.664 60.0797 164.147 60.2059 163.691 60.4583C163.242 60.7045 162.885 61.0492 162.62 61.4924C162.362 61.9355 162.232 62.4464 162.232 63.025V71.0485H158.299ZM178.032 65.0101V56.8666H181.965V71.0485H178.189V68.4725H178.041C177.721 69.3034 177.189 69.9713 176.444 70.476C175.705 70.9808 174.804 71.2331 173.739 71.2331C172.791 71.2331 171.957 71.0177 171.237 70.5868C170.517 70.1559 169.953 69.5435 169.547 68.7495C169.147 67.9554 168.944 67.0044 168.938 65.8965V56.8666H172.871V65.1948C172.877 66.0319 173.102 66.6936 173.545 67.1799C173.988 67.6661 174.582 67.9093 175.327 67.9093C175.801 67.9093 176.244 67.8015 176.656 67.5861C177.069 67.3645 177.401 67.0383 177.654 66.6074C177.912 66.1765 178.038 65.6441 178.032 65.0101ZM185.112 71.0485V56.8666H188.86V59.3688H189.026C189.322 58.5378 189.814 57.8823 190.504 57.4022C191.193 56.922 192.018 56.682 192.978 56.682C193.951 56.682 194.778 56.9251 195.462 57.4114C196.145 57.8915 196.6 58.544 196.828 59.3688H196.976C197.265 58.5563 197.788 57.9069 198.546 57.4206C199.309 56.9282 200.211 56.682 201.251 56.682C202.574 56.682 203.648 57.1036 204.473 57.9469C205.304 58.784 205.72 59.972 205.72 61.5108V71.0485H201.796V62.2864C201.796 61.4985 201.586 60.9076 201.168 60.5137C200.749 60.1197 200.226 59.9228 199.598 59.9228C198.884 59.9228 198.327 60.1505 197.927 60.606C197.527 61.0553 197.327 61.6493 197.327 62.388V71.0485H193.514V62.2033C193.514 61.5077 193.314 60.9538 192.913 60.5414C192.519 60.129 191.999 59.9228 191.353 59.9228C190.916 59.9228 190.522 60.0335 190.171 60.2551C189.827 60.4706 189.553 60.7753 189.349 61.1692C189.146 61.557 189.045 62.0125 189.045 62.5357V71.0485H185.112Z" fill="#2C2C2C"/>
<path d="M111.428 67.5078C106.689 52.4354 96.3868 43.3305 80.4102 40.3865C79.5921 40.233 78.7681 40.125 77.9442 40H72.194C69.3949 40.5683 66.5081 40.8241 63.82 41.705C49.2108 46.4848 40.0654 56.1012 37.1144 70.9975C36.9507 71.85 36.8163 72.7025 36.6702 73.5664V114.032H77.6052C80.3927 113.464 83.2444 113.14 85.9558 112.327C93.0529 110.177 99.3482 106.055 104.066 100.469C108.785 94.8821 111.719 88.0752 112.51 80.8866C112.576 80.5161 112.666 80.1497 112.778 79.7897V74.1916C112.34 71.9807 112.106 69.6732 111.428 67.5078ZM98.8645 77.4766C98.3678 89.9801 87.2181 99.8238 74.1925 99.1305C72.0006 98.9825 69.8388 98.5505 67.7645 97.846C66.348 97.3706 64.8179 97.3171 63.37 97.6926C59.2327 98.6587 55.0661 99.5226 50.5899 100.489C51.9164 96.3456 53.1845 92.532 54.3123 88.7241C54.549 87.8602 54.4916 86.9449 54.1487 86.1154C52.4863 82.6065 51.7767 78.7416 52.0877 74.8899C52.3987 71.0383 53.7198 67.3285 55.925 64.115C58.1301 60.9014 61.1456 58.2913 64.6833 56.5341C68.2211 54.7769 72.163 53.9313 76.1326 54.0779C89.1874 54.5325 99.3613 65.0128 98.8645 77.4766Z" fill="#2C2C2C"/>
</svg>
