<svg width="310" height="166" viewBox="0 0 310 166" fill="none" xmlns="http://www.w3.org/2000/svg">
<rect x="308.876" y="10.9353" width="154.292" height="291.978" rx="7.61081" transform="rotate(90 308.876 10.9353)" fill="#FFFFFF" stroke="#F1D1E5" stroke-width="1.38378"/>
<rect x="293.654" y="1.24878" width="154.292" height="291.978" rx="7.61081" transform="rotate(90 293.654 1.24878)" fill="#FFFFFF" stroke="#F1D1E5" stroke-width="1.38378"/>
<path d="M131.404 94.5082H129.35L129.363 93.4474H131.404C132.107 93.4474 132.692 93.301 133.161 93.0082C133.629 92.7109 133.981 92.2965 134.215 91.7649C134.454 91.2289 134.573 90.6028 134.573 89.8866V89.2852C134.573 88.7221 134.505 88.2221 134.37 87.7852C134.235 87.3438 134.037 86.9721 133.776 86.6703C133.514 86.364 133.195 86.1321 132.816 85.9744C132.442 85.8167 132.012 85.7379 131.526 85.7379H129.309V84.6703H131.526C132.17 84.6703 132.758 84.7784 133.289 84.9947C133.821 85.2064 134.278 85.5149 134.661 85.9203C135.048 86.3212 135.345 86.8077 135.553 87.3798C135.76 87.9474 135.863 88.587 135.863 89.2987V89.8866C135.863 90.5983 135.76 91.2402 135.553 91.8122C135.345 92.3798 135.046 92.864 134.654 93.2649C134.267 93.6658 133.798 93.9744 133.249 94.1906C132.704 94.4023 132.089 94.5082 131.404 94.5082ZM130.046 84.6703V94.5082H128.742V84.6703H130.046ZM141.945 93.2582V89.4947C141.945 89.2064 141.886 88.9564 141.769 88.7447C141.656 88.5284 141.485 88.3618 141.255 88.2447C141.026 88.1275 140.742 88.069 140.404 88.069C140.089 88.069 139.812 88.123 139.573 88.2312C139.339 88.3393 139.154 88.4812 139.019 88.6568C138.888 88.8325 138.823 89.0217 138.823 89.2244H137.573C137.573 88.9631 137.641 88.7041 137.776 88.4474C137.911 88.1906 138.104 87.9586 138.357 87.7514C138.613 87.5397 138.92 87.373 139.276 87.2514C139.636 87.1253 140.037 87.0622 140.478 87.0622C141.01 87.0622 141.478 87.1523 141.884 87.3325C142.294 87.5127 142.613 87.7852 142.843 88.1501C143.077 88.5104 143.195 88.9631 143.195 89.5082V92.9136C143.195 93.1568 143.215 93.4158 143.255 93.6906C143.3 93.9654 143.366 94.2019 143.451 94.4001V94.5082H142.147C142.084 94.364 142.035 94.1726 141.999 93.9339C141.963 93.6906 141.945 93.4654 141.945 93.2582ZM142.161 90.0757L142.174 90.9541H140.911C140.555 90.9541 140.237 90.9834 139.958 91.042C139.679 91.096 139.445 91.1793 139.255 91.292C139.066 91.4046 138.922 91.5465 138.823 91.7176C138.724 91.8843 138.674 92.0803 138.674 92.3055C138.674 92.5352 138.726 92.7447 138.83 92.9339C138.933 93.123 139.089 93.2739 139.296 93.3866C139.508 93.4947 139.767 93.5487 140.073 93.5487C140.456 93.5487 140.794 93.4676 141.086 93.3055C141.379 93.1433 141.611 92.9451 141.782 92.7109C141.958 92.4766 142.053 92.2492 142.066 92.0284L142.6 92.6298C142.568 92.819 142.483 93.0284 142.343 93.2582C142.204 93.4879 142.017 93.7086 141.782 93.9203C141.553 94.1275 141.278 94.301 140.958 94.4406C140.643 94.5757 140.287 94.6433 139.891 94.6433C139.395 94.6433 138.96 94.5465 138.586 94.3528C138.217 94.1591 137.929 93.9001 137.722 93.5757C137.519 93.2469 137.418 92.8798 137.418 92.4744C137.418 92.0825 137.494 91.7379 137.647 91.4406C137.8 91.1388 138.021 90.8888 138.309 90.6906C138.598 90.4879 138.945 90.3348 139.35 90.2312C139.755 90.1275 140.208 90.0757 140.708 90.0757H142.161ZM146.519 87.1974V94.5082H145.262V87.1974H146.519ZM145.168 85.2582C145.168 85.0555 145.228 84.8843 145.35 84.7447C145.476 84.605 145.661 84.5352 145.904 84.5352C146.143 84.5352 146.325 84.605 146.451 84.7447C146.582 84.8843 146.647 85.0555 146.647 85.2582C146.647 85.4519 146.582 85.6185 146.451 85.7582C146.325 85.8933 146.143 85.9609 145.904 85.9609C145.661 85.9609 145.476 85.8933 145.35 85.7582C145.228 85.6185 145.168 85.4519 145.168 85.2582ZM149.884 84.1298V94.5082H148.627V84.1298H149.884ZM153.945 93.7514L155.978 87.1974H157.316L154.384 95.6366C154.316 95.8167 154.226 96.0104 154.113 96.2176C154.005 96.4293 153.866 96.6298 153.695 96.819C153.523 97.0082 153.316 97.1613 153.073 97.2784C152.834 97.4001 152.548 97.4609 152.215 97.4609C152.116 97.4609 151.99 97.4474 151.836 97.4203C151.683 97.3933 151.575 97.3708 151.512 97.3528L151.505 96.3393C151.541 96.3438 151.598 96.3483 151.674 96.3528C151.755 96.3618 151.812 96.3663 151.843 96.3663C152.127 96.3663 152.368 96.328 152.566 96.2514C152.764 96.1793 152.931 96.0555 153.066 95.8798C153.206 95.7086 153.325 95.4721 153.424 95.1703L153.945 93.7514ZM152.451 87.1974L154.35 92.873L154.674 94.1906L153.776 94.6501L151.086 87.1974H152.451ZM165.708 85.542L162.451 94.5082H161.12L164.87 84.6703H165.728L165.708 85.542ZM168.438 94.5082L165.174 85.542L165.154 84.6703H166.012L169.776 94.5082H168.438ZM168.269 90.8663V91.9339H162.742V90.8663H168.269ZM172.154 88.7582V94.5082H170.904V87.1974H172.086L172.154 88.7582ZM171.857 90.5757L171.336 90.5555C171.341 90.0555 171.415 89.5938 171.559 89.1703C171.704 88.7424 171.906 88.3708 172.168 88.0555C172.429 87.7402 172.74 87.4969 173.1 87.3257C173.465 87.1501 173.868 87.0622 174.309 87.0622C174.67 87.0622 174.994 87.1118 175.282 87.2109C175.571 87.3055 175.816 87.4586 176.019 87.6703C176.226 87.8821 176.384 88.1568 176.492 88.4947C176.6 88.828 176.654 89.2357 176.654 89.7176V94.5082H175.397V89.7041C175.397 89.3212 175.341 89.0149 175.228 88.7852C175.116 88.551 174.951 88.3821 174.735 88.2784C174.519 88.1703 174.253 88.1163 173.938 88.1163C173.627 88.1163 173.343 88.1816 173.086 88.3122C172.834 88.4429 172.616 88.623 172.431 88.8528C172.251 89.0825 172.109 89.346 172.005 89.6433C171.906 89.9361 171.857 90.2469 171.857 90.5757ZM179.803 88.7582V94.5082H178.553V87.1974H179.735L179.803 88.7582ZM179.505 90.5757L178.985 90.5555C178.99 90.0555 179.064 89.5938 179.208 89.1703C179.352 88.7424 179.555 88.3708 179.816 88.0555C180.077 87.7402 180.388 87.4969 180.749 87.3257C181.113 87.1501 181.517 87.0622 181.958 87.0622C182.318 87.0622 182.643 87.1118 182.931 87.2109C183.219 87.3055 183.465 87.4586 183.668 87.6703C183.875 87.8821 184.032 88.1568 184.141 88.4947C184.249 88.828 184.303 89.2357 184.303 89.7176V94.5082H183.046V89.7041C183.046 89.3212 182.99 89.0149 182.877 88.7852C182.764 88.551 182.6 88.3821 182.384 88.2784C182.168 88.1703 181.902 88.1163 181.586 88.1163C181.276 88.1163 180.992 88.1816 180.735 88.3122C180.483 88.4429 180.264 88.623 180.08 88.8528C179.9 89.0825 179.758 89.346 179.654 89.6433C179.555 89.9361 179.505 90.2469 179.505 90.5757ZM185.87 90.9339V90.7784C185.87 90.2514 185.947 89.7627 186.1 89.3122C186.253 88.8573 186.474 88.4631 186.762 88.1298C187.05 87.792 187.4 87.5307 187.809 87.346C188.219 87.1568 188.679 87.0622 189.188 87.0622C189.701 87.0622 190.163 87.1568 190.573 87.346C190.987 87.5307 191.339 87.792 191.627 88.1298C191.92 88.4631 192.143 88.8573 192.296 89.3122C192.449 89.7627 192.526 90.2514 192.526 90.7784V90.9339C192.526 91.4609 192.449 91.9496 192.296 92.4001C192.143 92.8505 191.92 93.2447 191.627 93.5825C191.339 93.9158 190.99 94.1771 190.58 94.3663C190.174 94.551 189.715 94.6433 189.201 94.6433C188.688 94.6433 188.226 94.551 187.816 94.3663C187.406 94.1771 187.055 93.9158 186.762 93.5825C186.474 93.2447 186.253 92.8505 186.1 92.4001C185.947 91.9496 185.87 91.4609 185.87 90.9339ZM187.12 90.7784V90.9339C187.12 91.2987 187.163 91.6433 187.249 91.9676C187.334 92.2875 187.463 92.5712 187.634 92.819C187.809 93.0667 188.028 93.2627 188.289 93.4068C188.55 93.5465 188.854 93.6163 189.201 93.6163C189.544 93.6163 189.843 93.5465 190.1 93.4068C190.361 93.2627 190.577 93.0667 190.749 92.819C190.92 92.5712 191.048 92.2875 191.134 91.9676C191.224 91.6433 191.269 91.2987 191.269 90.9339V90.7784C191.269 90.4181 191.224 90.078 191.134 89.7582C191.048 89.4339 190.918 89.1478 190.742 88.9001C190.571 88.6478 190.354 88.4496 190.093 88.3055C189.836 88.1613 189.535 88.0893 189.188 88.0893C188.845 88.0893 188.544 88.1613 188.282 88.3055C188.026 88.4496 187.809 88.6478 187.634 88.9001C187.463 89.1478 187.334 89.4339 187.249 89.7582C187.163 90.078 187.12 90.4181 187.12 90.7784ZM198.566 92.819V87.1974H199.823V94.5082H198.627L198.566 92.819ZM198.803 91.2784L199.323 91.2649C199.323 91.7514 199.271 92.2019 199.168 92.6163C199.068 93.0262 198.906 93.3821 198.681 93.6839C198.456 93.9857 198.161 94.2221 197.796 94.3933C197.431 94.56 196.987 94.6433 196.465 94.6433C196.109 94.6433 195.782 94.5915 195.485 94.4879C195.192 94.3843 194.94 94.2244 194.728 94.0082C194.517 93.792 194.352 93.5104 194.235 93.1636C194.123 92.8167 194.066 92.4001 194.066 91.9136V87.1974H195.316V91.9271C195.316 92.2559 195.352 92.5284 195.424 92.7447C195.501 92.9564 195.602 93.1253 195.728 93.2514C195.859 93.373 196.003 93.4586 196.161 93.5082C196.323 93.5577 196.49 93.5825 196.661 93.5825C197.192 93.5825 197.613 93.4812 197.924 93.2784C198.235 93.0712 198.458 92.7942 198.593 92.4474C198.733 92.096 198.803 91.7064 198.803 91.2784ZM202.978 88.7582V94.5082H201.728V87.1974H202.911L202.978 88.7582ZM202.681 90.5757L202.161 90.5555C202.165 90.0555 202.24 89.5938 202.384 89.1703C202.528 88.7424 202.731 88.3708 202.992 88.0555C203.253 87.7402 203.564 87.4969 203.924 87.3257C204.289 87.1501 204.692 87.0622 205.134 87.0622C205.494 87.0622 205.818 87.1118 206.107 87.2109C206.395 87.3055 206.641 87.4586 206.843 87.6703C207.05 87.8821 207.208 88.1568 207.316 88.4947C207.424 88.828 207.478 89.2357 207.478 89.7176V94.5082H206.222V89.7041C206.222 89.3212 206.165 89.0149 206.053 88.7852C205.94 88.551 205.776 88.3821 205.559 88.2784C205.343 88.1703 205.077 88.1163 204.762 88.1163C204.451 88.1163 204.168 88.1816 203.911 88.3122C203.659 88.4429 203.44 88.623 203.255 88.8528C203.075 89.0825 202.933 89.346 202.83 89.6433C202.731 89.9361 202.681 90.2469 202.681 90.5757ZM212.303 93.6163C212.6 93.6163 212.875 93.5555 213.127 93.4339C213.379 93.3122 213.586 93.1456 213.749 92.9339C213.911 92.7176 214.003 92.4721 214.026 92.1974H215.215C215.192 92.6298 215.046 93.033 214.776 93.4068C214.51 93.7762 214.161 94.0757 213.728 94.3055C213.296 94.5307 212.821 94.6433 212.303 94.6433C211.753 94.6433 211.273 94.5465 210.863 94.3528C210.458 94.1591 210.12 93.8933 209.85 93.5555C209.584 93.2176 209.384 92.8303 209.249 92.3933C209.118 91.9519 209.053 91.4857 209.053 90.9947V90.7109C209.053 90.2199 209.118 89.7559 209.249 89.319C209.384 88.8775 209.584 88.4879 209.85 88.1501C210.12 87.8122 210.458 87.5465 210.863 87.3528C211.273 87.1591 211.753 87.0622 212.303 87.0622C212.875 87.0622 213.375 87.1793 213.803 87.4136C214.231 87.6433 214.566 87.9586 214.809 88.3595C215.057 88.7559 215.192 89.2064 215.215 89.7109H214.026C214.003 89.4091 213.918 89.1366 213.769 88.8933C213.625 88.6501 213.427 88.4564 213.174 88.3122C212.927 88.1636 212.636 88.0893 212.303 88.0893C211.92 88.0893 211.598 88.1658 211.336 88.319C211.08 88.4676 210.875 88.6703 210.722 88.9271C210.573 89.1793 210.465 89.4609 210.397 89.7717C210.334 90.078 210.303 90.3911 210.303 90.7109V90.9947C210.303 91.3145 210.334 91.6298 210.397 91.9406C210.46 92.2514 210.566 92.533 210.715 92.7852C210.868 93.0375 211.073 93.2402 211.33 93.3933C211.591 93.542 211.915 93.6163 212.303 93.6163ZM219.654 94.6433C219.145 94.6433 218.683 94.5577 218.269 94.3866C217.859 94.2109 217.505 93.9654 217.208 93.6501C216.915 93.3348 216.69 92.9609 216.532 92.5284C216.375 92.096 216.296 91.623 216.296 91.1095V90.8257C216.296 90.2312 216.384 89.7019 216.559 89.2379C216.735 88.7694 216.974 88.373 217.276 88.0487C217.577 87.7244 217.92 87.4789 218.303 87.3122C218.686 87.1456 219.082 87.0622 219.492 87.0622C220.014 87.0622 220.465 87.1523 220.843 87.3325C221.226 87.5127 221.539 87.7649 221.782 88.0893C222.026 88.4091 222.206 88.7875 222.323 89.2244C222.44 89.6568 222.499 90.1298 222.499 90.6433V91.2041H217.039V90.1839H221.249V90.0893C221.231 89.7649 221.163 89.4496 221.046 89.1433C220.933 88.837 220.753 88.5848 220.505 88.3866C220.258 88.1884 219.92 88.0893 219.492 88.0893C219.208 88.0893 218.947 88.1501 218.708 88.2717C218.469 88.3888 218.264 88.5645 218.093 88.7987C217.922 89.033 217.789 89.319 217.695 89.6568C217.6 89.9947 217.553 90.3843 217.553 90.8257V91.1095C217.553 91.4564 217.6 91.783 217.695 92.0893C217.794 92.3911 217.936 92.6568 218.12 92.8866C218.309 93.1163 218.537 93.2965 218.803 93.4271C219.073 93.5577 219.379 93.623 219.722 93.623C220.163 93.623 220.537 93.533 220.843 93.3528C221.15 93.1726 221.418 92.9316 221.647 92.6298L222.404 93.2312C222.246 93.4699 222.046 93.6974 221.803 93.9136C221.559 94.1298 221.26 94.3055 220.904 94.4406C220.553 94.5757 220.136 94.6433 219.654 94.6433ZM225.201 88.6501V94.5082H223.945V87.1974H225.134L225.201 88.6501ZM224.945 90.5757L224.363 90.5555C224.368 90.0555 224.433 89.5938 224.559 89.1703C224.686 88.7424 224.873 88.3708 225.12 88.0555C225.368 87.7402 225.677 87.4969 226.046 87.3257C226.415 87.1501 226.843 87.0622 227.33 87.0622C227.672 87.0622 227.987 87.1118 228.276 87.2109C228.564 87.3055 228.814 87.4564 229.026 87.6636C229.237 87.8708 229.402 88.1366 229.519 88.4609C229.636 88.7852 229.695 89.1771 229.695 89.6366V94.5082H228.445V89.6974C228.445 89.3145 228.379 89.0082 228.249 88.7784C228.123 88.5487 227.942 88.3821 227.708 88.2784C227.474 88.1703 227.199 88.1163 226.884 88.1163C226.514 88.1163 226.206 88.1816 225.958 88.3122C225.71 88.4429 225.512 88.623 225.363 88.8528C225.215 89.0825 225.107 89.346 225.039 89.6433C224.976 89.9361 224.945 90.2469 224.945 90.5757ZM229.681 89.8866L228.843 90.1433C228.848 89.7424 228.913 89.3573 229.039 88.9879C229.17 88.6185 229.357 88.2897 229.6 88.0014C229.848 87.7131 230.152 87.4857 230.512 87.319C230.873 87.1478 231.285 87.0622 231.749 87.0622C232.141 87.0622 232.487 87.114 232.789 87.2176C233.095 87.3212 233.352 87.4812 233.559 87.6974C233.771 87.9091 233.931 88.1816 234.039 88.5149C234.147 88.8483 234.201 89.2447 234.201 89.7041V94.5082H232.945V89.6906C232.945 89.2807 232.879 88.9631 232.749 88.7379C232.623 88.5082 232.442 88.3483 232.208 88.2582C231.978 88.1636 231.704 88.1163 231.384 88.1163C231.109 88.1163 230.866 88.1636 230.654 88.2582C230.442 88.3528 230.264 88.4834 230.12 88.6501C229.976 88.8122 229.866 88.9992 229.789 89.2109C229.717 89.4226 229.681 89.6478 229.681 89.8866ZM239.127 94.6433C238.618 94.6433 238.156 94.5577 237.742 94.3866C237.332 94.2109 236.978 93.9654 236.681 93.6501C236.388 93.3348 236.163 92.9609 236.005 92.5284C235.848 92.096 235.769 91.623 235.769 91.1095V90.8257C235.769 90.2312 235.857 89.7019 236.032 89.2379C236.208 88.7694 236.447 88.373 236.749 88.0487C237.05 87.7244 237.393 87.4789 237.776 87.3122C238.159 87.1456 238.555 87.0622 238.965 87.0622C239.487 87.0622 239.938 87.1523 240.316 87.3325C240.699 87.5127 241.012 87.7649 241.255 88.0893C241.499 88.4091 241.679 88.7875 241.796 89.2244C241.913 89.6568 241.972 90.1298 241.972 90.6433V91.2041H236.512V90.1839H240.722V90.0893C240.704 89.7649 240.636 89.4496 240.519 89.1433C240.406 88.837 240.226 88.5848 239.978 88.3866C239.731 88.1884 239.393 88.0893 238.965 88.0893C238.681 88.0893 238.42 88.1501 238.181 88.2717C237.942 88.3888 237.737 88.5645 237.566 88.7987C237.395 89.033 237.262 89.319 237.168 89.6568C237.073 89.9947 237.026 90.3843 237.026 90.8257V91.1095C237.026 91.4564 237.073 91.783 237.168 92.0893C237.267 92.3911 237.409 92.6568 237.593 92.8866C237.782 93.1163 238.01 93.2965 238.276 93.4271C238.546 93.5577 238.852 93.623 239.195 93.623C239.636 93.623 240.01 93.533 240.316 93.3528C240.623 93.1726 240.891 92.9316 241.12 92.6298L241.877 93.2312C241.719 93.4699 241.519 93.6974 241.276 93.9136C241.032 94.1298 240.733 94.3055 240.377 94.4406C240.026 94.5757 239.609 94.6433 239.127 94.6433ZM244.681 88.7582V94.5082H243.431V87.1974H244.613L244.681 88.7582ZM244.384 90.5757L243.863 90.5555C243.868 90.0555 243.942 89.5938 244.086 89.1703C244.231 88.7424 244.433 88.3708 244.695 88.0555C244.956 87.7402 245.267 87.4969 245.627 87.3257C245.992 87.1501 246.395 87.0622 246.836 87.0622C247.197 87.0622 247.521 87.1118 247.809 87.2109C248.098 87.3055 248.343 87.4586 248.546 87.6703C248.753 87.8821 248.911 88.1568 249.019 88.4947C249.127 88.828 249.181 89.2357 249.181 89.7176V94.5082H247.924V89.7041C247.924 89.3212 247.868 89.0149 247.755 88.7852C247.643 88.551 247.478 88.3821 247.262 88.2784C247.046 88.1703 246.78 88.1163 246.465 88.1163C246.154 88.1163 245.87 88.1816 245.613 88.3122C245.361 88.4429 245.143 88.623 244.958 88.8528C244.778 89.0825 244.636 89.346 244.532 89.6433C244.433 89.9361 244.384 90.2469 244.384 90.5757ZM254.141 87.1974V88.1568H250.188V87.1974H254.141ZM251.526 85.4203H252.776V92.6974C252.776 92.9451 252.814 93.1321 252.891 93.2582C252.967 93.3843 253.066 93.4676 253.188 93.5082C253.309 93.5487 253.44 93.569 253.58 93.569C253.683 93.569 253.791 93.56 253.904 93.542C254.021 93.5194 254.109 93.5014 254.168 93.4879L254.174 94.5082C254.075 94.5397 253.945 94.569 253.782 94.596C253.625 94.6275 253.433 94.6433 253.208 94.6433C252.902 94.6433 252.62 94.5825 252.363 94.4609C252.107 94.3393 251.902 94.1366 251.749 93.8528C251.6 93.5645 251.526 93.1771 251.526 92.6906V85.4203ZM259.863 92.569C259.863 92.3888 259.823 92.2221 259.742 92.069C259.665 91.9113 259.505 91.7694 259.262 91.6433C259.023 91.5127 258.663 91.4001 258.181 91.3055C257.776 91.2199 257.409 91.1185 257.08 91.0014C256.755 90.8843 256.478 90.7424 256.249 90.5757C256.023 90.4091 255.85 90.2131 255.728 89.9879C255.607 89.7627 255.546 89.4992 255.546 89.1974C255.546 88.9091 255.609 88.6366 255.735 88.3798C255.866 88.123 256.048 87.8956 256.282 87.6974C256.521 87.4992 256.807 87.3438 257.141 87.2312C257.474 87.1185 257.845 87.0622 258.255 87.0622C258.841 87.0622 259.341 87.1658 259.755 87.373C260.17 87.5803 260.487 87.8573 260.708 88.2041C260.929 88.5465 261.039 88.9271 261.039 89.346H259.789C259.789 89.1433 259.728 88.9474 259.607 88.7582C259.49 88.5645 259.316 88.4046 259.086 88.2784C258.861 88.1523 258.584 88.0893 258.255 88.0893C257.909 88.0893 257.627 88.1433 257.411 88.2514C257.199 88.355 257.044 88.4879 256.945 88.6501C256.85 88.8122 256.803 88.9834 256.803 89.1636C256.803 89.2987 256.825 89.4203 256.87 89.5284C256.92 89.6321 257.005 89.7289 257.127 89.819C257.249 89.9046 257.42 89.9857 257.641 90.0622C257.861 90.1388 258.143 90.2154 258.485 90.292C259.084 90.4271 259.577 90.5893 259.965 90.7784C260.352 90.9676 260.641 91.1996 260.83 91.4744C261.019 91.7492 261.113 92.0825 261.113 92.4744C261.113 92.7942 261.046 93.087 260.911 93.3528C260.78 93.6185 260.589 93.8483 260.336 94.042C260.089 94.2312 259.791 94.3798 259.445 94.4879C259.102 94.5915 258.717 94.6433 258.289 94.6433C257.645 94.6433 257.1 94.5284 256.654 94.2987C256.208 94.069 255.87 93.7717 255.641 93.4068C255.411 93.042 255.296 92.6568 255.296 92.2514H256.553C256.571 92.5938 256.67 92.8663 256.85 93.069C257.03 93.2672 257.251 93.4091 257.512 93.4947C257.773 93.5757 258.032 93.6163 258.289 93.6163C258.632 93.6163 258.918 93.5712 259.147 93.4812C259.382 93.3911 259.559 93.2672 259.681 93.1095C259.803 92.9519 259.863 92.7717 259.863 92.569ZM263.891 93.0217V94.0284C263.891 94.4384 263.787 94.8708 263.58 95.3257C263.373 95.7852 263.082 96.1681 262.708 96.4744L261.999 95.9812C262.143 95.783 262.264 95.5803 262.363 95.373C262.463 95.1703 262.537 94.9586 262.586 94.7379C262.641 94.5217 262.668 94.292 262.668 94.0487V93.0217H263.891ZM128.742 100.67H131.999C132.737 100.67 133.361 100.783 133.87 101.008C134.384 101.233 134.773 101.567 135.039 102.008C135.309 102.445 135.445 102.983 135.445 103.623C135.445 104.073 135.352 104.486 135.168 104.86C134.987 105.229 134.726 105.544 134.384 105.805C134.046 106.062 133.641 106.254 133.168 106.38L132.803 106.522H129.742L129.728 105.461H132.039C132.508 105.461 132.897 105.38 133.208 105.218C133.519 105.051 133.753 104.828 133.911 104.549C134.068 104.269 134.147 103.961 134.147 103.623C134.147 103.245 134.073 102.914 133.924 102.63C133.776 102.346 133.541 102.128 133.222 101.974C132.906 101.817 132.499 101.738 131.999 101.738H130.046V110.508H128.742V100.67ZM134.492 110.508L132.1 106.049L133.458 106.042L135.884 110.427V110.508H134.492ZM140.113 110.643C139.604 110.643 139.143 110.558 138.728 110.387C138.318 110.211 137.965 109.965 137.668 109.65C137.375 109.335 137.15 108.961 136.992 108.528C136.834 108.096 136.755 107.623 136.755 107.11V106.826C136.755 106.231 136.843 105.702 137.019 105.238C137.195 104.769 137.433 104.373 137.735 104.049C138.037 103.724 138.379 103.479 138.762 103.312C139.145 103.146 139.541 103.062 139.951 103.062C140.474 103.062 140.924 103.152 141.303 103.333C141.686 103.513 141.999 103.765 142.242 104.089C142.485 104.409 142.665 104.787 142.782 105.224C142.9 105.657 142.958 106.13 142.958 106.643V107.204H137.499V106.184H141.708V106.089C141.69 105.765 141.622 105.45 141.505 105.143C141.393 104.837 141.213 104.585 140.965 104.387C140.717 104.188 140.379 104.089 139.951 104.089C139.668 104.089 139.406 104.15 139.168 104.272C138.929 104.389 138.724 104.564 138.553 104.799C138.382 105.033 138.249 105.319 138.154 105.657C138.059 105.995 138.012 106.384 138.012 106.826V107.11C138.012 107.456 138.059 107.783 138.154 108.089C138.253 108.391 138.395 108.657 138.58 108.887C138.769 109.116 138.996 109.296 139.262 109.427C139.532 109.558 139.839 109.623 140.181 109.623C140.622 109.623 140.996 109.533 141.303 109.353C141.609 109.173 141.877 108.932 142.107 108.63L142.863 109.231C142.706 109.47 142.505 109.697 142.262 109.914C142.019 110.13 141.719 110.305 141.363 110.441C141.012 110.576 140.595 110.643 140.113 110.643ZM148.674 108.569C148.674 108.389 148.634 108.222 148.553 108.069C148.476 107.911 148.316 107.769 148.073 107.643C147.834 107.513 147.474 107.4 146.992 107.305C146.586 107.22 146.219 107.119 145.891 107.001C145.566 106.884 145.289 106.742 145.059 106.576C144.834 106.409 144.661 106.213 144.539 105.988C144.418 105.763 144.357 105.499 144.357 105.197C144.357 104.909 144.42 104.637 144.546 104.38C144.677 104.123 144.859 103.896 145.093 103.697C145.332 103.499 145.618 103.344 145.951 103.231C146.285 103.119 146.656 103.062 147.066 103.062C147.652 103.062 148.152 103.166 148.566 103.373C148.981 103.58 149.298 103.857 149.519 104.204C149.74 104.546 149.85 104.927 149.85 105.346H148.6C148.6 105.143 148.539 104.947 148.418 104.758C148.3 104.564 148.127 104.405 147.897 104.278C147.672 104.152 147.395 104.089 147.066 104.089C146.719 104.089 146.438 104.143 146.222 104.251C146.01 104.355 145.854 104.488 145.755 104.65C145.661 104.812 145.613 104.983 145.613 105.164C145.613 105.299 145.636 105.42 145.681 105.528C145.731 105.632 145.816 105.729 145.938 105.819C146.059 105.905 146.231 105.986 146.451 106.062C146.672 106.139 146.954 106.215 147.296 106.292C147.895 106.427 148.388 106.589 148.776 106.778C149.163 106.968 149.451 107.2 149.641 107.474C149.83 107.749 149.924 108.083 149.924 108.474C149.924 108.794 149.857 109.087 149.722 109.353C149.591 109.619 149.4 109.848 149.147 110.042C148.9 110.231 148.602 110.38 148.255 110.488C147.913 110.592 147.528 110.643 147.1 110.643C146.456 110.643 145.911 110.528 145.465 110.299C145.019 110.069 144.681 109.772 144.451 109.407C144.222 109.042 144.107 108.657 144.107 108.251H145.363C145.382 108.594 145.481 108.866 145.661 109.069C145.841 109.267 146.062 109.409 146.323 109.495C146.584 109.576 146.843 109.616 147.1 109.616C147.442 109.616 147.728 109.571 147.958 109.481C148.192 109.391 148.37 109.267 148.492 109.11C148.613 108.952 148.674 108.772 148.674 108.569ZM151.235 106.934V106.778C151.235 106.251 151.312 105.763 151.465 105.312C151.618 104.857 151.839 104.463 152.127 104.13C152.415 103.792 152.764 103.531 153.174 103.346C153.584 103.157 154.044 103.062 154.553 103.062C155.066 103.062 155.528 103.157 155.938 103.346C156.352 103.531 156.704 103.792 156.992 104.13C157.285 104.463 157.508 104.857 157.661 105.312C157.814 105.763 157.891 106.251 157.891 106.778V106.934C157.891 107.461 157.814 107.95 157.661 108.4C157.508 108.851 157.285 109.245 156.992 109.583C156.704 109.916 156.354 110.177 155.945 110.366C155.539 110.551 155.08 110.643 154.566 110.643C154.053 110.643 153.591 110.551 153.181 110.366C152.771 110.177 152.42 109.916 152.127 109.583C151.839 109.245 151.618 108.851 151.465 108.4C151.312 107.95 151.235 107.461 151.235 106.934ZM152.485 106.778V106.934C152.485 107.299 152.528 107.643 152.613 107.968C152.699 108.287 152.827 108.571 152.999 108.819C153.174 109.067 153.393 109.263 153.654 109.407C153.915 109.546 154.219 109.616 154.566 109.616C154.909 109.616 155.208 109.546 155.465 109.407C155.726 109.263 155.942 109.067 156.113 108.819C156.285 108.571 156.413 108.287 156.499 107.968C156.589 107.643 156.634 107.299 156.634 106.934V106.778C156.634 106.418 156.589 106.078 156.499 105.758C156.413 105.434 156.282 105.148 156.107 104.9C155.936 104.648 155.719 104.45 155.458 104.305C155.201 104.161 154.9 104.089 154.553 104.089C154.21 104.089 153.909 104.161 153.647 104.305C153.391 104.45 153.174 104.648 152.999 104.9C152.827 105.148 152.699 105.434 152.613 105.758C152.528 106.078 152.485 106.418 152.485 106.778ZM163.931 108.819V103.197H165.188V110.508H163.992L163.931 108.819ZM164.168 107.278L164.688 107.265C164.688 107.751 164.636 108.202 164.532 108.616C164.433 109.026 164.271 109.382 164.046 109.684C163.821 109.986 163.526 110.222 163.161 110.393C162.796 110.56 162.352 110.643 161.83 110.643C161.474 110.643 161.147 110.592 160.85 110.488C160.557 110.384 160.305 110.224 160.093 110.008C159.882 109.792 159.717 109.51 159.6 109.164C159.487 108.817 159.431 108.4 159.431 107.914V103.197H160.681V107.927C160.681 108.256 160.717 108.528 160.789 108.745C160.866 108.956 160.967 109.125 161.093 109.251C161.224 109.373 161.368 109.459 161.526 109.508C161.688 109.558 161.854 109.583 162.026 109.583C162.557 109.583 162.978 109.481 163.289 109.278C163.6 109.071 163.823 108.794 163.958 108.447C164.098 108.096 164.168 107.706 164.168 107.278ZM168.343 104.346V110.508H167.093V103.197H168.309L168.343 104.346ZM170.627 103.157L170.62 104.319C170.517 104.296 170.418 104.283 170.323 104.278C170.233 104.269 170.129 104.265 170.012 104.265C169.724 104.265 169.469 104.31 169.249 104.4C169.028 104.49 168.841 104.616 168.688 104.778C168.535 104.941 168.413 105.134 168.323 105.36C168.237 105.58 168.181 105.823 168.154 106.089L167.803 106.292C167.803 105.851 167.845 105.436 167.931 105.049C168.021 104.661 168.159 104.319 168.343 104.022C168.528 103.72 168.762 103.486 169.046 103.319C169.334 103.148 169.677 103.062 170.073 103.062C170.163 103.062 170.267 103.073 170.384 103.096C170.501 103.114 170.582 103.134 170.627 103.157ZM174.573 109.616C174.87 109.616 175.145 109.555 175.397 109.434C175.65 109.312 175.857 109.146 176.019 108.934C176.181 108.718 176.273 108.472 176.296 108.197H177.485C177.463 108.63 177.316 109.033 177.046 109.407C176.78 109.776 176.431 110.076 175.999 110.305C175.566 110.531 175.091 110.643 174.573 110.643C174.023 110.643 173.544 110.546 173.134 110.353C172.728 110.159 172.391 109.893 172.12 109.555C171.854 109.218 171.654 108.83 171.519 108.393C171.388 107.952 171.323 107.486 171.323 106.995V106.711C171.323 106.22 171.388 105.756 171.519 105.319C171.654 104.878 171.854 104.488 172.12 104.15C172.391 103.812 172.728 103.546 173.134 103.353C173.544 103.159 174.023 103.062 174.573 103.062C175.145 103.062 175.645 103.179 176.073 103.414C176.501 103.643 176.836 103.959 177.08 104.36C177.327 104.756 177.463 105.206 177.485 105.711H176.296C176.273 105.409 176.188 105.137 176.039 104.893C175.895 104.65 175.697 104.456 175.445 104.312C175.197 104.164 174.906 104.089 174.573 104.089C174.19 104.089 173.868 104.166 173.607 104.319C173.35 104.468 173.145 104.67 172.992 104.927C172.843 105.179 172.735 105.461 172.668 105.772C172.604 106.078 172.573 106.391 172.573 106.711V106.995C172.573 107.314 172.604 107.63 172.668 107.941C172.731 108.251 172.836 108.533 172.985 108.785C173.138 109.037 173.343 109.24 173.6 109.393C173.861 109.542 174.186 109.616 174.573 109.616ZM181.924 110.643C181.415 110.643 180.954 110.558 180.539 110.387C180.129 110.211 179.776 109.965 179.478 109.65C179.186 109.335 178.96 108.961 178.803 108.528C178.645 108.096 178.566 107.623 178.566 107.11V106.826C178.566 106.231 178.654 105.702 178.83 105.238C179.005 104.769 179.244 104.373 179.546 104.049C179.848 103.724 180.19 103.479 180.573 103.312C180.956 103.146 181.352 103.062 181.762 103.062C182.285 103.062 182.735 103.152 183.113 103.333C183.496 103.513 183.809 103.765 184.053 104.089C184.296 104.409 184.476 104.787 184.593 105.224C184.71 105.657 184.769 106.13 184.769 106.643V107.204H179.309V106.184H183.519V106.089C183.501 105.765 183.433 105.45 183.316 105.143C183.204 104.837 183.023 104.585 182.776 104.387C182.528 104.188 182.19 104.089 181.762 104.089C181.478 104.089 181.217 104.15 180.978 104.272C180.74 104.389 180.535 104.564 180.363 104.799C180.192 105.033 180.059 105.319 179.965 105.657C179.87 105.995 179.823 106.384 179.823 106.826V107.11C179.823 107.456 179.87 107.783 179.965 108.089C180.064 108.391 180.206 108.657 180.391 108.887C180.58 109.116 180.807 109.296 181.073 109.427C181.343 109.558 181.65 109.623 181.992 109.623C182.433 109.623 182.807 109.533 183.113 109.353C183.42 109.173 183.688 108.932 183.918 108.63L184.674 109.231C184.517 109.47 184.316 109.697 184.073 109.914C183.83 110.13 183.53 110.305 183.174 110.441C182.823 110.576 182.406 110.643 181.924 110.643ZM190.485 108.569C190.485 108.389 190.445 108.222 190.363 108.069C190.287 107.911 190.127 107.769 189.884 107.643C189.645 107.513 189.285 107.4 188.803 107.305C188.397 107.22 188.03 107.119 187.701 107.001C187.377 106.884 187.1 106.742 186.87 106.576C186.645 106.409 186.472 106.213 186.35 105.988C186.228 105.763 186.168 105.499 186.168 105.197C186.168 104.909 186.231 104.637 186.357 104.38C186.487 104.123 186.67 103.896 186.904 103.697C187.143 103.499 187.429 103.344 187.762 103.231C188.095 103.119 188.467 103.062 188.877 103.062C189.463 103.062 189.963 103.166 190.377 103.373C190.791 103.58 191.109 103.857 191.33 104.204C191.55 104.546 191.661 104.927 191.661 105.346H190.411C190.411 105.143 190.35 104.947 190.228 104.758C190.111 104.564 189.938 104.405 189.708 104.278C189.483 104.152 189.206 104.089 188.877 104.089C188.53 104.089 188.249 104.143 188.032 104.251C187.821 104.355 187.665 104.488 187.566 104.65C187.472 104.812 187.424 104.983 187.424 105.164C187.424 105.299 187.447 105.42 187.492 105.528C187.541 105.632 187.627 105.729 187.749 105.819C187.87 105.905 188.041 105.986 188.262 106.062C188.483 106.139 188.764 106.215 189.107 106.292C189.706 106.427 190.199 106.589 190.586 106.778C190.974 106.968 191.262 107.2 191.451 107.474C191.641 107.749 191.735 108.083 191.735 108.474C191.735 108.794 191.668 109.087 191.532 109.353C191.402 109.619 191.21 109.848 190.958 110.042C190.71 110.231 190.413 110.38 190.066 110.488C189.724 110.592 189.339 110.643 188.911 110.643C188.267 110.643 187.722 110.528 187.276 110.299C186.83 110.069 186.492 109.772 186.262 109.407C186.032 109.042 185.918 108.657 185.918 108.251H187.174C187.192 108.594 187.291 108.866 187.472 109.069C187.652 109.267 187.873 109.409 188.134 109.495C188.395 109.576 188.654 109.616 188.911 109.616C189.253 109.616 189.539 109.571 189.769 109.481C190.003 109.391 190.181 109.267 190.303 109.11C190.424 108.952 190.485 108.772 190.485 108.569ZM201.12 109.258V105.495C201.12 105.206 201.062 104.956 200.945 104.745C200.832 104.528 200.661 104.362 200.431 104.245C200.201 104.128 199.918 104.069 199.58 104.069C199.264 104.069 198.987 104.123 198.749 104.231C198.514 104.339 198.33 104.481 198.195 104.657C198.064 104.833 197.999 105.022 197.999 105.224H196.749C196.749 104.963 196.816 104.704 196.951 104.447C197.086 104.191 197.28 103.959 197.532 103.751C197.789 103.54 198.095 103.373 198.451 103.251C198.812 103.125 199.213 103.062 199.654 103.062C200.186 103.062 200.654 103.152 201.059 103.333C201.469 103.513 201.789 103.785 202.019 104.15C202.253 104.51 202.37 104.963 202.37 105.508V108.914C202.37 109.157 202.391 109.416 202.431 109.691C202.476 109.965 202.541 110.202 202.627 110.4V110.508H201.323C201.26 110.364 201.21 110.173 201.174 109.934C201.138 109.691 201.12 109.465 201.12 109.258ZM201.336 106.076L201.35 106.954H200.086C199.731 106.954 199.413 106.983 199.134 107.042C198.854 107.096 198.62 107.179 198.431 107.292C198.242 107.405 198.098 107.546 197.999 107.718C197.9 107.884 197.85 108.08 197.85 108.305C197.85 108.535 197.902 108.745 198.005 108.934C198.109 109.123 198.264 109.274 198.472 109.387C198.683 109.495 198.942 109.549 199.249 109.549C199.632 109.549 199.969 109.468 200.262 109.305C200.555 109.143 200.787 108.945 200.958 108.711C201.134 108.477 201.228 108.249 201.242 108.028L201.776 108.63C201.744 108.819 201.659 109.028 201.519 109.258C201.379 109.488 201.192 109.709 200.958 109.92C200.728 110.128 200.454 110.301 200.134 110.441C199.818 110.576 199.463 110.643 199.066 110.643C198.571 110.643 198.136 110.546 197.762 110.353C197.393 110.159 197.104 109.9 196.897 109.576C196.695 109.247 196.593 108.88 196.593 108.474C196.593 108.083 196.67 107.738 196.823 107.441C196.976 107.139 197.197 106.889 197.485 106.691C197.773 106.488 198.12 106.335 198.526 106.231C198.931 106.128 199.384 106.076 199.884 106.076H201.336ZM205.586 104.758V110.508H204.336V103.197H205.519L205.586 104.758ZM205.289 106.576L204.769 106.555C204.773 106.055 204.848 105.594 204.992 105.17C205.136 104.742 205.339 104.371 205.6 104.055C205.861 103.74 206.172 103.497 206.532 103.326C206.897 103.15 207.3 103.062 207.742 103.062C208.102 103.062 208.427 103.112 208.715 103.211C209.003 103.305 209.249 103.459 209.451 103.67C209.659 103.882 209.816 104.157 209.924 104.495C210.032 104.828 210.086 105.236 210.086 105.718V110.508H208.83V105.704C208.83 105.321 208.773 105.015 208.661 104.785C208.548 104.551 208.384 104.382 208.168 104.278C207.951 104.17 207.686 104.116 207.37 104.116C207.059 104.116 206.776 104.182 206.519 104.312C206.267 104.443 206.048 104.623 205.863 104.853C205.683 105.083 205.541 105.346 205.438 105.643C205.339 105.936 205.289 106.247 205.289 106.576ZM216.593 109.089V100.13H217.85V110.508H216.701L216.593 109.089ZM211.674 106.934V106.792C211.674 106.233 211.742 105.727 211.877 105.272C212.017 104.812 212.213 104.418 212.465 104.089C212.722 103.76 213.026 103.508 213.377 103.333C213.733 103.152 214.129 103.062 214.566 103.062C215.026 103.062 215.427 103.143 215.769 103.305C216.116 103.463 216.409 103.695 216.647 104.001C216.891 104.303 217.082 104.668 217.222 105.096C217.361 105.524 217.458 106.008 217.512 106.549V107.17C217.463 107.706 217.366 108.188 217.222 108.616C217.082 109.044 216.891 109.409 216.647 109.711C216.409 110.013 216.116 110.245 215.769 110.407C215.422 110.564 215.017 110.643 214.553 110.643C214.125 110.643 213.733 110.551 213.377 110.366C213.026 110.182 212.722 109.923 212.465 109.589C212.213 109.256 212.017 108.864 211.877 108.414C211.742 107.959 211.674 107.465 211.674 106.934ZM212.931 106.792V106.934C212.931 107.299 212.967 107.641 213.039 107.961C213.116 108.281 213.233 108.562 213.391 108.805C213.548 109.049 213.749 109.24 213.992 109.38C214.235 109.515 214.526 109.583 214.863 109.583C215.278 109.583 215.618 109.495 215.884 109.319C216.154 109.143 216.37 108.911 216.532 108.623C216.695 108.335 216.821 108.022 216.911 107.684V106.055C216.857 105.808 216.778 105.569 216.674 105.339C216.575 105.105 216.445 104.898 216.282 104.718C216.125 104.533 215.929 104.387 215.695 104.278C215.465 104.17 215.192 104.116 214.877 104.116C214.535 104.116 214.24 104.188 213.992 104.333C213.749 104.472 213.548 104.666 213.391 104.914C213.233 105.157 213.116 105.441 213.039 105.765C212.967 106.085 212.931 106.427 212.931 106.792ZM224.472 104.65V110.508H223.215V103.197H224.404L224.472 104.65ZM224.215 106.576L223.634 106.555C223.638 106.055 223.704 105.594 223.83 105.17C223.956 104.742 224.143 104.371 224.391 104.055C224.638 103.74 224.947 103.497 225.316 103.326C225.686 103.15 226.113 103.062 226.6 103.062C226.942 103.062 227.258 103.112 227.546 103.211C227.834 103.305 228.084 103.456 228.296 103.664C228.508 103.871 228.672 104.137 228.789 104.461C228.906 104.785 228.965 105.177 228.965 105.637V110.508H227.715V105.697C227.715 105.314 227.65 105.008 227.519 104.778C227.393 104.549 227.213 104.382 226.978 104.278C226.744 104.17 226.469 104.116 226.154 104.116C225.785 104.116 225.476 104.182 225.228 104.312C224.981 104.443 224.782 104.623 224.634 104.853C224.485 105.083 224.377 105.346 224.309 105.643C224.246 105.936 224.215 106.247 224.215 106.576ZM228.951 105.887L228.113 106.143C228.118 105.742 228.183 105.357 228.309 104.988C228.44 104.619 228.627 104.29 228.87 104.001C229.118 103.713 229.422 103.486 229.782 103.319C230.143 103.148 230.555 103.062 231.019 103.062C231.411 103.062 231.758 103.114 232.059 103.218C232.366 103.321 232.622 103.481 232.83 103.697C233.041 103.909 233.201 104.182 233.309 104.515C233.418 104.848 233.472 105.245 233.472 105.704V110.508H232.215V105.691C232.215 105.281 232.15 104.963 232.019 104.738C231.893 104.508 231.713 104.348 231.478 104.258C231.249 104.164 230.974 104.116 230.654 104.116C230.379 104.116 230.136 104.164 229.924 104.258C229.713 104.353 229.535 104.483 229.391 104.65C229.246 104.812 229.136 104.999 229.059 105.211C228.987 105.423 228.951 105.648 228.951 105.887ZM235.032 106.934V106.778C235.032 106.251 235.109 105.763 235.262 105.312C235.415 104.857 235.636 104.463 235.924 104.13C236.213 103.792 236.562 103.531 236.972 103.346C237.382 103.157 237.841 103.062 238.35 103.062C238.863 103.062 239.325 103.157 239.735 103.346C240.15 103.531 240.501 103.792 240.789 104.13C241.082 104.463 241.305 104.857 241.458 105.312C241.611 105.763 241.688 106.251 241.688 106.778V106.934C241.688 107.461 241.611 107.95 241.458 108.4C241.305 108.851 241.082 109.245 240.789 109.583C240.501 109.916 240.152 110.177 239.742 110.366C239.336 110.551 238.877 110.643 238.363 110.643C237.85 110.643 237.388 110.551 236.978 110.366C236.568 110.177 236.217 109.916 235.924 109.583C235.636 109.245 235.415 108.851 235.262 108.4C235.109 107.95 235.032 107.461 235.032 106.934ZM236.282 106.778V106.934C236.282 107.299 236.325 107.643 236.411 107.968C236.496 108.287 236.625 108.571 236.796 108.819C236.972 109.067 237.19 109.263 237.451 109.407C237.713 109.546 238.017 109.616 238.363 109.616C238.706 109.616 239.005 109.546 239.262 109.407C239.523 109.263 239.74 109.067 239.911 108.819C240.082 108.571 240.21 108.287 240.296 107.968C240.386 107.643 240.431 107.299 240.431 106.934V106.778C240.431 106.418 240.386 106.078 240.296 105.758C240.21 105.434 240.08 105.148 239.904 104.9C239.733 104.648 239.517 104.45 239.255 104.305C238.999 104.161 238.697 104.089 238.35 104.089C238.008 104.089 237.706 104.161 237.445 104.305C237.188 104.45 236.972 104.648 236.796 104.9C236.625 105.148 236.496 105.434 236.411 105.758C236.325 106.078 236.282 106.418 236.282 106.778ZM244.505 104.346V110.508H243.255V103.197H244.472L244.505 104.346ZM246.789 103.157L246.782 104.319C246.679 104.296 246.58 104.283 246.485 104.278C246.395 104.269 246.291 104.265 246.174 104.265C245.886 104.265 245.632 104.31 245.411 104.4C245.19 104.49 245.003 104.616 244.85 104.778C244.697 104.941 244.575 105.134 244.485 105.36C244.4 105.58 244.343 105.823 244.316 106.089L243.965 106.292C243.965 105.851 244.008 105.436 244.093 105.049C244.183 104.661 244.321 104.319 244.505 104.022C244.69 103.72 244.924 103.486 245.208 103.319C245.496 103.148 245.839 103.062 246.235 103.062C246.325 103.062 246.429 103.073 246.546 103.096C246.663 103.114 246.744 103.134 246.789 103.157ZM250.843 110.643C250.334 110.643 249.873 110.558 249.458 110.387C249.048 110.211 248.695 109.965 248.397 109.65C248.104 109.335 247.879 108.961 247.722 108.528C247.564 108.096 247.485 107.623 247.485 107.11V106.826C247.485 106.231 247.573 105.702 247.749 105.238C247.924 104.769 248.163 104.373 248.465 104.049C248.767 103.724 249.109 103.479 249.492 103.312C249.875 103.146 250.271 103.062 250.681 103.062C251.204 103.062 251.654 103.152 252.032 103.333C252.415 103.513 252.728 103.765 252.972 104.089C253.215 104.409 253.395 104.787 253.512 105.224C253.629 105.657 253.688 106.13 253.688 106.643V107.204H248.228V106.184H252.438V106.089C252.42 105.765 252.352 105.45 252.235 105.143C252.123 104.837 251.942 104.585 251.695 104.387C251.447 104.188 251.109 104.089 250.681 104.089C250.397 104.089 250.136 104.15 249.897 104.272C249.659 104.389 249.454 104.564 249.282 104.799C249.111 105.033 248.978 105.319 248.884 105.657C248.789 105.995 248.742 106.384 248.742 106.826V107.11C248.742 107.456 248.789 107.783 248.884 108.089C248.983 108.391 249.125 108.657 249.309 108.887C249.499 109.116 249.726 109.296 249.992 109.427C250.262 109.558 250.568 109.623 250.911 109.623C251.352 109.623 251.726 109.533 252.032 109.353C252.339 109.173 252.607 108.932 252.836 108.63L253.593 109.231C253.436 109.47 253.235 109.697 252.992 109.914C252.749 110.13 252.449 110.305 252.093 110.441C251.742 110.576 251.325 110.643 250.843 110.643ZM255.168 109.846C255.168 109.634 255.233 109.456 255.363 109.312C255.499 109.164 255.692 109.089 255.945 109.089C256.197 109.089 256.388 109.164 256.519 109.312C256.654 109.456 256.722 109.634 256.722 109.846C256.722 110.053 256.654 110.229 256.519 110.373C256.388 110.517 256.197 110.589 255.945 110.589C255.692 110.589 255.499 110.517 255.363 110.373C255.233 110.229 255.168 110.053 255.168 109.846Z" fill="#2C2C2C"/>
<path d="M133.024 51.8565V70.2216H129.24V51.8565H133.024ZM140.339 59.702V62.6535H131.989V59.702H140.339ZM141.222 51.8565V54.8207H131.989V51.8565H141.222ZM142.332 63.5365V63.2716C142.332 62.2709 142.475 61.3502 142.761 60.5093C143.047 59.66 143.463 58.9242 144.01 58.3019C144.557 57.6797 145.229 57.1962 146.028 56.8514C146.827 56.4982 147.744 56.3216 148.778 56.3216C149.812 56.3216 150.733 56.4982 151.54 56.8514C152.347 57.1962 153.024 57.6797 153.571 58.3019C154.126 58.9242 154.546 59.66 154.832 60.5093C155.118 61.3502 155.261 62.2709 155.261 63.2716V63.5365C155.261 64.5287 155.118 65.4495 154.832 66.2988C154.546 67.1397 154.126 67.8755 153.571 68.5061C153.024 69.1284 152.352 69.6119 151.553 69.9567C150.754 70.3014 149.837 70.4738 148.803 70.4738C147.769 70.4738 146.848 70.3014 146.041 69.9567C145.242 69.6119 144.565 69.1284 144.01 68.5061C143.463 67.8755 143.047 67.1397 142.761 66.2988C142.475 65.4495 142.332 64.5287 142.332 63.5365ZM145.965 63.2716V63.5365C145.965 64.1083 146.015 64.6423 146.116 65.1384C146.217 65.6345 146.377 66.0718 146.596 66.4502C146.823 66.8202 147.117 67.1103 147.479 67.3205C147.84 67.5307 148.282 67.6358 148.803 67.6358C149.308 67.6358 149.741 67.5307 150.102 67.3205C150.464 67.1103 150.754 66.8202 150.973 66.4502C151.191 66.0718 151.351 65.6345 151.452 65.1384C151.561 64.6423 151.616 64.1083 151.616 63.5365V63.2716C151.616 62.7166 151.561 62.1953 151.452 61.7075C151.351 61.2114 151.187 60.7742 150.96 60.3958C150.741 60.0089 150.451 59.7062 150.09 59.4876C149.728 59.269 149.291 59.1596 148.778 59.1596C148.265 59.1596 147.828 59.269 147.466 59.4876C147.113 59.7062 146.823 60.0089 146.596 60.3958C146.377 60.7742 146.217 61.2114 146.116 61.7075C146.015 62.1953 145.965 62.7166 145.965 63.2716ZM161.126 59.5507V70.2216H157.494V56.5739H160.912L161.126 59.5507ZM165.238 56.4856L165.175 59.8534C164.999 59.8282 164.784 59.8071 164.532 59.7903C164.288 59.7651 164.065 59.7525 163.863 59.7525C163.35 59.7525 162.905 59.8197 162.526 59.9543C162.156 60.0804 161.845 60.2696 161.593 60.5219C161.349 60.7742 161.164 61.0811 161.038 61.4427C160.92 61.8042 160.853 62.2163 160.836 62.6788L160.105 62.4517C160.105 61.5688 160.193 60.7573 160.369 60.0174C160.546 59.269 160.803 58.6173 161.139 58.0623C161.484 57.5073 161.904 57.0784 162.4 56.7757C162.896 56.473 163.464 56.3216 164.103 56.3216C164.305 56.3216 164.511 56.3385 164.721 56.3721C164.931 56.3973 165.104 56.4352 165.238 56.4856ZM175.026 66.9547V56.5739H178.659V70.2216H175.241L175.026 66.9547ZM175.43 64.1545L176.502 64.1293C176.502 65.0375 176.397 65.8826 176.187 66.6646C175.976 67.4382 175.661 68.1109 175.241 68.6827C174.82 69.2461 174.29 69.6876 173.651 70.0071C173.012 70.3183 172.26 70.4738 171.394 70.4738C170.729 70.4738 170.115 70.3813 169.552 70.1963C168.997 70.0029 168.518 69.7044 168.114 69.3008C167.719 68.8887 167.408 68.3632 167.181 67.7241C166.962 67.0766 166.853 66.2988 166.853 65.3906V56.5739H170.485V65.4159C170.485 65.8195 170.532 66.1601 170.624 66.4376C170.725 66.715 170.864 66.9421 171.04 67.1187C171.217 67.2953 171.423 67.4214 171.658 67.4971C171.902 67.5728 172.171 67.6106 172.466 67.6106C173.214 67.6106 173.803 67.4592 174.232 67.1565C174.669 66.8538 174.976 66.4418 175.152 65.9204C175.337 65.3906 175.43 64.802 175.43 64.1545ZM185.066 59.3993V70.2216H181.421V56.5739H184.839L185.066 59.3993ZM184.562 62.9184H183.553C183.553 61.9682 183.666 61.0937 183.893 60.2948C184.129 59.4876 184.469 58.7897 184.915 58.201C185.369 57.604 185.928 57.1415 186.593 56.8136C187.257 56.4856 188.026 56.3216 188.901 56.3216C189.506 56.3216 190.061 56.4141 190.566 56.5991C191.07 56.7757 191.503 57.0574 191.865 57.4442C192.235 57.8226 192.521 58.3188 192.723 58.9326C192.925 59.538 193.025 60.2654 193.025 61.1147V70.2216H189.393V61.5183C189.393 60.8961 189.309 60.4168 189.141 60.0804C188.972 59.7441 188.733 59.5086 188.422 59.3741C188.119 59.2395 187.753 59.1723 187.324 59.1723C186.853 59.1723 186.441 59.269 186.088 59.4624C185.743 59.6558 185.457 59.9249 185.23 60.2696C185.003 60.606 184.835 61.0012 184.726 61.4553C184.617 61.9094 184.562 62.3971 184.562 62.9184ZM192.685 62.5022L191.386 62.6662C191.386 61.7748 191.495 60.9465 191.714 60.1813C191.941 59.4161 192.273 58.7434 192.71 58.1632C193.156 57.583 193.707 57.1331 194.362 56.8136C195.018 56.4856 195.775 56.3216 196.633 56.3216C197.289 56.3216 197.886 56.4183 198.424 56.6117C198.962 56.7967 199.42 57.0953 199.799 57.5073C200.186 57.9109 200.48 58.4407 200.682 59.0966C200.892 59.7525 200.997 60.5555 200.997 61.5057V70.2216H197.352V61.5057C197.352 60.8751 197.268 60.3958 197.1 60.0678C196.94 59.7315 196.704 59.5002 196.393 59.3741C196.09 59.2395 195.729 59.1723 195.308 59.1723C194.871 59.1723 194.489 59.2606 194.161 59.4371C193.833 59.6053 193.559 59.8408 193.341 60.1435C193.122 60.4462 192.958 60.7994 192.849 61.203C192.74 61.5982 192.685 62.0313 192.685 62.5022Z" fill="#2C2C2C"/>
<path d="M112.412 67.5025C107.673 52.43 97.3706 43.3251 81.394 40.3811C80.5759 40.2276 79.7519 40.1197 78.928 39.9946H73.1778C70.3786 40.563 67.4919 40.8187 64.8038 41.6997C50.1946 46.4794 41.0492 56.0958 38.0982 70.9921C37.9345 71.8446 37.8001 72.6971 37.654 73.561V114.027H78.589C81.3765 113.459 84.2282 113.135 86.9396 112.322C94.0367 110.172 100.332 106.05 105.05 100.463C109.768 94.8767 112.703 88.0699 113.493 80.8813C113.56 80.5107 113.65 80.1444 113.762 79.7844V74.1862C113.324 71.9753 113.09 69.6678 112.412 67.5025ZM99.8483 77.4712C99.3516 89.9748 88.2019 99.8185 75.1763 99.1251C72.9844 98.9771 70.8226 98.5451 68.7483 97.8406C67.3318 97.3652 65.8017 97.3118 64.3538 97.6872C60.2165 98.6534 56.0499 99.5173 51.5737 100.483C52.9002 96.3402 54.1683 92.5266 55.2961 88.7187C55.5328 87.8548 55.4754 86.9396 55.1325 86.11C53.4701 82.6011 52.7605 78.7362 53.0715 74.8846C53.3825 71.0329 54.7036 67.3232 56.9088 64.1096C59.1139 60.896 62.1294 58.286 65.6671 56.5288C69.2049 54.7716 73.1468 53.9259 77.1164 54.0725C90.1712 54.5272 100.345 65.0074 99.8483 77.4712Z" fill="#2C2C2C"/>
</svg>
