<svg width="310" height="166" viewBox="0 0 310 166" fill="none" xmlns="http://www.w3.org/2000/svg">
<rect x="308.416" y="10.7622" width="154.292" height="291.978" rx="7.61081" transform="rotate(90 308.416 10.7622)" fill="#F1D1E5" stroke="#F1D1E5" stroke-width="1.38378"/>
<rect x="293.195" y="1.07568" width="154.292" height="291.978" rx="7.61081" transform="rotate(90 293.195 1.07568)" fill="white" stroke="#F1D1E5" stroke-width="1.38378"/>
<path d="M129.009 85.1046L131.842 93.3972H131.957L134.79 85.1046H136.451L132.787 95.2864H131.012L127.348 85.1046H129.009ZM137.802 95.2864V87.65H139.289V95.2864H137.802ZM138.553 86.4717C138.294 86.4717 138.072 86.3856 137.887 86.2132C137.704 86.0376 137.613 85.8288 137.613 85.5868C137.613 85.3415 137.704 85.1327 137.887 84.9604C138.072 84.7847 138.294 84.6969 138.553 84.6969C138.811 84.6969 139.032 84.7847 139.214 84.9604C139.4 85.1327 139.492 85.3415 139.492 85.5868C139.492 85.8288 139.4 86.0376 139.214 86.2132C139.032 86.3856 138.811 86.4717 138.553 86.4717ZM144.58 95.4405C143.827 95.4405 143.179 95.2797 142.636 94.9583C142.095 94.6334 141.678 94.1777 141.383 93.5911C141.091 93.0011 140.945 92.3101 140.945 91.5179C140.945 90.7357 141.091 90.0463 141.383 89.4497C141.678 88.8531 142.089 88.3875 142.616 88.0527C143.146 87.718 143.766 87.5506 144.475 87.5506C144.906 87.5506 145.324 87.6218 145.728 87.7644C146.132 87.9069 146.495 88.1306 146.817 88.4355C147.138 88.7404 147.392 89.1365 147.577 89.6237C147.763 90.1076 147.856 90.6959 147.856 91.3886V91.9156H141.786V90.802H146.399C146.399 90.4109 146.32 90.0645 146.161 89.7629C146.001 89.458 145.778 89.2177 145.489 89.0421C145.204 88.8664 144.87 88.7786 144.485 88.7786C144.067 88.7786 143.703 88.8813 143.391 89.0868C143.083 89.289 142.844 89.5541 142.675 89.8823C142.51 90.2071 142.427 90.5601 142.427 90.9412V91.8112C142.427 92.3217 142.516 92.7558 142.695 93.1138C142.878 93.4717 143.131 93.7452 143.456 93.9341C143.781 94.1197 144.16 94.2125 144.594 94.2125C144.876 94.2125 145.133 94.1727 145.365 94.0932C145.597 94.0103 145.798 93.8877 145.967 93.7253C146.136 93.5629 146.265 93.3624 146.354 93.1237L147.761 93.3773C147.649 93.7916 147.446 94.1545 147.155 94.4661C146.866 94.7743 146.504 95.0146 146.066 95.1869C145.632 95.356 145.136 95.4405 144.58 95.4405ZM151.147 95.2864L148.9 87.65H150.436L151.933 93.258H152.007L153.509 87.65H155.045L156.536 93.2331H156.611L158.097 87.65H159.634L157.391 95.2864H155.875L154.324 89.7729H154.21L152.658 95.2864H151.147ZM166.972 95.4554C166.488 95.4554 166.05 95.3659 165.659 95.1869C165.268 95.0047 164.958 94.7412 164.729 94.3965C164.504 94.0518 164.391 93.6292 164.391 93.1287C164.391 92.6978 164.474 92.3432 164.64 92.0648C164.806 91.7864 165.029 91.566 165.311 91.4036C165.593 91.2412 165.908 91.1185 166.256 91.0357C166.604 90.9528 166.958 90.8898 167.32 90.8467C167.777 90.7937 168.148 90.7506 168.433 90.7175C168.718 90.681 168.925 90.623 169.055 90.5435C169.184 90.4639 169.249 90.3347 169.249 90.1557V90.1209C169.249 89.6867 169.126 89.3503 168.881 89.1117C168.639 88.873 168.277 88.7537 167.797 88.7537C167.296 88.7537 166.902 88.8647 166.614 89.0868C166.329 89.3056 166.131 89.5492 166.022 89.8176L164.625 89.4994C164.791 89.0354 165.033 88.6609 165.351 88.3759C165.672 88.0875 166.042 87.8787 166.46 87.7494C166.877 87.6169 167.316 87.5506 167.777 87.5506C168.082 87.5506 168.405 87.587 168.746 87.66C169.091 87.7296 169.413 87.8588 169.711 88.0477C170.013 88.2367 170.259 88.5068 170.452 88.8581C170.644 89.2061 170.74 89.6585 170.74 90.2154V95.2864H169.288V94.2423H169.229C169.133 94.4346 168.988 94.6235 168.796 94.8091C168.604 94.9947 168.357 95.1488 168.055 95.2715C167.754 95.3941 167.393 95.4554 166.972 95.4554ZM167.295 94.2622C167.706 94.2622 168.057 94.181 168.349 94.0186C168.644 93.8562 168.867 93.6441 169.02 93.3823C169.176 93.1171 169.254 92.8337 169.254 92.5321V91.5477C169.201 91.6008 169.098 91.6505 168.945 91.6969C168.796 91.74 168.625 91.7781 168.433 91.8112C168.241 91.8411 168.054 91.8692 167.871 91.8958C167.689 91.919 167.537 91.9388 167.414 91.9554C167.126 91.9919 166.862 92.0532 166.624 92.1394C166.388 92.2255 166.199 92.3498 166.057 92.5122C165.918 92.6713 165.848 92.8834 165.848 93.1486C165.848 93.5165 165.984 93.7949 166.256 93.9838C166.527 94.1694 166.874 94.2622 167.295 94.2622ZM174.206 85.1046V95.2864H172.72V85.1046H174.206ZM177.693 85.1046V95.2864H176.206V85.1046H177.693ZM183.517 95.2864V85.1046H187.146C187.938 85.1046 188.595 85.2487 189.115 85.5371C189.635 85.8254 190.025 86.2199 190.283 86.7203C190.542 87.2175 190.671 87.7776 190.671 88.4007C190.671 89.0271 190.54 89.5906 190.278 90.0911C190.02 90.5882 189.629 90.9826 189.105 91.2743C188.585 91.5627 187.93 91.7068 187.141 91.7068H184.646V90.4043H187.002C187.503 90.4043 187.909 90.3181 188.22 90.1458C188.532 89.9701 188.76 89.7315 188.906 89.4298C189.052 89.1282 189.125 88.7852 189.125 88.4007C189.125 88.0163 189.052 87.6749 188.906 87.3766C188.76 87.0783 188.53 86.8446 188.215 86.6756C187.904 86.5065 187.493 86.422 186.982 86.422H185.053V95.2864H183.517ZM194.507 95.4554C194.023 95.4554 193.585 95.3659 193.194 95.1869C192.803 95.0047 192.493 94.7412 192.265 94.3965C192.039 94.0518 191.926 93.6292 191.926 93.1287C191.926 92.6978 192.009 92.3432 192.175 92.0648C192.341 91.7864 192.565 91.566 192.846 91.4036C193.128 91.2412 193.443 91.1185 193.791 91.0357C194.139 90.9528 194.493 90.8898 194.855 90.8467C195.312 90.7937 195.683 90.7506 195.968 90.7175C196.253 90.681 196.461 90.623 196.59 90.5435C196.719 90.4639 196.784 90.3347 196.784 90.1557V90.1209C196.784 89.6867 196.661 89.3503 196.416 89.1117C196.174 88.873 195.813 88.7537 195.332 88.7537C194.832 88.7537 194.437 88.8647 194.149 89.0868C193.864 89.3056 193.667 89.5492 193.557 89.8176L192.16 89.4994C192.326 89.0354 192.568 88.6609 192.886 88.3759C193.208 88.0875 193.577 87.8787 193.995 87.7494C194.412 87.6169 194.851 87.5506 195.312 87.5506C195.617 87.5506 195.94 87.587 196.282 87.66C196.626 87.7296 196.948 87.8588 197.246 88.0477C197.548 88.2367 197.795 88.5068 197.987 88.8581C198.179 89.2061 198.275 89.6585 198.275 90.2154V95.2864H196.824V94.2423H196.764C196.668 94.4346 196.524 94.6235 196.331 94.8091C196.139 94.9947 195.892 95.1488 195.591 95.2715C195.289 95.3941 194.928 95.4554 194.507 95.4554ZM194.83 94.2622C195.241 94.2622 195.592 94.181 195.884 94.0186C196.179 93.8562 196.403 93.6441 196.555 93.3823C196.711 93.1171 196.789 92.8337 196.789 92.5321V91.5477C196.736 91.6008 196.633 91.6505 196.48 91.6969C196.331 91.74 196.161 91.7781 195.968 91.8112C195.776 91.8411 195.589 91.8692 195.407 91.8958C195.224 91.919 195.072 91.9388 194.949 91.9554C194.661 91.9919 194.397 92.0532 194.159 92.1394C193.923 92.2255 193.734 92.3498 193.592 92.5122C193.453 92.6713 193.383 92.8834 193.383 93.1486C193.383 93.5165 193.519 93.7949 193.791 93.9838C194.063 94.1694 194.409 94.2622 194.83 94.2622ZM201.742 85.1046V95.2864H200.255V85.1046H201.742ZM206.958 95.4405C206.242 95.4405 205.617 95.2764 205.084 94.9483C204.55 94.6202 204.136 94.1611 203.841 93.5712C203.546 92.9812 203.398 92.2918 203.398 91.503C203.398 90.7109 203.546 90.0181 203.841 89.4249C204.136 88.8316 204.55 88.3709 205.084 88.0428C205.617 87.7146 206.242 87.5506 206.958 87.5506C207.674 87.5506 208.299 87.7146 208.832 88.0428C209.366 88.3709 209.78 88.8316 210.075 89.4249C210.37 90.0181 210.518 90.7109 210.518 91.503C210.518 92.2918 210.37 92.9812 210.075 93.5712C209.78 94.1611 209.366 94.6202 208.832 94.9483C208.299 95.2764 207.674 95.4405 206.958 95.4405ZM206.963 94.1926C207.427 94.1926 207.812 94.07 208.116 93.8247C208.421 93.5795 208.647 93.253 208.793 92.8453C208.942 92.4377 209.016 91.9886 209.016 91.498C209.016 91.0108 208.942 90.5634 208.793 90.1557C208.647 89.7447 208.421 89.4149 208.116 89.1663C207.812 88.9178 207.427 88.7935 206.963 88.7935C206.496 88.7935 206.108 88.9178 205.8 89.1663C205.495 89.4149 205.268 89.7447 205.119 90.1557C204.973 90.5634 204.9 91.0108 204.9 91.498C204.9 91.9886 204.973 92.4377 205.119 92.8453C205.268 93.253 205.495 93.5795 205.8 93.8247C206.108 94.07 206.496 94.1926 206.963 94.1926ZM212.177 95.2864V87.65H213.604V88.8929H213.698C213.857 88.472 214.118 88.1439 214.479 87.9085C214.84 87.6699 215.273 87.5506 215.776 87.5506C216.287 87.5506 216.714 87.6699 217.059 87.9085C217.407 88.1472 217.664 88.4753 217.83 88.8929H217.909C218.092 88.4852 218.382 88.1604 218.779 87.9185C219.177 87.6732 219.651 87.5506 220.201 87.5506C220.894 87.5506 221.459 87.7677 221.896 88.2019C222.337 88.636 222.558 89.2906 222.558 90.1656V95.2864H221.071V90.3048C221.071 89.7878 220.93 89.4133 220.649 89.1813C220.367 88.9493 220.03 88.8333 219.639 88.8333C219.155 88.8333 218.779 88.9824 218.511 89.2807C218.242 89.5757 218.108 89.9552 218.108 90.4192V95.2864H216.627V90.2104C216.627 89.7961 216.497 89.463 216.239 89.2111C215.98 88.9592 215.644 88.8333 215.23 88.8333C214.948 88.8333 214.688 88.9078 214.449 89.057C214.214 89.2028 214.023 89.4066 213.877 89.6685C213.735 89.9303 213.664 90.2336 213.664 90.5783V95.2864H212.177ZM226.772 95.4554C226.288 95.4554 225.851 95.3659 225.46 95.1869C225.069 95.0047 224.759 94.7412 224.53 94.3965C224.305 94.0518 224.192 93.6292 224.192 93.1287C224.192 92.6978 224.275 92.3432 224.441 92.0648C224.606 91.7864 224.83 91.566 225.112 91.4036C225.394 91.2412 225.708 91.1185 226.056 91.0357C226.404 90.9528 226.759 90.8898 227.12 90.8467C227.578 90.7937 227.949 90.7506 228.234 90.7175C228.519 90.681 228.726 90.623 228.855 90.5435C228.985 90.4639 229.049 90.3347 229.049 90.1557V90.1209C229.049 89.6867 228.927 89.3503 228.681 89.1117C228.44 88.873 228.078 88.7537 227.598 88.7537C227.097 88.7537 226.703 88.8647 226.414 89.0868C226.129 89.3056 225.932 89.5492 225.823 89.8176L224.426 89.4994C224.592 89.0354 224.833 88.6609 225.152 88.3759C225.473 88.0875 225.843 87.8787 226.26 87.7494C226.678 87.6169 227.117 87.5506 227.578 87.5506C227.883 87.5506 228.206 87.587 228.547 87.66C228.892 87.7296 229.213 87.8588 229.512 88.0477C229.813 88.2367 230.06 88.5068 230.252 88.8581C230.445 89.2061 230.541 89.6585 230.541 90.2154V95.2864H229.089V94.2423H229.029C228.933 94.4346 228.789 94.6235 228.597 94.8091C228.405 94.9947 228.158 95.1488 227.856 95.2715C227.555 95.3941 227.193 95.4554 226.772 95.4554ZM227.096 94.2622C227.507 94.2622 227.858 94.181 228.15 94.0186C228.444 93.8562 228.668 93.6441 228.821 93.3823C228.976 93.1171 229.054 92.8337 229.054 92.5321V91.5477C229.001 91.6008 228.899 91.6505 228.746 91.6969C228.597 91.74 228.426 91.7781 228.234 91.8112C228.042 91.8411 227.855 91.8692 227.672 91.8958C227.49 91.919 227.337 91.9388 227.215 91.9554C226.926 91.9919 226.663 92.0532 226.424 92.1394C226.189 92.2255 226 92.3498 225.858 92.5122C225.718 92.6713 225.649 92.8834 225.649 93.1486C225.649 93.5165 225.785 93.7949 226.056 93.9838C226.328 94.1694 226.675 94.2622 227.096 94.2622ZM127.999 112.286V104.65H129.436V105.863H129.516C129.655 105.452 129.9 105.129 130.251 104.894C130.606 104.655 131.007 104.536 131.455 104.536C131.547 104.536 131.657 104.539 131.783 104.546C131.912 104.552 132.013 104.561 132.086 104.57V105.992C132.026 105.976 131.92 105.958 131.768 105.938C131.615 105.914 131.463 105.903 131.31 105.903C130.959 105.903 130.646 105.977 130.371 106.127C130.099 106.272 129.884 106.476 129.724 106.738C129.565 106.997 129.486 107.292 129.486 107.623V112.286H127.999ZM136.39 112.44C135.638 112.44 134.99 112.28 134.446 111.958C133.906 111.633 133.488 111.178 133.193 110.591C132.902 110.001 132.756 109.31 132.756 108.518C132.756 107.736 132.902 107.046 133.193 106.45C133.488 105.853 133.899 105.387 134.426 105.053C134.957 104.718 135.576 104.551 136.286 104.551C136.717 104.551 137.134 104.622 137.539 104.764C137.943 104.907 138.306 105.131 138.627 105.436C138.949 105.74 139.202 106.137 139.388 106.624C139.574 107.108 139.666 107.696 139.666 108.389V108.916H133.596V107.802H138.21C138.21 107.411 138.13 107.065 137.971 106.763C137.812 106.458 137.588 106.218 137.3 106.042C137.015 105.866 136.68 105.779 136.296 105.779C135.878 105.779 135.513 105.881 135.202 106.087C134.894 106.289 134.655 106.554 134.486 106.882C134.32 107.207 134.237 107.56 134.237 107.941V108.811C134.237 109.322 134.327 109.756 134.506 110.114C134.688 110.472 134.942 110.745 135.267 110.934C135.591 111.12 135.971 111.213 136.405 111.213C136.687 111.213 136.944 111.173 137.176 111.093C137.408 111.01 137.608 110.888 137.777 110.725C137.946 110.563 138.075 110.362 138.165 110.124L139.572 110.377C139.459 110.792 139.257 111.155 138.965 111.466C138.677 111.774 138.314 112.015 137.877 112.187C137.442 112.356 136.947 112.44 136.39 112.44ZM141.316 115.15V104.65H142.767V105.888H142.892C142.978 105.729 143.102 105.545 143.265 105.336C143.427 105.127 143.652 104.945 143.941 104.789C144.229 104.63 144.61 104.551 145.084 104.551C145.701 104.551 146.251 104.706 146.735 105.018C147.219 105.329 147.598 105.779 147.873 106.365C148.152 106.952 148.291 107.658 148.291 108.483C148.291 109.308 148.153 110.016 147.878 110.606C147.603 111.193 147.225 111.645 146.745 111.963C146.264 112.278 145.716 112.436 145.099 112.436C144.635 112.436 144.256 112.358 143.961 112.202C143.669 112.046 143.44 111.864 143.275 111.655C143.109 111.446 142.981 111.261 142.892 111.098H142.802V115.15H141.316ZM142.772 108.468C142.772 109.005 142.85 109.476 143.006 109.88C143.162 110.284 143.387 110.601 143.682 110.83C143.977 111.055 144.338 111.168 144.766 111.168C145.21 111.168 145.581 111.05 145.88 110.815C146.178 110.576 146.403 110.253 146.556 109.845C146.712 109.438 146.789 108.979 146.789 108.468C146.789 107.964 146.713 107.512 146.561 107.111C146.412 106.71 146.186 106.393 145.885 106.161C145.586 105.929 145.213 105.813 144.766 105.813C144.335 105.813 143.971 105.924 143.672 106.146C143.377 106.369 143.154 106.678 143.001 107.076C142.849 107.474 142.772 107.938 142.772 108.468ZM153.173 112.44C152.457 112.44 151.832 112.276 151.299 111.948C150.765 111.62 150.351 111.161 150.056 110.571C149.761 109.981 149.613 109.292 149.613 108.503C149.613 107.711 149.761 107.018 150.056 106.425C150.351 105.832 150.765 105.371 151.299 105.043C151.832 104.715 152.457 104.551 153.173 104.551C153.889 104.551 154.514 104.715 155.047 105.043C155.581 105.371 155.995 105.832 156.29 106.425C156.585 107.018 156.733 107.711 156.733 108.503C156.733 109.292 156.585 109.981 156.29 110.571C155.995 111.161 155.581 111.62 155.047 111.948C154.514 112.276 153.889 112.44 153.173 112.44ZM153.178 111.193C153.642 111.193 154.026 111.07 154.331 110.825C154.636 110.579 154.862 110.253 155.007 109.845C155.157 109.438 155.231 108.989 155.231 108.498C155.231 108.011 155.157 107.563 155.007 107.156C154.862 106.745 154.636 106.415 154.331 106.166C154.026 105.918 153.642 105.793 153.178 105.793C152.711 105.793 152.323 105.918 152.015 106.166C151.71 106.415 151.483 106.745 151.333 107.156C151.188 107.563 151.115 108.011 151.115 108.498C151.115 108.989 151.188 109.438 151.333 109.845C151.483 110.253 151.71 110.579 152.015 110.825C152.323 111.07 152.711 111.193 153.178 111.193ZM164.114 106.514L162.767 106.753C162.711 106.581 162.621 106.417 162.498 106.261C162.379 106.105 162.217 105.977 162.011 105.878C161.806 105.779 161.549 105.729 161.241 105.729C160.82 105.729 160.468 105.823 160.187 106.012C159.905 106.198 159.764 106.438 159.764 106.733C159.764 106.988 159.858 107.194 160.047 107.35C160.236 107.505 160.541 107.633 160.962 107.732L162.175 108.011C162.878 108.173 163.402 108.423 163.746 108.762C164.091 109.1 164.263 109.539 164.263 110.079C164.263 110.536 164.131 110.944 163.866 111.302C163.604 111.657 163.238 111.935 162.767 112.137C162.3 112.339 161.758 112.44 161.141 112.44C160.286 112.44 159.588 112.258 159.048 111.894C158.508 111.526 158.176 111.004 158.054 110.328L159.491 110.109C159.58 110.483 159.764 110.767 160.042 110.959C160.321 111.148 160.684 111.242 161.131 111.242C161.618 111.242 162.008 111.141 162.3 110.939C162.591 110.734 162.737 110.483 162.737 110.188C162.737 109.95 162.648 109.749 162.469 109.587C162.293 109.424 162.023 109.302 161.658 109.219L160.366 108.936C159.653 108.773 159.126 108.515 158.785 108.16C158.447 107.805 158.278 107.356 158.278 106.813C158.278 106.362 158.403 105.967 158.655 105.629C158.907 105.291 159.255 105.028 159.699 104.839C160.144 104.647 160.652 104.551 161.226 104.551C162.051 104.551 162.701 104.73 163.175 105.088C163.648 105.442 163.962 105.918 164.114 106.514ZM165.898 112.286V104.65H167.384V112.286H165.898ZM166.648 103.472C166.39 103.472 166.168 103.386 165.982 103.213C165.8 103.038 165.709 102.829 165.709 102.587C165.709 102.342 165.8 102.133 165.982 101.96C166.168 101.785 166.39 101.697 166.648 101.697C166.907 101.697 167.127 101.785 167.31 101.96C167.495 102.133 167.588 102.342 167.588 102.587C167.588 102.829 167.495 103.038 167.31 103.213C167.127 103.386 166.907 103.472 166.648 103.472ZM172.949 104.65V105.843H168.778V104.65H172.949ZM169.896 102.82H171.383V110.044C171.383 110.333 171.426 110.55 171.512 110.695C171.598 110.838 171.709 110.936 171.845 110.989C171.984 111.039 172.135 111.063 172.297 111.063C172.417 111.063 172.521 111.055 172.611 111.039C172.7 111.022 172.77 111.009 172.819 110.999L173.088 112.227C173.002 112.26 172.879 112.293 172.72 112.326C172.561 112.363 172.362 112.382 172.123 112.386C171.732 112.392 171.368 112.323 171.03 112.177C170.692 112.031 170.418 111.806 170.209 111.501C170.001 111.196 169.896 110.813 169.896 110.352V102.82ZM177.728 112.44C177.012 112.44 176.387 112.276 175.853 111.948C175.32 111.62 174.905 111.161 174.61 110.571C174.315 109.981 174.168 109.292 174.168 108.503C174.168 107.711 174.315 107.018 174.61 106.425C174.905 105.832 175.32 105.371 175.853 105.043C176.387 104.715 177.012 104.551 177.728 104.551C178.444 104.551 179.068 104.715 179.602 105.043C180.136 105.371 180.55 105.832 180.845 106.425C181.14 107.018 181.287 107.711 181.287 108.503C181.287 109.292 181.14 109.981 180.845 110.571C180.55 111.161 180.136 111.62 179.602 111.948C179.068 112.276 178.444 112.44 177.728 112.44ZM177.733 111.193C178.197 111.193 178.581 111.07 178.886 110.825C179.191 110.579 179.416 110.253 179.562 109.845C179.711 109.438 179.786 108.989 179.786 108.498C179.786 108.011 179.711 107.563 179.562 107.156C179.416 106.745 179.191 106.415 178.886 106.166C178.581 105.918 178.197 105.793 177.733 105.793C177.265 105.793 176.877 105.918 176.569 106.166C176.264 106.415 176.037 106.745 175.888 107.156C175.742 107.563 175.669 108.011 175.669 108.498C175.669 108.989 175.742 109.438 175.888 109.845C176.037 110.253 176.264 110.579 176.569 110.825C176.877 111.07 177.265 111.193 177.733 111.193ZM182.947 112.286V104.65H184.383V105.863H184.463C184.602 105.452 184.847 105.129 185.199 104.894C185.553 104.655 185.954 104.536 186.402 104.536C186.495 104.536 186.604 104.539 186.73 104.546C186.859 104.552 186.96 104.561 187.033 104.57V105.992C186.974 105.976 186.867 105.958 186.715 105.938C186.563 105.914 186.41 105.903 186.258 105.903C185.906 105.903 185.593 105.977 185.318 106.127C185.046 106.272 184.831 106.476 184.672 106.738C184.513 106.997 184.433 107.292 184.433 107.623V112.286H182.947ZM188.32 112.286V104.65H189.806V112.286H188.32ZM189.07 103.472C188.812 103.472 188.59 103.386 188.404 103.213C188.222 103.038 188.131 102.829 188.131 102.587C188.131 102.342 188.222 102.133 188.404 101.96C188.59 101.785 188.812 101.697 189.07 101.697C189.329 101.697 189.549 101.785 189.732 101.96C189.917 102.133 190.01 102.342 190.01 102.587C190.01 102.829 189.917 103.038 189.732 103.213C189.549 103.386 189.329 103.472 189.07 103.472ZM195.097 112.44C194.345 112.44 193.697 112.28 193.153 111.958C192.613 111.633 192.195 111.178 191.9 110.591C191.609 110.001 191.463 109.31 191.463 108.518C191.463 107.736 191.609 107.046 191.9 106.45C192.195 105.853 192.606 105.387 193.133 105.053C193.664 104.718 194.283 104.551 194.993 104.551C195.424 104.551 195.841 104.622 196.246 104.764C196.65 104.907 197.013 105.131 197.334 105.436C197.656 105.74 197.909 106.137 198.095 106.624C198.281 107.108 198.373 107.696 198.373 108.389V108.916H192.303V107.802H196.917C196.917 107.411 196.837 107.065 196.678 106.763C196.519 106.458 196.295 106.218 196.007 106.042C195.722 105.866 195.387 105.779 195.003 105.779C194.585 105.779 194.22 105.881 193.909 106.087C193.601 106.289 193.362 106.554 193.193 106.882C193.027 107.207 192.944 107.56 192.944 107.941V108.811C192.944 109.322 193.034 109.756 193.213 110.114C193.395 110.472 193.649 110.745 193.974 110.934C194.298 111.12 194.678 111.213 195.112 111.213C195.394 111.213 195.651 111.173 195.883 111.093C196.115 111.01 196.315 110.888 196.484 110.725C196.653 110.563 196.782 110.362 196.872 110.124L198.279 110.377C198.166 110.792 197.964 111.155 197.672 111.466C197.384 111.774 197.021 112.015 196.584 112.187C196.149 112.356 195.654 112.44 195.097 112.44ZM205.745 106.514L204.398 106.753C204.341 106.581 204.252 106.417 204.129 106.261C204.01 106.105 203.848 105.977 203.642 105.878C203.437 105.779 203.18 105.729 202.871 105.729C202.451 105.729 202.099 105.823 201.817 106.012C201.536 106.198 201.395 106.438 201.395 106.733C201.395 106.988 201.489 107.194 201.678 107.35C201.867 107.505 202.172 107.633 202.593 107.732L203.806 108.011C204.509 108.173 205.032 108.423 205.377 108.762C205.722 109.1 205.894 109.539 205.894 110.079C205.894 110.536 205.762 110.944 205.496 111.302C205.235 111.657 204.868 111.935 204.398 112.137C203.93 112.339 203.388 112.44 202.772 112.44C201.917 112.44 201.219 112.258 200.679 111.894C200.139 111.526 199.807 111.004 199.685 110.328L201.121 110.109C201.211 110.483 201.395 110.767 201.673 110.959C201.952 111.148 202.315 111.242 202.762 111.242C203.249 111.242 203.639 111.141 203.93 110.939C204.222 110.734 204.368 110.483 204.368 110.188C204.368 109.95 204.278 109.749 204.099 109.587C203.924 109.424 203.654 109.302 203.289 109.219L201.996 108.936C201.284 108.773 200.757 108.515 200.415 108.16C200.077 107.805 199.908 107.356 199.908 106.813C199.908 106.362 200.034 105.967 200.286 105.629C200.538 105.291 200.886 105.028 201.33 104.839C201.774 104.647 202.283 104.551 202.857 104.551C203.682 104.551 204.331 104.73 204.805 105.088C205.279 105.442 205.593 105.918 205.745 106.514ZM208.508 112.381C208.236 112.381 208.003 112.285 207.807 112.092C207.611 111.897 207.514 111.662 207.514 111.387C207.514 111.115 207.611 110.883 207.807 110.69C208.003 110.495 208.236 110.397 208.508 110.397C208.78 110.397 209.013 110.495 209.209 110.69C209.405 110.883 209.502 111.115 209.502 111.387C209.502 111.569 209.456 111.736 209.363 111.889C209.274 112.038 209.154 112.157 209.005 112.247C208.856 112.336 208.69 112.381 208.508 112.381Z" fill="#2C2C2C"/>
<path d="M141.182 58.2031C141.053 57.7538 140.871 57.3568 140.637 57.0121C140.403 56.6612 140.117 56.3658 139.778 56.1257C139.446 55.8795 139.064 55.6918 138.634 55.5625C138.209 55.4332 137.738 55.3686 137.221 55.3686C136.254 55.3686 135.405 55.6087 134.673 56.0888C133.946 56.5689 133.38 57.2675 132.974 58.1847C132.567 59.0956 132.364 60.2098 132.364 61.527C132.364 62.8442 132.564 63.9645 132.964 64.8878C133.365 65.8111 133.931 66.5159 134.663 67.0021C135.396 67.4822 136.261 67.7223 137.258 67.7223C138.163 67.7223 138.935 67.5623 139.575 67.2422C140.222 66.916 140.714 66.4574 141.053 65.8665C141.397 65.2756 141.57 64.5769 141.57 63.7706L142.382 63.8906H137.507V60.8807H145.42V63.2628C145.42 64.9247 145.069 66.3527 144.367 67.5469C143.665 68.7348 142.699 69.652 141.468 70.2983C140.237 70.9384 138.827 71.2585 137.239 71.2585C135.467 71.2585 133.909 70.8677 132.567 70.0859C131.226 69.2981 130.179 68.1809 129.428 66.7344C128.683 65.2817 128.311 63.5582 128.311 61.5639C128.311 60.0312 128.533 58.6648 128.976 57.4645C129.425 56.258 130.053 55.2363 130.859 54.3991C131.666 53.562 132.604 52.925 133.675 52.4879C134.746 52.0509 135.907 51.8324 137.156 51.8324C138.227 51.8324 139.224 51.9893 140.148 52.3033C141.071 52.611 141.89 53.0481 142.604 53.6143C143.324 54.1806 143.912 54.8546 144.367 55.6364C144.823 56.4119 145.115 57.2675 145.244 58.2031H141.182ZM149.238 71V56.8182H153.171V71H149.238ZM151.213 54.9901C150.629 54.9901 150.127 54.7962 149.708 54.4084C149.296 54.0144 149.09 53.5436 149.09 52.9957C149.09 52.4541 149.296 51.9893 149.708 51.6016C150.127 51.2076 150.629 51.0107 151.213 51.0107C151.798 51.0107 152.297 51.2076 152.709 51.6016C153.128 51.9893 153.337 52.4541 153.337 52.9957C153.337 53.5436 153.128 54.0144 152.709 54.4084C152.297 54.7962 151.798 54.9901 151.213 54.9901ZM163.865 56.8182V59.7727H155.324V56.8182H163.865ZM157.263 53.4205H161.197V66.642C161.197 67.0052 161.252 67.2884 161.363 67.4915C161.474 67.6884 161.627 67.8269 161.824 67.907C162.028 67.987 162.261 68.027 162.526 68.027C162.711 68.027 162.895 68.0116 163.08 67.9808C163.265 67.9439 163.406 67.9162 163.505 67.8977L164.123 70.8246C163.926 70.8861 163.649 70.9569 163.292 71.0369C162.935 71.1231 162.501 71.1754 161.991 71.1939C161.043 71.2308 160.212 71.1046 159.498 70.8153C158.79 70.526 158.239 70.0767 157.845 69.4673C157.451 68.858 157.257 68.0885 157.263 67.1591V53.4205ZM170.665 62.8011V71H166.732V52.0909H170.554V59.3203H170.72C171.04 58.4832 171.557 57.8277 172.271 57.3537C172.985 56.8736 173.881 56.6335 174.958 56.6335C175.943 56.6335 176.802 56.849 177.534 57.2798C178.273 57.7045 178.845 58.317 179.252 59.1172C179.664 59.9112 179.867 60.8622 179.861 61.9702V71H175.928V62.6719C175.934 61.7978 175.712 61.1177 175.263 60.6314C174.82 60.1451 174.198 59.902 173.398 59.902C172.862 59.902 172.388 60.0159 171.976 60.2436C171.57 60.4714 171.25 60.8037 171.016 61.2408C170.788 61.6716 170.671 62.1918 170.665 62.8011ZM192.051 64.9616V56.8182H195.984V71H192.208V68.424H192.06C191.74 69.255 191.208 69.9228 190.463 70.4276C189.724 70.9323 188.822 71.1847 187.757 71.1847C186.81 71.1847 185.975 70.9692 185.255 70.5384C184.535 70.1075 183.972 69.495 183.566 68.701C183.166 67.907 182.962 66.956 182.956 65.848V56.8182H186.89V65.1463C186.896 65.9834 187.12 66.6451 187.564 67.1314C188.007 67.6177 188.601 67.8608 189.346 67.8608C189.819 67.8608 190.263 67.7531 190.675 67.5376C191.087 67.3161 191.42 66.9898 191.672 66.5589C191.931 66.1281 192.057 65.5956 192.051 64.9616ZM199.204 71V52.0909H203.137V59.2003H203.257C203.43 58.8187 203.679 58.4309 204.005 58.0369C204.338 57.6368 204.768 57.3045 205.298 57.0398C205.833 56.7689 206.498 56.6335 207.292 56.6335C208.326 56.6335 209.28 56.9044 210.154 57.446C211.028 57.9815 211.727 58.791 212.25 59.8743C212.773 60.9515 213.035 62.3026 213.035 63.9276C213.035 65.5095 212.78 66.8452 212.269 67.9347C211.764 69.018 211.075 69.8397 210.2 70.3999C209.333 70.9538 208.36 71.2308 207.283 71.2308C206.52 71.2308 205.87 71.1046 205.335 70.8523C204.805 70.5999 204.371 70.2829 204.033 69.9013C203.694 69.5135 203.436 69.1226 203.257 68.7287H203.082V71H199.204ZM203.054 63.9091C203.054 64.7524 203.171 65.4879 203.405 66.1158C203.639 66.7436 203.977 67.233 204.421 67.5838C204.864 67.9285 205.402 68.1009 206.036 68.1009C206.677 68.1009 207.218 67.9254 207.661 67.5746C208.105 67.2176 208.44 66.7251 208.668 66.0973C208.902 65.4633 209.019 64.7339 209.019 63.9091C209.019 63.0904 208.905 62.3703 208.677 61.7486C208.449 61.1269 208.114 60.6406 207.671 60.2898C207.227 59.9389 206.683 59.7635 206.036 59.7635C205.396 59.7635 204.855 59.9328 204.411 60.2713C203.974 60.6098 203.639 61.09 203.405 61.7116C203.171 62.3333 203.054 63.0658 203.054 63.9091Z" fill="#2C2C2C"/>
<path d="M63.9679 113.577C59.1757 112.182 54.7124 109.84 50.8426 106.688C45.0683 101.968 40.823 95.642 38.6434 88.5098C35.7482 79.0969 36.7049 68.9199 41.3034 60.2114C46.356 50.698 54.1355 44.4672 64.4875 41.4728C67.5436 40.6111 70.6934 40.1255 73.8671 40.027C79.7492 39.8032 85.6007 40.9739 90.9439 43.4434C95.3608 45.4323 99.3393 48.2776 102.649 51.8145C107.861 57.3175 111.284 64.2704 112.466 71.7572C112.889 74.0886 113.061 76.4585 112.981 78.8266C112.714 84.8975 111.017 90.8194 108.026 96.1092C106.286 99.1973 104.119 102.024 101.589 104.506C97.5371 108.456 92.6588 111.457 87.3063 113.294C87.0922 113.403 86.8488 113.441 86.6117 113.402C85.0682 113.34 84.3787 112.651 84.3736 111.015C84.3736 107.588 84.3736 104.167 84.3736 100.724C84.4467 98.5737 83.7559 96.4665 82.4235 94.7766C82.084 94.3547 82.1509 94.1901 82.686 94.0871C84.1266 93.8145 85.5724 93.5726 86.9873 93.1765C92.1325 91.8181 96.0171 88.942 97.9465 83.8174C98.5539 82.0303 98.9208 80.1703 99.0373 78.2864C99.4643 73.8461 98.7903 69.73 95.8318 66.2158C95.6401 66.0064 95.5098 65.7482 95.4553 65.4695C95.4008 65.1908 95.4243 64.9025 95.5231 64.6363C96.3083 61.9394 96.1835 59.0589 95.1681 56.44C95.0954 56.162 94.9271 55.9185 94.6929 55.752C94.4587 55.5855 94.1734 55.5067 93.887 55.5293C92.7433 55.5815 91.6172 55.8304 90.558 56.2651C88.7212 56.9494 87.0748 58.0145 85.3717 58.956C84.7704 59.2974 84.0594 59.3898 83.3908 59.2133C77.855 57.909 72.0917 57.909 66.5559 59.2133C66.2083 59.3106 65.8435 59.3296 65.4876 59.2691C65.1318 59.2086 64.7937 59.0701 64.4978 58.8634C63.26 58.0673 61.9611 57.3705 60.6132 56.7796C59.198 56.1181 57.6811 55.7006 56.1266 55.5448C55.9737 55.512 55.8157 55.5104 55.6622 55.5401C55.5086 55.5697 55.3626 55.6301 55.2329 55.7175C55.1032 55.805 54.9925 55.9176 54.9073 56.0489C54.8222 56.1801 54.7644 56.3271 54.7374 56.4812C53.8885 59.1361 53.6055 61.8064 54.367 64.5231C54.4777 64.8459 54.4993 65.1927 54.4296 65.5268C54.3599 65.8609 54.2014 66.17 53.9708 66.4216C52.9831 67.6334 52.2089 69.0045 51.6812 70.476C50.4875 73.7483 50.6522 77.0773 51.1667 80.4216C52.1957 86.5958 55.5247 90.8097 61.5136 92.842C63.3784 93.3969 65.28 93.8198 67.2042 94.1077C67.7856 94.2158 67.8576 94.3753 67.4872 94.8383C66.5944 95.9397 65.996 97.2498 65.7481 98.6458C65.7255 98.8262 65.6556 98.9975 65.5453 99.1421C65.435 99.2867 65.2884 99.3995 65.1204 99.469C62.625 100.498 60.1347 100.719 57.6805 99.3198C56.3336 98.4655 55.2072 97.3056 54.3927 95.9343C53.055 93.9225 51.3056 92.5127 48.7742 92.3327C48.2134 92.2915 47.4725 92.204 47.2667 92.8214C47.0609 93.4389 47.6577 93.9328 48.1619 94.2364C50.1944 95.4972 51.7479 97.4002 52.5765 99.6439C53.0536 100.916 53.8549 102.041 54.9009 102.907C55.947 103.773 57.2014 104.351 58.5397 104.583C60.5669 105 62.6147 104.82 64.6419 104.686C65.4651 104.63 65.5629 104.892 65.5629 105.54C65.5629 107.13 65.5063 108.725 65.5629 110.315C65.6503 111.73 65.3776 112.913 63.9679 113.577Z" fill="#2C2C2C"/>
<path d="M56.5279 99.4842C56.461 99.7827 56.2706 99.9988 56.0545 99.9679C55.8526 99.9254 55.6681 99.8233 55.525 99.6746C55.3818 99.526 55.2867 99.3378 55.2519 99.1344C55.2519 98.9183 55.4577 98.517 55.6892 98.5581C56.1677 98.6353 56.2449 99.1807 56.5279 99.4842Z" fill="#2C2C2C"/>
<path d="M62.3111 101.331C62.2499 101.479 62.1476 101.606 62.0162 101.697C61.8849 101.789 61.73 101.84 61.5702 101.846C61.2357 101.846 60.927 101.702 60.9424 101.378C60.9574 101.201 61.0342 101.035 61.1593 100.908C61.2844 100.782 61.4499 100.704 61.6268 100.688C61.9406 100.693 62.1516 101.028 62.3111 101.331Z" fill="#2C2C2C"/>
<path d="M58.3956 100.426C58.7249 100.514 59.1159 100.668 59.188 101.018C59.26 101.368 58.8741 101.63 58.6323 101.604C58.4394 101.581 58.2598 101.494 58.1219 101.357C57.984 101.22 57.8957 101.041 57.8708 100.848C57.8399 100.611 58.0972 100.452 58.3956 100.426Z" fill="#2C2C2C"/>
<path d="M65.1975 100.894C65.144 101.05 65.0485 101.189 64.9215 101.296C64.7945 101.402 64.6408 101.471 64.4772 101.496C64.4066 101.526 64.3296 101.539 64.253 101.532C64.1764 101.526 64.1025 101.501 64.038 101.459C63.9734 101.418 63.9201 101.361 63.8827 101.293C63.8454 101.226 63.8251 101.151 63.8238 101.074C63.8467 100.908 63.9244 100.753 64.0446 100.636C64.1648 100.519 64.3206 100.445 64.4875 100.426C64.8322 100.359 65.0072 100.652 65.1975 100.894Z" fill="#2C2C2C"/>
<path d="M53.9143 96.6803C54.2384 96.8295 54.6037 96.9839 54.6964 97.3492C54.7684 97.6064 54.4648 97.8225 54.2539 97.8071C54.0754 97.7846 53.9091 97.7047 53.7801 97.5794C53.6511 97.4541 53.5663 97.2902 53.5387 97.1125C53.513 96.9118 53.6622 96.7266 53.9143 96.6803Z" fill="#2C2C2C"/>
<path d="M52.7154 95.7128C52.5554 95.6927 52.4066 95.6202 52.2921 95.5067C52.1776 95.3931 52.1039 95.2449 52.0825 95.0851C52.0748 95.0414 52.077 94.9966 52.0888 94.9538C52.1007 94.911 52.1219 94.8715 52.151 94.838C52.1801 94.8044 52.2163 94.7778 52.2569 94.7601C52.2976 94.7423 52.3417 94.7338 52.3861 94.7353C52.5477 94.7594 52.6999 94.8266 52.8266 94.9298C52.9534 95.033 53.05 95.1684 53.1064 95.3218C53.1939 95.5482 52.916 95.6357 52.7154 95.7128Z" fill="#2C2C2C"/>
</svg>
