<svg width="314" height="166" viewBox="0 0 314 166" fill="none" xmlns="http://www.w3.org/2000/svg">
<rect x="308.4" y="10.9353" width="154.292" height="291.978" rx="7.61081" transform="rotate(90 308.4 10.9353)" fill="#FFFFFF" stroke="#F1D1E5" stroke-width="1.38378"/>
<rect x="293.178" y="1.24878" width="154.292" height="291.978" rx="7.61081" transform="rotate(90 293.178 1.24878)" fill="#FFFFFF" stroke="#F1D1E5" stroke-width="1.38378"/>
<path d="M156.35 93.7067L159.249 85.3621H160.661L157.019 95.2H156.012L156.35 93.7067ZM153.641 85.3621L156.512 93.7067L156.87 95.2H155.864L152.228 85.3621H153.641ZM163.154 87.8891V95.2H161.897V87.8891H163.154ZM161.803 85.95C161.803 85.7472 161.864 85.5761 161.985 85.4364C162.111 85.2968 162.296 85.227 162.539 85.227C162.778 85.227 162.96 85.2968 163.087 85.4364C163.217 85.5761 163.282 85.7472 163.282 85.95C163.282 86.1436 163.217 86.3103 163.087 86.45C162.96 86.5851 162.778 86.6527 162.539 86.6527C162.296 86.6527 162.111 86.5851 161.985 86.45C161.864 86.3103 161.803 86.1436 161.803 85.95ZM168.195 95.3351C167.686 95.3351 167.224 95.2495 166.809 95.0783C166.4 94.9027 166.046 94.6572 165.749 94.3418C165.456 94.0265 165.231 93.6527 165.073 93.2202C164.915 92.7878 164.837 92.3148 164.837 91.8013V91.5175C164.837 90.9229 164.924 90.3936 165.1 89.9297C165.276 89.4612 165.514 89.0648 165.816 88.7405C166.118 88.4162 166.46 88.1707 166.843 88.004C167.226 87.8373 167.623 87.754 168.032 87.754C168.555 87.754 169.005 87.8441 169.384 88.0243C169.767 88.2045 170.08 88.4567 170.323 88.781C170.566 89.1009 170.746 89.4792 170.864 89.9162C170.981 90.3486 171.039 90.8216 171.039 91.3351V91.8959H165.58V90.8756H169.789V90.781C169.771 90.4567 169.704 90.1414 169.587 89.8351C169.474 89.5288 169.294 89.2765 169.046 89.0783C168.798 88.8801 168.46 88.781 168.032 88.781C167.749 88.781 167.487 88.8418 167.249 88.9635C167.01 89.0806 166.805 89.2563 166.634 89.4905C166.463 89.7247 166.33 90.0108 166.235 90.3486C166.141 90.6864 166.093 91.0761 166.093 91.5175V91.8013C166.093 92.1481 166.141 92.4747 166.235 92.781C166.334 93.0828 166.476 93.3486 166.661 93.5783C166.85 93.8081 167.078 93.9882 167.343 94.1189C167.614 94.2495 167.92 94.3148 168.262 94.3148C168.704 94.3148 169.078 94.2247 169.384 94.0445C169.69 93.8644 169.958 93.6234 170.188 93.3216L170.945 93.9229C170.787 94.1617 170.587 94.3891 170.343 94.6054C170.1 94.8216 169.8 94.9972 169.445 95.1324C169.093 95.2675 168.677 95.3351 168.195 95.3351ZM174.35 93.9027L176.228 87.8891H177.053L176.891 89.0851L174.978 95.2H174.174L174.35 93.9027ZM173.087 87.8891L174.688 93.9702L174.803 95.2H173.958L171.837 87.8891H173.087ZM178.85 93.9229L180.377 87.8891H181.62L179.499 95.2H178.661L178.85 93.9229ZM177.235 87.8891L179.073 93.8013L179.282 95.2H178.485L176.519 89.0716L176.357 87.8891H177.235ZM190.647 93.95V90.1864C190.647 89.8981 190.589 89.6481 190.472 89.4364C190.359 89.2202 190.188 89.0536 189.958 88.9364C189.728 88.8193 189.445 88.7608 189.107 88.7608C188.791 88.7608 188.514 88.8148 188.276 88.9229C188.041 89.031 187.857 89.1729 187.722 89.3486C187.591 89.5243 187.526 89.7135 187.526 89.9162H186.276C186.276 89.6549 186.343 89.3959 186.478 89.1391C186.614 88.8824 186.807 88.6504 187.059 88.4432C187.316 88.2315 187.623 88.0648 187.978 87.9432C188.339 87.8171 188.74 87.754 189.181 87.754C189.713 87.754 190.181 87.8441 190.587 88.0243C190.996 88.2045 191.316 88.477 191.546 88.8418C191.78 89.2022 191.897 89.6549 191.897 90.2V93.6054C191.897 93.8486 191.918 94.1076 191.958 94.3824C192.003 94.6572 192.069 94.8936 192.154 95.0918V95.2H190.85C190.787 95.0558 190.737 94.8644 190.701 94.6256C190.665 94.3824 190.647 94.1572 190.647 93.95ZM190.864 90.7675L190.877 91.6459H189.614C189.258 91.6459 188.94 91.6752 188.661 91.7337C188.382 91.7878 188.147 91.8711 187.958 91.9837C187.769 92.0963 187.625 92.2382 187.526 92.4094C187.427 92.5761 187.377 92.772 187.377 92.9972C187.377 93.227 187.429 93.4364 187.532 93.6256C187.636 93.8148 187.791 93.9657 187.999 94.0783C188.21 94.1864 188.469 94.2405 188.776 94.2405C189.159 94.2405 189.496 94.1594 189.789 93.9972C190.082 93.8351 190.314 93.6369 190.485 93.4027C190.661 93.1684 190.755 92.9409 190.769 92.7202L191.303 93.3216C191.271 93.5108 191.186 93.7202 191.046 93.95C190.906 94.1797 190.719 94.4004 190.485 94.6121C190.255 94.8193 189.981 94.9927 189.661 95.1324C189.346 95.2675 188.99 95.3351 188.593 95.3351C188.098 95.3351 187.663 95.2382 187.289 95.0445C186.92 94.8509 186.632 94.5918 186.424 94.2675C186.222 93.9387 186.12 93.5716 186.12 93.1662C186.12 92.7743 186.197 92.4297 186.35 92.1324C186.503 91.8306 186.724 91.5806 187.012 91.3824C187.3 91.1797 187.647 91.0265 188.053 90.9229C188.458 90.8193 188.911 90.7675 189.411 90.7675H190.864ZM195.222 84.8216V95.2H193.965V84.8216H195.222ZM198.587 84.8216V95.2H197.33V84.8216H198.587ZM207.843 91.3418H205.215V90.281H207.843C208.352 90.281 208.764 90.2 209.08 90.0378C209.395 89.8756 209.625 89.6504 209.769 89.3621C209.918 89.0738 209.992 88.745 209.992 88.3756C209.992 88.0378 209.918 87.7202 209.769 87.4229C209.625 87.1256 209.395 86.8869 209.08 86.7067C208.764 86.522 208.352 86.4297 207.843 86.4297H205.519V95.2H204.215V85.3621H207.843C208.587 85.3621 209.215 85.4905 209.728 85.7472C210.242 86.004 210.632 86.3599 210.897 86.8148C211.163 87.2653 211.296 87.781 211.296 88.3621C211.296 88.9927 211.163 89.531 210.897 89.977C210.632 90.4229 210.242 90.763 209.728 90.9972C209.215 91.227 208.587 91.3418 207.843 91.3418ZM216.985 93.95V90.1864C216.985 89.8981 216.927 89.6481 216.809 89.4364C216.697 89.2202 216.526 89.0536 216.296 88.9364C216.066 88.8193 215.782 88.7608 215.445 88.7608C215.129 88.7608 214.852 88.8148 214.614 88.9229C214.379 89.031 214.195 89.1729 214.059 89.3486C213.929 89.5243 213.864 89.7135 213.864 89.9162H212.614C212.614 89.6549 212.681 89.3959 212.816 89.1391C212.951 88.8824 213.145 88.6504 213.397 88.4432C213.654 88.2315 213.96 88.0648 214.316 87.9432C214.677 87.8171 215.078 87.754 215.519 87.754C216.05 87.754 216.519 87.8441 216.924 88.0243C217.334 88.2045 217.654 88.477 217.884 88.8418C218.118 89.2022 218.235 89.6549 218.235 90.2V93.6054C218.235 93.8486 218.255 94.1076 218.296 94.3824C218.341 94.6572 218.406 94.8936 218.492 95.0918V95.2H217.188C217.125 95.0558 217.075 94.8644 217.039 94.6256C217.003 94.3824 216.985 94.1572 216.985 93.95ZM217.201 90.7675L217.215 91.6459H215.951C215.596 91.6459 215.278 91.6752 214.999 91.7337C214.719 91.7878 214.485 91.8711 214.296 91.9837C214.107 92.0963 213.963 92.2382 213.864 92.4094C213.764 92.5761 213.715 92.772 213.715 92.9972C213.715 93.227 213.767 93.4364 213.87 93.6256C213.974 93.8148 214.129 93.9657 214.337 94.0783C214.548 94.1864 214.807 94.2405 215.114 94.2405C215.496 94.2405 215.834 94.1594 216.127 93.9972C216.42 93.8351 216.652 93.6369 216.823 93.4027C216.999 93.1684 217.093 92.9409 217.107 92.7202L217.641 93.3216C217.609 93.5108 217.523 93.7202 217.384 93.95C217.244 94.1797 217.057 94.4004 216.823 94.6121C216.593 94.8193 216.319 94.9927 215.999 95.1324C215.683 95.2675 215.328 95.3351 214.931 95.3351C214.436 95.3351 214.001 95.2382 213.627 95.0445C213.258 94.8509 212.969 94.5918 212.762 94.2675C212.559 93.9387 212.458 93.5716 212.458 93.1662C212.458 92.7743 212.535 92.4297 212.688 92.1324C212.841 91.8306 213.062 91.5806 213.35 91.3824C213.638 91.1797 213.985 91.0265 214.391 90.9229C214.796 90.8193 215.249 90.7675 215.749 90.7675H217.201ZM221.559 84.8216V95.2H220.303V84.8216H221.559ZM223.235 91.6256V91.4702C223.235 90.9432 223.312 90.4545 223.465 90.004C223.618 89.5491 223.839 89.1549 224.127 88.8216C224.415 88.4837 224.764 88.2225 225.174 88.0378C225.584 87.8486 226.044 87.754 226.553 87.754C227.066 87.754 227.528 87.8486 227.938 88.0378C228.352 88.2225 228.704 88.4837 228.992 88.8216C229.285 89.1549 229.508 89.5491 229.661 90.004C229.814 90.4545 229.891 90.9432 229.891 91.4702V91.6256C229.891 92.1527 229.814 92.6414 229.661 93.0918C229.508 93.5423 229.285 93.9364 228.992 94.2743C228.704 94.6076 228.355 94.8689 227.945 95.0581C227.539 95.2427 227.08 95.3351 226.566 95.3351C226.053 95.3351 225.591 95.2427 225.181 95.0581C224.771 94.8689 224.42 94.6076 224.127 94.2743C223.839 93.9364 223.618 93.5423 223.465 93.0918C223.312 92.6414 223.235 92.1527 223.235 91.6256ZM224.485 91.4702V91.6256C224.485 91.9905 224.528 92.3351 224.614 92.6594C224.699 92.9792 224.828 93.263 224.999 93.5108C225.174 93.7585 225.393 93.9545 225.654 94.0986C225.915 94.2382 226.219 94.3081 226.566 94.3081C226.909 94.3081 227.208 94.2382 227.465 94.0986C227.726 93.9545 227.942 93.7585 228.114 93.5108C228.285 93.263 228.413 92.9792 228.499 92.6594C228.589 92.3351 228.634 91.9905 228.634 91.6256V91.4702C228.634 91.1099 228.589 90.7698 228.499 90.45C228.413 90.1256 228.282 89.8396 228.107 89.5918C227.936 89.3396 227.719 89.1414 227.458 88.9972C227.201 88.8531 226.9 88.781 226.553 88.781C226.21 88.781 225.909 88.8531 225.647 88.9972C225.391 89.1414 225.174 89.3396 224.999 89.5918C224.828 89.8396 224.699 90.1256 224.614 90.45C224.528 90.7698 224.485 91.1099 224.485 91.4702ZM232.701 89.3418V95.2H231.445V87.8891H232.634L232.701 89.3418ZM232.445 91.2675L231.864 91.2472C231.868 90.7472 231.933 90.2855 232.06 89.8621C232.186 89.4342 232.373 89.0626 232.62 88.7472C232.868 88.4319 233.177 88.1887 233.546 88.0175C233.915 87.8418 234.343 87.754 234.83 87.754C235.172 87.754 235.487 87.8036 235.776 87.9027C236.064 87.9972 236.314 88.1481 236.526 88.3554C236.737 88.5626 236.902 88.8283 237.019 89.1527C237.136 89.477 237.195 89.8689 237.195 90.3283V95.2H235.945V90.3891C235.945 90.0063 235.879 89.7 235.749 89.4702C235.623 89.2405 235.442 89.0738 235.208 88.9702C234.974 88.8621 234.699 88.8081 234.384 88.8081C234.014 88.8081 233.706 88.8734 233.458 89.004C233.21 89.1346 233.012 89.3148 232.864 89.5445C232.715 89.7743 232.607 90.0378 232.539 90.3351C232.476 90.6279 232.445 90.9387 232.445 91.2675ZM237.181 90.5783L236.343 90.8351C236.348 90.4342 236.413 90.0491 236.539 89.6797C236.67 89.3103 236.857 88.9815 237.1 88.6932C237.348 88.4049 237.652 88.1774 238.012 88.0108C238.373 87.8396 238.785 87.754 239.249 87.754C239.641 87.754 239.987 87.8058 240.289 87.9094C240.596 88.013 240.852 88.1729 241.06 88.3891C241.271 88.6009 241.431 88.8734 241.539 89.2067C241.647 89.54 241.701 89.9364 241.701 90.3959V95.2H240.445V90.3824C240.445 89.9725 240.379 89.6549 240.249 89.4297C240.123 89.2 239.942 89.04 239.708 88.95C239.478 88.8554 239.204 88.8081 238.884 88.8081C238.609 88.8081 238.366 88.8554 238.154 88.95C237.942 89.0445 237.764 89.1752 237.62 89.3418C237.476 89.504 237.366 89.6909 237.289 89.9027C237.217 90.1144 237.181 90.3396 237.181 90.5783ZM247.904 93.95V90.1864C247.904 89.8981 247.846 89.6481 247.728 89.4364C247.616 89.2202 247.445 89.0536 247.215 88.9364C246.985 88.8193 246.701 88.7608 246.364 88.7608C246.048 88.7608 245.771 88.8148 245.532 88.9229C245.298 89.031 245.114 89.1729 244.978 89.3486C244.848 89.5243 244.782 89.7135 244.782 89.9162H243.532C243.532 89.6549 243.6 89.3959 243.735 89.1391C243.87 88.8824 244.064 88.6504 244.316 88.4432C244.573 88.2315 244.879 88.0648 245.235 87.9432C245.596 87.8171 245.996 87.754 246.438 87.754C246.969 87.754 247.438 87.8441 247.843 88.0243C248.253 88.2045 248.573 88.477 248.803 88.8418C249.037 89.2022 249.154 89.6549 249.154 90.2V93.6054C249.154 93.8486 249.174 94.1076 249.215 94.3824C249.26 94.6572 249.325 94.8936 249.411 95.0918V95.2H248.107C248.044 95.0558 247.994 94.8644 247.958 94.6256C247.922 94.3824 247.904 94.1572 247.904 93.95ZM248.12 90.7675L248.134 91.6459H246.87C246.514 91.6459 246.197 91.6752 245.918 91.7337C245.638 91.7878 245.404 91.8711 245.215 91.9837C245.026 92.0963 244.882 92.2382 244.782 92.4094C244.683 92.5761 244.634 92.772 244.634 92.9972C244.634 93.227 244.686 93.4364 244.789 93.6256C244.893 93.8148 245.048 93.9657 245.255 94.0783C245.467 94.1864 245.726 94.2405 246.032 94.2405C246.415 94.2405 246.753 94.1594 247.046 93.9972C247.339 93.8351 247.571 93.6369 247.742 93.4027C247.918 93.1684 248.012 92.9409 248.026 92.7202L248.559 93.3216C248.528 93.5108 248.442 93.7202 248.303 93.95C248.163 94.1797 247.976 94.4004 247.742 94.6121C247.512 94.8193 247.237 94.9927 246.918 95.1324C246.602 95.2675 246.246 95.3351 245.85 95.3351C245.355 95.3351 244.92 95.2382 244.546 95.0445C244.177 94.8509 243.888 94.5918 243.681 94.2675C243.478 93.9387 243.377 93.5716 243.377 93.1662C243.377 92.7743 243.454 92.4297 243.607 92.1324C243.76 91.8306 243.981 91.5806 244.269 91.3824C244.557 91.1797 244.904 91.0265 245.309 90.9229C245.715 90.8193 246.168 90.7675 246.668 90.7675H248.12ZM154.235 105.038V111.2H152.985V103.889H154.201L154.235 105.038ZM156.519 103.849L156.512 105.011C156.409 104.988 156.309 104.975 156.215 104.97C156.125 104.961 156.021 104.957 155.904 104.957C155.616 104.957 155.361 105.002 155.141 105.092C154.92 105.182 154.733 105.308 154.58 105.47C154.427 105.632 154.305 105.826 154.215 106.051C154.129 106.272 154.073 106.515 154.046 106.781L153.695 106.984C153.695 106.542 153.737 106.128 153.823 105.74C153.913 105.353 154.05 105.011 154.235 104.713C154.42 104.412 154.654 104.177 154.938 104.011C155.226 103.84 155.569 103.754 155.965 103.754C156.055 103.754 156.159 103.765 156.276 103.788C156.393 103.806 156.474 103.826 156.519 103.849ZM160.573 111.335C160.064 111.335 159.602 111.25 159.188 111.078C158.778 110.903 158.424 110.657 158.127 110.342C157.834 110.027 157.609 109.653 157.451 109.22C157.294 108.788 157.215 108.315 157.215 107.801V107.518C157.215 106.923 157.303 106.394 157.478 105.93C157.654 105.461 157.893 105.065 158.195 104.74C158.496 104.416 158.839 104.171 159.222 104.004C159.605 103.837 160.001 103.754 160.411 103.754C160.933 103.754 161.384 103.844 161.762 104.024C162.145 104.204 162.458 104.457 162.701 104.781C162.945 105.101 163.125 105.479 163.242 105.916C163.359 106.349 163.418 106.822 163.418 107.335V107.896H157.958V106.876H162.168V106.781C162.15 106.457 162.082 106.141 161.965 105.835C161.852 105.529 161.672 105.277 161.424 105.078C161.177 104.88 160.839 104.781 160.411 104.781C160.127 104.781 159.866 104.842 159.627 104.963C159.388 105.081 159.183 105.256 159.012 105.49C158.841 105.725 158.708 106.011 158.614 106.349C158.519 106.686 158.472 107.076 158.472 107.518V107.801C158.472 108.148 158.519 108.475 158.614 108.781C158.713 109.083 158.855 109.349 159.039 109.578C159.228 109.808 159.456 109.988 159.722 110.119C159.992 110.25 160.298 110.315 160.641 110.315C161.082 110.315 161.456 110.225 161.762 110.045C162.069 109.864 162.337 109.623 162.566 109.322L163.323 109.923C163.165 110.162 162.965 110.389 162.722 110.605C162.478 110.822 162.179 110.997 161.823 111.132C161.472 111.268 161.055 111.335 160.573 111.335ZM166.127 105.295V114.011H164.87V103.889H166.019L166.127 105.295ZM171.053 107.484V107.626C171.053 108.157 170.99 108.65 170.864 109.105C170.737 109.556 170.553 109.948 170.309 110.281C170.071 110.614 169.776 110.873 169.424 111.058C169.073 111.243 168.67 111.335 168.215 111.335C167.751 111.335 167.341 111.259 166.985 111.105C166.629 110.952 166.328 110.729 166.08 110.436C165.832 110.144 165.634 109.792 165.485 109.382C165.341 108.972 165.242 108.511 165.188 107.997V107.24C165.242 106.7 165.343 106.216 165.492 105.788C165.641 105.36 165.837 104.995 166.08 104.693C166.328 104.387 166.627 104.155 166.978 103.997C167.33 103.835 167.735 103.754 168.195 103.754C168.654 103.754 169.062 103.844 169.418 104.024C169.773 104.2 170.073 104.452 170.316 104.781C170.559 105.11 170.742 105.504 170.864 105.963C170.99 106.418 171.053 106.925 171.053 107.484ZM169.796 107.626V107.484C169.796 107.119 169.758 106.777 169.681 106.457C169.605 106.132 169.485 105.849 169.323 105.605C169.165 105.358 168.963 105.164 168.715 105.024C168.467 104.88 168.172 104.808 167.83 104.808C167.514 104.808 167.24 104.862 167.005 104.97C166.776 105.078 166.58 105.225 166.418 105.409C166.255 105.59 166.123 105.797 166.019 106.031C165.92 106.261 165.846 106.5 165.796 106.747V108.497C165.886 108.813 166.012 109.11 166.174 109.389C166.337 109.664 166.553 109.887 166.823 110.058C167.093 110.225 167.433 110.308 167.843 110.308C168.181 110.308 168.472 110.238 168.715 110.099C168.963 109.954 169.165 109.759 169.323 109.511C169.485 109.263 169.605 108.979 169.681 108.659C169.758 108.335 169.796 107.99 169.796 107.626ZM172.316 107.626V107.47C172.316 106.943 172.393 106.454 172.546 106.004C172.699 105.549 172.92 105.155 173.208 104.822C173.496 104.484 173.846 104.222 174.255 104.038C174.665 103.849 175.125 103.754 175.634 103.754C176.147 103.754 176.609 103.849 177.019 104.038C177.433 104.222 177.785 104.484 178.073 104.822C178.366 105.155 178.589 105.549 178.742 106.004C178.895 106.454 178.972 106.943 178.972 107.47V107.626C178.972 108.153 178.895 108.641 178.742 109.092C178.589 109.542 178.366 109.936 178.073 110.274C177.785 110.608 177.436 110.869 177.026 111.058C176.62 111.243 176.161 111.335 175.647 111.335C175.134 111.335 174.672 111.243 174.262 111.058C173.852 110.869 173.501 110.608 173.208 110.274C172.92 109.936 172.699 109.542 172.546 109.092C172.393 108.641 172.316 108.153 172.316 107.626ZM173.566 107.47V107.626C173.566 107.99 173.609 108.335 173.695 108.659C173.78 108.979 173.909 109.263 174.08 109.511C174.255 109.759 174.474 109.954 174.735 110.099C174.996 110.238 175.3 110.308 175.647 110.308C175.99 110.308 176.289 110.238 176.546 110.099C176.807 109.954 177.023 109.759 177.195 109.511C177.366 109.263 177.494 108.979 177.58 108.659C177.67 108.335 177.715 107.99 177.715 107.626V107.47C177.715 107.11 177.67 106.77 177.58 106.45C177.494 106.126 177.364 105.84 177.188 105.592C177.017 105.34 176.8 105.141 176.539 104.997C176.282 104.853 175.981 104.781 175.634 104.781C175.291 104.781 174.99 104.853 174.728 104.997C174.472 105.141 174.255 105.34 174.08 105.592C173.909 105.84 173.78 106.126 173.695 106.45C173.609 106.77 173.566 107.11 173.566 107.47ZM184.796 109.261C184.796 109.081 184.755 108.914 184.674 108.761C184.598 108.603 184.438 108.461 184.195 108.335C183.956 108.204 183.596 108.092 183.114 107.997C182.708 107.912 182.341 107.81 182.012 107.693C181.688 107.576 181.411 107.434 181.181 107.268C180.956 107.101 180.782 106.905 180.661 106.68C180.539 106.454 180.478 106.191 180.478 105.889C180.478 105.601 180.541 105.328 180.668 105.072C180.798 104.815 180.981 104.587 181.215 104.389C181.454 104.191 181.74 104.036 182.073 103.923C182.406 103.81 182.778 103.754 183.188 103.754C183.773 103.754 184.273 103.858 184.688 104.065C185.102 104.272 185.42 104.549 185.641 104.896C185.861 105.238 185.972 105.619 185.972 106.038H184.722C184.722 105.835 184.661 105.639 184.539 105.45C184.422 105.256 184.249 105.096 184.019 104.97C183.794 104.844 183.517 104.781 183.188 104.781C182.841 104.781 182.559 104.835 182.343 104.943C182.132 105.047 181.976 105.18 181.877 105.342C181.782 105.504 181.735 105.675 181.735 105.855C181.735 105.99 181.758 106.112 181.803 106.22C181.852 106.324 181.938 106.421 182.059 106.511C182.181 106.596 182.352 106.677 182.573 106.754C182.794 106.831 183.075 106.907 183.418 106.984C184.017 107.119 184.51 107.281 184.897 107.47C185.285 107.659 185.573 107.891 185.762 108.166C185.951 108.441 186.046 108.774 186.046 109.166C186.046 109.486 185.978 109.779 185.843 110.045C185.713 110.31 185.521 110.54 185.269 110.734C185.021 110.923 184.724 111.072 184.377 111.18C184.035 111.283 183.65 111.335 183.222 111.335C182.578 111.335 182.032 111.22 181.587 110.99C181.141 110.761 180.803 110.463 180.573 110.099C180.343 109.734 180.228 109.349 180.228 108.943H181.485C181.503 109.286 181.602 109.558 181.782 109.761C181.963 109.959 182.183 110.101 182.445 110.186C182.706 110.268 182.965 110.308 183.222 110.308C183.564 110.308 183.85 110.263 184.08 110.173C184.314 110.083 184.492 109.959 184.614 109.801C184.735 109.644 184.796 109.463 184.796 109.261ZM189.046 103.889V111.2H187.789V103.889H189.046ZM187.695 101.95C187.695 101.747 187.755 101.576 187.877 101.436C188.003 101.297 188.188 101.227 188.431 101.227C188.67 101.227 188.852 101.297 188.978 101.436C189.109 101.576 189.174 101.747 189.174 101.95C189.174 102.144 189.109 102.31 188.978 102.45C188.852 102.585 188.67 102.653 188.431 102.653C188.188 102.653 188.003 102.585 187.877 102.45C187.755 102.31 187.695 102.144 187.695 101.95ZM194.114 103.889V104.849H190.161V103.889H194.114ZM191.499 102.112H192.749V109.389C192.749 109.637 192.787 109.824 192.864 109.95C192.94 110.076 193.039 110.159 193.161 110.2C193.282 110.24 193.413 110.261 193.553 110.261C193.656 110.261 193.764 110.252 193.877 110.234C193.994 110.211 194.082 110.193 194.141 110.18L194.147 111.2C194.048 111.231 193.918 111.261 193.755 111.288C193.598 111.319 193.406 111.335 193.181 111.335C192.875 111.335 192.593 111.274 192.337 111.153C192.08 111.031 191.875 110.828 191.722 110.545C191.573 110.256 191.499 109.869 191.499 109.382V102.112ZM195.114 107.626V107.47C195.114 106.943 195.19 106.454 195.343 106.004C195.496 105.549 195.717 105.155 196.005 104.822C196.294 104.484 196.643 104.222 197.053 104.038C197.463 103.849 197.922 103.754 198.431 103.754C198.945 103.754 199.406 103.849 199.816 104.038C200.231 104.222 200.582 104.484 200.87 104.822C201.163 105.155 201.386 105.549 201.539 106.004C201.692 106.454 201.769 106.943 201.769 107.47V107.626C201.769 108.153 201.692 108.641 201.539 109.092C201.386 109.542 201.163 109.936 200.87 110.274C200.582 110.608 200.233 110.869 199.823 111.058C199.418 111.243 198.958 111.335 198.445 111.335C197.931 111.335 197.469 111.243 197.059 111.058C196.65 110.869 196.298 110.608 196.005 110.274C195.717 109.936 195.496 109.542 195.343 109.092C195.19 108.641 195.114 108.153 195.114 107.626ZM196.364 107.47V107.626C196.364 107.99 196.406 108.335 196.492 108.659C196.578 108.979 196.706 109.263 196.877 109.511C197.053 109.759 197.271 109.954 197.532 110.099C197.794 110.238 198.098 110.308 198.445 110.308C198.787 110.308 199.087 110.238 199.343 110.099C199.605 109.954 199.821 109.759 199.992 109.511C200.163 109.263 200.291 108.979 200.377 108.659C200.467 108.335 200.512 107.99 200.512 107.626V107.47C200.512 107.11 200.467 106.77 200.377 106.45C200.291 106.126 200.161 105.84 199.985 105.592C199.814 105.34 199.598 105.141 199.337 104.997C199.08 104.853 198.778 104.781 198.431 104.781C198.089 104.781 197.787 104.853 197.526 104.997C197.269 105.141 197.053 105.34 196.877 105.592C196.706 105.84 196.578 106.126 196.492 106.45C196.406 106.77 196.364 107.11 196.364 107.47ZM204.587 105.038V111.2H203.337V103.889H204.553L204.587 105.038ZM206.87 103.849L206.864 105.011C206.76 104.988 206.661 104.975 206.566 104.97C206.476 104.961 206.373 104.957 206.255 104.957C205.967 104.957 205.713 105.002 205.492 105.092C205.271 105.182 205.084 105.308 204.931 105.47C204.778 105.632 204.656 105.826 204.566 106.051C204.481 106.272 204.424 106.515 204.397 106.781L204.046 106.984C204.046 106.542 204.089 106.128 204.174 105.74C204.264 105.353 204.402 105.011 204.587 104.713C204.771 104.412 205.005 104.177 205.289 104.011C205.578 103.84 205.92 103.754 206.316 103.754C206.406 103.754 206.51 103.765 206.627 103.788C206.744 103.806 206.825 103.826 206.87 103.849ZM209.384 103.889V111.2H208.127V103.889H209.384ZM208.032 101.95C208.032 101.747 208.093 101.576 208.215 101.436C208.341 101.297 208.526 101.227 208.769 101.227C209.008 101.227 209.19 101.297 209.316 101.436C209.447 101.576 209.512 101.747 209.512 101.95C209.512 102.144 209.447 102.31 209.316 102.45C209.19 102.585 209.008 102.653 208.769 102.653C208.526 102.653 208.341 102.585 208.215 102.45C208.093 102.31 208.032 102.144 208.032 101.95ZM214.424 111.335C213.915 111.335 213.454 111.25 213.039 111.078C212.629 110.903 212.276 110.657 211.978 110.342C211.686 110.027 211.46 109.653 211.303 109.22C211.145 108.788 211.066 108.315 211.066 107.801V107.518C211.066 106.923 211.154 106.394 211.33 105.93C211.505 105.461 211.744 105.065 212.046 104.74C212.348 104.416 212.69 104.171 213.073 104.004C213.456 103.837 213.852 103.754 214.262 103.754C214.785 103.754 215.235 103.844 215.614 104.024C215.996 104.204 216.309 104.457 216.553 104.781C216.796 105.101 216.976 105.479 217.093 105.916C217.21 106.349 217.269 106.822 217.269 107.335V107.896H211.809V106.876H216.019V106.781C216.001 106.457 215.933 106.141 215.816 105.835C215.704 105.529 215.523 105.277 215.276 105.078C215.028 104.88 214.69 104.781 214.262 104.781C213.978 104.781 213.717 104.842 213.478 104.963C213.24 105.081 213.035 105.256 212.864 105.49C212.692 105.725 212.559 106.011 212.465 106.349C212.37 106.686 212.323 107.076 212.323 107.518V107.801C212.323 108.148 212.37 108.475 212.465 108.781C212.564 109.083 212.706 109.349 212.891 109.578C213.08 109.808 213.307 109.988 213.573 110.119C213.843 110.25 214.15 110.315 214.492 110.315C214.933 110.315 215.307 110.225 215.614 110.045C215.92 109.864 216.188 109.623 216.418 109.322L217.174 109.923C217.017 110.162 216.816 110.389 216.573 110.605C216.33 110.822 216.03 110.997 215.674 111.132C215.323 111.268 214.906 111.335 214.424 111.335ZM222.985 109.261C222.985 109.081 222.945 108.914 222.864 108.761C222.787 108.603 222.627 108.461 222.384 108.335C222.145 108.204 221.785 108.092 221.303 107.997C220.897 107.912 220.53 107.81 220.201 107.693C219.877 107.576 219.6 107.434 219.37 107.268C219.145 107.101 218.972 106.905 218.85 106.68C218.728 106.454 218.668 106.191 218.668 105.889C218.668 105.601 218.731 105.328 218.857 105.072C218.987 104.815 219.17 104.587 219.404 104.389C219.643 104.191 219.929 104.036 220.262 103.923C220.596 103.81 220.967 103.754 221.377 103.754C221.963 103.754 222.463 103.858 222.877 104.065C223.291 104.272 223.609 104.549 223.83 104.896C224.05 105.238 224.161 105.619 224.161 106.038H222.911C222.911 105.835 222.85 105.639 222.728 105.45C222.611 105.256 222.438 105.096 222.208 104.97C221.983 104.844 221.706 104.781 221.377 104.781C221.03 104.781 220.749 104.835 220.532 104.943C220.321 105.047 220.165 105.18 220.066 105.342C219.972 105.504 219.924 105.675 219.924 105.855C219.924 105.99 219.947 106.112 219.992 106.22C220.041 106.324 220.127 106.421 220.249 106.511C220.37 106.596 220.541 106.677 220.762 106.754C220.983 106.831 221.264 106.907 221.607 106.984C222.206 107.119 222.699 107.281 223.087 107.47C223.474 107.659 223.762 107.891 223.951 108.166C224.141 108.441 224.235 108.774 224.235 109.166C224.235 109.486 224.168 109.779 224.032 110.045C223.902 110.31 223.71 110.54 223.458 110.734C223.21 110.923 222.913 111.072 222.566 111.18C222.224 111.283 221.839 111.335 221.411 111.335C220.767 111.335 220.222 111.22 219.776 110.99C219.33 110.761 218.992 110.463 218.762 110.099C218.532 109.734 218.418 109.349 218.418 108.943H219.674C219.692 109.286 219.791 109.558 219.972 109.761C220.152 109.959 220.373 110.101 220.634 110.186C220.895 110.268 221.154 110.308 221.411 110.308C221.753 110.308 222.039 110.263 222.269 110.173C222.503 110.083 222.681 109.959 222.803 109.801C222.924 109.644 222.985 109.463 222.985 109.261ZM225.897 110.538C225.897 110.326 225.963 110.148 226.093 110.004C226.228 109.855 226.422 109.781 226.674 109.781C226.927 109.781 227.118 109.855 227.249 110.004C227.384 110.148 227.451 110.326 227.451 110.538C227.451 110.745 227.384 110.921 227.249 111.065C227.118 111.209 226.927 111.281 226.674 111.281C226.422 111.281 226.228 111.209 226.093 111.065C225.963 110.921 225.897 110.745 225.897 110.538Z" fill="#2C2C2C"/>
<path d="M168.228 61.3148V68.5927C167.942 68.9375 167.501 69.3117 166.904 69.7153C166.307 70.1105 165.537 70.4511 164.595 70.737C163.654 71.0229 162.514 71.1658 161.177 71.1658C159.991 71.1658 158.911 70.9724 157.936 70.5856C156.96 70.1904 156.119 69.6144 155.413 68.8576C154.715 68.1008 154.177 67.1758 153.798 66.0827C153.42 64.9811 153.231 63.724 153.231 62.3113V61.1635C153.231 59.7508 153.412 58.4936 153.773 57.3921C154.143 56.2905 154.669 55.3613 155.35 54.6045C156.031 53.8477 156.842 53.2717 157.784 52.8765C158.726 52.4813 159.773 52.2837 160.925 52.2837C162.523 52.2837 163.834 52.5443 164.86 53.0657C165.886 53.5786 166.668 54.2934 167.206 55.2099C167.753 56.1181 168.089 57.1608 168.215 58.3381H164.545C164.452 57.7158 164.276 57.1734 164.015 56.7109C163.754 56.2484 163.38 55.8869 162.893 55.6262C162.413 55.3655 161.791 55.2352 161.026 55.2352C160.395 55.2352 159.832 55.3655 159.336 55.6262C158.848 55.8785 158.436 56.2527 158.099 56.7488C157.763 57.2449 157.507 57.8588 157.33 58.5903C157.153 59.3219 157.065 60.1712 157.065 61.1382V62.3113C157.065 63.2699 157.158 64.1192 157.343 64.8592C157.528 65.5907 157.801 66.2088 158.163 66.7133C158.533 67.2095 158.987 67.5836 159.525 67.8359C160.063 68.0882 160.689 68.2143 161.404 68.2143C162.001 68.2143 162.497 68.1639 162.893 68.063C163.296 67.962 163.62 67.8401 163.864 67.6972C164.116 67.5458 164.309 67.4029 164.444 67.2683V64.0141H160.988V61.3148H168.228ZM174.888 57.2659V70.9136H171.243V57.2659H174.888ZM171.016 53.709C171.016 53.1792 171.201 52.7419 171.571 52.3972C171.941 52.0524 172.437 51.88 173.059 51.88C173.673 51.88 174.165 52.0524 174.535 52.3972C174.913 52.7419 175.102 53.1792 175.102 53.709C175.102 54.2387 174.913 54.676 174.535 55.0207C174.165 55.3655 173.673 55.5379 173.059 55.5379C172.437 55.5379 171.941 55.3655 171.571 55.0207C171.201 54.676 171.016 54.2387 171.016 53.709ZM184.575 57.2659V59.8391H176.629V57.2659H184.575ZM178.596 53.8982H182.229V66.8016C182.229 67.1968 182.279 67.4996 182.38 67.7098C182.49 67.92 182.649 68.0672 182.86 68.1512C183.07 68.2269 183.335 68.2648 183.654 68.2648C183.881 68.2648 184.083 68.2564 184.26 68.2395C184.445 68.2143 184.6 68.1891 184.726 68.1639L184.739 70.8379C184.428 70.9388 184.091 71.0187 183.73 71.0775C183.368 71.1364 182.969 71.1658 182.532 71.1658C181.733 71.1658 181.035 71.0355 180.438 70.7748C179.849 70.5057 179.395 70.0769 179.076 69.4883C178.756 68.8996 178.596 68.126 178.596 67.1674V53.8982ZM190.188 51.5395V70.9136H186.555V51.5395H190.188ZM189.671 63.6104H188.674C188.683 62.6602 188.809 61.7857 189.053 60.9869C189.297 60.1796 189.645 59.4817 190.1 58.893C190.554 58.296 191.096 57.8335 191.727 57.5056C192.366 57.1776 193.072 57.0137 193.846 57.0137C194.518 57.0137 195.128 57.1104 195.675 57.3038C196.23 57.4888 196.705 57.7915 197.1 58.2119C197.504 58.624 197.815 59.1663 198.033 59.8391C198.252 60.5118 198.361 61.3274 198.361 62.286V70.9136H194.703V62.2608C194.703 61.6554 194.615 61.1803 194.439 60.8355C194.27 60.4823 194.022 60.2343 193.694 60.0913C193.375 59.94 192.98 59.8643 192.509 59.8643C191.987 59.8643 191.542 59.961 191.172 60.1544C190.81 60.3478 190.52 60.6169 190.301 60.9616C190.083 61.298 189.923 61.6932 189.822 62.1473C189.721 62.6014 189.671 63.0891 189.671 63.6104ZM209.196 67.6467V57.2659H212.829V70.9136H209.411L209.196 67.6467ZM209.6 64.8466L210.672 64.8213C210.672 65.7295 210.567 66.5746 210.357 67.3566C210.146 68.1302 209.831 68.8029 209.411 69.3747C208.99 69.9381 208.46 70.3796 207.821 70.6991C207.182 71.0103 206.43 71.1658 205.564 71.1658C204.899 71.1658 204.285 71.0733 203.722 70.8883C203.167 70.6949 202.688 70.3964 202.284 69.9928C201.889 69.5808 201.578 69.0552 201.351 68.4161C201.132 67.7686 201.023 66.9908 201.023 66.0827V57.2659H204.655V66.1079C204.655 66.5115 204.702 66.8521 204.794 67.1296C204.895 67.4071 205.034 67.6341 205.21 67.8107C205.387 67.9873 205.593 68.1134 205.828 68.1891C206.072 68.2648 206.341 68.3026 206.636 68.3026C207.384 68.3026 207.973 68.1512 208.402 67.8485C208.839 67.5458 209.146 67.1338 209.322 66.6124C209.507 66.0827 209.6 65.494 209.6 64.8466ZM215.604 51.5395H219.236V67.7855L218.871 70.9136H215.604V51.5395ZM227.877 63.951V64.2159C227.877 65.2334 227.767 66.1667 227.549 67.016C227.338 67.8653 227.01 68.6011 226.565 69.2234C226.119 69.8372 225.564 70.3165 224.9 70.6613C224.244 70.9977 223.47 71.1658 222.579 71.1658C221.746 71.1658 221.023 70.9977 220.409 70.6613C219.804 70.325 219.295 69.8498 218.883 69.236C218.471 68.6221 218.139 67.9032 217.887 67.0791C217.635 66.255 217.445 65.3553 217.319 64.3799V63.7996C217.445 62.8242 217.635 61.9245 217.887 61.1004C218.139 60.2763 218.471 59.5574 218.883 58.9435C219.295 58.3297 219.804 57.8545 220.409 57.5182C221.015 57.1818 221.73 57.0137 222.554 57.0137C223.453 57.0137 224.236 57.186 224.9 57.5308C225.573 57.8672 226.128 58.3465 226.565 58.9687C227.01 59.5826 227.338 60.3142 227.549 61.1635C227.767 62.0043 227.877 62.9335 227.877 63.951ZM224.244 64.2159V63.951C224.244 63.396 224.202 62.8747 224.118 62.3869C224.042 61.8908 223.908 61.4578 223.714 61.0878C223.521 60.7094 223.256 60.4109 222.92 60.1922C222.592 59.9736 222.167 59.8643 221.646 59.8643C221.149 59.8643 220.729 59.9484 220.384 60.1165C220.039 60.2847 219.754 60.5202 219.527 60.8229C219.308 61.1256 219.144 61.4872 219.035 61.9076C218.925 62.3197 218.858 62.7738 218.833 63.2699V64.9222C218.858 65.5865 218.967 66.1752 219.161 66.6881C219.363 67.1926 219.665 67.5921 220.069 67.8864C220.481 68.1723 221.015 68.3152 221.671 68.3152C222.184 68.3152 222.608 68.2143 222.945 68.0125C223.281 67.8107 223.542 67.5248 223.727 67.1548C223.92 66.7848 224.055 66.3517 224.13 65.8556C224.206 65.3511 224.244 64.8045 224.244 64.2159Z" fill="#2C2C2C"/>
<path d="M74.5621 113.198C69.6643 111.773 65.1027 109.378 61.1476 106.157C55.2461 101.333 50.9073 94.868 48.6796 87.5787C45.7207 77.9583 46.6984 67.5572 51.3983 58.6568C56.5621 48.9338 64.513 42.5657 75.0932 39.5052C78.2166 38.6245 81.4358 38.1283 84.6795 38.0276C90.6911 37.7989 96.6716 38.9954 102.133 41.5192C106.647 43.552 110.713 46.46 114.096 50.0749C119.423 55.6991 122.921 62.8052 124.129 70.4569C124.561 72.8397 124.737 75.2618 124.655 77.6821C124.383 83.8867 122.647 89.9392 119.591 95.3455C117.813 98.5016 115.598 101.391 113.012 103.927C108.871 107.964 103.885 111.032 98.4147 112.909C98.1959 113.021 97.9472 113.059 97.7048 113.019C96.1273 112.956 95.4226 112.252 95.4174 110.579C95.4174 107.077 95.4174 103.58 95.4174 100.062C95.4921 97.8643 94.7861 95.7107 93.4244 93.9835C93.0773 93.5523 93.1457 93.3841 93.6926 93.2789C95.165 93.0002 96.6426 92.753 98.0887 92.3481C103.347 90.9599 107.317 88.0204 109.289 82.7829C109.91 80.9564 110.285 79.0554 110.404 77.13C110.841 72.5919 110.152 68.385 107.128 64.7935C106.932 64.5794 106.799 64.3155 106.743 64.0307C106.688 63.7458 106.712 63.4512 106.813 63.1791C107.615 60.4228 107.488 57.4789 106.45 54.8023C106.375 54.5181 106.203 54.2692 105.964 54.0991C105.725 53.9289 105.433 53.8484 105.14 53.8715C103.972 53.9248 102.821 54.1792 101.738 54.6235C99.8608 55.3229 98.1781 56.4114 96.4375 57.3737C95.823 57.7226 95.0963 57.817 94.413 57.6366C88.7552 56.3036 82.8649 56.3036 77.2071 57.6366C76.8518 57.736 76.479 57.7555 76.1153 57.6937C75.7516 57.6319 75.4061 57.4903 75.1037 57.279C73.8386 56.4654 72.5111 55.7532 71.1335 55.1493C69.6871 54.4733 68.1367 54.0466 66.5481 53.8873C66.3918 53.8538 66.2303 53.8521 66.0734 53.8825C65.9164 53.9128 65.7672 53.9745 65.6346 54.0638C65.5021 54.1532 65.3889 54.2684 65.3019 54.4025C65.2149 54.5366 65.1558 54.6869 65.1283 54.8443C64.2606 57.5577 63.9714 60.2869 64.7497 63.0634C64.8628 63.3934 64.8849 63.7477 64.8137 64.0892C64.7424 64.4307 64.5804 64.7466 64.3447 65.0038C63.3353 66.2423 62.544 67.6435 62.0047 69.1475C60.7847 72.492 60.953 75.8942 61.4789 79.3123C62.5306 85.6225 65.9328 89.9292 72.0537 92.0063C73.9597 92.5734 75.9031 93.0057 77.8697 93.2999C78.4639 93.4104 78.5375 93.5734 78.1589 94.0466C77.2465 95.1723 76.6349 96.5113 76.3815 97.938C76.3585 98.1224 76.2869 98.2974 76.1743 98.4452C76.0616 98.593 75.9117 98.7083 75.74 98.7793C73.1896 99.831 70.6445 100.057 68.1361 98.6268C66.7596 97.7537 65.6083 96.5683 64.7759 95.1667C63.4087 93.1106 61.6208 91.6698 59.0336 91.4857C58.4605 91.4437 57.7032 91.3543 57.4929 91.9853C57.2825 92.6163 57.8925 93.1211 58.4079 93.4314C60.4851 94.72 62.0729 96.665 62.9197 98.9581C63.4073 100.258 64.2262 101.408 65.2953 102.293C66.3644 103.179 67.6465 103.769 69.0143 104.006C71.0862 104.432 73.1791 104.248 75.2509 104.111C76.0923 104.054 76.1922 104.322 76.1922 104.984C76.1922 106.609 76.1344 108.239 76.1922 109.864C76.2816 111.31 76.0029 112.52 74.5621 113.198Z" fill="#2C2C2C"/>
<path d="M66.9582 98.795C66.8898 99.1 66.6952 99.3209 66.4744 99.2893C66.268 99.2459 66.0794 99.1415 65.9331 98.9896C65.7868 98.8377 65.6896 98.6453 65.6541 98.4374C65.6541 98.2166 65.8644 97.8064 66.101 97.8485C66.5901 97.9273 66.6689 98.4847 66.9582 98.795Z" fill="#2C2C2C"/>
<path d="M72.8688 100.683C72.8063 100.834 72.7017 100.964 72.5674 101.057C72.4332 101.15 72.2749 101.203 72.1115 101.208C71.7697 101.208 71.4542 101.061 71.47 100.73C71.4853 100.549 71.5637 100.379 71.6916 100.25C71.8195 100.122 71.9886 100.042 72.1694 100.025C72.4901 100.031 72.7057 100.372 72.8688 100.683Z" fill="#2C2C2C"/>
<path d="M68.8671 99.7576C69.2036 99.847 69.6033 100.005 69.6769 100.362C69.7505 100.72 69.3561 100.988 69.109 100.962C68.9118 100.938 68.7283 100.849 68.5873 100.709C68.4464 100.569 68.3561 100.386 68.3307 100.189C68.2991 99.9469 68.5621 99.7839 68.8671 99.7576Z" fill="#2C2C2C"/>
<path d="M75.8188 100.236C75.764 100.396 75.6665 100.538 75.5367 100.646C75.4069 100.755 75.2498 100.825 75.0826 100.851C75.0105 100.882 74.9318 100.895 74.8535 100.888C74.7752 100.882 74.6997 100.856 74.6337 100.813C74.5677 100.771 74.5132 100.713 74.475 100.644C74.4368 100.575 74.4162 100.498 74.4148 100.42C74.4382 100.25 74.5176 100.092 74.6404 99.9721C74.7633 99.8522 74.9225 99.7765 75.0931 99.7571C75.4455 99.6887 75.6243 99.9885 75.8188 100.236Z" fill="#2C2C2C"/>
<path d="M64.2869 95.9292C64.6182 96.0817 64.9916 96.2395 65.0862 96.6128C65.1599 96.8757 64.8496 97.0966 64.634 97.0808C64.4516 97.0579 64.2817 96.9762 64.1498 96.8481C64.0179 96.7201 63.9313 96.5526 63.9031 96.3709C63.8768 96.1658 64.0293 95.9765 64.2869 95.9292Z" fill="#2C2C2C"/>
<path d="M63.0617 94.9404C62.8982 94.9199 62.7461 94.8458 62.6291 94.7297C62.5121 94.6137 62.4368 94.4622 62.4149 94.2989C62.407 94.2542 62.4092 94.2084 62.4214 94.1647C62.4335 94.121 62.4552 94.0805 62.4849 94.0463C62.5146 94.012 62.5516 93.9848 62.5932 93.9667C62.6347 93.9485 62.6798 93.9399 62.7251 93.9413C62.8903 93.966 63.0459 94.0347 63.1754 94.1401C63.3049 94.2456 63.4037 94.384 63.4613 94.5408C63.5507 94.7722 63.2668 94.8616 63.0617 94.9404Z" fill="#2C2C2C"/>
</svg>
