<svg id="Capa_1" data-name="Capa 1" xmlns="http://www.w3.org/2000/svg" xmlns:xlink="http://www.w3.org/1999/xlink" viewBox="0 0 429 263"><defs><style>.cls-1{fill:none;}.cls-2{clip-path:url(#clip-path);}.cls-3{fill:#191919;}.cls-4{fill:#2c2c2c;}.cls-5{fill:#fff;stroke:#fff;stroke-miterlimit:10;}</style><clipPath id="clip-path"><rect class="cls-1" x="15.34" y="13.4" width="401" height="232"/></clipPath></defs><g class="cls-2"><path class="cls-3" d="M416.37,149.84c.07,1.85-.32,2.61-2.37,2.84q-51.6,5.88-103.21,11.94-44.58,5.19-89.1,10.42-49.06,5.69-98.16,11.33c-15,1.75-30.1,3.6-45.16,5.31-1.92.22-2.29,1-2.28,2.71.07,16,0,32,0,48v3a3.61,3.61,0,0,1-2.27-1.54L27.85,198a4.69,4.69,0,0,1-1.5-3.53Q25,130.73,23.56,67.05c0-2.08.55-2.71,2.54-2.93C47,61.75,68,59.28,88.85,56.84l85.09-9.9c18.08-2.11,36.15-4.13,54.22-6.25q35.64-4.12,71.28-8.33,47.31-5.52,94.62-11c5.53-.64,11.07-1.22,16.57-2,2-.27,2.78.09,2.82,2.35q1.11,53.67,2.38,107.4C416,136,416.1,143,416.37,149.84Z"/><path class="cls-4" d="M408.12,144c.06,1.84-.32,2.61-2.38,2.84q-51.6,5.87-103.2,11.93-44.6,5.19-89.1,10.42-49.06,5.7-98.16,11.33c-15,1.75-30.1,3.61-45.16,5.32-1.91.21-2.29,1-2.28,2.7.06,16,0,32,0,48v3A3.61,3.61,0,0,1,65.57,238Q42.62,215,19.63,192a4.77,4.77,0,0,1-1.12-1.61,4.7,4.7,0,0,1-.38-1.92q-1.32-63.69-2.79-127.37c-.05-2.08.55-2.71,2.54-2.93,20.93-2.37,41.85-4.84,62.75-7.28L165.72,41c18.07-2.11,36.16-4.13,54.23-6.25q35.64-4.12,71.27-8.33l94.63-11c5.52-.64,11.06-1.22,16.56-2,2-.27,2.78.09,2.83,2.35q1.1,53.67,2.37,107.4C407.77,130.15,407.86,137.05,408.12,144Z"/><path class="cls-5" d="M38.05,91.29l17.41-2c8.16-1,14.25-.34,18.86,2.33a15.47,15.47,0,0,1,5.34,4.93,15.2,15.2,0,0,1,2.47,6.82,19.46,19.46,0,0,1-5.78,16c-4.3,4.36-10.63,7-19.12,8l-8.25,1L47.5,149.72,34,151.28Zm19.46,25.37c4.59-.53,7.2-1.65,9-3.58A8.21,8.21,0,0,0,68.36,110a8.13,8.13,0,0,0,.34-3.63,6.18,6.18,0,0,0-1-2.91,6,6,0,0,0-2.3-2c-2.1-1.08-5.05-1.23-8.78-.83l-5.78.67-1.12,16.32Z"/><path class="cls-5" d="M107.42,83.24l13.16-1.52L141,138.87,127,140.48l-4-12-23.86,2.76-5.78,13.16L79.16,146ZM103.8,120.4l15.79-1.86-2.34-6.88c-1.43-4.19-2.79-8.55-4.06-12.84H113c-1.79,4.55-3.89,9.4-5.94,14.07Z"/><path class="cls-5" d="M150.89,78.21l13.5-1.56-3.26,48.5,26.32-3.05-.82,11.56-39.82,4.61Z"/><path class="cls-5" d="M253.44,93a34.3,34.3,0,0,1-6.11,23.8,32.54,32.54,0,0,1-23.24,13.37c-16,1.85-30.31-6.94-32.26-23.81a34.33,34.33,0,0,1,6.11-23.79,32.54,32.54,0,0,1,23.24-13.37C237.14,67.35,251.5,76.12,253.44,93Zm-17.33,17.78a23,23,0,0,0,3.83-15.24c-1.06-9.17-7.95-15.85-18-14.69a17.42,17.42,0,0,0-12.83,7.74,22.91,22.91,0,0,0-3.83,15.23c1.06,9.17,7.94,15.85,18,14.69a17.45,17.45,0,0,0,12.86-7.73Z"/><path class="cls-5" d="M264.41,65.09l12.31-1.42,16.11,23.21,19.46-27.33L325.71,58l-4.08,60-13.5,1.56,1.65-24c.35-5.22.76-10.61,1.22-15.59h-.18q-4.74,7-9.74,13.95l-9.41,13.21-7.35-10.74c-2.68-3.88-5.7-8.38-8.32-12.43h-.17c-.2,5-.47,10-.82,15.22l-1.65,24.43-13,1.49Z"/><path class="cls-5" d="M355.68,54.54,368.84,53l20.38,57.15-13.93,1.61-4.05-12-23.86,2.76-5.78,13.16-14.19,1.65ZM352.06,91.7l15.79-1.84L365.51,83c-1.43-4.19-2.79-8.55-4.07-12.84h-.17c-1.79,4.56-3.9,9.41-5.94,14.08Z"/></g></svg>