<svg width="441" height="166" viewBox="0 0 441 166" fill="none" xmlns="http://www.w3.org/2000/svg">
<rect x="439.416" y="10.6433" width="154.292" height="416.519" rx="7.61081" transform="rotate(90 439.416 10.6433)" fill="#FFFFFF" stroke="#F1D1E5" stroke-width="1.38378"/>
<rect x="427.654" y="0.956784" width="154.292" height="426.205" rx="7.61081" transform="rotate(90 427.654 0.956784)" fill="#FFFFFF" stroke="#F1D1E5" stroke-width="1.38378"/>
<path d="M172.76 88.9893V78.9254H174.278V87.6821H178.838V88.9893H172.76ZM183.706 89.1416C182.962 89.1416 182.322 88.9827 181.784 88.6649C181.25 88.3439 180.838 87.8934 180.546 87.3136C180.258 86.7305 180.114 86.0474 180.114 85.2644C180.114 84.4913 180.258 83.8099 180.546 83.2202C180.838 82.6305 181.244 82.1703 181.765 81.8394C182.289 81.5085 182.901 81.3431 183.603 81.3431C184.028 81.3431 184.441 81.4135 184.841 81.5544C185.241 81.6952 185.599 81.9164 185.917 82.2178C186.235 82.5192 186.485 82.9106 186.669 83.3922C186.852 83.8705 186.944 84.452 186.944 85.1367V85.6576H180.944V84.5568H185.504C185.504 84.1703 185.426 83.8279 185.268 83.5298C185.111 83.2284 184.89 82.9909 184.605 82.8173C184.323 82.6436 183.992 82.5568 183.612 82.5568C183.2 82.5568 182.839 82.6584 182.531 82.8615C182.227 83.0613 181.991 83.3234 181.824 83.6477C181.66 83.9688 181.578 84.3177 181.578 84.6944V85.5544C181.578 86.0589 181.666 86.488 181.843 86.8418C182.023 87.1956 182.274 87.4659 182.595 87.6526C182.916 87.8361 183.291 87.9278 183.72 87.9278C183.999 87.9278 184.253 87.8885 184.482 87.8099C184.711 87.728 184.91 87.6068 185.077 87.4463C185.244 87.2857 185.372 87.0875 185.46 86.8517L186.851 87.1023C186.739 87.5118 186.539 87.8705 186.251 88.1784C185.966 88.4831 185.607 88.7206 185.175 88.891C184.746 89.0581 184.256 89.1416 183.706 89.1416ZM190.771 89.1563C190.293 89.1563 189.86 89.0679 189.474 88.891C189.087 88.7108 188.781 88.4504 188.555 88.1097C188.332 87.7689 188.22 87.3513 188.22 86.8566C188.22 86.4307 188.302 86.0802 188.466 85.805C188.63 85.5298 188.851 85.3119 189.13 85.1514C189.408 84.9909 189.719 84.8697 190.063 84.7878C190.407 84.7059 190.758 84.6436 191.115 84.6011C191.567 84.5486 191.934 84.506 192.216 84.4733C192.497 84.4373 192.702 84.3799 192.83 84.3013C192.958 84.2227 193.021 84.0949 193.021 83.918V83.8836C193.021 83.4544 192.9 83.1219 192.658 82.8861C192.419 82.6502 192.062 82.5323 191.587 82.5323C191.092 82.5323 190.702 82.642 190.417 82.8615C190.135 83.0777 189.94 83.3185 189.832 83.5839L188.451 83.2694C188.615 82.8107 188.854 82.4405 189.169 82.1588C189.487 81.8738 189.852 81.6674 190.265 81.5396C190.677 81.4086 191.112 81.3431 191.567 81.3431C191.868 81.3431 192.188 81.3791 192.525 81.4512C192.866 81.52 193.184 81.6477 193.478 81.8345C193.777 82.0212 194.021 82.2882 194.211 82.6354C194.401 82.9794 194.496 83.4266 194.496 83.977V88.9893H193.061V87.9573H193.002C192.907 88.1473 192.764 88.3341 192.574 88.5175C192.384 88.701 192.14 88.8533 191.842 88.9745C191.544 89.0957 191.187 89.1563 190.771 89.1563ZM191.09 87.977C191.496 87.977 191.844 87.8967 192.132 87.7362C192.424 87.5757 192.645 87.366 192.795 87.1072C192.949 86.8451 193.026 86.565 193.026 86.2669V85.2939C192.974 85.3463 192.872 85.3955 192.722 85.4413C192.574 85.4839 192.406 85.5216 192.216 85.5544C192.026 85.5839 191.84 85.6117 191.66 85.6379C191.48 85.6608 191.329 85.6805 191.208 85.6969C190.923 85.7329 190.663 85.7935 190.427 85.8787C190.194 85.9639 190.008 86.0867 189.867 86.2472C189.729 86.4045 189.66 86.6142 189.66 86.8762C189.66 87.2399 189.795 87.5151 190.063 87.7018C190.332 87.8852 190.674 87.977 191.09 87.977ZM196.453 88.9893V81.4413H197.873V82.6404H197.951C198.089 82.2341 198.331 81.9147 198.679 81.6821C199.029 81.4463 199.426 81.3283 199.868 81.3283C199.96 81.3283 200.068 81.3316 200.192 81.3382C200.32 81.3447 200.42 81.3529 200.492 81.3627V82.7681C200.433 82.7517 200.328 82.7337 200.177 82.7141C200.027 82.6911 199.876 82.6797 199.725 82.6797C199.378 82.6797 199.069 82.7534 198.797 82.9008C198.528 83.0449 198.315 83.2464 198.158 83.5052C198.001 83.7608 197.922 84.0523 197.922 84.3799V88.9893H196.453ZM203.233 84.5077V88.9893H201.763V81.4413H203.174V82.6698H203.267C203.441 82.2702 203.713 81.9491 204.083 81.7067C204.456 81.4643 204.926 81.3431 205.493 81.3431C206.008 81.3431 206.458 81.4512 206.845 81.6674C207.231 81.8803 207.531 82.1981 207.744 82.6207C207.957 83.0433 208.063 83.5658 208.063 84.1883V88.9893H206.594V84.3652C206.594 83.8181 206.451 83.3906 206.166 83.0826C205.881 82.7714 205.49 82.6158 204.992 82.6158C204.651 82.6158 204.348 82.6895 204.083 82.8369C203.821 82.9843 203.613 83.2006 203.459 83.4856C203.308 83.7673 203.233 84.108 203.233 84.5077ZM213.696 88.9893V81.4413H215.106V82.6698H215.2C215.357 82.2538 215.614 81.9295 215.971 81.6969C216.328 81.461 216.756 81.3431 217.254 81.3431C217.758 81.3431 218.181 81.461 218.521 81.6969C218.865 81.9327 219.119 82.2571 219.283 82.6698H219.362C219.542 82.2669 219.829 81.9459 220.222 81.7067C220.615 81.4643 221.083 81.3431 221.627 81.3431C222.312 81.3431 222.87 81.5576 223.303 81.9868C223.738 82.416 223.956 83.063 223.956 83.9278V88.9893H222.487V84.0654C222.487 83.5544 222.348 83.1842 222.069 82.9549C221.791 82.7255 221.458 82.6109 221.072 82.6109C220.594 82.6109 220.222 82.7583 219.956 83.0531C219.691 83.3447 219.558 83.7198 219.558 84.1784V88.9893H218.094V83.9721C218.094 83.5626 217.966 83.2333 217.711 82.9843C217.455 82.7354 217.123 82.6109 216.713 82.6109C216.435 82.6109 216.177 82.6846 215.942 82.832C215.709 82.9762 215.521 83.1776 215.376 83.4364C215.236 83.6952 215.165 83.995 215.165 84.3357V88.9893H213.696ZM229.105 89.1416C228.397 89.1416 227.78 88.9794 227.252 88.6551C226.725 88.3308 226.315 87.8771 226.024 87.2939C225.732 86.7108 225.587 86.0294 225.587 85.2497C225.587 84.4667 225.732 83.7821 226.024 83.1956C226.315 82.6092 226.725 82.1539 227.252 81.8296C227.78 81.5052 228.397 81.3431 229.105 81.3431C229.813 81.3431 230.43 81.5052 230.958 81.8296C231.485 82.1539 231.894 82.6092 232.186 83.1956C232.478 83.7821 232.623 84.4667 232.623 85.2497C232.623 86.0294 232.478 86.7108 232.186 87.2939C231.894 87.8771 231.485 88.3308 230.958 88.6551C230.43 88.9794 229.813 89.1416 229.105 89.1416ZM229.11 87.9082C229.569 87.9082 229.949 87.787 230.25 87.5445C230.551 87.3021 230.774 86.9794 230.918 86.5765C231.066 86.1735 231.139 85.7296 231.139 85.2448C231.139 84.7632 231.066 84.321 230.918 83.918C230.774 83.5118 230.551 83.1858 230.25 82.9401C229.949 82.6944 229.569 82.5716 229.11 82.5716C228.648 82.5716 228.265 82.6944 227.96 82.9401C227.659 83.1858 227.434 83.5118 227.287 83.918C227.143 84.321 227.071 84.7632 227.071 85.2448C227.071 85.7296 227.143 86.1735 227.287 86.5765C227.434 86.9794 227.659 87.3021 227.96 87.5445C228.265 87.787 228.648 87.9082 229.11 87.9082ZM234.263 88.9893V81.4413H235.684V82.6404H235.762C235.9 82.2341 236.142 81.9147 236.489 81.6821C236.84 81.4463 237.236 81.3283 237.679 81.3283C237.77 81.3283 237.879 81.3316 238.003 81.3382C238.131 81.3447 238.231 81.3529 238.303 81.3627V82.7681C238.244 82.7517 238.139 82.7337 237.988 82.7141C237.838 82.6911 237.687 82.6797 237.536 82.6797C237.189 82.6797 236.879 82.7534 236.607 82.9008C236.339 83.0449 236.126 83.2464 235.969 83.5052C235.811 83.7608 235.733 84.0523 235.733 84.3799V88.9893H234.263ZM242.557 89.1416C241.813 89.1416 241.173 88.9827 240.636 88.6649C240.102 88.3439 239.689 87.8934 239.397 87.3136C239.109 86.7305 238.965 86.0474 238.965 85.2644C238.965 84.4913 239.109 83.8099 239.397 83.2202C239.689 82.6305 240.095 82.1703 240.616 81.8394C241.14 81.5085 241.753 81.3431 242.454 81.3431C242.88 81.3431 243.293 81.4135 243.692 81.5544C244.092 81.6952 244.451 81.9164 244.768 82.2178C245.086 82.5192 245.337 82.9106 245.52 83.3922C245.704 83.8705 245.795 84.452 245.795 85.1367V85.6576H239.795V84.5568H244.356C244.356 84.1703 244.277 83.8279 244.12 83.5298C243.962 83.2284 243.741 82.9909 243.456 82.8173C243.175 82.6436 242.844 82.5568 242.464 82.5568C242.051 82.5568 241.691 82.6584 241.383 82.8615C241.078 83.0613 240.842 83.3234 240.675 83.6477C240.511 83.9688 240.429 84.3177 240.429 84.6944V85.5544C240.429 86.0589 240.518 86.488 240.695 86.8418C240.875 87.1956 241.125 87.4659 241.446 87.6526C241.768 87.8361 242.143 87.9278 242.572 87.9278C242.85 87.9278 243.104 87.8885 243.333 87.8099C243.563 87.728 243.761 87.6068 243.928 87.4463C244.095 87.2857 244.223 87.0875 244.311 86.8517L245.702 87.1023C245.591 87.5118 245.391 87.8705 245.103 88.1784C244.818 88.4831 244.459 88.7206 244.026 88.891C243.597 89.0581 243.107 89.1416 242.557 89.1416ZM253.284 89.1563C252.806 89.1563 252.374 89.0679 251.987 88.891C251.6 88.7108 251.294 88.4504 251.068 88.1097C250.845 87.7689 250.734 87.3513 250.734 86.8566C250.734 86.4307 250.816 86.0802 250.98 85.805C251.143 85.5298 251.365 85.3119 251.643 85.1514C251.922 84.9909 252.233 84.8697 252.577 84.7878C252.921 84.7059 253.271 84.6436 253.628 84.6011C254.08 84.5486 254.447 84.506 254.729 84.4733C255.011 84.4373 255.216 84.3799 255.343 84.3013C255.471 84.2227 255.535 84.0949 255.535 83.918V83.8836C255.535 83.4544 255.414 83.1219 255.171 82.8861C254.932 82.6502 254.575 82.5323 254.1 82.5323C253.605 82.5323 253.216 82.642 252.931 82.8615C252.649 83.0777 252.454 83.3185 252.346 83.5839L250.965 83.2694C251.129 82.8107 251.368 82.4405 251.682 82.1588C252 81.8738 252.365 81.6674 252.778 81.5396C253.191 81.4086 253.625 81.3431 254.08 81.3431C254.382 81.3431 254.701 81.3791 255.039 81.4512C255.379 81.52 255.697 81.6477 255.992 81.8345C256.29 82.0212 256.534 82.2882 256.724 82.6354C256.914 82.9794 257.009 83.4266 257.009 83.977V88.9893H255.574V87.9573H255.515C255.42 88.1473 255.278 88.3341 255.088 88.5175C254.898 88.701 254.654 88.8533 254.356 88.9745C254.057 89.0957 253.7 89.1563 253.284 89.1563ZM253.604 87.977C254.01 87.977 254.357 87.8967 254.646 87.7362C254.937 87.5757 255.158 87.366 255.309 87.1072C255.463 86.8451 255.54 86.565 255.54 86.2669V85.2939C255.487 85.3463 255.386 85.3955 255.235 85.4413C255.088 85.4839 254.919 85.5216 254.729 85.5544C254.539 85.5839 254.354 85.6117 254.174 85.6379C253.994 85.6608 253.843 85.6805 253.722 85.6969C253.437 85.7329 253.176 85.7935 252.94 85.8787C252.708 85.9639 252.521 86.0867 252.38 86.2472C252.243 86.4045 252.174 86.6142 252.174 86.8762C252.174 87.2399 252.308 87.5151 252.577 87.7018C252.845 87.8852 253.188 87.977 253.604 87.977ZM259.084 88.9893V78.9254H260.553V82.6649H260.642C260.727 82.5077 260.85 82.3259 261.01 82.1195C261.171 81.9131 261.394 81.7329 261.679 81.5789C261.964 81.4217 262.34 81.3431 262.809 81.3431C263.418 81.3431 263.962 81.497 264.44 81.805C264.919 82.1129 265.294 82.5568 265.566 83.1367C265.841 83.7165 265.978 84.4143 265.978 85.23C265.978 86.0458 265.842 86.7452 265.571 87.3283C265.299 87.9082 264.925 88.3554 264.45 88.6698C263.975 88.9811 263.433 89.1367 262.824 89.1367C262.365 89.1367 261.99 89.0597 261.698 88.9057C261.41 88.7517 261.184 88.5716 261.02 88.3652C260.856 88.1588 260.73 87.9753 260.642 87.8148H260.519V88.9893H259.084ZM260.524 85.2153C260.524 85.746 260.601 86.2112 260.755 86.6109C260.909 87.0106 261.132 87.3234 261.423 87.5495C261.715 87.7722 262.072 87.8836 262.494 87.8836C262.933 87.8836 263.3 87.7673 263.595 87.5347C263.89 87.2988 264.113 86.9794 264.263 86.5765C264.417 86.1735 264.494 85.7198 264.494 85.2153C264.494 84.7173 264.419 84.2702 264.268 83.8738C264.121 83.4774 263.898 83.1645 263.6 82.9352C263.305 82.7059 262.937 82.5912 262.494 82.5912C262.069 82.5912 261.708 82.701 261.413 82.9205C261.122 83.14 260.901 83.4463 260.75 83.8394C260.599 84.2325 260.524 84.6911 260.524 85.2153ZM270.808 89.1416C270.1 89.1416 269.483 88.9794 268.955 88.6551C268.428 88.3308 268.018 87.8771 267.727 87.2939C267.435 86.7108 267.289 86.0294 267.289 85.2497C267.289 84.4667 267.435 83.7821 267.727 83.1956C268.018 82.6092 268.428 82.1539 268.955 81.8296C269.483 81.5052 270.1 81.3431 270.808 81.3431C271.515 81.3431 272.133 81.5052 272.66 81.8296C273.188 82.1539 273.597 82.6092 273.889 83.1956C274.18 83.7821 274.326 84.4667 274.326 85.2497C274.326 86.0294 274.18 86.7108 273.889 87.2939C273.597 87.8771 273.188 88.3308 272.66 88.6551C272.133 88.9794 271.515 89.1416 270.808 89.1416ZM270.813 87.9082C271.271 87.9082 271.651 87.787 271.953 87.5445C272.254 87.3021 272.477 86.9794 272.621 86.5765C272.768 86.1735 272.842 85.7296 272.842 85.2448C272.842 84.7632 272.768 84.321 272.621 83.918C272.477 83.5118 272.254 83.1858 271.953 82.9401C271.651 82.6944 271.271 82.5716 270.813 82.5716C270.351 82.5716 269.967 82.6944 269.663 82.9401C269.361 83.1858 269.137 83.5118 268.989 83.918C268.845 84.321 268.773 84.7632 268.773 85.2448C268.773 85.7296 268.845 86.1735 268.989 86.5765C269.137 86.9794 269.361 87.3021 269.663 87.5445C269.967 87.787 270.351 87.9082 270.813 87.9082ZM280.747 85.859V81.4413H282.222V88.9893H280.777V87.6821H280.698C280.525 88.0851 280.246 88.4209 279.863 88.6895C279.483 88.9549 279.01 89.0875 278.443 89.0875C277.958 89.0875 277.529 88.9811 277.155 88.7681C276.785 88.5519 276.494 88.2325 276.281 87.8099C276.071 87.3873 275.966 86.8648 275.966 86.2423V81.4413H277.435V86.0654C277.435 86.5798 277.578 86.9893 277.863 87.2939C278.148 87.5986 278.518 87.7509 278.974 87.7509C279.249 87.7509 279.522 87.6821 279.794 87.5445C280.069 87.4069 280.297 87.1989 280.477 86.9205C280.661 86.642 280.751 86.2882 280.747 85.859ZM287.719 81.4413V82.6207H283.596V81.4413H287.719ZM284.702 79.633H286.171V86.773C286.171 87.0581 286.214 87.2726 286.299 87.4168C286.384 87.5576 286.494 87.6543 286.628 87.7067C286.766 87.7558 286.915 87.7804 287.075 87.7804C287.193 87.7804 287.297 87.7722 287.385 87.7558C287.474 87.7395 287.542 87.7264 287.591 87.7165L287.857 88.9303C287.772 88.963 287.65 88.9958 287.493 89.0286C287.336 89.0646 287.139 89.0843 286.904 89.0875C286.517 89.0941 286.157 89.0253 285.822 88.8811C285.488 88.737 285.218 88.5142 285.012 88.2128C284.805 87.9115 284.702 87.5331 284.702 87.0777V79.633ZM296.53 81.4413V82.6207H292.407V81.4413H296.53ZM293.513 79.633H294.982V86.773C294.982 87.0581 295.025 87.2726 295.11 87.4168C295.195 87.5576 295.305 87.6543 295.439 87.7067C295.577 87.7558 295.726 87.7804 295.886 87.7804C296.004 87.7804 296.107 87.7722 296.196 87.7558C296.284 87.7395 296.353 87.7264 296.402 87.7165L296.668 88.9303C296.582 88.963 296.461 88.9958 296.304 89.0286C296.147 89.0646 295.95 89.0843 295.714 89.0875C295.328 89.0941 294.967 89.0253 294.633 88.8811C294.299 88.737 294.029 88.5142 293.822 88.2128C293.616 87.9115 293.513 87.5331 293.513 87.0777V79.633ZM299.787 84.5077V88.9893H298.318V78.9254H299.767V82.6698H299.861C300.037 82.2636 300.308 81.9409 300.671 81.7018C301.035 81.4626 301.51 81.3431 302.096 81.3431C302.614 81.3431 303.066 81.4495 303.453 81.6625C303.842 81.8754 304.144 82.1932 304.357 82.6158C304.573 83.0351 304.681 83.5593 304.681 84.1883V88.9893H303.212V84.3652C303.212 83.8115 303.069 83.3824 302.784 83.0777C302.499 82.7698 302.103 82.6158 301.595 82.6158C301.248 82.6158 300.937 82.6895 300.661 82.8369C300.39 82.9843 300.175 83.2006 300.018 83.4856C299.864 83.7673 299.787 84.108 299.787 84.5077ZM309.895 89.1416C309.151 89.1416 308.511 88.9827 307.974 88.6649C307.44 88.3439 307.027 87.8934 306.735 87.3136C306.447 86.7305 306.303 86.0474 306.303 85.2644C306.303 84.4913 306.447 83.8099 306.735 83.2202C307.027 82.6305 307.433 82.1703 307.954 81.8394C308.478 81.5085 309.091 81.3431 309.792 81.3431C310.218 81.3431 310.63 81.4135 311.03 81.5544C311.43 81.6952 311.788 81.9164 312.106 82.2178C312.424 82.5192 312.675 82.9106 312.858 83.3922C313.042 83.8705 313.133 84.452 313.133 85.1367V85.6576H307.133V84.5568H311.693C311.693 84.1703 311.615 83.8279 311.458 83.5298C311.3 83.2284 311.079 82.9909 310.794 82.8173C310.512 82.6436 310.182 82.5568 309.802 82.5568C309.389 82.5568 309.028 82.6584 308.72 82.8615C308.416 83.0613 308.18 83.3234 308.013 83.6477C307.849 83.9688 307.767 84.3177 307.767 84.6944V85.5544C307.767 86.0589 307.856 86.488 308.032 86.8418C308.213 87.1956 308.463 87.4659 308.784 87.6526C309.105 87.8361 309.48 87.9278 309.91 87.9278C310.188 87.9278 310.442 87.8885 310.671 87.8099C310.901 87.728 311.099 87.6068 311.266 87.4463C311.433 87.2857 311.561 87.0875 311.649 86.8517L313.04 87.1023C312.928 87.5118 312.729 87.8705 312.44 88.1784C312.155 88.4831 311.797 88.7206 311.364 88.891C310.935 89.0581 310.445 89.1416 309.895 89.1416ZM172.642 108.82V98.4413H174.077V99.6649H174.2C174.285 99.5077 174.408 99.3259 174.568 99.1195C174.729 98.9131 174.951 98.7329 175.236 98.5789C175.521 98.4217 175.898 98.3431 176.367 98.3431C176.976 98.3431 177.52 98.497 177.998 98.805C178.476 99.1129 178.851 99.5568 179.123 100.137C179.399 100.717 179.536 101.414 179.536 102.23C179.536 103.046 179.4 103.745 179.128 104.328C178.856 104.908 178.483 105.355 178.008 105.67C177.533 105.981 176.991 106.137 176.381 106.137C175.923 106.137 175.548 106.06 175.256 105.906C174.968 105.752 174.742 105.572 174.578 105.365C174.414 105.159 174.288 104.975 174.2 104.815H174.111V108.82H172.642ZM174.082 102.215C174.082 102.746 174.159 103.211 174.313 103.611C174.467 104.011 174.689 104.323 174.981 104.549C175.272 104.772 175.63 104.884 176.052 104.884C176.491 104.884 176.858 104.767 177.153 104.535C177.448 104.299 177.67 103.979 177.821 103.576C177.975 103.174 178.052 102.72 178.052 102.215C178.052 101.717 177.977 101.27 177.826 100.874C177.679 100.477 177.456 100.165 177.158 99.9352C176.863 99.7059 176.494 99.5912 176.052 99.5912C175.626 99.5912 175.266 99.701 174.971 99.9205C174.68 100.14 174.458 100.446 174.308 100.839C174.157 101.233 174.082 101.691 174.082 102.215ZM181.182 105.989V98.4413H182.652V105.989H181.182ZM181.924 97.2767C181.669 97.2767 181.449 97.1916 181.266 97.0212C181.086 96.8476 180.996 96.6412 180.996 96.402C180.996 96.1596 181.086 95.9532 181.266 95.7829C181.449 95.6092 181.669 95.5224 181.924 95.5224C182.18 95.5224 182.398 95.6092 182.578 95.7829C182.761 95.9532 182.853 96.1596 182.853 96.402C182.853 96.6412 182.761 96.8476 182.578 97.0212C182.398 97.1916 182.18 97.2767 181.924 97.2767ZM187.793 108.977C187.193 108.977 186.677 108.898 186.245 108.741C185.816 108.584 185.465 108.376 185.193 108.117C184.922 107.858 184.718 107.575 184.584 107.267L185.847 106.746C185.935 106.89 186.053 107.042 186.201 107.203C186.351 107.367 186.555 107.506 186.81 107.621C187.069 107.735 187.401 107.793 187.808 107.793C188.365 107.793 188.825 107.657 189.189 107.385C189.552 107.116 189.734 106.687 189.734 106.097V104.613H189.641C189.552 104.774 189.424 104.952 189.257 105.149C189.094 105.346 188.867 105.516 188.579 105.66C188.291 105.804 187.916 105.876 187.454 105.876C186.858 105.876 186.32 105.737 185.842 105.459C185.367 105.177 184.99 104.762 184.712 104.215C184.437 103.665 184.299 102.988 184.299 102.186C184.299 101.383 184.435 100.695 184.707 100.122C184.982 99.5486 185.359 99.1097 185.837 98.805C186.315 98.497 186.858 98.3431 187.464 98.3431C187.932 98.3431 188.311 98.4217 188.599 98.5789C188.887 98.7329 189.112 98.9131 189.272 99.1195C189.436 99.3259 189.562 99.5077 189.65 99.6649H189.759V98.4413H191.198V106.156C191.198 106.805 191.048 107.337 190.746 107.753C190.445 108.169 190.037 108.477 189.523 108.677C189.012 108.877 188.435 108.977 187.793 108.977ZM187.778 104.658C188.201 104.658 188.558 104.559 188.849 104.363C189.144 104.163 189.367 103.878 189.518 103.508C189.672 103.134 189.749 102.687 189.749 102.166C189.749 101.658 189.673 101.211 189.523 100.825C189.372 100.438 189.151 100.137 188.859 99.9205C188.568 99.701 188.207 99.5912 187.778 99.5912C187.336 99.5912 186.967 99.7059 186.673 99.9352C186.378 100.161 186.155 100.469 186.004 100.859C185.857 101.249 185.783 101.685 185.783 102.166C185.783 102.661 185.858 103.095 186.009 103.468C186.16 103.842 186.383 104.133 186.677 104.343C186.976 104.553 187.342 104.658 187.778 104.658ZM196.422 106.142C195.678 106.142 195.038 105.983 194.501 105.665C193.967 105.344 193.554 104.893 193.262 104.314C192.974 103.73 192.83 103.047 192.83 102.264C192.83 101.491 192.974 100.81 193.262 100.22C193.554 99.6305 193.96 99.1703 194.481 98.8394C195.005 98.5085 195.618 98.3431 196.319 98.3431C196.745 98.3431 197.157 98.4135 197.557 98.5544C197.957 98.6952 198.315 98.9164 198.633 99.2178C198.951 99.5192 199.202 99.9106 199.385 100.392C199.569 100.871 199.66 101.452 199.66 102.137V102.658H193.66V101.557H198.22C198.22 101.17 198.142 100.828 197.985 100.53C197.827 100.228 197.606 99.9909 197.321 99.8173C197.039 99.6436 196.709 99.5568 196.329 99.5568C195.916 99.5568 195.555 99.6584 195.247 99.8615C194.943 100.061 194.707 100.323 194.54 100.648C194.376 100.969 194.294 101.318 194.294 101.694V102.554C194.294 103.059 194.383 103.488 194.56 103.842C194.74 104.196 194.99 104.466 195.311 104.653C195.632 104.836 196.008 104.928 196.437 104.928C196.715 104.928 196.969 104.889 197.198 104.81C197.428 104.728 197.626 104.607 197.793 104.446C197.96 104.286 198.088 104.088 198.176 103.852L199.567 104.102C199.456 104.512 199.256 104.871 198.967 105.178C198.682 105.483 198.324 105.721 197.891 105.891C197.462 106.058 196.972 106.142 196.422 106.142ZM204.47 106.142C203.762 106.142 203.145 105.979 202.617 105.655C202.09 105.331 201.68 104.877 201.389 104.294C201.097 103.711 200.951 103.029 200.951 102.25C200.951 101.467 201.097 100.782 201.389 100.196C201.68 99.6092 202.09 99.1539 202.617 98.8296C203.145 98.5052 203.762 98.3431 204.47 98.3431C205.177 98.3431 205.795 98.5052 206.322 98.8296C206.85 99.1539 207.259 99.6092 207.551 100.196C207.842 100.782 207.988 101.467 207.988 102.25C207.988 103.029 207.842 103.711 207.551 104.294C207.259 104.877 206.85 105.331 206.322 105.655C205.795 105.979 205.177 106.142 204.47 106.142ZM204.475 104.908C204.933 104.908 205.313 104.787 205.615 104.545C205.916 104.302 206.139 103.979 206.283 103.576C206.431 103.174 206.504 102.73 206.504 102.245C206.504 101.763 206.431 101.321 206.283 100.918C206.139 100.512 205.916 100.186 205.615 99.9401C205.313 99.6944 204.933 99.5716 204.475 99.5716C204.013 99.5716 203.63 99.6944 203.325 99.9401C203.023 100.186 202.799 100.512 202.652 100.918C202.508 101.321 202.435 101.763 202.435 102.245C202.435 102.73 202.508 103.174 202.652 103.576C202.799 103.979 203.023 104.302 203.325 104.545C203.63 104.787 204.013 104.908 204.475 104.908ZM211.098 101.508V105.989H209.628V98.4413H211.039V99.6698H211.132C211.306 99.2702 211.578 98.9491 211.948 98.7067C212.321 98.4643 212.791 98.3431 213.358 98.3431C213.872 98.3431 214.323 98.4512 214.709 98.6674C215.096 98.8803 215.396 99.1981 215.609 99.6207C215.822 100.043 215.928 100.566 215.928 101.188V105.989H214.459V101.365C214.459 100.818 214.316 100.391 214.031 100.083C213.746 99.7714 213.355 99.6158 212.857 99.6158C212.516 99.6158 212.213 99.6895 211.948 99.8369C211.686 99.9843 211.478 100.201 211.324 100.486C211.173 100.767 211.098 101.108 211.098 101.508ZM221.561 105.989V98.4413H222.981V99.6404H223.06C223.197 99.2341 223.44 98.9147 223.787 98.6821C224.137 98.4463 224.534 98.3283 224.976 98.3283C225.068 98.3283 225.176 98.3316 225.3 98.3382C225.428 98.3447 225.528 98.3529 225.6 98.3627V99.7681C225.541 99.7517 225.436 99.7337 225.286 99.7141C225.135 99.6911 224.984 99.6797 224.833 99.6797C224.486 99.6797 224.177 99.7534 223.905 99.9008C223.636 100.045 223.423 100.246 223.266 100.505C223.109 100.761 223.03 101.052 223.03 101.38V105.989H221.561ZM229.854 106.142C229.111 106.142 228.47 105.983 227.933 105.665C227.399 105.344 226.986 104.893 226.695 104.314C226.406 103.73 226.262 103.047 226.262 102.264C226.262 101.491 226.406 100.81 226.695 100.22C226.986 99.6305 227.392 99.1703 227.913 98.8394C228.437 98.5085 229.05 98.3431 229.751 98.3431C230.177 98.3431 230.59 98.4135 230.989 98.5544C231.389 98.6952 231.748 98.9164 232.066 99.2178C232.383 99.5192 232.634 99.9106 232.818 100.392C233.001 100.871 233.093 101.452 233.093 102.137V102.658H227.093V101.557H231.653C231.653 101.17 231.574 100.828 231.417 100.53C231.26 100.228 231.039 99.9909 230.754 99.8173C230.472 99.6436 230.141 99.5568 229.761 99.5568C229.348 99.5568 228.988 99.6584 228.68 99.8615C228.375 100.061 228.139 100.323 227.972 100.648C227.808 100.969 227.727 101.318 227.727 101.694V102.554C227.727 103.059 227.815 103.488 227.992 103.842C228.172 104.196 228.423 104.466 228.744 104.653C229.065 104.836 229.44 104.928 229.869 104.928C230.148 104.928 230.401 104.889 230.631 104.81C230.86 104.728 231.058 104.607 231.225 104.446C231.392 104.286 231.52 104.088 231.609 103.852L232.999 104.102C232.888 104.512 232.688 104.871 232.4 105.178C232.115 105.483 231.756 105.721 231.324 105.891C230.894 106.058 230.405 106.142 229.854 106.142ZM236.192 95.9254V105.989H234.723V95.9254H236.192ZM240.365 106.156C239.887 106.156 239.455 106.068 239.068 105.891C238.682 105.711 238.375 105.45 238.149 105.11C237.926 104.769 237.815 104.351 237.815 103.857C237.815 103.431 237.897 103.08 238.061 102.805C238.225 102.53 238.446 102.312 238.724 102.151C239.003 101.991 239.314 101.87 239.658 101.788C240.002 101.706 240.352 101.644 240.709 101.601C241.161 101.549 241.528 101.506 241.81 101.473C242.092 101.437 242.297 101.38 242.424 101.301C242.552 101.223 242.616 101.095 242.616 100.918V100.884C242.616 100.454 242.495 100.122 242.252 99.8861C242.013 99.6502 241.656 99.5323 241.181 99.5323C240.686 99.5323 240.297 99.642 240.012 99.8615C239.73 100.078 239.535 100.318 239.427 100.584L238.046 100.269C238.21 99.8107 238.449 99.4405 238.763 99.1588C239.081 98.8738 239.447 98.6674 239.859 98.5396C240.272 98.4086 240.706 98.3431 241.161 98.3431C241.463 98.3431 241.782 98.3791 242.12 98.4512C242.46 98.52 242.778 98.6477 243.073 98.8345C243.371 99.0212 243.615 99.2882 243.805 99.6354C243.995 99.9794 244.09 100.427 244.09 100.977V105.989H242.655V104.957H242.596C242.501 105.147 242.359 105.334 242.169 105.518C241.979 105.701 241.735 105.853 241.437 105.975C241.139 106.096 240.781 106.156 240.365 106.156ZM240.685 104.977C241.091 104.977 241.438 104.897 241.727 104.736C242.018 104.576 242.239 104.366 242.39 104.107C242.544 103.845 242.621 103.565 242.621 103.267V102.294C242.569 102.346 242.467 102.395 242.316 102.441C242.169 102.484 242 102.522 241.81 102.554C241.62 102.584 241.435 102.612 241.255 102.638C241.075 102.661 240.924 102.68 240.803 102.697C240.518 102.733 240.257 102.794 240.021 102.879C239.789 102.964 239.602 103.087 239.461 103.247C239.324 103.404 239.255 103.614 239.255 103.876C239.255 104.24 239.389 104.515 239.658 104.702C239.926 104.885 240.269 104.977 240.685 104.977ZM246.706 108.82C246.486 108.82 246.286 108.802 246.106 108.766C245.926 108.733 245.792 108.697 245.703 108.658L246.057 107.454C246.326 107.526 246.565 107.557 246.775 107.547C246.984 107.537 247.169 107.459 247.33 107.311C247.494 107.164 247.638 106.923 247.762 106.589L247.944 106.088L245.182 98.4413H246.755L248.666 104.299H248.745L250.657 98.4413H252.234L249.123 106.997C248.979 107.39 248.796 107.722 248.573 107.994C248.35 108.269 248.085 108.476 247.777 108.613C247.469 108.751 247.112 108.82 246.706 108.82ZM256.611 106.142C255.867 106.142 255.227 105.983 254.69 105.665C254.156 105.344 253.743 104.893 253.451 104.314C253.163 103.73 253.019 103.047 253.019 102.264C253.019 101.491 253.163 100.81 253.451 100.22C253.743 99.6305 254.149 99.1703 254.67 98.8394C255.194 98.5085 255.807 98.3431 256.508 98.3431C256.934 98.3431 257.347 98.4135 257.746 98.5544C258.146 98.6952 258.505 98.9164 258.822 99.2178C259.14 99.5192 259.391 99.9106 259.574 100.392C259.758 100.871 259.849 101.452 259.849 102.137V102.658H253.849V101.557H258.41C258.41 101.17 258.331 100.828 258.174 100.53C258.017 100.228 257.795 99.9909 257.51 99.8173C257.229 99.6436 256.898 99.5568 256.518 99.5568C256.105 99.5568 255.745 99.6584 255.437 99.8615C255.132 100.061 254.896 100.323 254.729 100.648C254.565 100.969 254.483 101.318 254.483 101.694V102.554C254.483 103.059 254.572 103.488 254.749 103.842C254.929 104.196 255.18 104.466 255.501 104.653C255.822 104.836 256.197 104.928 256.626 104.928C256.904 104.928 257.158 104.889 257.388 104.81C257.617 104.728 257.815 104.607 257.982 104.446C258.149 104.286 258.277 104.088 258.365 103.852L259.756 104.102C259.645 104.512 259.445 104.871 259.157 105.178C258.872 105.483 258.513 105.721 258.08 105.891C257.651 106.058 257.161 106.142 256.611 106.142ZM261.48 105.989V98.4413H262.9V99.6404H262.978C263.116 99.2341 263.358 98.9147 263.706 98.6821C264.056 98.4463 264.453 98.3283 264.895 98.3283C264.987 98.3283 265.095 98.3316 265.219 98.3382C265.347 98.3447 265.447 98.3529 265.519 98.3627V99.7681C265.46 99.7517 265.355 99.7337 265.204 99.7141C265.054 99.6911 264.903 99.6797 264.752 99.6797C264.405 99.6797 264.096 99.7534 263.824 99.9008C263.555 100.045 263.342 100.246 263.185 100.505C263.028 100.761 262.949 101.052 262.949 101.38V105.989H261.48ZM272.446 100.284L271.115 100.52C271.059 100.35 270.971 100.187 270.849 100.033C270.732 99.8795 270.571 99.7534 270.368 99.6551C270.165 99.5568 269.911 99.5077 269.606 99.5077C269.19 99.5077 268.843 99.6011 268.564 99.7878C268.286 99.9712 268.147 100.209 268.147 100.5C268.147 100.753 268.24 100.956 268.427 101.11C268.614 101.264 268.915 101.39 269.331 101.488L270.53 101.763C271.225 101.924 271.742 102.171 272.083 102.505C272.424 102.839 272.594 103.273 272.594 103.807C272.594 104.26 272.463 104.662 272.201 105.016C271.942 105.367 271.58 105.642 271.115 105.842C270.653 106.042 270.117 106.142 269.508 106.142C268.663 106.142 267.973 105.961 267.439 105.601C266.905 105.237 266.578 104.721 266.456 104.053L267.876 103.837C267.965 104.207 268.147 104.487 268.422 104.677C268.697 104.864 269.056 104.957 269.498 104.957C269.98 104.957 270.365 104.857 270.653 104.658C270.941 104.454 271.085 104.207 271.085 103.916C271.085 103.68 270.997 103.481 270.82 103.321C270.646 103.16 270.379 103.039 270.019 102.957L268.741 102.677C268.037 102.517 267.516 102.261 267.179 101.911C266.845 101.56 266.677 101.116 266.677 100.579C266.677 100.133 266.802 99.7436 267.051 99.4094C267.3 99.0753 267.644 98.8148 268.083 98.6281C268.522 98.4381 269.025 98.3431 269.591 98.3431C270.407 98.3431 271.049 98.52 271.518 98.8738C271.986 99.2243 272.296 99.6944 272.446 100.284ZM281.395 98.4413V99.6207H277.272V98.4413H281.395ZM278.378 96.633H279.847V103.773C279.847 104.058 279.89 104.273 279.975 104.417C280.06 104.558 280.17 104.654 280.304 104.707C280.442 104.756 280.591 104.78 280.751 104.78C280.869 104.78 280.972 104.772 281.061 104.756C281.149 104.739 281.218 104.726 281.267 104.717L281.532 105.93C281.447 105.963 281.326 105.996 281.169 106.029C281.012 106.065 280.815 106.084 280.579 106.088C280.193 106.094 279.832 106.025 279.498 105.881C279.164 105.737 278.894 105.514 278.687 105.213C278.481 104.911 278.378 104.533 278.378 104.078V96.633ZM284.652 101.508V105.989H283.182V95.9254H284.632V99.6698H284.725C284.902 99.2636 285.173 98.9409 285.536 98.7018C285.9 98.4626 286.375 98.3431 286.961 98.3431C287.479 98.3431 287.931 98.4495 288.318 98.6625C288.707 98.8754 289.009 99.1932 289.222 99.6158C289.438 100.035 289.546 100.559 289.546 101.188V105.989H288.077V101.365C288.077 100.812 287.934 100.382 287.649 100.078C287.364 99.7698 286.968 99.6158 286.46 99.6158C286.113 99.6158 285.802 99.6895 285.526 99.8369C285.254 99.9843 285.04 100.201 284.883 100.486C284.729 100.767 284.652 101.108 284.652 101.508ZM293.703 106.156C293.225 106.156 292.793 106.068 292.406 105.891C292.019 105.711 291.713 105.45 291.487 105.11C291.264 104.769 291.153 104.351 291.153 103.857C291.153 103.431 291.235 103.08 291.399 102.805C291.562 102.53 291.784 102.312 292.062 102.151C292.34 101.991 292.652 101.87 292.996 101.788C293.34 101.706 293.69 101.644 294.047 101.601C294.499 101.549 294.866 101.506 295.148 101.473C295.43 101.437 295.634 101.38 295.762 101.301C295.89 101.223 295.954 101.095 295.954 100.918V100.884C295.954 100.454 295.833 100.122 295.59 99.8861C295.351 99.6502 294.994 99.5323 294.519 99.5323C294.024 99.5323 293.634 99.642 293.349 99.8615C293.068 100.078 292.873 100.318 292.765 100.584L291.384 100.269C291.548 99.8107 291.787 99.4405 292.101 99.1588C292.419 98.8738 292.784 98.6674 293.197 98.5396C293.61 98.4086 294.044 98.3431 294.499 98.3431C294.801 98.3431 295.12 98.3791 295.458 98.4512C295.798 98.52 296.116 98.6477 296.411 98.8345C296.709 99.0212 296.953 99.2882 297.143 99.6354C297.333 99.9794 297.428 100.427 297.428 100.977V105.989H295.993V104.957H295.934C295.839 105.147 295.697 105.334 295.507 105.518C295.317 105.701 295.073 105.853 294.775 105.975C294.476 106.096 294.119 106.156 293.703 106.156ZM294.023 104.977C294.429 104.977 294.776 104.897 295.064 104.736C295.356 104.576 295.577 104.366 295.728 104.107C295.882 103.845 295.959 103.565 295.959 103.267V102.294C295.906 102.346 295.805 102.395 295.654 102.441C295.507 102.484 295.338 102.522 295.148 102.554C294.958 102.584 294.773 102.612 294.593 102.638C294.413 102.661 294.262 102.68 294.141 102.697C293.856 102.733 293.595 102.794 293.359 102.879C293.127 102.964 292.94 103.087 292.799 103.247C292.661 103.404 292.593 103.614 292.593 103.876C292.593 104.24 292.727 104.515 292.996 104.702C293.264 104.885 293.607 104.977 294.023 104.977ZM302.908 98.4413V99.6207H298.786V98.4413H302.908ZM299.891 96.633H301.361V103.773C301.361 104.058 301.403 104.273 301.488 104.417C301.573 104.558 301.683 104.654 301.818 104.707C301.955 104.756 302.104 104.78 302.265 104.78C302.383 104.78 302.486 104.772 302.574 104.756C302.663 104.739 302.732 104.726 302.781 104.717L303.046 105.93C302.961 105.963 302.84 105.996 302.682 106.029C302.525 106.065 302.329 106.084 302.093 106.088C301.706 106.094 301.346 106.025 301.012 105.881C300.677 105.737 300.407 105.514 300.201 105.213C299.994 104.911 299.891 104.533 299.891 104.078V96.633ZM313.852 100.284L312.52 100.52C312.465 100.35 312.376 100.187 312.255 100.033C312.137 99.8795 311.976 99.7534 311.773 99.6551C311.57 99.5568 311.316 99.5077 311.012 99.5077C310.596 99.5077 310.248 99.6011 309.97 99.7878C309.691 99.9712 309.552 100.209 309.552 100.5C309.552 100.753 309.646 100.956 309.832 101.11C310.019 101.264 310.32 101.39 310.736 101.488L311.935 101.763C312.63 101.924 313.148 102.171 313.488 102.505C313.829 102.839 313.999 103.273 313.999 103.807C313.999 104.26 313.868 104.662 313.606 105.016C313.347 105.367 312.985 105.642 312.52 105.842C312.058 106.042 311.523 106.142 310.913 106.142C310.068 106.142 309.379 105.961 308.845 105.601C308.311 105.237 307.983 104.721 307.862 104.053L309.282 103.837C309.37 104.207 309.552 104.487 309.827 104.677C310.103 104.864 310.461 104.957 310.904 104.957C311.385 104.957 311.77 104.857 312.058 104.658C312.347 104.454 312.491 104.207 312.491 103.916C312.491 103.68 312.402 103.481 312.225 103.321C312.052 103.16 311.785 103.039 311.424 102.957L310.147 102.677C309.442 102.517 308.922 102.261 308.584 101.911C308.25 101.56 308.083 101.116 308.083 100.579C308.083 100.133 308.207 99.7436 308.456 99.4094C308.705 99.0753 309.049 98.8148 309.488 98.6281C309.927 98.4381 310.43 98.3431 310.997 98.3431C311.813 98.3431 312.455 98.52 312.923 98.8738C313.392 99.2243 313.701 99.6944 313.852 100.284ZM318.868 106.142C318.124 106.142 317.484 105.983 316.947 105.665C316.413 105.344 316 104.893 315.708 104.314C315.42 103.73 315.276 103.047 315.276 102.264C315.276 101.491 315.42 100.81 315.708 100.22C316 99.6305 316.406 99.1703 316.927 98.8394C317.451 98.5085 318.064 98.3431 318.765 98.3431C319.191 98.3431 319.603 98.4135 320.003 98.5544C320.403 98.6952 320.761 98.9164 321.079 99.2178C321.397 99.5192 321.648 99.9106 321.831 100.392C322.014 100.871 322.106 101.452 322.106 102.137V102.658H316.106V101.557H320.666C320.666 101.17 320.588 100.828 320.431 100.53C320.273 100.228 320.052 99.9909 319.767 99.8173C319.485 99.6436 319.155 99.5568 318.775 99.5568C318.362 99.5568 318.001 99.6584 317.693 99.8615C317.389 100.061 317.153 100.323 316.986 100.648C316.822 100.969 316.74 101.318 316.74 101.694V102.554C316.74 103.059 316.829 103.488 317.005 103.842C317.186 104.196 317.436 104.466 317.757 104.653C318.078 104.836 318.453 104.928 318.883 104.928C319.161 104.928 319.415 104.889 319.644 104.81C319.874 104.728 320.072 104.607 320.239 104.446C320.406 104.286 320.534 104.088 320.622 103.852L322.013 104.102C321.901 104.512 321.702 104.871 321.413 105.178C321.128 105.483 320.77 105.721 320.337 105.891C319.908 106.058 319.418 106.142 318.868 106.142ZM325.206 101.508V105.989H323.736V98.4413H325.147V99.6698H325.24C325.414 99.2702 325.686 98.9491 326.056 98.7067C326.429 98.4643 326.899 98.3431 327.466 98.3431C327.98 98.3431 328.431 98.4512 328.818 98.6674C329.204 98.8803 329.504 99.1981 329.717 99.6207C329.93 100.043 330.036 100.566 330.036 101.188V105.989H328.567V101.365C328.567 100.818 328.424 100.391 328.139 100.083C327.854 99.7714 327.463 99.6158 326.965 99.6158C326.624 99.6158 326.321 99.6895 326.056 99.8369C325.794 99.9843 325.586 100.201 325.432 100.486C325.281 100.767 325.206 101.108 325.206 101.508ZM334.832 106.137C334.223 106.137 333.679 105.981 333.201 105.67C332.726 105.355 332.352 104.908 332.08 104.328C331.812 103.745 331.677 103.046 331.677 102.23C331.677 101.414 331.813 100.717 332.085 100.137C332.361 99.5568 332.737 99.1129 333.216 98.805C333.694 98.497 334.236 98.3431 334.842 98.3431C335.311 98.3431 335.687 98.4217 335.972 98.5789C336.261 98.7329 336.483 98.9131 336.641 99.1195C336.801 99.3259 336.926 99.5077 337.014 99.6649H337.103V95.9254H338.572V105.989H337.137V104.815H337.014C336.926 104.975 336.798 105.159 336.631 105.365C336.467 105.572 336.241 105.752 335.953 105.906C335.664 106.06 335.291 106.137 334.832 106.137ZM335.157 104.884C335.579 104.884 335.936 104.772 336.228 104.549C336.523 104.323 336.745 104.011 336.896 103.611C337.05 103.211 337.127 102.746 337.127 102.215C337.127 101.691 337.052 101.233 336.901 100.839C336.75 100.446 336.529 100.14 336.238 99.9205C335.946 99.701 335.586 99.5912 335.157 99.5912C334.714 99.5912 334.346 99.7059 334.051 99.9352C333.756 100.165 333.533 100.477 333.383 100.874C333.235 101.27 333.161 101.717 333.161 102.215C333.161 102.72 333.237 103.174 333.388 103.576C333.538 103.979 333.761 104.299 334.056 104.535C334.354 104.767 334.721 104.884 335.157 104.884ZM172.642 122.989V115.441H174.052V116.67H174.146C174.303 116.254 174.56 115.929 174.917 115.697C175.274 115.461 175.702 115.343 176.2 115.343C176.704 115.343 177.127 115.461 177.467 115.697C177.811 115.933 178.065 116.257 178.229 116.67H178.308C178.488 116.267 178.775 115.946 179.168 115.707C179.561 115.464 180.029 115.343 180.573 115.343C181.258 115.343 181.816 115.558 182.249 115.987C182.684 116.416 182.902 117.063 182.902 117.928V122.989H181.433V118.065C181.433 117.554 181.294 117.184 181.015 116.955C180.737 116.726 180.404 116.611 180.018 116.611C179.539 116.611 179.168 116.758 178.902 117.053C178.637 117.345 178.504 117.72 178.504 118.178V122.989H177.04V117.972C177.04 117.563 176.912 117.233 176.657 116.984C176.401 116.735 176.069 116.611 175.659 116.611C175.381 116.611 175.123 116.685 174.888 116.832C174.655 116.976 174.467 117.178 174.322 117.436C174.182 117.695 174.111 117.995 174.111 118.336V122.989H172.642ZM188.125 123.142C187.381 123.142 186.741 122.983 186.203 122.665C185.669 122.344 185.256 121.893 184.965 121.314C184.677 120.73 184.532 120.047 184.532 119.264C184.532 118.491 184.677 117.81 184.965 117.22C185.256 116.631 185.663 116.17 186.184 115.839C186.708 115.509 187.32 115.343 188.021 115.343C188.447 115.343 188.86 115.414 189.26 115.554C189.659 115.695 190.018 115.916 190.336 116.218C190.654 116.519 190.904 116.911 191.088 117.392C191.271 117.871 191.363 118.452 191.363 119.137V119.658H185.363V118.557H189.923C189.923 118.17 189.845 117.828 189.687 117.53C189.53 117.228 189.309 116.991 189.024 116.817C188.742 116.644 188.411 116.557 188.031 116.557C187.618 116.557 187.258 116.658 186.95 116.861C186.646 117.061 186.41 117.323 186.243 117.648C186.079 117.969 185.997 118.318 185.997 118.694V119.554C185.997 120.059 186.085 120.488 186.262 120.842C186.442 121.196 186.693 121.466 187.014 121.653C187.335 121.836 187.71 121.928 188.139 121.928C188.418 121.928 188.672 121.889 188.901 121.81C189.13 121.728 189.329 121.607 189.496 121.446C189.663 121.286 189.79 121.088 189.879 120.852L191.27 121.102C191.158 121.512 190.958 121.871 190.67 122.178C190.385 122.483 190.026 122.721 189.594 122.891C189.165 123.058 188.675 123.142 188.125 123.142ZM198.649 117.284L197.318 117.52C197.262 117.35 197.173 117.187 197.052 117.033C196.934 116.88 196.774 116.753 196.571 116.655C196.367 116.557 196.114 116.508 195.809 116.508C195.393 116.508 195.046 116.601 194.767 116.788C194.489 116.971 194.349 117.209 194.349 117.5C194.349 117.753 194.443 117.956 194.63 118.11C194.816 118.264 195.118 118.39 195.534 118.488L196.733 118.763C197.427 118.924 197.945 119.171 198.286 119.505C198.626 119.839 198.797 120.273 198.797 120.807C198.797 121.26 198.666 121.662 198.404 122.016C198.145 122.367 197.783 122.642 197.318 122.842C196.856 123.042 196.32 123.142 195.711 123.142C194.865 123.142 194.176 122.961 193.642 122.601C193.108 122.237 192.78 121.721 192.659 121.053L194.079 120.837C194.168 121.207 194.349 121.487 194.625 121.677C194.9 121.864 195.259 121.957 195.701 121.957C196.182 121.957 196.567 121.857 196.856 121.658C197.144 121.454 197.288 121.207 197.288 120.916C197.288 120.68 197.2 120.481 197.023 120.321C196.849 120.16 196.582 120.039 196.222 119.957L194.944 119.677C194.24 119.517 193.719 119.261 193.381 118.911C193.047 118.56 192.88 118.116 192.88 117.579C192.88 117.133 193.005 116.744 193.254 116.409C193.503 116.075 193.847 115.815 194.286 115.628C194.725 115.438 195.227 115.343 195.794 115.343C196.61 115.343 197.252 115.52 197.72 115.874C198.189 116.224 198.499 116.694 198.649 117.284ZM206.068 117.284L204.736 117.52C204.681 117.35 204.592 117.187 204.471 117.033C204.353 116.88 204.193 116.753 203.989 116.655C203.786 116.557 203.532 116.508 203.228 116.508C202.812 116.508 202.465 116.601 202.186 116.788C201.908 116.971 201.768 117.209 201.768 117.5C201.768 117.753 201.862 117.956 202.048 118.11C202.235 118.264 202.537 118.39 202.953 118.488L204.152 118.763C204.846 118.924 205.364 119.171 205.704 119.505C206.045 119.839 206.216 120.273 206.216 120.807C206.216 121.26 206.085 121.662 205.822 122.016C205.564 122.367 205.202 122.642 204.736 122.842C204.275 123.042 203.739 123.142 203.13 123.142C202.284 123.142 201.595 122.961 201.061 122.601C200.527 122.237 200.199 121.721 200.078 121.053L201.498 120.837C201.587 121.207 201.768 121.487 202.044 121.677C202.319 121.864 202.677 121.957 203.12 121.957C203.601 121.957 203.986 121.857 204.275 121.658C204.563 121.454 204.707 121.207 204.707 120.916C204.707 120.68 204.618 120.481 204.442 120.321C204.268 120.16 204.001 120.039 203.641 119.957L202.363 119.677C201.659 119.517 201.138 119.261 200.8 118.911C200.466 118.56 200.299 118.116 200.299 117.579C200.299 117.133 200.424 116.744 200.673 116.409C200.922 116.075 201.265 115.815 201.704 115.628C202.143 115.438 202.646 115.343 203.213 115.343C204.029 115.343 204.671 115.52 205.139 115.874C205.608 116.224 205.917 116.694 206.068 117.284ZM210.028 123.156C209.549 123.156 209.117 123.068 208.73 122.891C208.344 122.711 208.037 122.45 207.811 122.11C207.589 121.769 207.477 121.351 207.477 120.857C207.477 120.431 207.559 120.08 207.723 119.805C207.887 119.53 208.108 119.312 208.386 119.151C208.665 118.991 208.976 118.87 209.32 118.788C209.664 118.706 210.014 118.644 210.372 118.601C210.824 118.549 211.191 118.506 211.472 118.473C211.754 118.437 211.959 118.38 212.087 118.301C212.214 118.223 212.278 118.095 212.278 117.918V117.884C212.278 117.454 212.157 117.122 211.915 116.886C211.675 116.65 211.318 116.532 210.843 116.532C210.349 116.532 209.959 116.642 209.674 116.861C209.392 117.078 209.197 117.318 209.089 117.584L207.708 117.269C207.872 116.811 208.111 116.441 208.426 116.159C208.743 115.874 209.109 115.667 209.521 115.54C209.934 115.409 210.368 115.343 210.824 115.343C211.125 115.343 211.444 115.379 211.782 115.451C212.123 115.52 212.44 115.648 212.735 115.834C213.033 116.021 213.277 116.288 213.467 116.635C213.657 116.979 213.752 117.427 213.752 117.977V122.989H212.318V121.957H212.259C212.164 122.147 212.021 122.334 211.831 122.518C211.641 122.701 211.397 122.853 211.099 122.975C210.801 123.096 210.444 123.156 210.028 123.156ZM210.347 121.977C210.753 121.977 211.1 121.897 211.389 121.736C211.68 121.576 211.901 121.366 212.052 121.107C212.206 120.845 212.283 120.565 212.283 120.267V119.294C212.231 119.346 212.129 119.395 211.978 119.441C211.831 119.484 211.662 119.522 211.472 119.554C211.282 119.584 211.097 119.612 210.917 119.638C210.737 119.661 210.586 119.68 210.465 119.697C210.18 119.733 209.919 119.794 209.684 119.879C209.451 119.964 209.264 120.087 209.123 120.247C208.986 120.404 208.917 120.614 208.917 120.876C208.917 121.24 209.051 121.515 209.32 121.702C209.589 121.885 209.931 121.977 210.347 121.977ZM218.874 125.977C218.275 125.977 217.759 125.898 217.326 125.741C216.897 125.584 216.546 125.376 216.275 125.117C216.003 124.858 215.799 124.575 215.665 124.267L216.928 123.746C217.017 123.89 217.134 124.042 217.282 124.203C217.433 124.367 217.636 124.506 217.891 124.621C218.15 124.735 218.483 124.793 218.889 124.793C219.446 124.793 219.906 124.657 220.27 124.385C220.633 124.116 220.815 123.687 220.815 123.097V121.613H220.722C220.633 121.774 220.505 121.952 220.338 122.149C220.175 122.346 219.949 122.516 219.66 122.66C219.372 122.804 218.997 122.876 218.535 122.876C217.939 122.876 217.401 122.737 216.923 122.459C216.448 122.177 216.071 121.762 215.793 121.215C215.518 120.665 215.38 119.988 215.38 119.186C215.38 118.383 215.516 117.695 215.788 117.122C216.063 116.549 216.44 116.11 216.918 115.805C217.397 115.497 217.939 115.343 218.545 115.343C219.013 115.343 219.392 115.422 219.68 115.579C219.968 115.733 220.193 115.913 220.353 116.119C220.517 116.326 220.643 116.508 220.732 116.665H220.84V115.441H222.279V123.156C222.279 123.805 222.129 124.337 221.827 124.753C221.526 125.169 221.118 125.477 220.604 125.677C220.093 125.877 219.516 125.977 218.874 125.977ZM218.859 121.658C219.282 121.658 219.639 121.559 219.931 121.363C220.225 121.163 220.448 120.878 220.599 120.508C220.753 120.134 220.83 119.687 220.83 119.166C220.83 118.658 220.754 118.211 220.604 117.825C220.453 117.438 220.232 117.137 219.94 116.92C219.649 116.701 219.288 116.591 218.859 116.591C218.417 116.591 218.048 116.706 217.754 116.935C217.459 117.161 217.236 117.469 217.085 117.859C216.938 118.249 216.864 118.685 216.864 119.166C216.864 119.661 216.94 120.095 217.09 120.468C217.241 120.842 217.464 121.133 217.759 121.343C218.057 121.553 218.424 121.658 218.859 121.658ZM227.503 123.142C226.759 123.142 226.119 122.983 225.582 122.665C225.048 122.344 224.635 121.893 224.343 121.314C224.055 120.73 223.911 120.047 223.911 119.264C223.911 118.491 224.055 117.81 224.343 117.22C224.635 116.631 225.041 116.17 225.562 115.839C226.086 115.509 226.699 115.343 227.4 115.343C227.826 115.343 228.238 115.414 228.638 115.554C229.038 115.695 229.397 115.916 229.714 116.218C230.032 116.519 230.283 116.911 230.466 117.392C230.65 117.871 230.741 118.452 230.741 119.137V119.658H224.741V118.557H229.302C229.302 118.17 229.223 117.828 229.066 117.53C228.908 117.228 228.687 116.991 228.402 116.817C228.121 116.644 227.79 116.557 227.41 116.557C226.997 116.557 226.637 116.658 226.329 116.861C226.024 117.061 225.788 117.323 225.621 117.648C225.457 117.969 225.375 118.318 225.375 118.694V119.554C225.375 120.059 225.464 120.488 225.641 120.842C225.821 121.196 226.071 121.466 226.392 121.653C226.713 121.836 227.089 121.928 227.518 121.928C227.796 121.928 228.05 121.889 228.279 121.81C228.509 121.728 228.707 121.607 228.874 121.446C229.041 121.286 229.169 121.088 229.257 120.852L230.648 121.102C230.537 121.512 230.337 121.871 230.048 122.178C229.763 122.483 229.405 122.721 228.972 122.891C228.543 123.058 228.053 123.142 227.503 123.142ZM238.028 117.284L236.696 117.52C236.64 117.35 236.552 117.187 236.431 117.033C236.313 116.88 236.152 116.753 235.949 116.655C235.746 116.557 235.492 116.508 235.187 116.508C234.771 116.508 234.424 116.601 234.146 116.788C233.867 116.971 233.728 117.209 233.728 117.5C233.728 117.753 233.821 117.956 234.008 118.11C234.195 118.264 234.496 118.39 234.912 118.488L236.111 118.763C236.806 118.924 237.323 119.171 237.664 119.505C238.005 119.839 238.175 120.273 238.175 120.807C238.175 121.26 238.044 121.662 237.782 122.016C237.523 122.367 237.161 122.642 236.696 122.842C236.234 123.042 235.698 123.142 235.089 123.142C234.244 123.142 233.554 122.961 233.02 122.601C232.486 122.237 232.159 121.721 232.037 121.053L233.458 120.837C233.546 121.207 233.728 121.487 234.003 121.677C234.278 121.864 234.637 121.957 235.079 121.957C235.561 121.957 235.946 121.857 236.234 121.658C236.522 121.454 236.666 121.207 236.666 120.916C236.666 120.68 236.578 120.481 236.401 120.321C236.227 120.16 235.96 120.039 235.6 119.957L234.322 119.677C233.618 119.517 233.097 119.261 232.76 118.911C232.426 118.56 232.259 118.116 232.259 117.579C232.259 117.133 232.383 116.744 232.632 116.409C232.881 116.075 233.225 115.815 233.664 115.628C234.103 115.438 234.606 115.343 235.173 115.343C235.988 115.343 236.63 115.52 237.099 115.874C237.567 116.224 237.877 116.694 238.028 117.284ZM246.632 123.142C245.901 123.142 245.272 122.976 244.745 122.645C244.221 122.311 243.818 121.851 243.536 121.264C243.254 120.678 243.114 120.006 243.114 119.25C243.114 118.483 243.258 117.807 243.546 117.22C243.834 116.631 244.241 116.17 244.765 115.839C245.289 115.509 245.906 115.343 246.617 115.343C247.191 115.343 247.702 115.45 248.15 115.662C248.599 115.872 248.961 116.167 249.236 116.547C249.515 116.927 249.68 117.371 249.733 117.879H248.303C248.224 117.525 248.044 117.22 247.762 116.965C247.484 116.709 247.11 116.581 246.642 116.581C246.232 116.581 245.874 116.69 245.566 116.906C245.261 117.119 245.023 117.423 244.853 117.82C244.683 118.213 244.598 118.678 244.598 119.215C244.598 119.766 244.681 120.241 244.848 120.64C245.015 121.04 245.251 121.35 245.556 121.569C245.864 121.789 246.226 121.898 246.642 121.898C246.92 121.898 247.173 121.848 247.399 121.746C247.628 121.641 247.82 121.492 247.974 121.299C248.131 121.106 248.241 120.873 248.303 120.601H249.733C249.68 121.089 249.521 121.525 249.256 121.908C248.991 122.291 248.635 122.593 248.19 122.812C247.747 123.032 247.228 123.142 246.632 123.142ZM251.304 122.989V115.441H252.724V116.64H252.803C252.94 116.234 253.183 115.915 253.53 115.682C253.881 115.446 254.277 115.328 254.719 115.328C254.811 115.328 254.919 115.332 255.044 115.338C255.171 115.345 255.271 115.353 255.343 115.363V116.768C255.284 116.752 255.18 116.734 255.029 116.714C254.878 116.691 254.727 116.68 254.577 116.68C254.229 116.68 253.92 116.753 253.648 116.901C253.379 117.045 253.166 117.246 253.009 117.505C252.852 117.761 252.773 118.052 252.773 118.38V122.989H251.304ZM259.524 123.142C258.816 123.142 258.199 122.979 257.671 122.655C257.144 122.331 256.734 121.877 256.443 121.294C256.151 120.711 256.005 120.029 256.005 119.25C256.005 118.467 256.151 117.782 256.443 117.196C256.734 116.609 257.144 116.154 257.671 115.83C258.199 115.505 258.816 115.343 259.524 115.343C260.232 115.343 260.849 115.505 261.376 115.83C261.904 116.154 262.313 116.609 262.605 117.196C262.897 117.782 263.042 118.467 263.042 119.25C263.042 120.029 262.897 120.711 262.605 121.294C262.313 121.877 261.904 122.331 261.376 122.655C260.849 122.979 260.232 123.142 259.524 123.142ZM259.529 121.908C259.987 121.908 260.367 121.787 260.669 121.545C260.97 121.302 261.193 120.979 261.337 120.576C261.485 120.174 261.558 119.73 261.558 119.245C261.558 118.763 261.485 118.321 261.337 117.918C261.193 117.512 260.97 117.186 260.669 116.94C260.367 116.694 259.987 116.572 259.529 116.572C259.067 116.572 258.684 116.694 258.379 116.94C258.078 117.186 257.853 117.512 257.706 117.918C257.562 118.321 257.489 118.763 257.489 119.245C257.489 119.73 257.562 120.174 257.706 120.576C257.853 120.979 258.078 121.302 258.379 121.545C258.684 121.787 259.067 121.908 259.529 121.908ZM270.338 117.284L269.007 117.52C268.951 117.35 268.863 117.187 268.741 117.033C268.623 116.88 268.463 116.753 268.26 116.655C268.057 116.557 267.803 116.508 267.498 116.508C267.082 116.508 266.735 116.601 266.456 116.788C266.178 116.971 266.039 117.209 266.039 117.5C266.039 117.753 266.132 117.956 266.319 118.11C266.505 118.264 266.807 118.39 267.223 118.488L268.422 118.763C269.116 118.924 269.634 119.171 269.975 119.505C270.315 119.839 270.486 120.273 270.486 120.807C270.486 121.26 270.355 121.662 270.093 122.016C269.834 122.367 269.472 122.642 269.007 122.842C268.545 123.042 268.009 123.142 267.4 123.142C266.555 123.142 265.865 122.961 265.331 122.601C264.797 122.237 264.469 121.721 264.348 121.053L265.768 120.837C265.857 121.207 266.039 121.487 266.314 121.677C266.589 121.864 266.948 121.957 267.39 121.957C267.872 121.957 268.256 121.857 268.545 121.658C268.833 121.454 268.977 121.207 268.977 120.916C268.977 120.68 268.889 120.481 268.712 120.321C268.538 120.16 268.271 120.039 267.911 119.957L266.633 119.677C265.929 119.517 265.408 119.261 265.071 118.911C264.736 118.56 264.569 118.116 264.569 117.579C264.569 117.133 264.694 116.744 264.943 116.409C265.192 116.075 265.536 115.815 265.975 115.628C266.414 115.438 266.917 115.343 267.483 115.343C268.299 115.343 268.941 115.52 269.41 115.874C269.878 116.224 270.188 116.694 270.338 117.284ZM277.757 117.284L276.426 117.52C276.37 117.35 276.281 117.187 276.16 117.033C276.042 116.88 275.882 116.753 275.679 116.655C275.476 116.557 275.222 116.508 274.917 116.508C274.501 116.508 274.154 116.601 273.875 116.788C273.597 116.971 273.458 117.209 273.458 117.5C273.458 117.753 273.551 117.956 273.738 118.11C273.924 118.264 274.226 118.39 274.642 118.488L275.841 118.763C276.535 118.924 277.053 119.171 277.394 119.505C277.734 119.839 277.905 120.273 277.905 120.807C277.905 121.26 277.774 121.662 277.512 122.016C277.253 122.367 276.891 122.642 276.426 122.842C275.964 123.042 275.428 123.142 274.819 123.142C273.974 123.142 273.284 122.961 272.75 122.601C272.216 122.237 271.888 121.721 271.767 121.053L273.187 120.837C273.276 121.207 273.458 121.487 273.733 121.677C274.008 121.864 274.367 121.957 274.809 121.957C275.29 121.957 275.675 121.857 275.964 121.658C276.252 121.454 276.396 121.207 276.396 120.916C276.396 120.68 276.308 120.481 276.131 120.321C275.957 120.16 275.69 120.039 275.33 119.957L274.052 119.677C273.348 119.517 272.827 119.261 272.49 118.911C272.155 118.56 271.988 118.116 271.988 117.579C271.988 117.133 272.113 116.744 272.362 116.409C272.611 116.075 272.955 115.815 273.394 115.628C273.833 115.438 274.336 115.343 274.902 115.343C275.718 115.343 276.36 115.52 276.829 115.874C277.297 116.224 277.607 116.694 277.757 117.284ZM286.362 123.142C285.631 123.142 285.002 122.976 284.475 122.645C283.951 122.311 283.548 121.851 283.266 121.264C282.984 120.678 282.843 120.006 282.843 119.25C282.843 118.483 282.987 117.807 283.276 117.22C283.564 116.631 283.97 116.17 284.494 115.839C285.019 115.509 285.636 115.343 286.347 115.343C286.92 115.343 287.431 115.45 287.88 115.662C288.329 115.872 288.691 116.167 288.966 116.547C289.245 116.927 289.41 117.371 289.462 117.879H288.032C287.954 117.525 287.774 117.22 287.492 116.965C287.213 116.709 286.84 116.581 286.372 116.581C285.962 116.581 285.603 116.69 285.295 116.906C284.991 117.119 284.753 117.423 284.583 117.82C284.413 118.213 284.327 118.678 284.327 119.215C284.327 119.766 284.411 120.241 284.578 120.64C284.745 121.04 284.981 121.35 285.286 121.569C285.594 121.789 285.956 121.898 286.372 121.898C286.65 121.898 286.902 121.848 287.128 121.746C287.358 121.641 287.549 121.492 287.703 121.299C287.861 121.106 287.97 120.873 288.032 120.601H289.462C289.41 121.089 289.251 121.525 288.986 121.908C288.72 122.291 288.365 122.593 287.919 122.812C287.477 123.032 286.958 123.142 286.362 123.142ZM292.503 118.508V122.989H291.034V112.925H292.483V116.67H292.577C292.754 116.264 293.024 115.941 293.388 115.702C293.751 115.463 294.226 115.343 294.813 115.343C295.33 115.343 295.782 115.45 296.169 115.662C296.559 115.875 296.86 116.193 297.073 116.616C297.289 117.035 297.397 117.559 297.397 118.188V122.989H295.928V118.365C295.928 117.812 295.786 117.382 295.501 117.078C295.216 116.77 294.819 116.616 294.311 116.616C293.964 116.616 293.653 116.69 293.378 116.837C293.106 116.984 292.891 117.201 292.734 117.486C292.58 117.767 292.503 118.108 292.503 118.508ZM301.555 123.156C301.076 123.156 300.644 123.068 300.257 122.891C299.871 122.711 299.564 122.45 299.338 122.11C299.116 121.769 299.004 121.351 299.004 120.857C299.004 120.431 299.086 120.08 299.25 119.805C299.414 119.53 299.635 119.312 299.913 119.151C300.192 118.991 300.503 118.87 300.847 118.788C301.191 118.706 301.542 118.644 301.899 118.601C302.351 118.549 302.718 118.506 302.999 118.473C303.281 118.437 303.486 118.38 303.614 118.301C303.741 118.223 303.805 118.095 303.805 117.918V117.884C303.805 117.454 303.684 117.122 303.442 116.886C303.202 116.65 302.845 116.532 302.37 116.532C301.876 116.532 301.486 116.642 301.201 116.861C300.919 117.078 300.724 117.318 300.616 117.584L299.235 117.269C299.399 116.811 299.638 116.441 299.953 116.159C300.27 115.874 300.636 115.667 301.048 115.54C301.461 115.409 301.895 115.343 302.351 115.343C302.652 115.343 302.971 115.379 303.309 115.451C303.65 115.52 303.967 115.648 304.262 115.834C304.56 116.021 304.804 116.288 304.994 116.635C305.184 116.979 305.279 117.427 305.279 117.977V122.989H303.845V121.957H303.786C303.691 122.147 303.548 122.334 303.358 122.518C303.168 122.701 302.924 122.853 302.626 122.975C302.328 123.096 301.971 123.156 301.555 123.156ZM301.874 121.977C302.28 121.977 302.627 121.897 302.916 121.736C303.207 121.576 303.428 121.366 303.579 121.107C303.733 120.845 303.81 120.565 303.81 120.267V119.294C303.758 119.346 303.656 119.395 303.505 119.441C303.358 119.484 303.189 119.522 302.999 119.554C302.809 119.584 302.624 119.612 302.444 119.638C302.264 119.661 302.113 119.68 301.992 119.697C301.707 119.733 301.446 119.794 301.211 119.879C300.978 119.964 300.791 120.087 300.65 120.247C300.513 120.404 300.444 120.614 300.444 120.876C300.444 121.24 300.578 121.515 300.847 121.702C301.116 121.885 301.458 121.977 301.874 121.977ZM307.236 122.989V115.441H308.706V122.989H307.236ZM307.978 114.277C307.723 114.277 307.503 114.192 307.32 114.021C307.14 113.848 307.05 113.641 307.05 113.402C307.05 113.16 307.14 112.953 307.32 112.783C307.503 112.609 307.723 112.522 307.978 112.522C308.234 112.522 308.452 112.609 308.632 112.783C308.815 112.953 308.907 113.16 308.907 113.402C308.907 113.641 308.815 113.848 308.632 114.021C308.452 114.192 308.234 114.277 307.978 114.277ZM312.152 118.508V122.989H310.682V115.441H312.093V116.67H312.186C312.36 116.27 312.632 115.949 313.002 115.707C313.375 115.464 313.845 115.343 314.412 115.343C314.926 115.343 315.377 115.451 315.763 115.667C316.15 115.88 316.45 116.198 316.663 116.621C316.876 117.043 316.982 117.566 316.982 118.188V122.989H315.513V118.365C315.513 117.818 315.37 117.391 315.085 117.083C314.8 116.771 314.409 116.616 313.911 116.616C313.57 116.616 313.267 116.69 313.002 116.837C312.74 116.984 312.532 117.201 312.378 117.486C312.227 117.767 312.152 118.108 312.152 118.508ZM319.921 123.083C319.652 123.083 319.421 122.988 319.228 122.798C319.035 122.604 318.938 122.372 318.938 122.1C318.938 121.831 319.035 121.602 319.228 121.412C319.421 121.219 319.652 121.122 319.921 121.122C320.189 121.122 320.42 121.219 320.614 121.412C320.807 121.602 320.904 121.831 320.904 122.1C320.904 122.28 320.858 122.445 320.766 122.596C320.677 122.744 320.56 122.861 320.412 122.95C320.265 123.038 320.101 123.083 319.921 123.083Z" fill="#2C2C2C"/>
<path d="M173.287 64.7026V45.9156H180.699C182.124 45.9156 183.338 46.1878 184.341 46.732C185.344 47.2702 186.108 48.0194 186.634 48.9795C187.166 49.9335 187.432 51.0343 187.432 52.2819C187.432 53.5295 187.163 54.6303 186.625 55.5843C186.087 56.5384 185.307 57.2814 184.286 57.8135C183.271 58.3455 182.041 58.6115 180.598 58.6115H175.874V55.4284H179.956C180.72 55.4284 181.35 55.2969 181.846 55.0339C182.347 54.7648 182.72 54.3949 182.965 53.924C183.216 53.4469 183.341 52.8996 183.341 52.2819C183.341 51.6581 183.216 51.1138 182.965 50.6491C182.72 50.1782 182.347 49.8143 181.846 49.5574C181.344 49.2945 180.708 49.163 179.938 49.163H177.259V64.7026H173.287ZM189.939 64.7026V50.6124H193.847V64.7026H189.939ZM191.902 48.7961C191.321 48.7961 190.823 48.6034 190.407 48.2181C189.997 47.8267 189.792 47.3589 189.792 46.8146C189.792 46.2764 189.997 45.8147 190.407 45.4294C190.823 45.038 191.321 44.8423 191.902 44.8423C192.483 44.8423 192.978 45.038 193.388 45.4294C193.804 45.8147 194.012 46.2764 194.012 46.8146C194.012 47.3589 193.804 47.8267 193.388 48.2181C192.978 48.6034 192.483 48.7961 191.902 48.7961ZM203.325 70.28C202.059 70.28 200.974 70.1057 200.069 69.7572C199.17 69.4147 198.454 68.9468 197.922 68.3536C197.39 67.7604 197.044 67.0938 196.885 66.3538L200.5 65.8677C200.61 66.149 200.784 66.4119 201.023 66.6566C201.261 66.9012 201.576 67.0969 201.967 67.2437C202.365 67.3965 202.848 67.473 203.417 67.473C204.267 67.473 204.967 67.2651 205.518 66.8492C206.074 66.4395 206.352 65.7515 206.352 64.7852V62.2075H206.187C206.016 62.5989 205.759 62.9689 205.417 63.3175C205.074 63.666 204.634 63.9504 204.096 64.1706C203.557 64.3907 202.915 64.5008 202.169 64.5008C201.111 64.5008 200.148 64.2562 199.28 63.767C198.417 63.2716 197.729 62.5163 197.216 61.5011C196.708 60.4798 196.454 59.1895 196.454 57.63C196.454 56.0338 196.714 54.7006 197.234 53.6304C197.754 52.5602 198.445 51.759 199.307 51.227C200.176 50.6949 201.127 50.4289 202.16 50.4289C202.949 50.4289 203.609 50.5635 204.142 50.8325C204.674 51.0955 205.102 51.4257 205.426 51.8233C205.756 52.2147 206.01 52.5999 206.187 52.9791H206.334V50.6124H210.214V64.8402C210.214 66.0389 209.921 67.0418 209.334 67.8491C208.747 68.6563 207.933 69.2618 206.894 69.6654C205.86 70.0752 204.671 70.28 203.325 70.28ZM203.408 61.5654C204.038 61.5654 204.57 61.4094 205.004 61.0975C205.444 60.7795 205.78 60.3269 206.013 59.7399C206.251 59.1466 206.371 58.4372 206.371 57.6116C206.371 56.786 206.254 56.0705 206.022 55.4651C205.79 54.8535 205.453 54.3796 205.013 54.0432C204.573 53.7068 204.038 53.5387 203.408 53.5387C202.766 53.5387 202.224 53.713 201.784 54.0616C201.344 54.404 201.01 54.881 200.784 55.4926C200.558 56.1042 200.445 56.8105 200.445 57.6116C200.445 58.425 200.558 59.1283 200.784 59.7215C201.016 60.3086 201.35 60.7642 201.784 61.0883C202.224 61.4063 202.766 61.5654 203.408 61.5654ZM219.745 64.9778C218.296 64.9778 217.048 64.6843 216.003 64.0972C214.963 63.504 214.162 62.6662 213.599 61.5837C213.037 60.4951 212.755 59.2078 212.755 57.7217C212.755 56.2723 213.037 55.0003 213.599 53.9056C214.162 52.8109 214.954 51.9578 215.975 51.3462C217.003 50.7347 218.207 50.4289 219.589 50.4289C220.519 50.4289 221.384 50.5787 222.185 50.8784C222.993 51.1719 223.696 51.6153 224.295 52.2085C224.901 52.8017 225.372 53.5478 225.708 54.4468C226.044 55.3397 226.213 56.3855 226.213 57.5841V58.6574H214.315V56.2356H222.534C222.534 55.673 222.412 55.1746 222.167 54.7404C221.923 54.3062 221.583 53.9668 221.149 53.7221C220.721 53.4714 220.222 53.346 219.654 53.346C219.06 53.346 218.535 53.4836 218.076 53.7588C217.623 54.0279 217.269 54.3918 217.012 54.8505C216.755 55.303 216.623 55.8075 216.617 56.3641V58.6666C216.617 59.3637 216.746 59.9661 217.003 60.4737C217.266 60.9813 217.636 61.3727 218.113 61.6479C218.59 61.9231 219.155 62.0607 219.81 62.0607C220.244 62.0607 220.641 61.9996 221.002 61.8772C221.363 61.7549 221.672 61.5715 221.929 61.3268C222.185 61.0822 222.381 60.7826 222.516 60.4279L226.13 60.6664C225.947 61.5348 225.57 62.2931 225.002 62.9414C224.439 63.5835 223.711 64.085 222.818 64.4458C221.932 64.8005 220.907 64.9778 219.745 64.9778ZM235.129 64.9778C233.704 64.9778 232.472 64.6751 231.432 64.0697C230.399 63.4581 229.601 62.6081 229.038 61.5195C228.475 60.4248 228.194 59.1558 228.194 57.7125C228.194 56.257 228.475 54.985 229.038 53.8964C229.601 52.8017 230.399 51.9517 231.432 51.3462C232.472 50.7347 233.704 50.4289 235.129 50.4289C236.554 50.4289 237.783 50.7347 238.817 51.3462C239.856 51.9517 240.658 52.8017 241.22 53.8964C241.783 54.985 242.064 56.257 242.064 57.7125C242.064 59.1558 241.783 60.4248 241.22 61.5195C240.658 62.6081 239.856 63.4581 238.817 64.0697C237.783 64.6751 236.554 64.9778 235.129 64.9778ZM235.147 61.9506C235.796 61.9506 236.337 61.7672 236.771 61.4002C237.205 61.0272 237.533 60.5196 237.753 59.8775C237.979 59.2353 238.092 58.5045 238.092 57.685C238.092 56.8655 237.979 56.1347 237.753 55.4926C237.533 54.8505 237.205 54.3429 236.771 53.9698C236.337 53.5968 235.796 53.4102 235.147 53.4102C234.493 53.4102 233.943 53.5968 233.496 53.9698C233.056 54.3429 232.723 54.8505 232.496 55.4926C232.276 56.1347 232.166 56.8655 232.166 57.685C232.166 58.5045 232.276 59.2353 232.496 59.8775C232.723 60.5196 233.056 61.0272 233.496 61.4002C233.943 61.7672 234.493 61.9506 235.147 61.9506ZM248.513 56.5567V64.7026H244.605V50.6124H248.33V53.0984H248.495C248.807 52.2789 249.329 51.6306 250.063 51.1536C250.797 50.6705 251.687 50.4289 252.733 50.4289C253.711 50.4289 254.564 50.643 255.292 51.071C256.02 51.4991 256.586 52.1107 256.989 52.9057C257.393 53.6946 257.595 54.6364 257.595 55.7311V64.7026H253.687V56.4283C253.693 55.566 253.473 54.8933 253.026 54.4101C252.58 53.9209 251.965 53.6763 251.182 53.6763C250.657 53.6763 250.192 53.7894 249.788 54.0157C249.391 54.242 249.079 54.5722 248.852 55.0064C248.632 55.4345 248.519 55.9513 248.513 56.5567ZM266.653 64.7026V50.6124H270.442V53.0708H270.589C270.846 52.1963 271.277 51.5358 271.882 51.0894C272.488 50.6368 273.185 50.4106 273.974 50.4106C274.169 50.4106 274.38 50.4228 274.607 50.4473C274.833 50.4717 275.032 50.5054 275.203 50.5482V54.0157C275.019 53.9606 274.766 53.9117 274.441 53.8689C274.117 53.8261 273.821 53.8047 273.552 53.8047C272.977 53.8047 272.463 53.9301 272.011 54.1808C271.564 54.4254 271.209 54.7679 270.946 55.2082C270.69 55.6485 270.561 56.1561 270.561 56.731V64.7026H266.653ZM282.989 64.9778C281.539 64.9778 280.292 64.6843 279.246 64.0972C278.206 63.504 277.405 62.6662 276.843 61.5837C276.28 60.4951 275.999 59.2078 275.999 57.7217C275.999 56.2723 276.28 55.0003 276.843 53.9056C277.405 52.8109 278.197 51.9578 279.219 51.3462C280.246 50.7347 281.451 50.4289 282.833 50.4289C283.762 50.4289 284.628 50.5787 285.429 50.8784C286.236 51.1719 286.939 51.6153 287.539 52.2085C288.144 52.8017 288.615 53.5478 288.951 54.4468C289.288 55.3397 289.456 56.3855 289.456 57.5841V58.6574H277.558V56.2356H285.777C285.777 55.673 285.655 55.1746 285.411 54.7404C285.166 54.3062 284.826 53.9668 284.392 53.7221C283.964 53.4714 283.466 53.346 282.897 53.346C282.304 53.346 281.778 53.4836 281.319 53.7588C280.867 54.0279 280.512 54.3918 280.255 54.8505C279.998 55.303 279.867 55.8075 279.861 56.3641V58.6666C279.861 59.3637 279.989 59.9661 280.246 60.4737C280.509 60.9813 280.879 61.3727 281.356 61.6479C281.833 61.9231 282.399 62.0607 283.053 62.0607C283.487 62.0607 283.885 61.9996 284.245 61.8772C284.606 61.7549 284.915 61.5715 285.172 61.3268C285.429 61.0822 285.625 60.7826 285.759 60.4279L289.373 60.6664C289.19 61.5348 288.814 62.2931 288.245 62.9414C287.682 63.5835 286.955 64.085 286.062 64.4458C285.175 64.8005 284.151 64.9778 282.989 64.9778ZM295.914 45.9156V64.7026H292.006V45.9156H295.914ZM303.062 64.9687C302.163 64.9687 301.362 64.8127 300.659 64.5008C299.956 64.1828 299.399 63.715 298.989 63.0973C298.586 62.4735 298.384 61.6968 298.384 60.7673C298.384 59.9845 298.528 59.3271 298.815 58.795C299.102 58.2629 299.494 57.8349 299.989 57.5107C300.485 57.1866 301.047 56.942 301.677 56.7769C302.313 56.6117 302.98 56.4955 303.677 56.4283C304.496 56.3427 305.157 56.2632 305.658 56.1898C306.16 56.1103 306.524 55.9941 306.75 55.8412C306.976 55.6883 307.089 55.462 307.089 55.1624V55.1073C307.089 54.5263 306.906 54.0768 306.539 53.7588C306.178 53.4408 305.664 53.2818 304.998 53.2818C304.295 53.2818 303.735 53.4378 303.319 53.7497C302.903 54.0554 302.628 54.4407 302.494 54.9055L298.879 54.612C299.063 53.7558 299.424 53.0158 299.962 52.392C300.5 51.7621 301.194 51.279 302.044 50.9426C302.9 50.6001 303.891 50.4289 305.016 50.4289C305.799 50.4289 306.548 50.5206 307.264 50.7041C307.985 50.8876 308.624 51.1719 309.181 51.5572C309.744 51.9425 310.187 52.4379 310.511 53.0433C310.835 53.6426 310.997 54.3612 310.997 55.199V64.7026H307.291V62.7487H307.181C306.955 63.189 306.652 63.5774 306.273 63.9137C305.894 64.244 305.438 64.5039 304.906 64.6935C304.374 64.8769 303.759 64.9687 303.062 64.9687ZM304.181 62.2717C304.756 62.2717 305.264 62.1586 305.704 61.9323C306.145 61.6999 306.49 61.388 306.741 60.9966C306.992 60.6052 307.117 60.1618 307.117 59.6665V58.1712C306.995 58.2507 306.826 58.3241 306.612 58.3914C306.404 58.4525 306.169 58.5106 305.906 58.5657C305.643 58.6146 305.38 58.6605 305.117 58.7033C304.854 58.74 304.616 58.7736 304.402 58.8042C303.943 58.8714 303.542 58.9785 303.2 59.1252C302.857 59.272 302.591 59.4708 302.402 59.7215C302.212 59.9661 302.117 60.2719 302.117 60.6388C302.117 61.1709 302.31 61.5776 302.695 61.8589C303.087 62.1341 303.582 62.2717 304.181 62.2717ZM315.937 69.9865C315.442 69.9865 314.977 69.9467 314.543 69.8672C314.115 69.7938 313.76 69.6991 313.479 69.5829L314.359 66.6657C314.818 66.8064 315.231 66.8828 315.598 66.8951C315.971 66.9073 316.292 66.8217 316.561 66.6382C316.836 66.4547 317.059 66.1429 317.231 65.7025L317.46 65.1063L312.405 50.6124H316.515L319.432 60.9599H319.579L322.524 50.6124H326.661L321.184 66.2254C320.921 66.9837 320.564 67.6442 320.111 68.2069C319.665 68.7756 319.099 69.2129 318.414 69.5186C317.729 69.8305 316.903 69.9865 315.937 69.9865ZM334.628 64.9778C333.178 64.9778 331.931 64.6843 330.885 64.0972C329.845 63.504 329.044 62.6662 328.482 61.5837C327.919 60.4951 327.638 59.2078 327.638 57.7217C327.638 56.2723 327.919 55.0003 328.482 53.9056C329.044 52.8109 329.836 51.9578 330.858 51.3462C331.885 50.7347 333.09 50.4289 334.472 50.4289C335.401 50.4289 336.267 50.5787 337.068 50.8784C337.875 51.1719 338.578 51.6153 339.178 52.2085C339.783 52.8017 340.254 53.5478 340.59 54.4468C340.927 55.3397 341.095 56.3855 341.095 57.5841V58.6574H329.197V56.2356H337.417C337.417 55.673 337.294 55.1746 337.05 54.7404C336.805 54.3062 336.466 53.9668 336.031 53.7221C335.603 53.4714 335.105 53.346 334.536 53.346C333.943 53.346 333.417 53.4836 332.958 53.7588C332.506 54.0279 332.151 54.3918 331.894 54.8505C331.637 55.303 331.506 55.8075 331.5 56.3641V58.6666C331.5 59.3637 331.628 59.9661 331.885 60.4737C332.148 60.9813 332.518 61.3727 332.995 61.6479C333.472 61.9231 334.038 62.0607 334.692 62.0607C335.126 62.0607 335.524 61.9996 335.885 61.8772C336.245 61.7549 336.554 61.5715 336.811 61.3268C337.068 61.0822 337.264 60.7826 337.398 60.4279L341.012 60.6664C340.829 61.5348 340.453 62.2931 339.884 62.9414C339.322 63.5835 338.594 64.085 337.701 64.4458C336.814 64.8005 335.79 64.9778 334.628 64.9778ZM343.645 64.7026V50.6124H347.434V53.0708H347.581C347.837 52.1963 348.269 51.5358 348.874 51.0894C349.479 50.6368 350.177 50.4106 350.966 50.4106C351.161 50.4106 351.372 50.4228 351.599 50.4473C351.825 50.4717 352.024 50.5054 352.195 50.5482V54.0157C352.011 53.9606 351.758 53.9117 351.433 53.8689C351.109 53.8261 350.813 53.8047 350.544 53.8047C349.969 53.8047 349.455 53.9301 349.002 54.1808C348.556 54.4254 348.201 54.7679 347.938 55.2082C347.681 55.6485 347.553 56.1561 347.553 56.731V64.7026H343.645Z" fill="#2C2C2C"/>
<path d="M408.317 32.6919L405.474 32.9033L407.442 17.0975L394.763 29.1119L393 27.2703L405.679 15.2559L389.715 16.4415L390.067 13.6276L408.674 12.2428L408.401 14.433L410.613 14.2685L408.317 32.6919Z" fill="#FF62C4"/>
<path d="M136.016 62.9115C136.016 58.662 132.579 55.2817 128.474 55.2817C124.368 55.2817 120.931 58.7589 120.931 62.9115C120.931 65.9055 122.649 68.4167 125.037 69.7692C123.891 75.2738 119.403 77.785 113.101 80.6826C111.574 81.3585 110.046 82.1314 108.614 82.9042V60.3999C111.191 59.2407 113.101 56.5368 113.101 53.446C113.101 49.1965 109.664 45.8162 105.559 45.8162C101.358 45.8162 98.0162 49.2934 98.0162 53.446C98.0162 56.5369 99.8305 59.2413 102.504 60.3999V94.591V88.7957V96.2324C99.9262 97.3916 98.0162 100.096 98.0162 103.186C98.0162 107.436 101.454 110.816 105.559 110.816C109.76 110.816 113.101 107.339 113.101 103.186C113.101 100.095 111.287 97.3911 108.614 96.2324V91.6927C108.614 89.7612 111.287 88.4087 115.679 86.3808C121.789 83.58 129.81 79.8132 131.338 70.0585C134.107 68.8998 136.016 66.1953 136.016 62.9119L136.016 62.9115ZM105.558 49.6796C107.659 49.6796 109.282 51.418 109.282 53.4464C109.282 55.5713 107.564 57.2132 105.558 57.2132C103.458 57.2132 101.835 55.4749 101.835 53.4464C101.835 51.418 103.458 49.6796 105.558 49.6796ZM105.558 106.954C103.458 106.954 101.835 105.215 101.835 103.187C101.835 101.062 103.553 99.4199 105.558 99.4199C107.659 99.4199 109.282 101.158 109.282 103.187C109.282 105.312 107.564 106.954 105.558 106.954ZM128.474 66.7751C126.373 66.7751 124.75 65.0368 124.75 63.0083C124.75 60.8835 126.468 59.2415 128.474 59.2415C130.479 59.2415 132.197 60.9799 132.197 63.0083C132.197 65.0368 130.574 66.7751 128.474 66.7751Z" fill="#FF62C4"/>
</svg>
