<svg width="441" height="166" viewBox="0 0 441 166" fill="none" xmlns="http://www.w3.org/2000/svg">
<rect x="439.4" y="10.8271" width="154.292" height="416.519" rx="7.61081" transform="rotate(90 439.4 10.8271)" fill="#FFFFFF" stroke="#F1D1E5" stroke-width="1.38378"/>
<rect x="427.638" y="1.14062" width="154.292" height="426.205" rx="7.61081" transform="rotate(90 427.638 1.14062)" fill="#FFFFFF" stroke="#F1D1E5" stroke-width="1.38378"/>
<path d="M178.746 87.1122V88.173H173.827V87.1122H178.746ZM174.084 78.3351V88.173H172.78V78.3351H174.084ZM183.084 88.3081C182.575 88.3081 182.113 88.2225 181.699 88.0514C181.289 87.8757 180.935 87.6302 180.638 87.3149C180.345 86.9996 180.12 86.6257 179.962 86.1932C179.805 85.7608 179.726 85.2878 179.726 84.7743V84.4905C179.726 83.8959 179.814 83.3667 179.989 82.9027C180.165 82.4342 180.404 82.0378 180.705 81.7135C181.007 81.3892 181.35 81.1437 181.732 80.977C182.115 80.8104 182.512 80.727 182.922 80.727C183.444 80.727 183.895 80.8171 184.273 80.9973C184.656 81.1775 184.969 81.4297 185.212 81.7541C185.455 82.0739 185.636 82.4523 185.753 82.8892C185.87 83.3216 185.928 83.7946 185.928 84.3081V84.8689H180.469V83.8486H184.678V83.7541C184.66 83.4297 184.593 83.1144 184.476 82.8081C184.363 82.5018 184.183 82.2496 183.935 82.0514C183.687 81.8532 183.35 81.7541 182.922 81.7541C182.638 81.7541 182.377 81.8149 182.138 81.9365C181.899 82.0536 181.694 82.2293 181.523 82.4635C181.352 82.6977 181.219 82.9838 181.124 83.3216C181.03 83.6595 180.982 84.0491 180.982 84.4905V84.7743C180.982 85.1212 181.03 85.4477 181.124 85.7541C181.223 86.0559 181.365 86.3216 181.55 86.5514C181.739 86.7811 181.967 86.9613 182.232 87.0919C182.503 87.2225 182.809 87.2878 183.151 87.2878C183.593 87.2878 183.967 87.1977 184.273 87.0176C184.579 86.8374 184.847 86.5964 185.077 86.2946L185.834 86.8959C185.676 87.1347 185.476 87.3622 185.232 87.5784C184.989 87.7946 184.69 87.9703 184.334 88.1054C183.982 88.2405 183.566 88.3081 183.084 88.3081ZM191.699 86.923V83.1595C191.699 82.8712 191.64 82.6212 191.523 82.4095C191.41 82.1932 191.239 82.0266 191.01 81.9095C190.78 81.7923 190.496 81.7338 190.158 81.7338C189.843 81.7338 189.566 81.7878 189.327 81.8959C189.093 82.0041 188.908 82.1459 188.773 82.3216C188.642 82.4973 188.577 82.6865 188.577 82.8892H187.327C187.327 82.6279 187.395 82.3689 187.53 82.1122C187.665 81.8554 187.859 81.6234 188.111 81.4162C188.368 81.2045 188.674 81.0378 189.03 80.9162C189.39 80.7901 189.791 80.727 190.232 80.727C190.764 80.727 191.232 80.8171 191.638 80.9973C192.048 81.1775 192.368 81.45 192.597 81.8149C192.832 82.1752 192.949 82.6279 192.949 83.173V86.5784C192.949 86.8216 192.969 87.0806 193.01 87.3554C193.055 87.6302 193.12 87.8667 193.205 88.0649V88.173H191.901C191.838 88.0288 191.789 87.8374 191.753 87.5986C191.717 87.3554 191.699 87.1302 191.699 86.923ZM191.915 83.7405L191.928 84.6189H190.665C190.309 84.6189 189.991 84.6482 189.712 84.7068C189.433 84.7608 189.199 84.8441 189.01 84.9568C188.82 85.0694 188.676 85.2113 188.577 85.3824C188.478 85.5491 188.428 85.745 188.428 85.9703C188.428 86.2 188.48 86.4095 188.584 86.5986C188.687 86.7878 188.843 86.9387 189.05 87.0514C189.262 87.1595 189.521 87.2135 189.827 87.2135C190.21 87.2135 190.548 87.1324 190.841 86.9703C191.133 86.8081 191.365 86.6099 191.537 86.3757C191.712 86.1414 191.807 85.914 191.82 85.6932L192.354 86.2946C192.323 86.4838 192.237 86.6932 192.097 86.923C191.958 87.1527 191.771 87.3734 191.537 87.5851C191.307 87.7923 191.032 87.9658 190.712 88.1054C190.397 88.2405 190.041 88.3081 189.645 88.3081C189.149 88.3081 188.714 88.2113 188.341 88.0176C187.971 87.8239 187.683 87.5649 187.476 87.2405C187.273 86.9117 187.172 86.5446 187.172 86.1392C187.172 85.7473 187.248 85.4027 187.401 85.1054C187.555 84.8036 187.775 84.5536 188.064 84.3554C188.352 84.1527 188.699 83.9996 189.104 83.8959C189.51 83.7923 189.962 83.7405 190.462 83.7405H191.915ZM196.165 82.0108V88.173H194.915V80.8622H196.131L196.165 82.0108ZM198.449 80.8216L198.442 81.9838C198.338 81.9613 198.239 81.9477 198.145 81.9432C198.055 81.9342 197.951 81.9297 197.834 81.9297C197.546 81.9297 197.291 81.9748 197.07 82.0649C196.85 82.155 196.663 82.2811 196.51 82.4432C196.356 82.6054 196.235 82.7991 196.145 83.0243C196.059 83.245 196.003 83.4883 195.976 83.7541L195.624 83.9568C195.624 83.5153 195.667 83.1009 195.753 82.7135C195.843 82.3261 195.98 81.9838 196.165 81.6865C196.35 81.3847 196.584 81.1505 196.868 80.9838C197.156 80.8126 197.498 80.727 197.895 80.727C197.985 80.727 198.088 80.7383 198.205 80.7608C198.323 80.7788 198.404 80.7991 198.449 80.8216ZM200.854 82.423V88.173H199.604V80.8622H200.787L200.854 82.423ZM200.557 84.2405L200.037 84.2203C200.041 83.7203 200.115 83.2586 200.26 82.8351C200.404 82.4072 200.606 82.0356 200.868 81.7203C201.129 81.405 201.44 81.1617 201.8 80.9905C202.165 80.8149 202.568 80.727 203.01 80.727C203.37 80.727 203.694 80.7766 203.982 80.8757C204.271 80.9703 204.516 81.1234 204.719 81.3351C204.926 81.5468 205.084 81.8216 205.192 82.1595C205.3 82.4928 205.354 82.9005 205.354 83.3824V88.173H204.097V83.3689C204.097 82.986 204.041 82.6797 203.928 82.45C203.816 82.2158 203.651 82.0468 203.435 81.9432C203.219 81.8351 202.953 81.7811 202.638 81.7811C202.327 81.7811 202.043 81.8464 201.787 81.977C201.534 82.1077 201.316 82.2878 201.131 82.5176C200.951 82.7473 200.809 83.0108 200.705 83.3081C200.606 83.6009 200.557 83.9117 200.557 84.2405ZM211.928 82.3149V88.173H210.672V80.8622H211.861L211.928 82.3149ZM211.672 84.2405L211.091 84.2203C211.095 83.7203 211.16 83.2586 211.287 82.8351C211.413 82.4072 211.6 82.0356 211.847 81.7203C212.095 81.405 212.404 81.1617 212.773 80.9905C213.142 80.8149 213.57 80.727 214.057 80.727C214.399 80.727 214.714 80.7766 215.003 80.8757C215.291 80.9703 215.541 81.1212 215.753 81.3284C215.964 81.5356 216.129 81.8014 216.246 82.1257C216.363 82.45 216.422 82.8419 216.422 83.3014V88.173H215.172V83.3622C215.172 82.9793 215.106 82.673 214.976 82.4432C214.85 82.2135 214.669 82.0468 214.435 81.9432C214.201 81.8351 213.926 81.7811 213.611 81.7811C213.241 81.7811 212.933 81.8464 212.685 81.977C212.437 82.1077 212.239 82.2878 212.091 82.5176C211.942 82.7473 211.834 83.0108 211.766 83.3081C211.703 83.6009 211.672 83.9117 211.672 84.2405ZM216.408 83.5514L215.57 83.8081C215.575 83.4072 215.64 83.0221 215.766 82.6527C215.897 82.2833 216.084 81.9545 216.327 81.6662C216.575 81.3779 216.879 81.1505 217.239 80.9838C217.6 80.8126 218.012 80.727 218.476 80.727C218.868 80.727 219.214 80.7788 219.516 80.8824C219.823 80.986 220.079 81.1459 220.287 81.3622C220.498 81.5739 220.658 81.8464 220.766 82.1797C220.874 82.5131 220.928 82.9095 220.928 83.3689V88.173H219.672V83.3554C219.672 82.9455 219.606 82.6279 219.476 82.4027C219.35 82.173 219.169 82.0131 218.935 81.923C218.705 81.8284 218.431 81.7811 218.111 81.7811C217.836 81.7811 217.593 81.8284 217.381 81.923C217.169 82.0176 216.991 82.1482 216.847 82.3149C216.703 82.477 216.593 82.664 216.516 82.8757C216.444 83.0874 216.408 83.3126 216.408 83.5514ZM222.489 84.5986V84.4432C222.489 83.9162 222.566 83.4275 222.719 82.977C222.872 82.5221 223.093 82.1279 223.381 81.7946C223.669 81.4568 224.019 81.1955 224.428 81.0108C224.838 80.8216 225.298 80.727 225.807 80.727C226.32 80.727 226.782 80.8216 227.192 81.0108C227.606 81.1955 227.958 81.4568 228.246 81.7946C228.539 82.1279 228.762 82.5221 228.915 82.977C229.068 83.4275 229.145 83.9162 229.145 84.4432V84.5986C229.145 85.1257 229.068 85.6144 228.915 86.0649C228.762 86.5153 228.539 86.9095 228.246 87.2473C227.958 87.5806 227.609 87.8419 227.199 88.0311C226.793 88.2158 226.334 88.3081 225.82 88.3081C225.307 88.3081 224.845 88.2158 224.435 88.0311C224.025 87.8419 223.674 87.5806 223.381 87.2473C223.093 86.9095 222.872 86.5153 222.719 86.0649C222.566 85.6144 222.489 85.1257 222.489 84.5986ZM223.739 84.4432V84.5986C223.739 84.9635 223.782 85.3081 223.868 85.6324C223.953 85.9523 224.082 86.236 224.253 86.4838C224.428 86.7315 224.647 86.9275 224.908 87.0716C225.169 87.2113 225.473 87.2811 225.82 87.2811C226.163 87.2811 226.462 87.2113 226.719 87.0716C226.98 86.9275 227.196 86.7315 227.368 86.4838C227.539 86.236 227.667 85.9523 227.753 85.6324C227.843 85.3081 227.888 84.9635 227.888 84.5986V84.4432C227.888 84.0829 227.843 83.7428 227.753 83.423C227.667 83.0986 227.537 82.8126 227.361 82.5649C227.19 82.3126 226.973 82.1144 226.712 81.9703C226.455 81.8261 226.154 81.7541 225.807 81.7541C225.464 81.7541 225.163 81.8261 224.901 81.9703C224.645 82.1144 224.428 82.3126 224.253 82.5649C224.082 82.8126 223.953 83.0986 223.868 83.423C223.782 83.7428 223.739 84.0829 223.739 84.4432ZM231.962 82.0108V88.173H230.712V80.8622H231.928L231.962 82.0108ZM234.246 80.8216L234.239 81.9838C234.136 81.9613 234.037 81.9477 233.942 81.9432C233.852 81.9342 233.748 81.9297 233.631 81.9297C233.343 81.9297 233.088 81.9748 232.868 82.0649C232.647 82.155 232.46 82.2811 232.307 82.4432C232.154 82.6054 232.032 82.7991 231.942 83.0243C231.856 83.245 231.8 83.4883 231.773 83.7541L231.422 83.9568C231.422 83.5153 231.464 83.1009 231.55 82.7135C231.64 82.3261 231.778 81.9838 231.962 81.6865C232.147 81.3847 232.381 81.1505 232.665 80.9838C232.953 80.8126 233.296 80.727 233.692 80.727C233.782 80.727 233.886 80.7383 234.003 80.7608C234.12 80.7788 234.201 80.7991 234.246 80.8216ZM238.3 88.3081C237.791 88.3081 237.329 88.2225 236.915 88.0514C236.505 87.8757 236.151 87.6302 235.854 87.3149C235.561 86.9996 235.336 86.6257 235.178 86.1932C235.021 85.7608 234.942 85.2878 234.942 84.7743V84.4905C234.942 83.8959 235.03 83.3667 235.205 82.9027C235.381 82.4342 235.62 82.0378 235.922 81.7135C236.223 81.3892 236.566 81.1437 236.949 80.977C237.332 80.8104 237.728 80.727 238.138 80.727C238.66 80.727 239.111 80.8171 239.489 80.9973C239.872 81.1775 240.185 81.4297 240.428 81.7541C240.672 82.0739 240.852 82.4523 240.969 82.8892C241.086 83.3216 241.145 83.7946 241.145 84.3081V84.8689H235.685V83.8486H239.895V83.7541C239.877 83.4297 239.809 83.1144 239.692 82.8081C239.579 82.5018 239.399 82.2496 239.151 82.0514C238.904 81.8532 238.566 81.7541 238.138 81.7541C237.854 81.7541 237.593 81.8149 237.354 81.9365C237.115 82.0536 236.91 82.2293 236.739 82.4635C236.568 82.6977 236.435 82.9838 236.341 83.3216C236.246 83.6595 236.199 84.0491 236.199 84.4905V84.7743C236.199 85.1212 236.246 85.4477 236.341 85.7541C236.44 86.0559 236.582 86.3216 236.766 86.5514C236.955 86.7811 237.183 86.9613 237.449 87.0919C237.719 87.2225 238.025 87.2878 238.368 87.2878C238.809 87.2878 239.183 87.1977 239.489 87.0176C239.796 86.8374 240.064 86.5964 240.293 86.2946L241.05 86.8959C240.892 87.1347 240.692 87.3622 240.449 87.5784C240.205 87.7946 239.906 87.9703 239.55 88.1054C239.199 88.2405 238.782 88.3081 238.3 88.3081ZM250.347 86.923V83.1595C250.347 82.8712 250.289 82.6212 250.172 82.4095C250.059 82.1932 249.888 82.0266 249.658 81.9095C249.428 81.7923 249.145 81.7338 248.807 81.7338C248.491 81.7338 248.214 81.7878 247.976 81.8959C247.741 82.0041 247.557 82.1459 247.422 82.3216C247.291 82.4973 247.226 82.6865 247.226 82.8892H245.976C245.976 82.6279 246.043 82.3689 246.178 82.1122C246.314 81.8554 246.507 81.6234 246.759 81.4162C247.016 81.2045 247.323 81.0378 247.678 80.9162C248.039 80.7901 248.44 80.727 248.881 80.727C249.413 80.727 249.881 80.8171 250.287 80.9973C250.696 81.1775 251.016 81.45 251.246 81.8149C251.48 82.1752 251.597 82.6279 251.597 83.173V86.5784C251.597 86.8216 251.618 87.0806 251.658 87.3554C251.703 87.6302 251.769 87.8667 251.854 88.0649V88.173H250.55C250.487 88.0288 250.437 87.8374 250.401 87.5986C250.365 87.3554 250.347 87.1302 250.347 86.923ZM250.564 83.7405L250.577 84.6189H249.314C248.958 84.6189 248.64 84.6482 248.361 84.7068C248.082 84.7608 247.847 84.8441 247.658 84.9568C247.469 85.0694 247.325 85.2113 247.226 85.3824C247.127 85.5491 247.077 85.745 247.077 85.9703C247.077 86.2 247.129 86.4095 247.232 86.5986C247.336 86.7878 247.491 86.9387 247.699 87.0514C247.91 87.1595 248.169 87.2135 248.476 87.2135C248.859 87.2135 249.196 87.1324 249.489 86.9703C249.782 86.8081 250.014 86.6099 250.185 86.3757C250.361 86.1414 250.455 85.914 250.469 85.6932L251.003 86.2946C250.971 86.4838 250.886 86.6932 250.746 86.923C250.606 87.1527 250.419 87.3734 250.185 87.5851C249.955 87.7923 249.681 87.9658 249.361 88.1054C249.046 88.2405 248.69 88.3081 248.293 88.3081C247.798 88.3081 247.363 88.2113 246.989 88.0176C246.62 87.8239 246.332 87.5649 246.124 87.2405C245.922 86.9117 245.82 86.5446 245.82 86.1392C245.82 85.7473 245.897 85.4027 246.05 85.1054C246.203 84.8036 246.424 84.5536 246.712 84.3554C247 84.1527 247.347 83.9996 247.753 83.8959C248.158 83.7923 248.611 83.7405 249.111 83.7405H250.564ZM253.557 77.7946H254.814V86.7541L254.705 88.173H253.557V77.7946ZM259.753 84.4568V84.5986C259.753 85.1302 259.69 85.6234 259.564 86.0784C259.437 86.5288 259.253 86.9207 259.01 87.2541C258.766 87.5874 258.469 87.8464 258.118 88.0311C257.766 88.2158 257.363 88.3081 256.908 88.3081C256.444 88.3081 256.037 88.2293 255.685 88.0716C255.338 87.9095 255.046 87.6775 254.807 87.3757C254.568 87.0739 254.377 86.709 254.232 86.2811C254.093 85.8532 253.996 85.3712 253.942 84.8351V84.2135C253.996 83.673 254.093 83.1887 254.232 82.7608C254.377 82.3329 254.568 81.968 254.807 81.6662C255.046 81.3599 255.338 81.1279 255.685 80.9703C256.032 80.8081 256.435 80.727 256.895 80.727C257.354 80.727 257.762 80.8171 258.118 80.9973C258.473 81.173 258.771 81.4252 259.01 81.7541C259.253 82.0829 259.437 82.477 259.564 82.9365C259.69 83.3914 259.753 83.8982 259.753 84.4568ZM258.496 84.5986V84.4568C258.496 84.0919 258.462 83.7496 258.395 83.4297C258.327 83.1054 258.219 82.8216 258.07 82.5784C257.922 82.3306 257.726 82.1369 257.482 81.9973C257.239 81.8532 256.94 81.7811 256.584 81.7811C256.269 81.7811 255.994 81.8351 255.76 81.9432C255.53 82.0514 255.334 82.1977 255.172 82.3824C255.01 82.5626 254.877 82.7698 254.773 83.0041C254.674 83.2338 254.6 83.4725 254.55 83.7203V85.3486C254.622 85.664 254.739 85.968 254.901 86.2608C255.068 86.5491 255.289 86.7856 255.564 86.9703C255.843 87.155 256.187 87.2473 256.597 87.2473C256.935 87.2473 257.223 87.1797 257.462 87.0446C257.705 86.905 257.901 86.7135 258.05 86.4703C258.203 86.227 258.316 85.9455 258.388 85.6257C258.46 85.3059 258.496 84.9635 258.496 84.5986ZM261.003 84.5986V84.4432C261.003 83.9162 261.079 83.4275 261.232 82.977C261.386 82.5221 261.606 82.1279 261.895 81.7946C262.183 81.4568 262.532 81.1955 262.942 81.0108C263.352 80.8216 263.811 80.727 264.32 80.727C264.834 80.727 265.296 80.8216 265.705 81.0108C266.12 81.1955 266.471 81.4568 266.76 81.7946C267.052 82.1279 267.275 82.5221 267.428 82.977C267.582 83.4275 267.658 83.9162 267.658 84.4432V84.5986C267.658 85.1257 267.582 85.6144 267.428 86.0649C267.275 86.5153 267.052 86.9095 266.76 87.2473C266.471 87.5806 266.122 87.8419 265.712 88.0311C265.307 88.2158 264.847 88.3081 264.334 88.3081C263.82 88.3081 263.359 88.2158 262.949 88.0311C262.539 87.8419 262.187 87.5806 261.895 87.2473C261.606 86.9095 261.386 86.5153 261.232 86.0649C261.079 85.6144 261.003 85.1257 261.003 84.5986ZM262.253 84.4432V84.5986C262.253 84.9635 262.296 85.3081 262.381 85.6324C262.467 85.9523 262.595 86.236 262.766 86.4838C262.942 86.7315 263.16 86.9275 263.422 87.0716C263.683 87.2113 263.987 87.2811 264.334 87.2811C264.676 87.2811 264.976 87.2113 265.232 87.0716C265.494 86.9275 265.71 86.7315 265.881 86.4838C266.052 86.236 266.181 85.9523 266.266 85.6324C266.356 85.3081 266.401 84.9635 266.401 84.5986V84.4432C266.401 84.0829 266.356 83.7428 266.266 83.423C266.181 83.0986 266.05 82.8126 265.874 82.5649C265.703 82.3126 265.487 82.1144 265.226 81.9703C264.969 81.8261 264.667 81.7541 264.32 81.7541C263.978 81.7541 263.676 81.8261 263.415 81.9703C263.158 82.1144 262.942 82.3126 262.766 82.5649C262.595 82.8126 262.467 83.0986 262.381 83.423C262.296 83.7428 262.253 84.0829 262.253 84.4432ZM273.699 86.4838V80.8622H274.955V88.173H273.76L273.699 86.4838ZM273.935 84.9432L274.455 84.9297C274.455 85.4162 274.404 85.8667 274.3 86.2811C274.201 86.691 274.039 87.0468 273.814 87.3486C273.588 87.6505 273.293 87.8869 272.928 88.0581C272.564 88.2248 272.12 88.3081 271.597 88.3081C271.241 88.3081 270.915 88.2563 270.618 88.1527C270.325 88.0491 270.073 87.8892 269.861 87.673C269.649 87.4568 269.485 87.1752 269.368 86.8284C269.255 86.4815 269.199 86.0649 269.199 85.5784V80.8622H270.449V85.5919C270.449 85.9207 270.485 86.1932 270.557 86.4095C270.633 86.6212 270.735 86.7901 270.861 86.9162C270.991 87.0378 271.136 87.1234 271.293 87.173C271.455 87.2225 271.622 87.2473 271.793 87.2473C272.325 87.2473 272.746 87.1459 273.057 86.9432C273.368 86.736 273.591 86.459 273.726 86.1122C273.865 85.7608 273.935 85.3712 273.935 84.9432ZM279.922 80.8622V81.8216H275.969V80.8622H279.922ZM277.307 79.0851H278.557V86.3622C278.557 86.6099 278.595 86.7968 278.672 86.923C278.748 87.0491 278.847 87.1324 278.969 87.173C279.091 87.2135 279.221 87.2338 279.361 87.2338C279.464 87.2338 279.573 87.2248 279.685 87.2068C279.802 87.1842 279.89 87.1662 279.949 87.1527L279.955 88.173C279.856 88.2045 279.726 88.2338 279.564 88.2608C279.406 88.2923 279.214 88.3081 278.989 88.3081C278.683 88.3081 278.401 88.2473 278.145 88.1257C277.888 88.0041 277.683 87.8014 277.53 87.5176C277.381 87.2293 277.307 86.8419 277.307 86.3554V79.0851ZM287.881 80.8622V81.8216H283.928V80.8622H287.881ZM285.266 79.0851H286.516V86.3622C286.516 86.6099 286.555 86.7968 286.631 86.923C286.708 87.0491 286.807 87.1324 286.928 87.173C287.05 87.2135 287.181 87.2338 287.32 87.2338C287.424 87.2338 287.532 87.2248 287.645 87.2068C287.762 87.1842 287.85 87.1662 287.908 87.1527L287.915 88.173C287.816 88.2045 287.685 88.2338 287.523 88.2608C287.365 88.2923 287.174 88.3081 286.949 88.3081C286.642 88.3081 286.361 88.2473 286.104 88.1257C285.847 88.0041 285.642 87.8014 285.489 87.5176C285.341 87.2293 285.266 86.8419 285.266 86.3554V79.0851ZM290.597 77.7946V88.173H289.347V77.7946H290.597ZM290.3 84.2405L289.78 84.2203C289.784 83.7203 289.859 83.2586 290.003 82.8351C290.147 82.4072 290.35 82.0356 290.611 81.7203C290.872 81.405 291.183 81.1617 291.543 80.9905C291.908 80.8149 292.311 80.727 292.753 80.727C293.113 80.727 293.437 80.7766 293.726 80.8757C294.014 80.9703 294.26 81.1234 294.462 81.3351C294.669 81.5468 294.827 81.8216 294.935 82.1595C295.043 82.4928 295.097 82.9005 295.097 83.3824V88.173H293.841V83.3689C293.841 82.986 293.784 82.6797 293.672 82.45C293.559 82.2158 293.395 82.0468 293.178 81.9432C292.962 81.8351 292.696 81.7811 292.381 81.7811C292.07 81.7811 291.787 81.8464 291.53 81.977C291.278 82.1077 291.059 82.2878 290.874 82.5176C290.694 82.7473 290.552 83.0108 290.449 83.3081C290.35 83.6009 290.3 83.9117 290.3 84.2405ZM300.003 88.3081C299.494 88.3081 299.032 88.2225 298.618 88.0514C298.208 87.8757 297.854 87.6302 297.557 87.3149C297.264 86.9996 297.039 86.6257 296.881 86.1932C296.723 85.7608 296.645 85.2878 296.645 84.7743V84.4905C296.645 83.8959 296.732 83.3667 296.908 82.9027C297.084 82.4342 297.323 82.0378 297.624 81.7135C297.926 81.3892 298.269 81.1437 298.651 80.977C299.034 80.8104 299.431 80.727 299.841 80.727C300.363 80.727 300.814 80.8171 301.192 80.9973C301.575 81.1775 301.888 81.4297 302.131 81.7541C302.374 82.0739 302.555 82.4523 302.672 82.8892C302.789 83.3216 302.847 83.7946 302.847 84.3081V84.8689H297.388V83.8486H301.597V83.7541C301.579 83.4297 301.512 83.1144 301.395 82.8081C301.282 82.5018 301.102 82.2496 300.854 82.0514C300.606 81.8532 300.269 81.7541 299.841 81.7541C299.557 81.7541 299.296 81.8149 299.057 81.9365C298.818 82.0536 298.613 82.2293 298.442 82.4635C298.271 82.6977 298.138 82.9838 298.043 83.3216C297.949 83.6595 297.901 84.0491 297.901 84.4905V84.7743C297.901 85.1212 297.949 85.4477 298.043 85.7541C298.142 86.0559 298.284 86.3216 298.469 86.5514C298.658 86.7811 298.886 86.9613 299.151 87.0919C299.422 87.2225 299.728 87.2878 300.07 87.2878C300.512 87.2878 300.886 87.1977 301.192 87.0176C301.498 86.8374 301.766 86.5964 301.996 86.2946L302.753 86.8959C302.595 87.1347 302.395 87.3622 302.151 87.5784C301.908 87.7946 301.609 87.9703 301.253 88.1054C300.901 88.2405 300.485 88.3081 300.003 88.3081ZM308.989 82.2676V90.9838H307.732V80.8622H308.881L308.989 82.2676ZM313.915 84.4568V84.5986C313.915 85.1302 313.852 85.6234 313.726 86.0784C313.6 86.5288 313.415 86.9207 313.172 87.2541C312.933 87.5874 312.638 87.8464 312.287 88.0311C311.935 88.2158 311.532 88.3081 311.077 88.3081C310.613 88.3081 310.203 88.2315 309.847 88.0784C309.491 87.9252 309.19 87.7023 308.942 87.4095C308.694 87.1167 308.496 86.7653 308.347 86.3554C308.203 85.9455 308.104 85.4838 308.05 84.9703V84.2135C308.104 83.673 308.205 83.1887 308.354 82.7608C308.503 82.3329 308.699 81.968 308.942 81.6662C309.19 81.3599 309.489 81.1279 309.841 80.9703C310.192 80.8081 310.597 80.727 311.057 80.727C311.516 80.727 311.924 80.8171 312.28 80.9973C312.636 81.173 312.935 81.4252 313.178 81.7541C313.422 82.0829 313.604 82.477 313.726 82.9365C313.852 83.3914 313.915 83.8982 313.915 84.4568ZM312.658 84.5986V84.4568C312.658 84.0919 312.62 83.7496 312.543 83.4297C312.467 83.1054 312.347 82.8216 312.185 82.5784C312.028 82.3306 311.825 82.1369 311.577 81.9973C311.329 81.8532 311.034 81.7811 310.692 81.7811C310.377 81.7811 310.102 81.8351 309.868 81.9432C309.638 82.0514 309.442 82.1977 309.28 82.3824C309.118 82.5626 308.985 82.7698 308.881 83.0041C308.782 83.2338 308.708 83.4725 308.658 83.7203V85.4703C308.748 85.7856 308.874 86.0829 309.037 86.3622C309.199 86.6369 309.415 86.8599 309.685 87.0311C309.955 87.1977 310.296 87.2811 310.705 87.2811C311.043 87.2811 311.334 87.2113 311.577 87.0716C311.825 86.9275 312.028 86.7315 312.185 86.4838C312.347 86.236 312.467 85.9523 312.543 85.6324C312.62 85.3081 312.658 84.9635 312.658 84.5986ZM316.868 80.8622V88.173H315.611V80.8622H316.868ZM315.516 78.923C315.516 78.7203 315.577 78.5491 315.699 78.4095C315.825 78.2698 316.009 78.2 316.253 78.2C316.491 78.2 316.674 78.2698 316.8 78.4095C316.931 78.5491 316.996 78.7203 316.996 78.923C316.996 79.1167 316.931 79.2833 316.8 79.423C316.674 79.5581 316.491 79.6257 316.253 79.6257C316.009 79.6257 315.825 79.5581 315.699 79.423C315.577 79.2833 315.516 79.1167 315.516 78.923ZM323.611 80.8622H324.746V88.0176C324.746 88.6617 324.615 89.2113 324.354 89.6662C324.093 90.1212 323.728 90.4658 323.259 90.7C322.796 90.9387 322.259 91.0581 321.651 91.0581C321.399 91.0581 321.102 91.0176 320.759 90.9365C320.422 90.8599 320.088 90.727 319.759 90.5378C319.435 90.3532 319.163 90.1032 318.942 89.7878L319.597 89.0446C319.904 89.414 320.223 89.6707 320.557 89.8149C320.895 89.959 321.228 90.0311 321.557 90.0311C321.953 90.0311 322.296 89.9568 322.584 89.8081C322.872 89.6595 323.095 89.4387 323.253 89.1459C323.415 88.8577 323.496 88.5018 323.496 88.0784V82.4703L323.611 80.8622ZM318.577 84.5986V84.4568C318.577 83.8982 318.642 83.3914 318.773 82.9365C318.908 82.477 319.1 82.0829 319.347 81.7541C319.6 81.4252 319.904 81.173 320.259 80.9973C320.615 80.8171 321.016 80.727 321.462 80.727C321.922 80.727 322.323 80.8081 322.665 80.9703C323.012 81.1279 323.305 81.3599 323.543 81.6662C323.787 81.968 323.978 82.3329 324.118 82.7608C324.257 83.1887 324.354 83.673 324.408 84.2135V84.8351C324.359 85.3712 324.262 85.8532 324.118 86.2811C323.978 86.709 323.787 87.0739 323.543 87.3757C323.305 87.6775 323.012 87.9095 322.665 88.0716C322.318 88.2293 321.913 88.3081 321.449 88.3081C321.012 88.3081 320.615 88.2158 320.259 88.0311C319.908 87.8464 319.606 87.5874 319.354 87.2541C319.102 86.9207 318.908 86.5288 318.773 86.0784C318.642 85.6234 318.577 85.1302 318.577 84.5986ZM319.827 84.4568V84.5986C319.827 84.9635 319.863 85.3059 319.935 85.6257C320.012 85.9455 320.127 86.227 320.28 86.4703C320.437 86.7135 320.638 86.905 320.881 87.0446C321.124 87.1797 321.415 87.2473 321.753 87.2473C322.167 87.2473 322.509 87.1595 322.78 86.9838C323.05 86.8081 323.264 86.5761 323.422 86.2878C323.584 85.9996 323.71 85.6865 323.8 85.3486V83.7203C323.75 83.4725 323.674 83.2338 323.57 83.0041C323.471 82.7698 323.341 82.5626 323.178 82.3824C323.021 82.1977 322.825 82.0514 322.591 81.9432C322.356 81.8351 322.082 81.7811 321.766 81.7811C321.424 81.7811 321.129 81.8532 320.881 81.9973C320.638 82.1369 320.437 82.3306 320.28 82.5784C320.127 82.8216 320.012 83.1054 319.935 83.4297C319.863 83.7496 319.827 84.0919 319.827 84.4568ZM329.678 88.3081C329.169 88.3081 328.708 88.2225 328.293 88.0514C327.883 87.8757 327.53 87.6302 327.232 87.3149C326.94 86.9996 326.714 86.6257 326.557 86.1932C326.399 85.7608 326.32 85.2878 326.32 84.7743V84.4905C326.32 83.8959 326.408 83.3667 326.584 82.9027C326.76 82.4342 326.998 82.0378 327.3 81.7135C327.602 81.3892 327.944 81.1437 328.327 80.977C328.71 80.8104 329.106 80.727 329.516 80.727C330.039 80.727 330.489 80.8171 330.868 80.9973C331.25 81.1775 331.564 81.4297 331.807 81.7541C332.05 82.0739 332.23 82.4523 332.347 82.8892C332.464 83.3216 332.523 83.7946 332.523 84.3081V84.8689H327.064V83.8486H331.273V83.7541C331.255 83.4297 331.187 83.1144 331.07 82.8081C330.958 82.5018 330.778 82.2496 330.53 82.0514C330.282 81.8532 329.944 81.7541 329.516 81.7541C329.232 81.7541 328.971 81.8149 328.732 81.9365C328.494 82.0536 328.289 82.2293 328.118 82.4635C327.946 82.6977 327.814 82.9838 327.719 83.3216C327.624 83.6595 327.577 84.0491 327.577 84.4905V84.7743C327.577 85.1212 327.624 85.4477 327.719 85.7541C327.818 86.0559 327.96 86.3216 328.145 86.5514C328.334 86.7811 328.561 86.9613 328.827 87.0919C329.097 87.2225 329.404 87.2878 329.746 87.2878C330.187 87.2878 330.561 87.1977 330.868 87.0176C331.174 86.8374 331.442 86.5964 331.672 86.2946L332.428 86.8959C332.271 87.1347 332.07 87.3622 331.827 87.5784C331.584 87.7946 331.284 87.9703 330.928 88.1054C330.577 88.2405 330.16 88.3081 329.678 88.3081ZM333.651 84.5986V84.4432C333.651 83.9162 333.728 83.4275 333.881 82.977C334.034 82.5221 334.255 82.1279 334.543 81.7946C334.832 81.4568 335.181 81.1955 335.591 81.0108C336 80.8216 336.46 80.727 336.969 80.727C337.482 80.727 337.944 80.8216 338.354 81.0108C338.769 81.1955 339.12 81.4568 339.408 81.7946C339.701 82.1279 339.924 82.5221 340.077 82.977C340.23 83.4275 340.307 83.9162 340.307 84.4432V84.5986C340.307 85.1257 340.23 85.6144 340.077 86.0649C339.924 86.5153 339.701 86.9095 339.408 87.2473C339.12 87.5806 338.771 87.8419 338.361 88.0311C337.955 88.2158 337.496 88.3081 336.982 88.3081C336.469 88.3081 336.007 88.2158 335.597 88.0311C335.187 87.8419 334.836 87.5806 334.543 87.2473C334.255 86.9095 334.034 86.5153 333.881 86.0649C333.728 85.6144 333.651 85.1257 333.651 84.5986ZM334.901 84.4432V84.5986C334.901 84.9635 334.944 85.3081 335.03 85.6324C335.115 85.9523 335.244 86.236 335.415 86.4838C335.591 86.7315 335.809 86.9275 336.07 87.0716C336.332 87.2113 336.636 87.2811 336.982 87.2811C337.325 87.2811 337.624 87.2113 337.881 87.0716C338.142 86.9275 338.359 86.7315 338.53 86.4838C338.701 86.236 338.829 85.9523 338.915 85.6324C339.005 85.3081 339.05 84.9635 339.05 84.5986V84.4432C339.05 84.0829 339.005 83.7428 338.915 83.423C338.829 83.0986 338.699 82.8126 338.523 82.5649C338.352 82.3126 338.136 82.1144 337.874 81.9703C337.618 81.8261 337.316 81.7541 336.969 81.7541C336.627 81.7541 336.325 81.8261 336.064 81.9703C335.807 82.1144 335.591 82.3126 335.415 82.5649C335.244 82.8126 335.115 83.0986 335.03 83.423C334.944 83.7428 334.901 84.0829 334.901 84.4432ZM343.124 82.423V88.173H341.874V80.8622H343.057L343.124 82.423ZM342.827 84.2405L342.307 84.2203C342.311 83.7203 342.386 83.2586 342.53 82.8351C342.674 82.4072 342.877 82.0356 343.138 81.7203C343.399 81.405 343.71 81.1617 344.07 80.9905C344.435 80.8149 344.838 80.727 345.28 80.727C345.64 80.727 345.964 80.7766 346.253 80.8757C346.541 80.9703 346.787 81.1234 346.989 81.3351C347.196 81.5468 347.354 81.8216 347.462 82.1595C347.57 82.4928 347.624 82.9005 347.624 83.3824V88.173H346.368V83.3689C346.368 82.986 346.311 82.6797 346.199 82.45C346.086 82.2158 345.922 82.0468 345.705 81.9432C345.489 81.8351 345.223 81.7811 344.908 81.7811C344.597 81.7811 344.314 81.8464 344.057 81.977C343.805 82.1077 343.586 82.2878 343.401 82.5176C343.221 82.7473 343.079 83.0108 342.976 83.3081C342.877 83.6009 342.827 83.9117 342.827 84.2405ZM173.841 98.0108V104.173H172.591V96.8622H173.807L173.841 98.0108ZM176.124 96.8216L176.118 97.9838C176.014 97.9613 175.915 97.9477 175.82 97.9432C175.73 97.9342 175.627 97.9297 175.51 97.9297C175.221 97.9297 174.967 97.9748 174.746 98.0649C174.525 98.155 174.338 98.2811 174.185 98.4432C174.032 98.6054 173.91 98.7991 173.82 99.0243C173.735 99.245 173.678 99.4883 173.651 99.7541L173.3 99.9568C173.3 99.5153 173.343 99.1009 173.428 98.7135C173.519 98.3261 173.656 97.9838 173.841 97.6865C174.025 97.3847 174.26 97.1505 174.543 96.9838C174.832 96.8126 175.174 96.727 175.57 96.727C175.66 96.727 175.764 96.7383 175.881 96.7608C175.998 96.7788 176.079 96.7991 176.124 96.8216ZM180.178 104.308C179.669 104.308 179.208 104.223 178.793 104.051C178.383 103.876 178.03 103.63 177.732 103.315C177.44 103 177.214 102.626 177.057 102.193C176.899 101.761 176.82 101.288 176.82 100.774V100.491C176.82 99.8959 176.908 99.3667 177.084 98.9027C177.26 98.4342 177.498 98.0378 177.8 97.7135C178.102 97.3892 178.444 97.1437 178.827 96.977C179.21 96.8104 179.606 96.727 180.016 96.727C180.539 96.727 180.989 96.8171 181.368 96.9973C181.75 97.1775 182.064 97.4297 182.307 97.7541C182.55 98.0739 182.73 98.4523 182.847 98.8892C182.964 99.3216 183.023 99.7946 183.023 100.308V100.869H177.564V99.8486H181.773V99.7541C181.755 99.4297 181.687 99.1144 181.57 98.8081C181.458 98.5018 181.278 98.2496 181.03 98.0514C180.782 97.8532 180.444 97.7541 180.016 97.7541C179.732 97.7541 179.471 97.8149 179.232 97.9365C178.994 98.0536 178.789 98.2293 178.618 98.4635C178.446 98.6977 178.314 98.9838 178.219 99.3216C178.124 99.6595 178.077 100.049 178.077 100.491V100.774C178.077 101.121 178.124 101.448 178.219 101.754C178.318 102.056 178.46 102.322 178.645 102.551C178.834 102.781 179.061 102.961 179.327 103.092C179.597 103.223 179.904 103.288 180.246 103.288C180.687 103.288 181.061 103.198 181.368 103.018C181.674 102.837 181.942 102.596 182.172 102.295L182.928 102.896C182.771 103.135 182.57 103.362 182.327 103.578C182.084 103.795 181.784 103.97 181.428 104.105C181.077 104.241 180.66 104.308 180.178 104.308ZM185.841 93.7946V104.173H184.584V93.7946H185.841ZM192.158 102.923V99.1595C192.158 98.8712 192.1 98.6212 191.982 98.4095C191.87 98.1932 191.699 98.0266 191.469 97.9095C191.239 97.7923 190.955 97.7338 190.618 97.7338C190.302 97.7338 190.025 97.7878 189.787 97.8959C189.552 98.0041 189.368 98.1459 189.232 98.3216C189.102 98.4973 189.037 98.6865 189.037 98.8892H187.787C187.787 98.6279 187.854 98.3689 187.989 98.1122C188.124 97.8554 188.318 97.6234 188.57 97.4162C188.827 97.2045 189.133 97.0378 189.489 96.9162C189.85 96.7901 190.25 96.727 190.692 96.727C191.223 96.727 191.692 96.8171 192.097 96.9973C192.507 97.1775 192.827 97.45 193.057 97.8149C193.291 98.1752 193.408 98.6279 193.408 99.173V102.578C193.408 102.822 193.428 103.081 193.469 103.355C193.514 103.63 193.579 103.867 193.665 104.065V104.173H192.361C192.298 104.029 192.248 103.837 192.212 103.599C192.176 103.355 192.158 103.13 192.158 102.923ZM192.374 99.7405L192.388 100.619H191.124C190.769 100.619 190.451 100.648 190.172 100.707C189.892 100.761 189.658 100.844 189.469 100.957C189.28 101.069 189.136 101.211 189.037 101.382C188.937 101.549 188.888 101.745 188.888 101.97C188.888 102.2 188.94 102.409 189.043 102.599C189.147 102.788 189.302 102.939 189.51 103.051C189.721 103.159 189.98 103.214 190.287 103.214C190.669 103.214 191.007 103.132 191.3 102.97C191.593 102.808 191.825 102.61 191.996 102.376C192.172 102.141 192.266 101.914 192.28 101.693L192.814 102.295C192.782 102.484 192.696 102.693 192.557 102.923C192.417 103.153 192.23 103.373 191.996 103.585C191.766 103.792 191.491 103.966 191.172 104.105C190.856 104.241 190.5 104.308 190.104 104.308C189.609 104.308 189.174 104.211 188.8 104.018C188.431 103.824 188.142 103.565 187.935 103.241C187.732 102.912 187.631 102.545 187.631 102.139C187.631 101.747 187.708 101.403 187.861 101.105C188.014 100.804 188.235 100.554 188.523 100.355C188.811 100.153 189.158 99.9996 189.564 99.8959C189.969 99.7923 190.422 99.7405 190.922 99.7405H192.374ZM197.32 103.416L199.354 96.8622H200.692L197.76 105.301C197.692 105.482 197.602 105.675 197.489 105.882C197.381 106.094 197.241 106.295 197.07 106.484C196.899 106.673 196.692 106.826 196.449 106.943C196.21 107.065 195.924 107.126 195.591 107.126C195.491 107.126 195.365 107.112 195.212 107.085C195.059 107.058 194.951 107.036 194.888 107.018L194.881 106.004C194.917 106.009 194.973 106.013 195.05 106.018C195.131 106.027 195.187 106.031 195.219 106.031C195.503 106.031 195.744 105.993 195.942 105.916C196.14 105.844 196.307 105.72 196.442 105.545C196.582 105.373 196.701 105.137 196.8 104.835L197.32 103.416ZM195.827 96.8622L197.726 102.538L198.05 103.855L197.151 104.315L194.462 96.8622H195.827ZM204.76 104.308C204.25 104.308 203.789 104.223 203.374 104.051C202.964 103.876 202.611 103.63 202.314 103.315C202.021 103 201.796 102.626 201.638 102.193C201.48 101.761 201.401 101.288 201.401 100.774V100.491C201.401 99.8959 201.489 99.3667 201.665 98.9027C201.841 98.4342 202.079 98.0378 202.381 97.7135C202.683 97.3892 203.025 97.1437 203.408 96.977C203.791 96.8104 204.187 96.727 204.597 96.727C205.12 96.727 205.57 96.8171 205.949 96.9973C206.332 97.1775 206.645 97.4297 206.888 97.7541C207.131 98.0739 207.311 98.4523 207.428 98.8892C207.546 99.3216 207.604 99.7946 207.604 100.308V100.869H202.145V99.8486H206.354V99.7541C206.336 99.4297 206.269 99.1144 206.151 98.8081C206.039 98.5018 205.859 98.2496 205.611 98.0514C205.363 97.8532 205.025 97.7541 204.597 97.7541C204.314 97.7541 204.052 97.8149 203.814 97.9365C203.575 98.0536 203.37 98.2293 203.199 98.4635C203.028 98.6977 202.895 98.9838 202.8 99.3216C202.705 99.6595 202.658 100.049 202.658 100.491V100.774C202.658 101.121 202.705 101.448 202.8 101.754C202.899 102.056 203.041 102.322 203.226 102.551C203.415 102.781 203.642 102.961 203.908 103.092C204.178 103.223 204.485 103.288 204.827 103.288C205.269 103.288 205.642 103.198 205.949 103.018C206.255 102.837 206.523 102.596 206.753 102.295L207.51 102.896C207.352 103.135 207.151 103.362 206.908 103.578C206.665 103.795 206.365 103.97 206.01 104.105C205.658 104.241 205.241 104.308 204.76 104.308ZM210.314 98.0108V104.173H209.064V96.8622H210.28L210.314 98.0108ZM212.597 96.8216L212.591 97.9838C212.487 97.9613 212.388 97.9477 212.293 97.9432C212.203 97.9342 212.1 97.9297 211.982 97.9297C211.694 97.9297 211.44 97.9748 211.219 98.0649C210.998 98.155 210.811 98.2811 210.658 98.4432C210.505 98.6054 210.383 98.7991 210.293 99.0243C210.208 99.245 210.151 99.4883 210.124 99.7541L209.773 99.9568C209.773 99.5153 209.816 99.1009 209.901 98.7135C209.991 98.3261 210.129 97.9838 210.314 97.6865C210.498 97.3847 210.732 97.1505 211.016 96.9838C211.305 96.8126 211.647 96.727 212.043 96.727C212.133 96.727 212.237 96.7383 212.354 96.7608C212.471 96.7788 212.552 96.7991 212.597 96.8216ZM218.01 102.234C218.01 102.054 217.969 101.887 217.888 101.734C217.811 101.576 217.651 101.434 217.408 101.308C217.169 101.177 216.809 101.065 216.327 100.97C215.922 100.885 215.555 100.783 215.226 100.666C214.901 100.549 214.624 100.407 214.395 100.241C214.169 100.074 213.996 99.8779 213.874 99.6527C213.753 99.4275 213.692 99.164 213.692 98.8622C213.692 98.5739 213.755 98.3014 213.881 98.0446C214.012 97.7878 214.194 97.5604 214.428 97.3622C214.667 97.164 214.953 97.0086 215.287 96.8959C215.62 96.7833 215.991 96.727 216.401 96.727C216.987 96.727 217.487 96.8306 217.901 97.0378C218.316 97.245 218.633 97.5221 218.854 97.8689C219.075 98.2113 219.185 98.5919 219.185 99.0108H217.935C217.935 98.8081 217.874 98.6122 217.753 98.423C217.636 98.2293 217.462 98.0694 217.232 97.9432C217.007 97.8171 216.73 97.7541 216.401 97.7541C216.055 97.7541 215.773 97.8081 215.557 97.9162C215.345 98.0198 215.19 98.1527 215.091 98.3149C214.996 98.477 214.949 98.6482 214.949 98.8284C214.949 98.9635 214.971 99.0851 215.016 99.1932C215.066 99.2968 215.151 99.3937 215.273 99.4838C215.395 99.5694 215.566 99.6505 215.787 99.727C216.007 99.8036 216.289 99.8802 216.631 99.9568C217.23 100.092 217.723 100.254 218.111 100.443C218.498 100.632 218.787 100.864 218.976 101.139C219.165 101.414 219.26 101.747 219.26 102.139C219.26 102.459 219.192 102.752 219.057 103.018C218.926 103.283 218.735 103.513 218.482 103.707C218.235 103.896 217.937 104.045 217.591 104.153C217.248 104.256 216.863 104.308 216.435 104.308C215.791 104.308 215.246 104.193 214.8 103.964C214.354 103.734 214.016 103.436 213.787 103.072C213.557 102.707 213.442 102.322 213.442 101.916H214.699C214.717 102.259 214.816 102.531 214.996 102.734C215.176 102.932 215.397 103.074 215.658 103.159C215.919 103.241 216.178 103.281 216.435 103.281C216.778 103.281 217.064 103.236 217.293 103.146C217.528 103.056 217.705 102.932 217.827 102.774C217.949 102.617 218.01 102.436 218.01 102.234ZM227.395 96.8622V97.8216H223.442V96.8622H227.395ZM224.78 95.0851H226.03V102.362C226.03 102.61 226.068 102.797 226.145 102.923C226.221 103.049 226.32 103.132 226.442 103.173C226.564 103.214 226.694 103.234 226.834 103.234C226.937 103.234 227.046 103.225 227.158 103.207C227.275 103.184 227.363 103.166 227.422 103.153L227.428 104.173C227.329 104.205 227.199 104.234 227.037 104.261C226.879 104.292 226.687 104.308 226.462 104.308C226.156 104.308 225.874 104.247 225.618 104.126C225.361 104.004 225.156 103.801 225.003 103.518C224.854 103.229 224.78 102.842 224.78 102.355V95.0851ZM230.111 93.7946V104.173H228.861V93.7946H230.111ZM229.814 100.241L229.293 100.22C229.298 99.7203 229.372 99.2586 229.516 98.8351C229.66 98.4072 229.863 98.0356 230.124 97.7203C230.386 97.405 230.696 97.1617 231.057 96.9905C231.422 96.8149 231.825 96.727 232.266 96.727C232.627 96.727 232.951 96.7766 233.239 96.8757C233.528 96.9703 233.773 97.1234 233.976 97.3351C234.183 97.5468 234.341 97.8216 234.449 98.1595C234.557 98.4928 234.611 98.9005 234.611 99.3824V104.173H233.354V99.3689C233.354 98.986 233.298 98.6797 233.185 98.45C233.073 98.2158 232.908 98.0468 232.692 97.9432C232.476 97.8351 232.21 97.7811 231.895 97.7811C231.584 97.7811 231.3 97.8464 231.043 97.977C230.791 98.1077 230.573 98.2878 230.388 98.5176C230.208 98.7473 230.066 99.0108 229.962 99.3081C229.863 99.6009 229.814 99.9117 229.814 100.241ZM240.793 102.923V99.1595C240.793 98.8712 240.735 98.6212 240.618 98.4095C240.505 98.1932 240.334 98.0266 240.104 97.9095C239.874 97.7923 239.591 97.7338 239.253 97.7338C238.937 97.7338 238.66 97.7878 238.422 97.8959C238.187 98.0041 238.003 98.1459 237.868 98.3216C237.737 98.4973 237.672 98.6865 237.672 98.8892H236.422C236.422 98.6279 236.489 98.3689 236.624 98.1122C236.76 97.8554 236.953 97.6234 237.205 97.4162C237.462 97.2045 237.769 97.0378 238.124 96.9162C238.485 96.7901 238.886 96.727 239.327 96.727C239.859 96.727 240.327 96.8171 240.732 96.9973C241.142 97.1775 241.462 97.45 241.692 97.8149C241.926 98.1752 242.043 98.6279 242.043 99.173V102.578C242.043 102.822 242.064 103.081 242.104 103.355C242.149 103.63 242.214 103.867 242.3 104.065V104.173H240.996C240.933 104.029 240.883 103.837 240.847 103.599C240.811 103.355 240.793 103.13 240.793 102.923ZM241.01 99.7405L241.023 100.619H239.76C239.404 100.619 239.086 100.648 238.807 100.707C238.528 100.761 238.293 100.844 238.104 100.957C237.915 101.069 237.771 101.211 237.672 101.382C237.573 101.549 237.523 101.745 237.523 101.97C237.523 102.2 237.575 102.409 237.678 102.599C237.782 102.788 237.937 102.939 238.145 103.051C238.356 103.159 238.615 103.214 238.922 103.214C239.305 103.214 239.642 103.132 239.935 102.97C240.228 102.808 240.46 102.61 240.631 102.376C240.807 102.141 240.901 101.914 240.915 101.693L241.449 102.295C241.417 102.484 241.332 102.693 241.192 102.923C241.052 103.153 240.865 103.373 240.631 103.585C240.401 103.792 240.127 103.966 239.807 104.105C239.491 104.241 239.136 104.308 238.739 104.308C238.244 104.308 237.809 104.211 237.435 104.018C237.066 103.824 236.778 103.565 236.57 103.241C236.368 102.912 236.266 102.545 236.266 102.139C236.266 101.747 236.343 101.403 236.496 101.105C236.649 100.804 236.87 100.554 237.158 100.355C237.446 100.153 237.793 99.9996 238.199 99.8959C238.604 99.7923 239.057 99.7405 239.557 99.7405H241.01ZM247.07 96.8622V97.8216H243.118V96.8622H247.07ZM244.455 95.0851H245.705V102.362C245.705 102.61 245.744 102.797 245.82 102.923C245.897 103.049 245.996 103.132 246.118 103.173C246.239 103.214 246.37 103.234 246.51 103.234C246.613 103.234 246.721 103.225 246.834 103.207C246.951 103.184 247.039 103.166 247.097 103.153L247.104 104.173C247.005 104.205 246.874 104.234 246.712 104.261C246.555 104.292 246.363 104.308 246.138 104.308C245.832 104.308 245.55 104.247 245.293 104.126C245.037 104.004 244.832 103.801 244.678 103.518C244.53 103.229 244.455 102.842 244.455 102.355V95.0851ZM256.226 102.234C256.226 102.054 256.185 101.887 256.104 101.734C256.028 101.576 255.868 101.434 255.624 101.308C255.386 101.177 255.025 101.065 254.543 100.97C254.138 100.885 253.771 100.783 253.442 100.666C253.118 100.549 252.841 100.407 252.611 100.241C252.386 100.074 252.212 99.8779 252.091 99.6527C251.969 99.4275 251.908 99.164 251.908 98.8622C251.908 98.5739 251.971 98.3014 252.097 98.0446C252.228 97.7878 252.41 97.5604 252.645 97.3622C252.883 97.164 253.169 97.0086 253.503 96.8959C253.836 96.7833 254.208 96.727 254.618 96.727C255.203 96.727 255.703 96.8306 256.118 97.0378C256.532 97.245 256.85 97.5221 257.07 97.8689C257.291 98.2113 257.401 98.5919 257.401 99.0108H256.151C256.151 98.8081 256.091 98.6122 255.969 98.423C255.852 98.2293 255.678 98.0694 255.449 97.9432C255.223 97.8171 254.946 97.7541 254.618 97.7541C254.271 97.7541 253.989 97.8081 253.773 97.9162C253.561 98.0198 253.406 98.1527 253.307 98.3149C253.212 98.477 253.165 98.6482 253.165 98.8284C253.165 98.9635 253.187 99.0851 253.232 99.1932C253.282 99.2968 253.368 99.3937 253.489 99.4838C253.611 99.5694 253.782 99.6505 254.003 99.727C254.223 99.8036 254.505 99.8802 254.847 99.9568C255.446 100.092 255.94 100.254 256.327 100.443C256.714 100.632 257.003 100.864 257.192 101.139C257.381 101.414 257.476 101.747 257.476 102.139C257.476 102.459 257.408 102.752 257.273 103.018C257.142 103.283 256.951 103.513 256.699 103.707C256.451 103.896 256.154 104.045 255.807 104.153C255.464 104.256 255.079 104.308 254.651 104.308C254.007 104.308 253.462 104.193 253.016 103.964C252.57 103.734 252.232 103.436 252.003 103.072C251.773 102.707 251.658 102.322 251.658 101.916H252.915C252.933 102.259 253.032 102.531 253.212 102.734C253.392 102.932 253.613 103.074 253.874 103.159C254.136 103.241 254.395 103.281 254.651 103.281C254.994 103.281 255.28 103.236 255.51 103.146C255.744 103.056 255.922 102.932 256.043 102.774C256.165 102.617 256.226 102.436 256.226 102.234ZM262.151 104.308C261.642 104.308 261.181 104.223 260.766 104.051C260.356 103.876 260.003 103.63 259.705 103.315C259.413 103 259.187 102.626 259.03 102.193C258.872 101.761 258.793 101.288 258.793 100.774V100.491C258.793 99.8959 258.881 99.3667 259.057 98.9027C259.232 98.4342 259.471 98.0378 259.773 97.7135C260.075 97.3892 260.417 97.1437 260.8 96.977C261.183 96.8104 261.579 96.727 261.989 96.727C262.512 96.727 262.962 96.8171 263.341 96.9973C263.723 97.1775 264.037 97.4297 264.28 97.7541C264.523 98.0739 264.703 98.4523 264.82 98.8892C264.937 99.3216 264.996 99.7946 264.996 100.308V100.869H259.537V99.8486H263.746V99.7541C263.728 99.4297 263.66 99.1144 263.543 98.8081C263.431 98.5018 263.25 98.2496 263.003 98.0514C262.755 97.8532 262.417 97.7541 261.989 97.7541C261.705 97.7541 261.444 97.8149 261.205 97.9365C260.967 98.0536 260.762 98.2293 260.591 98.4635C260.419 98.6977 260.287 98.9838 260.192 99.3216C260.097 99.6595 260.05 100.049 260.05 100.491V100.774C260.05 101.121 260.097 101.448 260.192 101.754C260.291 102.056 260.433 102.322 260.618 102.551C260.807 102.781 261.034 102.961 261.3 103.092C261.57 103.223 261.877 103.288 262.219 103.288C262.66 103.288 263.034 103.198 263.341 103.018C263.647 102.837 263.915 102.596 264.145 102.295L264.901 102.896C264.744 103.135 264.543 103.362 264.3 103.578C264.057 103.795 263.757 103.97 263.401 104.105C263.05 104.241 262.633 104.308 262.151 104.308ZM267.705 98.423V104.173H266.455V96.8622H267.638L267.705 98.423ZM267.408 100.241L266.888 100.22C266.892 99.7203 266.967 99.2586 267.111 98.8351C267.255 98.4072 267.458 98.0356 267.719 97.7203C267.98 97.405 268.291 97.1617 268.651 96.9905C269.016 96.8149 269.419 96.727 269.861 96.727C270.221 96.727 270.546 96.7766 270.834 96.8757C271.122 96.9703 271.368 97.1234 271.57 97.3351C271.778 97.5468 271.935 97.8216 272.043 98.1595C272.151 98.4928 272.205 98.9005 272.205 99.3824V104.173H270.949V99.3689C270.949 98.986 270.892 98.6797 270.78 98.45C270.667 98.2158 270.503 98.0468 270.287 97.9432C270.07 97.8351 269.805 97.7811 269.489 97.7811C269.178 97.7811 268.895 97.8464 268.638 97.977C268.386 98.1077 268.167 98.2878 267.982 98.5176C267.802 98.7473 267.66 99.0108 267.557 99.3081C267.458 99.6009 267.408 99.9117 267.408 100.241ZM278.712 102.754V93.7946H279.969V104.173H278.82L278.712 102.754ZM273.793 100.599V100.457C273.793 99.8982 273.861 99.3914 273.996 98.9365C274.136 98.477 274.332 98.0829 274.584 97.7541C274.841 97.4252 275.145 97.173 275.496 96.9973C275.852 96.8171 276.248 96.727 276.685 96.727C277.145 96.727 277.546 96.8081 277.888 96.9703C278.235 97.1279 278.528 97.3599 278.766 97.6662C279.01 97.968 279.201 98.3329 279.341 98.7608C279.48 99.1887 279.577 99.673 279.631 100.214V100.835C279.582 101.371 279.485 101.853 279.341 102.281C279.201 102.709 279.01 103.074 278.766 103.376C278.528 103.677 278.235 103.909 277.888 104.072C277.541 104.229 277.136 104.308 276.672 104.308C276.244 104.308 275.852 104.216 275.496 104.031C275.145 103.846 274.841 103.587 274.584 103.254C274.332 102.921 274.136 102.529 273.996 102.078C273.861 101.623 273.793 101.13 273.793 100.599ZM275.05 100.457V100.599C275.05 100.964 275.086 101.306 275.158 101.626C275.235 101.945 275.352 102.227 275.51 102.47C275.667 102.714 275.868 102.905 276.111 103.045C276.354 103.18 276.645 103.247 276.982 103.247C277.397 103.247 277.737 103.159 278.003 102.984C278.273 102.808 278.489 102.576 278.651 102.288C278.814 102 278.94 101.686 279.03 101.349V99.7203C278.976 99.4725 278.897 99.2338 278.793 99.0041C278.694 98.7698 278.564 98.5626 278.401 98.3824C278.244 98.1977 278.048 98.0514 277.814 97.9432C277.584 97.8351 277.311 97.7811 276.996 97.7811C276.654 97.7811 276.359 97.8532 276.111 97.9973C275.868 98.1369 275.667 98.3306 275.51 98.5784C275.352 98.8216 275.235 99.1054 275.158 99.4297C275.086 99.7496 275.05 100.092 275.05 100.457ZM286.591 98.3149V104.173H285.334V96.8622H286.523L286.591 98.3149ZM286.334 100.241L285.753 100.22C285.757 99.7203 285.823 99.2586 285.949 98.8351C286.075 98.4072 286.262 98.0356 286.51 97.7203C286.757 97.405 287.066 97.1617 287.435 96.9905C287.805 96.8149 288.232 96.727 288.719 96.727C289.061 96.727 289.377 96.7766 289.665 96.8757C289.953 96.9703 290.203 97.1212 290.415 97.3284C290.627 97.5356 290.791 97.8014 290.908 98.1257C291.025 98.45 291.084 98.8419 291.084 99.3014V104.173H289.834V99.3622C289.834 98.9793 289.769 98.673 289.638 98.4432C289.512 98.2135 289.332 98.0468 289.097 97.9432C288.863 97.8351 288.588 97.7811 288.273 97.7811C287.904 97.7811 287.595 97.8464 287.347 97.977C287.1 98.1077 286.901 98.2878 286.753 98.5176C286.604 98.7473 286.496 99.0108 286.428 99.3081C286.365 99.6009 286.334 99.9117 286.334 100.241ZM291.07 99.5514L290.232 99.8081C290.237 99.4072 290.302 99.0221 290.428 98.6527C290.559 98.2833 290.746 97.9545 290.989 97.6662C291.237 97.3779 291.541 97.1505 291.901 96.9838C292.262 96.8126 292.674 96.727 293.138 96.727C293.53 96.727 293.877 96.7788 294.178 96.8824C294.485 96.986 294.741 97.1459 294.949 97.3622C295.16 97.5739 295.32 97.8464 295.428 98.1797C295.537 98.5131 295.591 98.9095 295.591 99.3689V104.173H294.334V99.3554C294.334 98.9455 294.269 98.6279 294.138 98.4027C294.012 98.173 293.832 98.0131 293.597 97.923C293.368 97.8284 293.093 97.7811 292.773 97.7811C292.498 97.7811 292.255 97.8284 292.043 97.923C291.832 98.0176 291.654 98.1482 291.51 98.3149C291.365 98.477 291.255 98.664 291.178 98.8757C291.106 99.0874 291.07 99.3126 291.07 99.5514ZM300.516 104.308C300.007 104.308 299.546 104.223 299.131 104.051C298.721 103.876 298.368 103.63 298.07 103.315C297.778 103 297.552 102.626 297.395 102.193C297.237 101.761 297.158 101.288 297.158 100.774V100.491C297.158 99.8959 297.246 99.3667 297.422 98.9027C297.597 98.4342 297.836 98.0378 298.138 97.7135C298.44 97.3892 298.782 97.1437 299.165 96.977C299.548 96.8104 299.944 96.727 300.354 96.727C300.877 96.727 301.327 96.8171 301.705 96.9973C302.088 97.1775 302.401 97.4297 302.645 97.7541C302.888 98.0739 303.068 98.4523 303.185 98.8892C303.302 99.3216 303.361 99.7946 303.361 100.308V100.869H297.901V99.8486H302.111V99.7541C302.093 99.4297 302.025 99.1144 301.908 98.8081C301.796 98.5018 301.615 98.2496 301.368 98.0514C301.12 97.8532 300.782 97.7541 300.354 97.7541C300.07 97.7541 299.809 97.8149 299.57 97.9365C299.332 98.0536 299.127 98.2293 298.955 98.4635C298.784 98.6977 298.651 98.9838 298.557 99.3216C298.462 99.6595 298.415 100.049 298.415 100.491V100.774C298.415 101.121 298.462 101.448 298.557 101.754C298.656 102.056 298.798 102.322 298.982 102.551C299.172 102.781 299.399 102.961 299.665 103.092C299.935 103.223 300.241 103.288 300.584 103.288C301.025 103.288 301.399 103.198 301.705 103.018C302.012 102.837 302.28 102.596 302.509 102.295L303.266 102.896C303.109 103.135 302.908 103.362 302.665 103.578C302.422 103.795 302.122 103.97 301.766 104.105C301.415 104.241 300.998 104.308 300.516 104.308ZM309.077 102.234C309.077 102.054 309.037 101.887 308.955 101.734C308.879 101.576 308.719 101.434 308.476 101.308C308.237 101.177 307.877 101.065 307.395 100.97C306.989 100.885 306.622 100.783 306.293 100.666C305.969 100.549 305.692 100.407 305.462 100.241C305.237 100.074 305.064 99.8779 304.942 99.6527C304.82 99.4275 304.76 99.164 304.76 98.8622C304.76 98.5739 304.823 98.3014 304.949 98.0446C305.079 97.7878 305.262 97.5604 305.496 97.3622C305.735 97.164 306.021 97.0086 306.354 96.8959C306.687 96.7833 307.059 96.727 307.469 96.727C308.055 96.727 308.555 96.8306 308.969 97.0378C309.383 97.245 309.701 97.5221 309.922 97.8689C310.142 98.2113 310.253 98.5919 310.253 99.0108H309.003C309.003 98.8081 308.942 98.6122 308.82 98.423C308.703 98.2293 308.53 98.0694 308.3 97.9432C308.075 97.8171 307.798 97.7541 307.469 97.7541C307.122 97.7541 306.841 97.8081 306.624 97.9162C306.413 98.0198 306.257 98.1527 306.158 98.3149C306.064 98.477 306.016 98.6482 306.016 98.8284C306.016 98.9635 306.039 99.0851 306.084 99.1932C306.133 99.2968 306.219 99.3937 306.341 99.4838C306.462 99.5694 306.633 99.6505 306.854 99.727C307.075 99.8036 307.356 99.8802 307.699 99.9568C308.298 100.092 308.791 100.254 309.178 100.443C309.566 100.632 309.854 100.864 310.043 101.139C310.232 101.414 310.327 101.747 310.327 102.139C310.327 102.459 310.26 102.752 310.124 103.018C309.994 103.283 309.802 103.513 309.55 103.707C309.302 103.896 309.005 104.045 308.658 104.153C308.316 104.256 307.931 104.308 307.503 104.308C306.859 104.308 306.314 104.193 305.868 103.964C305.422 103.734 305.084 103.436 304.854 103.072C304.624 102.707 304.51 102.322 304.51 101.916H305.766C305.784 102.259 305.883 102.531 306.064 102.734C306.244 102.932 306.464 103.074 306.726 103.159C306.987 103.241 307.246 103.281 307.503 103.281C307.845 103.281 308.131 103.236 308.361 103.146C308.595 103.056 308.773 102.932 308.895 102.774C309.016 102.617 309.077 102.436 309.077 102.234ZM316.226 102.234C316.226 102.054 316.185 101.887 316.104 101.734C316.028 101.576 315.868 101.434 315.624 101.308C315.386 101.177 315.025 101.065 314.543 100.97C314.138 100.885 313.771 100.783 313.442 100.666C313.118 100.549 312.841 100.407 312.611 100.241C312.386 100.074 312.212 99.8779 312.091 99.6527C311.969 99.4275 311.908 99.164 311.908 98.8622C311.908 98.5739 311.971 98.3014 312.097 98.0446C312.228 97.7878 312.41 97.5604 312.645 97.3622C312.883 97.164 313.169 97.0086 313.503 96.8959C313.836 96.7833 314.208 96.727 314.618 96.727C315.203 96.727 315.703 96.8306 316.118 97.0378C316.532 97.245 316.85 97.5221 317.07 97.8689C317.291 98.2113 317.401 98.5919 317.401 99.0108H316.151C316.151 98.8081 316.091 98.6122 315.969 98.423C315.852 98.2293 315.678 98.0694 315.449 97.9432C315.223 97.8171 314.946 97.7541 314.618 97.7541C314.271 97.7541 313.989 97.8081 313.773 97.9162C313.561 98.0198 313.406 98.1527 313.307 98.3149C313.212 98.477 313.165 98.6482 313.165 98.8284C313.165 98.9635 313.187 99.0851 313.232 99.1932C313.282 99.2968 313.368 99.3937 313.489 99.4838C313.611 99.5694 313.782 99.6505 314.003 99.727C314.223 99.8036 314.505 99.8802 314.847 99.9568C315.446 100.092 315.94 100.254 316.327 100.443C316.714 100.632 317.003 100.864 317.192 101.139C317.381 101.414 317.476 101.747 317.476 102.139C317.476 102.459 317.408 102.752 317.273 103.018C317.142 103.283 316.951 103.513 316.699 103.707C316.451 103.896 316.154 104.045 315.807 104.153C315.464 104.256 315.079 104.308 314.651 104.308C314.007 104.308 313.462 104.193 313.016 103.964C312.57 103.734 312.232 103.436 312.003 103.072C311.773 102.707 311.658 102.322 311.658 101.916H312.915C312.933 102.259 313.032 102.531 313.212 102.734C313.392 102.932 313.613 103.074 313.874 103.159C314.136 103.241 314.395 103.281 314.651 103.281C314.994 103.281 315.28 103.236 315.51 103.146C315.744 103.056 315.922 102.932 316.043 102.774C316.165 102.617 316.226 102.436 316.226 102.234ZM323.428 102.923V99.1595C323.428 98.8712 323.37 98.6212 323.253 98.4095C323.14 98.1932 322.969 98.0266 322.739 97.9095C322.51 97.7923 322.226 97.7338 321.888 97.7338C321.573 97.7338 321.296 97.7878 321.057 97.8959C320.823 98.0041 320.638 98.1459 320.503 98.3216C320.372 98.4973 320.307 98.6865 320.307 98.8892H319.057C319.057 98.6279 319.124 98.3689 319.26 98.1122C319.395 97.8554 319.588 97.6234 319.841 97.4162C320.097 97.2045 320.404 97.0378 320.76 96.9162C321.12 96.7901 321.521 96.727 321.962 96.727C322.494 96.727 322.962 96.8171 323.368 96.9973C323.778 97.1775 324.097 97.45 324.327 97.8149C324.561 98.1752 324.678 98.6279 324.678 99.173V102.578C324.678 102.822 324.699 103.081 324.739 103.355C324.784 103.63 324.85 103.867 324.935 104.065V104.173H323.631C323.568 104.029 323.519 103.837 323.482 103.599C323.446 103.355 323.428 103.13 323.428 102.923ZM323.645 99.7405L323.658 100.619H322.395C322.039 100.619 321.721 100.648 321.442 100.707C321.163 100.761 320.928 100.844 320.739 100.957C320.55 101.069 320.406 101.211 320.307 101.382C320.208 101.549 320.158 101.745 320.158 101.97C320.158 102.2 320.21 102.409 320.314 102.599C320.417 102.788 320.573 102.939 320.78 103.051C320.991 103.159 321.251 103.214 321.557 103.214C321.94 103.214 322.278 103.132 322.57 102.97C322.863 102.808 323.095 102.61 323.266 102.376C323.442 102.141 323.537 101.914 323.55 101.693L324.084 102.295C324.052 102.484 323.967 102.693 323.827 102.923C323.687 103.153 323.501 103.373 323.266 103.585C323.037 103.792 322.762 103.966 322.442 104.105C322.127 104.241 321.771 104.308 321.374 104.308C320.879 104.308 320.444 104.211 320.07 104.018C319.701 103.824 319.413 103.565 319.205 103.241C319.003 102.912 318.901 102.545 318.901 102.139C318.901 101.747 318.978 101.403 319.131 101.105C319.284 100.804 319.505 100.554 319.793 100.355C320.082 100.153 320.428 99.9996 320.834 99.8959C321.239 99.7923 321.692 99.7405 322.192 99.7405H323.645ZM331.381 96.8622H332.516V104.018C332.516 104.662 332.386 105.211 332.124 105.666C331.863 106.121 331.498 106.466 331.03 106.7C330.566 106.939 330.03 107.058 329.422 107.058C329.169 107.058 328.872 107.018 328.53 106.936C328.192 106.86 327.859 106.727 327.53 106.538C327.205 106.353 326.933 106.103 326.712 105.788L327.368 105.045C327.674 105.414 327.994 105.671 328.327 105.815C328.665 105.959 328.998 106.031 329.327 106.031C329.723 106.031 330.066 105.957 330.354 105.808C330.642 105.659 330.865 105.439 331.023 105.146C331.185 104.858 331.266 104.502 331.266 104.078V98.4703L331.381 96.8622ZM326.347 100.599V100.457C326.347 99.8982 326.413 99.3914 326.543 98.9365C326.678 98.477 326.87 98.0829 327.118 97.7541C327.37 97.4252 327.674 97.173 328.03 96.9973C328.386 96.8171 328.787 96.727 329.232 96.727C329.692 96.727 330.093 96.8081 330.435 96.9703C330.782 97.1279 331.075 97.3599 331.314 97.6662C331.557 97.968 331.748 98.3329 331.888 98.7608C332.028 99.1887 332.124 99.673 332.178 100.214V100.835C332.129 101.371 332.032 101.853 331.888 102.281C331.748 102.709 331.557 103.074 331.314 103.376C331.075 103.677 330.782 103.909 330.435 104.072C330.088 104.229 329.683 104.308 329.219 104.308C328.782 104.308 328.386 104.216 328.03 104.031C327.678 103.846 327.377 103.587 327.124 103.254C326.872 102.921 326.678 102.529 326.543 102.078C326.413 101.623 326.347 101.13 326.347 100.599ZM327.597 100.457V100.599C327.597 100.964 327.633 101.306 327.705 101.626C327.782 101.945 327.897 102.227 328.05 102.47C328.208 102.714 328.408 102.905 328.651 103.045C328.895 103.18 329.185 103.247 329.523 103.247C329.937 103.247 330.28 103.159 330.55 102.984C330.82 102.808 331.034 102.576 331.192 102.288C331.354 102 331.48 101.686 331.57 101.349V99.7203C331.521 99.4725 331.444 99.2338 331.341 99.0041C331.241 98.7698 331.111 98.5626 330.949 98.3824C330.791 98.1977 330.595 98.0514 330.361 97.9432C330.127 97.8351 329.852 97.7811 329.537 97.7811C329.194 97.7811 328.899 97.8532 328.651 97.9973C328.408 98.1369 328.208 98.3306 328.05 98.5784C327.897 98.8216 327.782 99.1054 327.705 99.4297C327.633 99.7496 327.597 100.092 327.597 100.457ZM337.449 104.308C336.94 104.308 336.478 104.223 336.064 104.051C335.654 103.876 335.3 103.63 335.003 103.315C334.71 103 334.485 102.626 334.327 102.193C334.169 101.761 334.091 101.288 334.091 100.774V100.491C334.091 99.8959 334.178 99.3667 334.354 98.9027C334.53 98.4342 334.769 98.0378 335.07 97.7135C335.372 97.3892 335.714 97.1437 336.097 96.977C336.48 96.8104 336.877 96.727 337.287 96.727C337.809 96.727 338.26 96.8171 338.638 96.9973C339.021 97.1775 339.334 97.4297 339.577 97.7541C339.82 98.0739 340 98.4523 340.118 98.8892C340.235 99.3216 340.293 99.7946 340.293 100.308V100.869H334.834V99.8486H339.043V99.7541C339.025 99.4297 338.958 99.1144 338.841 98.8081C338.728 98.5018 338.548 98.2496 338.3 98.0514C338.052 97.8532 337.714 97.7541 337.287 97.7541C337.003 97.7541 336.741 97.8149 336.503 97.9365C336.264 98.0536 336.059 98.2293 335.888 98.4635C335.717 98.6977 335.584 98.9838 335.489 99.3216C335.395 99.6595 335.347 100.049 335.347 100.491V100.774C335.347 101.121 335.395 101.448 335.489 101.754C335.588 102.056 335.73 102.322 335.915 102.551C336.104 102.781 336.332 102.961 336.597 103.092C336.868 103.223 337.174 103.288 337.516 103.288C337.958 103.288 338.332 103.198 338.638 103.018C338.944 102.837 339.212 102.596 339.442 102.295L340.199 102.896C340.041 103.135 339.841 103.362 339.597 103.578C339.354 103.795 339.055 103.97 338.699 104.105C338.347 104.241 337.931 104.308 337.449 104.308ZM346.01 102.234C346.01 102.054 345.969 101.887 345.888 101.734C345.811 101.576 345.651 101.434 345.408 101.308C345.169 101.177 344.809 101.065 344.327 100.97C343.922 100.885 343.555 100.783 343.226 100.666C342.901 100.549 342.624 100.407 342.395 100.241C342.169 100.074 341.996 99.8779 341.874 99.6527C341.753 99.4275 341.692 99.164 341.692 98.8622C341.692 98.5739 341.755 98.3014 341.881 98.0446C342.012 97.7878 342.194 97.5604 342.428 97.3622C342.667 97.164 342.953 97.0086 343.287 96.8959C343.62 96.7833 343.991 96.727 344.401 96.727C344.987 96.727 345.487 96.8306 345.901 97.0378C346.316 97.245 346.633 97.5221 346.854 97.8689C347.075 98.2113 347.185 98.5919 347.185 99.0108H345.935C345.935 98.8081 345.874 98.6122 345.753 98.423C345.636 98.2293 345.462 98.0694 345.232 97.9432C345.007 97.8171 344.73 97.7541 344.401 97.7541C344.055 97.7541 343.773 97.8081 343.557 97.9162C343.345 98.0198 343.19 98.1527 343.091 98.3149C342.996 98.477 342.949 98.6482 342.949 98.8284C342.949 98.9635 342.971 99.0851 343.016 99.1932C343.066 99.2968 343.151 99.3937 343.273 99.4838C343.395 99.5694 343.566 99.6505 343.787 99.727C344.007 99.8036 344.289 99.8802 344.631 99.9568C345.23 100.092 345.723 100.254 346.111 100.443C346.498 100.632 346.787 100.864 346.976 101.139C347.165 101.414 347.26 101.747 347.26 102.139C347.26 102.459 347.192 102.752 347.057 103.018C346.926 103.283 346.735 103.513 346.482 103.707C346.235 103.896 345.937 104.045 345.591 104.153C345.248 104.256 344.863 104.308 344.435 104.308C343.791 104.308 343.246 104.193 342.8 103.964C342.354 103.734 342.016 103.436 341.787 103.072C341.557 102.707 341.442 102.322 341.442 101.916H342.699C342.717 102.259 342.816 102.531 342.996 102.734C343.176 102.932 343.397 103.074 343.658 103.159C343.919 103.241 344.178 103.281 344.435 103.281C344.778 103.281 345.064 103.236 345.293 103.146C345.528 103.056 345.705 102.932 345.827 102.774C345.949 102.617 346.01 102.436 346.01 102.234ZM175.516 119.281C175.814 119.281 176.088 119.22 176.341 119.099C176.593 118.977 176.8 118.81 176.962 118.599C177.124 118.382 177.217 118.137 177.239 117.862H178.428C178.406 118.295 178.26 118.698 177.989 119.072C177.723 119.441 177.374 119.741 176.942 119.97C176.51 120.195 176.034 120.308 175.516 120.308C174.967 120.308 174.487 120.211 174.077 120.018C173.672 119.824 173.334 119.558 173.064 119.22C172.798 118.882 172.597 118.495 172.462 118.058C172.332 117.617 172.266 117.15 172.266 116.659V116.376C172.266 115.885 172.332 115.421 172.462 114.984C172.597 114.542 172.798 114.153 173.064 113.815C173.334 113.477 173.672 113.211 174.077 113.018C174.487 112.824 174.967 112.727 175.516 112.727C176.088 112.727 176.588 112.844 177.016 113.078C177.444 113.308 177.78 113.623 178.023 114.024C178.271 114.421 178.406 114.871 178.428 115.376H177.239C177.217 115.074 177.131 114.801 176.982 114.558C176.838 114.315 176.64 114.121 176.388 113.977C176.14 113.828 175.85 113.754 175.516 113.754C175.133 113.754 174.811 113.831 174.55 113.984C174.293 114.132 174.088 114.335 173.935 114.592C173.787 114.844 173.678 115.126 173.611 115.436C173.548 115.743 173.516 116.056 173.516 116.376V116.659C173.516 116.979 173.548 117.295 173.611 117.605C173.674 117.916 173.78 118.198 173.928 118.45C174.082 118.702 174.287 118.905 174.543 119.058C174.805 119.207 175.129 119.281 175.516 119.281ZM181.084 114.011V120.173H179.834V112.862H181.05L181.084 114.011ZM183.368 112.822L183.361 113.984C183.257 113.961 183.158 113.948 183.064 113.943C182.973 113.934 182.87 113.93 182.753 113.93C182.464 113.93 182.21 113.975 181.989 114.065C181.769 114.155 181.582 114.281 181.428 114.443C181.275 114.605 181.154 114.799 181.064 115.024C180.978 115.245 180.922 115.488 180.895 115.754L180.543 115.957C180.543 115.515 180.586 115.101 180.672 114.714C180.762 114.326 180.899 113.984 181.084 113.686C181.269 113.385 181.503 113.15 181.787 112.984C182.075 112.813 182.417 112.727 182.814 112.727C182.904 112.727 183.007 112.738 183.124 112.761C183.241 112.779 183.323 112.799 183.368 112.822ZM184.057 116.599V116.443C184.057 115.916 184.133 115.427 184.287 114.977C184.44 114.522 184.66 114.128 184.949 113.795C185.237 113.457 185.586 113.195 185.996 113.011C186.406 112.822 186.865 112.727 187.374 112.727C187.888 112.727 188.35 112.822 188.76 113.011C189.174 113.195 189.525 113.457 189.814 113.795C190.106 114.128 190.329 114.522 190.482 114.977C190.636 115.427 190.712 115.916 190.712 116.443V116.599C190.712 117.126 190.636 117.614 190.482 118.065C190.329 118.515 190.106 118.909 189.814 119.247C189.525 119.581 189.176 119.842 188.766 120.031C188.361 120.216 187.901 120.308 187.388 120.308C186.874 120.308 186.413 120.216 186.003 120.031C185.593 119.842 185.241 119.581 184.949 119.247C184.66 118.909 184.44 118.515 184.287 118.065C184.133 117.614 184.057 117.126 184.057 116.599ZM185.307 116.443V116.599C185.307 116.964 185.35 117.308 185.435 117.632C185.521 117.952 185.649 118.236 185.82 118.484C185.996 118.732 186.214 118.927 186.476 119.072C186.737 119.211 187.041 119.281 187.388 119.281C187.73 119.281 188.03 119.211 188.287 119.072C188.548 118.927 188.764 118.732 188.935 118.484C189.106 118.236 189.235 117.952 189.32 117.632C189.41 117.308 189.455 116.964 189.455 116.599V116.443C189.455 116.083 189.41 115.743 189.32 115.423C189.235 115.099 189.104 114.813 188.928 114.565C188.757 114.313 188.541 114.114 188.28 113.97C188.023 113.826 187.721 113.754 187.374 113.754C187.032 113.754 186.73 113.826 186.469 113.97C186.212 114.114 185.996 114.313 185.82 114.565C185.649 114.813 185.521 115.099 185.435 115.423C185.35 115.743 185.307 116.083 185.307 116.443ZM196.537 118.234C196.537 118.054 196.496 117.887 196.415 117.734C196.338 117.576 196.178 117.434 195.935 117.308C195.696 117.177 195.336 117.065 194.854 116.97C194.449 116.885 194.082 116.783 193.753 116.666C193.428 116.549 193.151 116.407 192.922 116.241C192.696 116.074 192.523 115.878 192.401 115.653C192.28 115.427 192.219 115.164 192.219 114.862C192.219 114.574 192.282 114.301 192.408 114.045C192.539 113.788 192.721 113.56 192.955 113.362C193.194 113.164 193.48 113.009 193.814 112.896C194.147 112.783 194.519 112.727 194.928 112.727C195.514 112.727 196.014 112.831 196.428 113.038C196.843 113.245 197.16 113.522 197.381 113.869C197.602 114.211 197.712 114.592 197.712 115.011H196.462C196.462 114.808 196.401 114.612 196.28 114.423C196.163 114.229 195.989 114.069 195.76 113.943C195.534 113.817 195.257 113.754 194.928 113.754C194.582 113.754 194.3 113.808 194.084 113.916C193.872 114.02 193.717 114.153 193.618 114.315C193.523 114.477 193.476 114.648 193.476 114.828C193.476 114.964 193.498 115.085 193.543 115.193C193.593 115.297 193.678 115.394 193.8 115.484C193.922 115.569 194.093 115.65 194.314 115.727C194.534 115.804 194.816 115.88 195.158 115.957C195.757 116.092 196.25 116.254 196.638 116.443C197.025 116.632 197.314 116.864 197.503 117.139C197.692 117.414 197.787 117.747 197.787 118.139C197.787 118.459 197.719 118.752 197.584 119.018C197.453 119.283 197.262 119.513 197.01 119.707C196.762 119.896 196.464 120.045 196.118 120.153C195.775 120.256 195.39 120.308 194.962 120.308C194.318 120.308 193.773 120.193 193.327 119.964C192.881 119.734 192.543 119.436 192.314 119.072C192.084 118.707 191.969 118.322 191.969 117.916H193.226C193.244 118.259 193.343 118.531 193.523 118.734C193.703 118.932 193.924 119.074 194.185 119.159C194.446 119.241 194.705 119.281 194.962 119.281C195.305 119.281 195.591 119.236 195.82 119.146C196.055 119.056 196.232 118.932 196.354 118.774C196.476 118.617 196.537 118.436 196.537 118.234ZM203.685 118.234C203.685 118.054 203.645 117.887 203.564 117.734C203.487 117.576 203.327 117.434 203.084 117.308C202.845 117.177 202.485 117.065 202.003 116.97C201.597 116.885 201.23 116.783 200.901 116.666C200.577 116.549 200.3 116.407 200.07 116.241C199.845 116.074 199.672 115.878 199.55 115.653C199.428 115.427 199.368 115.164 199.368 114.862C199.368 114.574 199.431 114.301 199.557 114.045C199.687 113.788 199.87 113.56 200.104 113.362C200.343 113.164 200.629 113.009 200.962 112.896C201.296 112.783 201.667 112.727 202.077 112.727C202.663 112.727 203.163 112.831 203.577 113.038C203.991 113.245 204.309 113.522 204.53 113.869C204.75 114.211 204.861 114.592 204.861 115.011H203.611C203.611 114.808 203.55 114.612 203.428 114.423C203.311 114.229 203.138 114.069 202.908 113.943C202.683 113.817 202.406 113.754 202.077 113.754C201.73 113.754 201.449 113.808 201.232 113.916C201.021 114.02 200.865 114.153 200.766 114.315C200.672 114.477 200.624 114.648 200.624 114.828C200.624 114.964 200.647 115.085 200.692 115.193C200.741 115.297 200.827 115.394 200.949 115.484C201.07 115.569 201.241 115.65 201.462 115.727C201.683 115.804 201.964 115.88 202.307 115.957C202.906 116.092 203.399 116.254 203.787 116.443C204.174 116.632 204.462 116.864 204.651 117.139C204.841 117.414 204.935 117.747 204.935 118.139C204.935 118.459 204.868 118.752 204.732 119.018C204.602 119.283 204.41 119.513 204.158 119.707C203.91 119.896 203.613 120.045 203.266 120.153C202.924 120.256 202.539 120.308 202.111 120.308C201.467 120.308 200.922 120.193 200.476 119.964C200.03 119.734 199.692 119.436 199.462 119.072C199.232 118.707 199.118 118.322 199.118 117.916H200.374C200.392 118.259 200.491 118.531 200.672 118.734C200.852 118.932 201.073 119.074 201.334 119.159C201.595 119.241 201.854 119.281 202.111 119.281C202.453 119.281 202.739 119.236 202.969 119.146C203.203 119.056 203.381 118.932 203.503 118.774C203.624 118.617 203.685 118.436 203.685 118.234ZM212.935 119.281C213.232 119.281 213.507 119.22 213.759 119.099C214.012 118.977 214.219 118.81 214.381 118.599C214.543 118.382 214.636 118.137 214.658 117.862H215.847C215.825 118.295 215.678 118.698 215.408 119.072C215.142 119.441 214.793 119.741 214.361 119.97C213.928 120.195 213.453 120.308 212.935 120.308C212.386 120.308 211.906 120.211 211.496 120.018C211.091 119.824 210.753 119.558 210.482 119.22C210.217 118.882 210.016 118.495 209.881 118.058C209.75 117.617 209.685 117.15 209.685 116.659V116.376C209.685 115.885 209.75 115.421 209.881 114.984C210.016 114.542 210.217 114.153 210.482 113.815C210.753 113.477 211.091 113.211 211.496 113.018C211.906 112.824 212.386 112.727 212.935 112.727C213.507 112.727 214.007 112.844 214.435 113.078C214.863 113.308 215.199 113.623 215.442 114.024C215.69 114.421 215.825 114.871 215.847 115.376H214.658C214.636 115.074 214.55 114.801 214.401 114.558C214.257 114.315 214.059 114.121 213.807 113.977C213.559 113.828 213.269 113.754 212.935 113.754C212.552 113.754 212.23 113.831 211.969 113.984C211.712 114.132 211.507 114.335 211.354 114.592C211.205 114.844 211.097 115.126 211.03 115.436C210.967 115.743 210.935 116.056 210.935 116.376V116.659C210.935 116.979 210.967 117.295 211.03 117.605C211.093 117.916 211.199 118.198 211.347 118.45C211.5 118.702 211.705 118.905 211.962 119.058C212.223 119.207 212.548 119.281 212.935 119.281ZM218.503 109.795V120.173H217.253V109.795H218.503ZM218.205 116.241L217.685 116.22C217.69 115.72 217.764 115.259 217.908 114.835C218.052 114.407 218.255 114.036 218.516 113.72C218.778 113.405 219.088 113.162 219.449 112.991C219.814 112.815 220.217 112.727 220.658 112.727C221.019 112.727 221.343 112.777 221.631 112.876C221.919 112.97 222.165 113.123 222.368 113.335C222.575 113.547 222.732 113.822 222.841 114.159C222.949 114.493 223.003 114.9 223.003 115.382V120.173H221.746V115.369C221.746 114.986 221.69 114.68 221.577 114.45C221.464 114.216 221.3 114.047 221.084 113.943C220.868 113.835 220.602 113.781 220.287 113.781C219.976 113.781 219.692 113.846 219.435 113.977C219.183 114.108 218.964 114.288 218.78 114.518C218.6 114.747 218.458 115.011 218.354 115.308C218.255 115.601 218.205 115.912 218.205 116.241ZM229.185 118.923V115.159C229.185 114.871 229.127 114.621 229.009 114.409C228.897 114.193 228.726 114.027 228.496 113.909C228.266 113.792 227.982 113.734 227.645 113.734C227.329 113.734 227.052 113.788 226.814 113.896C226.579 114.004 226.395 114.146 226.259 114.322C226.129 114.497 226.064 114.686 226.064 114.889H224.814C224.814 114.628 224.881 114.369 225.016 114.112C225.151 113.855 225.345 113.623 225.597 113.416C225.854 113.205 226.16 113.038 226.516 112.916C226.877 112.79 227.278 112.727 227.719 112.727C228.25 112.727 228.719 112.817 229.124 112.997C229.534 113.177 229.854 113.45 230.084 113.815C230.318 114.175 230.435 114.628 230.435 115.173V118.578C230.435 118.822 230.455 119.081 230.496 119.355C230.541 119.63 230.606 119.867 230.692 120.065V120.173H229.388C229.325 120.029 229.275 119.837 229.239 119.599C229.203 119.355 229.185 119.13 229.185 118.923ZM229.401 115.741L229.415 116.619H228.151C227.796 116.619 227.478 116.648 227.199 116.707C226.919 116.761 226.685 116.844 226.496 116.957C226.307 117.069 226.163 117.211 226.064 117.382C225.964 117.549 225.915 117.745 225.915 117.97C225.915 118.2 225.967 118.409 226.07 118.599C226.174 118.788 226.329 118.939 226.537 119.051C226.748 119.159 227.007 119.214 227.314 119.214C227.696 119.214 228.034 119.132 228.327 118.97C228.62 118.808 228.852 118.61 229.023 118.376C229.199 118.141 229.293 117.914 229.307 117.693L229.841 118.295C229.809 118.484 229.723 118.693 229.584 118.923C229.444 119.153 229.257 119.373 229.023 119.585C228.793 119.792 228.519 119.966 228.199 120.105C227.883 120.241 227.528 120.308 227.131 120.308C226.636 120.308 226.201 120.211 225.827 120.018C225.458 119.824 225.169 119.565 224.962 119.241C224.759 118.912 224.658 118.545 224.658 118.139C224.658 117.747 224.735 117.403 224.888 117.105C225.041 116.804 225.262 116.554 225.55 116.355C225.838 116.153 226.185 116 226.591 115.896C226.996 115.792 227.449 115.741 227.949 115.741H229.401ZM233.759 112.862V120.173H232.503V112.862H233.759ZM232.408 110.923C232.408 110.72 232.469 110.549 232.591 110.409C232.717 110.27 232.901 110.2 233.145 110.2C233.383 110.2 233.566 110.27 233.692 110.409C233.823 110.549 233.888 110.72 233.888 110.923C233.888 111.117 233.823 111.283 233.692 111.423C233.566 111.558 233.383 111.626 233.145 111.626C232.901 111.626 232.717 111.558 232.591 111.423C232.469 111.283 232.408 111.117 232.408 110.923ZM237.016 114.423V120.173H235.766V112.862H236.949L237.016 114.423ZM236.719 116.241L236.199 116.22C236.203 115.72 236.278 115.259 236.422 114.835C236.566 114.407 236.769 114.036 237.03 113.72C237.291 113.405 237.602 113.162 237.962 112.991C238.327 112.815 238.73 112.727 239.172 112.727C239.532 112.727 239.856 112.777 240.145 112.876C240.433 112.97 240.678 113.123 240.881 113.335C241.088 113.547 241.246 113.822 241.354 114.159C241.462 114.493 241.516 114.9 241.516 115.382V120.173H240.259V115.369C240.259 114.986 240.203 114.68 240.091 114.45C239.978 114.216 239.814 114.047 239.597 113.943C239.381 113.835 239.115 113.781 238.8 113.781C238.489 113.781 238.205 113.846 237.949 113.977C237.696 114.108 237.478 114.288 237.293 114.518C237.113 114.747 236.971 115.011 236.868 115.308C236.769 115.601 236.719 115.912 236.719 116.241ZM243.435 119.511C243.435 119.299 243.5 119.121 243.631 118.977C243.766 118.828 243.96 118.754 244.212 118.754C244.464 118.754 244.656 118.828 244.787 118.977C244.922 119.121 244.989 119.299 244.989 119.511C244.989 119.718 244.922 119.894 244.787 120.038C244.656 120.182 244.464 120.254 244.212 120.254C243.96 120.254 243.766 120.182 243.631 120.038C243.5 119.894 243.435 119.718 243.435 119.511Z" fill="#2C2C2C"/>
<path d="M180.429 57.3401H175.75V54.3886H180.429C181.153 54.3886 181.741 54.2709 182.195 54.0354C182.649 53.7916 182.981 53.4552 183.192 53.0264C183.402 52.5975 183.507 52.114 183.507 51.5758C183.507 51.0293 183.402 50.5205 183.192 50.0496C182.981 49.5787 182.649 49.2003 182.195 48.9144C181.741 48.6285 181.153 48.4856 180.429 48.4856H177.062V63.8865H173.278V45.5214H180.429C181.867 45.5214 183.099 45.7821 184.125 46.3035C185.159 46.8164 185.95 47.527 186.496 48.4351C187.043 49.3433 187.316 50.3818 187.316 51.5506C187.316 52.7363 187.043 53.7622 186.496 54.6283C185.95 55.4944 185.159 56.1629 184.125 56.6338C183.099 57.1047 181.867 57.3401 180.429 57.3401ZM193.535 50.2388V63.8865H189.889V50.2388H193.535ZM189.662 46.6819C189.662 46.1521 189.847 45.7148 190.217 45.3701C190.587 45.0253 191.083 44.8529 191.706 44.8529C192.32 44.8529 192.811 45.0253 193.181 45.3701C193.56 45.7148 193.749 46.1521 193.749 46.6819C193.749 47.2116 193.56 47.6489 193.181 47.9936C192.811 48.3384 192.32 48.5108 191.706 48.5108C191.083 48.5108 190.587 48.3384 190.217 47.9936C189.847 47.6489 189.662 47.2116 189.662 46.6819ZM205.177 50.2388H208.469V63.4324C208.469 64.6769 208.191 65.7322 207.636 66.5983C207.09 67.4729 206.325 68.133 205.341 68.5786C204.357 69.0327 203.213 69.2598 201.91 69.2598C201.338 69.2598 200.733 69.1841 200.094 69.0327C199.463 68.8814 198.857 68.6459 198.277 68.3264C197.705 68.0068 197.226 67.6032 196.839 67.1155L198.441 64.9712C198.862 65.4589 199.349 65.8373 199.904 66.1064C200.459 66.3839 201.073 66.5227 201.746 66.5227C202.402 66.5227 202.957 66.4007 203.411 66.1569C203.865 65.9214 204.214 65.5725 204.458 65.11C204.702 64.6559 204.824 64.1051 204.824 63.4576V53.3922L205.177 50.2388ZM195.994 57.2266V56.9617C195.994 55.919 196.12 54.973 196.373 54.1237C196.633 53.266 196.999 52.5303 197.47 51.9164C197.949 51.3026 198.53 50.8274 199.211 50.4911C199.892 50.1547 200.661 49.9866 201.519 49.9866C202.427 49.9866 203.188 50.1547 203.802 50.4911C204.416 50.8274 204.92 51.3068 205.316 51.929C205.711 52.5429 206.018 53.2702 206.236 54.1111C206.463 54.9436 206.64 55.856 206.766 56.8482V57.4284C206.64 58.3786 206.451 59.2616 206.198 60.0772C205.946 60.8929 205.614 61.6077 205.202 62.2215C204.79 62.827 204.277 63.2979 203.663 63.6342C203.058 63.9706 202.335 64.1387 201.494 64.1387C200.653 64.1387 199.892 63.9664 199.211 63.6216C198.538 63.2768 197.962 62.7933 197.483 62.1711C197.003 61.5488 196.633 60.8172 196.373 59.9763C196.12 59.1354 195.994 58.2189 195.994 57.2266ZM199.627 56.9617V57.2266C199.627 57.79 199.682 58.3156 199.791 58.8033C199.9 59.291 200.068 59.7241 200.295 60.1025C200.531 60.4725 200.821 60.7626 201.166 60.9728C201.519 61.1746 201.935 61.2755 202.414 61.2755C203.079 61.2755 203.621 61.1368 204.042 60.8593C204.462 60.5734 204.777 60.1824 204.988 59.6862C205.198 59.1901 205.32 58.6183 205.353 57.9708V56.3185C205.337 55.7887 205.265 55.3136 205.139 54.8932C205.013 54.4643 204.836 54.0985 204.609 53.7958C204.382 53.4931 204.088 53.2576 203.726 53.0894C203.365 52.9213 202.936 52.8372 202.44 52.8372C201.96 52.8372 201.544 52.9465 201.191 53.1651C200.846 53.3753 200.556 53.6655 200.321 54.0354C200.094 54.4054 199.921 54.8427 199.803 55.3472C199.686 55.8434 199.627 56.3815 199.627 56.9617ZM217.576 64.1387C216.516 64.1387 215.566 63.9706 214.725 63.6342C213.884 63.2894 213.169 62.8143 212.581 62.2089C212.001 61.6035 211.555 60.9013 211.244 60.1025C210.933 59.2952 210.777 58.4375 210.777 57.5293V57.0248C210.777 55.9905 210.924 55.0445 211.219 54.1868C211.513 53.3291 211.933 52.5849 212.48 51.9542C213.035 51.3236 213.708 50.8401 214.498 50.5037C215.288 50.1589 216.18 49.9866 217.172 49.9866C218.139 49.9866 218.997 50.1463 219.745 50.4659C220.494 50.7854 221.12 51.2395 221.625 51.8281C222.138 52.4167 222.524 53.1231 222.785 53.9472C223.046 54.7628 223.176 55.671 223.176 56.6716V58.1852H212.329V55.7635H219.606V55.486C219.606 54.9814 219.514 54.5316 219.329 54.1364C219.152 53.7327 218.883 53.4132 218.522 53.1777C218.16 52.9423 217.698 52.8246 217.134 52.8246C216.655 52.8246 216.243 52.9297 215.898 53.1399C215.553 53.3501 215.272 53.6444 215.053 54.0228C214.843 54.4012 214.683 54.8469 214.574 55.3598C214.473 55.8644 214.422 56.4194 214.422 57.0248V57.5293C214.422 58.0759 214.498 58.5805 214.649 59.0429C214.809 59.5054 215.032 59.9049 215.318 60.2412C215.612 60.5776 215.965 60.8382 216.377 61.0232C216.798 61.2082 217.273 61.3007 217.803 61.3007C218.459 61.3007 219.068 61.1746 219.632 60.9223C220.203 60.6617 220.695 60.2706 221.107 59.7493L222.873 61.6665C222.587 62.0786 222.196 62.4738 221.7 62.8522C221.213 63.2306 220.624 63.5417 219.934 63.7856C219.245 64.021 218.459 64.1387 217.576 64.1387ZM224.664 57.2014V56.9365C224.664 55.9359 224.807 55.0151 225.093 54.1742C225.379 53.3249 225.795 52.5891 226.342 51.9669C226.889 51.3446 227.561 50.8611 228.36 50.5163C229.159 50.1631 230.076 49.9866 231.11 49.9866C232.144 49.9866 233.065 50.1631 233.872 50.5163C234.679 50.8611 235.356 51.3446 235.903 51.9669C236.458 52.5891 236.878 53.3249 237.164 54.1742C237.45 55.0151 237.593 55.9359 237.593 56.9365V57.2014C237.593 58.1936 237.45 59.1144 237.164 59.9637C236.878 60.8046 236.458 61.5404 235.903 62.1711C235.356 62.7933 234.684 63.2768 233.885 63.6216C233.086 63.9664 232.169 64.1387 231.135 64.1387C230.101 64.1387 229.18 63.9664 228.373 63.6216C227.574 63.2768 226.897 62.7933 226.342 62.1711C225.795 61.5404 225.379 60.8046 225.093 59.9637C224.807 59.1144 224.664 58.1936 224.664 57.2014ZM228.297 56.9365V57.2014C228.297 57.7732 228.348 58.3072 228.448 58.8033C228.549 59.2994 228.709 59.7367 228.928 60.1151C229.155 60.4851 229.449 60.7752 229.811 60.9854C230.172 61.1956 230.614 61.3007 231.135 61.3007C231.64 61.3007 232.073 61.1956 232.434 60.9854C232.796 60.7752 233.086 60.4851 233.305 60.1151C233.523 59.7367 233.683 59.2994 233.784 58.8033C233.893 58.3072 233.948 57.7732 233.948 57.2014V56.9365C233.948 56.3815 233.893 55.8602 233.784 55.3725C233.683 54.8763 233.519 54.4391 233.292 54.0607C233.073 53.6739 232.783 53.3711 232.422 53.1525C232.06 52.9339 231.623 52.8246 231.11 52.8246C230.597 52.8246 230.16 52.9339 229.798 53.1525C229.445 53.3711 229.155 53.6739 228.928 54.0607C228.709 54.4391 228.549 54.8763 228.448 55.3725C228.348 55.8602 228.297 56.3815 228.297 56.9365ZM243.383 53.1525V63.8865H239.75V50.2388H243.156L243.383 53.1525ZM242.853 56.5833H241.869C241.869 55.5743 241.999 54.6661 242.26 53.8589C242.521 53.0432 242.887 52.3495 243.357 51.7777C243.828 51.1974 244.387 50.756 245.035 50.4533C245.691 50.1421 246.422 49.9866 247.23 49.9866C247.869 49.9866 248.453 50.0791 248.983 50.2641C249.513 50.449 249.967 50.7434 250.345 51.147C250.732 51.5506 251.026 52.0846 251.228 52.7489C251.438 53.4132 251.543 54.2246 251.543 55.1833V63.8865H247.886V55.1706C247.886 54.5652 247.802 54.0943 247.633 53.758C247.465 53.4216 247.217 53.1861 246.889 53.0516C246.57 52.9087 246.174 52.8372 245.703 52.8372C245.216 52.8372 244.791 52.9339 244.43 53.1273C244.076 53.3207 243.782 53.5898 243.547 53.9345C243.32 54.2709 243.147 54.6661 243.029 55.1202C242.912 55.5743 242.853 56.062 242.853 56.5833ZM264.371 53.2156V63.8865H260.739V50.2388H264.157L264.371 53.2156ZM268.483 50.1505L268.42 53.5183C268.244 53.4931 268.029 53.472 267.777 53.4552C267.533 53.43 267.31 53.4174 267.108 53.4174C266.595 53.4174 266.15 53.4847 265.771 53.6192C265.401 53.7453 265.09 53.9345 264.838 54.1868C264.594 54.4391 264.409 54.746 264.283 55.1076C264.165 55.4692 264.098 55.8812 264.081 56.3437L263.35 56.1166C263.35 55.2337 263.438 54.4223 263.614 53.6823C263.791 52.9339 264.048 52.2822 264.384 51.7272C264.729 51.1722 265.149 50.7434 265.645 50.4406C266.141 50.1379 266.709 49.9866 267.348 49.9866C267.55 49.9866 267.756 50.0034 267.966 50.037C268.176 50.0622 268.349 50.1001 268.483 50.1505ZM276.228 64.1387C275.168 64.1387 274.218 63.9706 273.377 63.6342C272.536 63.2894 271.822 62.8143 271.233 62.2089C270.653 61.6035 270.207 60.9013 269.896 60.1025C269.585 59.2952 269.429 58.4375 269.429 57.5293V57.0248C269.429 55.9905 269.576 55.0445 269.871 54.1868C270.165 53.3291 270.585 52.5849 271.132 51.9542C271.687 51.3236 272.36 50.8401 273.15 50.5037C273.941 50.1589 274.832 49.9866 275.824 49.9866C276.791 49.9866 277.649 50.1463 278.397 50.4659C279.146 50.7854 279.772 51.2395 280.277 51.8281C280.79 52.4167 281.176 53.1231 281.437 53.9472C281.698 54.7628 281.828 55.671 281.828 56.6716V58.1852H270.981V55.7635H278.259V55.486C278.259 54.9814 278.166 54.5316 277.981 54.1364C277.804 53.7327 277.535 53.4132 277.174 53.1777C276.812 52.9423 276.35 52.8246 275.786 52.8246C275.307 52.8246 274.895 52.9297 274.55 53.1399C274.205 53.3501 273.924 53.6444 273.705 54.0228C273.495 54.4012 273.335 54.8469 273.226 55.3598C273.125 55.8644 273.074 56.4194 273.074 57.0248V57.5293C273.074 58.0759 273.15 58.5805 273.302 59.0429C273.461 59.5054 273.684 59.9049 273.97 60.2412C274.264 60.5776 274.618 60.8382 275.03 61.0232C275.45 61.2082 275.925 61.3007 276.455 61.3007C277.111 61.3007 277.72 61.1746 278.284 60.9223C278.856 60.6617 279.348 60.2706 279.76 59.7493L281.525 61.6665C281.24 62.0786 280.848 62.4738 280.352 62.8522C279.865 63.2306 279.276 63.5417 278.587 63.7856C277.897 64.021 277.111 64.1387 276.228 64.1387ZM287.731 44.5124V63.8865H284.086V44.5124H287.731ZM298.099 60.8088V54.7292C298.099 54.2919 298.028 53.9177 297.885 53.6066C297.742 53.2871 297.519 53.039 297.216 52.8624C296.922 52.6858 296.54 52.5975 296.069 52.5975C295.665 52.5975 295.316 52.669 295.022 52.812C294.727 52.9465 294.5 53.1441 294.341 53.4048C294.181 53.657 294.101 53.9556 294.101 54.3003H290.468C290.468 53.7201 290.603 53.1693 290.872 52.648C291.141 52.1266 291.532 51.6683 292.045 51.2731C292.558 50.8695 293.168 50.5542 293.874 50.3271C294.589 50.1001 295.387 49.9866 296.27 49.9866C297.33 49.9866 298.272 50.1631 299.096 50.5163C299.92 50.8695 300.567 51.3993 301.038 52.1056C301.518 52.812 301.757 53.6949 301.757 54.7544V60.5944C301.757 61.3428 301.803 61.9566 301.896 62.4359C301.988 62.9068 302.123 63.3189 302.3 63.672V63.8865H298.629C298.453 63.5165 298.318 63.054 298.225 62.499C298.141 61.9356 298.099 61.3722 298.099 60.8088ZM298.579 55.5743L298.604 57.6303H296.573C296.094 57.6303 295.678 57.6849 295.324 57.7942C294.971 57.9035 294.681 58.0591 294.454 58.2609C294.227 58.4543 294.059 58.6814 293.95 58.942C293.849 59.2027 293.798 59.4886 293.798 59.7997C293.798 60.1109 293.87 60.3926 294.013 60.6448C294.156 60.8887 294.362 61.0821 294.631 61.2251C294.9 61.3596 295.215 61.4269 295.577 61.4269C296.123 61.4269 296.598 61.3176 297.002 61.0989C297.406 60.8803 297.717 60.6112 297.935 60.2917C298.162 59.9721 298.28 59.6694 298.289 59.3835L299.247 60.9223C299.113 61.2671 298.928 61.6245 298.692 61.9945C298.465 62.3645 298.175 62.7134 297.822 63.0414C297.469 63.3609 297.044 63.6258 296.548 63.836C296.052 64.0378 295.463 64.1387 294.782 64.1387C293.916 64.1387 293.13 63.9664 292.423 63.6216C291.725 63.2684 291.17 62.7849 290.758 62.1711C290.355 61.5488 290.153 60.8425 290.153 60.052C290.153 59.3373 290.287 58.7024 290.557 58.1474C290.826 57.5924 291.221 57.1257 291.742 56.7473C292.272 56.3605 292.932 56.0704 293.723 55.877C294.513 55.6752 295.43 55.5743 296.472 55.5743H298.579ZM308.404 62.3476L312.025 50.2388H315.922L310.435 65.9425C310.317 66.2872 310.158 66.6572 309.956 67.0524C309.763 67.4476 309.498 67.8218 309.161 68.175C308.833 68.5366 308.417 68.8309 307.913 69.0579C307.416 69.285 306.807 69.3985 306.084 69.3985C305.739 69.3985 305.457 69.3775 305.239 69.3354C305.02 69.2934 304.759 69.2345 304.456 69.1589V66.4974C304.549 66.4974 304.646 66.4974 304.747 66.4974C304.848 66.5058 304.944 66.5101 305.037 66.5101C305.516 66.5101 305.907 66.4554 306.21 66.3461C306.512 66.2368 306.756 66.0686 306.941 65.8415C307.126 65.6229 307.273 65.337 307.383 64.9838L308.404 62.3476ZM306.891 50.2388L309.855 60.1277L310.372 63.9748L307.9 64.2396L302.993 50.2388H306.891ZM323.477 64.1387C322.418 64.1387 321.468 63.9706 320.627 63.6342C319.786 63.2894 319.071 62.8143 318.483 62.2089C317.902 61.6035 317.457 60.9013 317.146 60.1025C316.834 59.2952 316.679 58.4375 316.679 57.5293V57.0248C316.679 55.9905 316.826 55.0445 317.12 54.1868C317.415 53.3291 317.835 52.5849 318.382 51.9542C318.937 51.3236 319.609 50.8401 320.4 50.5037C321.19 50.1589 322.082 49.9866 323.074 49.9866C324.041 49.9866 324.899 50.1463 325.647 50.4659C326.395 50.7854 327.022 51.2395 327.526 51.8281C328.039 52.4167 328.426 53.1231 328.687 53.9472C328.947 54.7628 329.078 55.671 329.078 56.6716V58.1852H318.23V55.7635H325.508V55.486C325.508 54.9814 325.416 54.5316 325.231 54.1364C325.054 53.7327 324.785 53.4132 324.423 53.1777C324.062 52.9423 323.599 52.8246 323.036 52.8246C322.557 52.8246 322.145 52.9297 321.8 53.1399C321.455 53.3501 321.173 53.6444 320.955 54.0228C320.745 54.4012 320.585 54.8469 320.475 55.3598C320.375 55.8644 320.324 56.4194 320.324 57.0248V57.5293C320.324 58.0759 320.4 58.5805 320.551 59.0429C320.711 59.5054 320.934 59.9049 321.22 60.2412C321.514 60.5776 321.867 60.8382 322.279 61.0232C322.7 61.2082 323.175 61.3007 323.704 61.3007C324.36 61.3007 324.97 61.1746 325.533 60.9223C326.105 60.6617 326.597 60.2706 327.009 59.7493L328.775 61.6665C328.489 62.0786 328.098 62.4738 327.602 62.8522C327.114 63.2306 326.526 63.5417 325.836 63.7856C325.147 64.021 324.36 64.1387 323.477 64.1387ZM334.779 53.2156V63.8865H331.146V50.2388H334.565L334.779 53.2156ZM338.891 50.1505L338.828 53.5183C338.651 53.4931 338.437 53.472 338.185 53.4552C337.941 53.43 337.718 53.4174 337.516 53.4174C337.003 53.4174 336.557 53.4847 336.179 53.6192C335.809 53.7453 335.498 53.9345 335.246 54.1868C335.002 54.4391 334.817 54.746 334.691 55.1076C334.573 55.4692 334.506 55.8812 334.489 56.3437L333.757 56.1166C333.757 55.2337 333.846 54.4223 334.022 53.6823C334.199 52.9339 334.455 52.2822 334.792 51.7272C335.136 51.1722 335.557 50.7434 336.053 50.4406C336.549 50.1379 337.117 49.9866 337.756 49.9866C337.958 49.9866 338.164 50.0034 338.374 50.037C338.584 50.0622 338.756 50.1001 338.891 50.1505Z" fill="#2C2C2C"/>
<path d="M408.301 32.8757L405.458 33.0871L407.426 17.2814L394.746 29.2957L392.984 27.4541L405.663 15.4398L389.699 16.6254L390.051 13.8114L408.658 12.4266L408.385 14.6168L410.597 14.4524L408.301 32.8757Z" fill="#FF62C4"/>
<path d="M136 63.0954C136 58.8458 132.562 55.4655 128.457 55.4655C124.352 55.4655 120.915 58.9428 120.915 63.0954C120.915 66.0893 122.633 68.6005 125.02 69.953C123.874 75.4577 119.387 77.9689 113.085 80.8664C111.558 81.5424 110.03 82.3152 108.597 83.088V60.5838C111.175 59.4245 113.085 56.7206 113.085 53.6299C113.085 49.3803 109.648 46 105.543 46C101.342 46 98 49.4772 98 53.6299C98 56.7207 99.8143 59.4251 102.488 60.5838V94.7748V88.9795V96.4162C99.91 97.5755 98 100.279 98 103.37C98 107.62 101.437 111 105.543 111C109.744 111 113.085 107.523 113.085 103.37C113.085 100.279 111.271 97.5749 108.597 96.4162V91.8766C108.597 89.945 111.271 88.5925 115.663 86.5646C121.773 83.7638 129.794 79.997 131.321 70.2423C134.091 69.0836 136 66.3792 136 63.0958L136 63.0954ZM105.542 49.8635C107.643 49.8635 109.266 51.6018 109.266 53.6303C109.266 55.7551 107.547 57.3971 105.542 57.3971C103.442 57.3971 101.818 55.6587 101.818 53.6303C101.819 51.6018 103.442 49.8635 105.542 49.8635ZM105.542 107.137C103.442 107.137 101.818 105.399 101.818 103.371C101.818 101.246 103.537 99.6037 105.542 99.6037C107.643 99.6037 109.266 101.342 109.266 103.371C109.266 105.495 107.547 107.137 105.542 107.137ZM128.457 66.959C126.357 66.959 124.734 65.2206 124.734 63.1922C124.734 61.0673 126.452 59.4254 128.457 59.4254C130.463 59.4254 132.181 61.1637 132.181 63.1922C132.181 65.2206 130.558 66.959 128.457 66.959Z" fill="#FF62C4"/>
</svg>
