<svg width="440" height="166" viewBox="0 0 440 166" fill="none" xmlns="http://www.w3.org/2000/svg">
<rect x="438.66" y="10.8811" width="154.292" height="416.519" rx="7.61081" transform="rotate(90 438.66 10.8811)" fill="#F1D1E5" stroke="#F1D1E5" stroke-width="1.38378"/>
<rect x="426.897" y="1.19459" width="154.292" height="426.205" rx="7.61081" transform="rotate(90 426.897 1.19459)" fill="white" stroke="#F1D1E5" stroke-width="1.38378"/>
<path d="M128.106 90.2865V80.2226H129.624V88.9794H134.184V90.2865H128.106ZM139.052 90.4388C138.308 90.4388 137.667 90.2799 137.13 89.9622C136.596 89.6411 136.183 89.1907 135.892 88.6108C135.604 88.0277 135.459 87.3446 135.459 86.5617C135.459 85.7885 135.604 85.1071 135.892 84.5175C136.183 83.9278 136.59 83.4675 137.111 83.1366C137.635 82.8057 138.247 82.6403 138.948 82.6403C139.374 82.6403 139.787 82.7107 140.187 82.8516C140.586 82.9925 140.945 83.2136 141.263 83.515C141.581 83.8164 141.831 84.2079 142.015 84.6894C142.198 85.1677 142.29 85.7492 142.29 86.4339V86.9548H136.29V85.8541H140.85C140.85 85.4675 140.771 85.1252 140.614 84.827C140.457 84.5256 140.236 84.2881 139.951 84.1145C139.669 83.9409 139.338 83.8541 138.958 83.8541C138.545 83.8541 138.185 83.9556 137.877 84.1587C137.572 84.3586 137.337 84.6207 137.17 84.945C137.006 85.266 136.924 85.6149 136.924 85.9917V86.8516C136.924 87.3561 137.012 87.7853 137.189 88.1391C137.369 88.4929 137.62 88.7632 137.941 88.9499C138.262 89.1333 138.637 89.2251 139.066 89.2251C139.345 89.2251 139.599 89.1858 139.828 89.1071C140.057 89.0252 140.256 88.904 140.423 88.7435C140.59 88.583 140.717 88.3848 140.806 88.1489L142.197 88.3995C142.085 88.809 141.885 89.1677 141.597 89.4757C141.312 89.7804 140.953 90.0179 140.521 90.1882C140.092 90.3553 139.602 90.4388 139.052 90.4388ZM146.117 90.4536C145.638 90.4536 145.206 90.3651 144.819 90.1882C144.433 90.008 144.127 89.7476 143.9 89.4069C143.678 89.0662 143.566 88.6485 143.566 88.1538C143.566 87.7279 143.648 87.3774 143.812 87.1022C143.976 86.827 144.197 86.6092 144.475 86.4487C144.754 86.2881 145.065 86.1669 145.409 86.085C145.753 86.0031 146.104 85.9409 146.461 85.8983C146.913 85.8459 147.28 85.8033 147.561 85.7705C147.843 85.7345 148.048 85.6772 148.176 85.5985C148.303 85.5199 148.367 85.3921 148.367 85.2152V85.1808C148.367 84.7517 148.246 84.4192 148.004 84.1833C147.765 83.9474 147.407 83.8295 146.932 83.8295C146.438 83.8295 146.048 83.9392 145.763 84.1587C145.481 84.375 145.286 84.6157 145.178 84.8811L143.797 84.5666C143.961 84.108 144.2 83.7378 144.515 83.456C144.833 83.171 145.198 82.9646 145.611 82.8369C146.023 82.7058 146.457 82.6403 146.913 82.6403C147.214 82.6403 147.534 82.6763 147.871 82.7484C148.212 82.8172 148.529 82.945 148.824 83.1317C149.122 83.3184 149.367 83.5854 149.557 83.9327C149.747 84.2767 149.842 84.7238 149.842 85.2742V90.2865H148.407V89.2546H148.348C148.253 89.4446 148.11 89.6313 147.92 89.8148C147.73 89.9982 147.486 90.1505 147.188 90.2718C146.89 90.393 146.533 90.4536 146.117 90.4536ZM146.436 89.2742C146.842 89.2742 147.19 89.194 147.478 89.0334C147.769 88.8729 147.991 88.6632 148.141 88.4044C148.295 88.1424 148.372 87.8623 148.372 87.5641V86.5912C148.32 86.6436 148.218 86.6927 148.068 86.7386C147.92 86.7812 147.751 86.8188 147.561 86.8516C147.371 86.8811 147.186 86.9089 147.006 86.9351C146.826 86.9581 146.675 86.9777 146.554 86.9941C146.269 87.0302 146.009 87.0908 145.773 87.1759C145.54 87.2611 145.353 87.384 145.213 87.5445C145.075 87.7017 145.006 87.9114 145.006 88.1735C145.006 88.5371 145.14 88.8123 145.409 88.999C145.678 89.1825 146.02 89.2742 146.436 89.2742ZM151.799 90.2865V82.7386H153.219V83.9376H153.297C153.435 83.5314 153.677 83.212 154.025 82.9794C154.375 82.7435 154.772 82.6256 155.214 82.6256C155.305 82.6256 155.414 82.6288 155.538 82.6354C155.666 82.6419 155.766 82.6501 155.838 82.66V84.0654C155.779 84.049 155.674 84.031 155.523 84.0113C155.373 83.9884 155.222 83.9769 155.071 83.9769C154.724 83.9769 154.414 84.0506 154.143 84.198C153.874 84.3422 153.661 84.5437 153.504 84.8025C153.346 85.058 153.268 85.3496 153.268 85.6772V90.2865H151.799ZM158.579 85.8049V90.2865H157.109V82.7386H158.52V83.9671H158.613C158.787 83.5674 159.059 83.2464 159.429 83.0039C159.802 82.7615 160.272 82.6403 160.839 82.6403C161.353 82.6403 161.804 82.7484 162.19 82.9646C162.577 83.1776 162.877 83.4953 163.09 83.9179C163.303 84.3406 163.409 84.8631 163.409 85.4855V90.2865H161.94V85.6624C161.94 85.1153 161.797 84.6878 161.512 84.3799C161.227 84.0686 160.836 83.913 160.338 83.913C159.997 83.913 159.694 83.9867 159.429 84.1342C159.167 84.2816 158.959 84.4978 158.805 84.7828C158.654 85.0645 158.579 85.4053 158.579 85.8049ZM169.042 90.2865V82.7386H170.452V83.9671H170.545C170.703 83.551 170.96 83.2267 171.317 82.9941C171.674 82.7582 172.102 82.6403 172.6 82.6403C173.104 82.6403 173.527 82.7582 173.867 82.9941C174.211 83.23 174.465 83.5543 174.629 83.9671H174.708C174.888 83.5641 175.174 83.2431 175.568 83.0039C175.961 82.7615 176.429 82.6403 176.973 82.6403C177.658 82.6403 178.216 82.8549 178.649 83.284C179.084 83.7132 179.302 84.3602 179.302 85.2251V90.2865H177.833V85.3627C177.833 84.8516 177.694 84.4814 177.415 84.2521C177.137 84.0228 176.804 83.9081 176.418 83.9081C175.939 83.9081 175.568 84.0555 175.302 84.3504C175.037 84.6419 174.904 85.017 174.904 85.4757V90.2865H173.44V85.2693C173.44 84.8598 173.312 84.5306 173.057 84.2816C172.801 84.0326 172.468 83.9081 172.059 83.9081C171.781 83.9081 171.523 83.9818 171.287 84.1293C171.055 84.2734 170.867 84.4749 170.722 84.7337C170.581 84.9925 170.511 85.2922 170.511 85.6329V90.2865H169.042ZM184.451 90.4388C183.743 90.4388 183.126 90.2767 182.598 89.9523C182.071 89.628 181.661 89.1743 181.37 88.5912C181.078 88.008 180.932 87.3266 180.932 86.5469C180.932 85.764 181.078 85.0793 181.37 84.4929C181.661 83.9065 182.071 83.4511 182.598 83.1268C183.126 82.8025 183.743 82.6403 184.451 82.6403C185.158 82.6403 185.776 82.8025 186.303 83.1268C186.831 83.4511 187.24 83.9065 187.532 84.4929C187.824 85.0793 187.969 85.764 187.969 86.5469C187.969 87.3266 187.824 88.008 187.532 88.5912C187.24 89.1743 186.831 89.628 186.303 89.9523C185.776 90.2767 185.158 90.4388 184.451 90.4388ZM184.456 89.2054C184.914 89.2054 185.294 89.0842 185.596 88.8418C185.897 88.5994 186.12 88.2767 186.264 87.8737C186.412 87.4708 186.485 87.0269 186.485 86.542C186.485 86.0605 186.412 85.6182 186.264 85.2152C186.12 84.809 185.897 84.4831 185.596 84.2374C185.294 83.9917 184.914 83.8688 184.456 83.8688C183.994 83.8688 183.611 83.9917 183.306 84.2374C183.005 84.4831 182.78 84.809 182.633 85.2152C182.489 85.6182 182.416 86.0605 182.416 86.542C182.416 87.0269 182.489 87.4708 182.633 87.8737C182.78 88.2767 183.005 88.5994 183.306 88.8418C183.611 89.0842 183.994 89.2054 184.456 89.2054ZM189.609 90.2865V82.7386H191.029V83.9376H191.108C191.246 83.5314 191.488 83.212 191.835 82.9794C192.186 82.7435 192.582 82.6256 193.025 82.6256C193.116 82.6256 193.224 82.6288 193.349 82.6354C193.477 82.6419 193.577 82.6501 193.649 82.66V84.0654C193.59 84.049 193.485 84.031 193.334 84.0113C193.183 83.9884 193.033 83.9769 192.882 83.9769C192.535 83.9769 192.225 84.0506 191.953 84.198C191.685 84.3422 191.472 84.5437 191.314 84.8025C191.157 85.058 191.079 85.3496 191.079 85.6772V90.2865H189.609ZM197.903 90.4388C197.159 90.4388 196.519 90.2799 195.982 89.9622C195.448 89.6411 195.035 89.1907 194.743 88.6108C194.455 88.0277 194.311 87.3446 194.311 86.5617C194.311 85.7885 194.455 85.1071 194.743 84.5175C195.035 83.9278 195.441 83.4675 195.962 83.1366C196.486 82.8057 197.099 82.6403 197.8 82.6403C198.226 82.6403 198.638 82.7107 199.038 82.8516C199.438 82.9925 199.796 83.2136 200.114 83.515C200.432 83.8164 200.683 84.2079 200.866 84.6894C201.05 85.1677 201.141 85.7492 201.141 86.4339V86.9548H195.141V85.8541H199.701C199.701 85.4675 199.623 85.1252 199.466 84.827C199.308 84.5256 199.087 84.2881 198.802 84.1145C198.52 83.9409 198.19 83.8541 197.81 83.8541C197.397 83.8541 197.036 83.9556 196.729 84.1587C196.424 84.3586 196.188 84.6207 196.021 84.945C195.857 85.266 195.775 85.6149 195.775 85.9917V86.8516C195.775 87.3561 195.864 87.7853 196.041 88.1391C196.221 88.4929 196.471 88.7632 196.792 88.9499C197.113 89.1333 197.489 89.2251 197.918 89.2251C198.196 89.2251 198.45 89.1858 198.679 89.1071C198.909 89.0252 199.107 88.904 199.274 88.7435C199.441 88.583 199.569 88.3848 199.657 88.1489L201.048 88.3995C200.937 88.809 200.737 89.1677 200.448 89.4757C200.163 89.7804 199.805 90.0179 199.372 90.1882C198.943 90.3553 198.453 90.4388 197.903 90.4388ZM208.63 90.4536C208.152 90.4536 207.719 90.3651 207.333 90.1882C206.946 90.008 206.64 89.7476 206.414 89.4069C206.191 89.0662 206.08 88.6485 206.08 88.1538C206.08 87.7279 206.162 87.3774 206.326 87.1022C206.489 86.827 206.71 86.6092 206.989 86.4487C207.267 86.2881 207.579 86.1669 207.923 86.085C208.267 86.0031 208.617 85.9409 208.974 85.8983C209.426 85.8459 209.793 85.8033 210.075 85.7705C210.357 85.7345 210.561 85.6772 210.689 85.5985C210.817 85.5199 210.881 85.3921 210.881 85.2152V85.1808C210.881 84.7517 210.76 84.4192 210.517 84.1833C210.278 83.9474 209.921 83.8295 209.446 83.8295C208.951 83.8295 208.561 83.9392 208.276 84.1587C207.995 84.375 207.8 84.6157 207.692 84.8811L206.311 84.5666C206.475 84.108 206.714 83.7378 207.028 83.456C207.346 83.171 207.711 82.9646 208.124 82.8369C208.537 82.7058 208.971 82.6403 209.426 82.6403C209.728 82.6403 210.047 82.6763 210.385 82.7484C210.725 82.8172 211.043 82.945 211.338 83.1317C211.636 83.3184 211.88 83.5854 212.07 83.9327C212.26 84.2767 212.355 84.7238 212.355 85.2742V90.2865H210.92V89.2546H210.861C210.766 89.4446 210.624 89.6313 210.434 89.8148C210.244 89.9982 210 90.1505 209.701 90.2718C209.403 90.393 209.046 90.4536 208.63 90.4536ZM208.95 89.2742C209.356 89.2742 209.703 89.194 209.991 89.0334C210.283 88.8729 210.504 88.6632 210.655 88.4044C210.809 88.1424 210.886 87.8623 210.886 87.5641V86.5912C210.833 86.6436 210.732 86.6927 210.581 86.7386C210.434 86.7812 210.265 86.8188 210.075 86.8516C209.885 86.8811 209.7 86.9089 209.52 86.9351C209.339 86.9581 209.189 86.9777 209.068 86.9941C208.783 87.0302 208.522 87.0908 208.286 87.1759C208.054 87.2611 207.867 87.384 207.726 87.5445C207.588 87.7017 207.52 87.9114 207.52 88.1735C207.52 88.5371 207.654 88.8123 207.923 88.999C208.191 89.1825 208.534 89.2742 208.95 89.2742ZM214.43 90.2865V80.2226H215.899V83.9622H215.988C216.073 83.8049 216.196 83.6231 216.356 83.4167C216.517 83.2103 216.74 83.0302 217.025 82.8762C217.31 82.7189 217.686 82.6403 218.155 82.6403C218.764 82.6403 219.308 82.7943 219.786 83.1022C220.265 83.4102 220.64 83.8541 220.912 84.4339C221.187 85.0138 221.324 85.7116 221.324 86.5273C221.324 87.343 221.188 88.0424 220.916 88.6256C220.645 89.2054 220.271 89.6526 219.796 89.9671C219.321 90.2783 218.779 90.4339 218.17 90.4339C217.711 90.4339 217.336 90.3569 217.044 90.203C216.756 90.049 216.53 89.8688 216.366 89.6624C216.202 89.456 216.076 89.2726 215.988 89.1121H215.865V90.2865H214.43ZM215.87 86.5125C215.87 87.0433 215.947 87.5084 216.101 87.9081C216.255 88.3078 216.477 88.6207 216.769 88.8467C217.061 89.0695 217.418 89.1808 217.84 89.1808C218.279 89.1808 218.646 89.0645 218.941 88.832C219.236 88.5961 219.459 88.2767 219.609 87.8737C219.763 87.4708 219.84 87.017 219.84 86.5125C219.84 86.0146 219.765 85.5674 219.614 85.171C219.467 84.7746 219.244 84.4618 218.946 84.2324C218.651 84.0031 218.283 83.8885 217.84 83.8885C217.414 83.8885 217.054 83.9982 216.759 84.2177C216.468 84.4372 216.247 84.7435 216.096 85.1366C215.945 85.5297 215.87 85.9884 215.87 86.5125ZM226.154 90.4388C225.446 90.4388 224.828 90.2767 224.301 89.9523C223.774 89.628 223.364 89.1743 223.072 88.5912C222.781 88.008 222.635 87.3266 222.635 86.5469C222.635 85.764 222.781 85.0793 223.072 84.4929C223.364 83.9065 223.774 83.4511 224.301 83.1268C224.828 82.8025 225.446 82.6403 226.154 82.6403C226.861 82.6403 227.479 82.8025 228.006 83.1268C228.534 83.4511 228.943 83.9065 229.235 84.4929C229.526 85.0793 229.672 85.764 229.672 86.5469C229.672 87.3266 229.526 88.008 229.235 88.5912C228.943 89.1743 228.534 89.628 228.006 89.9523C227.479 90.2767 226.861 90.4388 226.154 90.4388ZM226.158 89.2054C226.617 89.2054 226.997 89.0842 227.299 88.8418C227.6 88.5994 227.823 88.2767 227.967 87.8737C228.114 87.4708 228.188 87.0269 228.188 86.542C228.188 86.0605 228.114 85.6182 227.967 85.2152C227.823 84.809 227.6 84.4831 227.299 84.2374C226.997 83.9917 226.617 83.8688 226.158 83.8688C225.697 83.8688 225.313 83.9917 225.009 84.2374C224.707 84.4831 224.483 84.809 224.335 85.2152C224.191 85.6182 224.119 86.0605 224.119 86.542C224.119 87.0269 224.191 87.4708 224.335 87.8737C224.483 88.2767 224.707 88.5994 225.009 88.8418C225.313 89.0842 225.697 89.2054 226.158 89.2054ZM236.093 87.1563V82.7386H237.568V90.2865H236.123V88.9794H236.044C235.871 89.3823 235.592 89.7181 235.209 89.9867C234.829 90.2521 234.355 90.3848 233.789 90.3848C233.304 90.3848 232.875 90.2783 232.501 90.0654C232.131 89.8492 231.839 89.5297 231.627 89.1071C231.417 88.6845 231.312 88.162 231.312 87.5396V82.7386H232.781V87.3627C232.781 87.877 232.924 88.2865 233.209 88.5912C233.494 88.8958 233.864 89.0482 234.319 89.0482C234.595 89.0482 234.868 88.9794 235.14 88.8418C235.415 88.7042 235.643 88.4962 235.823 88.2177C236.007 87.9392 236.097 87.5854 236.093 87.1563ZM243.065 82.7386V83.9179H238.942V82.7386H243.065ZM240.048 80.9302H241.517V88.0703C241.517 88.3553 241.56 88.5699 241.645 88.714C241.73 88.8549 241.84 88.9515 241.974 89.0039C242.112 89.0531 242.261 89.0777 242.421 89.0777C242.539 89.0777 242.643 89.0695 242.731 89.0531C242.819 89.0367 242.888 89.0236 242.937 89.0138L243.203 90.2275C243.118 90.2603 242.996 90.2931 242.839 90.3258C242.682 90.3618 242.485 90.3815 242.249 90.3848C241.863 90.3913 241.502 90.3225 241.168 90.1784C240.834 90.0342 240.564 89.8115 240.357 89.5101C240.151 89.2087 240.048 88.8303 240.048 88.375V80.9302ZM251.876 82.7386V83.9179H247.753V82.7386H251.876ZM248.859 80.9302H250.328V88.0703C250.328 88.3553 250.371 88.5699 250.456 88.714C250.541 88.8549 250.651 88.9515 250.785 89.0039C250.923 89.0531 251.072 89.0777 251.232 89.0777C251.35 89.0777 251.453 89.0695 251.542 89.0531C251.63 89.0367 251.699 89.0236 251.748 89.0138L252.014 90.2275C251.928 90.2603 251.807 90.2931 251.65 90.3258C251.493 90.3618 251.296 90.3815 251.06 90.3848C250.674 90.3913 250.313 90.3225 249.979 90.1784C249.645 90.0342 249.375 89.8115 249.168 89.5101C248.962 89.2087 248.859 88.8303 248.859 88.375V80.9302ZM255.133 85.8049V90.2865H253.663V80.2226H255.113V83.9671H255.206C255.383 83.5609 255.654 83.2382 256.017 82.999C256.381 82.7599 256.856 82.6403 257.442 82.6403C257.96 82.6403 258.412 82.7468 258.799 82.9597C259.188 83.1727 259.49 83.4904 259.703 83.913C259.919 84.3324 260.027 84.8565 260.027 85.4855V90.2865H258.558V85.6624C258.558 85.1088 258.415 84.6796 258.13 84.375C257.845 84.067 257.449 83.913 256.941 83.913C256.594 83.913 256.283 83.9867 256.007 84.1342C255.735 84.2816 255.521 84.4978 255.364 84.7828C255.21 85.0645 255.133 85.4053 255.133 85.8049ZM265.241 90.4388C264.497 90.4388 263.857 90.2799 263.319 89.9622C262.785 89.6411 262.373 89.1907 262.081 88.6108C261.793 88.0277 261.649 87.3446 261.649 86.5617C261.649 85.7885 261.793 85.1071 262.081 84.5175C262.373 83.9278 262.779 83.4675 263.3 83.1366C263.824 82.8057 264.437 82.6403 265.138 82.6403C265.563 82.6403 265.976 82.7107 266.376 82.8516C266.776 82.9925 267.134 83.2136 267.452 83.515C267.77 83.8164 268.02 84.2079 268.204 84.6894C268.387 85.1677 268.479 85.7492 268.479 86.4339V86.9548H262.479V85.8541H267.039C267.039 85.4675 266.961 85.1252 266.803 84.827C266.646 84.5256 266.425 84.2881 266.14 84.1145C265.858 83.9409 265.527 83.8541 265.147 83.8541C264.735 83.8541 264.374 83.9556 264.066 84.1587C263.762 84.3586 263.526 84.6207 263.359 84.945C263.195 85.266 263.113 85.6149 263.113 85.9917V86.8516C263.113 87.3561 263.201 87.7853 263.378 88.1391C263.559 88.4929 263.809 88.7632 264.13 88.9499C264.451 89.1333 264.826 89.2251 265.256 89.2251C265.534 89.2251 265.788 89.1858 266.017 89.1071C266.247 89.0252 266.445 88.904 266.612 88.7435C266.779 88.583 266.907 88.3848 266.995 88.1489L268.386 88.3995C268.274 88.809 268.075 89.1677 267.786 89.4757C267.501 89.7804 267.143 90.0179 266.71 90.1882C266.281 90.3553 265.791 90.4388 265.241 90.4388ZM127.988 110.117V99.7386H129.423V100.962H129.545C129.631 100.805 129.753 100.623 129.914 100.417C130.075 100.21 130.297 100.03 130.582 99.8762C130.867 99.7189 131.244 99.6403 131.713 99.6403C132.322 99.6403 132.866 99.7943 133.344 100.102C133.822 100.41 134.197 100.854 134.469 101.434C134.744 102.014 134.882 102.712 134.882 103.527C134.882 104.343 134.746 105.042 134.474 105.626C134.202 106.205 133.829 106.653 133.354 106.967C132.879 107.278 132.337 107.434 131.727 107.434C131.269 107.434 130.894 107.357 130.602 107.203C130.314 107.049 130.088 106.869 129.924 106.662C129.76 106.456 129.634 106.273 129.545 106.112H129.457V110.117H127.988ZM129.428 103.513C129.428 104.043 129.505 104.508 129.658 104.908C129.812 105.308 130.035 105.621 130.327 105.847C130.618 106.069 130.975 106.181 131.398 106.181C131.837 106.181 132.204 106.065 132.499 105.832C132.794 105.596 133.016 105.277 133.167 104.874C133.321 104.471 133.398 104.017 133.398 103.513C133.398 103.015 133.323 102.567 133.172 102.171C133.025 101.775 132.802 101.462 132.504 101.232C132.209 101.003 131.84 100.888 131.398 100.888C130.972 100.888 130.612 100.998 130.317 101.218C130.025 101.437 129.804 101.744 129.654 102.137C129.503 102.53 129.428 102.988 129.428 103.513ZM136.528 107.286V99.7386H137.998V107.286H136.528ZM137.27 98.574C137.015 98.574 136.795 98.4888 136.612 98.3184C136.432 98.1448 136.342 97.9384 136.342 97.6993C136.342 97.4569 136.432 97.2505 136.612 97.0801C136.795 96.9065 137.015 96.8197 137.27 96.8197C137.526 96.8197 137.744 96.9065 137.924 97.0801C138.107 97.2505 138.199 97.4569 138.199 97.6993C138.199 97.9384 138.107 98.1448 137.924 98.3184C137.744 98.4888 137.526 98.574 137.27 98.574ZM143.139 110.274C142.539 110.274 142.023 110.196 141.591 110.038C141.162 109.881 140.811 109.673 140.539 109.414C140.267 109.155 140.064 108.872 139.93 108.564L141.193 108.043C141.281 108.187 141.399 108.34 141.547 108.5C141.697 108.664 141.9 108.803 142.156 108.918C142.415 109.033 142.747 109.09 143.154 109.09C143.71 109.09 144.171 108.954 144.534 108.682C144.898 108.413 145.08 107.984 145.08 107.395V105.911H144.986C144.898 106.071 144.77 106.25 144.603 106.446C144.439 106.643 144.213 106.813 143.925 106.957C143.637 107.101 143.262 107.173 142.8 107.173C142.204 107.173 141.666 107.034 141.188 106.756C140.713 106.474 140.336 106.06 140.058 105.513C139.783 104.962 139.645 104.286 139.645 103.483C139.645 102.68 139.781 101.992 140.053 101.419C140.328 100.846 140.705 100.407 141.183 100.102C141.661 99.7943 142.204 99.6403 142.81 99.6403C143.278 99.6403 143.656 99.7189 143.945 99.8762C144.233 100.03 144.457 100.21 144.618 100.417C144.782 100.623 144.908 100.805 144.996 100.962H145.104V99.7386H146.544V107.454C146.544 108.102 146.394 108.635 146.092 109.051C145.791 109.467 145.383 109.775 144.869 109.974C144.357 110.174 143.781 110.274 143.139 110.274ZM143.124 105.955C143.547 105.955 143.904 105.857 144.195 105.66C144.49 105.46 144.713 105.175 144.864 104.805C145.018 104.431 145.095 103.984 145.095 103.463C145.095 102.956 145.019 102.508 144.869 102.122C144.718 101.735 144.497 101.434 144.205 101.218C143.914 100.998 143.553 100.888 143.124 100.888C142.682 100.888 142.313 101.003 142.018 101.232C141.724 101.458 141.501 101.766 141.35 102.156C141.203 102.546 141.129 102.982 141.129 103.463C141.129 103.958 141.204 104.392 141.355 104.766C141.506 105.139 141.729 105.431 142.023 105.64C142.321 105.85 142.688 105.955 143.124 105.955ZM151.768 107.439C151.024 107.439 150.384 107.28 149.846 106.962C149.312 106.641 148.9 106.191 148.608 105.611C148.32 105.028 148.176 104.345 148.176 103.562C148.176 102.789 148.32 102.107 148.608 101.517C148.9 100.928 149.306 100.467 149.827 100.137C150.351 99.8057 150.964 99.6403 151.665 99.6403C152.09 99.6403 152.503 99.7107 152.903 99.8516C153.303 99.9925 153.661 100.214 153.979 100.515C154.297 100.816 154.548 101.208 154.731 101.689C154.914 102.168 155.006 102.749 155.006 103.434V103.955H149.006V102.854H153.566C153.566 102.467 153.488 102.125 153.33 101.827C153.173 101.526 152.952 101.288 152.667 101.115C152.385 100.941 152.054 100.854 151.674 100.854C151.262 100.854 150.901 100.956 150.593 101.159C150.289 101.359 150.053 101.621 149.886 101.945C149.722 102.266 149.64 102.615 149.64 102.992V103.852C149.64 104.356 149.729 104.785 149.905 105.139C150.086 105.493 150.336 105.763 150.657 105.95C150.978 106.133 151.353 106.225 151.783 106.225C152.061 106.225 152.315 106.186 152.544 106.107C152.774 106.025 152.972 105.904 153.139 105.744C153.306 105.583 153.434 105.385 153.522 105.149L154.913 105.4C154.801 105.809 154.602 106.168 154.313 106.476C154.028 106.78 153.67 107.018 153.237 107.188C152.808 107.355 152.318 107.439 151.768 107.439ZM159.816 107.439C159.108 107.439 158.491 107.277 157.963 106.952C157.436 106.628 157.026 106.174 156.735 105.591C156.443 105.008 156.297 104.327 156.297 103.547C156.297 102.764 156.443 102.079 156.735 101.493C157.026 100.906 157.436 100.451 157.963 100.127C158.491 99.8025 159.108 99.6403 159.816 99.6403C160.523 99.6403 161.141 99.8025 161.668 100.127C162.196 100.451 162.605 100.906 162.897 101.493C163.188 102.079 163.334 102.764 163.334 103.547C163.334 104.327 163.188 105.008 162.897 105.591C162.605 106.174 162.196 106.628 161.668 106.952C161.141 107.277 160.523 107.439 159.816 107.439ZM159.821 106.205C160.279 106.205 160.659 106.084 160.961 105.842C161.262 105.599 161.485 105.277 161.629 104.874C161.776 104.471 161.85 104.027 161.85 103.542C161.85 103.06 161.776 102.618 161.629 102.215C161.485 101.809 161.262 101.483 160.961 101.237C160.659 100.992 160.279 100.869 159.821 100.869C159.359 100.869 158.975 100.992 158.671 101.237C158.369 101.483 158.145 101.809 157.998 102.215C157.853 102.618 157.781 103.06 157.781 103.542C157.781 104.027 157.853 104.471 157.998 104.874C158.145 105.277 158.369 105.599 158.671 105.842C158.975 106.084 159.359 106.205 159.821 106.205ZM166.443 102.805V107.286H164.974V99.7386H166.385V100.967H166.478C166.652 100.567 166.923 100.246 167.294 100.004C167.667 99.7615 168.137 99.6403 168.704 99.6403C169.218 99.6403 169.669 99.7484 170.055 99.9646C170.442 100.178 170.742 100.495 170.955 100.918C171.167 101.341 171.274 101.863 171.274 102.486V107.286H169.805V102.662C169.805 102.115 169.662 101.688 169.377 101.38C169.092 101.069 168.701 100.913 168.203 100.913C167.862 100.913 167.559 100.987 167.294 101.134C167.032 101.282 166.824 101.498 166.67 101.783C166.519 102.065 166.443 102.405 166.443 102.805ZM176.907 107.286V99.7386H178.327V100.938H178.405C178.543 100.531 178.785 100.212 179.133 99.9794C179.483 99.7435 179.88 99.6256 180.322 99.6256C180.414 99.6256 180.522 99.6288 180.646 99.6354C180.774 99.6419 180.874 99.6501 180.946 99.66V101.065C180.887 101.049 180.782 101.031 180.631 101.011C180.481 100.988 180.33 100.977 180.179 100.977C179.832 100.977 179.523 101.051 179.251 101.198C178.982 101.342 178.769 101.544 178.612 101.802C178.455 102.058 178.376 102.35 178.376 102.677V107.286H176.907ZM185.2 107.439C184.457 107.439 183.816 107.28 183.279 106.962C182.745 106.641 182.332 106.191 182.041 105.611C181.752 105.028 181.608 104.345 181.608 103.562C181.608 102.789 181.752 102.107 182.041 101.517C182.332 100.928 182.738 100.467 183.259 100.137C183.783 99.8057 184.396 99.6403 185.097 99.6403C185.523 99.6403 185.936 99.7107 186.335 99.8516C186.735 99.9925 187.094 100.214 187.412 100.515C187.729 100.816 187.98 101.208 188.163 101.689C188.347 102.168 188.439 102.749 188.439 103.434V103.955H182.439V102.854H186.999C186.999 102.467 186.92 102.125 186.763 101.827C186.606 101.526 186.385 101.288 186.1 101.115C185.818 100.941 185.487 100.854 185.107 100.854C184.694 100.854 184.334 100.956 184.026 101.159C183.721 101.359 183.485 101.621 183.318 101.945C183.154 102.266 183.072 102.615 183.072 102.992V103.852C183.072 104.356 183.161 104.785 183.338 105.139C183.518 105.493 183.769 105.763 184.09 105.95C184.411 106.133 184.786 106.225 185.215 106.225C185.493 106.225 185.747 106.186 185.977 106.107C186.206 106.025 186.404 105.904 186.571 105.744C186.738 105.583 186.866 105.385 186.955 105.149L188.345 105.4C188.234 105.809 188.034 106.168 187.746 106.476C187.461 106.78 187.102 107.018 186.67 107.188C186.24 107.355 185.751 107.439 185.2 107.439ZM191.538 97.2226V107.286H190.069V97.2226H191.538ZM195.711 107.454C195.233 107.454 194.801 107.365 194.414 107.188C194.027 107.008 193.721 106.748 193.495 106.407C193.272 106.066 193.161 105.648 193.161 105.154C193.161 104.728 193.243 104.377 193.407 104.102C193.57 103.827 193.792 103.609 194.07 103.449C194.348 103.288 194.66 103.167 195.004 103.085C195.348 103.003 195.698 102.941 196.055 102.898C196.507 102.846 196.874 102.803 197.156 102.771C197.438 102.734 197.643 102.677 197.77 102.599C197.898 102.52 197.962 102.392 197.962 102.215V102.181C197.962 101.752 197.841 101.419 197.598 101.183C197.359 100.947 197.002 100.829 196.527 100.829C196.032 100.829 195.643 100.939 195.357 101.159C195.076 101.375 194.881 101.616 194.773 101.881L193.392 101.567C193.556 101.108 193.795 100.738 194.109 100.456C194.427 100.171 194.792 99.9646 195.205 99.8369C195.618 99.7058 196.052 99.6403 196.507 99.6403C196.809 99.6403 197.128 99.6763 197.466 99.7484C197.806 99.8172 198.124 99.945 198.419 100.132C198.717 100.318 198.961 100.585 199.151 100.933C199.341 101.277 199.436 101.724 199.436 102.274V107.286H198.001V106.255H197.942C197.847 106.445 197.705 106.631 197.515 106.815C197.325 106.998 197.081 107.151 196.783 107.272C196.484 107.393 196.127 107.454 195.711 107.454ZM196.031 106.274C196.437 106.274 196.784 106.194 197.072 106.033C197.364 105.873 197.585 105.663 197.736 105.404C197.89 105.142 197.967 104.862 197.967 104.564V103.591C197.914 103.644 197.813 103.693 197.662 103.739C197.515 103.781 197.346 103.819 197.156 103.852C196.966 103.881 196.781 103.909 196.601 103.935C196.421 103.958 196.27 103.978 196.149 103.994C195.864 104.03 195.603 104.091 195.367 104.176C195.135 104.261 194.948 104.384 194.807 104.544C194.67 104.702 194.601 104.911 194.601 105.173C194.601 105.537 194.735 105.812 195.004 105.999C195.272 106.182 195.615 106.274 196.031 106.274ZM202.052 110.117C201.832 110.117 201.632 110.099 201.452 110.063C201.272 110.03 201.138 109.994 201.049 109.955L201.403 108.751C201.672 108.823 201.911 108.854 202.12 108.844C202.33 108.834 202.515 108.756 202.676 108.608C202.839 108.461 202.984 108.22 203.108 107.886L203.29 107.385L200.528 99.7386H202.101L204.012 105.596H204.091L206.002 99.7386H207.58L204.469 108.294C204.325 108.687 204.142 109.02 203.919 109.291C203.696 109.567 203.431 109.773 203.123 109.911C202.815 110.048 202.458 110.117 202.052 110.117ZM211.957 107.439C211.213 107.439 210.573 107.28 210.036 106.962C209.502 106.641 209.089 106.191 208.797 105.611C208.509 105.028 208.365 104.345 208.365 103.562C208.365 102.789 208.509 102.107 208.797 101.517C209.089 100.928 209.495 100.467 210.016 100.137C210.54 99.8057 211.153 99.6403 211.854 99.6403C212.28 99.6403 212.692 99.7107 213.092 99.8516C213.492 99.9925 213.851 100.214 214.168 100.515C214.486 100.816 214.737 101.208 214.92 101.689C215.104 102.168 215.195 102.749 215.195 103.434V103.955H209.195V102.854H213.756C213.756 102.467 213.677 102.125 213.52 101.827C213.362 101.526 213.141 101.288 212.856 101.115C212.575 100.941 212.244 100.854 211.864 100.854C211.451 100.854 211.091 100.956 210.783 101.159C210.478 101.359 210.242 101.621 210.075 101.945C209.911 102.266 209.829 102.615 209.829 102.992V103.852C209.829 104.356 209.918 104.785 210.095 105.139C210.275 105.493 210.525 105.763 210.846 105.95C211.167 106.133 211.543 106.225 211.972 106.225C212.25 106.225 212.504 106.186 212.733 106.107C212.963 106.025 213.161 105.904 213.328 105.744C213.495 105.583 213.623 105.385 213.711 105.149L215.102 105.4C214.991 105.809 214.791 106.168 214.502 106.476C214.217 106.78 213.859 107.018 213.426 107.188C212.997 107.355 212.507 107.439 211.957 107.439ZM216.826 107.286V99.7386H218.246V100.938H218.324C218.462 100.531 218.704 100.212 219.052 99.9794C219.402 99.7435 219.799 99.6256 220.241 99.6256C220.333 99.6256 220.441 99.6288 220.565 99.6354C220.693 99.6419 220.793 99.6501 220.865 99.66V101.065C220.806 101.049 220.701 101.031 220.55 101.011C220.4 100.988 220.249 100.977 220.098 100.977C219.751 100.977 219.441 101.051 219.17 101.198C218.901 101.342 218.688 101.544 218.531 101.802C218.373 102.058 218.295 102.35 218.295 102.677V107.286H216.826ZM227.792 101.581L226.461 101.817C226.405 101.647 226.317 101.485 226.195 101.331C226.077 101.177 225.917 101.051 225.714 100.952C225.511 100.854 225.257 100.805 224.952 100.805C224.536 100.805 224.189 100.898 223.91 101.085C223.632 101.268 223.493 101.506 223.493 101.798C223.493 102.05 223.586 102.253 223.773 102.407C223.959 102.561 224.261 102.687 224.677 102.785L225.876 103.06C226.57 103.221 227.088 103.468 227.429 103.802C227.769 104.137 227.94 104.571 227.94 105.105C227.94 105.557 227.809 105.96 227.547 106.314C227.288 106.664 226.926 106.939 226.461 107.139C225.999 107.339 225.463 107.439 224.854 107.439C224.009 107.439 223.319 107.259 222.785 106.898C222.251 106.535 221.923 106.019 221.802 105.35L223.222 105.134C223.311 105.504 223.493 105.784 223.768 105.974C224.043 106.161 224.402 106.255 224.844 106.255C225.326 106.255 225.71 106.155 225.999 105.955C226.287 105.752 226.431 105.504 226.431 105.213C226.431 104.977 226.343 104.779 226.166 104.618C225.992 104.458 225.725 104.336 225.365 104.255L224.087 103.974C223.383 103.814 222.862 103.558 222.525 103.208C222.19 102.857 222.023 102.413 222.023 101.876C222.023 101.431 222.148 101.041 222.397 100.707C222.646 100.372 222.99 100.112 223.429 99.9253C223.868 99.7353 224.371 99.6403 224.937 99.6403C225.753 99.6403 226.395 99.8172 226.864 100.171C227.332 100.522 227.642 100.992 227.792 101.581ZM236.741 99.7386V100.918H232.618V99.7386H236.741ZM233.724 97.9302H235.193V105.07C235.193 105.355 235.235 105.57 235.321 105.714C235.406 105.855 235.516 105.952 235.65 106.004C235.787 106.053 235.937 106.078 236.097 106.078C236.215 106.078 236.318 106.069 236.407 106.053C236.495 106.037 236.564 106.024 236.613 106.014L236.878 107.228C236.793 107.26 236.672 107.293 236.515 107.326C236.358 107.362 236.161 107.382 235.925 107.385C235.538 107.391 235.178 107.323 234.844 107.178C234.51 107.034 234.24 106.811 234.033 106.51C233.827 106.209 233.724 105.83 233.724 105.375V97.9302ZM239.998 102.805V107.286H238.528V97.2226H239.978V100.967H240.071C240.248 100.561 240.518 100.238 240.882 99.999C241.246 99.7599 241.721 99.6403 242.307 99.6403C242.825 99.6403 243.277 99.7468 243.663 99.9597C244.053 100.173 244.355 100.49 244.568 100.913C244.784 101.332 244.892 101.857 244.892 102.486V107.286H243.423V102.662C243.423 102.109 243.28 101.68 242.995 101.375C242.71 101.067 242.314 100.913 241.806 100.913C241.459 100.913 241.147 100.987 240.872 101.134C240.6 101.282 240.386 101.498 240.229 101.783C240.075 102.065 239.998 102.405 239.998 102.805ZM249.049 107.454C248.571 107.454 248.138 107.365 247.752 107.188C247.365 107.008 247.059 106.748 246.833 106.407C246.61 106.066 246.499 105.648 246.499 105.154C246.499 104.728 246.581 104.377 246.744 104.102C246.908 103.827 247.129 103.609 247.408 103.449C247.686 103.288 247.998 103.167 248.342 103.085C248.686 103.003 249.036 102.941 249.393 102.898C249.845 102.846 250.212 102.803 250.494 102.771C250.776 102.734 250.98 102.677 251.108 102.599C251.236 102.52 251.3 102.392 251.3 102.215V102.181C251.3 101.752 251.179 101.419 250.936 101.183C250.697 100.947 250.34 100.829 249.865 100.829C249.37 100.829 248.98 100.939 248.695 101.159C248.414 101.375 248.219 101.616 248.111 101.881L246.73 101.567C246.894 101.108 247.133 100.738 247.447 100.456C247.765 100.171 248.13 99.9646 248.543 99.8369C248.956 99.7058 249.39 99.6403 249.845 99.6403C250.147 99.6403 250.466 99.6763 250.803 99.7484C251.144 99.8172 251.462 99.945 251.757 100.132C252.055 100.318 252.299 100.585 252.489 100.933C252.679 101.277 252.774 101.724 252.774 102.274V107.286H251.339V106.255H251.28C251.185 106.445 251.043 106.631 250.853 106.815C250.663 106.998 250.419 107.151 250.12 107.272C249.822 107.393 249.465 107.454 249.049 107.454ZM249.369 106.274C249.775 106.274 250.122 106.194 250.41 106.033C250.702 105.873 250.923 105.663 251.074 105.404C251.228 105.142 251.305 104.862 251.305 104.564V103.591C251.252 103.644 251.151 103.693 251 103.739C250.853 103.781 250.684 103.819 250.494 103.852C250.304 103.881 250.119 103.909 249.939 103.935C249.758 103.958 249.608 103.978 249.486 103.994C249.201 104.03 248.941 104.091 248.705 104.176C248.473 104.261 248.286 104.384 248.145 104.544C248.007 104.702 247.939 104.911 247.939 105.173C247.939 105.537 248.073 105.812 248.342 105.999C248.61 106.182 248.953 106.274 249.369 106.274ZM258.254 99.7386V100.918H254.131V99.7386H258.254ZM255.237 97.9302H256.706V105.07C256.706 105.355 256.749 105.57 256.834 105.714C256.919 105.855 257.029 105.952 257.163 106.004C257.301 106.053 257.45 106.078 257.611 106.078C257.729 106.078 257.832 106.069 257.92 106.053C258.009 106.037 258.077 106.024 258.127 106.014L258.392 107.228C258.307 107.26 258.186 107.293 258.028 107.326C257.871 107.362 257.674 107.382 257.439 107.385C257.052 107.391 256.692 107.323 256.357 107.178C256.023 107.034 255.753 106.811 255.547 106.51C255.34 106.209 255.237 105.83 255.237 105.375V97.9302ZM269.198 101.581L267.866 101.817C267.81 101.647 267.722 101.485 267.601 101.331C267.483 101.177 267.322 101.051 267.119 100.952C266.916 100.854 266.662 100.805 266.358 100.805C265.941 100.805 265.594 100.898 265.316 101.085C265.037 101.268 264.898 101.506 264.898 101.798C264.898 102.05 264.991 102.253 265.178 102.407C265.365 102.561 265.666 102.687 266.082 102.785L267.281 103.06C267.976 103.221 268.493 103.468 268.834 103.802C269.175 104.137 269.345 104.571 269.345 105.105C269.345 105.557 269.214 105.96 268.952 106.314C268.693 106.664 268.331 106.939 267.866 107.139C267.404 107.339 266.869 107.439 266.259 107.439C265.414 107.439 264.724 107.259 264.19 106.898C263.656 106.535 263.329 106.019 263.208 105.35L264.628 105.134C264.716 105.504 264.898 105.784 265.173 105.974C265.448 106.161 265.807 106.255 266.249 106.255C266.731 106.255 267.116 106.155 267.404 105.955C267.692 105.752 267.837 105.504 267.837 105.213C267.837 104.977 267.748 104.779 267.571 104.618C267.398 104.458 267.131 104.336 266.77 104.255L265.493 103.974C264.788 103.814 264.267 103.558 263.93 103.208C263.596 102.857 263.429 102.413 263.429 101.876C263.429 101.431 263.553 101.041 263.802 100.707C264.051 100.372 264.395 100.112 264.834 99.9253C265.273 99.7353 265.776 99.6403 266.343 99.6403C267.158 99.6403 267.801 99.8172 268.269 100.171C268.738 100.522 269.047 100.992 269.198 101.581ZM274.214 107.439C273.47 107.439 272.83 107.28 272.292 106.962C271.758 106.641 271.346 106.191 271.054 105.611C270.766 105.028 270.622 104.345 270.622 103.562C270.622 102.789 270.766 102.107 271.054 101.517C271.346 100.928 271.752 100.467 272.273 100.137C272.797 99.8057 273.41 99.6403 274.111 99.6403C274.536 99.6403 274.949 99.7107 275.349 99.8516C275.749 99.9925 276.107 100.214 276.425 100.515C276.743 100.816 276.993 101.208 277.177 101.689C277.36 102.168 277.452 102.749 277.452 103.434V103.955H271.452V102.854H276.012C276.012 102.467 275.934 102.125 275.776 101.827C275.619 101.526 275.398 101.288 275.113 101.115C274.831 100.941 274.5 100.854 274.12 100.854C273.708 100.854 273.347 100.956 273.039 101.159C272.735 101.359 272.499 101.621 272.332 101.945C272.168 102.266 272.086 102.615 272.086 102.992V103.852C272.086 104.356 272.174 104.785 272.351 105.139C272.532 105.493 272.782 105.763 273.103 105.95C273.424 106.133 273.799 106.225 274.229 106.225C274.507 106.225 274.761 106.186 274.99 106.107C275.219 106.025 275.418 105.904 275.585 105.744C275.752 105.583 275.88 105.385 275.968 105.149L277.359 105.4C277.247 105.809 277.048 106.168 276.759 106.476C276.474 106.78 276.115 107.018 275.683 107.188C275.254 107.355 274.764 107.439 274.214 107.439ZM280.552 102.805V107.286H279.082V99.7386H280.493V100.967H280.586C280.76 100.567 281.032 100.246 281.402 100.004C281.775 99.7615 282.245 99.6403 282.812 99.6403C283.326 99.6403 283.777 99.7484 284.163 99.9646C284.55 100.178 284.85 100.495 285.063 100.918C285.276 101.341 285.382 101.863 285.382 102.486V107.286H283.913V102.662C283.913 102.115 283.77 101.688 283.485 101.38C283.2 101.069 282.809 100.913 282.311 100.913C281.97 100.913 281.667 100.987 281.402 101.134C281.14 101.282 280.932 101.498 280.778 101.783C280.627 102.065 280.552 102.405 280.552 102.805ZM290.178 107.434C289.569 107.434 289.025 107.278 288.547 106.967C288.072 106.653 287.698 106.205 287.426 105.626C287.158 105.042 287.023 104.343 287.023 103.527C287.023 102.712 287.159 102.014 287.431 101.434C287.706 100.854 288.083 100.41 288.561 100.102C289.04 99.7943 289.582 99.6403 290.188 99.6403C290.656 99.6403 291.033 99.7189 291.318 99.8762C291.606 100.03 291.829 100.21 291.986 100.417C292.147 100.623 292.272 100.805 292.36 100.962H292.448V97.2226H293.918V107.286H292.483V106.112H292.36C292.272 106.273 292.144 106.456 291.977 106.662C291.813 106.869 291.587 107.049 291.299 107.203C291.01 107.357 290.637 107.434 290.178 107.434ZM290.502 106.181C290.925 106.181 291.282 106.069 291.574 105.847C291.869 105.621 292.091 105.308 292.242 104.908C292.396 104.508 292.473 104.043 292.473 103.513C292.473 102.988 292.398 102.53 292.247 102.137C292.096 101.744 291.875 101.437 291.584 101.218C291.292 100.998 290.932 100.888 290.502 100.888C290.06 100.888 289.692 101.003 289.397 101.232C289.102 101.462 288.879 101.775 288.729 102.171C288.581 102.567 288.507 103.015 288.507 103.513C288.507 104.017 288.583 104.471 288.733 104.874C288.884 105.277 289.107 105.596 289.402 105.832C289.7 106.065 290.067 106.181 290.502 106.181ZM127.988 124.286V116.739H129.398V117.967H129.491C129.649 117.551 129.906 117.227 130.263 116.994C130.62 116.758 131.048 116.64 131.545 116.64C132.05 116.64 132.473 116.758 132.813 116.994C133.157 117.23 133.411 117.554 133.575 117.967H133.654C133.834 117.564 134.12 117.243 134.514 117.004C134.907 116.762 135.375 116.64 135.919 116.64C136.604 116.64 137.162 116.855 137.595 117.284C138.03 117.713 138.248 118.36 138.248 119.225V124.286H136.779V119.363C136.779 118.852 136.64 118.481 136.361 118.252C136.083 118.023 135.75 117.908 135.364 117.908C134.885 117.908 134.514 118.056 134.248 118.35C133.983 118.642 133.85 119.017 133.85 119.476V124.286H132.386V119.269C132.386 118.86 132.258 118.531 132.002 118.282C131.747 118.033 131.414 117.908 131.005 117.908C130.726 117.908 130.469 117.982 130.233 118.129C130.001 118.273 129.812 118.475 129.668 118.734C129.527 118.992 129.457 119.292 129.457 119.633V124.286H127.988ZM143.471 124.439C142.727 124.439 142.086 124.28 141.549 123.962C141.015 123.641 140.602 123.191 140.311 122.611C140.023 122.028 139.878 121.345 139.878 120.562C139.878 119.789 140.023 119.107 140.311 118.517C140.602 117.928 141.009 117.467 141.529 117.137C142.054 116.806 142.666 116.64 143.367 116.64C143.793 116.64 144.206 116.711 144.606 116.852C145.005 116.992 145.364 117.214 145.682 117.515C146 117.816 146.25 118.208 146.434 118.689C146.617 119.168 146.709 119.749 146.709 120.434V120.955H140.709V119.854H145.269C145.269 119.467 145.19 119.125 145.033 118.827C144.876 118.526 144.655 118.288 144.37 118.115C144.088 117.941 143.757 117.854 143.377 117.854C142.964 117.854 142.604 117.956 142.296 118.159C141.991 118.359 141.756 118.621 141.588 118.945C141.425 119.266 141.343 119.615 141.343 119.992V120.852C141.343 121.356 141.431 121.785 141.608 122.139C141.788 122.493 142.039 122.763 142.36 122.95C142.681 123.133 143.056 123.225 143.485 123.225C143.764 123.225 144.018 123.186 144.247 123.107C144.476 123.025 144.674 122.904 144.842 122.744C145.009 122.583 145.136 122.385 145.225 122.149L146.615 122.4C146.504 122.809 146.304 123.168 146.016 123.476C145.731 123.78 145.372 124.018 144.94 124.188C144.511 124.355 144.021 124.439 143.471 124.439ZM153.995 118.581L152.663 118.817C152.608 118.647 152.519 118.485 152.398 118.331C152.28 118.177 152.12 118.051 151.916 117.952C151.713 117.854 151.459 117.805 151.155 117.805C150.739 117.805 150.391 117.898 150.113 118.085C149.835 118.268 149.695 118.506 149.695 118.798C149.695 119.05 149.789 119.253 149.975 119.407C150.162 119.561 150.464 119.687 150.88 119.785L152.079 120.06C152.773 120.221 153.291 120.468 153.631 120.802C153.972 121.137 154.143 121.571 154.143 122.105C154.143 122.557 154.011 122.96 153.749 123.314C153.491 123.664 153.129 123.939 152.663 124.139C152.201 124.339 151.666 124.439 151.057 124.439C150.211 124.439 149.522 124.259 148.988 123.898C148.454 123.535 148.126 123.019 148.005 122.35L149.425 122.134C149.514 122.504 149.695 122.784 149.971 122.974C150.246 123.161 150.604 123.255 151.047 123.255C151.528 123.255 151.913 123.155 152.201 122.955C152.49 122.752 152.634 122.504 152.634 122.213C152.634 121.977 152.545 121.779 152.369 121.618C152.195 121.458 151.928 121.336 151.568 121.255L150.29 120.974C149.586 120.814 149.065 120.558 148.727 120.208C148.393 119.857 148.226 119.413 148.226 118.876C148.226 118.431 148.351 118.041 148.6 117.707C148.848 117.372 149.192 117.112 149.631 116.925C150.07 116.735 150.573 116.64 151.14 116.64C151.956 116.64 152.598 116.817 153.066 117.171C153.535 117.522 153.844 117.992 153.995 118.581ZM161.414 118.581L160.082 118.817C160.027 118.647 159.938 118.485 159.817 118.331C159.699 118.177 159.538 118.051 159.335 117.952C159.132 117.854 158.878 117.805 158.574 117.805C158.158 117.805 157.81 117.898 157.532 118.085C157.253 118.268 157.114 118.506 157.114 118.798C157.114 119.05 157.208 119.253 157.394 119.407C157.581 119.561 157.882 119.687 158.299 119.785L159.498 120.06C160.192 120.221 160.71 120.468 161.05 120.802C161.391 121.137 161.561 121.571 161.561 122.105C161.561 122.557 161.43 122.96 161.168 123.314C160.91 123.664 160.548 123.939 160.082 124.139C159.62 124.339 159.085 124.439 158.475 124.439C157.63 124.439 156.941 124.259 156.407 123.898C155.873 123.535 155.545 123.019 155.424 122.35L156.844 122.134C156.932 122.504 157.114 122.784 157.389 122.974C157.665 123.161 158.023 123.255 158.466 123.255C158.947 123.255 159.332 123.155 159.62 122.955C159.909 122.752 160.053 122.504 160.053 122.213C160.053 121.977 159.964 121.779 159.787 121.618C159.614 121.458 159.347 121.336 158.986 121.255L157.709 120.974C157.005 120.814 156.484 120.558 156.146 120.208C155.812 119.857 155.645 119.413 155.645 118.876C155.645 118.431 155.769 118.041 156.018 117.707C156.267 117.372 156.611 117.112 157.05 116.925C157.489 116.735 157.992 116.64 158.559 116.64C159.375 116.64 160.017 116.817 160.485 117.171C160.954 117.522 161.263 117.992 161.414 118.581ZM165.373 124.454C164.895 124.454 164.463 124.365 164.076 124.188C163.69 124.008 163.383 123.748 163.157 123.407C162.934 123.066 162.823 122.648 162.823 122.154C162.823 121.728 162.905 121.377 163.069 121.102C163.233 120.827 163.454 120.609 163.732 120.449C164.011 120.288 164.322 120.167 164.666 120.085C165.01 120.003 165.36 119.941 165.717 119.898C166.17 119.846 166.536 119.803 166.818 119.771C167.1 119.734 167.305 119.677 167.432 119.599C167.56 119.52 167.624 119.392 167.624 119.215V119.181C167.624 118.752 167.503 118.419 167.26 118.183C167.021 117.947 166.664 117.829 166.189 117.829C165.695 117.829 165.305 117.939 165.02 118.159C164.738 118.375 164.543 118.616 164.435 118.881L163.054 118.567C163.218 118.108 163.457 117.738 163.771 117.456C164.089 117.171 164.455 116.965 164.867 116.837C165.28 116.706 165.714 116.64 166.17 116.64C166.471 116.64 166.79 116.676 167.128 116.748C167.468 116.817 167.786 116.945 168.081 117.132C168.379 117.318 168.623 117.585 168.813 117.933C169.003 118.277 169.098 118.724 169.098 119.274V124.286H167.663V123.255H167.604C167.509 123.445 167.367 123.631 167.177 123.815C166.987 123.998 166.743 124.151 166.445 124.272C166.147 124.393 165.79 124.454 165.373 124.454ZM165.693 123.274C166.099 123.274 166.446 123.194 166.735 123.033C167.026 122.873 167.247 122.663 167.398 122.404C167.552 122.142 167.629 121.862 167.629 121.564V120.591C167.577 120.644 167.475 120.693 167.324 120.739C167.177 120.781 167.008 120.819 166.818 120.852C166.628 120.881 166.443 120.909 166.263 120.935C166.083 120.958 165.932 120.978 165.811 120.994C165.526 121.03 165.265 121.091 165.029 121.176C164.797 121.261 164.61 121.384 164.469 121.544C164.332 121.702 164.263 121.911 164.263 122.173C164.263 122.537 164.397 122.812 164.666 122.999C164.934 123.182 165.277 123.274 165.693 123.274ZM174.22 127.274C173.62 127.274 173.104 127.196 172.672 127.038C172.243 126.881 171.892 126.673 171.62 126.414C171.348 126.155 171.145 125.872 171.011 125.564L172.274 125.043C172.362 125.187 172.48 125.34 172.628 125.5C172.778 125.664 172.982 125.803 173.237 125.918C173.496 126.033 173.828 126.09 174.235 126.09C174.792 126.09 175.252 125.954 175.615 125.682C175.979 125.413 176.161 124.984 176.161 124.395V122.911H176.068C175.979 123.071 175.851 123.25 175.684 123.446C175.52 123.643 175.294 123.813 175.006 123.957C174.718 124.101 174.343 124.173 173.881 124.173C173.285 124.173 172.747 124.034 172.269 123.756C171.794 123.474 171.417 123.06 171.139 122.513C170.864 121.962 170.726 121.286 170.726 120.483C170.726 119.68 170.862 118.992 171.134 118.419C171.409 117.846 171.786 117.407 172.264 117.102C172.742 116.794 173.285 116.64 173.891 116.64C174.359 116.64 174.738 116.719 175.026 116.876C175.314 117.03 175.538 117.21 175.699 117.417C175.863 117.623 175.989 117.805 176.077 117.962H176.186V116.739H177.625V124.454C177.625 125.102 177.475 125.635 177.173 126.051C176.872 126.467 176.464 126.775 175.95 126.974C175.439 127.174 174.862 127.274 174.22 127.274ZM174.205 122.955C174.628 122.955 174.985 122.857 175.276 122.66C175.571 122.46 175.794 122.175 175.945 121.805C176.099 121.431 176.176 120.984 176.176 120.463C176.176 119.956 176.1 119.508 175.95 119.122C175.799 118.735 175.578 118.434 175.286 118.218C174.995 117.998 174.634 117.888 174.205 117.888C173.763 117.888 173.394 118.003 173.1 118.232C172.805 118.458 172.582 118.766 172.431 119.156C172.284 119.546 172.21 119.982 172.21 120.463C172.21 120.958 172.285 121.392 172.436 121.766C172.587 122.139 172.81 122.431 173.104 122.64C173.403 122.85 173.769 122.955 174.205 122.955ZM182.849 124.439C182.105 124.439 181.465 124.28 180.928 123.962C180.394 123.641 179.981 123.191 179.689 122.611C179.401 122.028 179.257 121.345 179.257 120.562C179.257 119.789 179.401 119.107 179.689 118.517C179.981 117.928 180.387 117.467 180.908 117.137C181.432 116.806 182.045 116.64 182.746 116.64C183.172 116.64 183.584 116.711 183.984 116.852C184.384 116.992 184.742 117.214 185.06 117.515C185.378 117.816 185.629 118.208 185.812 118.689C185.995 119.168 186.087 119.749 186.087 120.434V120.955H180.087V119.854H184.647C184.647 119.467 184.569 119.125 184.412 118.827C184.254 118.526 184.033 118.288 183.748 118.115C183.466 117.941 183.136 117.854 182.756 117.854C182.343 117.854 181.982 117.956 181.674 118.159C181.37 118.359 181.134 118.621 180.967 118.945C180.803 119.266 180.721 119.615 180.721 119.992V120.852C180.721 121.356 180.81 121.785 180.986 122.139C181.167 122.493 181.417 122.763 181.738 122.95C182.059 123.133 182.434 123.225 182.864 123.225C183.142 123.225 183.396 123.186 183.625 123.107C183.855 123.025 184.053 122.904 184.22 122.744C184.387 122.583 184.515 122.385 184.603 122.149L185.994 122.4C185.882 122.809 185.683 123.168 185.394 123.476C185.109 123.78 184.751 124.018 184.318 124.188C183.889 124.355 183.399 124.439 182.849 124.439ZM193.373 118.581L192.042 118.817C191.986 118.647 191.898 118.485 191.776 118.331C191.658 118.177 191.498 118.051 191.295 117.952C191.092 117.854 190.838 117.805 190.533 117.805C190.117 117.805 189.77 117.898 189.491 118.085C189.213 118.268 189.074 118.506 189.074 118.798C189.074 119.05 189.167 119.253 189.354 119.407C189.541 119.561 189.842 119.687 190.258 119.785L191.457 120.06C192.152 120.221 192.669 120.468 193.01 120.802C193.351 121.137 193.521 121.571 193.521 122.105C193.521 122.557 193.39 122.96 193.128 123.314C192.869 123.664 192.507 123.939 192.042 124.139C191.58 124.339 191.044 124.439 190.435 124.439C189.59 124.439 188.9 124.259 188.366 123.898C187.832 123.535 187.505 123.019 187.383 122.35L188.803 122.134C188.892 122.504 189.074 122.784 189.349 122.974C189.624 123.161 189.983 123.255 190.425 123.255C190.907 123.255 191.292 123.155 191.58 122.955C191.868 122.752 192.012 122.504 192.012 122.213C192.012 121.977 191.924 121.779 191.747 121.618C191.573 121.458 191.306 121.336 190.946 121.255L189.668 120.974C188.964 120.814 188.443 120.558 188.106 120.208C187.772 119.857 187.604 119.413 187.604 118.876C187.604 118.431 187.729 118.041 187.978 117.707C188.227 117.372 188.571 117.112 189.01 116.925C189.449 116.735 189.952 116.64 190.518 116.64C191.334 116.64 191.976 116.817 192.445 117.171C192.913 117.522 193.223 117.992 193.373 118.581ZM201.978 124.439C201.247 124.439 200.618 124.273 200.091 123.943C199.567 123.608 199.164 123.148 198.882 122.562C198.6 121.975 198.459 121.304 198.459 120.547C198.459 119.78 198.604 119.104 198.892 118.517C199.18 117.928 199.586 117.467 200.111 117.137C200.635 116.806 201.252 116.64 201.963 116.64C202.536 116.64 203.048 116.747 203.496 116.96C203.945 117.169 204.307 117.464 204.582 117.844C204.861 118.224 205.026 118.668 205.079 119.176H203.649C203.57 118.822 203.39 118.517 203.108 118.262C202.83 118.006 202.456 117.879 201.988 117.879C201.578 117.879 201.219 117.987 200.912 118.203C200.607 118.416 200.369 118.721 200.199 119.117C200.029 119.51 199.943 119.975 199.943 120.513C199.943 121.063 200.027 121.538 200.194 121.938C200.361 122.337 200.597 122.647 200.902 122.866C201.21 123.086 201.572 123.196 201.988 123.196C202.266 123.196 202.518 123.145 202.744 123.043C202.974 122.938 203.165 122.789 203.319 122.596C203.477 122.403 203.586 122.17 203.649 121.898H205.079C205.026 122.386 204.867 122.822 204.602 123.205C204.337 123.589 203.981 123.89 203.536 124.11C203.093 124.329 202.574 124.439 201.978 124.439ZM206.65 124.286V116.739H208.07V117.938H208.149C208.286 117.531 208.529 117.212 208.876 116.979C209.226 116.744 209.623 116.626 210.065 116.626C210.157 116.626 210.265 116.629 210.389 116.635C210.517 116.642 210.617 116.65 210.689 116.66V118.065C210.63 118.049 210.525 118.031 210.375 118.011C210.224 117.988 210.073 117.977 209.923 117.977C209.575 117.977 209.266 118.051 208.994 118.198C208.725 118.342 208.512 118.544 208.355 118.802C208.198 119.058 208.119 119.35 208.119 119.677V124.286H206.65ZM214.87 124.439C214.162 124.439 213.545 124.277 213.017 123.952C212.49 123.628 212.08 123.174 211.789 122.591C211.497 122.008 211.351 121.327 211.351 120.547C211.351 119.764 211.497 119.079 211.789 118.493C212.08 117.906 212.49 117.451 213.017 117.127C213.545 116.802 214.162 116.64 214.87 116.64C215.577 116.64 216.195 116.802 216.722 117.127C217.25 117.451 217.659 117.906 217.951 118.493C218.242 119.079 218.388 119.764 218.388 120.547C218.388 121.327 218.242 122.008 217.951 122.591C217.659 123.174 217.25 123.628 216.722 123.952C216.195 124.277 215.577 124.439 214.87 124.439ZM214.875 123.205C215.333 123.205 215.713 123.084 216.015 122.842C216.316 122.599 216.539 122.277 216.683 121.874C216.83 121.471 216.904 121.027 216.904 120.542C216.904 120.06 216.83 119.618 216.683 119.215C216.539 118.809 216.316 118.483 216.015 118.237C215.713 117.992 215.333 117.869 214.875 117.869C214.413 117.869 214.029 117.992 213.725 118.237C213.423 118.483 213.199 118.809 213.052 119.215C212.907 119.618 212.835 120.06 212.835 120.542C212.835 121.027 212.907 121.471 213.052 121.874C213.199 122.277 213.423 122.599 213.725 122.842C214.029 123.084 214.413 123.205 214.875 123.205ZM225.684 118.581L224.353 118.817C224.297 118.647 224.208 118.485 224.087 118.331C223.969 118.177 223.809 118.051 223.606 117.952C223.403 117.854 223.149 117.805 222.844 117.805C222.428 117.805 222.081 117.898 221.802 118.085C221.524 118.268 221.385 118.506 221.385 118.798C221.385 119.05 221.478 119.253 221.665 119.407C221.851 119.561 222.153 119.687 222.569 119.785L223.768 120.06C224.462 120.221 224.98 120.468 225.321 120.802C225.661 121.137 225.832 121.571 225.832 122.105C225.832 122.557 225.701 122.96 225.439 123.314C225.18 123.664 224.818 123.939 224.353 124.139C223.891 124.339 223.355 124.439 222.746 124.439C221.9 124.439 221.211 124.259 220.677 123.898C220.143 123.535 219.815 123.019 219.694 122.35L221.114 122.134C221.203 122.504 221.385 122.784 221.66 122.974C221.935 123.161 222.294 123.255 222.736 123.255C223.217 123.255 223.602 123.155 223.891 122.955C224.179 122.752 224.323 122.504 224.323 122.213C224.323 121.977 224.235 121.779 224.058 121.618C223.884 121.458 223.617 121.336 223.257 121.255L221.979 120.974C221.275 120.814 220.754 120.558 220.416 120.208C220.082 119.857 219.915 119.413 219.915 118.876C219.915 118.431 220.04 118.041 220.289 117.707C220.538 117.372 220.882 117.112 221.321 116.925C221.76 116.735 222.262 116.64 222.829 116.64C223.645 116.64 224.287 116.817 224.756 117.171C225.224 117.522 225.534 117.992 225.684 118.581ZM233.103 118.581L231.772 118.817C231.716 118.647 231.627 118.485 231.506 118.331C231.388 118.177 231.228 118.051 231.025 117.952C230.821 117.854 230.568 117.805 230.263 117.805C229.847 117.805 229.5 117.898 229.221 118.085C228.943 118.268 228.803 118.506 228.803 118.798C228.803 119.05 228.897 119.253 229.084 119.407C229.27 119.561 229.572 119.687 229.988 119.785L231.187 120.06C231.881 120.221 232.399 120.468 232.74 120.802C233.08 121.137 233.251 121.571 233.251 122.105C233.251 122.557 233.12 122.96 232.857 123.314C232.599 123.664 232.237 123.939 231.772 124.139C231.31 124.339 230.774 124.439 230.165 124.439C229.319 124.439 228.63 124.259 228.096 123.898C227.562 123.535 227.234 123.019 227.113 122.35L228.533 122.134C228.622 122.504 228.803 122.784 229.079 122.974C229.354 123.161 229.713 123.255 230.155 123.255C230.636 123.255 231.021 123.155 231.31 122.955C231.598 122.752 231.742 122.504 231.742 122.213C231.742 121.977 231.654 121.779 231.477 121.618C231.303 121.458 231.036 121.336 230.676 121.255L229.398 120.974C228.694 120.814 228.173 120.558 227.835 120.208C227.501 119.857 227.334 119.413 227.334 118.876C227.334 118.431 227.459 118.041 227.708 117.707C227.957 117.372 228.301 117.112 228.74 116.925C229.179 116.735 229.681 116.64 230.248 116.64C231.064 116.64 231.706 116.817 232.174 117.171C232.643 117.522 232.953 117.992 233.103 118.581ZM241.708 124.439C240.977 124.439 240.348 124.273 239.821 123.943C239.296 123.608 238.894 123.148 238.612 122.562C238.33 121.975 238.189 121.304 238.189 120.547C238.189 119.78 238.333 119.104 238.622 118.517C238.91 117.928 239.316 117.467 239.84 117.137C240.364 116.806 240.982 116.64 241.693 116.64C242.266 116.64 242.777 116.747 243.226 116.96C243.675 117.169 244.037 117.464 244.312 117.844C244.591 118.224 244.756 118.668 244.808 119.176H243.378C243.3 118.822 243.12 118.517 242.838 118.262C242.559 118.006 242.186 117.879 241.717 117.879C241.308 117.879 240.949 117.987 240.641 118.203C240.337 118.416 240.099 118.721 239.929 119.117C239.758 119.51 239.673 119.975 239.673 120.513C239.673 121.063 239.757 121.538 239.924 121.938C240.091 122.337 240.327 122.647 240.631 122.866C240.939 123.086 241.301 123.196 241.717 123.196C241.996 123.196 242.248 123.145 242.474 123.043C242.704 122.938 242.895 122.789 243.049 122.596C243.206 122.403 243.316 122.17 243.378 121.898H244.808C244.756 122.386 244.597 122.822 244.332 123.205C244.066 123.589 243.711 123.89 243.265 124.11C242.823 124.329 242.304 124.439 241.708 124.439ZM247.849 119.805V124.286H246.38V114.223H247.829V117.967H247.923C248.1 117.561 248.37 117.238 248.733 116.999C249.097 116.76 249.572 116.64 250.158 116.64C250.676 116.64 251.128 116.747 251.515 116.96C251.905 117.173 252.206 117.49 252.419 117.913C252.635 118.332 252.743 118.857 252.743 119.486V124.286H251.274V119.662C251.274 119.109 251.131 118.68 250.846 118.375C250.561 118.067 250.165 117.913 249.657 117.913C249.31 117.913 248.999 117.987 248.724 118.134C248.452 118.282 248.237 118.498 248.08 118.783C247.926 119.065 247.849 119.405 247.849 119.805ZM256.9 124.454C256.422 124.454 255.99 124.365 255.603 124.188C255.217 124.008 254.91 123.748 254.684 123.407C254.462 123.066 254.35 122.648 254.35 122.154C254.35 121.728 254.432 121.377 254.596 121.102C254.76 120.827 254.981 120.609 255.259 120.449C255.538 120.288 255.849 120.167 256.193 120.085C256.537 120.003 256.887 119.941 257.244 119.898C257.697 119.846 258.063 119.803 258.345 119.771C258.627 119.734 258.832 119.677 258.959 119.599C259.087 119.52 259.151 119.392 259.151 119.215V119.181C259.151 118.752 259.03 118.419 258.787 118.183C258.548 117.947 258.191 117.829 257.716 117.829C257.222 117.829 256.832 117.939 256.547 118.159C256.265 118.375 256.07 118.616 255.962 118.881L254.581 118.567C254.745 118.108 254.984 117.738 255.299 117.456C255.616 117.171 255.982 116.965 256.394 116.837C256.807 116.706 257.241 116.64 257.697 116.64C257.998 116.64 258.317 116.676 258.655 116.748C258.995 116.817 259.313 116.945 259.608 117.132C259.906 117.318 260.15 117.585 260.34 117.933C260.53 118.277 260.625 118.724 260.625 119.274V124.286H259.19V123.255H259.131C259.036 123.445 258.894 123.631 258.704 123.815C258.514 123.998 258.27 124.151 257.972 124.272C257.674 124.393 257.317 124.454 256.9 124.454ZM257.22 123.274C257.626 123.274 257.973 123.194 258.262 123.033C258.553 122.873 258.774 122.663 258.925 122.404C259.079 122.142 259.156 121.862 259.156 121.564V120.591C259.104 120.644 259.002 120.693 258.851 120.739C258.704 120.781 258.535 120.819 258.345 120.852C258.155 120.881 257.97 120.909 257.79 120.935C257.61 120.958 257.459 120.978 257.338 120.994C257.053 121.03 256.792 121.091 256.557 121.176C256.324 121.261 256.137 121.384 255.996 121.544C255.859 121.702 255.79 121.911 255.79 122.173C255.79 122.537 255.924 122.812 256.193 122.999C256.462 123.182 256.804 123.274 257.22 123.274ZM262.582 124.286V116.739H264.052V124.286H262.582ZM263.324 115.574C263.069 115.574 262.849 115.489 262.666 115.318C262.486 115.145 262.396 114.938 262.396 114.699C262.396 114.457 262.486 114.25 262.666 114.08C262.849 113.906 263.069 113.82 263.324 113.82C263.58 113.82 263.798 113.906 263.978 114.08C264.161 114.25 264.253 114.457 264.253 114.699C264.253 114.938 264.161 115.145 263.978 115.318C263.798 115.489 263.58 115.574 263.324 115.574ZM267.498 119.805V124.286H266.028V116.739H267.439V117.967H267.532C267.706 117.567 267.977 117.246 268.348 117.004C268.721 116.762 269.191 116.64 269.758 116.64C270.272 116.64 270.723 116.748 271.109 116.965C271.496 117.178 271.796 117.495 272.009 117.918C272.222 118.341 272.328 118.863 272.328 119.486V124.286H270.859V119.662C270.859 119.115 270.716 118.688 270.431 118.38C270.146 118.069 269.755 117.913 269.257 117.913C268.916 117.913 268.613 117.987 268.348 118.134C268.086 118.282 267.878 118.498 267.724 118.783C267.573 119.065 267.498 119.405 267.498 119.805ZM275.267 124.38C274.998 124.38 274.767 124.285 274.574 124.095C274.38 123.902 274.284 123.669 274.284 123.397C274.284 123.128 274.38 122.899 274.574 122.709C274.767 122.516 274.998 122.419 275.267 122.419C275.535 122.419 275.766 122.516 275.959 122.709C276.153 122.899 276.249 123.128 276.249 123.397C276.249 123.577 276.204 123.743 276.112 123.893C276.023 124.041 275.905 124.159 275.758 124.247C275.611 124.336 275.447 124.38 275.267 124.38Z" fill="#2C2C2C"/>
<path d="M128.633 66V47.213H136.045C137.47 47.213 138.684 47.4851 139.687 48.0294C140.69 48.5676 141.454 49.3167 141.98 50.2769C142.512 51.2309 142.778 52.3317 142.778 53.5793C142.778 54.8269 142.509 55.9277 141.971 56.8817C141.433 57.8357 140.653 58.5788 139.632 59.1108C138.617 59.6429 137.387 59.9089 135.944 59.9089H131.22V56.7257H135.302C136.066 56.7257 136.696 56.5943 137.192 56.3313C137.693 56.0622 138.066 55.6922 138.311 55.2213C138.561 54.7443 138.687 54.197 138.687 53.5793C138.687 52.9555 138.561 52.4112 138.311 51.9464C138.066 51.4755 137.693 51.1117 137.192 50.8548C136.69 50.5918 136.054 50.4603 135.284 50.4603H132.605V66H128.633ZM145.285 66V51.9097H149.193V66H145.285ZM147.248 50.0934C146.667 50.0934 146.168 49.9008 145.753 49.5155C145.343 49.1241 145.138 48.6563 145.138 48.112C145.138 47.5738 145.343 47.1121 145.753 46.7268C146.168 46.3354 146.667 46.1397 147.248 46.1397C147.829 46.1397 148.324 46.3354 148.734 46.7268C149.15 47.1121 149.358 47.5738 149.358 48.112C149.358 48.6563 149.15 49.1241 148.734 49.5155C148.324 49.9008 147.829 50.0934 147.248 50.0934ZM158.671 71.5774C157.405 71.5774 156.32 71.4031 155.414 71.0545C154.515 70.712 153.8 70.2442 153.268 69.651C152.736 69.0578 152.39 68.3912 152.231 67.6512L155.846 67.165C155.956 67.4463 156.13 67.7093 156.368 67.9539C156.607 68.1985 156.922 68.3942 157.313 68.541C157.711 68.6939 158.194 68.7704 158.763 68.7704C159.613 68.7704 160.313 68.5624 160.863 68.1466C161.42 67.7368 161.698 67.0488 161.698 66.0826V63.5048H161.533C161.362 63.8962 161.105 64.2662 160.763 64.6148C160.42 64.9634 159.98 65.2478 159.442 65.4679C158.903 65.6881 158.261 65.7982 157.515 65.7982C156.457 65.7982 155.494 65.5536 154.626 65.0643C153.763 64.569 153.075 63.8137 152.562 62.7985C152.054 61.7772 151.8 60.4868 151.8 58.9273C151.8 57.3312 152.06 55.998 152.58 54.9278C153.1 53.8575 153.791 53.0564 154.653 52.5244C155.521 51.9923 156.472 51.7263 157.506 51.7263C158.295 51.7263 158.955 51.8608 159.487 52.1299C160.019 52.3929 160.448 52.7231 160.772 53.1206C161.102 53.512 161.356 53.8973 161.533 54.2765H161.68V51.9097H165.56V66.1376C165.56 67.3363 165.267 68.3392 164.68 69.1465C164.092 69.9537 163.279 70.5592 162.239 70.9628C161.206 71.3725 160.016 71.5774 158.671 71.5774ZM158.754 62.8627C159.383 62.8627 159.916 62.7068 160.35 62.3949C160.79 62.0769 161.126 61.6243 161.359 61.0372C161.597 60.444 161.717 59.7346 161.717 58.909C161.717 58.0834 161.6 57.3679 161.368 56.7624C161.136 56.1509 160.799 55.6769 160.359 55.3406C159.919 55.0042 159.383 54.836 158.754 54.836C158.111 54.836 157.57 55.0103 157.13 55.3589C156.69 55.7014 156.356 56.1784 156.13 56.79C155.904 57.4015 155.791 58.1079 155.791 58.909C155.791 59.7224 155.904 60.4257 156.13 61.0189C156.362 61.606 156.696 62.0616 157.13 62.3857C157.57 62.7037 158.111 62.8627 158.754 62.8627ZM175.091 66.2752C173.642 66.2752 172.394 65.9817 171.349 65.3946C170.309 64.8013 169.508 63.9635 168.945 62.8811C168.382 61.7925 168.101 60.5052 168.101 59.0191C168.101 57.5697 168.382 56.2977 168.945 55.203C169.508 54.1083 170.3 53.2552 171.321 52.6436C172.348 52.032 173.553 51.7263 174.935 51.7263C175.865 51.7263 176.73 51.8761 177.531 52.1758C178.339 52.4693 179.042 52.9127 179.641 53.5059C180.247 54.0991 180.718 54.8452 181.054 55.7442C181.39 56.6371 181.558 57.6828 181.558 58.8815V59.9548H169.661V57.533H177.88C177.88 56.9704 177.758 56.4719 177.513 56.0377C177.268 55.6035 176.929 55.2641 176.495 55.0195C176.067 54.7688 175.568 54.6434 175 54.6434C174.406 54.6434 173.88 54.781 173.422 55.0562C172.969 55.3253 172.614 55.6892 172.358 56.1478C172.101 56.6004 171.969 57.1049 171.963 57.6614V59.9639C171.963 60.6611 172.092 61.2635 172.348 61.7711C172.611 62.2787 172.981 62.6701 173.458 62.9453C173.935 63.2205 174.501 63.3581 175.155 63.3581C175.59 63.3581 175.987 63.2969 176.348 63.1746C176.709 63.0523 177.018 62.8688 177.275 62.6242C177.531 62.3796 177.727 62.0799 177.862 61.7252L181.476 61.9637C181.292 62.8321 180.916 63.5905 180.348 64.2387C179.785 64.8809 179.057 65.3823 178.164 65.7431C177.278 66.0978 176.253 66.2752 175.091 66.2752ZM190.475 66.2752C189.05 66.2752 187.818 65.9725 186.778 65.367C185.745 64.7555 184.947 63.9054 184.384 62.8168C183.821 61.7222 183.54 60.4532 183.54 59.0099C183.54 57.5544 183.821 56.2824 184.384 55.1938C184.947 54.0991 185.745 53.249 186.778 52.6436C187.818 52.032 189.05 51.7263 190.475 51.7263C191.9 51.7263 193.129 52.032 194.163 52.6436C195.202 53.249 196.003 54.0991 196.566 55.1938C197.129 56.2824 197.41 57.5544 197.41 59.0099C197.41 60.4532 197.129 61.7222 196.566 62.8168C196.003 63.9054 195.202 64.7555 194.163 65.367C193.129 65.9725 191.9 66.2752 190.475 66.2752ZM190.493 63.248C191.142 63.248 191.683 63.0645 192.117 62.6976C192.551 62.3245 192.878 61.817 193.099 61.1748C193.325 60.5327 193.438 59.8019 193.438 58.9824C193.438 58.1629 193.325 57.4321 193.099 56.79C192.878 56.1478 192.551 55.6402 192.117 55.2672C191.683 54.8941 191.142 54.7076 190.493 54.7076C189.839 54.7076 189.289 54.8941 188.842 55.2672C188.402 55.6402 188.069 56.1478 187.842 56.79C187.622 57.4321 187.512 58.1629 187.512 58.9824C187.512 59.8019 187.622 60.5327 187.842 61.1748C188.069 61.817 188.402 62.3245 188.842 62.6976C189.289 63.0645 189.839 63.248 190.493 63.248ZM203.859 57.8541V66H199.951V51.9097H203.675V54.3957H203.841C204.152 53.5762 204.675 52.928 205.409 52.451C206.143 51.9678 207.033 51.7263 208.079 51.7263C209.057 51.7263 209.91 51.9403 210.638 52.3684C211.366 52.7965 211.931 53.4081 212.335 54.2031C212.739 54.992 212.941 55.9338 212.941 57.0285V66H209.033V57.7256C209.039 56.8633 208.819 56.1906 208.372 55.7075C207.926 55.2183 207.311 54.9736 206.528 54.9736C206.002 54.9736 205.538 55.0868 205.134 55.313C204.736 55.5393 204.425 55.8696 204.198 56.3038C203.978 56.7319 203.865 57.2486 203.859 57.8541ZM221.999 66V51.9097H225.788V54.3682H225.935C226.191 53.4937 226.623 52.8332 227.228 52.3868C227.833 51.9342 228.531 51.7079 229.32 51.7079C229.515 51.7079 229.726 51.7202 229.952 51.7446C230.179 51.7691 230.378 51.8027 230.549 51.8455V55.313C230.365 55.258 230.111 55.2091 229.787 55.1663C229.463 55.1235 229.167 55.1021 228.898 55.1021C228.323 55.1021 227.809 55.2274 227.356 55.4782C226.91 55.7228 226.555 56.0653 226.292 56.5056C226.035 56.9459 225.907 57.4535 225.907 58.0284V66H221.999ZM238.335 66.2752C236.885 66.2752 235.638 65.9817 234.592 65.3946C233.552 64.8013 232.751 63.9635 232.188 62.8811C231.626 61.7925 231.345 60.5052 231.345 59.0191C231.345 57.5697 231.626 56.2977 232.188 55.203C232.751 54.1083 233.543 53.2552 234.564 52.6436C235.592 52.032 236.797 51.7263 238.179 51.7263C239.108 51.7263 239.974 51.8761 240.775 52.1758C241.582 52.4693 242.285 52.9127 242.885 53.5059C243.49 54.0991 243.961 54.8452 244.297 55.7442C244.634 56.6371 244.802 57.6828 244.802 58.8815V59.9548H232.904V57.533H241.123C241.123 56.9704 241.001 56.4719 240.756 56.0377C240.512 55.6035 240.172 55.2641 239.738 55.0195C239.31 54.7688 238.812 54.6434 238.243 54.6434C237.65 54.6434 237.124 54.781 236.665 55.0562C236.213 55.3253 235.858 55.6892 235.601 56.1478C235.344 56.6004 235.213 57.1049 235.207 57.6614V59.9639C235.207 60.6611 235.335 61.2635 235.592 61.7711C235.855 62.2787 236.225 62.6701 236.702 62.9453C237.179 63.2205 237.744 63.3581 238.399 63.3581C238.833 63.3581 239.231 63.2969 239.591 63.1746C239.952 63.0523 240.261 62.8688 240.518 62.6242C240.775 62.3796 240.97 62.0799 241.105 61.7252L244.719 61.9637C244.536 62.8321 244.16 63.5905 243.591 64.2387C243.028 64.8809 242.301 65.3823 241.408 65.7431C240.521 66.0978 239.497 66.2752 238.335 66.2752ZM251.26 47.213V66H247.352V47.213H251.26ZM258.408 66.266C257.509 66.266 256.708 66.1101 256.005 65.7982C255.301 65.4802 254.745 65.0123 254.335 64.3947C253.932 63.7709 253.73 62.9942 253.73 62.0646C253.73 61.2818 253.874 60.6244 254.161 60.0924C254.448 59.5603 254.84 59.1322 255.335 58.8081C255.83 58.484 256.393 58.2393 257.023 58.0742C257.659 57.9091 258.326 57.7929 259.023 57.7256C259.842 57.64 260.503 57.5605 261.004 57.4871C261.506 57.4076 261.87 57.2914 262.096 57.1385C262.322 56.9857 262.435 56.7594 262.435 56.4597V56.4047C262.435 55.8237 262.252 55.3742 261.885 55.0562C261.524 54.7382 261.01 54.5792 260.344 54.5792C259.64 54.5792 259.081 54.7351 258.665 55.047C258.249 55.3528 257.974 55.7381 257.839 56.2029L254.225 55.9093C254.409 55.0531 254.769 54.3132 255.308 53.6894C255.846 53.0595 256.54 52.5763 257.39 52.24C258.246 51.8975 259.237 51.7263 260.362 51.7263C261.145 51.7263 261.894 51.818 262.61 52.0015C263.331 52.1849 263.97 52.4693 264.527 52.8546C265.089 53.2399 265.533 53.7352 265.857 54.3407C266.181 54.94 266.343 55.6586 266.343 56.4964V66H262.637V64.0461H262.527C262.301 64.4864 261.998 64.8747 261.619 65.2111C261.24 65.5413 260.784 65.8012 260.252 65.9908C259.72 66.1743 259.105 66.266 258.408 66.266ZM259.527 63.5691C260.102 63.5691 260.61 63.4559 261.05 63.2296C261.49 62.9973 261.836 62.6854 262.087 62.294C262.337 61.9026 262.463 61.4592 262.463 60.9638V59.4686C262.341 59.5481 262.172 59.6215 261.958 59.6887C261.75 59.7499 261.515 59.808 261.252 59.863C260.989 59.912 260.726 59.9578 260.463 60.0006C260.2 60.0373 259.962 60.071 259.748 60.1015C259.289 60.1688 258.888 60.2758 258.546 60.4226C258.203 60.5694 257.937 60.7681 257.748 61.0189C257.558 61.2635 257.463 61.5693 257.463 61.9362C257.463 62.4683 257.656 62.8749 258.041 63.1563C258.433 63.4315 258.928 63.5691 259.527 63.5691ZM271.283 71.2838C270.788 71.2838 270.323 71.2441 269.889 71.1646C269.461 71.0912 269.106 70.9964 268.825 70.8802L269.705 67.9631C270.164 68.1038 270.577 68.1802 270.944 68.1924C271.317 68.2047 271.638 68.119 271.907 67.9356C272.182 67.7521 272.405 67.4402 272.576 66.9999L272.806 66.4036L267.751 51.9097H271.861L274.778 62.2573H274.925L277.869 51.9097H282.007L276.53 67.5228C276.267 68.2811 275.909 68.9416 275.457 69.5042C275.01 70.073 274.445 70.5102 273.76 70.816C273.075 71.1279 272.249 71.2838 271.283 71.2838ZM289.974 66.2752C288.524 66.2752 287.277 65.9817 286.231 65.3946C285.191 64.8013 284.39 63.9635 283.828 62.8811C283.265 61.7925 282.984 60.5052 282.984 59.0191C282.984 57.5697 283.265 56.2977 283.828 55.203C284.39 54.1083 285.182 53.2552 286.203 52.6436C287.231 52.032 288.436 51.7263 289.818 51.7263C290.747 51.7263 291.613 51.8761 292.414 52.1758C293.221 52.4693 293.924 52.9127 294.524 53.5059C295.129 54.0991 295.6 54.8452 295.936 55.7442C296.273 56.6371 296.441 57.6828 296.441 58.8815V59.9548H284.543V57.533H292.762C292.762 56.9704 292.64 56.4719 292.395 56.0377C292.151 55.6035 291.811 55.2641 291.377 55.0195C290.949 54.7688 290.451 54.6434 289.882 54.6434C289.289 54.6434 288.763 54.781 288.304 55.0562C287.852 55.3253 287.497 55.6892 287.24 56.1478C286.983 56.6004 286.852 57.1049 286.846 57.6614V59.9639C286.846 60.6611 286.974 61.2635 287.231 61.7711C287.494 62.2787 287.864 62.6701 288.341 62.9453C288.818 63.2205 289.384 63.3581 290.038 63.3581C290.472 63.3581 290.87 63.2969 291.23 63.1746C291.591 63.0523 291.9 62.8688 292.157 62.6242C292.414 62.3796 292.61 62.0799 292.744 61.7252L296.358 61.9637C296.175 62.8321 295.799 63.5905 295.23 64.2387C294.667 64.8809 293.94 65.3823 293.047 65.7431C292.16 66.0978 291.136 66.2752 289.974 66.2752ZM298.991 66V51.9097H302.78V54.3682H302.926C303.183 53.4937 303.614 52.8332 304.22 52.3868C304.825 51.9342 305.523 51.7079 306.311 51.7079C306.507 51.7079 306.718 51.7202 306.944 51.7446C307.171 51.7691 307.369 51.8027 307.541 51.8455V55.313C307.357 55.258 307.103 55.2091 306.779 55.1663C306.455 55.1235 306.159 55.1021 305.889 55.1021C305.315 55.1021 304.801 55.2274 304.348 55.4782C303.902 55.7228 303.547 56.0653 303.284 56.5056C303.027 56.9459 302.899 57.4535 302.899 58.0284V66H298.991Z" fill="#2C2C2C"/>
<path d="M407.561 32.9297L404.717 33.1411L406.685 17.3353L394.006 29.3497L392.243 27.5081L404.923 15.4937L388.959 16.6793L389.311 13.8654L407.917 12.4806L407.644 14.6708L409.856 14.5063L407.561 32.9297Z" fill="#FF62C4"/>
<path d="M93.9999 62.0954C93.9999 57.8458 90.5624 54.4655 86.4573 54.4655C82.3516 54.4655 78.9147 57.9428 78.9147 62.0954C78.9147 65.0893 80.6332 67.6005 83.0203 68.953C81.8744 74.4577 77.3867 76.9689 71.0852 79.8664C69.5577 80.5424 68.0297 81.3152 66.5975 82.088V59.5838C69.1752 58.4245 71.0852 55.7206 71.0852 52.6299C71.0852 48.3803 67.6477 45 63.5426 45C59.3416 45 56 48.4772 56 52.6299C56 55.7207 57.8143 58.4251 60.4877 59.5838V93.7748V87.9795V95.4162C57.91 96.5755 56 99.2794 56 102.37C56 106.62 59.4375 110 63.5426 110C67.7435 110 71.0852 106.523 71.0852 102.37C71.0852 99.2793 69.2709 96.5749 66.5975 95.4162V90.8766C66.5975 88.945 69.2709 87.5925 73.6628 85.5646C79.7732 82.7638 87.7938 78.997 89.3213 69.2423C92.0906 68.0836 94 65.3792 94 62.0958L93.9999 62.0954ZM63.5422 48.8635C65.6427 48.8635 67.2659 50.6018 67.2659 52.6303C67.2659 54.7551 65.5474 56.3971 63.5422 56.3971C61.4417 56.3971 59.8185 54.6587 59.8185 52.6303C59.819 50.6018 61.4417 48.8635 63.5422 48.8635ZM63.5422 106.137C61.4417 106.137 59.8185 104.399 59.8185 102.371C59.8185 100.246 61.5369 98.6037 63.5422 98.6037C65.6427 98.6037 67.2659 100.342 67.2659 102.371C67.2659 104.495 65.5474 106.137 63.5422 106.137ZM86.4573 65.959C84.3567 65.959 82.7336 64.2206 82.7336 62.1922C82.7336 60.0673 84.452 58.4254 86.4573 58.4254C88.4625 58.4254 90.181 60.1637 90.181 62.1922C90.181 64.2206 88.5578 65.959 86.4573 65.959Z" fill="#FF62C4"/>
</svg>
