<svg width="440" height="166" viewBox="0 0 440 166" fill="none" xmlns="http://www.w3.org/2000/svg">
<rect x="438.659" y="10.4487" width="154.292" height="416.519" rx="7.61081" transform="rotate(90 438.659 10.4487)" fill="#F1D1E5" stroke="#F1D1E5" stroke-width="1.38378"/>
<rect x="426.897" y="0.762204" width="154.292" height="426.205" rx="7.61081" transform="rotate(90 426.897 0.762204)" fill="#FFFFFF" stroke="#F1D1E5" stroke-width="1.38378"/>
<path d="M133.211 87.6016C133.158 87.1364 132.942 86.776 132.562 86.5205C132.182 86.2617 131.704 86.1323 131.127 86.1323C130.714 86.1323 130.357 86.1978 130.056 86.3289C129.755 86.4566 129.52 86.6335 129.353 86.8596C129.189 87.0823 129.108 87.3362 129.108 87.6212C129.108 87.8604 129.163 88.0668 129.275 88.2404C129.389 88.414 129.538 88.5598 129.722 88.6777C129.909 88.7924 130.108 88.8891 130.321 88.9677C130.534 89.043 130.739 89.1053 130.936 89.1544L131.918 89.4099C132.239 89.4886 132.569 89.595 132.906 89.7293C133.244 89.8637 133.556 90.0406 133.845 90.2601C134.133 90.4795 134.366 90.7515 134.542 91.0758C134.723 91.4001 134.813 91.7883 134.813 92.2404C134.813 92.8104 134.665 93.3166 134.37 93.7588C134.079 94.2011 133.655 94.55 133.098 94.8055C132.544 95.061 131.874 95.1888 131.088 95.1888C130.334 95.1888 129.683 95.0692 129.132 94.8301C128.582 94.5909 128.151 94.2519 127.84 93.8129C127.529 93.3706 127.357 92.8465 127.324 92.2404H128.847C128.877 92.604 128.995 92.9071 129.201 93.1495C129.411 93.3886 129.678 93.5672 130.002 93.6851C130.33 93.7998 130.688 93.8571 131.078 93.8571C131.507 93.8571 131.889 93.79 132.223 93.6556C132.56 93.518 132.826 93.328 133.019 93.0856C133.212 92.8399 133.309 92.5533 133.309 92.2257C133.309 91.9275 133.224 91.6835 133.054 91.4935C132.886 91.3035 132.659 91.1462 132.37 91.0217C132.085 90.8972 131.763 90.7875 131.402 90.6925L130.213 90.3682C129.407 90.1487 128.769 89.826 128.297 89.4001C127.828 88.9742 127.594 88.4108 127.594 87.7097C127.594 87.1298 127.751 86.6237 128.066 86.1913C128.38 85.7588 128.806 85.423 129.343 85.1839C129.881 84.9415 130.487 84.8203 131.162 84.8203C131.843 84.8203 132.444 84.9398 132.965 85.179C133.489 85.4181 133.902 85.7474 134.203 86.1667C134.505 86.5827 134.662 87.061 134.675 87.6016H133.211ZM139.762 95.1741C139.019 95.1741 138.378 95.0152 137.841 94.6974C137.307 94.3764 136.894 93.9259 136.603 93.3461C136.314 92.7629 136.17 92.0799 136.17 91.2969C136.17 90.5238 136.314 89.8424 136.603 89.2527C136.894 88.663 137.3 88.2027 137.821 87.8719C138.346 87.541 138.958 87.3755 139.659 87.3755C140.085 87.3755 140.498 87.446 140.898 87.5868C141.297 87.7277 141.656 87.9488 141.974 88.2502C142.291 88.5516 142.542 88.9431 142.726 89.4247C142.909 89.903 143.001 90.4845 143.001 91.1691V91.69H137.001V90.5893H141.561C141.561 90.2027 141.482 89.8604 141.325 89.5623C141.168 89.2609 140.947 89.0234 140.662 88.8497C140.38 88.6761 140.049 88.5893 139.669 88.5893C139.256 88.5893 138.896 88.6909 138.588 88.894C138.283 89.0938 138.047 89.3559 137.88 89.6802C137.717 90.0013 137.635 90.3501 137.635 90.7269V91.5868C137.635 92.0913 137.723 92.5205 137.9 92.8743C138.08 93.2281 138.331 93.4984 138.652 93.6851C138.973 93.8686 139.348 93.9603 139.777 93.9603C140.056 93.9603 140.309 93.921 140.539 93.8424C140.768 93.7605 140.966 93.6393 141.133 93.4787C141.3 93.3182 141.428 93.12 141.517 92.8841L142.907 93.1348C142.796 93.5443 142.596 93.903 142.308 94.2109C142.023 94.5156 141.664 94.7531 141.232 94.9234C140.803 95.0905 140.313 95.1741 139.762 95.1741ZM146.1 90.5402V95.0217H144.631V87.4738H146.041V88.7023H146.135C146.308 88.3026 146.58 87.9816 146.95 87.7392C147.324 87.4967 147.794 87.3755 148.361 87.3755C148.875 87.3755 149.325 87.4836 149.712 87.6999C150.099 87.9128 150.398 88.2306 150.611 88.6532C150.824 89.0758 150.931 89.5983 150.931 90.2207V95.0217H149.461V90.3976C149.461 89.8506 149.319 89.423 149.034 89.1151C148.749 88.8039 148.357 88.6483 147.859 88.6483C147.519 88.6483 147.216 88.722 146.95 88.8694C146.688 89.0168 146.48 89.233 146.326 89.518C146.176 89.7998 146.1 90.1405 146.1 90.5402ZM155.727 95.1691C155.117 95.1691 154.574 95.0135 154.095 94.7023C153.62 94.3878 153.247 93.9406 152.975 93.3608C152.706 92.7777 152.572 92.0782 152.572 91.2625C152.572 90.4468 152.708 89.749 152.98 89.1691C153.255 88.5893 153.632 88.1454 154.11 87.8375C154.588 87.5295 155.131 87.3755 155.737 87.3755C156.205 87.3755 156.582 87.4542 156.867 87.6114C157.155 87.7654 157.378 87.9456 157.535 88.1519C157.696 88.3583 157.82 88.5402 157.909 88.6974H157.997V84.9578H159.466V95.0217H158.031V93.8473H157.909C157.82 94.0078 157.692 94.1913 157.525 94.3976C157.361 94.604 157.135 94.7842 156.847 94.9382C156.559 95.0922 156.185 95.1691 155.727 95.1691ZM156.051 93.9161C156.474 93.9161 156.831 93.8047 157.122 93.5819C157.417 93.3559 157.64 93.043 157.791 92.6434C157.945 92.2437 158.022 91.7785 158.022 91.2478C158.022 90.7236 157.946 90.265 157.796 89.8719C157.645 89.4787 157.424 89.1724 157.132 88.9529C156.841 88.7334 156.48 88.6237 156.051 88.6237C155.609 88.6237 155.24 88.7384 154.945 88.9677C154.651 89.197 154.428 89.5099 154.277 89.9062C154.13 90.3026 154.056 90.7498 154.056 91.2478C154.056 91.7523 154.131 92.206 154.282 92.609C154.433 93.0119 154.655 93.3313 154.95 93.5672C155.248 93.7998 155.615 93.9161 156.051 93.9161ZM168.405 95.1741C167.674 95.1741 167.045 95.0086 166.518 94.6777C165.994 94.3436 165.591 93.8833 165.309 93.2969C165.027 92.7105 164.886 92.0389 164.886 91.2822C164.886 90.5156 165.031 89.8391 165.319 89.2527C165.607 88.663 166.013 88.2027 166.538 87.8719C167.062 87.541 167.679 87.3755 168.39 87.3755C168.963 87.3755 169.474 87.482 169.923 87.6949C170.372 87.9046 170.734 88.1995 171.009 88.5795C171.288 88.9595 171.453 89.4034 171.506 89.9112H170.076C169.997 89.5574 169.817 89.2527 169.535 88.9972C169.257 88.7416 168.883 88.6139 168.415 88.6139C168.005 88.6139 167.646 88.722 167.339 88.9382C167.034 89.1511 166.796 89.4558 166.626 89.8522C166.456 90.2453 166.37 90.7105 166.37 91.2478C166.37 91.7981 166.454 92.2732 166.621 92.6728C166.788 93.0725 167.024 93.3821 167.329 93.6016C167.637 93.8211 167.999 93.9308 168.415 93.9308C168.693 93.9308 168.945 93.88 169.171 93.7785C169.401 93.6737 169.592 93.5246 169.746 93.3313C169.904 93.138 170.013 92.9054 170.076 92.6335H171.506C171.453 93.1216 171.294 93.5574 171.029 93.9406C170.764 94.3239 170.408 94.6253 169.963 94.8448C169.52 95.0643 169.001 95.1741 168.405 95.1741ZM173.077 95.0217V87.4738H174.497V88.6728H174.576C174.713 88.2666 174.956 87.9472 175.303 87.7146C175.653 87.4787 176.05 87.3608 176.492 87.3608C176.584 87.3608 176.692 87.3641 176.816 87.3706C176.944 87.3772 177.044 87.3854 177.116 87.3952V88.8006C177.057 88.7842 176.952 88.7662 176.802 88.7465C176.651 88.7236 176.5 88.7121 176.35 88.7121C176.002 88.7121 175.693 88.7859 175.421 88.9333C175.152 89.0774 174.939 89.2789 174.782 89.5377C174.625 89.7932 174.546 90.0848 174.546 90.4124V95.0217H173.077ZM181.297 95.1741C180.589 95.1741 179.972 95.0119 179.444 94.6876C178.917 94.3633 178.507 93.9095 178.216 93.3264C177.924 92.7433 177.778 92.0619 177.778 91.2822C177.778 90.4992 177.924 89.8145 178.216 89.2281C178.507 88.6417 178.917 88.1863 179.444 87.862C179.972 87.5377 180.589 87.3755 181.297 87.3755C182.004 87.3755 182.622 87.5377 183.149 87.862C183.677 88.1863 184.086 88.6417 184.378 89.2281C184.669 89.8145 184.815 90.4992 184.815 91.2822C184.815 92.0619 184.669 92.7433 184.378 93.3264C184.086 93.9095 183.677 94.3633 183.149 94.6876C182.622 95.0119 182.004 95.1741 181.297 95.1741ZM181.302 93.9406C181.76 93.9406 182.14 93.8194 182.442 93.577C182.743 93.3346 182.966 93.0119 183.11 92.609C183.257 92.206 183.331 91.7621 183.331 91.2773C183.331 90.7957 183.257 90.3534 183.11 89.9505C182.966 89.5443 182.743 89.2183 182.442 88.9726C182.14 88.7269 181.76 88.604 181.302 88.604C180.84 88.604 180.456 88.7269 180.152 88.9726C179.85 89.2183 179.626 89.5443 179.479 89.9505C179.334 90.3534 179.262 90.7957 179.262 91.2773C179.262 91.7621 179.334 92.206 179.479 92.609C179.626 93.0119 179.85 93.3346 180.152 93.577C180.456 93.8194 180.84 93.9406 181.302 93.9406ZM192.111 89.3166L190.78 89.5524C190.724 89.3821 190.635 89.2199 190.514 89.066C190.396 88.912 190.236 88.7859 190.033 88.6876C189.83 88.5893 189.576 88.5402 189.271 88.5402C188.855 88.5402 188.508 88.6335 188.229 88.8203C187.951 89.0037 187.812 89.2412 187.812 89.5328C187.812 89.785 187.905 89.9881 188.092 90.1421C188.278 90.2961 188.58 90.4222 188.996 90.5205L190.195 90.7957C190.889 90.9562 191.407 91.2035 191.748 91.5377C192.088 91.8719 192.259 92.3059 192.259 92.8399C192.259 93.292 192.128 93.6949 191.866 94.0488C191.607 94.3993 191.245 94.6745 190.78 94.8743C190.318 95.0741 189.782 95.1741 189.173 95.1741C188.327 95.1741 187.638 94.9939 187.104 94.6335C186.57 94.2699 186.242 93.7539 186.121 93.0856L187.541 92.8694C187.63 93.2396 187.812 93.5197 188.087 93.7097C188.362 93.8964 188.721 93.9898 189.163 93.9898C189.644 93.9898 190.029 93.8899 190.318 93.69C190.606 93.4869 190.75 93.2396 190.75 92.948C190.75 92.7121 190.662 92.5139 190.485 92.3534C190.311 92.1929 190.044 92.0717 189.684 91.9898L188.406 91.7097C187.702 91.5492 187.181 91.2936 186.843 90.9431C186.509 90.5926 186.342 90.1487 186.342 89.6114C186.342 89.1659 186.467 88.776 186.716 88.4419C186.965 88.1077 187.309 87.8473 187.748 87.6605C188.187 87.4705 188.689 87.3755 189.256 87.3755C190.072 87.3755 190.714 87.5524 191.183 87.9062C191.651 88.2568 191.961 88.7269 192.111 89.3166ZM199.53 89.3166L198.198 89.5524C198.143 89.3821 198.054 89.2199 197.933 89.066C197.815 88.912 197.655 88.7859 197.452 88.6876C197.248 88.5893 196.995 88.5402 196.69 88.5402C196.274 88.5402 195.927 88.6335 195.648 88.8203C195.37 89.0037 195.23 89.2412 195.23 89.5328C195.23 89.785 195.324 89.9881 195.511 90.1421C195.697 90.2961 195.999 90.4222 196.415 90.5205L197.614 90.7957C198.308 90.9562 198.826 91.2035 199.167 91.5377C199.507 91.8719 199.678 92.3059 199.678 92.8399C199.678 93.292 199.547 93.6949 199.284 94.0488C199.026 94.3993 198.664 94.6745 198.198 94.8743C197.737 95.0741 197.201 95.1741 196.592 95.1741C195.746 95.1741 195.057 94.9939 194.523 94.6335C193.989 94.2699 193.661 93.7539 193.54 93.0856L194.96 92.8694C195.049 93.2396 195.23 93.5197 195.506 93.7097C195.781 93.8964 196.14 93.9898 196.582 93.9898C197.063 93.9898 197.448 93.8899 197.737 93.69C198.025 93.4869 198.169 93.2396 198.169 92.948C198.169 92.7121 198.081 92.5139 197.904 92.3534C197.73 92.1929 197.463 92.0717 197.103 91.9898L195.825 91.7097C195.121 91.5492 194.6 91.2936 194.262 90.9431C193.928 90.5926 193.761 90.1487 193.761 89.6114C193.761 89.1659 193.886 88.776 194.135 88.4419C194.384 88.1077 194.728 87.8473 195.167 87.6605C195.606 87.4705 196.108 87.3755 196.675 87.3755C197.491 87.3755 198.133 87.5524 198.601 87.9062C199.07 88.2568 199.379 88.7269 199.53 89.3166ZM205.74 90.1323V91.405H201.278V90.1323H205.74ZM210.878 95.1741C210.147 95.1741 209.518 95.0086 208.991 94.6777C208.467 94.3436 208.064 93.8833 207.782 93.2969C207.5 92.7105 207.359 92.0389 207.359 91.2822C207.359 90.5156 207.504 89.8391 207.792 89.2527C208.08 88.663 208.486 88.2027 209.011 87.8719C209.535 87.541 210.152 87.3755 210.863 87.3755C211.436 87.3755 211.947 87.482 212.396 87.6949C212.845 87.9046 213.207 88.1995 213.482 88.5795C213.761 88.9595 213.926 89.4034 213.979 89.9112H212.549C212.47 89.5574 212.29 89.2527 212.008 88.9972C211.73 88.7416 211.356 88.6139 210.888 88.6139C210.478 88.6139 210.119 88.722 209.812 88.9382C209.507 89.1511 209.269 89.4558 209.099 89.8522C208.929 90.2453 208.843 90.7105 208.843 91.2478C208.843 91.7981 208.927 92.2732 209.094 92.6728C209.261 93.0725 209.497 93.3821 209.802 93.6016C210.11 93.8211 210.472 93.9308 210.888 93.9308C211.166 93.9308 211.418 93.88 211.644 93.7785C211.874 93.6737 212.065 93.5246 212.219 93.3313C212.377 93.138 212.486 92.9054 212.549 92.6335H213.979C213.926 93.1216 213.767 93.5574 213.502 93.9406C213.237 94.3239 212.881 94.6253 212.436 94.8448C211.993 95.0643 211.474 95.1741 210.878 95.1741ZM217.019 90.5402V95.0217H215.55V84.9578H216.999V88.7023H217.093C217.27 88.2961 217.54 87.9734 217.904 87.7343C218.267 87.4951 218.742 87.3755 219.329 87.3755C219.846 87.3755 220.298 87.482 220.685 87.6949C221.075 87.9079 221.376 88.2257 221.589 88.6483C221.805 89.0676 221.913 89.5918 221.913 90.2207V95.0217H220.444V90.3976C220.444 89.844 220.302 89.4148 220.017 89.1102C219.732 88.8022 219.335 88.6483 218.827 88.6483C218.48 88.6483 218.169 88.722 217.894 88.8694C217.622 89.0168 217.407 89.233 217.25 89.518C217.096 89.7998 217.019 90.1405 217.019 90.5402ZM226.071 95.1888C225.592 95.1888 225.16 95.1004 224.773 94.9234C224.387 94.7433 224.081 94.4828 223.855 94.1421C223.632 93.8014 223.52 93.3837 223.52 92.8891C223.52 92.4632 223.602 92.1126 223.766 91.8375C223.93 91.5623 224.151 91.3444 224.429 91.1839C224.708 91.0234 225.019 90.9022 225.363 90.8203C225.707 90.7384 226.058 90.6761 226.415 90.6335C226.867 90.5811 227.234 90.5385 227.515 90.5058C227.797 90.4697 228.002 90.4124 228.13 90.3338C228.257 90.2551 228.321 90.1274 228.321 89.9505V89.9161C228.321 89.4869 228.2 89.1544 227.958 88.9185C227.719 88.6827 227.361 88.5647 226.886 88.5647C226.392 88.5647 226.002 88.6745 225.717 88.894C225.435 89.1102 225.24 89.351 225.132 89.6163L223.751 89.3018C223.915 88.8432 224.154 88.473 224.469 88.1913C224.787 87.9062 225.152 87.6999 225.565 87.5721C225.977 87.4411 226.411 87.3755 226.867 87.3755C227.168 87.3755 227.488 87.4116 227.825 87.4836C228.166 87.5524 228.484 87.6802 228.778 87.8669C229.076 88.0537 229.321 88.3207 229.511 88.6679C229.701 89.0119 229.796 89.4591 229.796 90.0094V95.0217H228.361V93.9898H228.302C228.207 94.1798 228.064 94.3665 227.874 94.55C227.684 94.7334 227.44 94.8858 227.142 95.007C226.844 95.1282 226.487 95.1888 226.071 95.1888ZM226.39 94.0094C226.796 94.0094 227.144 93.9292 227.432 93.7687C227.723 93.6081 227.945 93.3985 228.095 93.1397C228.249 92.8776 228.326 92.5975 228.326 92.2994V91.3264C228.274 91.3788 228.172 91.428 228.022 91.4738C227.874 91.5164 227.705 91.5541 227.515 91.5868C227.325 91.6163 227.14 91.6442 226.96 91.6704C226.78 91.6933 226.629 91.713 226.508 91.7293C226.223 91.7654 225.963 91.826 225.727 91.9112C225.494 91.9963 225.307 92.1192 225.167 92.2797C225.029 92.437 224.96 92.6466 224.96 92.9087C224.96 93.2723 225.094 93.5475 225.363 93.7343C225.632 93.9177 225.974 94.0094 226.39 94.0094ZM231.753 95.0217V87.4738H233.222V95.0217H231.753ZM232.495 86.3092C232.239 86.3092 232.02 86.224 231.836 86.0537C231.656 85.88 231.566 85.6737 231.566 85.4345C231.566 85.1921 231.656 84.9857 231.836 84.8153C232.02 84.6417 232.239 84.5549 232.495 84.5549C232.75 84.5549 232.968 84.6417 233.148 84.8153C233.332 84.9857 233.423 85.1921 233.423 85.4345C233.423 85.6737 233.332 85.88 233.148 86.0537C232.968 86.224 232.75 86.3092 232.495 86.3092ZM236.668 90.5402V95.0217H235.198V87.4738H236.609V88.7023H236.702C236.876 88.3026 237.148 87.9816 237.518 87.7392C237.891 87.4967 238.361 87.3755 238.928 87.3755C239.443 87.3755 239.893 87.4836 240.28 87.6999C240.666 87.9128 240.966 88.2306 241.179 88.6532C241.392 89.0758 241.498 89.5983 241.498 90.2207V95.0217H240.029V90.3976C240.029 89.8506 239.886 89.423 239.601 89.1151C239.316 88.8039 238.925 88.6483 238.427 88.6483C238.086 88.6483 237.783 88.722 237.518 88.8694C237.256 89.0168 237.048 89.233 236.894 89.518C236.743 89.7998 236.668 90.1405 236.668 90.5402ZM247.131 95.0217V87.4738H248.541V88.7023H248.635C248.792 88.2863 249.049 87.9619 249.406 87.7293C249.763 87.4935 250.191 87.3755 250.689 87.3755C251.193 87.3755 251.616 87.4935 251.956 87.7293C252.3 87.9652 252.554 88.2895 252.718 88.7023H252.797C252.977 88.2994 253.264 87.9783 253.657 87.7392C254.05 87.4967 254.518 87.3755 255.062 87.3755C255.747 87.3755 256.305 87.5901 256.738 88.0193C257.174 88.4484 257.391 89.0954 257.391 89.9603V95.0217H255.922V90.0979C255.922 89.5868 255.783 89.2167 255.504 88.9873C255.226 88.758 254.893 88.6433 254.507 88.6433C254.029 88.6433 253.657 88.7908 253.391 89.0856C253.126 89.3772 252.993 89.7523 252.993 90.2109V95.0217H251.529V90.0045C251.529 89.595 251.401 89.2658 251.146 89.0168C250.89 88.7678 250.558 88.6433 250.148 88.6433C249.87 88.6433 249.612 88.7171 249.377 88.8645C249.144 89.0086 248.956 89.2101 248.812 89.4689C248.671 89.7277 248.6 90.0275 248.6 90.3682V95.0217H247.131ZM262.614 95.1741C261.87 95.1741 261.23 95.0152 260.692 94.6974C260.158 94.3764 259.746 93.9259 259.454 93.3461C259.166 92.7629 259.022 92.0799 259.022 91.2969C259.022 90.5238 259.166 89.8424 259.454 89.2527C259.746 88.663 260.152 88.2027 260.673 87.8719C261.197 87.541 261.809 87.3755 262.511 87.3755C262.936 87.3755 263.349 87.446 263.749 87.5868C264.149 87.7277 264.507 87.9488 264.825 88.2502C265.143 88.5516 265.393 88.9431 265.577 89.4247C265.76 89.903 265.852 90.4845 265.852 91.1691V91.69H259.852V90.5893H264.412C264.412 90.2027 264.334 89.8604 264.176 89.5623C264.019 89.2609 263.798 89.0234 263.513 88.8497C263.231 88.6761 262.9 88.5893 262.52 88.5893C262.108 88.5893 261.747 88.6909 261.439 88.894C261.135 89.0938 260.899 89.3559 260.732 89.6802C260.568 90.0013 260.486 90.3501 260.486 90.7269V91.5868C260.486 92.0913 260.574 92.5205 260.751 92.8743C260.931 93.2281 261.182 93.4984 261.503 93.6851C261.824 93.8686 262.199 93.9603 262.628 93.9603C262.907 93.9603 263.161 93.921 263.39 93.8424C263.619 93.7605 263.818 93.6393 263.985 93.4787C264.152 93.3182 264.28 93.12 264.368 92.8841L265.759 93.1348C265.647 93.5443 265.447 93.903 265.159 94.2109C264.874 94.5156 264.515 94.7531 264.083 94.9234C263.654 95.0905 263.164 95.1741 262.614 95.1741ZM273.138 89.3166L271.807 89.5524C271.751 89.3821 271.662 89.2199 271.541 89.066C271.423 88.912 271.263 88.7859 271.06 88.6876C270.857 88.5893 270.603 88.5402 270.298 88.5402C269.882 88.5402 269.535 88.6335 269.256 88.8203C268.978 89.0037 268.839 89.2412 268.839 89.5328C268.839 89.785 268.932 89.9881 269.119 90.1421C269.305 90.2961 269.607 90.4222 270.023 90.5205L271.222 90.7957C271.916 90.9562 272.434 91.2035 272.775 91.5377C273.115 91.8719 273.286 92.3059 273.286 92.8399C273.286 93.292 273.155 93.6949 272.893 94.0488C272.634 94.3993 272.272 94.6745 271.807 94.8743C271.345 95.0741 270.809 95.1741 270.2 95.1741C269.355 95.1741 268.665 94.9939 268.131 94.6335C267.597 94.2699 267.269 93.7539 267.148 93.0856L268.568 92.8694C268.657 93.2396 268.839 93.5197 269.114 93.7097C269.389 93.8964 269.748 93.9898 270.19 93.9898C270.671 93.9898 271.056 93.8899 271.345 93.69C271.633 93.4869 271.777 93.2396 271.777 92.948C271.777 92.7121 271.689 92.5139 271.512 92.3534C271.338 92.1929 271.071 92.0717 270.711 91.9898L269.433 91.7097C268.729 91.5492 268.208 91.2936 267.87 90.9431C267.536 90.5926 267.369 90.1487 267.369 89.6114C267.369 89.1659 267.494 88.776 267.743 88.4419C267.992 88.1077 268.336 87.8473 268.775 87.6605C269.214 87.4705 269.717 87.3755 270.283 87.3755C271.099 87.3755 271.741 87.5524 272.21 87.9062C272.678 88.2568 272.988 88.7269 273.138 89.3166ZM280.557 89.3166L279.226 89.5524C279.17 89.3821 279.081 89.2199 278.96 89.066C278.842 88.912 278.682 88.7859 278.479 88.6876C278.275 88.5893 278.022 88.5402 277.717 88.5402C277.301 88.5402 276.954 88.6335 276.675 88.8203C276.397 89.0037 276.257 89.2412 276.257 89.5328C276.257 89.785 276.351 89.9881 276.538 90.1421C276.724 90.2961 277.026 90.4222 277.442 90.5205L278.641 90.7957C279.335 90.9562 279.853 91.2035 280.194 91.5377C280.534 91.8719 280.705 92.3059 280.705 92.8399C280.705 93.292 280.574 93.6949 280.312 94.0488C280.053 94.3993 279.691 94.6745 279.226 94.8743C278.764 95.0741 278.228 95.1741 277.619 95.1741C276.773 95.1741 276.084 94.9939 275.55 94.6335C275.016 94.2699 274.688 93.7539 274.567 93.0856L275.987 92.8694C276.076 93.2396 276.257 93.5197 276.533 93.7097C276.808 93.8964 277.167 93.9898 277.609 93.9898C278.09 93.9898 278.475 93.8899 278.764 93.69C279.052 93.4869 279.196 93.2396 279.196 92.948C279.196 92.7121 279.108 92.5139 278.931 92.3534C278.757 92.1929 278.49 92.0717 278.13 91.9898L276.852 91.7097C276.148 91.5492 275.627 91.2936 275.289 90.9431C274.955 90.5926 274.788 90.1487 274.788 89.6114C274.788 89.1659 274.913 88.776 275.162 88.4419C275.411 88.1077 275.755 87.8473 276.194 87.6605C276.633 87.4705 277.135 87.3755 277.702 87.3755C278.518 87.3755 279.16 87.5524 279.628 87.9062C280.097 88.2568 280.407 88.7269 280.557 89.3166ZM284.517 95.1888C284.038 95.1888 283.606 95.1004 283.219 94.9234C282.833 94.7433 282.527 94.4828 282.3 94.1421C282.078 93.8014 281.966 93.3837 281.966 92.8891C281.966 92.4632 282.048 92.1126 282.212 91.8375C282.376 91.5623 282.597 91.3444 282.875 91.1839C283.154 91.0234 283.465 90.9022 283.809 90.8203C284.153 90.7384 284.504 90.6761 284.861 90.6335C285.313 90.5811 285.68 90.5385 285.961 90.5058C286.243 90.4697 286.448 90.4124 286.576 90.3338C286.703 90.2551 286.767 90.1274 286.767 89.9505V89.9161C286.767 89.4869 286.646 89.1544 286.404 88.9185C286.165 88.6827 285.807 88.5647 285.332 88.5647C284.838 88.5647 284.448 88.6745 284.163 88.894C283.881 89.1102 283.686 89.351 283.578 89.6163L282.197 89.3018C282.361 88.8432 282.6 88.473 282.915 88.1913C283.232 87.9062 283.598 87.6999 284.011 87.5721C284.423 87.4411 284.857 87.3755 285.313 87.3755C285.614 87.3755 285.934 87.4116 286.271 87.4836C286.612 87.5524 286.929 87.6802 287.224 87.8669C287.522 88.0537 287.766 88.3207 287.956 88.6679C288.146 89.0119 288.241 89.4591 288.241 90.0094V95.0217H286.807V93.9898H286.748C286.653 94.1798 286.51 94.3665 286.32 94.55C286.13 94.7334 285.886 94.8858 285.588 95.007C285.29 95.1282 284.933 95.1888 284.517 95.1888ZM284.836 94.0094C285.242 94.0094 285.59 93.9292 285.878 93.7687C286.169 93.6081 286.391 93.3985 286.541 93.1397C286.695 92.8776 286.772 92.5975 286.772 92.2994V91.3264C286.72 91.3788 286.618 91.428 286.468 91.4738C286.32 91.5164 286.151 91.5541 285.961 91.5868C285.771 91.6163 285.586 91.6442 285.406 91.6704C285.226 91.6933 285.075 91.713 284.954 91.7293C284.669 91.7654 284.409 91.826 284.173 91.9112C283.94 91.9963 283.753 92.1192 283.612 92.2797C283.475 92.437 283.406 92.6466 283.406 92.9087C283.406 93.2723 283.54 93.5475 283.809 93.7343C284.078 93.9177 284.42 94.0094 284.836 94.0094ZM293.363 98.0094C292.764 98.0094 292.248 97.9308 291.815 97.7736C291.386 97.6163 291.036 97.4083 290.764 97.1495C290.492 96.8907 290.289 96.6073 290.154 96.2994L291.417 95.7785C291.506 95.9226 291.624 96.075 291.771 96.2355C291.922 96.3993 292.125 96.5385 292.38 96.6532C292.639 96.7678 292.972 96.8252 293.378 96.8252C293.935 96.8252 294.395 96.6892 294.759 96.4173C295.122 96.1487 295.304 95.7195 295.304 95.1298V93.6458H295.211C295.122 93.8063 294.995 93.9849 294.827 94.1814C294.664 94.378 294.438 94.5483 294.149 94.6925C293.861 94.8366 293.486 94.9087 293.024 94.9087C292.428 94.9087 291.891 94.7695 291.412 94.491C290.937 94.2093 290.56 93.7949 290.282 93.2478C290.007 92.6974 289.869 92.0209 289.869 91.2183C289.869 90.4157 290.005 89.7277 290.277 89.1544C290.552 88.5811 290.929 88.1421 291.407 87.8375C291.886 87.5295 292.428 87.3755 293.034 87.3755C293.502 87.3755 293.881 87.4542 294.169 87.6114C294.457 87.7654 294.682 87.9456 294.842 88.1519C295.006 88.3583 295.132 88.5402 295.221 88.6974H295.329V87.4738H296.769V95.1888C296.769 95.8375 296.618 96.3698 296.316 96.7859C296.015 97.2019 295.607 97.5099 295.093 97.7097C294.582 97.9095 294.005 98.0094 293.363 98.0094ZM293.348 93.69C293.771 93.69 294.128 93.5918 294.42 93.3952C294.714 93.1954 294.937 92.9103 295.088 92.5402C295.242 92.1667 295.319 91.7195 295.319 91.1986C295.319 90.6909 295.244 90.2437 295.093 89.8571C294.942 89.4705 294.721 89.1691 294.429 88.9529C294.138 88.7334 293.778 88.6237 293.348 88.6237C292.906 88.6237 292.538 88.7384 292.243 88.9677C291.948 89.1937 291.725 89.5017 291.574 89.8915C291.427 90.2814 291.353 90.7171 291.353 91.1986C291.353 91.6933 291.429 92.1274 291.579 92.5008C291.73 92.8743 291.953 93.1659 292.248 93.3755C292.546 93.5852 292.913 93.69 293.348 93.69ZM301.992 95.1741C301.248 95.1741 300.608 95.0152 300.071 94.6974C299.537 94.3764 299.124 93.9259 298.832 93.3461C298.544 92.7629 298.4 92.0799 298.4 91.2969C298.4 90.5238 298.544 89.8424 298.832 89.2527C299.124 88.663 299.53 88.2027 300.051 87.8719C300.575 87.541 301.188 87.3755 301.889 87.3755C302.315 87.3755 302.728 87.446 303.127 87.5868C303.527 87.7277 303.886 87.9488 304.203 88.2502C304.521 88.5516 304.772 88.9431 304.955 89.4247C305.139 89.903 305.23 90.4845 305.23 91.1691V91.69H299.23V90.5893H303.791C303.791 90.2027 303.712 89.8604 303.555 89.5623C303.398 89.2609 303.176 89.0234 302.891 88.8497C302.61 88.6761 302.279 88.5893 301.899 88.5893C301.486 88.5893 301.126 88.6909 300.818 88.894C300.513 89.0938 300.277 89.3559 300.11 89.6802C299.946 90.0013 299.864 90.3501 299.864 90.7269V91.5868C299.864 92.0913 299.953 92.5205 300.13 92.8743C300.31 93.2281 300.561 93.4984 300.882 93.6851C301.203 93.8686 301.578 93.9603 302.007 93.9603C302.285 93.9603 302.539 93.921 302.769 93.8424C302.998 93.7605 303.196 93.6393 303.363 93.4787C303.53 93.3182 303.658 93.12 303.746 92.8841L305.137 93.1348C305.026 93.5443 304.826 93.903 304.538 94.2109C304.253 94.5156 303.894 94.7531 303.461 94.9234C303.032 95.0905 302.542 95.1741 301.992 95.1741ZM312.517 89.3166L311.185 89.5524C311.129 89.3821 311.041 89.2199 310.92 89.066C310.802 88.912 310.641 88.7859 310.438 88.6876C310.235 88.5893 309.981 88.5402 309.676 88.5402C309.26 88.5402 308.913 88.6335 308.635 88.8203C308.356 89.0037 308.217 89.2412 308.217 89.5328C308.217 89.785 308.31 89.9881 308.497 90.1421C308.684 90.2961 308.985 90.4222 309.401 90.5205L310.6 90.7957C311.295 90.9562 311.812 91.2035 312.153 91.5377C312.494 91.8719 312.664 92.3059 312.664 92.8399C312.664 93.292 312.533 93.6949 312.271 94.0488C312.012 94.3993 311.65 94.6745 311.185 94.8743C310.723 95.0741 310.187 95.1741 309.578 95.1741C308.733 95.1741 308.043 94.9939 307.509 94.6335C306.975 94.2699 306.648 93.7539 306.527 93.0856L307.947 92.8694C308.035 93.2396 308.217 93.5197 308.492 93.7097C308.767 93.8964 309.126 93.9898 309.568 93.9898C310.05 93.9898 310.435 93.8899 310.723 93.69C311.011 93.4869 311.155 93.2396 311.155 92.948C311.155 92.7121 311.067 92.5139 310.89 92.3534C310.717 92.1929 310.45 92.0717 310.089 91.9898L308.812 91.7097C308.107 91.5492 307.586 91.2936 307.249 90.9431C306.915 90.5926 306.748 90.1487 306.748 89.6114C306.748 89.1659 306.872 88.776 307.121 88.4419C307.37 88.1077 307.714 87.8473 308.153 87.6605C308.592 87.4705 309.095 87.3755 309.662 87.3755C310.477 87.3755 311.119 87.5524 311.588 87.9062C312.056 88.2568 312.366 88.7269 312.517 89.3166ZM132.385 108.892V104.474H133.859V112.022H132.415V110.715H132.336C132.162 111.118 131.884 111.453 131.501 111.722C131.121 111.987 130.647 112.12 130.081 112.12C129.596 112.12 129.167 112.014 128.793 111.801C128.423 111.584 128.131 111.265 127.918 110.842C127.709 110.42 127.604 109.897 127.604 109.275V104.474H129.073V109.098C129.073 109.612 129.216 110.022 129.501 110.326C129.786 110.631 130.156 110.783 130.611 110.783C130.886 110.783 131.16 110.715 131.432 110.577C131.707 110.439 131.935 110.231 132.115 109.953C132.298 109.674 132.388 109.321 132.385 108.892ZM141.49 106.317L140.158 106.552C140.102 106.382 140.014 106.22 139.893 106.066C139.775 105.912 139.614 105.786 139.411 105.688C139.208 105.589 138.954 105.54 138.649 105.54C138.233 105.54 137.886 105.634 137.608 105.82C137.329 106.004 137.19 106.241 137.19 106.533C137.19 106.785 137.283 106.988 137.47 107.142C137.657 107.296 137.958 107.422 138.374 107.52L139.573 107.796C140.268 107.956 140.785 108.204 141.126 108.538C141.467 108.872 141.637 109.306 141.637 109.84C141.637 110.292 141.506 110.695 141.244 111.049C140.985 111.399 140.623 111.674 140.158 111.874C139.696 112.074 139.16 112.174 138.551 112.174C137.706 112.174 137.016 111.994 136.482 111.634C135.948 111.27 135.621 110.754 135.499 110.086L136.92 109.869C137.008 110.24 137.19 110.52 137.465 110.71C137.74 110.896 138.099 110.99 138.541 110.99C139.023 110.99 139.408 110.89 139.696 110.69C139.984 110.487 140.128 110.24 140.128 109.948C140.128 109.712 140.04 109.514 139.863 109.353C139.689 109.193 139.422 109.072 139.062 108.99L137.784 108.71C137.08 108.549 136.559 108.294 136.222 107.943C135.888 107.593 135.721 107.149 135.721 106.611C135.721 106.166 135.845 105.776 136.094 105.442C136.343 105.108 136.687 104.847 137.126 104.661C137.565 104.471 138.068 104.376 138.635 104.376C139.45 104.376 140.092 104.552 140.561 104.906C141.029 105.257 141.339 105.727 141.49 106.317ZM143.253 112.022V104.474H144.722V112.022H143.253ZM143.995 103.309C143.739 103.309 143.52 103.224 143.336 103.054C143.156 102.88 143.066 102.674 143.066 102.435C143.066 102.192 143.156 101.986 143.336 101.815C143.52 101.642 143.739 101.555 143.995 101.555C144.25 101.555 144.468 101.642 144.648 101.815C144.832 101.986 144.923 102.192 144.923 102.435C144.923 102.674 144.832 102.88 144.648 103.054C144.468 103.224 144.25 103.309 143.995 103.309ZM148.168 107.54V112.022H146.698V104.474H148.109V105.702H148.202C148.376 105.303 148.648 104.982 149.018 104.739C149.391 104.497 149.861 104.376 150.428 104.376C150.943 104.376 151.393 104.484 151.78 104.7C152.166 104.913 152.466 105.231 152.679 105.653C152.892 106.076 152.998 106.598 152.998 107.221V112.022H151.529V107.398C151.529 106.851 151.386 106.423 151.101 106.115C150.816 105.804 150.425 105.648 149.927 105.648C149.586 105.648 149.283 105.722 149.018 105.869C148.756 106.017 148.548 106.233 148.394 106.518C148.243 106.8 148.168 107.14 148.168 107.54ZM158.133 115.009C157.534 115.009 157.018 114.931 156.585 114.774C156.156 114.616 155.806 114.408 155.534 114.149C155.262 113.891 155.059 113.607 154.925 113.299L156.187 112.778C156.276 112.923 156.394 113.075 156.541 113.235C156.692 113.399 156.895 113.539 157.151 113.653C157.409 113.768 157.742 113.825 158.148 113.825C158.705 113.825 159.165 113.689 159.529 113.417C159.893 113.149 160.074 112.72 160.074 112.13V110.646H159.981C159.893 110.806 159.765 110.985 159.598 111.181C159.434 111.378 159.208 111.548 158.92 111.692C158.631 111.837 158.256 111.909 157.794 111.909C157.198 111.909 156.661 111.769 156.183 111.491C155.707 111.209 155.331 110.795 155.052 110.248C154.777 109.697 154.64 109.021 154.64 108.218C154.64 107.416 154.775 106.728 155.047 106.154C155.323 105.581 155.699 105.142 156.178 104.837C156.656 104.53 157.198 104.376 157.804 104.376C158.273 104.376 158.651 104.454 158.939 104.611C159.228 104.765 159.452 104.946 159.612 105.152C159.776 105.358 159.902 105.54 159.991 105.697H160.099V104.474H161.539V112.189C161.539 112.837 161.388 113.37 161.087 113.786C160.785 114.202 160.377 114.51 159.863 114.71C159.352 114.91 158.775 115.009 158.133 115.009ZM158.119 110.69C158.541 110.69 158.898 110.592 159.19 110.395C159.485 110.195 159.707 109.91 159.858 109.54C160.012 109.167 160.089 108.72 160.089 108.199C160.089 107.691 160.014 107.244 159.863 106.857C159.712 106.471 159.491 106.169 159.2 105.953C158.908 105.733 158.548 105.624 158.119 105.624C157.676 105.624 157.308 105.738 157.013 105.968C156.718 106.194 156.495 106.502 156.345 106.892C156.197 107.281 156.124 107.717 156.124 108.199C156.124 108.693 156.199 109.127 156.35 109.501C156.5 109.874 156.723 110.166 157.018 110.376C157.316 110.585 157.683 110.69 158.119 110.69ZM167.171 112.022V104.474H168.592V105.673H168.67C168.808 105.267 169.05 104.947 169.398 104.715C169.748 104.479 170.144 104.361 170.587 104.361C170.678 104.361 170.787 104.364 170.911 104.371C171.039 104.377 171.139 104.385 171.211 104.395V105.801C171.152 105.784 171.047 105.766 170.896 105.747C170.746 105.724 170.595 105.712 170.444 105.712C170.097 105.712 169.787 105.786 169.515 105.933C169.247 106.077 169.034 106.279 168.877 106.538C168.719 106.793 168.641 107.085 168.641 107.412V112.022H167.171ZM175.465 112.174C174.721 112.174 174.081 112.015 173.544 111.697C173.01 111.376 172.597 110.926 172.305 110.346C172.017 109.763 171.873 109.08 171.873 108.297C171.873 107.524 172.017 106.842 172.305 106.253C172.597 105.663 173.003 105.203 173.524 104.872C174.048 104.541 174.661 104.376 175.362 104.376C175.788 104.376 176.201 104.446 176.6 104.587C177 104.728 177.359 104.949 177.676 105.25C177.994 105.552 178.245 105.943 178.428 106.425C178.612 106.903 178.703 107.484 178.703 108.169V108.69H172.703V107.589H177.264C177.264 107.203 177.185 106.86 177.028 106.562C176.87 106.261 176.649 106.023 176.364 105.85C176.083 105.676 175.752 105.589 175.372 105.589C174.959 105.589 174.599 105.691 174.291 105.894C173.986 106.094 173.75 106.356 173.583 106.68C173.419 107.001 173.337 107.35 173.337 107.727V108.587C173.337 109.091 173.426 109.52 173.603 109.874C173.783 110.228 174.033 110.498 174.355 110.685C174.676 110.869 175.051 110.96 175.48 110.96C175.758 110.96 176.012 110.921 176.241 110.842C176.471 110.76 176.669 110.639 176.836 110.479C177.003 110.318 177.131 110.12 177.219 109.884L178.61 110.135C178.499 110.544 178.299 110.903 178.011 111.211C177.726 111.516 177.367 111.753 176.934 111.923C176.505 112.091 176.015 112.174 175.465 112.174ZM182.53 112.189C182.052 112.189 181.619 112.1 181.233 111.923C180.846 111.743 180.54 111.483 180.314 111.142C180.091 110.801 179.98 110.384 179.98 109.889C179.98 109.463 180.062 109.113 180.226 108.837C180.389 108.562 180.61 108.344 180.889 108.184C181.167 108.023 181.479 107.902 181.823 107.82C182.167 107.738 182.517 107.676 182.874 107.634C183.326 107.581 183.693 107.539 183.975 107.506C184.257 107.47 184.461 107.412 184.589 107.334C184.717 107.255 184.781 107.127 184.781 106.95V106.916C184.781 106.487 184.66 106.154 184.417 105.919C184.178 105.683 183.821 105.565 183.346 105.565C182.851 105.565 182.461 105.674 182.176 105.894C181.895 106.11 181.7 106.351 181.592 106.616L180.211 106.302C180.375 105.843 180.614 105.473 180.928 105.191C181.246 104.906 181.611 104.7 182.024 104.572C182.437 104.441 182.871 104.376 183.326 104.376C183.628 104.376 183.947 104.412 184.284 104.484C184.625 104.552 184.943 104.68 185.238 104.867C185.536 105.054 185.78 105.321 185.97 105.668C186.16 106.012 186.255 106.459 186.255 107.009V112.022H184.82V110.99H184.761C184.666 111.18 184.524 111.367 184.334 111.55C184.144 111.733 183.9 111.886 183.601 112.007C183.303 112.128 182.946 112.189 182.53 112.189ZM182.85 111.009C183.256 111.009 183.603 110.929 183.891 110.769C184.183 110.608 184.404 110.398 184.555 110.14C184.709 109.878 184.786 109.597 184.786 109.299V108.326C184.733 108.379 184.632 108.428 184.481 108.474C184.334 108.516 184.165 108.554 183.975 108.587C183.785 108.616 183.6 108.644 183.42 108.67C183.239 108.693 183.089 108.713 182.968 108.729C182.683 108.765 182.422 108.826 182.186 108.911C181.954 108.996 181.767 109.119 181.626 109.28C181.488 109.437 181.42 109.647 181.42 109.909C181.42 110.272 181.554 110.548 181.823 110.734C182.091 110.918 182.434 111.009 182.85 111.009ZM191.038 112.169C190.428 112.169 189.884 112.014 189.406 111.702C188.931 111.388 188.558 110.941 188.286 110.361C188.017 109.778 187.883 109.078 187.883 108.263C187.883 107.447 188.019 106.749 188.291 106.169C188.566 105.589 188.943 105.145 189.421 104.837C189.899 104.53 190.441 104.376 191.047 104.376C191.516 104.376 191.893 104.454 192.178 104.611C192.466 104.765 192.689 104.946 192.846 105.152C193.006 105.358 193.131 105.54 193.219 105.697H193.308V101.958H194.777V112.022H193.342V110.847H193.219C193.131 111.008 193.003 111.191 192.836 111.398C192.672 111.604 192.446 111.784 192.158 111.938C191.87 112.092 191.496 112.169 191.038 112.169ZM191.362 110.916C191.784 110.916 192.142 110.805 192.433 110.582C192.728 110.356 192.951 110.043 193.101 109.643C193.255 109.244 193.332 108.778 193.332 108.248C193.332 107.724 193.257 107.265 193.106 106.872C192.956 106.479 192.735 106.172 192.443 105.953C192.151 105.733 191.791 105.624 191.362 105.624C190.92 105.624 190.551 105.738 190.256 105.968C189.961 106.197 189.739 106.51 189.588 106.906C189.441 107.303 189.367 107.75 189.367 108.248C189.367 108.752 189.442 109.206 189.593 109.609C189.744 110.012 189.966 110.331 190.261 110.567C190.559 110.8 190.926 110.916 191.362 110.916ZM197.803 114.852C197.583 114.852 197.384 114.834 197.203 114.798C197.023 114.765 196.889 114.729 196.8 114.69L197.154 113.486C197.423 113.558 197.662 113.589 197.872 113.579C198.081 113.57 198.266 113.491 198.427 113.344C198.591 113.196 198.735 112.955 198.859 112.621L199.041 112.12L196.28 104.474H197.852L199.764 110.331H199.842L201.754 104.474H203.331L200.221 113.029C200.076 113.422 199.893 113.755 199.67 114.027C199.447 114.302 199.182 114.508 198.874 114.646C198.566 114.783 198.209 114.852 197.803 114.852ZM209.159 107.132V108.405H204.697V107.132H209.159ZM214.641 104.474V105.653H210.518V104.474H214.641ZM211.624 102.665H213.093V109.806C213.093 110.091 213.135 110.305 213.221 110.449C213.306 110.59 213.416 110.687 213.55 110.739C213.687 110.788 213.836 110.813 213.997 110.813C214.115 110.813 214.218 110.805 214.307 110.788C214.395 110.772 214.464 110.759 214.513 110.749L214.778 111.963C214.693 111.996 214.572 112.028 214.415 112.061C214.257 112.097 214.061 112.117 213.825 112.12C213.438 112.127 213.078 112.058 212.744 111.914C212.41 111.769 212.14 111.547 211.933 111.245C211.727 110.944 211.624 110.566 211.624 110.11V102.665ZM219.364 112.174C218.657 112.174 218.039 112.012 217.512 111.688C216.984 111.363 216.575 110.91 216.283 110.326C215.992 109.743 215.846 109.062 215.846 108.282C215.846 107.499 215.992 106.815 216.283 106.228C216.575 105.642 216.984 105.186 217.512 104.862C218.039 104.538 218.657 104.376 219.364 104.376C220.072 104.376 220.689 104.538 221.217 104.862C221.744 105.186 222.154 105.642 222.445 106.228C222.737 106.815 222.883 107.499 222.883 108.282C222.883 109.062 222.737 109.743 222.445 110.326C222.154 110.91 221.744 111.363 221.217 111.688C220.689 112.012 220.072 112.174 219.364 112.174ZM219.369 110.941C219.828 110.941 220.208 110.819 220.509 110.577C220.811 110.335 221.033 110.012 221.178 109.609C221.325 109.206 221.399 108.762 221.399 108.277C221.399 107.796 221.325 107.353 221.178 106.95C221.033 106.544 220.811 106.218 220.509 105.973C220.208 105.727 219.828 105.604 219.369 105.604C218.907 105.604 218.524 105.727 218.219 105.973C217.918 106.218 217.694 106.544 217.546 106.95C217.402 107.353 217.33 107.796 217.33 108.277C217.33 108.762 217.402 109.206 217.546 109.609C217.694 110.012 217.918 110.335 218.219 110.577C218.524 110.819 218.907 110.941 219.369 110.941ZM228.97 107.132V108.405H224.508V107.132H228.97ZM235.71 108.892V104.474H237.184V112.022H235.739V110.715H235.66C235.487 111.118 235.208 111.453 234.825 111.722C234.445 111.987 233.972 112.12 233.405 112.12C232.92 112.12 232.491 112.014 232.117 111.801C231.747 111.584 231.456 111.265 231.243 110.842C231.033 110.42 230.928 109.897 230.928 109.275V104.474H232.398V109.098C232.398 109.612 232.54 110.022 232.825 110.326C233.11 110.631 233.48 110.783 233.936 110.783C234.211 110.783 234.484 110.715 234.756 110.577C235.031 110.439 235.259 110.231 235.439 109.953C235.623 109.674 235.713 109.321 235.71 108.892ZM244.814 106.317L243.482 106.552C243.427 106.382 243.338 106.22 243.217 106.066C243.099 105.912 242.938 105.786 242.735 105.688C242.532 105.589 242.278 105.54 241.974 105.54C241.558 105.54 241.21 105.634 240.932 105.82C240.653 106.004 240.514 106.241 240.514 106.533C240.514 106.785 240.608 106.988 240.794 107.142C240.981 107.296 241.282 107.422 241.698 107.52L242.898 107.796C243.592 107.956 244.11 108.204 244.45 108.538C244.791 108.872 244.961 109.306 244.961 109.84C244.961 110.292 244.83 110.695 244.568 111.049C244.309 111.399 243.947 111.674 243.482 111.874C243.02 112.074 242.485 112.174 241.875 112.174C241.03 112.174 240.341 111.994 239.807 111.634C239.273 111.27 238.945 110.754 238.824 110.086L240.244 109.869C240.332 110.24 240.514 110.52 240.789 110.71C241.065 110.896 241.423 110.99 241.866 110.99C242.347 110.99 242.732 110.89 243.02 110.69C243.309 110.487 243.453 110.24 243.453 109.948C243.453 109.712 243.364 109.514 243.187 109.353C243.014 109.193 242.747 109.072 242.386 108.99L241.109 108.71C240.404 108.549 239.884 108.294 239.546 107.943C239.212 107.593 239.045 107.149 239.045 106.611C239.045 106.166 239.169 105.776 239.418 105.442C239.667 105.108 240.011 104.847 240.45 104.661C240.889 104.471 241.392 104.376 241.959 104.376C242.775 104.376 243.417 104.552 243.885 104.906C244.354 105.257 244.663 105.727 244.814 106.317ZM249.83 112.174C249.086 112.174 248.446 112.015 247.909 111.697C247.375 111.376 246.962 110.926 246.67 110.346C246.382 109.763 246.238 109.08 246.238 108.297C246.238 107.524 246.382 106.842 246.67 106.253C246.962 105.663 247.368 105.203 247.889 104.872C248.413 104.541 249.026 104.376 249.727 104.376C250.153 104.376 250.565 104.446 250.965 104.587C251.365 104.728 251.723 104.949 252.041 105.25C252.359 105.552 252.61 105.943 252.793 106.425C252.977 106.903 253.068 107.484 253.068 108.169V108.69H247.068V107.589H251.628C251.628 107.203 251.55 106.86 251.393 106.562C251.235 106.261 251.014 106.023 250.729 105.85C250.447 105.676 250.117 105.589 249.737 105.589C249.324 105.589 248.963 105.691 248.655 105.894C248.351 106.094 248.115 106.356 247.948 106.68C247.784 107.001 247.702 107.35 247.702 107.727V108.587C247.702 109.091 247.791 109.52 247.968 109.874C248.148 110.228 248.398 110.498 248.719 110.685C249.04 110.869 249.416 110.96 249.845 110.96C250.123 110.96 250.377 110.921 250.606 110.842C250.836 110.76 251.034 110.639 251.201 110.479C251.368 110.318 251.496 110.12 251.584 109.884L252.975 110.135C252.864 110.544 252.664 110.903 252.375 111.211C252.09 111.516 251.732 111.753 251.299 111.923C250.87 112.091 250.38 112.174 249.83 112.174ZM264.017 106.317L262.685 106.552C262.629 106.382 262.541 106.22 262.42 106.066C262.302 105.912 262.141 105.786 261.938 105.688C261.735 105.589 261.481 105.54 261.176 105.54C260.76 105.54 260.413 105.634 260.135 105.82C259.856 106.004 259.717 106.241 259.717 106.533C259.717 106.785 259.81 106.988 259.997 107.142C260.184 107.296 260.485 107.422 260.901 107.52L262.1 107.796C262.795 107.956 263.312 108.204 263.653 108.538C263.994 108.872 264.164 109.306 264.164 109.84C264.164 110.292 264.033 110.695 263.771 111.049C263.512 111.399 263.15 111.674 262.685 111.874C262.223 112.074 261.687 112.174 261.078 112.174C260.233 112.174 259.543 111.994 259.009 111.634C258.475 111.27 258.148 110.754 258.027 110.086L259.447 109.869C259.535 110.24 259.717 110.52 259.992 110.71C260.267 110.896 260.626 110.99 261.068 110.99C261.55 110.99 261.935 110.89 262.223 110.69C262.511 110.487 262.655 110.24 262.655 109.948C262.655 109.712 262.567 109.514 262.39 109.353C262.217 109.193 261.95 109.072 261.589 108.99L260.312 108.71C259.607 108.549 259.086 108.294 258.749 107.943C258.415 107.593 258.248 107.149 258.248 106.611C258.248 106.166 258.372 105.776 258.621 105.442C258.87 105.108 259.214 104.847 259.653 104.661C260.092 104.471 260.595 104.376 261.162 104.376C261.977 104.376 262.619 104.552 263.088 104.906C263.556 105.257 263.866 105.727 264.017 106.317ZM268.959 112.174C268.228 112.174 267.599 112.009 267.072 111.678C266.548 111.344 266.145 110.883 265.863 110.297C265.581 109.711 265.441 109.039 265.441 108.282C265.441 107.516 265.585 106.839 265.873 106.253C266.161 105.663 266.567 105.203 267.092 104.872C267.616 104.541 268.233 104.376 268.944 104.376C269.517 104.376 270.029 104.482 270.477 104.695C270.926 104.905 271.288 105.199 271.563 105.579C271.842 105.959 272.007 106.403 272.06 106.911H270.63C270.551 106.557 270.371 106.253 270.089 105.997C269.811 105.742 269.437 105.614 268.969 105.614C268.559 105.614 268.201 105.722 267.893 105.938C267.588 106.151 267.35 106.456 267.18 106.852C267.01 107.245 266.925 107.711 266.925 108.248C266.925 108.798 267.008 109.273 267.175 109.673C267.342 110.073 267.578 110.382 267.883 110.602C268.191 110.821 268.553 110.931 268.969 110.931C269.247 110.931 269.499 110.88 269.726 110.778C269.955 110.674 270.146 110.525 270.3 110.331C270.458 110.138 270.567 109.905 270.63 109.634H272.06C272.007 110.122 271.848 110.557 271.583 110.941C271.318 111.324 270.962 111.625 270.517 111.845C270.074 112.064 269.555 112.174 268.959 112.174ZM273.631 112.022V104.474H275.051V105.673H275.13C275.267 105.267 275.51 104.947 275.857 104.715C276.208 104.479 276.604 104.361 277.046 104.361C277.138 104.361 277.246 104.364 277.37 104.371C277.498 104.377 277.598 104.385 277.67 104.395V105.801C277.611 105.784 277.506 105.766 277.356 105.747C277.205 105.724 277.054 105.712 276.904 105.712C276.556 105.712 276.247 105.786 275.975 105.933C275.706 106.077 275.493 106.279 275.336 106.538C275.179 106.793 275.1 107.085 275.1 107.412V112.022H273.631ZM278.942 112.022V104.474H280.411V112.022H278.942ZM279.684 103.309C279.428 103.309 279.209 103.224 279.025 103.054C278.845 102.88 278.755 102.674 278.755 102.435C278.755 102.192 278.845 101.986 279.025 101.815C279.209 101.642 279.428 101.555 279.684 101.555C279.939 101.555 280.157 101.642 280.337 101.815C280.521 101.986 280.613 102.192 280.613 102.435C280.613 102.674 280.521 102.88 280.337 103.054C280.157 103.224 279.939 103.309 279.684 103.309ZM282.388 114.852V104.474H283.823V105.697H283.945C284.031 105.54 284.153 105.358 284.314 105.152C284.474 104.946 284.697 104.765 284.982 104.611C285.267 104.454 285.644 104.376 286.112 104.376C286.722 104.376 287.266 104.53 287.744 104.837C288.222 105.145 288.597 105.589 288.869 106.169C289.144 106.749 289.282 107.447 289.282 108.263C289.282 109.078 289.146 109.778 288.874 110.361C288.602 110.941 288.229 111.388 287.754 111.702C287.279 112.014 286.737 112.169 286.127 112.169C285.669 112.169 285.293 112.092 285.002 111.938C284.714 111.784 284.488 111.604 284.324 111.398C284.16 111.191 284.034 111.008 283.945 110.847H283.857V114.852H282.388ZM283.827 108.248C283.827 108.778 283.904 109.244 284.058 109.643C284.212 110.043 284.435 110.356 284.727 110.582C285.018 110.805 285.375 110.916 285.798 110.916C286.237 110.916 286.604 110.8 286.899 110.567C287.194 110.331 287.416 110.012 287.567 109.609C287.721 109.206 287.798 108.752 287.798 108.248C287.798 107.75 287.723 107.303 287.572 106.906C287.425 106.51 287.202 106.197 286.904 105.968C286.609 105.738 286.24 105.624 285.798 105.624C285.372 105.624 285.012 105.733 284.717 105.953C284.425 106.172 284.204 106.479 284.054 106.872C283.903 107.265 283.827 107.724 283.827 108.248ZM294.452 104.474V105.653H290.329V104.474H294.452ZM291.434 102.665H292.904V109.806C292.904 110.091 292.946 110.305 293.031 110.449C293.117 110.59 293.226 110.687 293.361 110.739C293.498 110.788 293.647 110.813 293.808 110.813C293.926 110.813 294.029 110.805 294.117 110.788C294.206 110.772 294.275 110.759 294.324 110.749L294.589 111.963C294.504 111.996 294.383 112.028 294.226 112.061C294.068 112.097 293.872 112.117 293.636 112.12C293.249 112.127 292.889 112.058 292.555 111.914C292.221 111.769 291.95 111.547 291.744 111.245C291.538 110.944 291.434 110.566 291.434 110.11V102.665ZM301.611 106.317L300.28 106.552C300.224 106.382 300.135 106.22 300.014 106.066C299.896 105.912 299.736 105.786 299.533 105.688C299.33 105.589 299.076 105.54 298.771 105.54C298.355 105.54 298.008 105.634 297.729 105.82C297.451 106.004 297.312 106.241 297.312 106.533C297.312 106.785 297.405 106.988 297.592 107.142C297.778 107.296 298.08 107.422 298.496 107.52L299.695 107.796C300.389 107.956 300.907 108.204 301.248 108.538C301.588 108.872 301.759 109.306 301.759 109.84C301.759 110.292 301.628 110.695 301.366 111.049C301.107 111.399 300.745 111.674 300.28 111.874C299.818 112.074 299.282 112.174 298.673 112.174C297.827 112.174 297.138 111.994 296.604 111.634C296.07 111.27 295.742 110.754 295.621 110.086L297.041 109.869C297.13 110.24 297.312 110.52 297.587 110.71C297.862 110.896 298.221 110.99 298.663 110.99C299.144 110.99 299.529 110.89 299.818 110.69C300.106 110.487 300.25 110.24 300.25 109.948C300.25 109.712 300.162 109.514 299.985 109.353C299.811 109.193 299.544 109.072 299.184 108.99L297.906 108.71C297.202 108.549 296.681 108.294 296.343 107.943C296.009 107.593 295.842 107.149 295.842 106.611C295.842 106.166 295.967 105.776 296.216 105.442C296.465 105.108 296.809 104.847 297.248 104.661C297.687 104.471 298.189 104.376 298.756 104.376C299.572 104.376 300.214 104.552 300.683 104.906C301.151 105.257 301.461 105.727 301.611 106.317ZM309.233 112.189C308.755 112.189 308.322 112.1 307.936 111.923C307.549 111.743 307.243 111.483 307.017 111.142C306.794 110.801 306.683 110.384 306.683 109.889C306.683 109.463 306.764 109.113 306.928 108.837C307.092 108.562 307.313 108.344 307.592 108.184C307.87 108.023 308.181 107.902 308.525 107.82C308.869 107.738 309.22 107.676 309.577 107.634C310.029 107.581 310.396 107.539 310.678 107.506C310.959 107.47 311.164 107.412 311.292 107.334C311.42 107.255 311.484 107.127 311.484 106.95V106.916C311.484 106.487 311.362 106.154 311.12 105.919C310.881 105.683 310.524 105.565 310.049 105.565C309.554 105.565 309.164 105.674 308.879 105.894C308.597 106.11 308.402 106.351 308.294 106.616L306.913 106.302C307.077 105.843 307.316 105.473 307.631 105.191C307.949 104.906 308.314 104.7 308.727 104.572C309.14 104.441 309.574 104.376 310.029 104.376C310.33 104.376 310.65 104.412 310.987 104.484C311.328 104.552 311.646 104.68 311.941 104.867C312.239 105.054 312.483 105.321 312.673 105.668C312.863 106.012 312.958 106.459 312.958 107.009V112.022H311.523V110.99H311.464C311.369 111.18 311.226 111.367 311.036 111.55C310.846 111.733 310.602 111.886 310.304 112.007C310.006 112.128 309.649 112.189 309.233 112.189ZM309.552 111.009C309.959 111.009 310.306 110.929 310.594 110.769C310.886 110.608 311.107 110.398 311.257 110.14C311.411 109.878 311.488 109.597 311.488 109.299V108.326C311.436 108.379 311.334 108.428 311.184 108.474C311.036 108.516 310.868 108.554 310.678 108.587C310.488 108.616 310.303 108.644 310.122 108.67C309.942 108.693 309.791 108.713 309.67 108.729C309.385 108.765 309.125 108.826 308.889 108.911C308.656 108.996 308.47 109.119 308.329 109.28C308.191 109.437 308.122 109.647 308.122 109.909C308.122 110.272 308.257 110.548 308.525 110.734C308.794 110.918 309.136 111.009 309.552 111.009ZM316.384 107.54V112.022H314.915V104.474H316.325V105.702H316.418C316.592 105.303 316.864 104.982 317.234 104.739C317.608 104.497 318.078 104.376 318.644 104.376C319.159 104.376 319.609 104.484 319.996 104.7C320.382 104.913 320.682 105.231 320.895 105.653C321.108 106.076 321.214 106.598 321.214 107.221V112.022H319.745V107.398C319.745 106.851 319.603 106.423 319.318 106.115C319.033 105.804 318.641 105.648 318.143 105.648C317.803 105.648 317.499 105.722 317.234 105.869C316.972 106.017 316.764 106.233 316.61 106.518C316.459 106.8 316.384 107.14 316.384 107.54ZM326.011 112.169C325.401 112.169 324.857 112.014 324.379 111.702C323.904 111.388 323.531 110.941 323.259 110.361C322.99 109.778 322.856 109.078 322.856 108.263C322.856 107.447 322.992 106.749 323.264 106.169C323.539 105.589 323.916 105.145 324.394 104.837C324.872 104.53 325.414 104.376 326.02 104.376C326.489 104.376 326.866 104.454 327.151 104.611C327.439 104.765 327.662 104.946 327.819 105.152C327.979 105.358 328.104 105.54 328.192 105.697H328.281V101.958H329.75V112.022H328.315V110.847H328.192C328.104 111.008 327.976 111.191 327.809 111.398C327.645 111.604 327.419 111.784 327.131 111.938C326.843 112.092 326.469 112.169 326.011 112.169ZM326.335 110.916C326.757 110.916 327.115 110.805 327.406 110.582C327.701 110.356 327.924 110.043 328.074 109.643C328.228 109.244 328.305 108.778 328.305 108.248C328.305 107.724 328.23 107.265 328.079 106.872C327.929 106.479 327.708 106.172 327.416 105.953C327.124 105.733 326.764 105.624 326.335 105.624C325.893 105.624 325.524 105.738 325.229 105.968C324.934 106.197 324.712 106.51 324.561 106.906C324.413 107.303 324.34 107.75 324.34 108.248C324.34 108.752 324.415 109.206 324.566 109.609C324.717 110.012 324.939 110.331 325.234 110.567C325.532 110.8 325.899 110.916 326.335 110.916ZM131.127 121.474V122.653H127.004V121.474H131.127ZM128.11 119.665H129.579V126.806C129.579 127.091 129.622 127.305 129.707 127.449C129.792 127.59 129.902 127.687 130.036 127.739C130.174 127.788 130.323 127.813 130.484 127.813C130.601 127.813 130.705 127.805 130.793 127.788C130.882 127.772 130.95 127.759 130.999 127.749L131.265 128.963C131.18 128.996 131.058 129.028 130.901 129.061C130.744 129.097 130.547 129.117 130.312 129.12C129.925 129.127 129.565 129.058 129.23 128.914C128.896 128.769 128.626 128.547 128.42 128.245C128.213 127.944 128.11 127.566 128.11 127.11V119.665ZM135.851 129.174C135.143 129.174 134.526 129.012 133.998 128.688C133.471 128.363 133.061 127.91 132.77 127.326C132.478 126.743 132.332 126.062 132.332 125.282C132.332 124.499 132.478 123.815 132.77 123.228C133.061 122.642 133.471 122.186 133.998 121.862C134.526 121.538 135.143 121.376 135.851 121.376C136.558 121.376 137.176 121.538 137.703 121.862C138.231 122.186 138.64 122.642 138.932 123.228C139.223 123.815 139.369 124.499 139.369 125.282C139.369 126.062 139.223 126.743 138.932 127.326C138.64 127.91 138.231 128.363 137.703 128.688C137.176 129.012 136.558 129.174 135.851 129.174ZM135.856 127.941C136.314 127.941 136.694 127.819 136.996 127.577C137.297 127.335 137.52 127.012 137.664 126.609C137.812 126.206 137.885 125.762 137.885 125.277C137.885 124.796 137.812 124.353 137.664 123.95C137.52 123.544 137.297 123.218 136.996 122.973C136.694 122.727 136.314 122.604 135.856 122.604C135.394 122.604 135.011 122.727 134.706 122.973C134.404 123.218 134.18 123.544 134.033 123.95C133.888 124.353 133.816 124.796 133.816 125.277C133.816 125.762 133.888 126.206 134.033 126.609C134.18 127.012 134.404 127.335 134.706 127.577C135.011 127.819 135.394 127.941 135.856 127.941ZM144.189 129.174C143.481 129.174 142.864 129.012 142.336 128.688C141.809 128.363 141.399 127.91 141.108 127.326C140.816 126.743 140.67 126.062 140.67 125.282C140.67 124.499 140.816 123.815 141.108 123.228C141.399 122.642 141.809 122.186 142.336 121.862C142.864 121.538 143.481 121.376 144.189 121.376C144.896 121.376 145.514 121.538 146.041 121.862C146.569 122.186 146.978 122.642 147.27 123.228C147.561 123.815 147.707 124.499 147.707 125.282C147.707 126.062 147.561 126.743 147.27 127.326C146.978 127.91 146.569 128.363 146.041 128.688C145.514 129.012 144.896 129.174 144.189 129.174ZM144.194 127.941C144.652 127.941 145.032 127.819 145.334 127.577C145.635 127.335 145.858 127.012 146.002 126.609C146.149 126.206 146.223 125.762 146.223 125.277C146.223 124.796 146.149 124.353 146.002 123.95C145.858 123.544 145.635 123.218 145.334 122.973C145.032 122.727 144.652 122.604 144.194 122.604C143.732 122.604 143.348 122.727 143.044 122.973C142.742 123.218 142.518 123.544 142.37 123.95C142.226 124.353 142.154 124.796 142.154 125.277C142.154 125.762 142.226 126.206 142.37 126.609C142.518 127.012 142.742 127.335 143.044 127.577C143.348 127.819 143.732 127.941 144.194 127.941ZM150.816 118.958V129.022H149.347V118.958H150.816ZM158.449 123.317L157.117 123.552C157.062 123.382 156.973 123.22 156.852 123.066C156.734 122.912 156.574 122.786 156.37 122.688C156.167 122.589 155.913 122.54 155.609 122.54C155.193 122.54 154.846 122.634 154.567 122.82C154.289 123.004 154.149 123.241 154.149 123.533C154.149 123.785 154.243 123.988 154.429 124.142C154.616 124.296 154.918 124.422 155.334 124.52L156.533 124.796C157.227 124.956 157.745 125.204 158.085 125.538C158.426 125.872 158.597 126.306 158.597 126.84C158.597 127.292 158.465 127.695 158.203 128.049C157.945 128.399 157.583 128.674 157.117 128.874C156.655 129.074 156.12 129.174 155.511 129.174C154.665 129.174 153.976 128.994 153.442 128.634C152.908 128.27 152.58 127.754 152.459 127.086L153.879 126.869C153.968 127.24 154.149 127.52 154.425 127.71C154.7 127.896 155.058 127.99 155.501 127.99C155.982 127.99 156.367 127.89 156.655 127.69C156.944 127.487 157.088 127.24 157.088 126.948C157.088 126.712 156.999 126.514 156.823 126.353C156.649 126.193 156.382 126.072 156.022 125.99L154.744 125.71C154.04 125.549 153.519 125.294 153.181 124.943C152.847 124.593 152.68 124.149 152.68 123.611C152.68 123.166 152.805 122.776 153.054 122.442C153.303 122.108 153.646 121.847 154.085 121.661C154.524 121.471 155.027 121.376 155.594 121.376C156.41 121.376 157.052 121.552 157.52 121.906C157.989 122.257 158.298 122.727 158.449 123.317ZM161.18 129.115C160.911 129.115 160.68 129.02 160.487 128.83C160.294 128.637 160.197 128.404 160.197 128.132C160.197 127.864 160.294 127.634 160.487 127.444C160.68 127.251 160.911 127.154 161.18 127.154C161.449 127.154 161.68 127.251 161.873 127.444C162.066 127.634 162.163 127.864 162.163 128.132C162.163 128.312 162.117 128.478 162.025 128.629C161.937 128.776 161.819 128.894 161.671 128.982C161.524 129.071 161.36 129.115 161.18 129.115Z" fill="#2C2C2C"/>
<path d="M135.34 64.2037H138.716L140.413 66.3869L142.082 68.3317L145.229 72.2762H141.523L139.358 69.616L138.248 68.0381L135.34 64.2037ZM145.513 61.3416C145.513 63.3903 145.125 65.1332 144.348 66.5704C143.578 68.0076 142.526 69.1053 141.193 69.8636C139.866 70.6159 138.373 70.992 136.716 70.992C135.046 70.992 133.548 70.6128 132.221 69.8545C130.894 69.0961 129.845 67.9984 129.075 66.5612C128.304 65.1241 127.919 63.3842 127.919 61.3416C127.919 59.2929 128.304 57.5499 129.075 56.1128C129.845 54.6756 130.894 53.5809 132.221 52.8287C133.548 52.0704 135.046 51.6912 136.716 51.6912C138.373 51.6912 139.866 52.0704 141.193 52.8287C142.526 53.5809 143.578 54.6756 144.348 56.1128C145.125 57.5499 145.513 59.2929 145.513 61.3416ZM141.486 61.3416C141.486 60.0145 141.287 58.8954 140.89 57.9842C140.499 57.0729 139.945 56.3819 139.23 55.911C138.514 55.4401 137.676 55.2046 136.716 55.2046C135.756 55.2046 134.918 55.4401 134.203 55.911C133.487 56.3819 132.931 57.0729 132.533 57.9842C132.142 58.8954 131.946 60.0145 131.946 61.3416C131.946 62.6687 132.142 63.7878 132.533 64.699C132.931 65.6103 133.487 66.3013 134.203 66.7722C134.918 67.2431 135.756 67.4786 136.716 67.4786C137.676 67.4786 138.514 67.2431 139.23 66.7722C139.945 66.3013 140.499 65.6103 140.89 64.699C141.287 63.7878 141.486 62.6687 141.486 61.3416ZM157.418 64.7357V56.6448H161.326V70.7351H157.574V68.1757H157.427C157.109 69.0013 156.58 69.6649 155.84 70.1664C155.106 70.6678 154.21 70.9186 153.152 70.9186C152.211 70.9186 151.382 70.7045 150.666 70.2764C149.951 69.8484 149.391 69.2399 148.988 68.4509C148.59 67.662 148.388 66.7172 148.382 65.6164V56.6448H152.29V64.9192C152.296 65.7509 152.519 66.4083 152.96 66.8915C153.4 67.3746 153.99 67.6162 154.73 67.6162C155.201 67.6162 155.641 67.5091 156.051 67.2951C156.461 67.0749 156.791 66.7508 157.042 66.3227C157.299 65.8946 157.424 65.3656 157.418 64.7357ZM164.452 70.7351V56.6448H168.36V70.7351H164.452ZM166.415 54.8285C165.834 54.8285 165.335 54.6359 164.919 54.2506C164.51 53.8592 164.305 53.3914 164.305 52.8471C164.305 52.3089 164.51 51.8472 164.919 51.4619C165.335 51.0705 165.834 50.8748 166.415 50.8748C166.996 50.8748 167.491 51.0705 167.901 51.4619C168.317 51.8472 168.525 52.3089 168.525 52.8471C168.525 53.3914 168.317 53.8592 167.901 54.2506C167.491 54.6359 166.996 54.8285 166.415 54.8285ZM177.856 71.0103C176.413 71.0103 175.171 70.7045 174.132 70.093C173.098 69.4753 172.303 68.6191 171.747 67.5244C171.196 66.4297 170.921 65.1699 170.921 63.745C170.921 62.3017 171.199 61.0358 171.756 59.9472C172.319 58.8526 173.117 57.9994 174.15 57.3879C175.184 56.7702 176.413 56.4614 177.838 56.4614C179.067 56.4614 180.143 56.6846 181.067 57.131C181.99 57.5775 182.721 58.2043 183.259 59.0116C183.797 59.8188 184.094 60.7667 184.149 61.8553H180.461C180.357 61.152 180.082 60.5863 179.636 60.1582C179.196 59.724 178.618 59.5069 177.902 59.5069C177.297 59.5069 176.768 59.672 176.315 60.0023C175.869 60.3264 175.52 60.8004 175.269 61.4242C175.019 62.0479 174.893 62.8032 174.893 63.69C174.893 64.589 175.016 65.3534 175.26 65.9833C175.511 66.6132 175.863 67.0933 176.315 67.4235C176.768 67.7538 177.297 67.9189 177.902 67.9189C178.349 67.9189 178.749 67.8272 179.104 67.6437C179.465 67.4602 179.761 67.1942 179.994 66.8456C180.232 66.4909 180.388 66.0659 180.461 65.5705H184.149C184.088 66.6469 183.794 67.5948 183.268 68.4143C182.749 69.2276 182.03 69.8636 181.113 70.3223C180.195 70.781 179.11 71.0103 177.856 71.0103ZM190.192 66.6805L190.201 61.9929H190.77L195.283 56.6448H199.769L193.705 63.7267H192.779L190.192 66.6805ZM186.651 70.7351V51.9481H190.559V70.7351H186.651ZM195.458 70.7351L191.311 64.5981L193.916 61.837L200.035 70.7351H195.458ZM217.93 57.3512C217.857 56.6112 217.542 56.0363 216.985 55.6266C216.429 55.2169 215.673 55.012 214.719 55.012C214.071 55.012 213.524 55.1037 213.077 55.2872C212.631 55.4645 212.288 55.7122 212.05 56.0302C211.817 56.3482 211.701 56.7091 211.701 57.1127C211.689 57.449 211.759 57.7426 211.912 57.9933C212.071 58.2441 212.288 58.4612 212.564 58.6446C212.839 58.822 213.157 58.9779 213.518 59.1125C213.878 59.2409 214.264 59.351 214.673 59.4427L216.361 59.8463C217.181 60.0298 217.933 60.2744 218.618 60.5802C219.303 60.886 219.896 61.2621 220.398 61.7085C220.899 62.155 221.287 62.6809 221.563 63.2863C221.844 63.8918 221.988 64.5859 221.994 65.3687C221.988 66.5184 221.694 67.5153 221.113 68.3592C220.538 69.197 219.707 69.8484 218.618 70.3131C217.536 70.7718 216.23 71.0011 214.701 71.0011C213.184 71.0011 211.863 70.7687 210.738 70.304C209.619 69.8392 208.744 69.1512 208.114 68.24C207.491 67.3226 207.164 66.1882 207.133 64.8366H210.977C211.019 65.4665 211.2 65.9925 211.518 66.4145C211.842 66.8303 212.273 67.1453 212.811 67.3593C213.356 67.5672 213.97 67.6712 214.655 67.6712C215.328 67.6712 215.912 67.5734 216.407 67.3777C216.909 67.182 217.297 66.9098 217.572 66.5612C217.847 66.2126 217.985 65.8121 217.985 65.3595C217.985 64.9376 217.86 64.5828 217.609 64.2954C217.364 64.008 217.003 63.7634 216.526 63.5615C216.056 63.3597 215.478 63.1763 214.793 63.0111L212.747 62.4974C211.163 62.1122 209.912 61.5098 208.995 60.6903C208.078 59.8708 207.622 58.7669 207.628 57.3787C207.622 56.2412 207.925 55.2474 208.536 54.3974C209.154 53.5473 210.001 52.8838 211.077 52.4068C212.154 51.9297 213.377 51.6912 214.747 51.6912C216.141 51.6912 217.358 51.9297 218.398 52.4068C219.444 52.8838 220.257 53.5473 220.838 54.3974C221.419 55.2474 221.719 56.232 221.737 57.3512H217.93ZM232.087 56.6448V59.5803H223.601V56.6448H232.087ZM225.528 53.2691H229.436V66.4053C229.436 66.7661 229.491 67.0474 229.601 67.2492C229.711 67.4449 229.864 67.5825 230.059 67.662C230.261 67.7415 230.494 67.7813 230.757 67.7813C230.94 67.7813 231.124 67.766 231.307 67.7354C231.49 67.6987 231.631 67.6712 231.729 67.6529L232.344 70.5608C232.148 70.622 231.873 70.6923 231.518 70.7718C231.163 70.8574 230.732 70.9094 230.225 70.9277C229.283 70.9644 228.457 70.8391 227.748 70.5516C227.044 70.2642 226.497 69.8178 226.106 69.2123C225.714 68.6069 225.522 67.8424 225.528 66.919V53.2691ZM238.65 71.0011C237.751 71.0011 236.95 70.8452 236.247 70.5333C235.544 70.2153 234.987 69.7474 234.577 69.1298C234.174 68.506 233.972 67.7293 233.972 66.7997C233.972 66.0169 234.116 65.3595 234.403 64.8275C234.69 64.2954 235.082 63.8673 235.577 63.5432C236.073 63.2191 236.635 62.9745 237.265 62.8093C237.901 62.6442 238.568 62.528 239.265 62.4607C240.084 62.3751 240.745 62.2956 241.246 62.2222C241.748 62.1427 242.112 62.0265 242.338 61.8737C242.564 61.7208 242.677 61.4945 242.677 61.1948V61.1398C242.677 60.5588 242.494 60.1093 242.127 59.7913C241.766 59.4733 241.252 59.3143 240.586 59.3143C239.883 59.3143 239.323 59.4702 238.907 59.7821C238.491 60.0879 238.216 60.4732 238.082 60.938L234.467 60.6444C234.651 59.7882 235.012 59.0483 235.55 58.4245C236.088 57.7946 236.782 57.3114 237.632 56.9751C238.488 56.6326 239.479 56.4614 240.604 56.4614C241.387 56.4614 242.136 56.5531 242.852 56.7366C243.573 56.92 244.212 57.2044 244.769 57.5897C245.332 57.975 245.775 58.4703 246.099 59.0758C246.423 59.6751 246.585 60.3937 246.585 61.2315V70.7351H242.879V68.7812H242.769C242.543 69.2215 242.24 69.6098 241.861 69.9462C241.482 70.2764 241.026 70.5364 240.494 70.7259C239.962 70.9094 239.347 71.0011 238.65 71.0011ZM239.769 68.3042C240.344 68.3042 240.852 68.191 241.292 67.9648C241.733 67.7324 242.078 67.4205 242.329 67.0291C242.58 66.6377 242.705 66.1943 242.705 65.6989V64.2037C242.583 64.2832 242.414 64.3566 242.2 64.4238C241.992 64.485 241.757 64.5431 241.494 64.5981C241.231 64.6471 240.968 64.6929 240.705 64.7357C240.442 64.7724 240.204 64.8061 239.99 64.8366C239.531 64.9039 239.13 65.0109 238.788 65.1577C238.445 65.3045 238.179 65.5032 237.99 65.754C237.8 65.9986 237.705 66.3044 237.705 66.6713C237.705 67.2034 237.898 67.6101 238.283 67.8914C238.675 68.1666 239.17 68.3042 239.769 68.3042ZM249.617 70.7351V56.6448H253.406V59.1033H253.552C253.809 58.2288 254.24 57.5683 254.846 57.1219C255.451 56.6693 256.148 56.443 256.937 56.443C257.133 56.443 257.344 56.4553 257.57 56.4797C257.797 56.5042 257.995 56.5378 258.167 56.5806V60.0482C257.983 59.9931 257.729 59.9442 257.405 59.9014C257.081 59.8586 256.784 59.8372 256.515 59.8372C255.941 59.8372 255.427 59.9625 254.974 60.2133C254.528 60.4579 254.173 60.8004 253.91 61.2407C253.653 61.681 253.525 62.1886 253.525 62.7635V70.7351H249.617ZM268.388 56.6448V59.5803H259.903V56.6448H268.388ZM261.829 53.2691H265.737V66.4053C265.737 66.7661 265.792 67.0474 265.902 67.2492C266.012 67.4449 266.165 67.5825 266.361 67.662C266.562 67.7415 266.795 67.7813 267.058 67.7813C267.241 67.7813 267.425 67.766 267.608 67.7354C267.792 67.6987 267.932 67.6712 268.03 67.6529L268.645 70.5608C268.449 70.622 268.174 70.6923 267.819 70.7718C267.465 70.8574 267.033 70.9094 266.526 70.9277C265.584 70.9644 264.758 70.8391 264.049 70.5516C263.346 70.2642 262.798 69.8178 262.407 69.2123C262.016 68.6069 261.823 67.8424 261.829 66.919V53.2691Z" fill="#2C2C2C"/>
<path d="M402.717 39.4162L399.874 39.6277L401.842 23.8219L389.163 35.8363L387.4 33.9947L400.079 21.9803L384.115 23.1659L384.467 20.352L403.074 18.9671L402.801 21.1574L405.013 20.9929L402.717 39.4162Z" fill="#FF62C4"/>
<path d="M59.0242 48.3624L55.0285 48.3878C54.2918 48.3766 53.7198 48.9983 53.7135 49.7435L53.9196 82.3386C53.9133 83.0838 54.5316 83.6666 55.2682 83.6778L59.2639 83.6524C60.0006 83.6635 60.5726 83.0418 60.5789 82.2966L60.3731 49.7015C60.3167 48.9731 59.7608 48.3741 59.0242 48.3629L59.0242 48.3624Z" fill="#FF62C4"/>
<path d="M83.9888 53.0278L81.0778 50.2517C80.5602 49.7228 79.7191 49.7888 79.202 50.3176L66.0695 64.5287C65.6165 65.0575 65.6165 65.8505 66.0695 66.3794L79.202 80.5905C79.7196 81.1193 80.5607 81.1852 81.0778 80.6564L83.9888 77.8803C84.5064 77.3514 84.571 76.492 84.0534 75.9637L74.35 65.4542L84.0538 54.9448C84.5069 54.4159 84.5069 53.5565 83.9893 53.0277L83.9888 53.0278Z" fill="#FF62C4"/>
<path d="M104.054 53.0278L101.143 50.2517C100.625 49.7228 99.784 49.7888 99.2669 50.3176L86.1344 64.5287C85.6814 65.0575 85.6814 65.8505 86.1344 66.3794L99.2669 80.5905C99.7845 81.1193 100.626 81.1852 101.143 80.6564L104.054 77.8803C104.571 77.3514 104.636 76.492 104.118 75.9637L94.4149 65.4542L104.119 54.9448C104.572 54.4159 104.572 53.5565 104.054 53.0277L104.054 53.0278Z" fill="#FF62C4"/>
</svg>
