<svg width="441" height="166" viewBox="0 0 441 166" fill="none" xmlns="http://www.w3.org/2000/svg">
<rect x="439.643" y="10.6326" width="154.292" height="416.519" rx="7.61081" transform="rotate(90 439.643 10.6326)" fill="#FFFFFF" stroke="#F1D1E5" stroke-width="1.38378"/>
<rect x="427.881" y="0.946042" width="154.292" height="426.205" rx="7.61081" transform="rotate(90 427.881 0.946042)" fill="#FFFFFF" stroke="#F1D1E5" stroke-width="1.38378"/>
<path d="M133.985 91.7191C133.985 91.4894 133.949 91.2866 133.877 91.111C133.809 90.9308 133.688 90.7686 133.512 90.6245C133.341 90.4803 133.102 90.343 132.796 90.2123C132.494 90.0817 132.111 89.9488 131.647 89.8137C131.161 89.6695 130.722 89.5096 130.33 89.3339C129.938 89.1538 129.602 88.9488 129.323 88.7191C129.044 88.4894 128.83 88.2258 128.681 87.9285C128.532 87.6312 128.458 87.2912 128.458 86.9083C128.458 86.5254 128.537 86.1718 128.695 85.8475C128.852 85.5231 129.077 85.2416 129.37 85.0029C129.668 84.7596 130.021 84.5704 130.431 84.4353C130.841 84.3002 131.298 84.2326 131.803 84.2326C132.541 84.2326 133.168 84.3745 133.681 84.6583C134.199 84.9375 134.593 85.3047 134.863 85.7596C135.134 86.2101 135.269 86.6921 135.269 87.2056H133.972C133.972 86.8362 133.893 86.5096 133.735 86.2258C133.577 85.9375 133.339 85.7123 133.019 85.5502C132.699 85.3835 132.294 85.3002 131.803 85.3002C131.339 85.3002 130.956 85.37 130.654 85.5096C130.352 85.6493 130.127 85.8384 129.978 86.0772C129.834 86.3159 129.762 86.5884 129.762 86.8948C129.762 87.102 129.805 87.2912 129.891 87.4623C129.981 87.629 130.118 87.7844 130.303 87.9285C130.492 88.0727 130.731 88.2056 131.019 88.3272C131.312 88.4488 131.661 88.5659 132.066 88.6785C132.625 88.8362 133.107 89.0119 133.512 89.2056C133.918 89.3993 134.251 89.6177 134.512 89.861C134.778 90.0997 134.974 90.3722 135.1 90.6785C135.231 90.9803 135.296 91.3227 135.296 91.7056C135.296 92.1065 135.215 92.4691 135.053 92.7934C134.891 93.1177 134.659 93.3948 134.357 93.6245C134.055 93.8542 133.692 94.0321 133.269 94.1583C132.85 94.2799 132.382 94.3407 131.863 94.3407C131.409 94.3407 130.96 94.2776 130.519 94.1515C130.082 94.0254 129.683 93.8362 129.323 93.5839C128.967 93.3317 128.681 93.0209 128.465 92.6515C128.253 92.2776 128.147 91.8452 128.147 91.3542H129.445C129.445 91.6921 129.51 91.9826 129.641 92.2258C129.771 92.4646 129.949 92.6628 130.174 92.8204C130.404 92.9781 130.663 93.0952 130.951 93.1718C131.244 93.2439 131.548 93.2799 131.863 93.2799C132.318 93.2799 132.704 93.2168 133.019 93.0907C133.334 92.9646 133.573 92.7844 133.735 92.5502C133.902 92.3159 133.985 92.0389 133.985 91.7191ZM139.803 94.3407C139.294 94.3407 138.832 94.2551 138.418 94.0839C138.008 93.9083 137.654 93.6628 137.357 93.3475C137.064 93.0321 136.839 92.6583 136.681 92.2258C136.523 91.7934 136.445 91.3204 136.445 90.8069V90.5231C136.445 89.9285 136.532 89.3993 136.708 88.9353C136.884 88.4668 137.122 88.0704 137.424 87.7461C137.726 87.4218 138.068 87.1763 138.451 87.0096C138.834 86.843 139.231 86.7596 139.641 86.7596C140.163 86.7596 140.613 86.8497 140.992 87.0299C141.375 87.2101 141.688 87.4623 141.931 87.7866C142.174 88.1065 142.354 88.4848 142.472 88.9218C142.589 89.3542 142.647 89.8272 142.647 90.3407V90.9015H137.188V89.8812H141.397V89.7866C141.379 89.4623 141.312 89.147 141.195 88.8407C141.082 88.5344 140.902 88.2821 140.654 88.0839C140.406 87.8857 140.068 87.7866 139.641 87.7866C139.357 87.7866 139.095 87.8475 138.857 87.9691C138.618 88.0862 138.413 88.2619 138.242 88.4961C138.071 88.7303 137.938 89.0164 137.843 89.3542C137.749 89.6921 137.701 90.0817 137.701 90.5231V90.8069C137.701 91.1538 137.749 91.4803 137.843 91.7866C137.942 92.0884 138.084 92.3542 138.269 92.5839C138.458 92.8137 138.686 92.9939 138.951 93.1245C139.222 93.2551 139.528 93.3204 139.87 93.3204C140.312 93.3204 140.686 93.2303 140.992 93.0502C141.298 92.87 141.566 92.629 141.796 92.3272L142.553 92.9285C142.395 93.1673 142.195 93.3948 141.951 93.611C141.708 93.8272 141.409 94.0029 141.053 94.138C140.701 94.2731 140.285 94.3407 139.803 94.3407ZM145.357 88.4556V94.2056H144.107V86.8948H145.289L145.357 88.4556ZM145.059 90.2731L144.539 90.2529C144.544 89.7529 144.618 89.2912 144.762 88.8677C144.906 88.4398 145.109 88.0682 145.37 87.7529C145.632 87.4375 145.942 87.1943 146.303 87.0231C146.668 86.8475 147.071 86.7596 147.512 86.7596C147.872 86.7596 148.197 86.8092 148.485 86.9083C148.773 87.0029 149.019 87.156 149.222 87.3677C149.429 87.5794 149.586 87.8542 149.695 88.1921C149.803 88.5254 149.857 88.933 149.857 89.415V94.2056H148.6V89.4015C148.6 89.0186 148.544 88.7123 148.431 88.4826C148.318 88.2484 148.154 88.0794 147.938 87.9758C147.722 87.8677 147.456 87.8137 147.141 87.8137C146.83 87.8137 146.546 87.879 146.289 88.0096C146.037 88.1403 145.818 88.3204 145.634 88.5502C145.454 88.7799 145.312 89.0434 145.208 89.3407C145.109 89.6335 145.059 89.9443 145.059 90.2731ZM156.363 92.7866V83.8272H157.62V94.2056H156.472L156.363 92.7866ZM151.445 90.6312V90.4894C151.445 89.9308 151.512 89.424 151.647 88.9691C151.787 88.5096 151.983 88.1155 152.235 87.7866C152.492 87.4578 152.796 87.2056 153.147 87.0299C153.503 86.8497 153.9 86.7596 154.336 86.7596C154.796 86.7596 155.197 86.8407 155.539 87.0029C155.886 87.1605 156.179 87.3925 156.418 87.6988C156.661 88.0006 156.852 88.3655 156.992 88.7934C157.132 89.2213 157.228 89.7056 157.282 90.2461V90.8677C157.233 91.4038 157.136 91.8857 156.992 92.3137C156.852 92.7416 156.661 93.1065 156.418 93.4083C156.179 93.7101 155.886 93.9421 155.539 94.1042C155.192 94.2619 154.787 94.3407 154.323 94.3407C153.895 94.3407 153.503 94.2484 153.147 94.0637C152.796 93.879 152.492 93.62 152.235 93.2866C151.983 92.9533 151.787 92.5614 151.647 92.111C151.512 91.656 151.445 91.1628 151.445 90.6312ZM152.701 90.4894V90.6312C152.701 90.9961 152.737 91.3384 152.809 91.6583C152.886 91.9781 153.003 92.2596 153.161 92.5029C153.318 92.7461 153.519 92.9375 153.762 93.0772C154.005 93.2123 154.296 93.2799 154.634 93.2799C155.048 93.2799 155.388 93.1921 155.654 93.0164C155.924 92.8407 156.141 92.6087 156.303 92.3204C156.465 92.0321 156.591 91.7191 156.681 91.3812V89.7529C156.627 89.5051 156.548 89.2664 156.445 89.0366C156.345 88.8024 156.215 88.5952 156.053 88.415C155.895 88.2303 155.699 88.0839 155.465 87.9758C155.235 87.8677 154.963 87.8137 154.647 87.8137C154.305 87.8137 154.01 87.8857 153.762 88.0299C153.519 88.1695 153.318 88.3632 153.161 88.611C153.003 88.8542 152.886 89.138 152.809 89.4623C152.737 89.7821 152.701 90.1245 152.701 90.4894ZM165.924 93.3137C166.222 93.3137 166.496 93.2529 166.749 93.1312C167.001 93.0096 167.208 92.843 167.37 92.6312C167.532 92.415 167.625 92.1695 167.647 91.8948H168.836C168.814 92.3272 168.668 92.7303 168.397 93.1042C168.132 93.4736 167.782 93.7731 167.35 94.0029C166.918 94.2281 166.442 94.3407 165.924 94.3407C165.375 94.3407 164.895 94.2439 164.485 94.0502C164.08 93.8565 163.742 93.5907 163.472 93.2529C163.206 92.915 163.005 92.5276 162.87 92.0907C162.74 91.6493 162.674 91.183 162.674 90.6921V90.4083C162.674 89.9173 162.74 89.4533 162.87 89.0164C163.005 88.5749 163.206 88.1853 163.472 87.8475C163.742 87.5096 164.08 87.2439 164.485 87.0502C164.895 86.8565 165.375 86.7596 165.924 86.7596C166.496 86.7596 166.996 86.8767 167.424 87.111C167.852 87.3407 168.188 87.656 168.431 88.0569C168.679 88.4533 168.814 88.9038 168.836 89.4083H167.647C167.625 89.1065 167.539 88.8339 167.391 88.5907C167.246 88.3475 167.048 88.1538 166.796 88.0096C166.548 87.861 166.258 87.7866 165.924 87.7866C165.541 87.7866 165.219 87.8632 164.958 88.0164C164.701 88.165 164.496 88.3677 164.343 88.6245C164.195 88.8767 164.086 89.1583 164.019 89.4691C163.956 89.7754 163.924 90.0884 163.924 90.4083V90.6921C163.924 91.0119 163.956 91.3272 164.019 91.638C164.082 91.9488 164.188 92.2303 164.336 92.4826C164.49 92.7348 164.695 92.9375 164.951 93.0907C165.213 93.2394 165.537 93.3137 165.924 93.3137ZM171.492 88.0434V94.2056H170.242V86.8948H171.458L171.492 88.0434ZM173.776 86.8542L173.769 88.0164C173.665 87.9939 173.566 87.9803 173.472 87.9758C173.382 87.9668 173.278 87.9623 173.161 87.9623C172.872 87.9623 172.618 88.0074 172.397 88.0975C172.177 88.1875 171.99 88.3137 171.836 88.4758C171.683 88.638 171.562 88.8317 171.472 89.0569C171.386 89.2776 171.33 89.5209 171.303 89.7866L170.951 89.9894C170.951 89.5479 170.994 89.1335 171.08 88.7461C171.17 88.3587 171.307 88.0164 171.492 87.7191C171.677 87.4173 171.911 87.183 172.195 87.0164C172.483 86.8452 172.825 86.7596 173.222 86.7596C173.312 86.7596 173.415 86.7709 173.532 86.7934C173.65 86.8114 173.731 86.8317 173.776 86.8542ZM174.465 90.6312V90.4758C174.465 89.9488 174.541 89.4601 174.695 89.0096C174.848 88.5547 175.068 88.1605 175.357 87.8272C175.645 87.4894 175.994 87.2281 176.404 87.0434C176.814 86.8542 177.273 86.7596 177.782 86.7596C178.296 86.7596 178.758 86.8542 179.168 87.0434C179.582 87.2281 179.933 87.4894 180.222 87.8272C180.514 88.1605 180.737 88.5547 180.891 89.0096C181.044 89.4601 181.12 89.9488 181.12 90.4758V90.6312C181.12 91.1583 181.044 91.647 180.891 92.0975C180.737 92.5479 180.514 92.9421 180.222 93.2799C179.933 93.6132 179.584 93.8745 179.174 94.0637C178.769 94.2484 178.309 94.3407 177.796 94.3407C177.282 94.3407 176.821 94.2484 176.411 94.0637C176.001 93.8745 175.65 93.6132 175.357 93.2799C175.068 92.9421 174.848 92.5479 174.695 92.0975C174.541 91.647 174.465 91.1583 174.465 90.6312ZM175.715 90.4758V90.6312C175.715 90.9961 175.758 91.3407 175.843 91.665C175.929 91.9848 176.057 92.2686 176.228 92.5164C176.404 92.7641 176.622 92.9601 176.884 93.1042C177.145 93.2439 177.449 93.3137 177.796 93.3137C178.138 93.3137 178.438 93.2439 178.695 93.1042C178.956 92.9601 179.172 92.7641 179.343 92.5164C179.514 92.2686 179.643 91.9848 179.728 91.665C179.818 91.3407 179.863 90.9961 179.863 90.6312V90.4758C179.863 90.1155 179.818 89.7754 179.728 89.4556C179.643 89.1312 179.512 88.8452 179.336 88.5975C179.165 88.3452 178.949 88.147 178.688 88.0029C178.431 87.8587 178.129 87.7866 177.782 87.7866C177.44 87.7866 177.138 87.8587 176.877 88.0029C176.62 88.147 176.404 88.3452 176.228 88.5975C176.057 88.8452 175.929 89.1312 175.843 89.4556C175.758 89.7754 175.715 90.1155 175.715 90.4758ZM186.945 92.2664C186.945 92.0862 186.904 91.9195 186.823 91.7664C186.746 91.6087 186.586 91.4668 186.343 91.3407C186.104 91.2101 185.744 91.0975 185.262 91.0029C184.857 90.9173 184.49 90.8159 184.161 90.6988C183.836 90.5817 183.559 90.4398 183.33 90.2731C183.104 90.1065 182.931 89.9105 182.809 89.6853C182.688 89.4601 182.627 89.1966 182.627 88.8948C182.627 88.6065 182.69 88.3339 182.816 88.0772C182.947 87.8204 183.129 87.593 183.363 87.3948C183.602 87.1966 183.888 87.0412 184.222 86.9285C184.555 86.8159 184.927 86.7596 185.336 86.7596C185.922 86.7596 186.422 86.8632 186.836 87.0704C187.251 87.2776 187.568 87.5547 187.789 87.9015C188.01 88.2439 188.12 88.6245 188.12 89.0434H186.87C186.87 88.8407 186.809 88.6448 186.688 88.4556C186.571 88.2619 186.397 88.102 186.168 87.9758C185.942 87.8497 185.665 87.7866 185.336 87.7866C184.99 87.7866 184.708 87.8407 184.492 87.9488C184.28 88.0524 184.125 88.1853 184.026 88.3475C183.931 88.5096 183.884 88.6808 183.884 88.861C183.884 88.9961 183.906 89.1177 183.951 89.2258C184.001 89.3294 184.086 89.4263 184.208 89.5164C184.33 89.602 184.501 89.683 184.722 89.7596C184.942 89.8362 185.224 89.9128 185.566 89.9894C186.165 90.1245 186.659 90.2866 187.046 90.4758C187.433 90.665 187.722 90.897 187.911 91.1718C188.1 91.4466 188.195 91.7799 188.195 92.1718C188.195 92.4916 188.127 92.7844 187.992 93.0502C187.861 93.3159 187.67 93.5457 187.418 93.7394C187.17 93.9285 186.872 94.0772 186.526 94.1853C186.183 94.2889 185.798 94.3407 185.37 94.3407C184.726 94.3407 184.181 94.2258 183.735 93.9961C183.289 93.7664 182.951 93.4691 182.722 93.1042C182.492 92.7394 182.377 92.3542 182.377 91.9488H183.634C183.652 92.2912 183.751 92.5637 183.931 92.7664C184.111 92.9646 184.332 93.1065 184.593 93.1921C184.854 93.2731 185.113 93.3137 185.37 93.3137C185.713 93.3137 185.999 93.2686 186.228 93.1785C186.463 93.0884 186.641 92.9646 186.762 92.8069C186.884 92.6493 186.945 92.4691 186.945 92.2664ZM194.093 92.2664C194.093 92.0862 194.053 91.9195 193.972 91.7664C193.895 91.6087 193.735 91.4668 193.492 91.3407C193.253 91.2101 192.893 91.0975 192.411 91.0029C192.005 90.9173 191.638 90.8159 191.309 90.6988C190.985 90.5817 190.708 90.4398 190.478 90.2731C190.253 90.1065 190.08 89.9105 189.958 89.6853C189.836 89.4601 189.776 89.1966 189.776 88.8948C189.776 88.6065 189.839 88.3339 189.965 88.0772C190.095 87.8204 190.278 87.593 190.512 87.3948C190.751 87.1966 191.037 87.0412 191.37 86.9285C191.704 86.8159 192.075 86.7596 192.485 86.7596C193.071 86.7596 193.571 86.8632 193.985 87.0704C194.4 87.2776 194.717 87.5547 194.938 87.9015C195.159 88.2439 195.269 88.6245 195.269 89.0434H194.019C194.019 88.8407 193.958 88.6448 193.836 88.4556C193.719 88.2619 193.546 88.102 193.316 87.9758C193.091 87.8497 192.814 87.7866 192.485 87.7866C192.138 87.7866 191.857 87.8407 191.641 87.9488C191.429 88.0524 191.273 88.1853 191.174 88.3475C191.08 88.5096 191.032 88.6808 191.032 88.861C191.032 88.9961 191.055 89.1177 191.1 89.2258C191.15 89.3294 191.235 89.4263 191.357 89.5164C191.478 89.602 191.65 89.683 191.87 89.7596C192.091 89.8362 192.372 89.9128 192.715 89.9894C193.314 90.1245 193.807 90.2866 194.195 90.4758C194.582 90.665 194.87 90.897 195.059 91.1718C195.249 91.4466 195.343 91.7799 195.343 92.1718C195.343 92.4916 195.276 92.7844 195.141 93.0502C195.01 93.3159 194.818 93.5457 194.566 93.7394C194.318 93.9285 194.021 94.0772 193.674 94.1853C193.332 94.2889 192.947 94.3407 192.519 94.3407C191.875 94.3407 191.33 94.2258 190.884 93.9961C190.438 93.7664 190.1 93.4691 189.87 93.1042C189.641 92.7394 189.526 92.3542 189.526 91.9488H190.782C190.8 92.2912 190.9 92.5637 191.08 92.7664C191.26 92.9646 191.481 93.1065 191.742 93.1921C192.003 93.2731 192.262 93.3137 192.519 93.3137C192.861 93.3137 193.147 93.2686 193.377 93.1785C193.611 93.0884 193.789 92.9646 193.911 92.8069C194.032 92.6493 194.093 92.4691 194.093 92.2664ZM199.586 89.5096V90.5366H196.289V89.5096H199.586ZM203.735 93.3137C204.032 93.3137 204.307 93.2529 204.559 93.1312C204.812 93.0096 205.019 92.843 205.181 92.6312C205.343 92.415 205.436 92.1695 205.458 91.8948H206.647C206.625 92.3272 206.478 92.7303 206.208 93.1042C205.942 93.4736 205.593 93.7731 205.161 94.0029C204.728 94.2281 204.253 94.3407 203.735 94.3407C203.186 94.3407 202.706 94.2439 202.296 94.0502C201.891 93.8565 201.553 93.5907 201.282 93.2529C201.017 92.915 200.816 92.5276 200.681 92.0907C200.55 91.6493 200.485 91.183 200.485 90.6921V90.4083C200.485 89.9173 200.55 89.4533 200.681 89.0164C200.816 88.5749 201.017 88.1853 201.282 87.8475C201.553 87.5096 201.891 87.2439 202.296 87.0502C202.706 86.8565 203.186 86.7596 203.735 86.7596C204.307 86.7596 204.807 86.8767 205.235 87.111C205.663 87.3407 205.999 87.656 206.242 88.0569C206.49 88.4533 206.625 88.9038 206.647 89.4083H205.458C205.436 89.1065 205.35 88.8339 205.201 88.5907C205.057 88.3475 204.859 88.1538 204.607 88.0096C204.359 87.861 204.068 87.7866 203.735 87.7866C203.352 87.7866 203.03 87.8632 202.769 88.0164C202.512 88.165 202.307 88.3677 202.154 88.6245C202.005 88.8767 201.897 89.1583 201.83 89.4691C201.767 89.7754 201.735 90.0884 201.735 90.4083V90.6921C201.735 91.0119 201.767 91.3272 201.83 91.638C201.893 91.9488 201.999 92.2303 202.147 92.4826C202.3 92.7348 202.505 92.9375 202.762 93.0907C203.023 93.2394 203.348 93.3137 203.735 93.3137ZM209.303 83.8272V94.2056H208.053V83.8272H209.303ZM209.005 90.2731L208.485 90.2529C208.49 89.7529 208.564 89.2912 208.708 88.8677C208.852 88.4398 209.055 88.0682 209.316 87.7529C209.577 87.4375 209.888 87.1943 210.249 87.0231C210.613 86.8475 211.017 86.7596 211.458 86.7596C211.818 86.7596 212.143 86.8092 212.431 86.9083C212.719 87.0029 212.965 87.156 213.168 87.3677C213.375 87.5794 213.532 87.8542 213.641 88.1921C213.749 88.5254 213.803 88.933 213.803 89.415V94.2056H212.546V89.4015C212.546 89.0186 212.49 88.7123 212.377 88.4826C212.264 88.2484 212.1 88.0794 211.884 87.9758C211.668 87.8677 211.402 87.8137 211.086 87.8137C210.776 87.8137 210.492 87.879 210.235 88.0096C209.983 88.1403 209.764 88.3204 209.58 88.5502C209.4 88.7799 209.258 89.0434 209.154 89.3407C209.055 89.6335 209.005 89.9443 209.005 90.2731ZM219.985 92.9556V89.1921C219.985 88.9038 219.927 88.6538 219.809 88.4421C219.697 88.2258 219.526 88.0592 219.296 87.9421C219.066 87.8249 218.782 87.7664 218.445 87.7664C218.129 87.7664 217.852 87.8204 217.613 87.9285C217.379 88.0366 217.195 88.1785 217.059 88.3542C216.929 88.5299 216.863 88.7191 216.863 88.9218H215.613C215.613 88.6605 215.681 88.4015 215.816 88.1448C215.951 87.888 216.145 87.656 216.397 87.4488C216.654 87.2371 216.96 87.0704 217.316 86.9488C217.677 86.8227 218.077 86.7596 218.519 86.7596C219.05 86.7596 219.519 86.8497 219.924 87.0299C220.334 87.2101 220.654 87.4826 220.884 87.8475C221.118 88.2078 221.235 88.6605 221.235 89.2056V92.611C221.235 92.8542 221.255 93.1132 221.296 93.388C221.341 93.6628 221.406 93.8993 221.492 94.0975V94.2056H220.188C220.125 94.0614 220.075 93.87 220.039 93.6312C220.003 93.388 219.985 93.1628 219.985 92.9556ZM220.201 89.7731L220.215 90.6515H218.951C218.595 90.6515 218.278 90.6808 217.999 90.7394C217.719 90.7934 217.485 90.8767 217.296 90.9894C217.107 91.102 216.963 91.2439 216.863 91.415C216.764 91.5817 216.715 91.7776 216.715 92.0029C216.715 92.2326 216.767 92.4421 216.87 92.6312C216.974 92.8204 217.129 92.9713 217.336 93.0839C217.548 93.1921 217.807 93.2461 218.113 93.2461C218.496 93.2461 218.834 93.165 219.127 93.0029C219.42 92.8407 219.652 92.6425 219.823 92.4083C219.999 92.174 220.093 91.9466 220.107 91.7258L220.641 92.3272C220.609 92.5164 220.523 92.7258 220.384 92.9556C220.244 93.1853 220.057 93.406 219.823 93.6177C219.593 93.8249 219.318 93.9984 218.999 94.138C218.683 94.2731 218.327 94.3407 217.931 94.3407C217.436 94.3407 217.001 94.2439 216.627 94.0502C216.258 93.8565 215.969 93.5975 215.762 93.2731C215.559 92.9443 215.458 92.5772 215.458 92.1718C215.458 91.7799 215.535 91.4353 215.688 91.138C215.841 90.8362 216.062 90.5862 216.35 90.388C216.638 90.1853 216.985 90.0321 217.391 89.9285C217.796 89.8249 218.249 89.7731 218.749 89.7731H220.201ZM224.559 86.8948V94.2056H223.303V86.8948H224.559ZM223.208 84.9556C223.208 84.7529 223.269 84.5817 223.391 84.4421C223.517 84.3024 223.701 84.2326 223.945 84.2326C224.183 84.2326 224.366 84.3024 224.492 84.4421C224.623 84.5817 224.688 84.7529 224.688 84.9556C224.688 85.1493 224.623 85.3159 224.492 85.4556C224.366 85.5907 224.183 85.6583 223.945 85.6583C223.701 85.6583 223.517 85.5907 223.391 85.4556C223.269 85.3159 223.208 85.1493 223.208 84.9556ZM227.816 88.4556V94.2056H226.566V86.8948H227.749L227.816 88.4556ZM227.519 90.2731L226.999 90.2529C227.003 89.7529 227.077 89.2912 227.222 88.8677C227.366 88.4398 227.568 88.0682 227.83 87.7529C228.091 87.4375 228.402 87.1943 228.762 87.0231C229.127 86.8475 229.53 86.7596 229.972 86.7596C230.332 86.7596 230.656 86.8092 230.945 86.9083C231.233 87.0029 231.478 87.156 231.681 87.3677C231.888 87.5794 232.046 87.8542 232.154 88.1921C232.262 88.5254 232.316 88.933 232.316 89.415V94.2056H231.059V89.4015C231.059 89.0186 231.003 88.7123 230.891 88.4826C230.778 88.2484 230.613 88.0794 230.397 87.9758C230.181 87.8677 229.915 87.8137 229.6 87.8137C229.289 87.8137 229.005 87.879 228.749 88.0096C228.496 88.1403 228.278 88.3204 228.093 88.5502C227.913 88.7799 227.771 89.0434 227.668 89.3407C227.568 89.6335 227.519 89.9443 227.519 90.2731ZM238.891 88.3475V94.2056H237.634V86.8948H238.823L238.891 88.3475ZM238.634 90.2731L238.053 90.2529C238.057 89.7529 238.123 89.2912 238.249 88.8677C238.375 88.4398 238.562 88.0682 238.809 87.7529C239.057 87.4375 239.366 87.1943 239.735 87.0231C240.104 86.8475 240.532 86.7596 241.019 86.7596C241.361 86.7596 241.677 86.8092 241.965 86.9083C242.253 87.0029 242.503 87.1538 242.715 87.361C242.927 87.5682 243.091 87.8339 243.208 88.1583C243.325 88.4826 243.384 88.8745 243.384 89.3339V94.2056H242.134V89.3948C242.134 89.0119 242.068 88.7056 241.938 88.4758C241.812 88.2461 241.632 88.0794 241.397 87.9758C241.163 87.8677 240.888 87.8137 240.573 87.8137C240.204 87.8137 239.895 87.879 239.647 88.0096C239.4 88.1403 239.201 88.3204 239.053 88.5502C238.904 88.7799 238.796 89.0434 238.728 89.3407C238.665 89.6335 238.634 89.9443 238.634 90.2731ZM243.37 89.5839L242.532 89.8407C242.537 89.4398 242.602 89.0547 242.728 88.6853C242.859 88.3159 243.046 87.9871 243.289 87.6988C243.537 87.4105 243.841 87.183 244.201 87.0164C244.562 86.8452 244.974 86.7596 245.438 86.7596C245.83 86.7596 246.177 86.8114 246.478 86.915C246.785 87.0186 247.041 87.1785 247.249 87.3948C247.46 87.6065 247.62 87.879 247.728 88.2123C247.836 88.5457 247.891 88.9421 247.891 89.4015V94.2056H246.634V89.388C246.634 88.9781 246.568 88.6605 246.438 88.4353C246.312 88.2056 246.132 88.0457 245.897 87.9556C245.668 87.861 245.393 87.8137 245.073 87.8137C244.798 87.8137 244.555 87.861 244.343 87.9556C244.132 88.0502 243.954 88.1808 243.809 88.3475C243.665 88.5096 243.555 88.6966 243.478 88.9083C243.406 89.12 243.37 89.3452 243.37 89.5839ZM252.816 94.3407C252.307 94.3407 251.845 94.2551 251.431 94.0839C251.021 93.9083 250.668 93.6628 250.37 93.3475C250.077 93.0321 249.852 92.6583 249.695 92.2258C249.537 91.7934 249.458 91.3204 249.458 90.8069V90.5231C249.458 89.9285 249.546 89.3993 249.722 88.9353C249.897 88.4668 250.136 88.0704 250.438 87.7461C250.74 87.4218 251.082 87.1763 251.465 87.0096C251.848 86.843 252.244 86.7596 252.654 86.7596C253.177 86.7596 253.627 86.8497 254.005 87.0299C254.388 87.2101 254.701 87.4623 254.945 87.7866C255.188 88.1065 255.368 88.4848 255.485 88.9218C255.602 89.3542 255.661 89.8272 255.661 90.3407V90.9015H250.201V89.8812H254.411V89.7866C254.393 89.4623 254.325 89.147 254.208 88.8407C254.095 88.5344 253.915 88.2821 253.668 88.0839C253.42 87.8857 253.082 87.7866 252.654 87.7866C252.37 87.7866 252.109 87.8475 251.87 87.9691C251.632 88.0862 251.427 88.2619 251.255 88.4961C251.084 88.7303 250.951 89.0164 250.857 89.3542C250.762 89.6921 250.715 90.0817 250.715 90.5231V90.8069C250.715 91.1538 250.762 91.4803 250.857 91.7866C250.956 92.0884 251.098 92.3542 251.282 92.5839C251.472 92.8137 251.699 92.9939 251.965 93.1245C252.235 93.2551 252.541 93.3204 252.884 93.3204C253.325 93.3204 253.699 93.2303 254.005 93.0502C254.312 92.87 254.58 92.629 254.809 92.3272L255.566 92.9285C255.409 93.1673 255.208 93.3948 254.965 93.611C254.722 93.8272 254.422 94.0029 254.066 94.138C253.715 94.2731 253.298 94.3407 252.816 94.3407ZM261.377 92.2664C261.377 92.0862 261.336 91.9195 261.255 91.7664C261.179 91.6087 261.019 91.4668 260.776 91.3407C260.537 91.2101 260.177 91.0975 259.695 91.0029C259.289 90.9173 258.922 90.8159 258.593 90.6988C258.269 90.5817 257.992 90.4398 257.762 90.2731C257.537 90.1065 257.363 89.9105 257.242 89.6853C257.12 89.4601 257.059 89.1966 257.059 88.8948C257.059 88.6065 257.122 88.3339 257.249 88.0772C257.379 87.8204 257.562 87.593 257.796 87.3948C258.035 87.1966 258.321 87.0412 258.654 86.9285C258.987 86.8159 259.359 86.7596 259.769 86.7596C260.354 86.7596 260.854 86.8632 261.269 87.0704C261.683 87.2776 262.001 87.5547 262.222 87.9015C262.442 88.2439 262.553 88.6245 262.553 89.0434H261.303C261.303 88.8407 261.242 88.6448 261.12 88.4556C261.003 88.2619 260.83 88.102 260.6 87.9758C260.375 87.8497 260.098 87.7866 259.769 87.7866C259.422 87.7866 259.141 87.8407 258.924 87.9488C258.713 88.0524 258.557 88.1853 258.458 88.3475C258.363 88.5096 258.316 88.6808 258.316 88.861C258.316 88.9961 258.339 89.1177 258.384 89.2258C258.433 89.3294 258.519 89.4263 258.641 89.5164C258.762 89.602 258.933 89.683 259.154 89.7596C259.375 89.8362 259.656 89.9128 259.999 89.9894C260.598 90.1245 261.091 90.2866 261.478 90.4758C261.866 90.665 262.154 90.897 262.343 91.1718C262.532 91.4466 262.627 91.7799 262.627 92.1718C262.627 92.4916 262.559 92.7844 262.424 93.0502C262.294 93.3159 262.102 93.5457 261.85 93.7394C261.602 93.9285 261.305 94.0772 260.958 94.1853C260.616 94.2889 260.231 94.3407 259.803 94.3407C259.159 94.3407 258.613 94.2258 258.168 93.9961C257.722 93.7664 257.384 93.4691 257.154 93.1042C256.924 92.7394 256.809 92.3542 256.809 91.9488H258.066C258.084 92.2912 258.183 92.5637 258.363 92.7664C258.544 92.9646 258.764 93.1065 259.026 93.1921C259.287 93.2731 259.546 93.3137 259.803 93.3137C260.145 93.3137 260.431 93.2686 260.661 93.1785C260.895 93.0884 261.073 92.9646 261.195 92.8069C261.316 92.6493 261.377 92.4691 261.377 92.2664ZM268.526 92.2664C268.526 92.0862 268.485 91.9195 268.404 91.7664C268.327 91.6087 268.168 91.4668 267.924 91.3407C267.686 91.2101 267.325 91.0975 266.843 91.0029C266.438 90.9173 266.071 90.8159 265.742 90.6988C265.418 90.5817 265.141 90.4398 264.911 90.2731C264.686 90.1065 264.512 89.9105 264.391 89.6853C264.269 89.4601 264.208 89.1966 264.208 88.8948C264.208 88.6065 264.271 88.3339 264.397 88.0772C264.528 87.8204 264.71 87.593 264.945 87.3948C265.183 87.1966 265.469 87.0412 265.803 86.9285C266.136 86.8159 266.508 86.7596 266.918 86.7596C267.503 86.7596 268.003 86.8632 268.418 87.0704C268.832 87.2776 269.15 87.5547 269.37 87.9015C269.591 88.2439 269.701 88.6245 269.701 89.0434H268.451C268.451 88.8407 268.391 88.6448 268.269 88.4556C268.152 88.2619 267.978 88.102 267.749 87.9758C267.523 87.8497 267.246 87.7866 266.918 87.7866C266.571 87.7866 266.289 87.8407 266.073 87.9488C265.861 88.0524 265.706 88.1853 265.607 88.3475C265.512 88.5096 265.465 88.6808 265.465 88.861C265.465 88.9961 265.487 89.1177 265.532 89.2258C265.582 89.3294 265.668 89.4263 265.789 89.5164C265.911 89.602 266.082 89.683 266.303 89.7596C266.523 89.8362 266.805 89.9128 267.147 89.9894C267.746 90.1245 268.24 90.2866 268.627 90.4758C269.014 90.665 269.303 90.897 269.492 91.1718C269.681 91.4466 269.776 91.7799 269.776 92.1718C269.776 92.4916 269.708 92.7844 269.573 93.0502C269.442 93.3159 269.251 93.5457 268.999 93.7394C268.751 93.9285 268.454 94.0772 268.107 94.1853C267.764 94.2889 267.379 94.3407 266.951 94.3407C266.307 94.3407 265.762 94.2258 265.316 93.9961C264.87 93.7664 264.532 93.4691 264.303 93.1042C264.073 92.7394 263.958 92.3542 263.958 91.9488H265.215C265.233 92.2912 265.332 92.5637 265.512 92.7664C265.692 92.9646 265.913 93.1065 266.174 93.1921C266.436 93.2731 266.695 93.3137 266.951 93.3137C267.294 93.3137 267.58 93.2686 267.809 93.1785C268.044 93.0884 268.222 92.9646 268.343 92.8069C268.465 92.6493 268.526 92.4691 268.526 92.2664ZM275.728 92.9556V89.1921C275.728 88.9038 275.67 88.6538 275.553 88.4421C275.44 88.2258 275.269 88.0592 275.039 87.9421C274.809 87.8249 274.526 87.7664 274.188 87.7664C273.873 87.7664 273.595 87.8204 273.357 87.9285C273.123 88.0366 272.938 88.1785 272.803 88.3542C272.672 88.5299 272.607 88.7191 272.607 88.9218H271.357C271.357 88.6605 271.424 88.4015 271.559 88.1448C271.695 87.888 271.888 87.656 272.141 87.4488C272.397 87.2371 272.704 87.0704 273.059 86.9488C273.42 86.8227 273.821 86.7596 274.262 86.7596C274.794 86.7596 275.262 86.8497 275.668 87.0299C276.077 87.2101 276.397 87.4826 276.627 87.8475C276.861 88.2078 276.978 88.6605 276.978 89.2056V92.611C276.978 92.8542 276.999 93.1132 277.039 93.388C277.084 93.6628 277.15 93.8993 277.235 94.0975V94.2056H275.931C275.868 94.0614 275.818 93.87 275.782 93.6312C275.746 93.388 275.728 93.1628 275.728 92.9556ZM275.945 89.7731L275.958 90.6515H274.695C274.339 90.6515 274.021 90.6808 273.742 90.7394C273.463 90.7934 273.228 90.8767 273.039 90.9894C272.85 91.102 272.706 91.2439 272.607 91.415C272.508 91.5817 272.458 91.7776 272.458 92.0029C272.458 92.2326 272.51 92.4421 272.613 92.6312C272.717 92.8204 272.873 92.9713 273.08 93.0839C273.291 93.1921 273.55 93.2461 273.857 93.2461C274.24 93.2461 274.577 93.165 274.87 93.0029C275.163 92.8407 275.395 92.6425 275.566 92.4083C275.742 92.174 275.836 91.9466 275.85 91.7258L276.384 92.3272C276.352 92.5164 276.267 92.7258 276.127 92.9556C275.987 93.1853 275.8 93.406 275.566 93.6177C275.336 93.8249 275.062 93.9984 274.742 94.138C274.427 94.2731 274.071 94.3407 273.674 94.3407C273.179 94.3407 272.744 94.2439 272.37 94.0502C272.001 93.8565 271.713 93.5975 271.505 93.2731C271.303 92.9443 271.201 92.5772 271.201 92.1718C271.201 91.7799 271.278 91.4353 271.431 91.138C271.584 90.8362 271.805 90.5862 272.093 90.388C272.382 90.1853 272.728 90.0321 273.134 89.9285C273.539 89.8249 273.992 89.7731 274.492 89.7731H275.945ZM283.681 86.8948H284.816V94.0502C284.816 94.6943 284.686 95.2439 284.424 95.6988C284.163 96.1538 283.798 96.4984 283.33 96.7326C282.866 96.9713 282.33 97.0907 281.722 97.0907C281.469 97.0907 281.172 97.0502 280.83 96.9691C280.492 96.8925 280.159 96.7596 279.83 96.5704C279.505 96.3857 279.233 96.1357 279.012 95.8204L279.668 95.0772C279.974 95.4466 280.294 95.7033 280.627 95.8475C280.965 95.9916 281.298 96.0637 281.627 96.0637C282.023 96.0637 282.366 95.9894 282.654 95.8407C282.942 95.6921 283.165 95.4713 283.323 95.1785C283.485 94.8903 283.566 94.5344 283.566 94.111V88.5029L283.681 86.8948ZM278.647 90.6312V90.4894C278.647 89.9308 278.713 89.424 278.843 88.9691C278.978 88.5096 279.17 88.1155 279.418 87.7866C279.67 87.4578 279.974 87.2056 280.33 87.0299C280.686 86.8497 281.086 86.7596 281.532 86.7596C281.992 86.7596 282.393 86.8407 282.735 87.0029C283.082 87.1605 283.375 87.3925 283.613 87.6988C283.857 88.0006 284.048 88.3655 284.188 88.7934C284.327 89.2213 284.424 89.7056 284.478 90.2461V90.8677C284.429 91.4038 284.332 91.8857 284.188 92.3137C284.048 92.7416 283.857 93.1065 283.613 93.4083C283.375 93.7101 283.082 93.9421 282.735 94.1042C282.388 94.2619 281.983 94.3407 281.519 94.3407C281.082 94.3407 280.686 94.2484 280.33 94.0637C279.978 93.879 279.677 93.62 279.424 93.2866C279.172 92.9533 278.978 92.5614 278.843 92.111C278.713 91.656 278.647 91.1628 278.647 90.6312ZM279.897 90.4894V90.6312C279.897 90.9961 279.933 91.3384 280.005 91.6583C280.082 91.9781 280.197 92.2596 280.35 92.5029C280.508 92.7461 280.708 92.9375 280.951 93.0772C281.195 93.2123 281.485 93.2799 281.823 93.2799C282.237 93.2799 282.58 93.1921 282.85 93.0164C283.12 92.8407 283.334 92.6087 283.492 92.3204C283.654 92.0321 283.78 91.7191 283.87 91.3812V89.7529C283.821 89.5051 283.744 89.2664 283.641 89.0366C283.541 88.8024 283.411 88.5952 283.249 88.415C283.091 88.2303 282.895 88.0839 282.661 87.9758C282.427 87.8677 282.152 87.8137 281.836 87.8137C281.494 87.8137 281.199 87.8857 280.951 88.0299C280.708 88.1695 280.508 88.3632 280.35 88.611C280.197 88.8542 280.082 89.138 280.005 89.4623C279.933 89.7821 279.897 90.1245 279.897 90.4894ZM289.749 94.3407C289.24 94.3407 288.778 94.2551 288.363 94.0839C287.954 93.9083 287.6 93.6628 287.303 93.3475C287.01 93.0321 286.785 92.6583 286.627 92.2258C286.469 91.7934 286.391 91.3204 286.391 90.8069V90.5231C286.391 89.9285 286.478 89.3993 286.654 88.9353C286.83 88.4668 287.068 88.0704 287.37 87.7461C287.672 87.4218 288.014 87.1763 288.397 87.0096C288.78 86.843 289.177 86.7596 289.586 86.7596C290.109 86.7596 290.559 86.8497 290.938 87.0299C291.321 87.2101 291.634 87.4623 291.877 87.7866C292.12 88.1065 292.3 88.4848 292.418 88.9218C292.535 89.3542 292.593 89.8272 292.593 90.3407V90.9015H287.134V89.8812H291.343V89.7866C291.325 89.4623 291.258 89.147 291.141 88.8407C291.028 88.5344 290.848 88.2821 290.6 88.0839C290.352 87.8857 290.014 87.7866 289.586 87.7866C289.303 87.7866 289.041 87.8475 288.803 87.9691C288.564 88.0862 288.359 88.2619 288.188 88.4961C288.017 88.7303 287.884 89.0164 287.789 89.3542C287.695 89.6921 287.647 90.0817 287.647 90.5231V90.8069C287.647 91.1538 287.695 91.4803 287.789 91.7866C287.888 92.0884 288.03 92.3542 288.215 92.5839C288.404 92.8137 288.632 92.9939 288.897 93.1245C289.168 93.2551 289.474 93.3204 289.816 93.3204C290.258 93.3204 290.632 93.2303 290.938 93.0502C291.244 92.87 291.512 92.629 291.742 92.3272L292.499 92.9285C292.341 93.1673 292.141 93.3948 291.897 93.611C291.654 93.8272 291.354 94.0029 290.999 94.138C290.647 94.2731 290.231 94.3407 289.749 94.3407ZM298.309 92.2664C298.309 92.0862 298.269 91.9195 298.188 91.7664C298.111 91.6087 297.951 91.4668 297.708 91.3407C297.469 91.2101 297.109 91.0975 296.627 91.0029C296.222 90.9173 295.854 90.8159 295.526 90.6988C295.201 90.5817 294.924 90.4398 294.695 90.2731C294.469 90.1065 294.296 89.9105 294.174 89.6853C294.053 89.4601 293.992 89.1966 293.992 88.8948C293.992 88.6065 294.055 88.3339 294.181 88.0772C294.312 87.8204 294.494 87.593 294.728 87.3948C294.967 87.1966 295.253 87.0412 295.586 86.9285C295.92 86.8159 296.291 86.7596 296.701 86.7596C297.287 86.7596 297.787 86.8632 298.201 87.0704C298.616 87.2776 298.933 87.5547 299.154 87.9015C299.375 88.2439 299.485 88.6245 299.485 89.0434H298.235C298.235 88.8407 298.174 88.6448 298.053 88.4556C297.936 88.2619 297.762 88.102 297.532 87.9758C297.307 87.8497 297.03 87.7866 296.701 87.7866C296.354 87.7866 296.073 87.8407 295.857 87.9488C295.645 88.0524 295.49 88.1853 295.391 88.3475C295.296 88.5096 295.249 88.6808 295.249 88.861C295.249 88.9961 295.271 89.1177 295.316 89.2258C295.366 89.3294 295.451 89.4263 295.573 89.5164C295.695 89.602 295.866 89.683 296.086 89.7596C296.307 89.8362 296.589 89.9128 296.931 89.9894C297.53 90.1245 298.023 90.2866 298.411 90.4758C298.798 90.665 299.086 90.897 299.276 91.1718C299.465 91.4466 299.559 91.7799 299.559 92.1718C299.559 92.4916 299.492 92.7844 299.357 93.0502C299.226 93.3159 299.035 93.5457 298.782 93.7394C298.535 93.9285 298.237 94.0772 297.891 94.1853C297.548 94.2889 297.163 94.3407 296.735 94.3407C296.091 94.3407 295.546 94.2258 295.1 93.9961C294.654 93.7664 294.316 93.4691 294.086 93.1042C293.857 92.7394 293.742 92.3542 293.742 91.9488H294.999C295.017 92.2912 295.116 92.5637 295.296 92.7664C295.476 92.9646 295.697 93.1065 295.958 93.1921C296.219 93.2731 296.478 93.3137 296.735 93.3137C297.077 93.3137 297.363 93.2686 297.593 93.1785C297.827 93.0884 298.005 92.9646 298.127 92.8069C298.249 92.6493 298.309 92.4691 298.309 92.2664ZM309.107 92.5164V86.8948H310.363V94.2056H309.168L309.107 92.5164ZM309.343 90.9758L309.863 90.9623C309.863 91.4488 309.812 91.8993 309.708 92.3137C309.609 92.7236 309.447 93.0794 309.222 93.3812C308.996 93.683 308.701 93.9195 308.336 94.0907C307.972 94.2574 307.528 94.3407 307.005 94.3407C306.65 94.3407 306.323 94.2889 306.026 94.1853C305.733 94.0817 305.481 93.9218 305.269 93.7056C305.057 93.4894 304.893 93.2078 304.776 92.861C304.663 92.5141 304.607 92.0975 304.607 91.611V86.8948H305.857V91.6245C305.857 91.9533 305.893 92.2258 305.965 92.4421C306.041 92.6538 306.143 92.8227 306.269 92.9488C306.4 93.0704 306.544 93.156 306.701 93.2056C306.863 93.2551 307.03 93.2799 307.201 93.2799C307.733 93.2799 308.154 93.1785 308.465 92.9758C308.776 92.7686 308.999 92.4916 309.134 92.1448C309.273 91.7934 309.343 91.4038 309.343 90.9758ZM316.526 92.2664C316.526 92.0862 316.485 91.9195 316.404 91.7664C316.327 91.6087 316.168 91.4668 315.924 91.3407C315.686 91.2101 315.325 91.0975 314.843 91.0029C314.438 90.9173 314.071 90.8159 313.742 90.6988C313.418 90.5817 313.141 90.4398 312.911 90.2731C312.686 90.1065 312.512 89.9105 312.391 89.6853C312.269 89.4601 312.208 89.1966 312.208 88.8948C312.208 88.6065 312.271 88.3339 312.397 88.0772C312.528 87.8204 312.71 87.593 312.945 87.3948C313.183 87.1966 313.469 87.0412 313.803 86.9285C314.136 86.8159 314.508 86.7596 314.918 86.7596C315.503 86.7596 316.003 86.8632 316.418 87.0704C316.832 87.2776 317.15 87.5547 317.37 87.9015C317.591 88.2439 317.701 88.6245 317.701 89.0434H316.451C316.451 88.8407 316.391 88.6448 316.269 88.4556C316.152 88.2619 315.978 88.102 315.749 87.9758C315.523 87.8497 315.246 87.7866 314.918 87.7866C314.571 87.7866 314.289 87.8407 314.073 87.9488C313.861 88.0524 313.706 88.1853 313.607 88.3475C313.512 88.5096 313.465 88.6808 313.465 88.861C313.465 88.9961 313.487 89.1177 313.532 89.2258C313.582 89.3294 313.668 89.4263 313.789 89.5164C313.911 89.602 314.082 89.683 314.303 89.7596C314.523 89.8362 314.805 89.9128 315.147 89.9894C315.746 90.1245 316.24 90.2866 316.627 90.4758C317.014 90.665 317.303 90.897 317.492 91.1718C317.681 91.4466 317.776 91.7799 317.776 92.1718C317.776 92.4916 317.708 92.7844 317.573 93.0502C317.442 93.3159 317.251 93.5457 316.999 93.7394C316.751 93.9285 316.454 94.0772 316.107 94.1853C315.764 94.2889 315.379 94.3407 314.951 94.3407C314.307 94.3407 313.762 94.2258 313.316 93.9961C312.87 93.7664 312.532 93.4691 312.303 93.1042C312.073 92.7394 311.958 92.3542 311.958 91.9488H313.215C313.233 92.2912 313.332 92.5637 313.512 92.7664C313.692 92.9646 313.913 93.1065 314.174 93.1921C314.436 93.2731 314.695 93.3137 314.951 93.3137C315.294 93.3137 315.58 93.2686 315.809 93.1785C316.044 93.0884 316.222 92.9646 316.343 92.8069C316.465 92.6493 316.526 92.4691 316.526 92.2664ZM320.776 86.8948V94.2056H319.519V86.8948H320.776ZM319.424 84.9556C319.424 84.7529 319.485 84.5817 319.607 84.4421C319.733 84.3024 319.918 84.2326 320.161 84.2326C320.4 84.2326 320.582 84.3024 320.708 84.4421C320.839 84.5817 320.904 84.7529 320.904 84.9556C320.904 85.1493 320.839 85.3159 320.708 85.4556C320.582 85.5907 320.4 85.6583 320.161 85.6583C319.918 85.6583 319.733 85.5907 319.607 85.4556C319.485 85.3159 319.424 85.1493 319.424 84.9556ZM324.032 88.4556V94.2056H322.782V86.8948H323.965L324.032 88.4556ZM323.735 90.2731L323.215 90.2529C323.219 89.7529 323.294 89.2912 323.438 88.8677C323.582 88.4398 323.785 88.0682 324.046 87.7529C324.307 87.4375 324.618 87.1943 324.978 87.0231C325.343 86.8475 325.746 86.7596 326.188 86.7596C326.548 86.7596 326.873 86.8092 327.161 86.9083C327.449 87.0029 327.695 87.156 327.897 87.3677C328.104 87.5794 328.262 87.8542 328.37 88.1921C328.478 88.5254 328.532 88.933 328.532 89.415V94.2056H327.276V89.4015C327.276 89.0186 327.219 88.7123 327.107 88.4826C326.994 88.2484 326.83 88.0794 326.613 87.9758C326.397 87.8677 326.132 87.8137 325.816 87.8137C325.505 87.8137 325.222 87.879 324.965 88.0096C324.713 88.1403 324.494 88.3204 324.309 88.5502C324.129 88.7799 323.987 89.0434 323.884 89.3407C323.785 89.6335 323.735 89.9443 323.735 90.2731ZM335.168 86.8948H336.303V94.0502C336.303 94.6943 336.172 95.2439 335.911 95.6988C335.65 96.1538 335.285 96.4984 334.816 96.7326C334.352 96.9713 333.816 97.0907 333.208 97.0907C332.956 97.0907 332.659 97.0502 332.316 96.9691C331.978 96.8925 331.645 96.7596 331.316 96.5704C330.992 96.3857 330.719 96.1357 330.499 95.8204L331.154 95.0772C331.46 95.4466 331.78 95.7033 332.113 95.8475C332.451 95.9916 332.785 96.0637 333.113 96.0637C333.51 96.0637 333.852 95.9894 334.141 95.8407C334.429 95.6921 334.652 95.4713 334.809 95.1785C334.972 94.8903 335.053 94.5344 335.053 94.111V88.5029L335.168 86.8948ZM330.134 90.6312V90.4894C330.134 89.9308 330.199 89.424 330.33 88.9691C330.465 88.5096 330.656 88.1155 330.904 87.7866C331.156 87.4578 331.46 87.2056 331.816 87.0299C332.172 86.8497 332.573 86.7596 333.019 86.7596C333.478 86.7596 333.879 86.8407 334.222 87.0029C334.568 87.1605 334.861 87.3925 335.1 87.6988C335.343 88.0006 335.535 88.3655 335.674 88.7934C335.814 89.2213 335.911 89.7056 335.965 90.2461V90.8677C335.915 91.4038 335.818 91.8857 335.674 92.3137C335.535 92.7416 335.343 93.1065 335.1 93.4083C334.861 93.7101 334.568 93.9421 334.222 94.1042C333.875 94.2619 333.469 94.3407 333.005 94.3407C332.568 94.3407 332.172 94.2484 331.816 94.0637C331.465 93.879 331.163 93.62 330.911 93.2866C330.659 92.9533 330.465 92.5614 330.33 92.111C330.199 91.656 330.134 91.1628 330.134 90.6312ZM331.384 90.4894V90.6312C331.384 90.9961 331.42 91.3384 331.492 91.6583C331.568 91.9781 331.683 92.2596 331.836 92.5029C331.994 92.7461 332.195 92.9375 332.438 93.0772C332.681 93.2123 332.972 93.2799 333.309 93.2799C333.724 93.2799 334.066 93.1921 334.336 93.0164C334.607 92.8407 334.821 92.6087 334.978 92.3204C335.141 92.0321 335.267 91.7191 335.357 91.3812V89.7529C335.307 89.5051 335.231 89.2664 335.127 89.0366C335.028 88.8024 334.897 88.5952 334.735 88.415C334.577 88.2303 334.382 88.0839 334.147 87.9758C333.913 87.8677 333.638 87.8137 333.323 87.8137C332.981 87.8137 332.686 87.8857 332.438 88.0299C332.195 88.1695 331.994 88.3632 331.836 88.611C331.683 88.8542 331.568 89.138 331.492 89.4623C331.42 89.7821 331.384 90.1245 331.384 90.4894ZM129.803 104.043V110.206H128.553V102.895H129.769L129.803 104.043ZM132.086 102.854L132.08 104.016C131.976 103.994 131.877 103.98 131.782 103.976C131.692 103.967 131.589 103.962 131.472 103.962C131.183 103.962 130.929 104.007 130.708 104.097C130.487 104.188 130.3 104.314 130.147 104.476C129.994 104.638 129.872 104.832 129.782 105.057C129.697 105.278 129.641 105.521 129.613 105.787L129.262 105.989C129.262 105.548 129.305 105.133 129.391 104.746C129.481 104.359 129.618 104.016 129.803 103.719C129.987 103.417 130.222 103.183 130.505 103.016C130.794 102.845 131.136 102.76 131.532 102.76C131.622 102.76 131.726 102.771 131.843 102.793C131.96 102.811 132.041 102.832 132.086 102.854ZM136.141 110.341C135.632 110.341 135.17 110.255 134.755 110.084C134.345 109.908 133.992 109.663 133.695 109.347C133.402 109.032 133.177 108.658 133.019 108.226C132.861 107.793 132.782 107.32 132.782 106.807V106.523C132.782 105.929 132.87 105.399 133.046 104.935C133.222 104.467 133.46 104.07 133.762 103.746C134.064 103.422 134.406 103.176 134.789 103.01C135.172 102.843 135.568 102.76 135.978 102.76C136.501 102.76 136.951 102.85 137.33 103.03C137.713 103.21 138.026 103.462 138.269 103.787C138.512 104.106 138.692 104.485 138.809 104.922C138.927 105.354 138.985 105.827 138.985 106.341V106.902H133.526V105.881H137.735V105.787C137.717 105.462 137.65 105.147 137.532 104.841C137.42 104.534 137.24 104.282 136.992 104.084C136.744 103.886 136.406 103.787 135.978 103.787C135.695 103.787 135.433 103.847 135.195 103.969C134.956 104.086 134.751 104.262 134.58 104.496C134.409 104.73 134.276 105.016 134.181 105.354C134.086 105.692 134.039 106.082 134.039 106.523V106.807C134.039 107.154 134.086 107.48 134.181 107.787C134.28 108.088 134.422 108.354 134.607 108.584C134.796 108.814 135.023 108.994 135.289 109.124C135.559 109.255 135.866 109.32 136.208 109.32C136.65 109.32 137.023 109.23 137.33 109.05C137.636 108.87 137.904 108.629 138.134 108.327L138.891 108.929C138.733 109.167 138.532 109.395 138.289 109.611C138.046 109.827 137.746 110.003 137.391 110.138C137.039 110.273 136.622 110.341 136.141 110.341ZM144.755 108.956V105.192C144.755 104.904 144.697 104.654 144.58 104.442C144.467 104.226 144.296 104.059 144.066 103.942C143.836 103.825 143.553 103.766 143.215 103.766C142.9 103.766 142.622 103.82 142.384 103.929C142.15 104.037 141.965 104.179 141.83 104.354C141.699 104.53 141.634 104.719 141.634 104.922H140.384C140.384 104.661 140.451 104.402 140.586 104.145C140.722 103.888 140.915 103.656 141.168 103.449C141.424 103.237 141.731 103.07 142.086 102.949C142.447 102.823 142.848 102.76 143.289 102.76C143.821 102.76 144.289 102.85 144.695 103.03C145.104 103.21 145.424 103.483 145.654 103.847C145.888 104.208 146.005 104.661 146.005 105.206V108.611C146.005 108.854 146.026 109.113 146.066 109.388C146.111 109.663 146.177 109.899 146.262 110.097V110.206H144.958C144.895 110.061 144.845 109.87 144.809 109.631C144.773 109.388 144.755 109.163 144.755 108.956ZM144.972 105.773L144.985 106.652H143.722C143.366 106.652 143.048 106.681 142.769 106.739C142.49 106.793 142.255 106.877 142.066 106.989C141.877 107.102 141.733 107.244 141.634 107.415C141.535 107.582 141.485 107.778 141.485 108.003C141.485 108.233 141.537 108.442 141.641 108.631C141.744 108.82 141.9 108.971 142.107 109.084C142.318 109.192 142.577 109.246 142.884 109.246C143.267 109.246 143.604 109.165 143.897 109.003C144.19 108.841 144.422 108.643 144.593 108.408C144.769 108.174 144.863 107.947 144.877 107.726L145.411 108.327C145.379 108.516 145.294 108.726 145.154 108.956C145.014 109.185 144.827 109.406 144.593 109.618C144.363 109.825 144.089 109.998 143.769 110.138C143.454 110.273 143.098 110.341 142.701 110.341C142.206 110.341 141.771 110.244 141.397 110.05C141.028 109.856 140.74 109.597 140.532 109.273C140.33 108.944 140.228 108.577 140.228 108.172C140.228 107.78 140.305 107.435 140.458 107.138C140.611 106.836 140.832 106.586 141.12 106.388C141.409 106.185 141.755 106.032 142.161 105.929C142.566 105.825 143.019 105.773 143.519 105.773H144.972ZM152.58 108.787V99.8272H153.836V110.206H152.688L152.58 108.787ZM147.661 106.631V106.489C147.661 105.931 147.728 105.424 147.863 104.969C148.003 104.51 148.199 104.115 148.451 103.787C148.708 103.458 149.012 103.206 149.363 103.03C149.719 102.85 150.116 102.76 150.553 102.76C151.012 102.76 151.413 102.841 151.755 103.003C152.102 103.161 152.395 103.393 152.634 103.699C152.877 104.001 153.068 104.365 153.208 104.793C153.348 105.221 153.445 105.706 153.499 106.246V106.868C153.449 107.404 153.352 107.886 153.208 108.314C153.068 108.742 152.877 109.106 152.634 109.408C152.395 109.71 152.102 109.942 151.755 110.104C151.409 110.262 151.003 110.341 150.539 110.341C150.111 110.341 149.719 110.248 149.363 110.064C149.012 109.879 148.708 109.62 148.451 109.287C148.199 108.953 148.003 108.561 147.863 108.111C147.728 107.656 147.661 107.163 147.661 106.631ZM148.918 106.489V106.631C148.918 106.996 148.954 107.338 149.026 107.658C149.102 107.978 149.219 108.26 149.377 108.503C149.535 108.746 149.735 108.938 149.978 109.077C150.222 109.212 150.512 109.28 150.85 109.28C151.264 109.28 151.604 109.192 151.87 109.016C152.141 108.841 152.357 108.609 152.519 108.32C152.681 108.032 152.807 107.719 152.897 107.381V105.753C152.843 105.505 152.764 105.266 152.661 105.037C152.562 104.802 152.431 104.595 152.269 104.415C152.111 104.23 151.915 104.084 151.681 103.976C151.451 103.868 151.179 103.814 150.863 103.814C150.521 103.814 150.226 103.886 149.978 104.03C149.735 104.17 149.535 104.363 149.377 104.611C149.219 104.854 149.102 105.138 149.026 105.462C148.954 105.782 148.918 106.124 148.918 106.489ZM157.836 109.449L159.87 102.895H161.208L158.276 111.334C158.208 111.514 158.118 111.708 158.005 111.915C157.897 112.127 157.758 112.327 157.586 112.516C157.415 112.706 157.208 112.859 156.965 112.976C156.726 113.097 156.44 113.158 156.107 113.158C156.008 113.158 155.882 113.145 155.728 113.118C155.575 113.091 155.467 113.068 155.404 113.05L155.397 112.037C155.433 112.041 155.49 112.046 155.566 112.05C155.647 112.059 155.704 112.064 155.735 112.064C156.019 112.064 156.26 112.025 156.458 111.949C156.656 111.877 156.823 111.753 156.958 111.577C157.098 111.406 157.217 111.17 157.316 110.868L157.836 109.449ZM156.343 102.895L158.242 108.57L158.566 109.888L157.668 110.347L154.978 102.895H156.343ZM164.938 105.51V106.537H161.641V105.51H164.938ZM169.222 102.895V103.854H165.269V102.895H169.222ZM166.607 101.118H167.857V108.395C167.857 108.643 167.895 108.829 167.972 108.956C168.048 109.082 168.147 109.165 168.269 109.206C168.391 109.246 168.521 109.266 168.661 109.266C168.764 109.266 168.872 109.257 168.985 109.239C169.102 109.217 169.19 109.199 169.249 109.185L169.255 110.206C169.156 110.237 169.026 110.266 168.863 110.293C168.706 110.325 168.514 110.341 168.289 110.341C167.983 110.341 167.701 110.28 167.445 110.158C167.188 110.037 166.983 109.834 166.83 109.55C166.681 109.262 166.607 108.874 166.607 108.388V101.118ZM170.222 106.631V106.476C170.222 105.949 170.298 105.46 170.451 105.01C170.604 104.555 170.825 104.161 171.113 103.827C171.402 103.489 171.751 103.228 172.161 103.043C172.571 102.854 173.03 102.76 173.539 102.76C174.053 102.76 174.514 102.854 174.924 103.043C175.339 103.228 175.69 103.489 175.978 103.827C176.271 104.161 176.494 104.555 176.647 105.01C176.8 105.46 176.877 105.949 176.877 106.476V106.631C176.877 107.158 176.8 107.647 176.647 108.097C176.494 108.548 176.271 108.942 175.978 109.28C175.69 109.613 175.341 109.874 174.931 110.064C174.526 110.248 174.066 110.341 173.553 110.341C173.039 110.341 172.577 110.248 172.168 110.064C171.758 109.874 171.406 109.613 171.113 109.28C170.825 108.942 170.604 108.548 170.451 108.097C170.298 107.647 170.222 107.158 170.222 106.631ZM171.472 106.476V106.631C171.472 106.996 171.514 107.341 171.6 107.665C171.686 107.985 171.814 108.269 171.985 108.516C172.161 108.764 172.379 108.96 172.641 109.104C172.902 109.244 173.206 109.314 173.553 109.314C173.895 109.314 174.195 109.244 174.451 109.104C174.713 108.96 174.929 108.764 175.1 108.516C175.271 108.269 175.4 107.985 175.485 107.665C175.575 107.341 175.62 106.996 175.62 106.631V106.476C175.62 106.115 175.575 105.775 175.485 105.456C175.4 105.131 175.269 104.845 175.093 104.597C174.922 104.345 174.706 104.147 174.445 104.003C174.188 103.859 173.886 103.787 173.539 103.787C173.197 103.787 172.895 103.859 172.634 104.003C172.377 104.147 172.161 104.345 171.985 104.597C171.814 104.845 171.686 105.131 171.6 105.456C171.514 105.775 171.472 106.115 171.472 106.476ZM181.046 105.51V106.537H177.749V105.51H181.046ZM186.742 108.516V102.895H187.999V110.206H186.803L186.742 108.516ZM186.978 106.976L187.499 106.962C187.499 107.449 187.447 107.899 187.343 108.314C187.244 108.724 187.082 109.079 186.857 109.381C186.632 109.683 186.336 109.92 185.972 110.091C185.607 110.257 185.163 110.341 184.641 110.341C184.285 110.341 183.958 110.289 183.661 110.185C183.368 110.082 183.116 109.922 182.904 109.706C182.692 109.489 182.528 109.208 182.411 108.861C182.298 108.514 182.242 108.097 182.242 107.611V102.895H183.492V107.624C183.492 107.953 183.528 108.226 183.6 108.442C183.677 108.654 183.778 108.823 183.904 108.949C184.035 109.07 184.179 109.156 184.336 109.206C184.499 109.255 184.665 109.28 184.836 109.28C185.368 109.28 185.789 109.179 186.1 108.976C186.411 108.769 186.634 108.492 186.769 108.145C186.909 107.793 186.978 107.404 186.978 106.976ZM194.161 108.266C194.161 108.086 194.12 107.92 194.039 107.766C193.963 107.609 193.803 107.467 193.559 107.341C193.321 107.21 192.96 107.097 192.478 107.003C192.073 106.917 191.706 106.816 191.377 106.699C191.053 106.582 190.776 106.44 190.546 106.273C190.321 106.106 190.147 105.911 190.026 105.685C189.904 105.46 189.843 105.197 189.843 104.895C189.843 104.606 189.906 104.334 190.032 104.077C190.163 103.82 190.345 103.593 190.58 103.395C190.818 103.197 191.104 103.041 191.438 102.929C191.771 102.816 192.143 102.76 192.553 102.76C193.138 102.76 193.638 102.863 194.053 103.07C194.467 103.278 194.785 103.555 195.005 103.902C195.226 104.244 195.336 104.624 195.336 105.043H194.086C194.086 104.841 194.026 104.645 193.904 104.456C193.787 104.262 193.613 104.102 193.384 103.976C193.159 103.85 192.882 103.787 192.553 103.787C192.206 103.787 191.924 103.841 191.708 103.949C191.496 104.052 191.341 104.185 191.242 104.347C191.147 104.51 191.1 104.681 191.1 104.861C191.1 104.996 191.122 105.118 191.168 105.226C191.217 105.329 191.303 105.426 191.424 105.516C191.546 105.602 191.717 105.683 191.938 105.76C192.159 105.836 192.44 105.913 192.782 105.989C193.382 106.124 193.875 106.287 194.262 106.476C194.65 106.665 194.938 106.897 195.127 107.172C195.316 107.447 195.411 107.78 195.411 108.172C195.411 108.492 195.343 108.784 195.208 109.05C195.077 109.316 194.886 109.546 194.634 109.739C194.386 109.929 194.089 110.077 193.742 110.185C193.4 110.289 193.014 110.341 192.586 110.341C191.942 110.341 191.397 110.226 190.951 109.996C190.505 109.766 190.168 109.469 189.938 109.104C189.708 108.739 189.593 108.354 189.593 107.949H190.85C190.868 108.291 190.967 108.564 191.147 108.766C191.327 108.965 191.548 109.106 191.809 109.192C192.071 109.273 192.33 109.314 192.586 109.314C192.929 109.314 193.215 109.269 193.445 109.179C193.679 109.088 193.857 108.965 193.978 108.807C194.1 108.649 194.161 108.469 194.161 108.266ZM200.086 110.341C199.577 110.341 199.116 110.255 198.701 110.084C198.291 109.908 197.938 109.663 197.641 109.347C197.348 109.032 197.122 108.658 196.965 108.226C196.807 107.793 196.728 107.32 196.728 106.807V106.523C196.728 105.929 196.816 105.399 196.992 104.935C197.168 104.467 197.406 104.07 197.708 103.746C198.01 103.422 198.352 103.176 198.735 103.01C199.118 102.843 199.514 102.76 199.924 102.76C200.447 102.76 200.897 102.85 201.276 103.03C201.659 103.21 201.972 103.462 202.215 103.787C202.458 104.106 202.638 104.485 202.755 104.922C202.872 105.354 202.931 105.827 202.931 106.341V106.902H197.472V105.881H201.681V105.787C201.663 105.462 201.595 105.147 201.478 104.841C201.366 104.534 201.186 104.282 200.938 104.084C200.69 103.886 200.352 103.787 199.924 103.787C199.641 103.787 199.379 103.847 199.141 103.969C198.902 104.086 198.697 104.262 198.526 104.496C198.354 104.73 198.222 105.016 198.127 105.354C198.032 105.692 197.985 106.082 197.985 106.523V106.807C197.985 107.154 198.032 107.48 198.127 107.787C198.226 108.088 198.368 108.354 198.553 108.584C198.742 108.814 198.969 108.994 199.235 109.124C199.505 109.255 199.812 109.32 200.154 109.32C200.595 109.32 200.969 109.23 201.276 109.05C201.582 108.87 201.85 108.629 202.08 108.327L202.836 108.929C202.679 109.167 202.478 109.395 202.235 109.611C201.992 109.827 201.692 110.003 201.336 110.138C200.985 110.273 200.568 110.341 200.086 110.341ZM212.08 108.266C212.08 108.086 212.039 107.92 211.958 107.766C211.882 107.609 211.722 107.467 211.478 107.341C211.24 107.21 210.879 107.097 210.397 107.003C209.992 106.917 209.625 106.816 209.296 106.699C208.972 106.582 208.695 106.44 208.465 106.273C208.24 106.106 208.066 105.911 207.945 105.685C207.823 105.46 207.762 105.197 207.762 104.895C207.762 104.606 207.825 104.334 207.951 104.077C208.082 103.82 208.264 103.593 208.499 103.395C208.737 103.197 209.023 103.041 209.357 102.929C209.69 102.816 210.062 102.76 210.472 102.76C211.057 102.76 211.557 102.863 211.972 103.07C212.386 103.278 212.704 103.555 212.924 103.902C213.145 104.244 213.255 104.624 213.255 105.043H212.005C212.005 104.841 211.945 104.645 211.823 104.456C211.706 104.262 211.532 104.102 211.303 103.976C211.077 103.85 210.8 103.787 210.472 103.787C210.125 103.787 209.843 103.841 209.627 103.949C209.415 104.052 209.26 104.185 209.161 104.347C209.066 104.51 209.019 104.681 209.019 104.861C209.019 104.996 209.041 105.118 209.086 105.226C209.136 105.329 209.222 105.426 209.343 105.516C209.465 105.602 209.636 105.683 209.857 105.76C210.077 105.836 210.359 105.913 210.701 105.989C211.3 106.124 211.794 106.287 212.181 106.476C212.568 106.665 212.857 106.897 213.046 107.172C213.235 107.447 213.33 107.78 213.33 108.172C213.33 108.492 213.262 108.784 213.127 109.05C212.996 109.316 212.805 109.546 212.553 109.739C212.305 109.929 212.008 110.077 211.661 110.185C211.318 110.289 210.933 110.341 210.505 110.341C209.861 110.341 209.316 110.226 208.87 109.996C208.424 109.766 208.086 109.469 207.857 109.104C207.627 108.739 207.512 108.354 207.512 107.949H208.769C208.787 108.291 208.886 108.564 209.066 108.766C209.246 108.965 209.467 109.106 209.728 109.192C209.99 109.273 210.249 109.314 210.505 109.314C210.848 109.314 211.134 109.269 211.363 109.179C211.598 109.088 211.776 108.965 211.897 108.807C212.019 108.649 212.08 108.469 212.08 108.266ZM217.897 109.314C218.195 109.314 218.469 109.253 218.722 109.131C218.974 109.01 219.181 108.843 219.343 108.631C219.505 108.415 219.598 108.17 219.62 107.895H220.809C220.787 108.327 220.641 108.73 220.37 109.104C220.104 109.474 219.755 109.773 219.323 110.003C218.891 110.228 218.415 110.341 217.897 110.341C217.348 110.341 216.868 110.244 216.458 110.05C216.053 109.856 215.715 109.591 215.445 109.253C215.179 108.915 214.978 108.528 214.843 108.091C214.713 107.649 214.647 107.183 214.647 106.692V106.408C214.647 105.917 214.713 105.453 214.843 105.016C214.978 104.575 215.179 104.185 215.445 103.847C215.715 103.51 216.053 103.244 216.458 103.05C216.868 102.856 217.348 102.76 217.897 102.76C218.469 102.76 218.969 102.877 219.397 103.111C219.825 103.341 220.161 103.656 220.404 104.057C220.652 104.453 220.787 104.904 220.809 105.408H219.62C219.598 105.106 219.512 104.834 219.363 104.591C219.219 104.347 219.021 104.154 218.769 104.01C218.521 103.861 218.231 103.787 217.897 103.787C217.514 103.787 217.192 103.863 216.931 104.016C216.674 104.165 216.469 104.368 216.316 104.624C216.168 104.877 216.059 105.158 215.992 105.469C215.929 105.775 215.897 106.088 215.897 106.408V106.692C215.897 107.012 215.929 107.327 215.992 107.638C216.055 107.949 216.161 108.23 216.309 108.483C216.463 108.735 216.668 108.938 216.924 109.091C217.186 109.239 217.51 109.314 217.897 109.314ZM223.465 104.043V110.206H222.215V102.895H223.431L223.465 104.043ZM225.749 102.854L225.742 104.016C225.638 103.994 225.539 103.98 225.445 103.976C225.354 103.967 225.251 103.962 225.134 103.962C224.845 103.962 224.591 104.007 224.37 104.097C224.15 104.188 223.963 104.314 223.809 104.476C223.656 104.638 223.535 104.832 223.445 105.057C223.359 105.278 223.303 105.521 223.276 105.787L222.924 105.989C222.924 105.548 222.967 105.133 223.053 104.746C223.143 104.359 223.28 104.016 223.465 103.719C223.65 103.417 223.884 103.183 224.168 103.016C224.456 102.845 224.798 102.76 225.195 102.76C225.285 102.76 225.388 102.771 225.505 102.793C225.622 102.811 225.704 102.832 225.749 102.854ZM228.262 102.895V110.206H227.005V102.895H228.262ZM226.911 100.956C226.911 100.753 226.972 100.582 227.093 100.442C227.219 100.302 227.404 100.233 227.647 100.233C227.886 100.233 228.068 100.302 228.195 100.442C228.325 100.582 228.391 100.753 228.391 100.956C228.391 101.149 228.325 101.316 228.195 101.456C228.068 101.591 227.886 101.658 227.647 101.658C227.404 101.658 227.219 101.591 227.093 101.456C226.972 101.316 226.911 101.149 226.911 100.956ZM231.519 104.3V113.016H230.262V102.895H231.411L231.519 104.3ZM236.445 106.489V106.631C236.445 107.163 236.382 107.656 236.255 108.111C236.129 108.561 235.945 108.953 235.701 109.287C235.463 109.62 235.168 109.879 234.816 110.064C234.465 110.248 234.062 110.341 233.607 110.341C233.143 110.341 232.733 110.264 232.377 110.111C232.021 109.958 231.719 109.735 231.472 109.442C231.224 109.149 231.026 108.798 230.877 108.388C230.733 107.978 230.634 107.516 230.58 107.003V106.246C230.634 105.706 230.735 105.221 230.884 104.793C231.032 104.365 231.228 104.001 231.472 103.699C231.719 103.393 232.019 103.161 232.37 103.003C232.722 102.841 233.127 102.76 233.586 102.76C234.046 102.76 234.454 102.85 234.809 103.03C235.165 103.206 235.465 103.458 235.708 103.787C235.951 104.115 236.134 104.51 236.255 104.969C236.382 105.424 236.445 105.931 236.445 106.489ZM235.188 106.631V106.489C235.188 106.124 235.15 105.782 235.073 105.462C234.996 105.138 234.877 104.854 234.715 104.611C234.557 104.363 234.354 104.17 234.107 104.03C233.859 103.886 233.564 103.814 233.222 103.814C232.906 103.814 232.632 103.868 232.397 103.976C232.168 104.084 231.972 104.23 231.809 104.415C231.647 104.595 231.514 104.802 231.411 105.037C231.312 105.266 231.237 105.505 231.188 105.753V107.503C231.278 107.818 231.404 108.115 231.566 108.395C231.728 108.67 231.945 108.893 232.215 109.064C232.485 109.23 232.825 109.314 233.235 109.314C233.573 109.314 233.863 109.244 234.107 109.104C234.354 108.96 234.557 108.764 234.715 108.516C234.877 108.269 234.996 107.985 235.073 107.665C235.15 107.341 235.188 106.996 235.188 106.631ZM241.1 102.895V103.854H237.147V102.895H241.1ZM238.485 101.118H239.735V108.395C239.735 108.643 239.773 108.829 239.85 108.956C239.927 109.082 240.026 109.165 240.147 109.206C240.269 109.246 240.4 109.266 240.539 109.266C240.643 109.266 240.751 109.257 240.863 109.239C240.981 109.217 241.068 109.199 241.127 109.185L241.134 110.206C241.035 110.237 240.904 110.266 240.742 110.293C240.584 110.325 240.393 110.341 240.168 110.341C239.861 110.341 239.58 110.28 239.323 110.158C239.066 110.037 238.861 109.834 238.708 109.55C238.559 109.262 238.485 108.874 238.485 108.388V101.118ZM246.823 108.266C246.823 108.086 246.782 107.92 246.701 107.766C246.625 107.609 246.465 107.467 246.222 107.341C245.983 107.21 245.623 107.097 245.141 107.003C244.735 106.917 244.368 106.816 244.039 106.699C243.715 106.582 243.438 106.44 243.208 106.273C242.983 106.106 242.809 105.911 242.688 105.685C242.566 105.46 242.505 105.197 242.505 104.895C242.505 104.606 242.568 104.334 242.695 104.077C242.825 103.82 243.008 103.593 243.242 103.395C243.481 103.197 243.767 103.041 244.1 102.929C244.433 102.816 244.805 102.76 245.215 102.76C245.8 102.76 246.3 102.863 246.715 103.07C247.129 103.278 247.447 103.555 247.668 103.902C247.888 104.244 247.999 104.624 247.999 105.043H246.749C246.749 104.841 246.688 104.645 246.566 104.456C246.449 104.262 246.276 104.102 246.046 103.976C245.821 103.85 245.544 103.787 245.215 103.787C244.868 103.787 244.586 103.841 244.37 103.949C244.159 104.052 244.003 104.185 243.904 104.347C243.809 104.51 243.762 104.681 243.762 104.861C243.762 104.996 243.785 105.118 243.83 105.226C243.879 105.329 243.965 105.426 244.086 105.516C244.208 105.602 244.379 105.683 244.6 105.76C244.821 105.836 245.102 105.913 245.445 105.989C246.044 106.124 246.537 106.287 246.924 106.476C247.312 106.665 247.6 106.897 247.789 107.172C247.978 107.447 248.073 107.78 248.073 108.172C248.073 108.492 248.005 108.784 247.87 109.05C247.74 109.316 247.548 109.546 247.296 109.739C247.048 109.929 246.751 110.077 246.404 110.185C246.062 110.289 245.677 110.341 245.249 110.341C244.604 110.341 244.059 110.226 243.613 109.996C243.168 109.766 242.83 109.469 242.6 109.104C242.37 108.739 242.255 108.354 242.255 107.949H243.512C243.53 108.291 243.629 108.564 243.809 108.766C243.99 108.965 244.21 109.106 244.472 109.192C244.733 109.273 244.992 109.314 245.249 109.314C245.591 109.314 245.877 109.269 246.107 109.179C246.341 109.088 246.519 108.965 246.641 108.807C246.762 108.649 246.823 108.469 246.823 108.266ZM257.458 108.956V105.192C257.458 104.904 257.4 104.654 257.282 104.442C257.17 104.226 256.999 104.059 256.769 103.942C256.539 103.825 256.255 103.766 255.918 103.766C255.602 103.766 255.325 103.82 255.086 103.929C254.852 104.037 254.668 104.179 254.532 104.354C254.402 104.53 254.336 104.719 254.336 104.922H253.086C253.086 104.661 253.154 104.402 253.289 104.145C253.424 103.888 253.618 103.656 253.87 103.449C254.127 103.237 254.433 103.07 254.789 102.949C255.15 102.823 255.55 102.76 255.992 102.76C256.523 102.76 256.992 102.85 257.397 103.03C257.807 103.21 258.127 103.483 258.357 103.847C258.591 104.208 258.708 104.661 258.708 105.206V108.611C258.708 108.854 258.728 109.113 258.769 109.388C258.814 109.663 258.879 109.899 258.965 110.097V110.206H257.661C257.598 110.061 257.548 109.87 257.512 109.631C257.476 109.388 257.458 109.163 257.458 108.956ZM257.674 105.773L257.688 106.652H256.424C256.068 106.652 255.751 106.681 255.472 106.739C255.192 106.793 254.958 106.877 254.769 106.989C254.58 107.102 254.436 107.244 254.336 107.415C254.237 107.582 254.188 107.778 254.188 108.003C254.188 108.233 254.24 108.442 254.343 108.631C254.447 108.82 254.602 108.971 254.809 109.084C255.021 109.192 255.28 109.246 255.586 109.246C255.969 109.246 256.307 109.165 256.6 109.003C256.893 108.841 257.125 108.643 257.296 108.408C257.472 108.174 257.566 107.947 257.58 107.726L258.113 108.327C258.082 108.516 257.996 108.726 257.857 108.956C257.717 109.185 257.53 109.406 257.296 109.618C257.066 109.825 256.791 109.998 256.472 110.138C256.156 110.273 255.8 110.341 255.404 110.341C254.909 110.341 254.474 110.244 254.1 110.05C253.731 109.856 253.442 109.597 253.235 109.273C253.032 108.944 252.931 108.577 252.931 108.172C252.931 107.78 253.008 107.435 253.161 107.138C253.314 106.836 253.535 106.586 253.823 106.388C254.111 106.185 254.458 106.032 254.863 105.929C255.269 105.825 255.722 105.773 256.222 105.773H257.674ZM261.924 104.456V110.206H260.674V102.895H261.857L261.924 104.456ZM261.627 106.273L261.107 106.253C261.111 105.753 261.186 105.291 261.33 104.868C261.474 104.44 261.677 104.068 261.938 103.753C262.199 103.438 262.51 103.194 262.87 103.023C263.235 102.847 263.638 102.76 264.08 102.76C264.44 102.76 264.764 102.809 265.053 102.908C265.341 103.003 265.586 103.156 265.789 103.368C265.996 103.579 266.154 103.854 266.262 104.192C266.37 104.525 266.424 104.933 266.424 105.415V110.206H265.168V105.402C265.168 105.019 265.111 104.712 264.999 104.483C264.886 104.248 264.722 104.079 264.505 103.976C264.289 103.868 264.023 103.814 263.708 103.814C263.397 103.814 263.113 103.879 262.857 104.01C262.604 104.14 262.386 104.32 262.201 104.55C262.021 104.78 261.879 105.043 261.776 105.341C261.677 105.633 261.627 105.944 261.627 106.273ZM272.931 108.787V99.8272H274.188V110.206H273.039L272.931 108.787ZM268.012 106.631V106.489C268.012 105.931 268.08 105.424 268.215 104.969C268.354 104.51 268.55 104.115 268.803 103.787C269.059 103.458 269.363 103.206 269.715 103.03C270.071 102.85 270.467 102.76 270.904 102.76C271.363 102.76 271.764 102.841 272.107 103.003C272.454 103.161 272.746 103.393 272.985 103.699C273.228 104.001 273.42 104.365 273.559 104.793C273.699 105.221 273.796 105.706 273.85 106.246V106.868C273.8 107.404 273.704 107.886 273.559 108.314C273.42 108.742 273.228 109.106 272.985 109.408C272.746 109.71 272.454 109.942 272.107 110.104C271.76 110.262 271.354 110.341 270.891 110.341C270.463 110.341 270.071 110.248 269.715 110.064C269.363 109.879 269.059 109.62 268.803 109.287C268.55 108.953 268.354 108.561 268.215 108.111C268.08 107.656 268.012 107.163 268.012 106.631ZM269.269 106.489V106.631C269.269 106.996 269.305 107.338 269.377 107.658C269.454 107.978 269.571 108.26 269.728 108.503C269.886 108.746 270.086 108.938 270.33 109.077C270.573 109.212 270.863 109.28 271.201 109.28C271.616 109.28 271.956 109.192 272.222 109.016C272.492 108.841 272.708 108.609 272.87 108.32C273.032 108.032 273.159 107.719 273.249 107.381V105.753C273.195 105.505 273.116 105.266 273.012 105.037C272.913 104.802 272.782 104.595 272.62 104.415C272.463 104.23 272.267 104.084 272.032 103.976C271.803 103.868 271.53 103.814 271.215 103.814C270.873 103.814 270.577 103.886 270.33 104.03C270.086 104.17 269.886 104.363 269.728 104.611C269.571 104.854 269.454 105.138 269.377 105.462C269.305 105.782 269.269 106.124 269.269 106.489ZM282.627 102.895V103.854H278.674V102.895H282.627ZM280.012 101.118H281.262V108.395C281.262 108.643 281.3 108.829 281.377 108.956C281.454 109.082 281.553 109.165 281.674 109.206C281.796 109.246 281.927 109.266 282.066 109.266C282.17 109.266 282.278 109.257 282.391 109.239C282.508 109.217 282.595 109.199 282.654 109.185L282.661 110.206C282.562 110.237 282.431 110.266 282.269 110.293C282.111 110.325 281.92 110.341 281.695 110.341C281.388 110.341 281.107 110.28 280.85 110.158C280.593 110.037 280.388 109.834 280.235 109.55C280.086 109.262 280.012 108.874 280.012 108.388V101.118ZM283.627 106.631V106.476C283.627 105.949 283.704 105.46 283.857 105.01C284.01 104.555 284.231 104.161 284.519 103.827C284.807 103.489 285.156 103.228 285.566 103.043C285.976 102.854 286.436 102.76 286.945 102.76C287.458 102.76 287.92 102.854 288.33 103.043C288.744 103.228 289.095 103.489 289.384 103.827C289.677 104.161 289.9 104.555 290.053 105.01C290.206 105.46 290.282 105.949 290.282 106.476V106.631C290.282 107.158 290.206 107.647 290.053 108.097C289.9 108.548 289.677 108.942 289.384 109.28C289.095 109.613 288.746 109.874 288.336 110.064C287.931 110.248 287.472 110.341 286.958 110.341C286.445 110.341 285.983 110.248 285.573 110.064C285.163 109.874 284.812 109.613 284.519 109.28C284.231 108.942 284.01 108.548 283.857 108.097C283.704 107.647 283.627 107.158 283.627 106.631ZM284.877 106.476V106.631C284.877 106.996 284.92 107.341 285.005 107.665C285.091 107.985 285.219 108.269 285.391 108.516C285.566 108.764 285.785 108.96 286.046 109.104C286.307 109.244 286.611 109.314 286.958 109.314C287.3 109.314 287.6 109.244 287.857 109.104C288.118 108.96 288.334 108.764 288.505 108.516C288.677 108.269 288.805 107.985 288.891 107.665C288.981 107.341 289.026 106.996 289.026 106.631V106.476C289.026 106.115 288.981 105.775 288.891 105.456C288.805 105.131 288.674 104.845 288.499 104.597C288.327 104.345 288.111 104.147 287.85 104.003C287.593 103.859 287.291 103.787 286.945 103.787C286.602 103.787 286.3 103.859 286.039 104.003C285.782 104.147 285.566 104.345 285.391 104.597C285.219 104.845 285.091 105.131 285.005 105.456C284.92 105.775 284.877 106.115 284.877 106.476ZM291.519 106.631V106.476C291.519 105.949 291.595 105.46 291.749 105.01C291.902 104.555 292.123 104.161 292.411 103.827C292.699 103.489 293.048 103.228 293.458 103.043C293.868 102.854 294.327 102.76 294.836 102.76C295.35 102.76 295.812 102.854 296.222 103.043C296.636 103.228 296.987 103.489 297.276 103.827C297.568 104.161 297.791 104.555 297.945 105.01C298.098 105.46 298.174 105.949 298.174 106.476V106.631C298.174 107.158 298.098 107.647 297.945 108.097C297.791 108.548 297.568 108.942 297.276 109.28C296.987 109.613 296.638 109.874 296.228 110.064C295.823 110.248 295.363 110.341 294.85 110.341C294.336 110.341 293.875 110.248 293.465 110.064C293.055 109.874 292.704 109.613 292.411 109.28C292.123 108.942 291.902 108.548 291.749 108.097C291.595 107.647 291.519 107.158 291.519 106.631ZM292.769 106.476V106.631C292.769 106.996 292.812 107.341 292.897 107.665C292.983 107.985 293.111 108.269 293.282 108.516C293.458 108.764 293.677 108.96 293.938 109.104C294.199 109.244 294.503 109.314 294.85 109.314C295.192 109.314 295.492 109.244 295.749 109.104C296.01 108.96 296.226 108.764 296.397 108.516C296.568 108.269 296.697 107.985 296.782 107.665C296.873 107.341 296.918 106.996 296.918 106.631V106.476C296.918 106.115 296.873 105.775 296.782 105.456C296.697 105.131 296.566 104.845 296.391 104.597C296.219 104.345 296.003 104.147 295.742 104.003C295.485 103.859 295.183 103.787 294.836 103.787C294.494 103.787 294.192 103.859 293.931 104.003C293.674 104.147 293.458 104.345 293.282 104.597C293.111 104.845 292.983 105.131 292.897 105.456C292.812 105.775 292.769 106.115 292.769 106.476ZM301.1 99.8272V110.206H299.843V99.8272H301.1ZM307.363 108.266C307.363 108.086 307.323 107.92 307.242 107.766C307.165 107.609 307.005 107.467 306.762 107.341C306.523 107.21 306.163 107.097 305.681 107.003C305.276 106.917 304.909 106.816 304.58 106.699C304.255 106.582 303.978 106.44 303.749 106.273C303.523 106.106 303.35 105.911 303.228 105.685C303.107 105.46 303.046 105.197 303.046 104.895C303.046 104.606 303.109 104.334 303.235 104.077C303.366 103.82 303.548 103.593 303.782 103.395C304.021 103.197 304.307 103.041 304.641 102.929C304.974 102.816 305.345 102.76 305.755 102.76C306.341 102.76 306.841 102.863 307.255 103.07C307.67 103.278 307.987 103.555 308.208 103.902C308.429 104.244 308.539 104.624 308.539 105.043H307.289C307.289 104.841 307.228 104.645 307.107 104.456C306.99 104.262 306.816 104.102 306.586 103.976C306.361 103.85 306.084 103.787 305.755 103.787C305.409 103.787 305.127 103.841 304.911 103.949C304.699 104.052 304.544 104.185 304.445 104.347C304.35 104.51 304.303 104.681 304.303 104.861C304.303 104.996 304.325 105.118 304.37 105.226C304.42 105.329 304.505 105.426 304.627 105.516C304.749 105.602 304.92 105.683 305.141 105.76C305.361 105.836 305.643 105.913 305.985 105.989C306.584 106.124 307.077 106.287 307.465 106.476C307.852 106.665 308.141 106.897 308.33 107.172C308.519 107.447 308.613 107.78 308.613 108.172C308.613 108.492 308.546 108.784 308.411 109.05C308.28 109.316 308.089 109.546 307.836 109.739C307.589 109.929 307.291 110.077 306.945 110.185C306.602 110.289 306.217 110.341 305.789 110.341C305.145 110.341 304.6 110.226 304.154 109.996C303.708 109.766 303.37 109.469 303.141 109.104C302.911 108.739 302.796 108.354 302.796 107.949H304.053C304.071 108.291 304.17 108.564 304.35 108.766C304.53 108.965 304.751 109.106 305.012 109.192C305.273 109.273 305.532 109.314 305.789 109.314C306.132 109.314 306.418 109.269 306.647 109.179C306.882 109.088 307.059 108.965 307.181 108.807C307.303 108.649 307.363 108.469 307.363 108.266ZM310.276 109.543C310.276 109.332 310.341 109.154 310.472 109.01C310.607 108.861 310.8 108.787 311.053 108.787C311.305 108.787 311.496 108.861 311.627 109.01C311.762 109.154 311.83 109.332 311.83 109.543C311.83 109.751 311.762 109.926 311.627 110.07C311.496 110.215 311.305 110.287 311.053 110.287C310.8 110.287 310.607 110.215 310.472 110.07C310.341 109.926 310.276 109.751 310.276 109.543Z" fill="#2C2C2C"/>
<path d="M139.217 67.1945L144.187 71.1298L141.803 73.1984L136.909 69.2631L139.217 67.1945ZM144.313 60.3076V61.1779C144.313 62.5738 144.123 63.8267 143.745 64.9367C143.375 66.0466 142.841 66.9926 142.143 67.7747C141.445 68.5483 140.621 69.1411 139.671 69.5532C138.721 69.9652 137.665 70.1712 136.505 70.1712C135.353 70.1712 134.298 69.9652 133.339 69.5532C132.38 69.1411 131.552 68.5483 130.854 67.7747C130.156 66.9926 129.614 66.0466 129.227 64.9367C128.849 63.8267 128.659 62.5738 128.659 61.1779V60.3076C128.659 58.9033 128.849 57.6504 129.227 56.5488C129.614 55.4388 130.152 54.4928 130.842 53.7108C131.531 52.9288 132.355 52.3317 133.314 51.9197C134.272 51.5077 135.328 51.3016 136.48 51.3016C137.64 51.3016 138.696 51.5077 139.646 51.9197C140.604 52.3317 141.433 52.9288 142.131 53.7108C142.828 54.4928 143.367 55.4388 143.745 56.5488C144.123 57.6504 144.313 58.9033 144.313 60.3076ZM140.491 61.1779V60.2823C140.491 59.3069 140.398 58.4492 140.213 57.7092C140.037 56.9692 139.776 56.347 139.431 55.8424C139.095 55.3379 138.679 54.9595 138.183 54.7072C137.686 54.4466 137.119 54.3162 136.48 54.3162C135.841 54.3162 135.273 54.4466 134.777 54.7072C134.281 54.9595 133.865 55.3379 133.528 55.8424C133.192 56.347 132.935 56.9692 132.759 57.7092C132.582 58.4492 132.494 59.3069 132.494 60.2823V61.1779C132.494 62.1449 132.582 63.0026 132.759 63.751C132.935 64.491 133.192 65.1175 133.528 65.6304C133.873 66.1349 134.293 66.5175 134.79 66.7782C135.294 67.0389 135.866 67.1692 136.505 67.1692C137.144 67.1692 137.707 67.0389 138.195 66.7782C138.691 66.5175 139.108 66.1349 139.444 65.6304C139.789 65.1175 140.049 64.491 140.226 63.751C140.403 63.0026 140.491 62.1449 140.491 61.1779ZM154.895 66.6521V56.2713H158.528V69.9189H155.11L154.895 66.6521ZM155.299 63.8519L156.371 63.8267C156.371 64.7349 156.266 65.58 156.056 66.362C155.845 67.1356 155.53 67.8083 155.11 68.3801C154.689 68.9435 154.159 69.385 153.52 69.7045C152.881 70.0156 152.129 70.1712 151.263 70.1712C150.598 70.1712 149.984 70.0787 149.421 69.8937C148.866 69.7003 148.387 69.4018 147.983 68.9982C147.588 68.5861 147.277 68.0606 147.05 67.4215C146.831 66.774 146.722 65.9962 146.722 65.088V56.2713H150.354V65.1133C150.354 65.5169 150.401 65.8574 150.493 66.1349C150.594 66.4124 150.733 66.6395 150.909 66.8161C151.086 66.9926 151.292 67.1188 151.528 67.1945C151.771 67.2701 152.04 67.308 152.335 67.308C153.083 67.308 153.672 67.1566 154.101 66.8539C154.538 66.5512 154.845 66.1391 155.021 65.6178C155.206 65.088 155.299 64.4994 155.299 63.8519ZM165.137 56.2713V69.9189H161.492V56.2713H165.137ZM161.265 52.7143C161.265 52.1846 161.45 51.7473 161.82 51.4025C162.19 51.0578 162.686 50.8854 163.308 50.8854C163.922 50.8854 164.414 51.0578 164.784 51.4025C165.163 51.7473 165.352 52.1846 165.352 52.7143C165.352 53.2441 165.163 53.6814 164.784 54.0261C164.414 54.3709 163.922 54.5433 163.308 54.5433C162.686 54.5433 162.19 54.3709 161.82 54.0261C161.45 53.6814 161.265 53.2441 161.265 52.7143ZM173.777 67.3332C174.223 67.3332 174.618 67.2491 174.963 67.0809C175.308 66.9044 175.577 66.6605 175.77 66.3494C175.972 66.0298 176.077 65.6556 176.086 65.2268H179.504C179.496 66.1854 179.239 67.0389 178.735 67.7873C178.23 68.5273 177.553 69.1117 176.704 69.5405C175.854 69.961 174.904 70.1712 173.853 70.1712C172.794 70.1712 171.869 69.9946 171.078 69.6415C170.296 69.2883 169.644 68.8006 169.123 68.1783C168.602 67.5476 168.211 66.8161 167.95 65.9836C167.689 65.1427 167.559 64.2429 167.559 63.2843V62.9185C167.559 61.9515 167.689 61.0518 167.95 60.2193C168.211 59.3784 168.602 58.6468 169.123 58.0246C169.644 57.3939 170.296 56.902 171.078 56.5488C171.86 56.1956 172.777 56.019 173.828 56.019C174.946 56.019 175.926 56.2335 176.767 56.6623C177.616 57.0912 178.28 57.705 178.76 58.5039C179.247 59.2943 179.496 60.2319 179.504 61.3166H176.086C176.077 60.8626 175.981 60.4505 175.796 60.0805C175.619 59.7105 175.358 59.4162 175.014 59.1976C174.677 58.9706 174.261 58.857 173.765 58.857C173.235 58.857 172.802 58.9706 172.466 59.1976C172.129 59.4162 171.869 59.7189 171.684 60.1058C171.499 60.4842 171.368 60.9172 171.293 61.4049C171.225 61.8842 171.192 62.3888 171.192 62.9185V63.2843C171.192 63.8141 171.225 64.3228 171.293 64.8105C171.36 65.2983 171.486 65.7313 171.671 66.1097C171.864 66.4881 172.129 66.7866 172.466 67.0053C172.802 67.2239 173.239 67.3332 173.777 67.3332ZM185.243 50.5322V69.9189H181.61V50.5322H185.243ZM193.845 56.2713L187.917 63.0321L184.738 66.2485L183.414 63.6249L185.937 60.4211L189.481 56.2713H193.845ZM190.074 69.9189L186.038 63.6123L188.548 61.4175L194.262 69.9189H190.074ZM211.63 65.1133C211.63 64.7853 211.58 64.491 211.479 64.2303C211.386 63.9612 211.21 63.7174 210.949 63.4987C210.688 63.2717 210.323 63.0489 209.852 62.8302C209.381 62.6116 208.771 62.3846 208.023 62.1491C207.19 61.88 206.4 61.5773 205.651 61.241C204.911 60.9046 204.256 60.5136 203.684 60.0679C203.12 59.6138 202.675 59.0883 202.347 58.4912C202.027 57.8942 201.867 57.2005 201.867 56.41C201.867 55.6448 202.036 54.9511 202.372 54.3288C202.708 53.6982 203.179 53.16 203.785 52.7143C204.39 52.2603 205.105 51.9113 205.929 51.6674C206.761 51.4236 207.674 51.3016 208.666 51.3016C210.02 51.3016 211.201 51.5455 212.21 52.0332C213.219 52.5209 214.001 53.1894 214.556 54.0387C215.12 54.888 215.402 55.8593 215.402 56.9524H211.643C211.643 56.4142 211.529 55.9433 211.302 55.5397C211.084 55.1277 210.747 54.8039 210.293 54.5685C209.847 54.333 209.284 54.2153 208.603 54.2153C207.947 54.2153 207.4 54.3162 206.963 54.518C206.526 54.7114 206.198 54.9763 205.979 55.3127C205.761 55.6406 205.651 56.0106 205.651 56.4227C205.651 56.7338 205.727 57.0155 205.878 57.2678C206.038 57.52 206.274 57.7555 206.585 57.9741C206.896 58.1927 207.279 58.3987 207.733 58.5922C208.187 58.7856 208.712 58.9748 209.309 59.1598C210.31 59.4625 211.189 59.803 211.945 60.1814C212.711 60.5598 213.35 60.9845 213.863 61.4554C214.376 61.9263 214.762 62.4602 215.023 63.0573C215.284 63.6543 215.414 64.3312 215.414 65.088C215.414 65.8869 215.259 66.6016 214.947 67.2323C214.636 67.863 214.186 68.3969 213.598 68.8342C213.009 69.2715 212.307 69.6036 211.491 69.8307C210.676 70.0577 209.763 70.1712 208.754 70.1712C207.846 70.1712 206.951 70.0535 206.068 69.818C205.185 69.5742 204.382 69.2084 203.658 68.7207C202.944 68.233 202.372 67.6107 201.943 66.8539C201.514 66.0971 201.3 65.2016 201.3 64.1673H205.096C205.096 64.7391 205.185 65.2226 205.361 65.6178C205.538 66.013 205.786 66.3325 206.105 66.5764C206.433 66.8203 206.82 66.9969 207.266 67.1062C207.72 67.2155 208.216 67.2701 208.754 67.2701C209.41 67.2701 209.948 67.1776 210.369 66.9926C210.798 66.8077 211.113 66.5512 211.315 66.2232C211.525 65.8953 211.63 65.5253 211.63 65.1133ZM224.445 56.2713V58.8444H216.499V56.2713H224.445ZM218.467 52.9035H222.099V65.807C222.099 66.2022 222.15 66.5049 222.251 66.7152C222.36 66.9254 222.52 67.0725 222.73 67.1566C222.94 67.2323 223.205 67.2701 223.525 67.2701C223.752 67.2701 223.953 67.2617 224.13 67.2449C224.315 67.2197 224.471 67.1945 224.597 67.1692L224.609 69.8433C224.298 69.9442 223.962 70.0241 223.6 70.0829C223.239 70.1418 222.839 70.1712 222.402 70.1712C221.603 70.1712 220.905 70.0409 220.308 69.7802C219.719 69.5111 219.265 69.0823 218.946 68.4936C218.626 67.905 218.467 67.1314 218.467 66.1728V52.9035ZM233.88 66.8413V60.7617C233.88 60.3244 233.809 59.9502 233.666 59.6391C233.523 59.3195 233.3 59.0715 232.997 58.8949C232.703 58.7183 232.32 58.63 231.849 58.63C231.446 58.63 231.097 58.7015 230.802 58.8444C230.508 58.979 230.281 59.1766 230.121 59.4372C229.962 59.6895 229.882 59.988 229.882 60.3328H226.249C226.249 59.7526 226.384 59.2018 226.653 58.6804C226.922 58.1591 227.313 57.7008 227.826 57.3056C228.339 56.902 228.948 56.5866 229.655 56.3596C230.369 56.1326 231.168 56.019 232.051 56.019C233.111 56.019 234.052 56.1956 234.877 56.5488C235.701 56.902 236.348 57.4317 236.819 58.1381C237.298 58.8444 237.538 59.7274 237.538 60.7869V66.6269C237.538 67.3753 237.584 67.9891 237.677 68.4684C237.769 68.9393 237.904 69.3513 238.08 69.7045V69.9189H234.41C234.233 69.549 234.099 69.0865 234.006 68.5315C233.922 67.9681 233.88 67.4047 233.88 66.8413ZM234.359 61.6067L234.385 63.6627H232.354C231.875 63.6627 231.458 63.7174 231.105 63.8267C230.752 63.936 230.462 64.0916 230.235 64.2934C230.008 64.4868 229.84 64.7138 229.73 64.9745C229.629 65.2352 229.579 65.5211 229.579 65.8322C229.579 66.1433 229.65 66.425 229.793 66.6773C229.936 66.9212 230.142 67.1146 230.411 67.2575C230.681 67.3921 230.996 67.4593 231.357 67.4593C231.904 67.4593 232.379 67.35 232.783 67.1314C233.186 66.9128 233.497 66.6437 233.716 66.3241C233.943 66.0046 234.061 65.7019 234.069 65.416L235.028 66.9548C234.893 67.2996 234.708 67.657 234.473 68.0269C234.246 68.3969 233.956 68.7459 233.603 69.0739C233.249 69.3934 232.825 69.6583 232.329 69.8685C231.833 70.0703 231.244 70.1712 230.563 70.1712C229.697 70.1712 228.91 69.9988 228.204 69.6541C227.506 69.3009 226.951 68.8174 226.539 68.2035C226.135 67.5813 225.934 66.8749 225.934 66.0845C225.934 65.3697 226.068 64.7349 226.337 64.1799C226.606 63.6249 227.002 63.1582 227.523 62.7798C228.053 62.393 228.713 62.1029 229.503 61.9095C230.294 61.7077 231.21 61.6067 232.253 61.6067H234.359ZM243.971 59.248V69.9189H240.338V56.2713H243.756L243.971 59.248ZM248.083 56.183L248.02 59.5508C247.843 59.5255 247.629 59.5045 247.376 59.4877C247.133 59.4625 246.91 59.4499 246.708 59.4499C246.195 59.4499 245.749 59.5171 245.371 59.6517C245.001 59.7778 244.69 59.967 244.437 60.2193C244.194 60.4715 244.009 60.7785 243.882 61.1401C243.765 61.5016 243.697 61.9137 243.681 62.3762L242.949 62.1491C242.949 61.2662 243.037 60.4547 243.214 59.7147C243.391 58.9664 243.647 58.3147 243.983 57.7597C244.328 57.2047 244.749 56.7758 245.245 56.4731C245.741 56.1704 246.308 56.019 246.948 56.019C247.149 56.019 247.355 56.0358 247.566 56.0695C247.776 56.0947 247.948 56.1326 248.083 56.183ZM257.114 56.2713V58.8444H249.167V56.2713H257.114ZM251.135 52.9035H254.768V65.807C254.768 66.2022 254.818 66.5049 254.919 66.7152C255.028 66.9254 255.188 67.0725 255.398 67.1566C255.609 67.2323 255.874 67.2701 256.193 67.2701C256.42 67.2701 256.622 67.2617 256.799 67.2449C256.984 67.2197 257.139 67.1945 257.265 67.1692L257.278 69.8433C256.967 69.9442 256.63 70.0241 256.269 70.0829C255.907 70.1418 255.508 70.1712 255.071 70.1712C254.272 70.1712 253.574 70.0409 252.977 69.7802C252.388 69.5111 251.934 69.0823 251.614 68.4936C251.295 67.905 251.135 67.1314 251.135 66.1728V52.9035Z" fill="#2C2C2C"/>
<path d="M403.701 39.6001L400.858 39.8115L402.826 24.0057L390.146 36.0201L388.383 34.1785L401.063 22.1641L385.099 23.3497L385.451 20.5358L404.058 19.151L403.785 21.3412L405.997 21.1767L403.701 39.6001Z" fill="#FF62C4"/>
<path d="M60.0079 48.5462L56.0122 48.5717C55.2756 48.5605 54.7036 49.1822 54.6973 49.9274L54.9034 82.5224C54.8971 83.2676 55.5154 83.8504 56.252 83.8616L60.2477 83.8362C60.9843 83.8474 61.5564 83.2257 61.5627 82.4805L61.3569 49.8853C61.3005 49.1569 60.7446 48.5579 60.008 48.5467L60.0079 48.5462Z" fill="#FF62C4"/>
<path d="M84.9726 53.2116L82.0616 50.4355C81.544 49.9067 80.7028 49.9726 80.1858 50.5014L67.0533 64.7125C66.6002 65.2414 66.6002 66.0344 67.0533 66.5633L80.1858 80.7743C80.7034 81.3032 81.5445 81.3691 82.0616 80.8402L84.9726 78.0641C85.4902 77.5353 85.5547 76.6758 85.0371 76.1475L75.3338 65.6381L85.0376 55.1286C85.4907 54.5998 85.4907 53.7403 84.9731 53.2115L84.9726 53.2116Z" fill="#FF62C4"/>
<path d="M105.038 53.2116L102.126 50.4355C101.609 49.9067 100.768 49.9726 100.251 50.5014L87.1182 64.7125C86.6651 65.2414 86.6651 66.0344 87.1182 66.5633L100.251 80.7743C100.768 81.3032 101.609 81.3691 102.126 80.8402L105.038 78.0641C105.555 77.5353 105.62 76.6758 105.102 76.1475L95.3987 65.6381L105.103 55.1286C105.556 54.5998 105.556 53.7403 105.038 53.2115L105.038 53.2116Z" fill="#FF62C4"/>
</svg>
