<svg width="440" height="166" viewBox="0 0 440 166" fill="none" xmlns="http://www.w3.org/2000/svg">
<rect x="438.659" y="10.3784" width="154.292" height="416.519" rx="7.61081" transform="rotate(90 438.659 10.3784)" fill="#F1D1E5" stroke="#F1D1E5" stroke-width="1.38378"/>
<rect x="426.897" y="0.691892" width="154.292" height="426.205" rx="7.61081" transform="rotate(90 426.897 0.691892)" fill="white" stroke="#F1D1E5" stroke-width="1.38378"/>
<path d="M133.211 87.5313C133.158 87.0661 132.942 86.7057 132.562 86.4502C132.182 86.1914 131.704 86.062 131.127 86.062C130.714 86.062 130.357 86.1275 130.056 86.2585C129.755 86.3863 129.52 86.5632 129.353 86.7893C129.19 87.012 129.108 87.2659 129.108 87.5509C129.108 87.7901 129.163 87.9965 129.275 88.1701C129.389 88.3437 129.538 88.4895 129.722 88.6074C129.909 88.7221 130.108 88.8187 130.321 88.8974C130.534 88.9727 130.739 89.035 130.936 89.0841L131.918 89.3396C132.239 89.4182 132.569 89.5247 132.906 89.659C133.244 89.7933 133.556 89.9703 133.845 90.1897C134.133 90.4092 134.366 90.6811 134.543 91.0055C134.723 91.3298 134.813 91.718 134.813 92.1701C134.813 92.7401 134.665 93.2463 134.371 93.6885C134.079 94.1308 133.655 94.4797 133.098 94.7352C132.544 94.9907 131.874 95.1185 131.088 95.1185C130.334 95.1185 129.683 94.9989 129.132 94.7598C128.582 94.5206 128.151 94.1816 127.84 93.7426C127.529 93.3003 127.357 92.7761 127.324 92.1701H128.847C128.877 92.5337 128.995 92.8368 129.201 93.0792C129.411 93.3183 129.678 93.4969 130.002 93.6148C130.33 93.7295 130.688 93.7868 131.078 93.7868C131.507 93.7868 131.889 93.7196 132.223 93.5853C132.561 93.4477 132.826 93.2577 133.019 93.0153C133.212 92.7696 133.309 92.4829 133.309 92.1553C133.309 91.8572 133.224 91.6132 133.054 91.4232C132.886 91.2332 132.659 91.0759 132.371 90.9514C132.085 90.8269 131.763 90.7172 131.402 90.6222L130.213 90.2979C129.407 90.0784 128.769 89.7557 128.297 89.3298C127.828 88.9039 127.594 88.3404 127.594 87.6394C127.594 87.0595 127.751 86.5534 128.066 86.1209C128.38 85.6885 128.806 85.3527 129.343 85.1136C129.881 84.8712 130.487 84.7499 131.162 84.7499C131.843 84.7499 132.444 84.8695 132.965 85.1087C133.489 85.3478 133.902 85.6771 134.203 86.0964C134.505 86.5124 134.662 86.9907 134.675 87.5313H133.211ZM139.762 95.1038C139.019 95.1038 138.378 94.9449 137.841 94.6271C137.307 94.306 136.894 93.8556 136.603 93.2757C136.314 92.6926 136.17 92.0096 136.17 91.2266C136.17 90.4535 136.314 89.7721 136.603 89.1824C136.894 88.5927 137.3 88.1324 137.821 87.8015C138.346 87.4707 138.958 87.3052 139.659 87.3052C140.085 87.3052 140.498 87.3757 140.898 87.5165C141.297 87.6574 141.656 87.8785 141.974 88.1799C142.291 88.4813 142.542 88.8728 142.726 89.3544C142.909 89.8327 143.001 90.4142 143.001 91.0988V91.6197H137.001V90.519H141.561C141.561 90.1324 141.482 89.7901 141.325 89.492C141.168 89.1906 140.947 88.9531 140.662 88.7794C140.38 88.6058 140.049 88.519 139.669 88.519C139.256 88.519 138.896 88.6205 138.588 88.8237C138.283 89.0235 138.047 89.2856 137.88 89.6099C137.717 89.9309 137.635 90.2798 137.635 90.6566V91.5165C137.635 92.021 137.723 92.4502 137.9 92.804C138.08 93.1578 138.331 93.4281 138.652 93.6148C138.973 93.7983 139.348 93.89 139.777 93.89C140.056 93.89 140.309 93.8507 140.539 93.7721C140.768 93.6902 140.966 93.5689 141.133 93.4084C141.3 93.2479 141.428 93.0497 141.517 92.8138L142.907 93.0644C142.796 93.4739 142.596 93.8327 142.308 94.1406C142.023 94.4453 141.664 94.6828 141.232 94.8531C140.803 95.0202 140.313 95.1038 139.762 95.1038ZM146.1 90.4698V94.9514H144.631V87.4035H146.041V88.632H146.135C146.308 88.2323 146.58 87.9113 146.95 87.6689C147.324 87.4264 147.794 87.3052 148.361 87.3052C148.875 87.3052 149.325 87.4133 149.712 87.6295C150.099 87.8425 150.398 88.1603 150.611 88.5829C150.824 89.0055 150.931 89.528 150.931 90.1504V94.9514H149.461V90.3273C149.461 89.7802 149.319 89.3527 149.034 89.0448C148.749 88.7336 148.357 88.578 147.859 88.578C147.519 88.578 147.216 88.6517 146.95 88.7991C146.688 88.9465 146.48 89.1627 146.326 89.4477C146.176 89.7295 146.1 90.0702 146.1 90.4698ZM155.727 95.0988C155.117 95.0988 154.574 94.9432 154.095 94.632C153.62 94.3175 153.247 93.8703 152.975 93.2905C152.706 92.7074 152.572 92.0079 152.572 91.1922C152.572 90.3765 152.708 89.6787 152.98 89.0988C153.255 88.519 153.632 88.0751 154.11 87.7671C154.588 87.4592 155.131 87.3052 155.737 87.3052C156.205 87.3052 156.582 87.3838 156.867 87.5411C157.155 87.6951 157.378 87.8752 157.535 88.0816C157.696 88.288 157.82 88.4698 157.909 88.6271H157.997V84.8875H159.466V94.9514H158.031V93.777H157.909C157.82 93.9375 157.692 94.1209 157.525 94.3273C157.362 94.5337 157.135 94.7139 156.847 94.8679C156.559 95.0219 156.185 95.0988 155.727 95.0988ZM156.051 93.8458C156.474 93.8458 156.831 93.7344 157.122 93.5116C157.417 93.2856 157.64 92.9727 157.791 92.573C157.945 92.1734 158.022 91.7082 158.022 91.1775C158.022 90.6533 157.946 90.1947 157.796 89.8015C157.645 89.4084 157.424 89.1021 157.132 88.8826C156.841 88.6631 156.48 88.5534 156.051 88.5534C155.609 88.5534 155.24 88.668 154.945 88.8974C154.651 89.1267 154.428 89.4395 154.277 89.8359C154.13 90.2323 154.056 90.6795 154.056 91.1775C154.056 91.682 154.131 92.1357 154.282 92.5386C154.433 92.9416 154.656 93.261 154.95 93.4969C155.248 93.7295 155.615 93.8458 156.051 93.8458ZM168.405 95.1038C167.674 95.1038 167.045 94.9383 166.518 94.6074C165.994 94.2733 165.591 93.813 165.309 93.2266C165.027 92.6402 164.886 91.9686 164.886 91.2119C164.886 90.4453 165.031 89.7688 165.319 89.1824C165.607 88.5927 166.013 88.1324 166.538 87.8015C167.062 87.4707 167.679 87.3052 168.39 87.3052C168.963 87.3052 169.475 87.4117 169.923 87.6246C170.372 87.8343 170.734 88.1291 171.009 88.5092C171.288 88.8892 171.453 89.3331 171.506 89.8409H170.076C169.997 89.487 169.817 89.1824 169.535 88.9268C169.257 88.6713 168.883 88.5436 168.415 88.5436C168.005 88.5436 167.647 88.6517 167.339 88.8679C167.034 89.0808 166.796 89.3855 166.626 89.7819C166.456 90.175 166.371 90.6402 166.371 91.1775C166.371 91.7278 166.454 92.2028 166.621 92.6025C166.788 93.0022 167.024 93.3118 167.329 93.5313C167.637 93.7508 167.999 93.8605 168.415 93.8605C168.693 93.8605 168.945 93.8097 169.171 93.7082C169.401 93.6033 169.592 93.4543 169.746 93.261C169.904 93.0677 170.013 92.8351 170.076 92.5632H171.506C171.453 93.0513 171.294 93.487 171.029 93.8703C170.764 94.2536 170.408 94.555 169.963 94.7745C169.52 94.994 169.001 95.1038 168.405 95.1038ZM173.077 94.9514V87.4035H174.497V88.6025H174.576C174.713 88.1963 174.956 87.8769 175.303 87.6443C175.653 87.4084 176.05 87.2905 176.492 87.2905C176.584 87.2905 176.692 87.2938 176.816 87.3003C176.944 87.3069 177.044 87.3151 177.116 87.3249V88.7303C177.057 88.7139 176.952 88.6959 176.802 88.6762C176.651 88.6533 176.5 88.6418 176.35 88.6418C176.002 88.6418 175.693 88.7155 175.421 88.863C175.152 89.0071 174.939 89.2086 174.782 89.4674C174.625 89.7229 174.546 90.0145 174.546 90.3421V94.9514H173.077ZM181.297 95.1038C180.589 95.1038 179.972 94.9416 179.444 94.6173C178.917 94.2929 178.507 93.8392 178.216 93.2561C177.924 92.673 177.778 91.9915 177.778 91.2119C177.778 90.4289 177.924 89.7442 178.216 89.1578C178.507 88.5714 178.917 88.116 179.444 87.7917C179.972 87.4674 180.589 87.3052 181.297 87.3052C182.004 87.3052 182.622 87.4674 183.149 87.7917C183.677 88.116 184.086 88.5714 184.378 89.1578C184.669 89.7442 184.815 90.4289 184.815 91.2119C184.815 91.9915 184.669 92.673 184.378 93.2561C184.086 93.8392 183.677 94.2929 183.149 94.6173C182.622 94.9416 182.004 95.1038 181.297 95.1038ZM181.302 93.8703C181.76 93.8703 182.14 93.7491 182.442 93.5067C182.743 93.2643 182.966 92.9416 183.11 92.5386C183.257 92.1357 183.331 91.6918 183.331 91.2069C183.331 90.7254 183.257 90.2831 183.11 89.8802C182.966 89.4739 182.743 89.148 182.442 88.9023C182.14 88.6566 181.76 88.5337 181.302 88.5337C180.84 88.5337 180.457 88.6566 180.152 88.9023C179.85 89.148 179.626 89.4739 179.479 89.8802C179.334 90.2831 179.262 90.7254 179.262 91.2069C179.262 91.6918 179.334 92.1357 179.479 92.5386C179.626 92.9416 179.85 93.2643 180.152 93.5067C180.457 93.7491 180.84 93.8703 181.302 93.8703ZM192.111 89.2463L190.78 89.4821C190.724 89.3118 190.635 89.1496 190.514 88.9956C190.396 88.8417 190.236 88.7155 190.033 88.6173C189.83 88.519 189.576 88.4698 189.271 88.4698C188.855 88.4698 188.508 88.5632 188.229 88.7499C187.951 88.9334 187.812 89.1709 187.812 89.4625C187.812 89.7147 187.905 89.9178 188.092 90.0718C188.278 90.2258 188.58 90.3519 188.996 90.4502L190.195 90.7254C190.889 90.8859 191.407 91.1332 191.748 91.4674C192.088 91.8015 192.259 92.2356 192.259 92.7696C192.259 93.2217 192.128 93.6246 191.866 93.9784C191.607 94.329 191.245 94.6042 190.78 94.804C190.318 95.0038 189.782 95.1038 189.173 95.1038C188.328 95.1038 187.638 94.9236 187.104 94.5632C186.57 94.1996 186.242 93.6836 186.121 93.0153L187.541 92.7991C187.63 93.1693 187.812 93.4494 188.087 93.6394C188.362 93.8261 188.721 93.9195 189.163 93.9195C189.644 93.9195 190.029 93.8196 190.318 93.6197C190.606 93.4166 190.75 93.1693 190.75 92.8777C190.75 92.6418 190.662 92.4436 190.485 92.2831C190.311 92.1226 190.044 92.0014 189.684 91.9195L188.406 91.6394C187.702 91.4789 187.181 91.2233 186.843 90.8728C186.509 90.5223 186.342 90.0784 186.342 89.5411C186.342 89.0956 186.467 88.7057 186.716 88.3716C186.965 88.0374 187.309 87.777 187.748 87.5902C188.187 87.4002 188.69 87.3052 189.256 87.3052C190.072 87.3052 190.714 87.4821 191.183 87.8359C191.651 88.1865 191.961 88.6566 192.111 89.2463ZM199.53 89.2463L198.199 89.4821C198.143 89.3118 198.054 89.1496 197.933 88.9956C197.815 88.8417 197.655 88.7155 197.452 88.6173C197.248 88.519 196.995 88.4698 196.69 88.4698C196.274 88.4698 195.927 88.5632 195.648 88.7499C195.37 88.9334 195.23 89.1709 195.23 89.4625C195.23 89.7147 195.324 89.9178 195.511 90.0718C195.697 90.2258 195.999 90.3519 196.415 90.4502L197.614 90.7254C198.308 90.8859 198.826 91.1332 199.167 91.4674C199.507 91.8015 199.678 92.2356 199.678 92.7696C199.678 93.2217 199.547 93.6246 199.285 93.9784C199.026 94.329 198.664 94.6042 198.199 94.804C197.737 95.0038 197.201 95.1038 196.592 95.1038C195.746 95.1038 195.057 94.9236 194.523 94.5632C193.989 94.1996 193.661 93.6836 193.54 93.0153L194.96 92.7991C195.049 93.1693 195.23 93.4494 195.506 93.6394C195.781 93.8261 196.14 93.9195 196.582 93.9195C197.063 93.9195 197.448 93.8196 197.737 93.6197C198.025 93.4166 198.169 93.1693 198.169 92.8777C198.169 92.6418 198.081 92.4436 197.904 92.2831C197.73 92.1226 197.463 92.0014 197.103 91.9195L195.825 91.6394C195.121 91.4789 194.6 91.2233 194.262 90.8728C193.928 90.5223 193.761 90.0784 193.761 89.5411C193.761 89.0956 193.886 88.7057 194.135 88.3716C194.384 88.0374 194.728 87.777 195.167 87.5902C195.606 87.4002 196.108 87.3052 196.675 87.3052C197.491 87.3052 198.133 87.4821 198.601 87.8359C199.07 88.1865 199.38 88.6566 199.53 89.2463ZM205.74 90.062V91.3347H201.278V90.062H205.74ZM210.878 95.1038C210.147 95.1038 209.518 94.9383 208.991 94.6074C208.467 94.2733 208.064 93.813 207.782 93.2266C207.5 92.6402 207.359 91.9686 207.359 91.2119C207.359 90.4453 207.504 89.7688 207.792 89.1824C208.08 88.5927 208.486 88.1324 209.011 87.8015C209.535 87.4707 210.152 87.3052 210.863 87.3052C211.436 87.3052 211.947 87.4117 212.396 87.6246C212.845 87.8343 213.207 88.1291 213.482 88.5092C213.761 88.8892 213.926 89.3331 213.979 89.8409H212.549C212.47 89.487 212.29 89.1824 212.008 88.9268C211.73 88.6713 211.356 88.5436 210.888 88.5436C210.478 88.5436 210.119 88.6517 209.812 88.8679C209.507 89.0808 209.269 89.3855 209.099 89.7819C208.929 90.175 208.843 90.6402 208.843 91.1775C208.843 91.7278 208.927 92.2028 209.094 92.6025C209.261 93.0022 209.497 93.3118 209.802 93.5313C210.11 93.7508 210.472 93.8605 210.888 93.8605C211.166 93.8605 211.418 93.8097 211.644 93.7082C211.874 93.6033 212.065 93.4543 212.219 93.261C212.377 93.0677 212.486 92.8351 212.549 92.5632H213.979C213.926 93.0513 213.767 93.487 213.502 93.8703C213.237 94.2536 212.881 94.555 212.436 94.7745C211.993 94.994 211.474 95.1038 210.878 95.1038ZM217.019 90.4698V94.9514H215.55V84.8875H217V88.632H217.093C217.27 88.2258 217.54 87.9031 217.904 87.6639C218.267 87.4248 218.742 87.3052 219.329 87.3052C219.846 87.3052 220.298 87.4117 220.685 87.6246C221.075 87.8376 221.376 88.1553 221.589 88.578C221.805 88.9973 221.914 89.5214 221.914 90.1504V94.9514H220.444V90.3273C220.444 89.7737 220.302 89.3445 220.017 89.0399C219.732 88.7319 219.335 88.578 218.828 88.578C218.48 88.578 218.169 88.6517 217.894 88.7991C217.622 88.9465 217.407 89.1627 217.25 89.4477C217.096 89.7295 217.019 90.0702 217.019 90.4698ZM226.071 95.1185C225.592 95.1185 225.16 95.03 224.773 94.8531C224.387 94.673 224.081 94.4125 223.855 94.0718C223.632 93.7311 223.52 93.3134 223.52 92.8187C223.52 92.3929 223.602 92.0423 223.766 91.7671C223.93 91.492 224.151 91.2741 224.429 91.1136C224.708 90.9531 225.019 90.8318 225.363 90.7499C225.707 90.668 226.058 90.6058 226.415 90.5632C226.867 90.5108 227.234 90.4682 227.515 90.4354C227.797 90.3994 228.002 90.3421 228.13 90.2635C228.257 90.1848 228.321 90.0571 228.321 89.8802V89.8458C228.321 89.4166 228.2 89.0841 227.958 88.8482C227.719 88.6123 227.362 88.4944 226.886 88.4944C226.392 88.4944 226.002 88.6042 225.717 88.8237C225.435 89.0399 225.24 89.2807 225.132 89.546L223.751 89.2315C223.915 88.7729 224.154 88.4027 224.469 88.1209C224.787 87.8359 225.152 87.6295 225.565 87.5018C225.977 87.3707 226.411 87.3052 226.867 87.3052C227.168 87.3052 227.488 87.3413 227.825 87.4133C228.166 87.4821 228.484 87.6099 228.778 87.7966C229.076 87.9834 229.321 88.2504 229.511 88.5976C229.701 88.9416 229.796 89.3888 229.796 89.9391V94.9514H228.361V93.9195H228.302C228.207 94.1095 228.064 94.2962 227.874 94.4797C227.684 94.6631 227.44 94.8155 227.142 94.9367C226.844 95.0579 226.487 95.1185 226.071 95.1185ZM226.39 93.9391C226.796 93.9391 227.144 93.8589 227.432 93.6983C227.724 93.5378 227.945 93.3282 228.095 93.0694C228.249 92.8073 228.326 92.5272 228.326 92.2291V91.2561C228.274 91.3085 228.172 91.3576 228.022 91.4035C227.874 91.4461 227.705 91.4838 227.515 91.5165C227.325 91.546 227.14 91.5739 226.96 91.6001C226.78 91.623 226.629 91.6427 226.508 91.659C226.223 91.6951 225.963 91.7557 225.727 91.8409C225.494 91.926 225.307 92.0489 225.167 92.2094C225.029 92.3666 224.96 92.5763 224.96 92.8384C224.96 93.202 225.095 93.4772 225.363 93.6639C225.632 93.8474 225.974 93.9391 226.39 93.9391ZM231.753 94.9514V87.4035H233.222V94.9514H231.753ZM232.495 86.2389C232.239 86.2389 232.02 86.1537 231.836 85.9834C231.656 85.8097 231.566 85.6033 231.566 85.3642C231.566 85.1218 231.656 84.9154 231.836 84.745C232.02 84.5714 232.239 84.4846 232.495 84.4846C232.75 84.4846 232.968 84.5714 233.148 84.745C233.332 84.9154 233.423 85.1218 233.423 85.3642C233.423 85.6033 233.332 85.8097 233.148 85.9834C232.968 86.1537 232.75 86.2389 232.495 86.2389ZM236.668 90.4698V94.9514H235.199V87.4035H236.609V88.632H236.702C236.876 88.2323 237.148 87.9113 237.518 87.6689C237.891 87.4264 238.362 87.3052 238.928 87.3052C239.443 87.3052 239.893 87.4133 240.28 87.6295C240.666 87.8425 240.966 88.1603 241.179 88.5829C241.392 89.0055 241.498 89.528 241.498 90.1504V94.9514H240.029V90.3273C240.029 89.7802 239.886 89.3527 239.601 89.0448C239.316 88.7336 238.925 88.578 238.427 88.578C238.086 88.578 237.783 88.6517 237.518 88.7991C237.256 88.9465 237.048 89.1627 236.894 89.4477C236.743 89.7295 236.668 90.0702 236.668 90.4698ZM247.131 94.9514V87.4035H248.541V88.632H248.635C248.792 88.216 249.049 87.8916 249.406 87.659C249.763 87.4232 250.191 87.3052 250.689 87.3052C251.193 87.3052 251.616 87.4232 251.957 87.659C252.3 87.8949 252.554 88.2192 252.718 88.632H252.797C252.977 88.2291 253.264 87.908 253.657 87.6689C254.05 87.4264 254.518 87.3052 255.062 87.3052C255.747 87.3052 256.305 87.5198 256.738 87.949C257.174 88.3781 257.391 89.0251 257.391 89.89V94.9514H255.922V90.0276C255.922 89.5165 255.783 89.1463 255.504 88.917C255.226 88.6877 254.893 88.573 254.507 88.573C254.029 88.573 253.657 88.7205 253.391 89.0153C253.126 89.3069 252.993 89.682 252.993 90.1406V94.9514H251.529V89.9342C251.529 89.5247 251.401 89.1955 251.146 88.9465C250.89 88.6975 250.558 88.573 250.148 88.573C249.87 88.573 249.613 88.6467 249.377 88.7942C249.144 88.9383 248.956 89.1398 248.812 89.3986C248.671 89.6574 248.6 89.9571 248.6 90.2979V94.9514H247.131ZM262.614 95.1038C261.87 95.1038 261.23 94.9449 260.692 94.6271C260.158 94.306 259.746 93.8556 259.454 93.2757C259.166 92.6926 259.022 92.0096 259.022 91.2266C259.022 90.4535 259.166 89.7721 259.454 89.1824C259.746 88.5927 260.152 88.1324 260.673 87.8015C261.197 87.4707 261.809 87.3052 262.511 87.3052C262.936 87.3052 263.349 87.3757 263.749 87.5165C264.149 87.6574 264.507 87.8785 264.825 88.1799C265.143 88.4813 265.393 88.8728 265.577 89.3544C265.76 89.8327 265.852 90.4142 265.852 91.0988V91.6197H259.852V90.519H264.412C264.412 90.1324 264.334 89.7901 264.176 89.492C264.019 89.1906 263.798 88.9531 263.513 88.7794C263.231 88.6058 262.9 88.519 262.52 88.519C262.108 88.519 261.747 88.6205 261.439 88.8237C261.135 89.0235 260.899 89.2856 260.732 89.6099C260.568 89.9309 260.486 90.2798 260.486 90.6566V91.5165C260.486 92.021 260.574 92.4502 260.751 92.804C260.932 93.1578 261.182 93.4281 261.503 93.6148C261.824 93.7983 262.199 93.89 262.628 93.89C262.907 93.89 263.161 93.8507 263.39 93.7721C263.619 93.6902 263.818 93.5689 263.985 93.4084C264.152 93.2479 264.28 93.0497 264.368 92.8138L265.759 93.0644C265.647 93.4739 265.447 93.8327 265.159 94.1406C264.874 94.4453 264.515 94.6828 264.083 94.8531C263.654 95.0202 263.164 95.1038 262.614 95.1038ZM273.138 89.2463L271.807 89.4821C271.751 89.3118 271.662 89.1496 271.541 88.9956C271.423 88.8417 271.263 88.7155 271.06 88.6173C270.857 88.519 270.603 88.4698 270.298 88.4698C269.882 88.4698 269.535 88.5632 269.256 88.7499C268.978 88.9334 268.839 89.1709 268.839 89.4625C268.839 89.7147 268.932 89.9178 269.119 90.0718C269.305 90.2258 269.607 90.3519 270.023 90.4502L271.222 90.7254C271.916 90.8859 272.434 91.1332 272.775 91.4674C273.115 91.8015 273.286 92.2356 273.286 92.7696C273.286 93.2217 273.155 93.6246 272.893 93.9784C272.634 94.329 272.272 94.6042 271.807 94.804C271.345 95.0038 270.809 95.1038 270.2 95.1038C269.355 95.1038 268.665 94.9236 268.131 94.5632C267.597 94.1996 267.269 93.6836 267.148 93.0153L268.568 92.7991C268.657 93.1693 268.839 93.4494 269.114 93.6394C269.389 93.8261 269.748 93.9195 270.19 93.9195C270.672 93.9195 271.056 93.8196 271.345 93.6197C271.633 93.4166 271.777 93.1693 271.777 92.8777C271.777 92.6418 271.689 92.4436 271.512 92.2831C271.338 92.1226 271.071 92.0014 270.711 91.9195L269.433 91.6394C268.729 91.4789 268.208 91.2233 267.871 90.8728C267.536 90.5223 267.369 90.0784 267.369 89.5411C267.369 89.0956 267.494 88.7057 267.743 88.3716C267.992 88.0374 268.336 87.777 268.775 87.5902C269.214 87.4002 269.717 87.3052 270.283 87.3052C271.099 87.3052 271.741 87.4821 272.21 87.8359C272.678 88.1865 272.988 88.6566 273.138 89.2463ZM280.557 89.2463L279.226 89.4821C279.17 89.3118 279.081 89.1496 278.96 88.9956C278.842 88.8417 278.682 88.7155 278.479 88.6173C278.276 88.519 278.022 88.4698 277.717 88.4698C277.301 88.4698 276.954 88.5632 276.675 88.7499C276.397 88.9334 276.257 89.1709 276.257 89.4625C276.257 89.7147 276.351 89.9178 276.538 90.0718C276.724 90.2258 277.026 90.3519 277.442 90.4502L278.641 90.7254C279.335 90.8859 279.853 91.1332 280.194 91.4674C280.534 91.8015 280.705 92.2356 280.705 92.7696C280.705 93.2217 280.574 93.6246 280.312 93.9784C280.053 94.329 279.691 94.6042 279.226 94.804C278.764 95.0038 278.228 95.1038 277.619 95.1038C276.773 95.1038 276.084 94.9236 275.55 94.5632C275.016 94.1996 274.688 93.6836 274.567 93.0153L275.987 92.7991C276.076 93.1693 276.257 93.4494 276.533 93.6394C276.808 93.8261 277.167 93.9195 277.609 93.9195C278.09 93.9195 278.475 93.8196 278.764 93.6197C279.052 93.4166 279.196 93.1693 279.196 92.8777C279.196 92.6418 279.108 92.4436 278.931 92.2831C278.757 92.1226 278.49 92.0014 278.13 91.9195L276.852 91.6394C276.148 91.4789 275.627 91.2233 275.289 90.8728C274.955 90.5223 274.788 90.0784 274.788 89.5411C274.788 89.0956 274.913 88.7057 275.162 88.3716C275.411 88.0374 275.755 87.777 276.194 87.5902C276.633 87.4002 277.135 87.3052 277.702 87.3052C278.518 87.3052 279.16 87.4821 279.629 87.8359C280.097 88.1865 280.407 88.6566 280.557 89.2463ZM284.517 95.1185C284.038 95.1185 283.606 95.03 283.219 94.8531C282.833 94.673 282.527 94.4125 282.3 94.0718C282.078 93.7311 281.966 93.3134 281.966 92.8187C281.966 92.3929 282.048 92.0423 282.212 91.7671C282.376 91.492 282.597 91.2741 282.875 91.1136C283.154 90.9531 283.465 90.8318 283.809 90.7499C284.153 90.668 284.504 90.6058 284.861 90.5632C285.313 90.5108 285.68 90.4682 285.961 90.4354C286.243 90.3994 286.448 90.3421 286.576 90.2635C286.703 90.1848 286.767 90.0571 286.767 89.8802V89.8458C286.767 89.4166 286.646 89.0841 286.404 88.8482C286.165 88.6123 285.807 88.4944 285.332 88.4944C284.838 88.4944 284.448 88.6042 284.163 88.8237C283.881 89.0399 283.686 89.2807 283.578 89.546L282.197 89.2315C282.361 88.7729 282.6 88.4027 282.915 88.1209C283.233 87.8359 283.598 87.6295 284.011 87.5018C284.423 87.3707 284.857 87.3052 285.313 87.3052C285.614 87.3052 285.934 87.3413 286.271 87.4133C286.612 87.4821 286.929 87.6099 287.224 87.7966C287.522 87.9834 287.766 88.2504 287.957 88.5976C288.147 88.9416 288.242 89.3888 288.242 89.9391V94.9514H286.807V93.9195H286.748C286.653 94.1095 286.51 94.2962 286.32 94.4797C286.13 94.6631 285.886 94.8155 285.588 94.9367C285.29 95.0579 284.933 95.1185 284.517 95.1185ZM284.836 93.9391C285.242 93.9391 285.59 93.8589 285.878 93.6983C286.169 93.5378 286.391 93.3282 286.541 93.0694C286.695 92.8073 286.772 92.5272 286.772 92.2291V91.2561C286.72 91.3085 286.618 91.3576 286.468 91.4035C286.32 91.4461 286.151 91.4838 285.961 91.5165C285.771 91.546 285.586 91.5739 285.406 91.6001C285.226 91.623 285.075 91.6427 284.954 91.659C284.669 91.6951 284.409 91.7557 284.173 91.8409C283.94 91.926 283.753 92.0489 283.613 92.2094C283.475 92.3666 283.406 92.5763 283.406 92.8384C283.406 93.202 283.54 93.4772 283.809 93.6639C284.078 93.8474 284.42 93.9391 284.836 93.9391ZM293.363 97.9391C292.764 97.9391 292.248 97.8605 291.815 97.7033C291.386 97.546 291.036 97.338 290.764 97.0792C290.492 96.8204 290.289 96.537 290.154 96.2291L291.417 95.7082C291.506 95.8523 291.624 96.0047 291.771 96.1652C291.922 96.329 292.125 96.4682 292.38 96.5829C292.639 96.6975 292.972 96.7549 293.378 96.7549C293.935 96.7549 294.395 96.6189 294.759 96.347C295.122 96.0784 295.304 95.6492 295.304 95.0595V93.5755H295.211C295.122 93.736 294.995 93.9146 294.828 94.1111C294.664 94.3077 294.438 94.478 294.149 94.6222C293.861 94.7663 293.486 94.8384 293.024 94.8384C292.428 94.8384 291.891 94.6992 291.412 94.4207C290.937 94.139 290.561 93.7246 290.282 93.1775C290.007 92.6271 289.869 91.9506 289.869 91.148C289.869 90.3454 290.005 89.6574 290.277 89.0841C290.552 88.5108 290.929 88.0718 291.407 87.7671C291.886 87.4592 292.428 87.3052 293.034 87.3052C293.502 87.3052 293.881 87.3838 294.169 87.5411C294.457 87.6951 294.682 87.8752 294.842 88.0816C295.006 88.288 295.132 88.4698 295.221 88.6271H295.329V87.4035H296.769V95.1185C296.769 95.7671 296.618 96.2995 296.316 96.7155C296.015 97.1316 295.607 97.4395 295.093 97.6394C294.582 97.8392 294.005 97.9391 293.363 97.9391ZM293.348 93.6197C293.771 93.6197 294.128 93.5214 294.42 93.3249C294.715 93.125 294.937 92.84 295.088 92.4698C295.242 92.0964 295.319 91.6492 295.319 91.1283C295.319 90.6205 295.244 90.1734 295.093 89.7868C294.942 89.4002 294.721 89.0988 294.429 88.8826C294.138 88.6631 293.778 88.5534 293.348 88.5534C292.906 88.5534 292.538 88.668 292.243 88.8974C291.948 89.1234 291.725 89.4314 291.574 89.8212C291.427 90.211 291.353 90.6467 291.353 91.1283C291.353 91.623 291.429 92.0571 291.579 92.4305C291.73 92.804 291.953 93.0956 292.248 93.3052C292.546 93.5149 292.913 93.6197 293.348 93.6197ZM301.992 95.1038C301.248 95.1038 300.608 94.9449 300.071 94.6271C299.537 94.306 299.124 93.8556 298.832 93.2757C298.544 92.6926 298.4 92.0096 298.4 91.2266C298.4 90.4535 298.544 89.7721 298.832 89.1824C299.124 88.5927 299.53 88.1324 300.051 87.8015C300.575 87.4707 301.188 87.3052 301.889 87.3052C302.315 87.3052 302.728 87.3757 303.127 87.5165C303.527 87.6574 303.886 87.8785 304.203 88.1799C304.521 88.4813 304.772 88.8728 304.955 89.3544C305.139 89.8327 305.23 90.4142 305.23 91.0988V91.6197H299.23V90.519H303.791C303.791 90.1324 303.712 89.7901 303.555 89.492C303.398 89.1906 303.176 88.9531 302.891 88.7794C302.61 88.6058 302.279 88.519 301.899 88.519C301.486 88.519 301.126 88.6205 300.818 88.8237C300.513 89.0235 300.277 89.2856 300.11 89.6099C299.946 89.9309 299.864 90.2798 299.864 90.6566V91.5165C299.864 92.021 299.953 92.4502 300.13 92.804C300.31 93.1578 300.561 93.4281 300.882 93.6148C301.203 93.7983 301.578 93.89 302.007 93.89C302.285 93.89 302.539 93.8507 302.769 93.7721C302.998 93.6902 303.196 93.5689 303.363 93.4084C303.53 93.2479 303.658 93.0497 303.746 92.8138L305.137 93.0644C305.026 93.4739 304.826 93.8327 304.538 94.1406C304.253 94.4453 303.894 94.6828 303.461 94.8531C303.032 95.0202 302.543 95.1038 301.992 95.1038ZM312.517 89.2463L311.185 89.4821C311.129 89.3118 311.041 89.1496 310.92 88.9956C310.802 88.8417 310.641 88.7155 310.438 88.6173C310.235 88.519 309.981 88.4698 309.676 88.4698C309.26 88.4698 308.913 88.5632 308.635 88.7499C308.356 88.9334 308.217 89.1709 308.217 89.4625C308.217 89.7147 308.31 89.9178 308.497 90.0718C308.684 90.2258 308.985 90.3519 309.401 90.4502L310.6 90.7254C311.295 90.8859 311.812 91.1332 312.153 91.4674C312.494 91.8015 312.664 92.2356 312.664 92.7696C312.664 93.2217 312.533 93.6246 312.271 93.9784C312.012 94.329 311.65 94.6042 311.185 94.804C310.723 95.0038 310.187 95.1038 309.578 95.1038C308.733 95.1038 308.043 94.9236 307.509 94.5632C306.975 94.1996 306.648 93.6836 306.527 93.0153L307.947 92.7991C308.035 93.1693 308.217 93.4494 308.492 93.6394C308.767 93.8261 309.126 93.9195 309.568 93.9195C310.05 93.9195 310.435 93.8196 310.723 93.6197C311.011 93.4166 311.156 93.1693 311.156 92.8777C311.156 92.6418 311.067 92.4436 310.89 92.2831C310.717 92.1226 310.45 92.0014 310.089 91.9195L308.812 91.6394C308.107 91.4789 307.586 91.2233 307.249 90.8728C306.915 90.5223 306.748 90.0784 306.748 89.5411C306.748 89.0956 306.872 88.7057 307.121 88.3716C307.37 88.0374 307.714 87.777 308.153 87.5902C308.592 87.4002 309.095 87.3052 309.662 87.3052C310.477 87.3052 311.119 87.4821 311.588 87.8359C312.056 88.1865 312.366 88.6566 312.517 89.2463ZM132.385 108.821V104.404H133.859V111.951H132.415V110.644H132.336C132.162 111.047 131.884 111.383 131.501 111.652C131.121 111.917 130.647 112.05 130.081 112.05C129.596 112.05 129.167 111.943 128.793 111.73C128.423 111.514 128.131 111.195 127.918 110.772C127.709 110.349 127.604 109.827 127.604 109.204V104.404H129.073V109.028C129.073 109.542 129.216 109.951 129.501 110.256C129.786 110.561 130.156 110.713 130.611 110.713C130.886 110.713 131.16 110.644 131.432 110.507C131.707 110.369 131.935 110.161 132.115 109.883C132.298 109.604 132.389 109.25 132.385 108.821ZM141.49 106.246L140.158 106.482C140.102 106.312 140.014 106.15 139.893 105.996C139.775 105.842 139.614 105.716 139.411 105.617C139.208 105.519 138.954 105.47 138.649 105.47C138.233 105.47 137.886 105.563 137.608 105.75C137.329 105.933 137.19 106.171 137.19 106.462C137.19 106.715 137.283 106.918 137.47 107.072C137.657 107.226 137.958 107.352 138.374 107.45L139.573 107.725C140.268 107.886 140.785 108.133 141.126 108.467C141.467 108.802 141.637 109.236 141.637 109.77C141.637 110.222 141.506 110.625 141.244 110.978C140.985 111.329 140.623 111.604 140.158 111.804C139.696 112.004 139.16 112.104 138.551 112.104C137.706 112.104 137.016 111.924 136.482 111.563C135.948 111.2 135.621 110.684 135.5 110.015L136.92 109.799C137.008 110.169 137.19 110.449 137.465 110.639C137.74 110.826 138.099 110.919 138.541 110.919C139.023 110.919 139.408 110.82 139.696 110.62C139.984 110.417 140.128 110.169 140.128 109.878C140.128 109.642 140.04 109.444 139.863 109.283C139.69 109.123 139.423 109.001 139.062 108.919L137.785 108.639C137.08 108.479 136.559 108.223 136.222 107.873C135.888 107.522 135.721 107.078 135.721 106.541C135.721 106.096 135.845 105.706 136.094 105.372C136.343 105.037 136.687 104.777 137.126 104.59C137.565 104.4 138.068 104.305 138.635 104.305C139.45 104.305 140.092 104.482 140.561 104.836C141.029 105.186 141.339 105.657 141.49 106.246ZM143.253 111.951V104.404H144.722V111.951H143.253ZM143.995 103.239C143.739 103.239 143.52 103.154 143.336 102.983C143.156 102.81 143.066 102.603 143.066 102.364C143.066 102.122 143.156 101.915 143.336 101.745C143.52 101.571 143.739 101.485 143.995 101.485C144.25 101.485 144.468 101.571 144.648 101.745C144.832 101.915 144.923 102.122 144.923 102.364C144.923 102.603 144.832 102.81 144.648 102.983C144.468 103.154 144.25 103.239 143.995 103.239ZM148.168 107.47V111.951H146.699V104.404H148.109V105.632H148.202C148.376 105.232 148.648 104.911 149.018 104.669C149.391 104.426 149.862 104.305 150.428 104.305C150.943 104.305 151.393 104.413 151.78 104.63C152.166 104.842 152.466 105.16 152.679 105.583C152.892 106.005 152.998 106.528 152.998 107.15V111.951H151.529V107.327C151.529 106.78 151.386 106.353 151.101 106.045C150.816 105.734 150.425 105.578 149.927 105.578C149.586 105.578 149.283 105.652 149.018 105.799C148.756 105.947 148.548 106.163 148.394 106.448C148.243 106.729 148.168 107.07 148.168 107.47ZM158.133 114.939C157.534 114.939 157.018 114.861 156.585 114.703C156.156 114.546 155.806 114.338 155.534 114.079C155.262 113.82 155.059 113.537 154.925 113.229L156.187 112.708C156.276 112.852 156.394 113.005 156.541 113.165C156.692 113.329 156.895 113.468 157.151 113.583C157.409 113.698 157.742 113.755 158.148 113.755C158.705 113.755 159.165 113.619 159.529 113.347C159.893 113.078 160.074 112.649 160.074 112.06V110.575H159.981C159.893 110.736 159.765 110.915 159.598 111.111C159.434 111.308 159.208 111.478 158.92 111.622C158.631 111.766 158.256 111.838 157.794 111.838C157.198 111.838 156.661 111.699 156.183 111.421C155.708 111.139 155.331 110.725 155.052 110.177C154.777 109.627 154.64 108.951 154.64 108.148C154.64 107.345 154.776 106.657 155.047 106.084C155.323 105.511 155.699 105.072 156.178 104.767C156.656 104.459 157.198 104.305 157.804 104.305C158.273 104.305 158.651 104.384 158.939 104.541C159.228 104.695 159.452 104.875 159.613 105.082C159.776 105.288 159.902 105.47 159.991 105.627H160.099V104.404H161.539V112.118C161.539 112.767 161.388 113.299 161.087 113.716C160.785 114.132 160.377 114.44 159.863 114.639C159.352 114.839 158.776 114.939 158.133 114.939ZM158.119 110.62C158.541 110.62 158.898 110.521 159.19 110.325C159.485 110.125 159.708 109.84 159.858 109.47C160.012 109.096 160.089 108.649 160.089 108.128C160.089 107.621 160.014 107.173 159.863 106.787C159.712 106.4 159.491 106.099 159.2 105.883C158.908 105.663 158.548 105.553 158.119 105.553C157.676 105.553 157.308 105.668 157.013 105.897C156.718 106.123 156.495 106.431 156.345 106.821C156.197 107.211 156.124 107.647 156.124 108.128C156.124 108.623 156.199 109.057 156.35 109.431C156.5 109.804 156.723 110.096 157.018 110.305C157.316 110.515 157.683 110.62 158.119 110.62ZM167.171 111.951V104.404H168.592V105.603H168.67C168.808 105.196 169.05 104.877 169.398 104.644C169.748 104.408 170.144 104.29 170.587 104.29C170.678 104.29 170.787 104.294 170.911 104.3C171.039 104.307 171.139 104.315 171.211 104.325V105.73C171.152 105.714 171.047 105.696 170.896 105.676C170.746 105.653 170.595 105.642 170.444 105.642C170.097 105.642 169.787 105.716 169.515 105.863C169.247 106.007 169.034 106.209 168.877 106.467C168.719 106.723 168.641 107.014 168.641 107.342V111.951H167.171ZM175.465 112.104C174.721 112.104 174.081 111.945 173.544 111.627C173.01 111.306 172.597 110.856 172.305 110.276C172.017 109.693 171.873 109.01 171.873 108.227C171.873 107.453 172.017 106.772 172.305 106.182C172.597 105.593 173.003 105.132 173.524 104.802C174.048 104.471 174.661 104.305 175.362 104.305C175.788 104.305 176.201 104.376 176.6 104.517C177 104.657 177.359 104.879 177.676 105.18C177.994 105.481 178.245 105.873 178.428 106.354C178.612 106.833 178.703 107.414 178.703 108.099V108.62H172.703V107.519H177.264C177.264 107.132 177.185 106.79 177.028 106.492C176.871 106.191 176.649 105.953 176.364 105.779C176.083 105.606 175.752 105.519 175.372 105.519C174.959 105.519 174.599 105.621 174.291 105.824C173.986 106.023 173.75 106.286 173.583 106.61C173.419 106.931 173.337 107.28 173.337 107.657V108.517C173.337 109.021 173.426 109.45 173.603 109.804C173.783 110.158 174.033 110.428 174.355 110.615C174.676 110.798 175.051 110.89 175.48 110.89C175.758 110.89 176.012 110.851 176.242 110.772C176.471 110.69 176.669 110.569 176.836 110.408C177.003 110.248 177.131 110.05 177.219 109.814L178.61 110.064C178.499 110.474 178.299 110.833 178.011 111.141C177.726 111.445 177.367 111.683 176.934 111.853C176.505 112.02 176.015 112.104 175.465 112.104ZM182.53 112.118C182.052 112.118 181.619 112.03 181.233 111.853C180.846 111.673 180.54 111.413 180.314 111.072C180.091 110.731 179.98 110.313 179.98 109.819C179.98 109.393 180.062 109.042 180.226 108.767C180.389 108.492 180.61 108.274 180.889 108.114C181.167 107.953 181.479 107.832 181.823 107.75C182.167 107.668 182.517 107.606 182.874 107.563C183.326 107.511 183.693 107.468 183.975 107.435C184.257 107.399 184.461 107.342 184.589 107.263C184.717 107.185 184.781 107.057 184.781 106.88V106.846C184.781 106.417 184.66 106.084 184.417 105.848C184.178 105.612 183.821 105.494 183.346 105.494C182.851 105.494 182.461 105.604 182.176 105.824C181.895 106.04 181.7 106.281 181.592 106.546L180.211 106.232C180.375 105.773 180.614 105.403 180.928 105.121C181.246 104.836 181.611 104.63 182.024 104.502C182.437 104.371 182.871 104.305 183.326 104.305C183.628 104.305 183.947 104.341 184.285 104.413C184.625 104.482 184.943 104.61 185.238 104.797C185.536 104.983 185.78 105.25 185.97 105.598C186.16 105.942 186.255 106.389 186.255 106.939V111.951H184.82V110.919H184.761C184.666 111.109 184.524 111.296 184.334 111.48C184.144 111.663 183.9 111.815 183.601 111.937C183.303 112.058 182.946 112.118 182.53 112.118ZM182.85 110.939C183.256 110.939 183.603 110.859 183.891 110.698C184.183 110.538 184.404 110.328 184.555 110.069C184.709 109.807 184.786 109.527 184.786 109.229V108.256C184.733 108.309 184.632 108.358 184.481 108.404C184.334 108.446 184.165 108.484 183.975 108.517C183.785 108.546 183.6 108.574 183.42 108.6C183.239 108.623 183.089 108.643 182.968 108.659C182.683 108.695 182.422 108.756 182.186 108.841C181.954 108.926 181.767 109.049 181.626 109.209C181.488 109.367 181.42 109.576 181.42 109.838C181.42 110.202 181.554 110.477 181.823 110.664C182.091 110.847 182.434 110.939 182.85 110.939ZM191.038 112.099C190.428 112.099 189.884 111.943 189.406 111.632C188.931 111.318 188.558 110.87 188.286 110.29C188.017 109.707 187.883 109.008 187.883 108.192C187.883 107.376 188.019 106.679 188.291 106.099C188.566 105.519 188.943 105.075 189.421 104.767C189.899 104.459 190.441 104.305 191.047 104.305C191.516 104.305 191.893 104.384 192.178 104.541C192.466 104.695 192.689 104.875 192.846 105.082C193.006 105.288 193.131 105.47 193.219 105.627H193.308V101.888H194.777V111.951H193.342V110.777H193.219C193.131 110.937 193.003 111.121 192.836 111.327C192.672 111.534 192.446 111.714 192.158 111.868C191.87 112.022 191.496 112.099 191.038 112.099ZM191.362 110.846C191.785 110.846 192.142 110.734 192.433 110.512C192.728 110.286 192.951 109.973 193.101 109.573C193.255 109.173 193.332 108.708 193.332 108.177C193.332 107.653 193.257 107.195 193.106 106.802C192.956 106.408 192.735 106.102 192.443 105.883C192.151 105.663 191.791 105.553 191.362 105.553C190.92 105.553 190.551 105.668 190.256 105.897C189.961 106.127 189.739 106.44 189.588 106.836C189.441 107.232 189.367 107.68 189.367 108.177C189.367 108.682 189.442 109.136 189.593 109.539C189.744 109.942 189.966 110.261 190.261 110.497C190.559 110.729 190.926 110.846 191.362 110.846ZM197.803 114.782C197.583 114.782 197.384 114.764 197.203 114.728C197.023 114.695 196.889 114.659 196.8 114.62L197.154 113.416C197.423 113.488 197.662 113.519 197.872 113.509C198.081 113.499 198.266 113.421 198.427 113.273C198.591 113.126 198.735 112.885 198.859 112.551L199.041 112.05L196.28 104.404H197.852L199.764 110.261H199.842L201.754 104.404H203.331L200.221 112.959C200.076 113.352 199.893 113.684 199.67 113.956C199.447 114.232 199.182 114.438 198.874 114.575C198.566 114.713 198.209 114.782 197.803 114.782ZM209.159 107.062V108.335H204.697V107.062H209.159ZM214.641 104.404V105.583H210.518V104.404H214.641ZM211.624 102.595H213.093V109.735C213.093 110.02 213.135 110.235 213.221 110.379C213.306 110.52 213.416 110.616 213.55 110.669C213.687 110.718 213.837 110.743 213.997 110.743C214.115 110.743 214.218 110.734 214.307 110.718C214.395 110.702 214.464 110.689 214.513 110.679L214.778 111.892C214.693 111.925 214.572 111.958 214.415 111.991C214.257 112.027 214.061 112.046 213.825 112.05C213.438 112.056 213.078 111.987 212.744 111.843C212.41 111.699 212.14 111.476 211.933 111.175C211.727 110.874 211.624 110.495 211.624 110.04V102.595ZM219.364 112.104C218.657 112.104 218.039 111.942 217.512 111.617C216.984 111.293 216.575 110.839 216.283 110.256C215.992 109.673 215.846 108.992 215.846 108.212C215.846 107.429 215.992 106.744 216.283 106.158C216.575 105.571 216.984 105.116 217.512 104.792C218.039 104.467 218.657 104.305 219.364 104.305C220.072 104.305 220.69 104.467 221.217 104.792C221.744 105.116 222.154 105.571 222.445 106.158C222.737 106.744 222.883 107.429 222.883 108.212C222.883 108.992 222.737 109.673 222.445 110.256C222.154 110.839 221.744 111.293 221.217 111.617C220.69 111.942 220.072 112.104 219.364 112.104ZM219.369 110.87C219.828 110.87 220.208 110.749 220.509 110.507C220.811 110.264 221.033 109.942 221.178 109.539C221.325 109.136 221.399 108.692 221.399 108.207C221.399 107.725 221.325 107.283 221.178 106.88C221.033 106.474 220.811 106.148 220.509 105.902C220.208 105.657 219.828 105.534 219.369 105.534C218.907 105.534 218.524 105.657 218.219 105.902C217.918 106.148 217.694 106.474 217.546 106.88C217.402 107.283 217.33 107.725 217.33 108.207C217.33 108.692 217.402 109.136 217.546 109.539C217.694 109.942 217.918 110.264 218.219 110.507C218.524 110.749 218.907 110.87 219.369 110.87ZM228.97 107.062V108.335H224.508V107.062H228.97ZM235.71 108.821V104.404H237.184V111.951H235.739V110.644H235.66C235.487 111.047 235.208 111.383 234.825 111.652C234.445 111.917 233.972 112.05 233.405 112.05C232.92 112.05 232.491 111.943 232.117 111.73C231.747 111.514 231.456 111.195 231.243 110.772C231.033 110.349 230.928 109.827 230.928 109.204V104.404H232.398V109.028C232.398 109.542 232.54 109.951 232.825 110.256C233.11 110.561 233.48 110.713 233.936 110.713C234.211 110.713 234.484 110.644 234.756 110.507C235.031 110.369 235.259 110.161 235.439 109.883C235.623 109.604 235.713 109.25 235.71 108.821ZM244.814 106.246L243.482 106.482C243.427 106.312 243.338 106.15 243.217 105.996C243.099 105.842 242.938 105.716 242.735 105.617C242.532 105.519 242.278 105.47 241.974 105.47C241.558 105.47 241.21 105.563 240.932 105.75C240.653 105.933 240.514 106.171 240.514 106.462C240.514 106.715 240.608 106.918 240.794 107.072C240.981 107.226 241.282 107.352 241.699 107.45L242.898 107.725C243.592 107.886 244.11 108.133 244.45 108.467C244.791 108.802 244.961 109.236 244.961 109.77C244.961 110.222 244.83 110.625 244.568 110.978C244.309 111.329 243.947 111.604 243.482 111.804C243.02 112.004 242.485 112.104 241.875 112.104C241.03 112.104 240.341 111.924 239.807 111.563C239.273 111.2 238.945 110.684 238.824 110.015L240.244 109.799C240.332 110.169 240.514 110.449 240.789 110.639C241.065 110.826 241.423 110.919 241.866 110.919C242.347 110.919 242.732 110.82 243.02 110.62C243.309 110.417 243.453 110.169 243.453 109.878C243.453 109.642 243.364 109.444 243.187 109.283C243.014 109.123 242.747 109.001 242.386 108.919L241.109 108.639C240.404 108.479 239.884 108.223 239.546 107.873C239.212 107.522 239.045 107.078 239.045 106.541C239.045 106.096 239.169 105.706 239.418 105.372C239.667 105.037 240.011 104.777 240.45 104.59C240.889 104.4 241.392 104.305 241.959 104.305C242.775 104.305 243.417 104.482 243.885 104.836C244.354 105.186 244.663 105.657 244.814 106.246ZM249.83 112.104C249.086 112.104 248.446 111.945 247.909 111.627C247.375 111.306 246.962 110.856 246.67 110.276C246.382 109.693 246.238 109.01 246.238 108.227C246.238 107.453 246.382 106.772 246.67 106.182C246.962 105.593 247.368 105.132 247.889 104.802C248.413 104.471 249.026 104.305 249.727 104.305C250.153 104.305 250.565 104.376 250.965 104.517C251.365 104.657 251.724 104.879 252.041 105.18C252.359 105.481 252.61 105.873 252.793 106.354C252.977 106.833 253.068 107.414 253.068 108.099V108.62H247.068V107.519H251.629C251.629 107.132 251.55 106.79 251.393 106.492C251.235 106.191 251.014 105.953 250.729 105.779C250.448 105.606 250.117 105.519 249.737 105.519C249.324 105.519 248.963 105.621 248.656 105.824C248.351 106.023 248.115 106.286 247.948 106.61C247.784 106.931 247.702 107.28 247.702 107.657V108.517C247.702 109.021 247.791 109.45 247.968 109.804C248.148 110.158 248.398 110.428 248.719 110.615C249.04 110.798 249.416 110.89 249.845 110.89C250.123 110.89 250.377 110.851 250.606 110.772C250.836 110.69 251.034 110.569 251.201 110.408C251.368 110.248 251.496 110.05 251.584 109.814L252.975 110.064C252.864 110.474 252.664 110.833 252.375 111.141C252.09 111.445 251.732 111.683 251.299 111.853C250.87 112.02 250.38 112.104 249.83 112.104ZM264.017 106.246L262.685 106.482C262.629 106.312 262.541 106.15 262.42 105.996C262.302 105.842 262.141 105.716 261.938 105.617C261.735 105.519 261.481 105.47 261.176 105.47C260.76 105.47 260.413 105.563 260.135 105.75C259.856 105.933 259.717 106.171 259.717 106.462C259.717 106.715 259.81 106.918 259.997 107.072C260.184 107.226 260.485 107.352 260.901 107.45L262.1 107.725C262.795 107.886 263.312 108.133 263.653 108.467C263.994 108.802 264.164 109.236 264.164 109.77C264.164 110.222 264.033 110.625 263.771 110.978C263.512 111.329 263.15 111.604 262.685 111.804C262.223 112.004 261.687 112.104 261.078 112.104C260.233 112.104 259.543 111.924 259.009 111.563C258.475 111.2 258.148 110.684 258.027 110.015L259.447 109.799C259.535 110.169 259.717 110.449 259.992 110.639C260.267 110.826 260.626 110.919 261.068 110.919C261.55 110.919 261.935 110.82 262.223 110.62C262.511 110.417 262.656 110.169 262.656 109.878C262.656 109.642 262.567 109.444 262.39 109.283C262.217 109.123 261.95 109.001 261.589 108.919L260.312 108.639C259.607 108.479 259.086 108.223 258.749 107.873C258.415 107.522 258.248 107.078 258.248 106.541C258.248 106.096 258.372 105.706 258.621 105.372C258.87 105.037 259.214 104.777 259.653 104.59C260.092 104.4 260.595 104.305 261.162 104.305C261.977 104.305 262.619 104.482 263.088 104.836C263.556 105.186 263.866 105.657 264.017 106.246ZM268.959 112.104C268.228 112.104 267.599 111.938 267.072 111.607C266.548 111.273 266.145 110.813 265.863 110.227C265.581 109.64 265.441 108.969 265.441 108.212C265.441 107.445 265.585 106.769 265.873 106.182C266.161 105.593 266.567 105.132 267.092 104.802C267.616 104.471 268.233 104.305 268.944 104.305C269.518 104.305 270.029 104.412 270.477 104.625C270.926 104.834 271.288 105.129 271.563 105.509C271.842 105.889 272.007 106.333 272.06 106.841H270.63C270.551 106.487 270.371 106.182 270.089 105.927C269.811 105.671 269.437 105.544 268.969 105.544C268.559 105.544 268.201 105.652 267.893 105.868C267.588 106.081 267.35 106.385 267.18 106.782C267.01 107.175 266.925 107.64 266.925 108.177C266.925 108.728 267.008 109.203 267.175 109.603C267.342 110.002 267.578 110.312 267.883 110.531C268.191 110.751 268.553 110.861 268.969 110.861C269.247 110.861 269.5 110.81 269.726 110.708C269.955 110.603 270.147 110.454 270.3 110.261C270.458 110.068 270.567 109.835 270.63 109.563H272.06C272.007 110.051 271.848 110.487 271.583 110.87C271.318 111.254 270.962 111.555 270.517 111.775C270.074 111.994 269.555 112.104 268.959 112.104ZM273.631 111.951V104.404H275.051V105.603H275.13C275.267 105.196 275.51 104.877 275.857 104.644C276.208 104.408 276.604 104.29 277.046 104.29C277.138 104.29 277.246 104.294 277.371 104.3C277.498 104.307 277.598 104.315 277.67 104.325V105.73C277.611 105.714 277.506 105.696 277.356 105.676C277.205 105.653 277.054 105.642 276.904 105.642C276.556 105.642 276.247 105.716 275.975 105.863C275.706 106.007 275.493 106.209 275.336 106.467C275.179 106.723 275.1 107.014 275.1 107.342V111.951H273.631ZM278.942 111.951V104.404H280.411V111.951H278.942ZM279.684 103.239C279.428 103.239 279.209 103.154 279.025 102.983C278.845 102.81 278.755 102.603 278.755 102.364C278.755 102.122 278.845 101.915 279.025 101.745C279.209 101.571 279.428 101.485 279.684 101.485C279.939 101.485 280.157 101.571 280.337 101.745C280.521 101.915 280.613 102.122 280.613 102.364C280.613 102.603 280.521 102.81 280.337 102.983C280.157 103.154 279.939 103.239 279.684 103.239ZM282.388 114.782V104.404H283.823V105.627H283.945C284.031 105.47 284.153 105.288 284.314 105.082C284.475 104.875 284.697 104.695 284.982 104.541C285.267 104.384 285.644 104.305 286.113 104.305C286.722 104.305 287.266 104.459 287.744 104.767C288.222 105.075 288.597 105.519 288.869 106.099C289.144 106.679 289.282 107.376 289.282 108.192C289.282 109.008 289.146 109.707 288.874 110.29C288.602 110.87 288.229 111.318 287.754 111.632C287.279 111.943 286.737 112.099 286.127 112.099C285.669 112.099 285.294 112.022 285.002 111.868C284.714 111.714 284.488 111.534 284.324 111.327C284.16 111.121 284.034 110.937 283.945 110.777H283.857V114.782H282.388ZM283.828 108.177C283.828 108.708 283.904 109.173 284.058 109.573C284.212 109.973 284.435 110.286 284.727 110.512C285.018 110.734 285.375 110.846 285.798 110.846C286.237 110.846 286.604 110.729 286.899 110.497C287.194 110.261 287.416 109.942 287.567 109.539C287.721 109.136 287.798 108.682 287.798 108.177C287.798 107.68 287.723 107.232 287.572 106.836C287.425 106.44 287.202 106.127 286.904 105.897C286.609 105.668 286.24 105.553 285.798 105.553C285.372 105.553 285.012 105.663 284.717 105.883C284.425 106.102 284.204 106.408 284.054 106.802C283.903 107.195 283.828 107.653 283.828 108.177ZM294.452 104.404V105.583H290.329V104.404H294.452ZM291.434 102.595H292.904V109.735C292.904 110.02 292.946 110.235 293.031 110.379C293.117 110.52 293.226 110.616 293.361 110.669C293.498 110.718 293.647 110.743 293.808 110.743C293.926 110.743 294.029 110.734 294.117 110.718C294.206 110.702 294.275 110.689 294.324 110.679L294.589 111.892C294.504 111.925 294.383 111.958 294.226 111.991C294.068 112.027 293.872 112.046 293.636 112.05C293.249 112.056 292.889 111.987 292.555 111.843C292.221 111.699 291.95 111.476 291.744 111.175C291.538 110.874 291.434 110.495 291.434 110.04V102.595ZM301.611 106.246L300.28 106.482C300.224 106.312 300.135 106.15 300.014 105.996C299.896 105.842 299.736 105.716 299.533 105.617C299.33 105.519 299.076 105.47 298.771 105.47C298.355 105.47 298.008 105.563 297.729 105.75C297.451 105.933 297.312 106.171 297.312 106.462C297.312 106.715 297.405 106.918 297.592 107.072C297.778 107.226 298.08 107.352 298.496 107.45L299.695 107.725C300.389 107.886 300.907 108.133 301.248 108.467C301.588 108.802 301.759 109.236 301.759 109.77C301.759 110.222 301.628 110.625 301.366 110.978C301.107 111.329 300.745 111.604 300.28 111.804C299.818 112.004 299.282 112.104 298.673 112.104C297.828 112.104 297.138 111.924 296.604 111.563C296.07 111.2 295.742 110.684 295.621 110.015L297.041 109.799C297.13 110.169 297.312 110.449 297.587 110.639C297.862 110.826 298.221 110.919 298.663 110.919C299.144 110.919 299.529 110.82 299.818 110.62C300.106 110.417 300.25 110.169 300.25 109.878C300.25 109.642 300.162 109.444 299.985 109.283C299.811 109.123 299.544 109.001 299.184 108.919L297.906 108.639C297.202 108.479 296.681 108.223 296.343 107.873C296.009 107.522 295.842 107.078 295.842 106.541C295.842 106.096 295.967 105.706 296.216 105.372C296.465 105.037 296.809 104.777 297.248 104.59C297.687 104.4 298.19 104.305 298.756 104.305C299.572 104.305 300.214 104.482 300.683 104.836C301.151 105.186 301.461 105.657 301.611 106.246ZM309.233 112.118C308.755 112.118 308.322 112.03 307.936 111.853C307.549 111.673 307.243 111.413 307.017 111.072C306.794 110.731 306.683 110.313 306.683 109.819C306.683 109.393 306.764 109.042 306.928 108.767C307.092 108.492 307.313 108.274 307.592 108.114C307.87 107.953 308.181 107.832 308.525 107.75C308.869 107.668 309.22 107.606 309.577 107.563C310.029 107.511 310.396 107.468 310.678 107.435C310.959 107.399 311.164 107.342 311.292 107.263C311.42 107.185 311.484 107.057 311.484 106.88V106.846C311.484 106.417 311.362 106.084 311.12 105.848C310.881 105.612 310.524 105.494 310.049 105.494C309.554 105.494 309.164 105.604 308.879 105.824C308.597 106.04 308.402 106.281 308.294 106.546L306.914 106.232C307.077 105.773 307.316 105.403 307.631 105.121C307.949 104.836 308.314 104.63 308.727 104.502C309.14 104.371 309.574 104.305 310.029 104.305C310.33 104.305 310.65 104.341 310.987 104.413C311.328 104.482 311.646 104.61 311.941 104.797C312.239 104.983 312.483 105.25 312.673 105.598C312.863 105.942 312.958 106.389 312.958 106.939V111.951H311.523V110.919H311.464C311.369 111.109 311.226 111.296 311.036 111.48C310.846 111.663 310.602 111.815 310.304 111.937C310.006 112.058 309.649 112.118 309.233 112.118ZM309.552 110.939C309.959 110.939 310.306 110.859 310.594 110.698C310.886 110.538 311.107 110.328 311.257 110.069C311.411 109.807 311.488 109.527 311.488 109.229V108.256C311.436 108.309 311.334 108.358 311.184 108.404C311.036 108.446 310.868 108.484 310.678 108.517C310.488 108.546 310.303 108.574 310.122 108.6C309.942 108.623 309.791 108.643 309.67 108.659C309.385 108.695 309.125 108.756 308.889 108.841C308.656 108.926 308.47 109.049 308.329 109.209C308.191 109.367 308.122 109.576 308.122 109.838C308.122 110.202 308.257 110.477 308.525 110.664C308.794 110.847 309.136 110.939 309.552 110.939ZM316.384 107.47V111.951H314.915V104.404H316.325V105.632H316.418C316.592 105.232 316.864 104.911 317.234 104.669C317.608 104.426 318.078 104.305 318.644 104.305C319.159 104.305 319.609 104.413 319.996 104.63C320.382 104.842 320.682 105.16 320.895 105.583C321.108 106.005 321.215 106.528 321.215 107.15V111.951H319.745V107.327C319.745 106.78 319.603 106.353 319.318 106.045C319.033 105.734 318.641 105.578 318.143 105.578C317.803 105.578 317.5 105.652 317.234 105.799C316.972 105.947 316.764 106.163 316.61 106.448C316.459 106.729 316.384 107.07 316.384 107.47ZM326.011 112.099C325.401 112.099 324.857 111.943 324.379 111.632C323.904 111.318 323.531 110.87 323.259 110.29C322.99 109.707 322.856 109.008 322.856 108.192C322.856 107.376 322.992 106.679 323.264 106.099C323.539 105.519 323.916 105.075 324.394 104.767C324.872 104.459 325.414 104.305 326.02 104.305C326.489 104.305 326.866 104.384 327.151 104.541C327.439 104.695 327.662 104.875 327.819 105.082C327.979 105.288 328.104 105.47 328.192 105.627H328.281V101.888H329.75V111.951H328.315V110.777H328.192C328.104 110.937 327.976 111.121 327.809 111.327C327.645 111.534 327.419 111.714 327.131 111.868C326.843 112.022 326.469 112.099 326.011 112.099ZM326.335 110.846C326.757 110.846 327.115 110.734 327.406 110.512C327.701 110.286 327.924 109.973 328.074 109.573C328.228 109.173 328.305 108.708 328.305 108.177C328.305 107.653 328.23 107.195 328.079 106.802C327.929 106.408 327.708 106.102 327.416 105.883C327.124 105.663 326.764 105.553 326.335 105.553C325.893 105.553 325.524 105.668 325.229 105.897C324.934 106.127 324.712 106.44 324.561 106.836C324.414 107.232 324.34 107.68 324.34 108.177C324.34 108.682 324.415 109.136 324.566 109.539C324.717 109.942 324.939 110.261 325.234 110.497C325.532 110.729 325.899 110.846 326.335 110.846ZM131.127 121.404V122.583H127.004V121.404H131.127ZM128.11 119.595H129.579V126.735C129.579 127.02 129.622 127.235 129.707 127.379C129.792 127.52 129.902 127.616 130.036 127.669C130.174 127.718 130.323 127.743 130.484 127.743C130.601 127.743 130.705 127.734 130.793 127.718C130.882 127.702 130.95 127.689 131 127.679L131.265 128.892C131.18 128.925 131.058 128.958 130.901 128.991C130.744 129.027 130.547 129.046 130.312 129.05C129.925 129.056 129.565 128.987 129.23 128.843C128.896 128.699 128.626 128.476 128.42 128.175C128.213 127.874 128.11 127.495 128.11 127.04V119.595ZM135.851 129.104C135.143 129.104 134.526 128.942 133.998 128.617C133.471 128.293 133.061 127.839 132.77 127.256C132.478 126.673 132.332 125.992 132.332 125.212C132.332 124.429 132.478 123.744 132.77 123.158C133.061 122.571 133.471 122.116 133.998 121.792C134.526 121.467 135.143 121.305 135.851 121.305C136.558 121.305 137.176 121.467 137.703 121.792C138.231 122.116 138.64 122.571 138.932 123.158C139.224 123.744 139.369 124.429 139.369 125.212C139.369 125.992 139.224 126.673 138.932 127.256C138.64 127.839 138.231 128.293 137.703 128.617C137.176 128.942 136.558 129.104 135.851 129.104ZM135.856 127.87C136.314 127.87 136.694 127.749 136.996 127.507C137.297 127.264 137.52 126.942 137.664 126.539C137.812 126.136 137.885 125.692 137.885 125.207C137.885 124.725 137.812 124.283 137.664 123.88C137.52 123.474 137.297 123.148 136.996 122.902C136.694 122.657 136.314 122.534 135.856 122.534C135.394 122.534 135.011 122.657 134.706 122.902C134.404 123.148 134.18 123.474 134.033 123.88C133.889 124.283 133.816 124.725 133.816 125.207C133.816 125.692 133.889 126.136 134.033 126.539C134.18 126.942 134.404 127.264 134.706 127.507C135.011 127.749 135.394 127.87 135.856 127.87ZM144.189 129.104C143.481 129.104 142.864 128.942 142.336 128.617C141.809 128.293 141.399 127.839 141.108 127.256C140.816 126.673 140.67 125.992 140.67 125.212C140.67 124.429 140.816 123.744 141.108 123.158C141.399 122.571 141.809 122.116 142.336 121.792C142.864 121.467 143.481 121.305 144.189 121.305C144.896 121.305 145.514 121.467 146.041 121.792C146.569 122.116 146.978 122.571 147.27 123.158C147.561 123.744 147.707 124.429 147.707 125.212C147.707 125.992 147.561 126.673 147.27 127.256C146.978 127.839 146.569 128.293 146.041 128.617C145.514 128.942 144.896 129.104 144.189 129.104ZM144.194 127.87C144.652 127.87 145.032 127.749 145.334 127.507C145.635 127.264 145.858 126.942 146.002 126.539C146.149 126.136 146.223 125.692 146.223 125.207C146.223 124.725 146.149 124.283 146.002 123.88C145.858 123.474 145.635 123.148 145.334 122.902C145.032 122.657 144.652 122.534 144.194 122.534C143.732 122.534 143.348 122.657 143.044 122.902C142.742 123.148 142.518 123.474 142.371 123.88C142.226 124.283 142.154 124.725 142.154 125.207C142.154 125.692 142.226 126.136 142.371 126.539C142.518 126.942 142.742 127.264 143.044 127.507C143.348 127.749 143.732 127.87 144.194 127.87ZM150.816 118.888V128.951H149.347V118.888H150.816ZM158.449 123.246L157.117 123.482C157.062 123.312 156.973 123.15 156.852 122.996C156.734 122.842 156.574 122.716 156.371 122.617C156.167 122.519 155.914 122.47 155.609 122.47C155.193 122.47 154.846 122.563 154.567 122.75C154.289 122.933 154.149 123.171 154.149 123.462C154.149 123.715 154.243 123.918 154.429 124.072C154.616 124.226 154.918 124.352 155.334 124.45L156.533 124.725C157.227 124.886 157.745 125.133 158.085 125.467C158.426 125.802 158.597 126.236 158.597 126.77C158.597 127.222 158.466 127.625 158.203 127.978C157.945 128.329 157.583 128.604 157.117 128.804C156.656 129.004 156.12 129.104 155.511 129.104C154.665 129.104 153.976 128.924 153.442 128.563C152.908 128.2 152.58 127.684 152.459 127.015L153.879 126.799C153.968 127.169 154.149 127.449 154.425 127.639C154.7 127.826 155.058 127.919 155.501 127.919C155.982 127.919 156.367 127.82 156.656 127.62C156.944 127.417 157.088 127.169 157.088 126.878C157.088 126.642 157 126.444 156.823 126.283C156.649 126.123 156.382 126.001 156.022 125.919L154.744 125.639C154.04 125.479 153.519 125.223 153.181 124.873C152.847 124.522 152.68 124.078 152.68 123.541C152.68 123.096 152.805 122.706 153.054 122.372C153.303 122.037 153.647 121.777 154.085 121.59C154.524 121.4 155.027 121.305 155.594 121.305C156.41 121.305 157.052 121.482 157.52 121.836C157.989 122.186 158.298 122.657 158.449 123.246ZM161.18 129.045C160.911 129.045 160.681 128.95 160.487 128.76C160.294 128.566 160.197 128.334 160.197 128.062C160.197 127.793 160.294 127.564 160.487 127.374C160.681 127.181 160.911 127.084 161.18 127.084C161.449 127.084 161.68 127.181 161.873 127.374C162.066 127.564 162.163 127.793 162.163 128.062C162.163 128.242 162.117 128.408 162.025 128.558C161.937 128.706 161.819 128.824 161.671 128.912C161.524 129.001 161.36 129.045 161.18 129.045Z" fill="#2C2C2C"/>
<path d="M135.34 64.1334H138.716L140.413 66.3166L142.082 68.2614L145.229 72.2059H141.523L139.358 69.5456L138.248 67.9678L135.34 64.1334ZM145.513 61.2713C145.513 63.32 145.125 65.0629 144.348 66.5001C143.578 67.9373 142.526 69.035 141.193 69.7933C139.866 70.5455 138.373 70.9216 136.716 70.9216C135.047 70.9216 133.548 70.5425 132.221 69.7842C130.894 69.0258 129.845 67.9281 129.075 66.4909C128.304 65.0538 127.919 63.3139 127.919 61.2713C127.919 59.2226 128.304 57.4796 129.075 56.0425C129.845 54.6053 130.894 53.5106 132.221 52.7584C133.548 52.0001 135.047 51.6209 136.716 51.6209C138.373 51.6209 139.866 52.0001 141.193 52.7584C142.526 53.5106 143.578 54.6053 144.348 56.0425C145.125 57.4796 145.513 59.2226 145.513 61.2713ZM141.486 61.2713C141.486 59.9442 141.287 58.8251 140.89 57.9138C140.499 57.0026 139.945 56.3116 139.23 55.8407C138.514 55.3698 137.676 55.1343 136.716 55.1343C135.756 55.1343 134.918 55.3698 134.203 55.8407C133.487 56.3116 132.931 57.0026 132.533 57.9138C132.142 58.8251 131.946 59.9442 131.946 61.2713C131.946 62.5984 132.142 63.7175 132.533 64.6287C132.931 65.54 133.487 66.231 134.203 66.7019C134.918 67.1728 135.756 67.4083 136.716 67.4083C137.676 67.4083 138.514 67.1728 139.23 66.7019C139.945 66.231 140.499 65.54 140.89 64.6287C141.287 63.7175 141.486 62.5984 141.486 61.2713ZM157.418 64.6654V56.5745H161.326V70.6648H157.574V68.1054H157.427C157.109 68.931 156.58 69.5946 155.84 70.096C155.106 70.5975 154.21 70.8483 153.152 70.8483C152.211 70.8483 151.382 70.6342 150.666 70.2061C149.951 69.778 149.391 69.1695 148.988 68.3806C148.59 67.5917 148.388 66.6469 148.382 65.5461V56.5745H152.29V64.8489C152.296 65.6806 152.519 66.338 152.96 66.8212C153.4 67.3043 153.99 67.5459 154.73 67.5459C155.201 67.5459 155.641 67.4388 156.051 67.2248C156.461 67.0046 156.791 66.6805 157.042 66.2524C157.299 65.8243 157.424 65.2953 157.418 64.6654ZM164.452 70.6648V56.5745H168.36V70.6648H164.452ZM166.415 54.7582C165.834 54.7582 165.335 54.5656 164.92 54.1803C164.51 53.7889 164.305 53.3211 164.305 52.7768C164.305 52.2386 164.51 51.7769 164.92 51.3916C165.335 51.0002 165.834 50.8045 166.415 50.8045C166.996 50.8045 167.491 51.0002 167.901 51.3916C168.317 51.7769 168.525 52.2386 168.525 52.7768C168.525 53.3211 168.317 53.7889 167.901 54.1803C167.491 54.5656 166.996 54.7582 166.415 54.7582ZM177.856 70.94C176.413 70.94 175.172 70.6342 174.132 70.0227C173.098 69.405 172.303 68.5488 171.747 67.4541C171.196 66.3594 170.921 65.0996 170.921 63.6747C170.921 62.2314 171.199 60.9655 171.756 59.8769C172.319 58.7823 173.117 57.9291 174.15 57.3176C175.184 56.6999 176.413 56.3911 177.838 56.3911C179.067 56.3911 180.143 56.6143 181.067 57.0607C181.99 57.5072 182.721 58.134 183.259 58.9413C183.798 59.7485 184.094 60.6964 184.149 61.785H180.461C180.358 61.0817 180.082 60.516 179.636 60.0879C179.196 59.6537 178.618 59.4366 177.902 59.4366C177.297 59.4366 176.768 59.6017 176.315 59.932C175.869 60.2561 175.52 60.7301 175.269 61.3538C175.019 61.9776 174.893 62.7329 174.893 63.6197C174.893 64.5187 175.016 65.2831 175.26 65.913C175.511 66.5429 175.863 67.023 176.315 67.3532C176.768 67.6835 177.297 67.8486 177.902 67.8486C178.349 67.8486 178.749 67.7568 179.104 67.5734C179.465 67.3899 179.761 67.1239 179.994 66.7753C180.232 66.4206 180.388 65.9956 180.461 65.5002H184.149C184.088 66.5765 183.794 67.5245 183.269 68.3439C182.749 69.1573 182.03 69.7933 181.113 70.252C180.195 70.7107 179.11 70.94 177.856 70.94ZM190.192 66.6102L190.201 61.9226H190.77L195.283 56.5745H199.769L193.705 63.6564H192.779L190.192 66.6102ZM186.651 70.6648V51.8778H190.559V70.6648H186.651ZM195.458 70.6648L191.311 64.5278L193.916 61.7666L200.035 70.6648H195.458ZM217.93 57.2809C217.857 56.5409 217.542 55.966 216.985 55.5563C216.429 55.1465 215.673 54.9417 214.719 54.9417C214.071 54.9417 213.524 55.0334 213.077 55.2169C212.631 55.3942 212.288 55.6419 212.05 55.9599C211.817 56.2779 211.701 56.6387 211.701 57.0424C211.689 57.3787 211.759 57.6723 211.912 57.923C212.071 58.1738 212.288 58.3909 212.564 58.5743C212.839 58.7517 213.157 58.9076 213.518 59.0422C213.878 59.1706 214.264 59.2807 214.673 59.3724L216.361 59.776C217.181 59.9595 217.933 60.2041 218.618 60.5099C219.303 60.8157 219.896 61.1918 220.398 61.6382C220.899 62.0847 221.287 62.6106 221.563 63.216C221.844 63.8215 221.988 64.5156 221.994 65.2984C221.988 66.4481 221.694 67.4449 221.113 68.2889C220.538 69.1267 219.707 69.778 218.618 70.2428C217.536 70.7015 216.23 70.9308 214.701 70.9308C213.184 70.9308 211.863 70.6984 210.738 70.2336C209.619 69.7689 208.744 69.0809 208.115 68.1696C207.491 67.2523 207.164 66.1179 207.133 64.7663H210.977C211.019 65.3962 211.2 65.9222 211.518 66.3441C211.842 66.76 212.273 67.075 212.811 67.289C213.356 67.4969 213.97 67.6009 214.655 67.6009C215.328 67.6009 215.912 67.503 216.407 67.3073C216.909 67.1117 217.297 66.8395 217.572 66.4909C217.847 66.1423 217.985 65.7418 217.985 65.2892C217.985 64.8672 217.86 64.5125 217.609 64.2251C217.364 63.9377 217.003 63.6931 216.526 63.4912C216.056 63.2894 215.478 63.106 214.793 62.9408L212.747 62.4271C211.163 62.0418 209.912 61.4395 208.995 60.62C208.078 59.8005 207.622 58.6966 207.628 57.3084C207.622 56.1709 207.925 55.1771 208.536 54.3271C209.154 53.477 210.001 52.8135 211.078 52.3364C212.154 51.8594 213.377 51.6209 214.747 51.6209C216.141 51.6209 217.358 51.8594 218.398 52.3364C219.444 52.8135 220.257 53.477 220.838 54.3271C221.419 55.1771 221.719 56.1617 221.737 57.2809H217.93ZM232.087 56.5745V59.51H223.601V56.5745H232.087ZM225.528 53.1987H229.436V66.335C229.436 66.6958 229.491 66.9771 229.601 67.1789C229.711 67.3746 229.864 67.5122 230.059 67.5917C230.261 67.6712 230.494 67.711 230.757 67.711C230.94 67.711 231.124 67.6957 231.307 67.6651C231.491 67.6284 231.631 67.6009 231.729 67.5825L232.344 70.4905C232.148 70.5517 231.873 70.622 231.518 70.7015C231.163 70.7871 230.732 70.8391 230.225 70.8574C229.283 70.8941 228.457 70.7688 227.748 70.4813C227.044 70.1939 226.497 69.7475 226.106 69.142C225.714 68.5366 225.522 67.7721 225.528 66.8487V53.1987ZM238.65 70.9308C237.751 70.9308 236.95 70.7749 236.247 70.463C235.544 70.145 234.987 69.6771 234.577 69.0595C234.174 68.4357 233.972 67.659 233.972 66.7294C233.972 65.9466 234.116 65.2892 234.403 64.7572C234.69 64.2251 235.082 63.797 235.577 63.4729C236.073 63.1488 236.635 62.9041 237.265 62.739C237.901 62.5739 238.568 62.4577 239.265 62.3904C240.084 62.3048 240.745 62.2253 241.246 62.1519C241.748 62.0724 242.112 61.9562 242.338 61.8033C242.564 61.6505 242.677 61.4242 242.677 61.1245V61.0695C242.677 60.4885 242.494 60.039 242.127 59.721C241.766 59.403 241.252 59.244 240.586 59.244C239.883 59.244 239.323 59.3999 238.907 59.7118C238.491 60.0176 238.216 60.4029 238.082 60.8677L234.467 60.5741C234.651 59.7179 235.012 58.9779 235.55 58.3542C236.088 57.7243 236.782 57.2411 237.632 56.9048C238.488 56.5623 239.479 56.3911 240.604 56.3911C241.387 56.3911 242.136 56.4828 242.852 56.6663C243.573 56.8497 244.212 57.1341 244.769 57.5194C245.332 57.9047 245.775 58.4 246.099 59.0055C246.423 59.6048 246.585 60.3234 246.585 61.1612V70.6648H242.879V68.7109H242.769C242.543 69.1512 242.24 69.5395 241.861 69.8759C241.482 70.2061 241.026 70.466 240.494 70.6556C239.962 70.8391 239.347 70.9308 238.65 70.9308ZM239.769 68.2339C240.344 68.2339 240.852 68.1207 241.292 67.8944C241.733 67.6621 242.078 67.3502 242.329 66.9588C242.58 66.5674 242.705 66.124 242.705 65.6286V64.1334C242.583 64.2129 242.414 64.2863 242.2 64.3535C241.992 64.4147 241.757 64.4728 241.494 64.5278C241.231 64.5767 240.968 64.6226 240.705 64.6654C240.442 64.7021 240.204 64.7358 239.99 64.7663C239.531 64.8336 239.13 64.9406 238.788 65.0874C238.445 65.2342 238.179 65.4329 237.99 65.6837C237.8 65.9283 237.705 66.2341 237.705 66.601C237.705 67.1331 237.898 67.5397 238.283 67.8211C238.675 68.0963 239.17 68.2339 239.769 68.2339ZM249.617 70.6648V56.5745H253.406V59.033H253.552C253.809 58.1585 254.24 57.498 254.846 57.0515C255.451 56.599 256.148 56.3727 256.937 56.3727C257.133 56.3727 257.344 56.3849 257.57 56.4094C257.797 56.4339 257.995 56.4675 258.167 56.5103V59.9778C257.983 59.9228 257.729 59.8739 257.405 59.8311C257.081 59.7883 256.784 59.7669 256.515 59.7669C255.941 59.7669 255.427 59.8922 254.974 60.143C254.528 60.3876 254.173 60.7301 253.91 61.1704C253.653 61.6107 253.525 62.1183 253.525 62.6932V70.6648H249.617ZM268.388 56.5745V59.51H259.903V56.5745H268.388ZM261.829 53.1987H265.737V66.335C265.737 66.6958 265.792 66.9771 265.902 67.1789C266.012 67.3746 266.165 67.5122 266.361 67.5917C266.563 67.6712 266.795 67.711 267.058 67.711C267.241 67.711 267.425 67.6957 267.608 67.6651C267.792 67.6284 267.932 67.6009 268.03 67.5825L268.645 70.4905C268.449 70.5517 268.174 70.622 267.819 70.7015C267.465 70.7871 267.033 70.8391 266.526 70.8574C265.584 70.8941 264.758 70.7688 264.049 70.4813C263.346 70.1939 262.798 69.7475 262.407 69.142C262.016 68.5366 261.823 67.7721 261.829 66.8487V53.1987Z" fill="#2C2C2C"/>
<path d="M402.717 39.3459L399.874 39.5573L401.842 23.7516L389.163 35.7659L387.4 33.9244L400.079 21.91L384.115 23.0956L384.467 20.2817L403.074 18.8968L402.801 21.0871L405.013 20.9226L402.717 39.3459Z" fill="#FF62C4"/>
<path d="M59.0242 48.2921L55.0285 48.3175C54.2918 48.3064 53.7198 48.928 53.7135 49.6732L53.9196 82.2683C53.9134 83.0135 54.5316 83.5963 55.2682 83.6075L59.2639 83.5821C60.0006 83.5933 60.5726 82.9716 60.5789 82.2264L60.3731 49.6312C60.3167 48.9028 59.7608 48.3038 59.0242 48.2926L59.0242 48.2921Z" fill="#FF62C4"/>
<path d="M83.9889 52.9575L81.0778 50.1814C80.5602 49.6526 79.7191 49.7185 79.202 50.2473L66.0695 64.4584C65.6165 64.9872 65.6165 65.7802 66.0695 66.3091L79.202 80.5202C79.7196 81.049 80.5608 81.115 81.0778 80.5861L83.9889 77.81C84.5064 77.2812 84.571 76.4217 84.0534 75.8934L74.3501 65.3839L84.0538 54.8745C84.5069 54.3456 84.5069 53.4862 83.9893 52.9574L83.9889 52.9575Z" fill="#FF62C4"/>
<path d="M104.054 52.9575L101.143 50.1814C100.625 49.6526 99.784 49.7185 99.2669 50.2473L86.1344 64.4584C85.6814 64.9872 85.6814 65.7802 86.1344 66.3091L99.2669 80.5202C99.7845 81.049 100.626 81.115 101.143 80.5861L104.054 77.81C104.571 77.2812 104.636 76.4217 104.118 75.8934L94.4149 65.3839L104.119 54.8745C104.572 54.3456 104.572 53.4862 104.054 52.9574L104.054 52.9575Z" fill="#FF62C4"/>
</svg>
