<svg width="17" height="17" viewBox="0 0 17 17" fill="none" xmlns="http://www.w3.org/2000/svg">
<path d="M12.7016 11.5274C13.6891 10.2853 14.2312 8.71347 14.2312 7.12212C14.2312 3.20204 11.0365 0 7.10591 0C3.17539 0 0 3.20211 0 7.12212C0 11.0422 3.19468 14.2442 7.10591 14.2442C8.67421 14.2442 10.2425 13.7009 11.5011 12.7112L15.7802 17L17 15.7774L12.7016 11.5274ZM7.10598 12.5559C4.14357 12.5559 1.7233 10.1301 1.7233 7.16093C1.7233 4.19176 4.14357 1.76597 7.10598 1.76597C10.0684 1.76597 12.4887 4.19176 12.4887 7.16093C12.4887 10.1301 10.0684 12.5559 7.10598 12.5559Z" fill="#2C2C2C"/>
</svg>
